<svg width="300" height="253" viewBox="0 0 300 253" fill="none" xmlns="http://www.w3.org/2000/svg">
<rect width="299.25" height="252.749" fill="white"/>
<mask id="path-1-inside-1_55146_19484" fill="white">
<path d="M0 0H299.25V93.5187H0V0Z"/>
</mask>
<path d="M299.25 93.5187V92.5308H0V93.5187V94.5067H299.25V93.5187Z" fill="#E9EEF4" mask="url(#path-1-inside-1_55146_19484)"/>
<path d="M20.8649 26.7H22.7068L25.9093 34.5195H26.0272L29.2297 26.7H31.0716V36.7593H29.6275V29.48H29.5342L26.5675 36.7445H25.369L22.4023 29.4751H22.309V36.7593H20.8649V26.7ZM33.1603 36.7593V29.2148H34.6289V36.7593H33.1603ZM33.902 28.0507C33.6466 28.0507 33.4272 27.9656 33.2438 27.7953C33.0637 27.6217 32.9737 27.4154 32.9737 27.1764C32.9737 26.9341 33.0637 26.7278 33.2438 26.5575C33.4272 26.384 33.6466 26.2972 33.902 26.2972C34.1574 26.2972 34.3752 26.384 34.5553 26.5575C34.7386 26.7278 34.8303 26.9341 34.8303 27.1764C34.8303 27.4154 34.7386 27.6217 34.5553 27.7953C34.3752 27.9656 34.1574 28.0507 33.902 28.0507ZM38.0733 32.2797V36.7593H36.6047V29.2148H38.0144V30.4427H38.1077C38.2813 30.0432 38.553 29.7223 38.9231 29.48C39.2964 29.2377 39.7662 29.1166 40.3327 29.1166C40.8468 29.1166 41.2971 29.2246 41.6835 29.4407C42.0699 29.6536 42.3695 29.9712 42.5823 30.3936C42.7952 30.816 42.9016 31.3383 42.9016 31.9605V36.7593H41.433V32.1373C41.433 31.5905 41.2905 31.1631 41.0057 30.8553C40.7208 30.5442 40.3295 30.3887 39.8317 30.3887C39.4912 30.3887 39.1883 30.4624 38.9231 30.6097C38.6611 30.7571 38.4532 30.9732 38.2993 31.2581C38.1486 31.5397 38.0733 31.8802 38.0733 32.2797ZM44.8712 36.7593V29.2148H46.3398V36.7593H44.8712ZM45.6129 28.0507C45.3575 28.0507 45.1381 27.9656 44.9547 27.7953C44.7746 27.6217 44.6846 27.4154 44.6846 27.1764C44.6846 26.9341 44.7746 26.7278 44.9547 26.5575C45.1381 26.384 45.3575 26.2972 45.6129 26.2972C45.8683 26.2972 46.0861 26.384 46.2662 26.5575C46.4495 26.7278 46.5412 26.9341 46.5412 27.1764C46.5412 27.4154 46.4495 27.6217 46.2662 27.7953C46.0861 27.9656 45.8683 28.0507 45.6129 28.0507ZM48.3156 36.7593V29.2148H49.7253V30.4427H49.8186C49.9758 30.0269 50.2328 29.7027 50.5898 29.4702C50.9467 29.2344 51.374 29.1166 51.8717 29.1166C52.376 29.1166 52.7984 29.2344 53.139 29.4702C53.4828 29.706 53.7366 30.0301 53.9003 30.4427H53.9789C54.159 30.04 54.4455 29.7191 54.8384 29.48C55.2314 29.2377 55.6996 29.1166 56.2432 29.1166C56.9276 29.1166 57.4859 29.331 57.9181 29.76C58.3536 30.189 58.5714 30.8357 58.5714 31.7001V36.7593H57.1028V31.8377C57.1028 31.3269 56.9636 30.9568 56.6853 30.7276C56.4069 30.4984 56.0746 30.3838 55.6882 30.3838C55.2101 30.3838 54.8384 30.5311 54.5732 30.8259C54.308 31.1173 54.1754 31.4922 54.1754 31.9506V36.7593H52.7116V31.7444C52.7116 31.335 52.5839 31.006 52.3285 30.7571C52.0731 30.5082 51.7407 30.3838 51.3314 30.3838C51.0531 30.3838 50.796 30.4575 50.5603 30.6048C50.3278 30.7489 50.1395 30.9503 49.9954 31.209C49.8546 31.4677 49.7842 31.7673 49.7842 32.1078V36.7593H48.3156ZM65.3189 33.6305V29.2148H66.7925V36.7593H65.3484V35.4527H65.2698C65.0963 35.8555 64.8179 36.1911 64.4348 36.4597C64.055 36.7249 63.5818 36.8575 63.0153 36.8575C62.5307 36.8575 62.1017 36.7511 61.7284 36.5382C61.3584 36.3221 61.067 36.0029 60.8541 35.5805C60.6446 35.158 60.5398 34.6358 60.5398 34.0136V29.2148H62.0084V33.8368C62.0084 34.3509 62.1508 34.7602 62.4357 35.0647C62.7206 35.3692 63.0906 35.5215 63.5458 35.5215C63.8209 35.5215 64.0943 35.4527 64.3661 35.3152C64.6411 35.1777 64.8687 34.9698 65.0488 34.6914C65.2322 34.4131 65.3222 34.0594 65.3189 33.6305ZM68.7658 36.7593V29.2148H70.1755V30.4427H70.2688C70.426 30.0269 70.683 29.7027 71.0399 29.4702C71.3969 29.2344 71.8242 29.1166 72.3219 29.1166C72.8262 29.1166 73.2486 29.2344 73.5891 29.4702C73.933 29.706 74.1867 30.0301 74.3505 30.4427H74.4291C74.6092 30.04 74.8957 29.7191 75.2886 29.48C75.6816 29.2377 76.1498 29.1166 76.6934 29.1166C77.3778 29.1166 77.9361 29.331 78.3683 29.76C78.8038 30.189 79.0216 30.8357 79.0216 31.7001V36.7593H77.5529V31.8377C77.5529 31.3269 77.4138 30.9568 77.1354 30.7276C76.8571 30.4984 76.5247 30.3838 76.1384 30.3838C75.6603 30.3838 75.2886 30.5311 75.0234 30.8259C74.7581 31.1173 74.6255 31.4922 74.6255 31.9506V36.7593H73.1618V31.7444C73.1618 31.335 73.0341 31.006 72.7787 30.7571C72.5233 30.5082 72.1909 30.3838 71.7816 30.3838C71.5033 30.3838 71.2462 30.4575 71.0105 30.6048C70.778 30.7489 70.5897 30.9503 70.4456 31.209C70.3048 31.4677 70.2344 31.7673 70.2344 32.1078V36.7593H68.7658ZM87.8284 36.9115C87.1211 36.9115 86.5038 36.7495 85.9766 36.4253C85.4494 36.1011 85.0401 35.6476 84.7487 35.0647C84.4573 34.4819 84.3115 33.8008 84.3115 33.0214C84.3115 32.2388 84.4573 31.5544 84.7487 30.9683C85.0401 30.3822 85.4494 29.927 85.9766 29.6028C86.5038 29.2786 87.1211 29.1166 87.8284 29.1166C88.5357 29.1166 89.1529 29.2786 89.6801 29.6028C90.2073 29.927 90.6166 30.3822 90.9081 30.9683C91.1995 31.5544 91.3452 32.2388 91.3452 33.0214C91.3452 33.8008 91.1995 34.4819 90.9081 35.0647C90.6166 35.6476 90.2073 36.1011 89.6801 36.4253C89.1529 36.7495 88.5357 36.9115 87.8284 36.9115ZM87.8333 35.6787C88.2917 35.6787 88.6716 35.5575 88.9728 35.3152C89.2741 35.0729 89.4967 34.7504 89.6408 34.3476C89.7882 33.9448 89.8619 33.5011 89.8619 33.0165C89.8619 32.5352 89.7882 32.0931 89.6408 31.6903C89.4967 31.2843 89.2741 30.9585 88.9728 30.7129C88.6716 30.4673 88.2917 30.3445 87.8333 30.3445C87.3716 30.3445 86.9885 30.4673 86.6839 30.7129C86.3827 30.9585 86.1584 31.2843 86.011 31.6903C85.8669 32.0931 85.7949 32.5352 85.7949 33.0165C85.7949 33.5011 85.8669 33.9448 86.011 34.3476C86.1584 34.7504 86.3827 35.0729 86.6839 35.3152C86.9885 35.5575 87.3716 35.6787 87.8333 35.6787ZM96.575 29.2148V30.3936H92.3116V29.2148H96.575ZM93.4806 36.7593V28.3405C93.4806 27.869 93.5837 27.4777 93.79 27.1666C93.9963 26.8522 94.2698 26.6181 94.6103 26.4642C94.9509 26.307 95.3209 26.2284 95.7204 26.2284C96.0151 26.2284 96.2672 26.253 96.4768 26.3021C96.6864 26.3479 96.8419 26.3905 96.9434 26.4298L96.5996 27.6185C96.5308 27.5988 96.4424 27.5759 96.3343 27.5497C96.2263 27.5202 96.0953 27.5055 95.9414 27.5055C95.5845 27.5055 95.3291 27.5939 95.1752 27.7707C95.0245 27.9476 94.9492 28.203 94.9492 28.537V36.7593H93.4806ZM101.681 29.2148V30.3936H97.4174V29.2148H101.681ZM98.5864 36.7593V28.3405C98.5864 27.869 98.6895 27.4777 98.8958 27.1666C99.1021 26.8522 99.3756 26.6181 99.7161 26.4642C100.057 26.307 100.427 26.2284 100.826 26.2284C101.121 26.2284 101.373 26.253 101.583 26.3021C101.792 26.3479 101.948 26.3905 102.049 26.4298L101.705 27.6185C101.637 27.5988 101.548 27.5759 101.44 27.5497C101.332 27.5202 101.201 27.5055 101.047 27.5055C100.69 27.5055 100.435 27.5939 100.281 27.7707C100.13 27.9476 100.055 28.203 100.055 28.537V36.7593H98.5864ZM106.151 36.9115C105.407 36.9115 104.767 36.7527 104.23 36.4351C103.696 36.1142 103.284 35.664 102.992 35.0844C102.704 34.5015 102.56 33.8188 102.56 33.0362C102.56 32.2634 102.704 31.5823 102.992 30.9929C103.284 30.4034 103.69 29.9434 104.21 29.6126C104.734 29.2819 105.347 29.1166 106.047 29.1166C106.473 29.1166 106.886 29.187 107.285 29.3278C107.685 29.4686 108.043 29.6896 108.361 29.9909C108.678 30.2921 108.929 30.6834 109.112 31.1648C109.296 31.6428 109.387 32.2241 109.387 32.9084V33.4291H103.39V32.3289H107.948C107.948 31.9425 107.87 31.6003 107.712 31.3023C107.555 31.001 107.334 30.7636 107.049 30.5901C106.768 30.4165 106.437 30.3298 106.057 30.3298C105.645 30.3298 105.284 30.4313 104.977 30.6343C104.672 30.834 104.436 31.096 104.269 31.4202C104.106 31.7411 104.024 32.0898 104.024 32.4664V33.3259C104.024 33.8302 104.112 34.2592 104.289 34.6128C104.469 34.9665 104.72 35.2366 105.04 35.4233C105.361 35.6066 105.736 35.6983 106.165 35.6983C106.444 35.6983 106.697 35.659 106.927 35.5805C107.156 35.4986 107.354 35.3774 107.521 35.217C107.688 35.0565 107.816 34.8584 107.904 34.6227L109.294 34.8732C109.183 35.2825 108.983 35.641 108.695 35.9488C108.41 36.2534 108.051 36.4908 107.619 36.661C107.19 36.828 106.701 36.9115 106.151 36.9115ZM111.017 36.7593V29.2148H112.436V30.4133H112.515C112.652 30.0072 112.895 29.688 113.242 29.4555C113.592 29.2197 113.988 29.1018 114.431 29.1018C114.522 29.1018 114.63 29.1051 114.755 29.1116C114.882 29.1182 114.982 29.1264 115.054 29.1362V30.541C114.995 30.5246 114.891 30.5066 114.74 30.4869C114.589 30.464 114.439 30.4526 114.288 30.4526C113.941 30.4526 113.632 30.5262 113.36 30.6736C113.091 30.8177 112.878 31.019 112.721 31.2777C112.564 31.5331 112.485 31.8246 112.485 32.152V36.7593H111.017Z" fill="#6B7280"/>
<path d="M126.63 26.14C128.12 26.14 129.549 26.732 130.603 27.7858C131.657 28.8395 132.249 30.2688 132.249 31.759C132.249 33.2493 131.657 34.6785 130.603 35.7323C129.549 36.7861 128.12 37.3781 126.63 37.3781C125.139 37.3781 123.71 36.7861 122.656 35.7323C121.603 34.6785 121.011 33.2493 121.011 31.759C121.011 30.2688 121.603 28.8395 122.656 27.7858C123.71 26.732 125.139 26.14 126.63 26.14ZM126.63 38.6748C128.464 38.6748 130.223 37.9462 131.52 36.6492C132.817 35.3523 133.545 33.5932 133.545 31.759C133.545 29.9249 132.817 28.1658 131.52 26.8688C130.223 25.5719 128.464 24.8433 126.63 24.8433C124.795 24.8433 123.036 25.5719 121.739 26.8688C120.442 28.1658 119.714 29.9249 119.714 31.759C119.714 33.5932 120.442 35.3523 121.739 36.6492C123.036 37.9462 124.795 38.6748 126.63 38.6748ZM125.549 33.9202C125.19 33.9202 124.901 34.2093 124.901 34.5686C124.901 34.9279 125.19 35.2169 125.549 35.2169H127.71C128.07 35.2169 128.359 34.9279 128.359 34.5686C128.359 34.2093 128.07 33.9202 127.71 33.9202H127.494V31.5429C127.494 31.1836 127.205 30.8946 126.846 30.8946H125.549C125.19 30.8946 124.901 31.1836 124.901 31.5429C124.901 31.9022 125.19 32.1913 125.549 32.1913H126.197V33.9202H125.549ZM126.63 30.0301C126.859 30.0301 127.079 29.939 127.241 29.7769C127.403 29.6148 127.494 29.3949 127.494 29.1656C127.494 28.9364 127.403 28.7165 127.241 28.5544C127.079 28.3922 126.859 28.3012 126.63 28.3012C126.4 28.3012 126.18 28.3922 126.018 28.5544C125.856 28.7165 125.765 28.9364 125.765 29.1656C125.765 29.3949 125.856 29.6148 126.018 29.7769C126.18 29.939 126.4 30.0301 126.63 30.0301Z" fill="#6B7280"/>
<path d="M33.1394 66.7593H21.3512V64.5195H33.1394V66.7593ZM29.603 60.0063H21.2922V57.7665H29.603V60.0063ZM25.5192 54.6174L25.7886 61.884C25.8223 62.6081 25.7297 63.2565 25.5108 63.8291C25.2918 64.396 24.8961 64.8479 24.3235 65.1847L22.1679 64.5195C22.4711 64.5027 22.704 64.3483 22.8668 64.0564C23.0296 63.7645 23.1391 63.4221 23.1952 63.0291C23.2513 62.6306 23.2738 62.2713 23.2626 61.9514L23.0184 54.6174C22.9735 53.4385 23.1924 52.4534 23.6752 51.6619C24.1635 50.8704 24.8119 50.2754 25.6202 49.8768C26.4286 49.4782 27.2986 49.279 28.2305 49.279C29.0613 49.279 29.8079 49.4165 30.4702 49.6916C31.1382 49.9666 31.6996 50.3427 32.1543 50.8199C32.6146 51.2914 32.943 51.8303 33.1394 52.4365C33.3359 53.0428 33.3752 53.6799 33.2573 54.3479L30.8239 53.9606C30.88 53.4105 30.793 52.953 30.5629 52.5881C30.3327 52.2232 30.0156 51.9482 29.6114 51.7629C29.2072 51.5777 28.7778 51.4851 28.3231 51.4851C27.846 51.4851 27.3913 51.5973 26.959 51.8219C26.5324 52.0464 26.1844 52.3888 25.9149 52.8491C25.6511 53.3094 25.5192 53.8988 25.5192 54.6174ZM42.7048 66.995C41.5484 66.995 40.5155 66.7958 39.6061 66.3972C38.7024 65.9987 37.9867 65.4457 37.459 64.7384C36.9369 64.0255 36.6563 63.2003 36.617 62.2629H39.2609C39.2946 62.7737 39.4658 63.2172 39.7746 63.5933C40.0889 63.9638 40.4987 64.2501 41.0039 64.4521C41.5091 64.6542 42.0705 64.7553 42.6879 64.7553C43.3672 64.7553 43.9678 64.6374 44.4899 64.4016C45.0175 64.1659 45.4301 63.8375 45.7276 63.4165C46.0251 62.9898 46.1739 62.4987 46.1739 61.9429C46.1739 61.3647 46.0251 60.8567 45.7276 60.4189C45.4357 59.9754 45.0063 59.6274 44.4393 59.3748C43.878 59.1222 43.1988 58.9959 42.4016 58.9959H40.945V56.874H42.4016C43.0416 56.874 43.6029 56.7589 44.0857 56.5287C44.5741 56.2986 44.9558 55.9786 45.2308 55.5688C45.5059 55.1535 45.6434 54.6679 45.6434 54.1122C45.6434 53.5789 45.5227 53.1158 45.2814 52.7228C45.0456 52.3243 44.7088 52.0127 44.2709 51.7882C43.8387 51.5636 43.3279 51.4514 42.7385 51.4514C42.1771 51.4514 41.6523 51.5552 41.1639 51.7629C40.6811 51.965 40.2882 52.2569 39.9851 52.6386C39.6819 53.0147 39.5191 53.4666 39.4967 53.9943H36.979C37.0071 53.0624 37.2822 52.2429 37.8042 51.5356C38.3319 50.8283 39.028 50.2754 39.8924 49.8768C40.7569 49.4782 41.7168 49.279 42.7721 49.279C43.878 49.279 44.8323 49.4951 45.635 49.9273C46.4433 50.3539 47.0664 50.9237 47.5043 51.6366C47.9477 52.3495 48.1667 53.1298 48.1611 53.9774C48.1667 54.9429 47.8972 55.7625 47.3527 56.4361C46.8138 57.1097 46.0953 57.5616 45.1972 57.7918V57.9265C46.3423 58.1005 47.2292 58.5552 47.8579 59.2906C48.4923 60.0259 48.8066 60.9381 48.801 62.0271C48.8066 62.9758 48.5428 63.8262 48.0095 64.5784C47.4818 65.3307 46.7605 65.9229 45.8455 66.3551C44.9305 66.7817 43.8836 66.995 42.7048 66.995ZM57.6759 66.995C56.6205 66.995 55.6719 66.793 54.8298 66.3888C53.9934 65.979 53.3254 65.4177 52.8258 64.7048C52.3262 63.9918 52.0596 63.1779 52.0259 62.2629H54.552C54.6137 63.0039 54.9421 63.6129 55.5371 64.0901C56.1322 64.5672 56.8451 64.8058 57.6759 64.8058C58.3383 64.8058 58.9249 64.6542 59.4357 64.3511C59.9521 64.0424 60.3563 63.6185 60.6482 63.0797C60.9457 62.5408 61.0945 61.9261 61.0945 61.2356C61.0945 60.534 60.9429 59.9081 60.6398 59.3579C60.3366 58.8078 59.9184 58.3756 59.3852 58.0612C58.8575 57.7469 58.2512 57.5869 57.5664 57.5813C57.0444 57.5813 56.5195 57.6711 55.9918 57.8507C55.4642 58.0303 55.0375 58.2661 54.712 58.558L52.329 58.2044L53.2974 49.5147H62.7785V51.7461H55.4614L54.914 56.5709H55.0151C55.3519 56.2453 55.7982 55.973 56.3539 55.7541C56.9152 55.5352 57.5159 55.4257 58.1558 55.4257C59.2055 55.4257 60.1402 55.6755 60.9597 56.1751C61.7849 56.6747 62.4333 57.3567 62.9048 58.2212C63.3819 59.0801 63.6177 60.068 63.6121 61.1851C63.6177 62.3022 63.3651 63.2986 62.8543 64.1743C62.3491 65.05 61.6474 65.7404 60.7492 66.2456C59.8567 66.7452 58.8322 66.995 57.6759 66.995ZM72.6912 67.0456C71.3608 67.04 70.2241 66.6891 69.281 65.993C68.3379 65.297 67.6166 64.2837 67.117 62.9534C66.6174 61.623 66.3676 60.0203 66.3676 58.1454C66.3676 56.2761 66.6174 54.6791 67.117 53.3543C67.6222 52.0296 68.3464 51.0191 69.2894 50.3231C70.2381 49.627 71.372 49.279 72.6912 49.279C74.0103 49.279 75.1414 49.6298 76.0845 50.3315C77.0276 51.0276 77.7489 52.038 78.2485 53.3628C78.7537 54.6819 79.0063 56.2761 79.0063 58.1454C79.0063 60.0259 78.7565 61.6314 78.2569 62.9618C77.7573 64.2865 77.036 65.2998 76.0929 66.0015C75.1499 66.6975 74.0159 67.0456 72.6912 67.0456ZM72.6912 64.7974C73.8588 64.7974 74.771 64.2276 75.4277 63.0881C76.0901 61.9485 76.4213 60.301 76.4213 58.1454C76.4213 56.714 76.2697 55.5043 75.9666 54.5163C75.6691 53.5227 75.2397 52.7705 74.6783 52.2597C74.1226 51.7433 73.4602 51.4851 72.6912 51.4851C71.5292 51.4851 70.617 52.0576 69.9546 53.2028C69.2922 54.3479 68.9582 55.9955 68.9526 58.1454C68.9526 59.5825 69.1014 60.7978 69.3989 61.7914C69.702 62.7793 70.1314 63.5287 70.6872 64.0396C71.2429 64.5448 71.9109 64.7974 72.6912 64.7974ZM84.6773 64.4016L84.551 65.3194C84.4668 65.993 84.3237 66.6947 84.1216 67.4245C83.9251 68.1598 83.7202 68.8419 83.5069 69.4706C83.2992 70.0993 83.128 70.5989 82.9933 70.9694H81.2082C81.2812 70.6213 81.3822 70.1498 81.5113 69.5548C81.6404 68.9654 81.7667 68.3058 81.8902 67.576C82.0137 66.8463 82.1063 66.1025 82.1681 65.3447L82.2523 64.4016H84.6773ZM93.5774 67.0456C92.2471 67.04 91.1103 66.6891 90.1673 65.993C89.2242 65.297 88.5029 64.2837 88.0033 62.9534C87.5037 61.623 87.2539 60.0203 87.2539 58.1454C87.2539 56.2761 87.5037 54.6791 88.0033 53.3543C88.5085 52.0296 89.2326 51.0191 90.1757 50.3231C91.1244 49.627 92.2583 49.279 93.5774 49.279C94.8966 49.279 96.0277 49.6298 96.9708 50.3315C97.9138 51.0276 98.6352 52.038 99.1348 53.3628C99.64 54.6819 99.8926 56.2761 99.8926 58.1454C99.8926 60.0259 99.6428 61.6314 99.1432 62.9618C98.6436 64.2865 97.9223 65.2998 96.9792 66.0015C96.0361 66.6975 94.9022 67.0456 93.5774 67.0456ZM93.5774 64.7974C94.745 64.7974 95.6572 64.2276 96.314 63.0881C96.9764 61.9485 97.3076 60.301 97.3076 58.1454C97.3076 56.714 97.156 55.5043 96.8529 54.5163C96.5554 53.5227 96.1259 52.7705 95.5646 52.2597C95.0089 51.7433 94.3465 51.4851 93.5774 51.4851C92.4155 51.4851 91.5033 52.0576 90.8409 53.2028C90.1785 54.3479 89.8445 55.9955 89.8389 58.1454C89.8389 59.5825 89.9876 60.7978 90.2851 61.7914C90.5883 62.7793 91.0177 63.5287 91.5734 64.0396C92.1292 64.5448 92.7972 64.7974 93.5774 64.7974ZM108.883 67.0456C107.553 67.04 106.416 66.6891 105.473 65.993C104.53 65.297 103.809 64.2837 103.309 62.9534C102.809 61.623 102.56 60.0203 102.56 58.1454C102.56 56.2761 102.809 54.6791 103.309 53.3543C103.814 52.0296 104.538 51.0191 105.481 50.3231C106.43 49.627 107.564 49.279 108.883 49.279C110.202 49.279 111.334 49.6298 112.277 50.3315C113.22 51.0276 113.941 52.038 114.441 53.3628C114.946 54.6819 115.198 56.2761 115.198 58.1454C115.198 60.0259 114.949 61.6314 114.449 62.9618C113.949 64.2865 113.228 65.2998 112.285 66.0015C111.342 66.6975 110.208 67.0456 108.883 67.0456ZM108.883 64.7974C110.051 64.7974 110.963 64.2276 111.62 63.0881C112.282 61.9485 112.613 60.301 112.613 58.1454C112.613 56.714 112.462 55.5043 112.159 54.5163C111.861 53.5227 111.432 52.7705 110.87 52.2597C110.315 51.7433 109.652 51.4851 108.883 51.4851C107.721 51.4851 106.809 52.0576 106.147 53.2028C105.484 54.3479 105.15 55.9955 105.145 58.1454C105.145 59.5825 105.293 60.7978 105.591 61.7914C105.894 62.7793 106.323 63.5287 106.879 64.0396C107.435 64.5448 108.103 64.7974 108.883 64.7974ZM124.189 67.0456C122.859 67.04 121.722 66.6891 120.779 65.993C119.836 65.297 119.114 64.2837 118.615 62.9534C118.115 61.623 117.865 60.0203 117.865 58.1454C117.865 56.2761 118.115 54.6791 118.615 53.3543C119.12 52.0296 119.844 51.0191 120.787 50.3231C121.736 49.627 122.87 49.279 124.189 49.279C125.508 49.279 126.639 49.6298 127.582 50.3315C128.525 51.0276 129.247 52.038 129.746 53.3628C130.252 54.6819 130.504 56.2761 130.504 58.1454C130.504 60.0259 130.254 61.6314 129.755 62.9618C129.255 64.2865 128.534 65.2998 127.591 66.0015C126.648 66.6975 125.514 67.0456 124.189 67.0456ZM124.189 64.7974C125.357 64.7974 126.269 64.2276 126.926 63.0881C127.588 61.9485 127.919 60.301 127.919 58.1454C127.919 56.714 127.768 55.5043 127.464 54.5163C127.167 53.5227 126.738 52.7705 126.176 52.2597C125.62 51.7433 124.958 51.4851 124.189 51.4851C123.027 51.4851 122.115 52.0576 121.452 53.2028C120.79 54.3479 120.456 55.9955 120.45 58.1454C120.45 59.5825 120.599 60.7978 120.897 61.7914C121.2 62.7793 121.629 63.5287 122.185 64.0396C122.741 64.5448 123.409 64.7974 124.189 64.7974ZM134.558 66.9193C134.098 66.9193 133.702 66.7565 133.371 66.4309C133.04 66.0997 132.874 65.7011 132.874 65.2352C132.874 64.7749 133.04 64.382 133.371 64.0564C133.702 63.7252 134.098 63.5596 134.558 63.5596C135.019 63.5596 135.415 63.7252 135.746 64.0564C136.077 64.382 136.243 64.7749 136.243 65.2352C136.243 65.544 136.164 65.8274 136.007 66.0857C135.855 66.3383 135.653 66.5404 135.401 66.6919C135.148 66.8435 134.867 66.9193 134.558 66.9193ZM144.96 67.0456C143.629 67.04 142.492 66.6891 141.549 65.993C140.606 65.297 139.885 64.2837 139.385 62.9534C138.886 61.623 138.636 60.0203 138.636 58.1454C138.636 56.2761 138.886 54.6791 139.385 53.3543C139.891 52.0296 140.615 51.0191 141.558 50.3231C142.506 49.627 143.64 49.279 144.96 49.279C146.279 49.279 147.41 49.6298 148.353 50.3315C149.296 51.0276 150.017 52.038 150.517 53.3628C151.022 54.6819 151.275 56.2761 151.275 58.1454C151.275 60.0259 151.025 61.6314 150.525 62.9618C150.026 64.2865 149.304 65.2998 148.361 66.0015C147.418 66.6975 146.284 67.0456 144.96 67.0456ZM144.96 64.7974C146.127 64.7974 147.039 64.2276 147.696 63.0881C148.358 61.9485 148.69 60.301 148.69 58.1454C148.69 56.714 148.538 55.5043 148.235 54.5163C147.937 53.5227 147.508 52.7705 146.947 52.2597C146.391 51.7433 145.729 51.4851 144.96 51.4851C143.798 51.4851 142.885 52.0576 142.223 53.2028C141.561 54.3479 141.227 55.9955 141.221 58.1454C141.221 59.5825 141.37 60.7978 141.667 61.7914C141.97 62.7793 142.4 63.5287 142.956 64.0396C143.511 64.5448 144.179 64.7974 144.96 64.7974ZM160.265 67.0456C158.935 67.04 157.798 66.6891 156.855 65.993C155.912 65.297 155.191 64.2837 154.691 62.9534C154.192 61.623 153.942 60.0203 153.942 58.1454C153.942 56.2761 154.192 54.6791 154.691 53.3543C155.196 52.0296 155.921 51.0191 156.864 50.3231C157.812 49.627 158.946 49.279 160.265 49.279C161.584 49.279 162.716 49.6298 163.659 50.3315C164.602 51.0276 165.323 52.038 165.823 53.3628C166.328 54.6819 166.58 56.2761 166.58 58.1454C166.58 60.0259 166.331 61.6314 165.831 62.9618C165.331 64.2865 164.61 65.2998 163.667 66.0015C162.724 66.6975 161.59 67.0456 160.265 67.0456ZM160.265 64.7974C161.433 64.7974 162.345 64.2276 163.002 63.0881C163.664 61.9485 163.995 60.301 163.995 58.1454C163.995 56.714 163.844 55.5043 163.541 54.5163C163.243 53.5227 162.814 52.7705 162.252 52.2597C161.697 51.7433 161.034 51.4851 160.265 51.4851C159.103 51.4851 158.191 52.0576 157.529 53.2028C156.866 54.3479 156.532 55.9955 156.527 58.1454C156.527 59.5825 156.676 60.7978 156.973 61.7914C157.276 62.7793 157.706 63.5287 158.261 64.0396C158.817 64.5448 159.485 64.7974 160.265 64.7974Z" fill="#217613"/>
<path d="M180.76 64.5924V52.9258M186.593 58.7591L180.76 52.9258L174.927 58.7591" stroke="#217613" stroke-width="2" stroke-linecap="round" stroke-linejoin="round"/>
<path d="M27.6726 123.396C27.5777 123.098 27.45 122.832 27.2895 122.596C27.1323 122.357 26.9441 122.154 26.7247 121.987C26.5053 121.816 26.2548 121.687 25.9732 121.599C25.6948 121.51 25.3887 121.466 25.0547 121.466C24.4882 121.466 23.9773 121.612 23.5222 121.903C23.067 122.195 22.7068 122.622 22.4416 123.185C22.1796 123.745 22.0487 124.431 22.0487 125.243C22.0487 126.059 22.1813 126.748 22.4465 127.311C22.7117 127.874 23.0752 128.302 23.5369 128.593C23.9986 128.885 24.5242 129.03 25.1136 129.03C25.6604 129.03 26.1369 128.919 26.5429 128.696C26.9522 128.474 27.2682 128.159 27.4909 127.753C27.7168 127.344 27.8298 126.863 27.8298 126.309L28.2228 126.383H25.3445V125.13H29.2984V126.275C29.2984 127.12 29.1183 127.853 28.7581 128.475C28.4012 129.094 27.9068 129.572 27.2748 129.909C26.6461 130.247 25.9257 130.415 25.1136 130.415C24.2033 130.415 23.4043 130.206 22.7167 129.787C22.0323 129.368 21.4985 128.773 21.1154 128.004C20.7323 127.231 20.5407 126.314 20.5407 125.253C20.5407 124.451 20.6521 123.73 20.8747 123.092C21.0974 122.453 21.4101 121.911 21.8129 121.466C22.2189 121.017 22.6954 120.675 23.2422 120.44C23.7923 120.201 24.3932 120.081 25.0448 120.081C25.5884 120.081 26.0943 120.161 26.5626 120.322C27.0341 120.482 27.4532 120.71 27.82 121.004C28.19 121.299 28.4962 121.649 28.7385 122.056C28.9808 122.458 29.1445 122.905 29.2297 123.396H27.6726ZM31.2251 130.278V120.219H32.7428V128.971H37.3009V130.278H31.2251ZM37.226 121.525V120.219H45.0112V121.525H41.8726V130.278H40.3598V121.525H37.226ZM46.7316 130.278V120.219H50.3171C51.0998 120.219 51.7481 120.361 52.2622 120.646C52.7763 120.931 53.1611 121.32 53.4165 121.815C53.6719 122.306 53.7996 122.859 53.7996 123.475C53.7996 124.094 53.6703 124.651 53.4116 125.145C53.1562 125.636 52.7698 126.026 52.2524 126.314C51.7383 126.599 51.0916 126.741 50.3122 126.741H47.8465V125.454H50.1747C50.6692 125.454 51.0703 125.369 51.3781 125.199C51.6859 125.026 51.9118 124.79 52.0559 124.492C52.2 124.194 52.272 123.855 52.272 123.475C52.272 123.095 52.2 122.758 52.0559 122.463C51.9118 122.168 51.6843 121.938 51.3732 121.771C51.0654 121.604 50.6593 121.52 50.1551 121.52H48.2493V130.278H46.7316Z" fill="#6B7280"/>
<path d="M252.798 130.278L257.189 121.594V121.52H252.11V120.219H258.761V121.564L254.384 130.278H252.798ZM263.654 130.415C263.038 130.415 262.485 130.297 261.994 130.062C261.506 129.823 261.116 129.495 260.825 129.079C260.533 128.663 260.378 128.189 260.358 127.655H261.832C261.868 128.087 262.059 128.442 262.406 128.721C262.754 128.999 263.169 129.138 263.654 129.138C264.04 129.138 264.383 129.05 264.681 128.873C264.982 128.693 265.218 128.446 265.388 128.131C265.561 127.817 265.648 127.458 265.648 127.056C265.648 126.646 265.56 126.281 265.383 125.96C265.206 125.639 264.962 125.387 264.651 125.204C264.343 125.021 263.99 124.927 263.59 124.924C263.286 124.924 262.979 124.976 262.672 125.081C262.364 125.186 262.115 125.323 261.925 125.494L260.535 125.287L261.1 120.219H266.631V121.52H262.362L262.043 124.335H262.102C262.298 124.145 262.559 123.986 262.883 123.858C263.21 123.73 263.561 123.667 263.934 123.667C264.546 123.667 265.092 123.812 265.57 124.104C266.051 124.395 266.429 124.793 266.704 125.297C266.983 125.798 267.12 126.375 267.117 127.026C267.12 127.678 266.973 128.259 266.675 128.77C266.38 129.281 265.971 129.684 265.447 129.978C264.926 130.27 264.329 130.415 263.654 130.415ZM274.162 128.392V127.861C274.162 127.481 274.24 127.134 274.397 126.82C274.558 126.502 274.79 126.249 275.095 126.059C275.403 125.865 275.774 125.769 276.21 125.769C276.655 125.769 277.028 125.864 277.33 126.054C277.631 126.244 277.858 126.497 278.012 126.815C278.17 127.133 278.248 127.481 278.248 127.861V128.392C278.248 128.772 278.17 129.12 278.012 129.438C277.855 129.752 277.624 130.006 277.32 130.199C277.019 130.389 276.649 130.484 276.21 130.484C275.768 130.484 275.394 130.389 275.09 130.199C274.785 130.006 274.554 129.752 274.397 129.438C274.24 129.12 274.162 128.772 274.162 128.392ZM275.306 127.861V128.392C275.306 128.673 275.373 128.929 275.507 129.158C275.642 129.387 275.876 129.502 276.21 129.502C276.54 129.502 276.771 129.387 276.902 129.158C277.033 128.929 277.099 128.673 277.099 128.392V127.861C277.099 127.58 277.035 127.324 276.907 127.095C276.783 126.866 276.55 126.751 276.21 126.751C275.882 126.751 275.65 126.866 275.512 127.095C275.375 127.324 275.306 127.58 275.306 127.861ZM269.102 122.635V122.105C269.102 121.725 269.181 121.376 269.338 121.058C269.499 120.741 269.731 120.487 270.036 120.297C270.343 120.107 270.715 120.012 271.151 120.012C271.596 120.012 271.969 120.107 272.27 120.297C272.572 120.487 272.799 120.741 272.953 121.058C273.107 121.376 273.184 121.725 273.184 122.105V122.635C273.184 123.015 273.105 123.364 272.948 123.681C272.794 123.996 272.565 124.249 272.261 124.443C271.959 124.633 271.589 124.728 271.151 124.728C270.705 124.728 270.33 124.633 270.026 124.443C269.725 124.249 269.495 123.996 269.338 123.681C269.181 123.364 269.102 123.015 269.102 122.635ZM270.252 122.105V122.635C270.252 122.917 270.317 123.172 270.448 123.401C270.582 123.631 270.817 123.745 271.151 123.745C271.478 123.745 271.707 123.631 271.838 123.401C271.972 123.172 272.04 122.917 272.04 122.635V122.105C272.04 121.823 271.976 121.568 271.848 121.338C271.72 121.109 271.488 120.995 271.151 120.995C270.823 120.995 270.591 121.109 270.453 121.338C270.319 121.568 270.252 121.823 270.252 122.105ZM269.569 130.278L276.485 120.219H277.659L270.743 130.278H269.569Z" fill="#111827"/>
<path d="M27.6726 155.3C27.5777 155.002 27.45 154.735 27.2895 154.5C27.1323 154.261 26.9441 154.058 26.7247 153.891C26.5053 153.72 26.2548 153.591 25.9732 153.503C25.6948 153.414 25.3887 153.37 25.0547 153.37C24.4882 153.37 23.9773 153.516 23.5222 153.807C23.067 154.098 22.7068 154.526 22.4416 155.089C22.1796 155.649 22.0487 156.335 22.0487 157.147C22.0487 157.962 22.1813 158.652 22.4465 159.215C22.7117 159.778 23.0752 160.205 23.5369 160.497C23.9986 160.788 24.5242 160.934 25.1136 160.934C25.6604 160.934 26.1369 160.823 26.5429 160.6C26.9522 160.377 27.2682 160.063 27.4909 159.657C27.7168 159.248 27.8298 158.766 27.8298 158.213L28.2228 158.287H25.3445V157.034H29.2984V158.179C29.2984 159.023 29.1183 159.757 28.7581 160.379C28.4012 160.998 27.9068 161.476 27.2748 161.813C26.6461 162.151 25.9257 162.319 25.1136 162.319C24.2033 162.319 23.4043 162.11 22.7167 161.69C22.0323 161.271 21.4985 160.677 21.1154 159.907C20.7323 159.135 20.5407 158.218 20.5407 157.157C20.5407 156.355 20.6521 155.634 20.8747 154.996C21.0974 154.357 21.4101 153.815 21.8129 153.37C22.2189 152.921 22.6954 152.579 23.2422 152.343C23.7923 152.104 24.3932 151.985 25.0448 151.985C25.5884 151.985 26.0943 152.065 26.5626 152.225C27.0341 152.386 27.4532 152.614 27.82 152.908C28.19 153.203 28.4962 153.553 28.7385 153.959C28.9808 154.362 29.1445 154.809 29.2297 155.3H27.6726ZM31.2251 162.182V152.122H32.7428V160.875H37.3009V162.182H31.2251ZM37.226 153.429V152.122H45.0112V153.429H41.8726V162.182H40.3598V153.429H37.226ZM47.6108 152.122L50.4105 160.315H50.5234L53.3232 152.122H54.9637L51.3437 162.182H49.5902L45.9702 152.122H47.6108Z" fill="#6B7280"/>
<path d="M253.971 162.319C253.522 162.313 253.08 162.231 252.645 162.074C252.212 161.916 251.819 161.654 251.466 161.288C251.112 160.921 250.829 160.428 250.616 159.809C250.406 159.19 250.302 158.418 250.302 157.491C250.302 156.613 250.388 155.834 250.562 155.153C250.739 154.472 250.993 153.897 251.323 153.429C251.654 152.957 252.054 152.599 252.522 152.353C252.99 152.108 253.516 151.985 254.098 151.985C254.698 151.985 255.23 152.103 255.695 152.338C256.16 152.574 256.536 152.9 256.824 153.316C257.116 153.732 257.301 154.205 257.38 154.735H255.881C255.78 154.316 255.579 153.974 255.277 153.709C254.976 153.444 254.583 153.311 254.098 153.311C253.362 153.311 252.787 153.632 252.374 154.274C251.965 154.915 251.759 155.808 251.756 156.951H251.829C252.003 156.666 252.216 156.423 252.468 156.224C252.723 156.021 253.008 155.865 253.322 155.757C253.64 155.646 253.974 155.59 254.324 155.59C254.907 155.59 255.434 155.732 255.906 156.017C256.381 156.299 256.759 156.689 257.041 157.186C257.322 157.684 257.463 158.254 257.463 158.896C257.463 159.537 257.317 160.119 257.026 160.639C256.738 161.16 256.332 161.573 255.808 161.877C255.284 162.178 254.671 162.326 253.971 162.319ZM253.966 161.042C254.352 161.042 254.698 160.947 255.002 160.757C255.307 160.567 255.547 160.312 255.724 159.991C255.901 159.67 255.989 159.312 255.989 158.915C255.989 158.529 255.903 158.177 255.729 157.859C255.559 157.542 255.323 157.29 255.022 157.103C254.724 156.916 254.383 156.823 254 156.823C253.709 156.823 253.439 156.879 253.19 156.99C252.944 157.101 252.728 157.255 252.541 157.452C252.355 157.648 252.207 157.874 252.099 158.129C251.995 158.382 251.942 158.648 251.942 158.93C251.942 159.307 252.029 159.655 252.203 159.976C252.379 160.297 252.62 160.556 252.925 160.752C253.232 160.946 253.579 161.042 253.966 161.042ZM262.754 162.349C261.978 162.345 261.315 162.141 260.765 161.735C260.215 161.329 259.794 160.738 259.503 159.962C259.211 159.185 259.065 158.251 259.065 157.157C259.065 156.066 259.211 155.135 259.503 154.362C259.797 153.589 260.22 153 260.77 152.594C261.323 152.188 261.985 151.985 262.754 151.985C263.524 151.985 264.184 152.189 264.734 152.599C265.284 153.005 265.705 153.594 265.996 154.367C266.291 155.137 266.438 156.066 266.438 157.157C266.438 158.254 266.292 159.19 266.001 159.966C265.709 160.739 265.289 161.33 264.739 161.74C264.188 162.146 263.527 162.349 262.754 162.349ZM262.754 161.037C263.435 161.037 263.967 160.705 264.351 160.04C264.737 159.375 264.93 158.414 264.93 157.157C264.93 156.322 264.842 155.616 264.665 155.04C264.491 154.46 264.241 154.022 263.913 153.724C263.589 153.422 263.203 153.272 262.754 153.272C262.076 153.272 261.544 153.606 261.158 154.274C260.772 154.942 260.577 155.903 260.573 157.157C260.573 157.995 260.66 158.704 260.834 159.284C261.011 159.86 261.261 160.297 261.585 160.595C261.909 160.89 262.299 161.037 262.754 161.037ZM273.431 160.296V159.765C273.431 159.385 273.51 159.038 273.667 158.724C273.827 158.406 274.06 158.152 274.364 157.962C274.672 157.769 275.044 157.673 275.479 157.673C275.925 157.673 276.298 157.768 276.599 157.958C276.901 158.147 277.128 158.401 277.282 158.719C277.439 159.036 277.518 159.385 277.518 159.765V160.296C277.518 160.675 277.439 161.024 277.282 161.342C277.125 161.656 276.894 161.91 276.589 162.103C276.288 162.293 275.918 162.388 275.479 162.388C275.037 162.388 274.664 162.293 274.36 162.103C274.055 161.91 273.824 161.656 273.667 161.342C273.51 161.024 273.431 160.675 273.431 160.296ZM274.576 159.765V160.296C274.576 160.577 274.643 160.833 274.777 161.062C274.911 161.291 275.145 161.406 275.479 161.406C275.81 161.406 276.041 161.291 276.172 161.062C276.303 160.833 276.368 160.577 276.368 160.296V159.765C276.368 159.483 276.305 159.228 276.177 158.999C276.052 158.77 275.82 158.655 275.479 158.655C275.152 158.655 274.919 158.77 274.782 158.999C274.644 159.228 274.576 159.483 274.576 159.765ZM268.372 154.539V154.008C268.372 153.629 268.451 153.28 268.608 152.962C268.768 152.645 269.001 152.391 269.305 152.201C269.613 152.011 269.985 151.916 270.42 151.916C270.866 151.916 271.239 152.011 271.54 152.201C271.841 152.391 272.069 152.645 272.223 152.962C272.377 153.28 272.454 153.629 272.454 154.008V154.539C272.454 154.919 272.375 155.267 272.218 155.585C272.064 155.899 271.835 156.153 271.53 156.346C271.229 156.536 270.859 156.631 270.42 156.631C269.975 156.631 269.6 156.536 269.295 156.346C268.994 156.153 268.765 155.899 268.608 155.585C268.451 155.267 268.372 154.919 268.372 154.539ZM269.521 154.008V154.539C269.521 154.821 269.587 155.076 269.718 155.305C269.852 155.534 270.086 155.649 270.42 155.649C270.748 155.649 270.977 155.534 271.108 155.305C271.242 155.076 271.309 154.821 271.309 154.539V154.008C271.309 153.727 271.245 153.471 271.118 153.242C270.99 153.013 270.758 152.898 270.42 152.898C270.093 152.898 269.86 153.013 269.723 153.242C269.589 153.471 269.521 153.727 269.521 154.008ZM268.839 162.182L275.754 152.122H276.928L270.013 162.182H268.839Z" fill="#111827"/>
<path d="M27.6726 187.204C27.5777 186.906 27.45 186.639 27.2895 186.403C27.1323 186.164 26.9441 185.961 26.7247 185.794C26.5053 185.624 26.2548 185.495 25.9732 185.406C25.6948 185.318 25.3887 185.274 25.0547 185.274C24.4882 185.274 23.9773 185.419 23.5222 185.711C23.067 186.002 22.7068 186.43 22.4416 186.993C22.1796 187.553 22.0487 188.239 22.0487 189.051C22.0487 189.866 22.1813 190.556 22.4465 191.119C22.7117 191.682 23.0752 192.109 23.5369 192.401C23.9986 192.692 24.5242 192.838 25.1136 192.838C25.6604 192.838 26.1369 192.727 26.5429 192.504C26.9522 192.281 27.2682 191.967 27.4909 191.561C27.7168 191.151 27.8298 190.67 27.8298 190.117L28.2228 190.19H25.3445V188.938H29.2984V190.082C29.2984 190.927 29.1183 191.661 28.7581 192.283C28.4012 192.902 27.9068 193.38 27.2748 193.717C26.6461 194.054 25.9257 194.223 25.1136 194.223C24.2033 194.223 23.4043 194.013 22.7167 193.594C22.0323 193.175 21.4985 192.581 21.1154 191.811C20.7323 191.039 20.5407 190.122 20.5407 189.061C20.5407 188.258 20.6521 187.538 20.8747 186.9C21.0974 186.261 21.4101 185.719 21.8129 185.274C22.2189 184.825 22.6954 184.483 23.2422 184.247C23.7923 184.008 24.3932 183.889 25.0448 183.889C25.5884 183.889 26.0943 183.969 26.5626 184.129C27.0341 184.29 27.4532 184.517 27.82 184.812C28.19 185.107 28.4962 185.457 28.7385 185.863C28.9808 186.266 29.1445 186.713 29.2297 187.204H27.6726ZM31.1072 194.085V186.541H32.5267V187.739H32.6053C32.7428 187.333 32.9851 187.014 33.3322 186.782C33.6826 186.546 34.0788 186.428 34.5209 186.428C34.6126 186.428 34.7206 186.431 34.8451 186.438C34.9728 186.444 35.0726 186.453 35.1447 186.462V187.867C35.0857 187.851 34.9809 187.833 34.8303 187.813C34.6797 187.79 34.5291 187.779 34.3784 187.779C34.0313 187.779 33.7219 187.852 33.4501 188C33.1816 188.144 32.9688 188.345 32.8116 188.604C32.6544 188.859 32.5758 189.151 32.5758 189.478V194.085H31.1072ZM39.3234 194.238C38.6161 194.238 37.9988 194.076 37.4716 193.751C36.9444 193.427 36.5351 192.974 36.2437 192.391C35.9523 191.808 35.8065 191.127 35.8065 190.348C35.8065 189.565 35.9523 188.881 36.2437 188.294C36.5351 187.708 36.9444 187.253 37.4716 186.929C37.9988 186.605 38.6161 186.443 39.3234 186.443C40.0307 186.443 40.6479 186.605 41.1751 186.929C41.7023 187.253 42.1116 187.708 42.4031 188.294C42.6945 188.881 42.8402 189.565 42.8402 190.348C42.8402 191.127 42.6945 191.808 42.4031 192.391C42.1116 192.974 41.7023 193.427 41.1751 193.751C40.6479 194.076 40.0307 194.238 39.3234 194.238ZM39.3283 193.005C39.7867 193.005 40.1666 192.884 40.4678 192.641C40.7691 192.399 40.9917 192.077 41.1358 191.674C41.2832 191.271 41.3568 190.827 41.3568 190.343C41.3568 189.861 41.2832 189.419 41.1358 189.016C40.9917 188.61 40.7691 188.285 40.4678 188.039C40.1666 187.793 39.7867 187.671 39.3283 187.671C38.8666 187.671 38.4835 187.793 38.1789 188.039C37.8777 188.285 37.6534 188.61 37.506 189.016C37.3619 189.419 37.2899 189.861 37.2899 190.343C37.2899 190.827 37.3619 191.271 37.506 191.674C37.6534 192.077 37.8777 192.399 38.1789 192.641C38.4835 192.884 38.8666 193.005 39.3283 193.005ZM50.133 188.383L48.8019 188.619C48.7462 188.448 48.6578 188.286 48.5366 188.132C48.4187 187.978 48.2583 187.852 48.0553 187.754C47.8523 187.656 47.5985 187.607 47.294 187.607C46.8781 187.607 46.531 187.7 46.2527 187.887C45.9743 188.07 45.8352 188.308 45.8352 188.599C45.8352 188.851 45.9285 189.054 46.1151 189.208C46.3018 189.362 46.603 189.488 47.0189 189.586L48.2174 189.861C48.9116 190.022 49.4289 190.269 49.7695 190.603C50.11 190.937 50.2803 191.371 50.2803 191.905C50.2803 192.357 50.1493 192.759 49.8874 193.113C49.6287 193.463 49.2668 193.738 48.8019 193.938C48.3402 194.138 47.8048 194.238 47.1957 194.238C46.3509 194.238 45.6616 194.058 45.1279 193.697C44.5941 193.334 44.2667 192.818 44.1455 192.15L45.565 191.934C45.6534 192.304 45.8352 192.584 46.1102 192.774C46.3853 192.961 46.7438 193.054 47.1859 193.054C47.6672 193.054 48.052 192.954 48.3402 192.754C48.6283 192.551 48.7724 192.304 48.7724 192.013C48.7724 191.777 48.684 191.579 48.5072 191.418C48.3336 191.258 48.0667 191.137 47.7065 191.055L46.4295 190.775C45.7255 190.614 45.2048 190.359 44.8675 190.009C44.5335 189.658 44.3665 189.215 44.3665 188.678C44.3665 188.232 44.491 187.843 44.7398 187.509C44.9887 187.175 45.3325 186.914 45.7713 186.728C46.2101 186.538 46.7127 186.443 47.2792 186.443C48.0946 186.443 48.7364 186.62 49.2046 186.973C49.6729 187.324 49.9823 187.793 50.133 188.383ZM57.5485 188.383L56.2174 188.619C56.1618 188.448 56.0733 188.286 55.9522 188.132C55.8343 187.978 55.6739 187.852 55.4708 187.754C55.2678 187.656 55.014 187.607 54.7095 187.607C54.2936 187.607 53.9465 187.7 53.6682 187.887C53.3899 188.07 53.2507 188.308 53.2507 188.599C53.2507 188.851 53.344 189.054 53.5307 189.208C53.7173 189.362 54.0186 189.488 54.4344 189.586L55.6329 189.861C56.3271 190.022 56.8445 190.269 57.185 190.603C57.5256 190.937 57.6959 191.371 57.6959 191.905C57.6959 192.357 57.5649 192.759 57.3029 193.113C57.0442 193.463 56.6824 193.738 56.2174 193.938C55.7557 194.138 55.2203 194.238 54.6113 194.238C53.7664 194.238 53.0772 194.058 52.5434 193.697C52.0097 193.334 51.6822 192.818 51.5611 192.15L52.9806 191.934C53.069 192.304 53.2507 192.584 53.5258 192.774C53.8008 192.961 54.1594 193.054 54.6014 193.054C55.0828 193.054 55.4676 192.954 55.7557 192.754C56.0439 192.551 56.1879 192.304 56.1879 192.013C56.1879 191.777 56.0995 191.579 55.9227 191.418C55.7492 191.258 55.4823 191.137 55.1221 191.055L53.845 190.775C53.141 190.614 52.6204 190.359 52.2831 190.009C51.9491 189.658 51.7821 189.215 51.7821 188.678C51.7821 188.232 51.9065 187.843 52.1554 187.509C52.4042 187.175 52.7481 186.914 53.1869 186.728C53.6256 186.538 54.1283 186.443 54.6948 186.443C55.5101 186.443 56.1519 186.62 56.6202 186.973C57.0884 187.324 57.3979 187.793 57.5485 188.383ZM64.4397 184.026V194.085H62.9711V184.026H64.4397ZM69.5934 194.238C68.8861 194.238 68.2689 194.076 67.7417 193.751C67.2145 193.427 66.8052 192.974 66.5137 192.391C66.2223 191.808 66.0766 191.127 66.0766 190.348C66.0766 189.565 66.2223 188.881 66.5137 188.294C66.8052 187.708 67.2145 187.253 67.7417 186.929C68.2689 186.605 68.8861 186.443 69.5934 186.443C70.3007 186.443 70.918 186.605 71.4452 186.929C71.9723 187.253 72.3817 187.708 72.6731 188.294C72.9645 188.881 73.1102 189.565 73.1102 190.348C73.1102 191.127 72.9645 191.808 72.6731 192.391C72.3817 192.974 71.9723 193.427 71.4452 193.751C70.918 194.076 70.3007 194.238 69.5934 194.238ZM69.5983 193.005C70.0568 193.005 70.4366 192.884 70.7379 192.641C71.0391 192.399 71.2618 192.077 71.4059 191.674C71.5532 191.271 71.6269 190.827 71.6269 190.343C71.6269 189.861 71.5532 189.419 71.4059 189.016C71.2618 188.61 71.0391 188.285 70.7379 188.039C70.4366 187.793 70.0568 187.671 69.5983 187.671C69.1366 187.671 68.7535 187.793 68.449 188.039C68.1477 188.285 67.9234 188.61 67.7761 189.016C67.632 189.419 67.5599 189.861 67.5599 190.343C67.5599 190.827 67.632 191.271 67.7761 191.674C67.9234 192.077 68.1477 192.399 68.449 192.641C68.7535 192.884 69.1366 193.005 69.5983 193.005ZM76.9451 194.252C76.467 194.252 76.0348 194.164 75.6484 193.987C75.262 193.807 74.9558 193.547 74.7299 193.206C74.5072 192.866 74.3959 192.448 74.3959 191.954C74.3959 191.528 74.4778 191.178 74.6415 190.903C74.8052 190.628 75.0262 190.41 75.3046 190.249C75.5829 190.089 75.894 189.968 76.2378 189.886C76.5816 189.804 76.932 189.742 77.2889 189.699C77.7408 189.647 78.1076 189.604 78.3892 189.572C78.6708 189.536 78.8754 189.478 79.0031 189.4C79.1309 189.321 79.1947 189.193 79.1947 189.016V188.982C79.1947 188.553 79.0736 188.221 78.8312 187.985C78.5922 187.749 78.2353 187.631 77.7605 187.631C77.266 187.631 76.8763 187.741 76.5915 187.96C76.3099 188.177 76.115 188.417 76.007 188.682L74.6268 188.368C74.7905 187.91 75.0295 187.54 75.3439 187.258C75.6615 186.973 76.0266 186.767 76.4392 186.639C76.8518 186.508 77.2857 186.443 77.7408 186.443C78.0421 186.443 78.3613 186.479 78.6986 186.551C79.0392 186.62 79.3568 186.747 79.6515 186.934C79.9495 187.121 80.1934 187.387 80.3834 187.735C80.5733 188.078 80.6682 188.525 80.6682 189.075V194.085H79.234V193.054H79.1751C79.0801 193.244 78.9377 193.431 78.7477 193.614C78.5578 193.797 78.3139 193.95 78.0159 194.071C77.7179 194.192 77.361 194.252 76.9451 194.252ZM77.2644 193.074C77.6704 193.074 78.0175 192.993 78.3057 192.833C78.5971 192.672 78.8181 192.463 78.9688 192.204C79.1227 191.942 79.1996 191.662 79.1996 191.364V190.392C79.1472 190.444 79.0457 190.493 78.8951 190.539C78.7477 190.582 78.5791 190.619 78.3892 190.652C78.1993 190.682 78.0142 190.709 77.8341 190.736C77.654 190.759 77.5034 190.778 77.3823 190.795C77.0974 190.831 76.8371 190.891 76.6013 190.976C76.3688 191.061 76.1822 191.184 76.0413 191.345C75.9038 191.502 75.8351 191.711 75.8351 191.973C75.8351 192.337 75.9693 192.612 76.2378 192.799C76.5063 192.982 76.8485 193.074 77.2644 193.074ZM84.093 189.606V194.085H82.6244V186.541H84.034V187.769H84.1274C84.3009 187.369 84.5727 187.049 84.9427 186.806C85.316 186.564 85.7859 186.443 86.3524 186.443C86.8665 186.443 87.3167 186.551 87.7031 186.767C88.0895 186.98 88.3891 187.297 88.602 187.72C88.8148 188.142 88.9212 188.664 88.9212 189.287V194.085H87.4526V189.463C87.4526 188.917 87.3102 188.489 87.0253 188.181C86.7404 187.87 86.3491 187.715 85.8514 187.715C85.5108 187.715 85.2079 187.789 84.9427 187.936C84.6807 188.083 84.4728 188.299 84.3189 188.584C84.1683 188.866 84.093 189.206 84.093 189.606Z" fill="#6B7280"/>
<path d="M200.296 194.085H193.42V192.779H200.296V194.085ZM198.233 190.146H193.385V188.84H198.233V190.146ZM195.851 187.003L196.008 191.242C196.028 191.664 195.974 192.042 195.846 192.376C195.718 192.707 195.487 192.97 195.153 193.167L193.896 192.779C194.073 192.769 194.209 192.679 194.304 192.509C194.399 192.338 194.462 192.139 194.495 191.91C194.528 191.677 194.541 191.467 194.535 191.281L194.392 187.003C194.366 186.315 194.494 185.74 194.775 185.279C195.06 184.817 195.438 184.47 195.91 184.237C196.381 184.005 196.889 183.889 197.432 183.889C197.917 183.889 198.353 183.969 198.739 184.129C199.129 184.29 199.456 184.509 199.721 184.787C199.99 185.063 200.181 185.377 200.296 185.731C200.411 186.084 200.434 186.456 200.365 186.845L198.945 186.62C198.978 186.299 198.927 186.032 198.793 185.819C198.659 185.606 198.474 185.446 198.238 185.338C198.002 185.23 197.752 185.175 197.486 185.175C197.208 185.175 196.943 185.241 196.691 185.372C196.442 185.503 196.239 185.703 196.082 185.971C195.928 186.24 195.851 186.584 195.851 187.003ZM205.876 194.223C205.201 194.223 204.599 194.107 204.068 193.874C203.541 193.642 203.124 193.319 202.816 192.907C202.511 192.491 202.348 192.009 202.325 191.463H203.867C203.887 191.761 203.986 192.019 204.167 192.239C204.35 192.455 204.589 192.622 204.884 192.74C205.178 192.858 205.506 192.916 205.866 192.916C206.262 192.916 206.613 192.848 206.917 192.71C207.225 192.573 207.466 192.381 207.639 192.135C207.813 191.887 207.899 191.6 207.899 191.276C207.899 190.939 207.813 190.642 207.639 190.387C207.469 190.128 207.218 189.925 206.888 189.778C206.56 189.63 206.164 189.557 205.699 189.557H204.849V188.319H205.699C206.072 188.319 206.4 188.252 206.681 188.118C206.966 187.983 207.189 187.797 207.349 187.558C207.51 187.315 207.59 187.032 207.59 186.708C207.59 186.397 207.52 186.127 207.379 185.898C207.241 185.665 207.045 185.483 206.789 185.352C206.537 185.221 206.239 185.156 205.895 185.156C205.568 185.156 205.262 185.216 204.977 185.338C204.695 185.455 204.466 185.626 204.289 185.848C204.112 186.068 204.018 186.331 204.004 186.639H202.536C202.552 186.096 202.713 185.618 203.017 185.205C203.325 184.792 203.731 184.47 204.235 184.237C204.74 184.005 205.299 183.889 205.915 183.889C206.56 183.889 207.117 184.015 207.585 184.267C208.057 184.516 208.42 184.848 208.676 185.264C208.934 185.68 209.062 186.135 209.059 186.629C209.062 187.193 208.905 187.671 208.587 188.064C208.273 188.457 207.854 188.72 207.33 188.854V188.933C207.998 189.035 208.515 189.3 208.882 189.729C209.252 190.158 209.435 190.69 209.432 191.325C209.435 191.878 209.281 192.375 208.97 192.813C208.662 193.252 208.242 193.598 207.708 193.85C207.174 194.099 206.563 194.223 205.876 194.223ZM214.791 194.252C214.015 194.249 213.352 194.045 212.801 193.638C212.251 193.232 211.831 192.641 211.539 191.865C211.248 191.089 211.102 190.154 211.102 189.061C211.102 187.97 211.248 187.039 211.539 186.266C211.834 185.493 212.256 184.904 212.806 184.498C213.36 184.092 214.021 183.889 214.791 183.889C215.56 183.889 216.22 184.093 216.77 184.503C217.32 184.909 217.741 185.498 218.032 186.271C218.327 187.04 218.475 187.97 218.475 189.061C218.475 190.158 218.329 191.094 218.037 191.87C217.746 192.643 217.325 193.234 216.775 193.643C216.225 194.049 215.563 194.252 214.791 194.252ZM214.791 192.941C215.472 192.941 216.004 192.609 216.387 191.944C216.773 191.279 216.967 190.318 216.967 189.061C216.967 188.226 216.878 187.52 216.701 186.944C216.528 186.364 216.277 185.925 215.95 185.627C215.626 185.326 215.239 185.175 214.791 185.175C214.113 185.175 213.581 185.509 213.194 186.177C212.808 186.845 212.613 187.807 212.61 189.061C212.61 189.899 212.697 190.608 212.87 191.188C213.047 191.764 213.297 192.201 213.622 192.499C213.946 192.794 214.336 192.941 214.791 192.941ZM223.719 194.252C222.943 194.249 222.28 194.045 221.73 193.638C221.18 193.232 220.759 192.641 220.467 191.865C220.176 191.089 220.03 190.154 220.03 189.061C220.03 187.97 220.176 187.039 220.467 186.266C220.762 185.493 221.185 184.904 221.735 184.498C222.288 184.092 222.95 183.889 223.719 183.889C224.489 183.889 225.148 184.093 225.698 184.503C226.249 184.909 226.669 185.498 226.961 186.271C227.256 187.04 227.403 187.97 227.403 189.061C227.403 190.158 227.257 191.094 226.966 191.87C226.674 192.643 226.254 193.234 225.703 193.643C225.153 194.049 224.492 194.252 223.719 194.252ZM223.719 192.941C224.4 192.941 224.932 192.609 225.315 191.944C225.702 191.279 225.895 190.318 225.895 189.061C225.895 188.226 225.807 187.52 225.63 186.944C225.456 186.364 225.206 185.925 224.878 185.627C224.554 185.326 224.168 185.175 223.719 185.175C223.041 185.175 222.509 185.509 222.123 186.177C221.736 186.845 221.541 187.807 221.538 189.061C221.538 189.899 221.625 190.608 221.799 191.188C221.975 191.764 222.226 192.201 222.55 192.499C222.874 192.794 223.264 192.941 223.719 192.941ZM230.711 192.71L230.637 193.246C230.588 193.638 230.505 194.048 230.387 194.473C230.272 194.902 230.153 195.3 230.028 195.667C229.907 196.034 229.807 196.325 229.729 196.541H228.687C228.73 196.338 228.789 196.063 228.864 195.716C228.939 195.372 229.013 194.988 229.085 194.562C229.157 194.136 229.211 193.702 229.247 193.26L229.296 192.71H230.711ZM235.903 194.252C235.127 194.249 234.464 194.045 233.913 193.638C233.363 193.232 232.943 192.641 232.651 191.865C232.36 191.089 232.214 190.154 232.214 189.061C232.214 187.97 232.36 187.039 232.651 186.266C232.946 185.493 233.368 184.904 233.918 184.498C234.472 184.092 235.133 183.889 235.903 183.889C236.672 183.889 237.332 184.093 237.882 184.503C238.432 184.909 238.853 185.498 239.144 186.271C239.439 187.04 239.587 187.97 239.587 189.061C239.587 190.158 239.441 191.094 239.149 191.87C238.858 192.643 238.437 193.234 237.887 193.643C237.337 194.049 236.675 194.252 235.903 194.252ZM235.903 192.941C236.584 192.941 237.116 192.609 237.499 191.944C237.885 191.279 238.079 190.318 238.079 189.061C238.079 188.226 237.99 187.52 237.813 186.944C237.64 186.364 237.389 185.925 237.062 185.627C236.738 185.326 236.351 185.175 235.903 185.175C235.225 185.175 234.693 185.509 234.306 186.177C233.92 186.845 233.725 187.807 233.722 189.061C233.722 189.899 233.809 190.608 233.982 191.188C234.159 191.764 234.41 192.201 234.734 192.499C235.058 192.794 235.448 192.941 235.903 192.941ZM244.831 194.252C244.055 194.249 243.392 194.045 242.842 193.638C242.292 193.232 241.871 192.641 241.579 191.865C241.288 191.089 241.142 190.154 241.142 189.061C241.142 187.97 241.288 187.039 241.579 186.266C241.874 185.493 242.297 184.904 242.847 184.498C243.4 184.092 244.062 183.889 244.831 183.889C245.601 183.889 246.26 184.093 246.811 184.503C247.361 184.909 247.781 185.498 248.073 186.271C248.368 187.04 248.515 187.97 248.515 189.061C248.515 190.158 248.369 191.094 248.078 191.87C247.786 192.643 247.366 193.234 246.815 193.643C246.265 194.049 245.604 194.252 244.831 194.252ZM244.831 192.941C245.512 192.941 246.044 192.609 246.427 191.944C246.814 191.279 247.007 190.318 247.007 189.061C247.007 188.226 246.919 187.52 246.742 186.944C246.568 186.364 246.318 185.925 245.99 185.627C245.666 185.326 245.28 185.175 244.831 185.175C244.153 185.175 243.621 185.509 243.235 186.177C242.848 186.845 242.654 187.807 242.65 189.061C242.65 189.899 242.737 190.608 242.911 191.188C243.087 191.764 243.338 192.201 243.662 192.499C243.986 192.794 244.376 192.941 244.831 192.941ZM253.759 194.252C252.983 194.249 252.32 194.045 251.77 193.638C251.22 193.232 250.799 192.641 250.508 191.865C250.216 191.089 250.071 190.154 250.071 189.061C250.071 187.97 250.216 187.039 250.508 186.266C250.803 185.493 251.225 184.904 251.775 184.498C252.329 184.092 252.99 183.889 253.759 183.889C254.529 183.889 255.189 184.093 255.739 184.503C256.289 184.909 256.71 185.498 257.001 186.271C257.296 187.04 257.443 187.97 257.443 189.061C257.443 190.158 257.298 191.094 257.006 191.87C256.715 192.643 256.294 193.234 255.744 193.643C255.194 194.049 254.532 194.252 253.759 194.252ZM253.759 192.941C254.441 192.941 254.973 192.609 255.356 191.944C255.742 191.279 255.935 190.318 255.935 189.061C255.935 188.226 255.847 187.52 255.67 186.944C255.497 186.364 255.246 185.925 254.919 185.627C254.594 185.326 254.208 185.175 253.759 185.175C253.082 185.175 252.55 185.509 252.163 186.177C251.777 186.845 251.582 187.807 251.579 189.061C251.579 189.899 251.665 190.608 251.839 191.188C252.016 191.764 252.266 192.201 252.59 192.499C252.915 192.794 253.304 192.941 253.759 192.941ZM259.808 194.179C259.54 194.179 259.309 194.084 259.116 193.894C258.923 193.701 258.826 193.468 258.826 193.196C258.826 192.928 258.923 192.699 259.116 192.509C259.309 192.316 259.54 192.219 259.808 192.219C260.077 192.219 260.308 192.316 260.501 192.509C260.694 192.699 260.791 192.928 260.791 193.196C260.791 193.377 260.745 193.542 260.653 193.693C260.565 193.84 260.447 193.958 260.3 194.046C260.152 194.135 259.988 194.179 259.808 194.179ZM265.876 194.252C265.1 194.249 264.436 194.045 263.886 193.638C263.336 193.232 262.915 192.641 262.624 191.865C262.333 191.089 262.187 190.154 262.187 189.061C262.187 187.97 262.333 187.039 262.624 186.266C262.919 185.493 263.341 184.904 263.891 184.498C264.445 184.092 265.106 183.889 265.876 183.889C266.645 183.889 267.305 184.093 267.855 184.503C268.405 184.909 268.826 185.498 269.117 186.271C269.412 187.04 269.559 187.97 269.559 189.061C269.559 190.158 269.414 191.094 269.122 191.87C268.831 192.643 268.41 193.234 267.86 193.643C267.31 194.049 266.648 194.252 265.876 194.252ZM265.876 192.941C266.557 192.941 267.089 192.609 267.472 191.944C267.858 191.279 268.052 190.318 268.052 189.061C268.052 188.226 267.963 187.52 267.786 186.944C267.613 186.364 267.362 185.925 267.035 185.627C266.711 185.326 266.324 185.175 265.876 185.175C265.198 185.175 264.666 185.509 264.279 186.177C263.893 186.845 263.698 187.807 263.695 189.061C263.695 189.899 263.782 190.608 263.955 191.188C264.132 191.764 264.382 192.201 264.707 192.499C265.031 192.794 265.42 192.941 265.876 192.941ZM274.804 194.252C274.028 194.249 273.365 194.045 272.815 193.638C272.265 193.232 271.844 192.641 271.552 191.865C271.261 191.089 271.115 190.154 271.115 189.061C271.115 187.97 271.261 187.039 271.552 186.266C271.847 185.493 272.269 184.904 272.82 184.498C273.373 184.092 274.034 183.889 274.804 183.889C275.573 183.889 276.233 184.093 276.783 184.503C277.334 184.909 277.754 185.498 278.046 186.271C278.34 187.04 278.488 187.97 278.488 189.061C278.488 190.158 278.342 191.094 278.051 191.87C277.759 192.643 277.338 193.234 276.788 193.643C276.238 194.049 275.577 194.252 274.804 194.252ZM274.804 192.941C275.485 192.941 276.017 192.609 276.4 191.944C276.787 191.279 276.98 190.318 276.98 189.061C276.98 188.226 276.891 187.52 276.715 186.944C276.541 186.364 276.291 185.925 275.963 185.627C275.639 185.326 275.253 185.175 274.804 185.175C274.126 185.175 273.594 185.509 273.208 186.177C272.821 186.845 272.626 187.807 272.623 189.061C272.623 189.899 272.71 190.608 272.883 191.188C273.06 191.764 273.311 192.201 273.635 192.499C273.959 192.794 274.349 192.941 274.804 192.941Z" fill="#111827"/>
<path d="M28.9841 215.93V225.989H27.5891L22.476 218.612H22.3827V225.989H20.8649V215.93H22.2697L27.3878 223.317H27.4811V215.93H28.9841ZM34.3318 226.141C33.5885 226.141 32.9483 225.982 32.4113 225.665C31.8775 225.344 31.4649 224.894 31.1735 224.314C30.8853 223.731 30.7413 223.048 30.7413 222.266C30.7413 221.493 30.8853 220.812 31.1735 220.223C31.4649 219.633 31.871 219.173 32.3916 218.842C32.9155 218.512 33.5279 218.346 34.2286 218.346C34.6543 218.346 35.0669 218.417 35.4664 218.557C35.8659 218.698 36.2244 218.919 36.5421 219.221C36.8597 219.522 37.1102 219.913 37.2936 220.395C37.477 220.873 37.5686 221.454 37.5686 222.138V222.659H31.5714V221.559H36.1295C36.1295 221.172 36.0509 220.83 35.8937 220.532C35.7365 220.231 35.5155 219.993 35.2306 219.82C34.949 219.646 34.6183 219.559 34.2385 219.559C33.8259 219.559 33.4657 219.661 33.1579 219.864C32.8533 220.064 32.6176 220.326 32.4506 220.65C32.2868 220.971 32.205 221.32 32.205 221.696V222.556C32.205 223.06 32.2934 223.489 32.4702 223.843C32.6503 224.196 32.9008 224.466 33.2217 224.653C33.5426 224.836 33.9175 224.928 34.3465 224.928C34.6248 224.928 34.8786 224.889 35.1078 224.81C35.3371 224.728 35.5352 224.607 35.7022 224.447C35.8692 224.286 35.9969 224.088 36.0853 223.852L37.4753 224.103C37.364 224.512 37.1642 224.871 36.8761 225.179C36.5912 225.483 36.2326 225.721 35.8004 225.891C35.3714 226.058 34.8819 226.141 34.3318 226.141ZM42.7199 218.445V219.623H38.5989V218.445H42.7199ZM39.704 216.637H41.1727V223.774C41.1727 224.059 41.2152 224.273 41.3004 224.417C41.3855 224.558 41.4952 224.655 41.6294 224.707C41.767 224.756 41.916 224.781 42.0764 224.781C42.1943 224.781 42.2974 224.773 42.3859 224.756C42.4743 224.74 42.543 224.727 42.5922 224.717L42.8574 225.93C42.7723 225.963 42.6511 225.996 42.4939 226.028C42.3367 226.064 42.1403 226.084 41.9045 226.087C41.5181 226.094 41.1579 226.025 40.8239 225.881C40.4899 225.737 40.2198 225.514 40.0135 225.213C39.8072 224.912 39.704 224.533 39.704 224.078V216.637ZM49.4736 215.93V225.989H48.0049V215.93H49.4736ZM54.6272 226.141C53.9199 226.141 53.3027 225.979 52.7755 225.655C52.2483 225.331 51.839 224.877 51.5476 224.294C51.2561 223.712 51.1104 223.03 51.1104 222.251C51.1104 221.469 51.2561 220.784 51.5476 220.198C51.839 219.612 52.2483 219.157 52.7755 218.833C53.3027 218.508 53.9199 218.346 54.6272 218.346C55.3345 218.346 55.9518 218.508 56.479 218.833C57.0062 219.157 57.4155 219.612 57.7069 220.198C57.9983 220.784 58.1441 221.469 58.1441 222.251C58.1441 223.03 57.9983 223.712 57.7069 224.294C57.4155 224.877 57.0062 225.331 56.479 225.655C55.9518 225.979 55.3345 226.141 54.6272 226.141ZM54.6321 224.908C55.0906 224.908 55.4704 224.787 55.7717 224.545C56.0729 224.303 56.2956 223.98 56.4397 223.577C56.587 223.175 56.6607 222.731 56.6607 222.246C56.6607 221.765 56.587 221.323 56.4397 220.92C56.2956 220.514 56.0729 220.188 55.7717 219.943C55.4704 219.697 55.0906 219.574 54.6321 219.574C54.1704 219.574 53.7873 219.697 53.4828 219.943C53.1815 220.188 52.9572 220.514 52.8099 220.92C52.6658 221.323 52.5938 221.765 52.5938 222.246C52.5938 222.731 52.6658 223.175 52.8099 223.577C52.9572 223.98 53.1815 224.303 53.4828 224.545C53.7873 224.787 54.1704 224.908 54.6321 224.908ZM61.9789 226.156C61.5009 226.156 61.0686 226.068 60.6822 225.891C60.2958 225.711 59.9897 225.45 59.7637 225.11C59.5411 224.769 59.4297 224.352 59.4297 223.857C59.4297 223.432 59.5116 223.081 59.6753 222.806C59.839 222.531 60.0601 222.313 60.3384 222.153C60.6167 221.992 60.9278 221.871 61.2716 221.789C61.6155 221.708 61.9658 221.645 62.3228 221.603C62.7746 221.55 63.1414 221.508 63.423 221.475C63.7046 221.439 63.9093 221.382 64.037 221.303C64.1647 221.225 64.2285 221.097 64.2285 220.92V220.886C64.2285 220.457 64.1074 220.124 63.8651 219.889C63.626 219.653 63.2691 219.535 62.7943 219.535C62.2998 219.535 61.9102 219.645 61.6253 219.864C61.3437 220.08 61.1488 220.321 61.0408 220.586L59.6606 220.272C59.8243 219.813 60.0633 219.443 60.3777 219.162C60.6953 218.877 61.0604 218.67 61.473 218.543C61.8856 218.412 62.3195 218.346 62.7746 218.346C63.0759 218.346 63.3952 218.382 63.7324 218.454C64.073 218.523 64.3906 218.651 64.6853 218.837C64.9833 219.024 65.2273 219.291 65.4172 219.638C65.6071 219.982 65.7021 220.429 65.7021 220.979V225.989H64.2678V224.958H64.2089C64.1139 225.147 63.9715 225.334 63.7816 225.517C63.5916 225.701 63.3477 225.853 63.0497 225.974C62.7517 226.095 62.3948 226.156 61.9789 226.156ZM62.2982 224.977C62.7042 224.977 63.0513 224.897 63.3395 224.737C63.6309 224.576 63.852 224.366 64.0026 224.108C64.1565 223.846 64.2334 223.566 64.2334 223.268V222.295C64.181 222.348 64.0795 222.397 63.9289 222.443C63.7816 222.485 63.6129 222.523 63.423 222.556C63.2331 222.585 63.0481 222.613 62.868 222.639C62.6879 222.662 62.5372 222.682 62.4161 222.698C62.1312 222.734 61.8709 222.795 61.6351 222.88C61.4026 222.965 61.216 223.088 61.0752 223.248C60.9376 223.405 60.8689 223.615 60.8689 223.877C60.8689 224.24 61.0031 224.515 61.2716 224.702C61.5401 224.886 61.8823 224.977 62.2982 224.977ZM69.1268 221.509V225.989H67.6582V218.445H69.0679V219.672H69.1612C69.3347 219.273 69.6065 218.952 69.9765 218.71C70.3498 218.467 70.8197 218.346 71.3862 218.346C71.9003 218.346 72.3506 218.454 72.7369 218.67C73.1233 218.883 73.423 219.201 73.6358 219.623C73.8486 220.046 73.9551 220.568 73.9551 221.19V225.989H72.4864V221.367C72.4864 220.82 72.344 220.393 72.0591 220.085C71.7742 219.774 71.3829 219.618 70.8852 219.618C70.5447 219.618 70.2418 219.692 69.9765 219.839C69.7146 219.987 69.5066 220.203 69.3527 220.488C69.2021 220.769 69.1268 221.11 69.1268 221.509Z" fill="#6B7280"/>
<path d="M200.296 225.989H193.42V224.682H200.296V225.989ZM198.233 222.05H193.385V220.743H198.233V222.05ZM195.851 218.906L196.008 223.145C196.028 223.568 195.974 223.946 195.846 224.28C195.718 224.61 195.487 224.874 195.153 225.071L193.896 224.682C194.073 224.673 194.209 224.583 194.304 224.412C194.399 224.242 194.462 224.042 194.495 223.813C194.528 223.581 194.541 223.371 194.535 223.184L194.392 218.906C194.366 218.219 194.494 217.644 194.775 217.182C195.06 216.72 195.438 216.373 195.91 216.141C196.381 215.908 196.889 215.792 197.432 215.792C197.917 215.792 198.353 215.872 198.739 216.033C199.129 216.193 199.456 216.413 199.721 216.691C199.99 216.966 200.181 217.28 200.296 217.634C200.411 217.988 200.434 218.359 200.365 218.749L198.945 218.523C198.978 218.202 198.927 217.935 198.793 217.722C198.659 217.51 198.474 217.349 198.238 217.241C198.002 217.133 197.752 217.079 197.486 217.079C197.208 217.079 196.943 217.145 196.691 217.276C196.442 217.407 196.239 217.606 196.082 217.875C195.928 218.143 195.851 218.487 195.851 218.906ZM202.374 225.989V224.889L205.778 221.362C206.141 220.979 206.441 220.643 206.676 220.355C206.915 220.064 207.094 219.787 207.212 219.525C207.33 219.263 207.389 218.985 207.389 218.69C207.389 218.356 207.31 218.068 207.153 217.826C206.996 217.58 206.781 217.392 206.509 217.261C206.238 217.127 205.931 217.059 205.591 217.059C205.231 217.059 204.916 217.133 204.648 217.28C204.379 217.428 204.173 217.636 204.029 217.904C203.885 218.173 203.813 218.487 203.813 218.847H202.364C202.364 218.235 202.505 217.7 202.786 217.241C203.068 216.783 203.454 216.427 203.945 216.175C204.437 215.92 204.995 215.792 205.62 215.792C206.252 215.792 206.809 215.918 207.29 216.17C207.775 216.419 208.153 216.76 208.425 217.192C208.697 217.621 208.833 218.106 208.833 218.646C208.833 219.019 208.762 219.384 208.621 219.741C208.484 220.098 208.243 220.496 207.899 220.935C207.556 221.37 207.078 221.899 206.465 222.521L204.466 224.614V224.687H208.995V225.989H202.374ZM214.368 226.127C213.92 226.12 213.478 226.038 213.042 225.881C212.61 225.724 212.217 225.462 211.863 225.095C211.51 224.728 211.226 224.236 211.014 223.617C210.804 222.998 210.699 222.225 210.699 221.298C210.699 220.421 210.786 219.641 210.959 218.96C211.136 218.279 211.39 217.704 211.721 217.236C212.052 216.765 212.451 216.406 212.919 216.161C213.388 215.915 213.913 215.792 214.496 215.792C215.095 215.792 215.627 215.91 216.092 216.146C216.557 216.382 216.934 216.707 217.222 217.123C217.513 217.539 217.698 218.012 217.777 218.543H216.279C216.177 218.124 215.976 217.781 215.675 217.516C215.374 217.251 214.981 217.118 214.496 217.118C213.759 217.118 213.185 217.439 212.772 218.081C212.363 218.723 212.156 219.615 212.153 220.758H212.227C212.4 220.473 212.613 220.231 212.865 220.031C213.121 219.828 213.406 219.672 213.72 219.564C214.038 219.453 214.372 219.397 214.722 219.397C215.305 219.397 215.832 219.54 216.304 219.825C216.778 220.106 217.157 220.496 217.438 220.994C217.72 221.491 217.861 222.061 217.861 222.703C217.861 223.345 217.715 223.926 217.423 224.447C217.135 224.967 216.729 225.38 216.205 225.684C215.681 225.986 215.069 226.133 214.368 226.127ZM214.363 224.849C214.75 224.849 215.095 224.755 215.4 224.565C215.704 224.375 215.945 224.119 216.122 223.798C216.299 223.477 216.387 223.119 216.387 222.723C216.387 222.336 216.3 221.984 216.127 221.667C215.956 221.349 215.721 221.097 215.419 220.91C215.121 220.724 214.781 220.63 214.398 220.63C214.106 220.63 213.836 220.686 213.587 220.797C213.342 220.909 213.126 221.063 212.939 221.259C212.752 221.455 212.605 221.681 212.497 221.937C212.392 222.189 212.34 222.456 212.34 222.737C212.34 223.114 212.426 223.463 212.6 223.784C212.777 224.105 213.018 224.363 213.322 224.56C213.63 224.753 213.977 224.849 214.363 224.849ZM223.152 226.127C222.477 226.127 221.875 226.01 221.344 225.778C220.817 225.545 220.4 225.223 220.092 224.81C219.787 224.394 219.623 223.913 219.601 223.366H221.143C221.162 223.664 221.262 223.923 221.442 224.142C221.626 224.358 221.865 224.525 222.16 224.643C222.454 224.761 222.782 224.82 223.142 224.82C223.538 224.82 223.889 224.751 224.193 224.614C224.501 224.476 224.742 224.285 224.915 224.039C225.089 223.79 225.175 223.504 225.175 223.179C225.175 222.842 225.089 222.546 224.915 222.29C224.745 222.032 224.494 221.829 224.164 221.681C223.836 221.534 223.44 221.46 222.975 221.46H222.125V220.223H222.975C223.348 220.223 223.676 220.155 223.957 220.021C224.242 219.887 224.465 219.7 224.625 219.461C224.786 219.219 224.866 218.936 224.866 218.612C224.866 218.3 224.796 218.03 224.655 217.801C224.517 217.569 224.321 217.387 224.065 217.256C223.813 217.125 223.515 217.059 223.171 217.059C222.844 217.059 222.538 217.12 222.253 217.241C221.971 217.359 221.742 217.529 221.565 217.752C221.388 217.971 221.293 218.235 221.28 218.543H219.812C219.828 217.999 219.989 217.521 220.293 217.109C220.601 216.696 221.007 216.373 221.511 216.141C222.015 215.908 222.575 215.792 223.191 215.792C223.836 215.792 224.393 215.918 224.861 216.17C225.333 216.419 225.696 216.752 225.951 217.167C226.21 217.583 226.338 218.038 226.335 218.533C226.338 219.096 226.181 219.574 225.863 219.967C225.549 220.36 225.13 220.624 224.606 220.758V220.837C225.274 220.938 225.791 221.203 226.158 221.632C226.528 222.061 226.711 222.593 226.708 223.229C226.711 223.782 226.557 224.278 226.246 224.717C225.938 225.156 225.518 225.501 224.984 225.753C224.45 226.002 223.839 226.127 223.152 226.127ZM230.198 224.614L230.124 225.149C230.075 225.542 229.991 225.951 229.874 226.377C229.759 226.806 229.639 227.204 229.515 227.571C229.394 227.937 229.294 228.229 229.215 228.445H228.174C228.217 228.242 228.276 227.967 228.351 227.62C228.426 227.276 228.5 226.891 228.572 226.465C228.644 226.04 228.698 225.606 228.734 225.164L228.783 224.614H230.198ZM232.041 224.024V222.796L236.388 215.93H237.355V217.737H236.741L233.632 222.659V222.737H239.59V224.024H232.041ZM236.81 225.989V223.651L236.82 223.091V215.93H238.259V225.989H236.81ZM244.804 226.156C244.028 226.153 243.365 225.948 242.815 225.542C242.265 225.136 241.844 224.545 241.552 223.769C241.261 222.993 241.115 222.058 241.115 220.964C241.115 219.874 241.261 218.942 241.552 218.169C241.847 217.397 242.27 216.807 242.82 216.401C243.373 215.995 244.035 215.792 244.804 215.792C245.574 215.792 246.233 215.997 246.784 216.406C247.334 216.812 247.754 217.402 248.046 218.174C248.341 218.944 248.488 219.874 248.488 220.964C248.488 222.061 248.342 222.998 248.051 223.774C247.759 224.547 247.339 225.138 246.788 225.547C246.238 225.953 245.577 226.156 244.804 226.156ZM244.804 224.845C245.485 224.845 246.017 224.512 246.4 223.847C246.787 223.183 246.98 222.222 246.98 220.964C246.98 220.129 246.892 219.424 246.715 218.847C246.541 218.268 246.291 217.829 245.963 217.531C245.639 217.23 245.253 217.079 244.804 217.079C244.126 217.079 243.594 217.413 243.208 218.081C242.821 218.749 242.627 219.71 242.623 220.964C242.623 221.803 242.71 222.511 242.884 223.091C243.06 223.667 243.311 224.105 243.635 224.403C243.959 224.697 244.349 224.845 244.804 224.845ZM253.732 226.156C252.956 226.153 252.293 225.948 251.743 225.542C251.193 225.136 250.772 224.545 250.481 223.769C250.189 222.993 250.044 222.058 250.044 220.964C250.044 219.874 250.189 218.942 250.481 218.169C250.776 217.397 251.198 216.807 251.748 216.401C252.301 215.995 252.963 215.792 253.732 215.792C254.502 215.792 255.162 215.997 255.712 216.406C256.262 216.812 256.683 217.402 256.974 218.174C257.269 218.944 257.416 219.874 257.416 220.964C257.416 222.061 257.271 222.998 256.979 223.774C256.688 224.547 256.267 225.138 255.717 225.547C255.167 225.953 254.505 226.156 253.732 226.156ZM253.732 224.845C254.414 224.845 254.946 224.512 255.329 223.847C255.715 223.183 255.908 222.222 255.908 220.964C255.908 220.129 255.82 219.424 255.643 218.847C255.47 218.268 255.219 217.829 254.892 217.531C254.567 217.23 254.181 217.079 253.732 217.079C253.055 217.079 252.523 217.413 252.136 218.081C251.75 218.749 251.555 219.71 251.552 220.964C251.552 221.803 251.638 222.511 251.812 223.091C251.989 223.667 252.239 224.105 252.563 224.403C252.888 224.697 253.277 224.845 253.732 224.845ZM259.781 226.082C259.513 226.082 259.282 225.987 259.089 225.797C258.896 225.604 258.799 225.372 258.799 225.1C258.799 224.831 258.896 224.602 259.089 224.412C259.282 224.219 259.513 224.123 259.781 224.123C260.05 224.123 260.281 224.219 260.474 224.412C260.667 224.602 260.764 224.831 260.764 225.1C260.764 225.28 260.718 225.445 260.626 225.596C260.538 225.743 260.42 225.861 260.272 225.95C260.125 226.038 259.961 226.082 259.781 226.082ZM265.849 226.156C265.073 226.153 264.409 225.948 263.859 225.542C263.309 225.136 262.888 224.545 262.597 223.769C262.306 222.993 262.16 222.058 262.16 220.964C262.16 219.874 262.306 218.942 262.597 218.169C262.892 217.397 263.314 216.807 263.864 216.401C264.418 215.995 265.079 215.792 265.849 215.792C266.618 215.792 267.278 215.997 267.828 216.406C268.378 216.812 268.799 217.402 269.09 218.174C269.385 218.944 269.532 219.874 269.532 220.964C269.532 222.061 269.387 222.998 269.095 223.774C268.804 224.547 268.383 225.138 267.833 225.547C267.283 225.953 266.621 226.156 265.849 226.156ZM265.849 224.845C266.53 224.845 267.062 224.512 267.445 223.847C267.831 223.183 268.024 222.222 268.024 220.964C268.024 220.129 267.936 219.424 267.759 218.847C267.586 218.268 267.335 217.829 267.008 217.531C266.684 217.23 266.297 217.079 265.849 217.079C265.171 217.079 264.639 217.413 264.252 218.081C263.866 218.749 263.671 219.71 263.668 220.964C263.668 221.803 263.755 222.511 263.928 223.091C264.105 223.667 264.355 224.105 264.68 224.403C265.004 224.697 265.393 224.845 265.849 224.845ZM274.777 226.156C274.001 226.153 273.338 225.948 272.788 225.542C272.238 225.136 271.817 224.545 271.525 223.769C271.234 222.993 271.088 222.058 271.088 220.964C271.088 219.874 271.234 218.942 271.525 218.169C271.82 217.397 272.242 216.807 272.793 216.401C273.346 215.995 274.007 215.792 274.777 215.792C275.546 215.792 276.206 215.997 276.756 216.406C277.307 216.812 277.727 217.402 278.019 218.174C278.313 218.944 278.461 219.874 278.461 220.964C278.461 222.061 278.315 222.998 278.024 223.774C277.732 224.547 277.311 225.138 276.761 225.547C276.211 225.953 275.55 226.156 274.777 226.156ZM274.777 224.845C275.458 224.845 275.99 224.512 276.373 223.847C276.76 223.183 276.953 222.222 276.953 220.964C276.953 220.129 276.864 219.424 276.688 218.847C276.514 218.268 276.264 217.829 275.936 217.531C275.612 217.23 275.226 217.079 274.777 217.079C274.099 217.079 273.567 217.413 273.181 218.081C272.794 218.749 272.599 219.71 272.596 220.964C272.596 221.803 272.683 222.511 272.856 223.091C273.033 223.667 273.284 224.105 273.608 224.403C273.932 224.697 274.322 224.845 274.777 224.845Z" fill="#111827"/>
</svg>
