<svg width="402" height="107" viewBox="0 0 402 107" fill="none" xmlns="http://www.w3.org/2000/svg">
<rect width="402" height="107" fill="white"/>
<path d="M28.375 41.7754C28.375 34.3749 34.3742 28.3757 41.7746 28.3757H360.224C367.624 28.3757 373.624 34.375 373.624 41.7754V65.2247C373.624 72.6251 367.624 78.6244 360.224 78.6244H41.7746C34.3742 78.6244 28.375 72.6251 28.375 65.2247V41.7754Z" fill="#0073DE"/>
<path d="M137.847 58V48.2548H141.692C142.428 48.2548 143.056 48.3865 143.576 48.6498C144.1 48.9099 144.498 49.2795 144.77 49.7585C145.046 50.2343 145.184 50.7942 145.184 51.4382C145.184 52.0853 145.045 52.6421 144.766 53.1084C144.487 53.5715 144.082 53.9268 143.552 54.1743C143.026 54.4217 142.388 54.5454 141.639 54.5454H139.065V52.8895H141.306C141.7 52.8895 142.026 52.8356 142.287 52.7277C142.547 52.6198 142.74 52.4581 142.867 52.2423C142.997 52.0266 143.062 51.7586 143.062 51.4382C143.062 51.1146 142.997 50.8418 142.867 50.6197C142.74 50.3977 142.545 50.2295 142.282 50.1153C142.022 49.998 141.693 49.9393 141.297 49.9393H139.907V58H137.847ZM143.11 53.5652L145.532 58H143.257L140.888 53.5652H143.11ZM149.816 58.1428C149.064 58.1428 148.417 57.9905 147.874 57.6859C147.335 57.3782 146.919 56.9436 146.627 56.3821C146.336 55.8175 146.19 55.1497 146.19 54.3789C146.19 53.627 146.336 52.9672 146.627 52.3994C146.919 51.8315 147.33 51.389 147.86 51.0718C148.393 50.7546 149.018 50.5959 149.735 50.5959C150.217 50.5959 150.666 50.6737 151.081 50.8291C151.5 50.9814 151.865 51.2114 152.176 51.5191C152.49 51.8268 152.734 52.2138 152.908 52.6801C153.083 53.1433 153.17 53.6857 153.17 54.3075V54.8642H146.999V53.608H151.262C151.262 53.3162 151.199 53.0576 151.072 52.8324C150.945 52.6072 150.769 52.4311 150.544 52.3042C150.322 52.1741 150.063 52.1091 149.768 52.1091C149.46 52.1091 149.187 52.1805 148.95 52.3232C148.715 52.4628 148.531 52.6516 148.398 52.8895C148.264 53.1242 148.196 53.3859 148.193 53.6746V54.869C148.193 55.2306 148.26 55.5431 148.393 55.8064C148.529 56.0697 148.721 56.2727 148.969 56.4155C149.216 56.5582 149.509 56.6296 149.849 56.6296C150.074 56.6296 150.28 56.5979 150.467 56.5344C150.655 56.471 150.815 56.3758 150.948 56.2489C151.081 56.122 151.183 55.9666 151.253 55.7826L153.127 55.9063C153.032 56.3568 152.837 56.7501 152.542 57.0864C152.25 57.4195 151.873 57.6796 151.41 57.8668C150.95 58.0508 150.418 58.1428 149.816 58.1428ZM159.323 60.7408V56.8294H159.261C159.166 57.0325 159.031 57.2339 158.856 57.4338C158.685 57.6304 158.462 57.7938 158.186 57.9239C157.913 58.0539 157.58 58.119 157.186 58.119C156.631 58.119 156.128 57.9762 155.678 57.6907C155.231 57.402 154.875 56.9785 154.612 56.4202C154.352 55.8587 154.222 55.1703 154.222 54.3551C154.222 53.5176 154.357 52.8213 154.626 52.2661C154.896 51.7078 155.254 51.2907 155.702 51.0147C156.152 50.7355 156.645 50.5959 157.182 50.5959C157.591 50.5959 157.932 50.6657 158.205 50.8053C158.481 50.9417 158.703 51.113 158.871 51.3192C159.042 51.5222 159.172 51.7221 159.261 51.9188H159.347V50.6911H161.345V60.7408H159.323ZM157.829 56.5059C158.155 56.5059 158.431 56.417 158.657 56.2394C158.885 56.0586 159.06 55.8064 159.18 55.4828C159.304 55.1592 159.366 54.7802 159.366 54.3456C159.366 53.911 159.305 53.5335 159.185 53.2131C159.064 52.8927 158.89 52.6452 158.661 52.4707C158.433 52.2963 158.155 52.209 157.829 52.209C157.496 52.209 157.215 52.2994 156.986 52.4803C156.758 52.6611 156.585 52.9117 156.468 53.2321C156.35 53.5525 156.292 53.9236 156.292 54.3456C156.292 54.7706 156.35 55.1466 156.468 55.4733C156.588 55.7969 156.761 56.0506 156.986 56.2346C157.215 56.4155 157.496 56.5059 157.829 56.5059ZM167.66 54.888V50.6911H169.687V58H167.74V56.6724H167.664C167.499 57.1007 167.225 57.4449 166.841 57.705C166.46 57.9651 165.996 58.0952 165.447 58.0952C164.958 58.0952 164.528 57.9841 164.157 57.7621C163.786 57.54 163.496 57.2244 163.287 56.8152C163.08 56.4059 162.976 55.9158 162.972 55.3448V50.6911H165V54.9832C165.003 55.4146 165.119 55.7556 165.347 56.0062C165.575 56.2568 165.881 56.3821 166.265 56.3821C166.51 56.3821 166.738 56.3266 166.951 56.2156C167.163 56.1014 167.334 55.9333 167.464 55.7112C167.598 55.4892 167.663 55.2148 167.66 54.888ZM174.639 58.1428C173.887 58.1428 173.24 57.9905 172.697 57.6859C172.158 57.3782 171.743 56.9436 171.451 56.3821C171.159 55.8175 171.013 55.1497 171.013 54.3789C171.013 53.627 171.159 52.9672 171.451 52.3994C171.743 51.8315 172.153 51.389 172.683 51.0718C173.216 50.7546 173.841 50.5959 174.558 50.5959C175.04 50.5959 175.489 50.6737 175.905 50.8291C176.323 50.9814 176.688 51.2114 176.999 51.5191C177.313 51.8268 177.557 52.2138 177.732 52.6801C177.906 53.1433 177.994 53.6857 177.994 54.3075V54.8642H171.822V53.608H176.085C176.085 53.3162 176.022 53.0576 175.895 52.8324C175.768 52.6072 175.592 52.4311 175.367 52.3042C175.145 52.1741 174.886 52.1091 174.591 52.1091C174.284 52.1091 174.011 52.1805 173.773 52.3232C173.538 52.4628 173.354 52.6516 173.221 52.8895C173.088 53.1242 173.019 53.3859 173.016 53.6746V54.869C173.016 55.2306 173.083 55.5431 173.216 55.8064C173.353 56.0697 173.544 56.2727 173.792 56.4155C174.039 56.5582 174.333 56.6296 174.672 56.6296C174.897 56.6296 175.104 56.5979 175.291 56.5344C175.478 56.471 175.638 56.3758 175.771 56.2489C175.905 56.122 176.006 55.9666 176.076 55.7826L177.951 55.9063C177.856 56.3568 177.66 56.7501 177.365 57.0864C177.074 57.4195 176.696 57.6796 176.233 57.8668C175.773 58.0508 175.242 58.1428 174.639 58.1428ZM185.398 52.7753L183.542 52.8895C183.51 52.7309 183.442 52.5881 183.337 52.4612C183.233 52.3312 183.095 52.2281 182.923 52.1519C182.755 52.0726 182.554 52.033 182.319 52.033C182.005 52.033 181.74 52.0996 181.524 52.2328C181.309 52.3629 181.201 52.5374 181.201 52.7563C181.201 52.9307 181.27 53.0782 181.41 53.1988C181.55 53.3193 181.789 53.4161 182.129 53.489L183.451 53.7555C184.162 53.9014 184.692 54.1362 185.041 54.4598C185.39 54.7833 185.564 55.2084 185.564 55.735C185.564 56.214 185.423 56.6343 185.141 56.996C184.861 57.3576 184.478 57.6399 183.989 57.843C183.504 58.0428 182.944 58.1428 182.309 58.1428C181.342 58.1428 180.571 57.9413 179.997 57.5384C179.426 57.1324 179.091 56.5804 178.993 55.8825L180.987 55.7778C181.047 56.0729 181.193 56.2981 181.424 56.4535C181.656 56.6058 181.953 56.6819 182.314 56.6819C182.669 56.6819 182.955 56.6137 183.171 56.4773C183.39 56.3377 183.501 56.1585 183.504 55.9396C183.501 55.7556 183.423 55.6049 183.271 55.4876C183.118 55.367 182.884 55.275 182.566 55.2116L181.301 54.9594C180.587 54.8166 180.056 54.5692 179.707 54.2171C179.361 53.865 179.188 53.4161 179.188 52.8705C179.188 52.401 179.315 51.9965 179.569 51.6571C179.826 51.3176 180.186 51.0559 180.649 50.8719C181.115 50.6879 181.661 50.5959 182.286 50.5959C183.209 50.5959 183.935 50.791 184.465 51.1812C184.998 51.5714 185.309 52.1028 185.398 52.7753ZM190.728 50.6911V52.2138H186.327V50.6911H190.728ZM187.326 48.94H189.353V55.754C189.353 55.9412 189.382 56.0871 189.439 56.1918C189.496 56.2933 189.575 56.3647 189.677 56.4059C189.781 56.4472 189.902 56.4678 190.038 56.4678C190.133 56.4678 190.229 56.4599 190.324 56.444C190.419 56.425 190.492 56.4107 190.543 56.4012L190.861 57.9096C190.76 57.9413 190.617 57.9778 190.433 58.019C190.249 58.0634 190.026 58.0904 189.762 58.0999C189.274 58.119 188.845 58.0539 188.477 57.9048C188.113 57.7557 187.829 57.5242 187.626 57.2101C187.423 56.8961 187.323 56.4995 187.326 56.0205V48.94ZM198.643 58H195.188V48.2548H198.671C199.651 48.2548 200.495 48.4499 201.203 48.8401C201.91 49.2271 202.454 49.7838 202.835 50.5103C203.219 51.2367 203.41 52.1059 203.41 53.1179C203.41 54.133 203.219 55.0054 202.835 55.735C202.454 56.4646 201.907 57.0245 201.193 57.4147C200.482 57.8049 199.632 58 198.643 58ZM197.248 56.2346H198.557C199.166 56.2346 199.678 56.1268 200.094 55.9111C200.513 55.6922 200.827 55.3543 201.036 54.8975C201.249 54.4376 201.355 53.8443 201.355 53.1179C201.355 52.3978 201.249 51.8093 201.036 51.3525C200.827 50.8957 200.514 50.5595 200.099 50.3437C199.683 50.128 199.171 50.0202 198.562 50.0202H197.248V56.2346ZM204.899 58V50.6911H206.864V51.9664H206.94C207.073 51.5127 207.297 51.1701 207.611 50.9385C207.925 50.7038 208.287 50.5864 208.696 50.5864C208.797 50.5864 208.907 50.5928 209.024 50.6055C209.142 50.6181 209.245 50.6356 209.334 50.6578V52.4565C209.238 52.4279 209.107 52.4025 208.939 52.3803C208.77 52.3581 208.617 52.347 208.477 52.347C208.179 52.347 207.912 52.4121 207.678 52.5421C207.446 52.669 207.262 52.8467 207.126 53.0751C206.992 53.3035 206.926 53.5668 206.926 53.865V58H204.899ZM212.256 58.138C211.79 58.138 211.374 58.0571 211.01 57.8953C210.645 57.7304 210.356 57.4877 210.144 57.1673C209.934 56.8437 209.83 56.4408 209.83 55.9586C209.83 55.5526 209.904 55.2116 210.053 54.9356C210.202 54.6596 210.405 54.4376 210.662 54.2694C210.919 54.1013 211.211 53.9744 211.538 53.8887C211.868 53.8031 212.214 53.7428 212.575 53.7079C213 53.6635 213.343 53.6223 213.603 53.5842C213.863 53.543 214.052 53.4827 214.169 53.4034C214.287 53.3241 214.345 53.2067 214.345 53.0513V53.0227C214.345 52.7214 214.25 52.4882 214.06 52.3232C213.873 52.1583 213.606 52.0758 213.26 52.0758C212.896 52.0758 212.605 52.1567 212.39 52.3185C212.174 52.4771 212.031 52.6769 211.961 52.918L210.087 52.7658C210.182 52.3217 210.369 51.9378 210.648 51.6142C210.927 51.2875 211.287 51.0369 211.728 50.8624C212.172 50.6848 212.686 50.5959 213.27 50.5959C213.676 50.5959 214.065 50.6435 214.436 50.7387C214.81 50.8339 215.142 50.9814 215.43 51.1812C215.722 51.3811 215.952 51.638 216.12 51.9521C216.288 52.263 216.372 52.6357 216.372 53.0703V58H214.45V56.9865H214.393C214.275 57.2149 214.118 57.4163 213.922 57.5908C213.725 57.7621 213.489 57.8969 213.213 57.9952C212.937 58.0904 212.618 58.138 212.256 58.138ZM212.837 56.739C213.135 56.739 213.398 56.6803 213.627 56.563C213.855 56.4424 214.034 56.2806 214.164 56.0776C214.295 55.8746 214.36 55.6446 214.36 55.3876V54.612C214.296 54.6533 214.209 54.6913 214.098 54.7262C213.99 54.7579 213.868 54.7881 213.731 54.8166C213.595 54.842 213.459 54.8658 213.322 54.888C213.186 54.907 213.062 54.9245 212.951 54.9404C212.713 54.9752 212.505 55.0308 212.328 55.1069C212.15 55.183 212.012 55.2861 211.914 55.4162C211.815 55.5431 211.766 55.7017 211.766 55.892C211.766 56.168 211.866 56.379 212.066 56.5249C212.269 56.6677 212.526 56.739 212.837 56.739ZM219.387 58L217.398 50.6911H219.449L220.581 55.6018H220.648L221.828 50.6911H223.841L225.04 55.5732H225.102L226.215 50.6911H228.261L226.277 58H224.131L222.875 53.4034H222.784L221.528 58H219.387ZM231.853 58.119C231.297 58.119 230.795 57.9762 230.344 57.6907C229.897 57.402 229.542 56.9785 229.278 56.4202C229.018 55.8587 228.888 55.1703 228.888 54.3551C228.888 53.5176 229.023 52.8213 229.293 52.2661C229.562 51.7078 229.921 51.2907 230.368 51.0147C230.818 50.7355 231.312 50.5959 231.848 50.5959C232.257 50.5959 232.598 50.6657 232.871 50.8053C233.147 50.9417 233.369 51.113 233.537 51.3192C233.708 51.5222 233.838 51.7221 233.927 51.9188H233.989V48.2548H236.011V58H234.013V56.8294H233.927C233.832 57.0325 233.697 57.2339 233.523 57.4338C233.351 57.6304 233.128 57.7938 232.852 57.9239C232.579 58.0539 232.246 58.119 231.853 58.119ZM232.495 56.5059C232.822 56.5059 233.098 56.417 233.323 56.2394C233.551 56.0586 233.726 55.8064 233.846 55.4828C233.97 55.1592 234.032 54.7802 234.032 54.3456C234.032 53.911 233.972 53.5335 233.851 53.2131C233.731 52.8927 233.556 52.6452 233.328 52.4707C233.099 52.2963 232.822 52.209 232.495 52.209C232.162 52.209 231.881 52.2994 231.653 52.4803C231.424 52.6611 231.251 52.9117 231.134 53.2321C231.017 53.5525 230.958 53.9236 230.958 54.3456C230.958 54.7706 231.017 55.1466 231.134 55.4733C231.255 55.7969 231.428 56.0506 231.653 56.2346C231.881 56.4155 232.162 56.5059 232.495 56.5059ZM240.98 58.1428C240.241 58.1428 239.602 57.9857 239.063 57.6717C238.527 57.3544 238.113 56.9135 237.821 56.3488C237.529 55.781 237.383 55.1228 237.383 54.3741C237.383 53.6191 237.529 52.9593 237.821 52.3946C238.113 51.8268 238.527 51.3858 239.063 51.0718C239.602 50.7546 240.241 50.5959 240.98 50.5959C241.72 50.5959 242.357 50.7546 242.893 51.0718C243.433 51.3858 243.848 51.8268 244.14 52.3946C244.432 52.9593 244.578 53.6191 244.578 54.3741C244.578 55.1228 244.432 55.781 244.14 56.3488C243.848 56.9135 243.433 57.3544 242.893 57.6717C242.357 57.9857 241.72 58.1428 240.98 58.1428ZM240.99 56.5725C241.326 56.5725 241.607 56.4773 241.832 56.287C242.057 56.0935 242.227 55.8302 242.341 55.4971C242.459 55.164 242.517 54.7849 242.517 54.3598C242.517 53.9347 242.459 53.5557 242.341 53.2226C242.227 52.8895 242.057 52.6262 241.832 52.4327C241.607 52.2392 241.326 52.1424 240.99 52.1424C240.65 52.1424 240.365 52.2392 240.133 52.4327C239.905 52.6262 239.732 52.8895 239.615 53.2226C239.501 53.5557 239.443 53.9347 239.443 54.3598C239.443 54.7849 239.501 55.164 239.615 55.4971C239.732 55.8302 239.905 56.0935 240.133 56.287C240.365 56.4773 240.65 56.5725 240.99 56.5725ZM247.154 58L245.165 50.6911H247.216L248.349 55.6018H248.415L249.595 50.6911H251.608L252.807 55.5732H252.869L253.983 50.6911H256.029L254.045 58H251.899L250.642 53.4034H250.552L249.296 58H247.154ZM259.137 53.7745V58H257.11V50.6911H259.042V51.9806H259.128C259.289 51.5556 259.561 51.2193 259.941 50.9719C260.322 50.7212 260.784 50.5959 261.326 50.5959C261.834 50.5959 262.276 50.707 262.654 50.929C263.031 51.1511 263.325 51.4683 263.534 51.8807C263.743 52.2899 263.848 52.7785 263.848 53.3463V58H261.821V53.7079C261.824 53.2606 261.71 52.9117 261.478 52.6611C261.247 52.4073 260.928 52.2804 260.522 52.2804C260.249 52.2804 260.008 52.3391 259.799 52.4565C259.592 52.5738 259.431 52.7451 259.313 52.9704C259.199 53.1924 259.14 53.4605 259.137 53.7745Z" fill="white"/>
</svg>
