<svg width="668" height="264" viewBox="0 0 668 264" fill="none" xmlns="http://www.w3.org/2000/svg">
<g clip-path="url(#clip0_55127_16304)">
<rect width="668" height="264" fill="white"/>
<path d="M20.5568 28.3643V26.8182H28.6804V28.3643H25.5334V37H23.7038V28.3643H20.5568ZM29.3739 37V29.3636H31.119V30.6364H31.1985C31.3377 30.1955 31.5763 29.8558 31.9144 29.6172C32.2558 29.3752 32.6452 29.2543 33.0827 29.2543C33.1822 29.2543 33.2932 29.2592 33.4158 29.2692C33.5418 29.2758 33.6462 29.2874 33.729 29.304V30.9595C33.6528 30.933 33.5318 30.9098 33.3661 30.8899C33.2037 30.8667 33.0463 30.8551 32.8938 30.8551C32.5657 30.8551 32.2707 30.9264 32.0089 31.0689C31.7504 31.2081 31.5465 31.402 31.3974 31.6506C31.2482 31.8991 31.1737 32.1858 31.1737 32.5107V37H29.3739ZM36.9854 37.1541C36.5015 37.1541 36.0657 37.0679 35.6779 36.8956C35.2934 36.7199 34.9885 36.4614 34.7631 36.12C34.5411 35.7786 34.43 35.3577 34.43 34.8572C34.43 34.4264 34.5096 34.0701 34.6687 33.7884C34.8278 33.5066 35.0449 33.2812 35.32 33.1122C35.5951 32.9432 35.9049 32.8156 36.2496 32.7294C36.5977 32.6399 36.9573 32.5753 37.3285 32.5355C37.7759 32.4891 38.1388 32.4477 38.4173 32.4112C38.6957 32.3714 38.8978 32.3118 39.0238 32.2322C39.1531 32.1494 39.2177 32.0218 39.2177 31.8494V31.8196C39.2177 31.4451 39.1067 31.1551 38.8846 30.9496C38.6625 30.7441 38.3427 30.6413 37.9251 30.6413C37.4843 30.6413 37.1346 30.7375 36.8761 30.9297C36.6209 31.1219 36.4485 31.349 36.359 31.6108L34.6786 31.3722C34.8112 30.9081 35.0299 30.5204 35.3349 30.2088C35.6398 29.8939 36.0127 29.6586 36.4535 29.5028C36.8943 29.3438 37.3815 29.2642 37.9151 29.2642C38.283 29.2642 38.6493 29.3073 39.0138 29.3935C39.3784 29.4796 39.7115 29.6222 40.0131 29.821C40.3147 30.0166 40.5567 30.2834 40.739 30.6214C40.9246 30.9595 41.0174 31.3821 41.0174 31.8892V37H39.2873V35.951H39.2276C39.1183 36.1631 38.9641 36.362 38.7653 36.5476C38.5697 36.7299 38.3228 36.8774 38.0245 36.9901C37.7295 37.0994 37.3832 37.1541 36.9854 37.1541ZM37.4528 35.8317C37.814 35.8317 38.1272 35.7604 38.3924 35.6179C38.6576 35.4721 38.8614 35.2798 39.0039 35.0412C39.1497 34.8026 39.2227 34.5424 39.2227 34.2607V33.3608C39.1663 33.4072 39.0702 33.4503 38.9343 33.4901C38.8017 33.5298 38.6526 33.5646 38.4869 33.5945C38.3211 33.6243 38.1571 33.6508 37.9947 33.674C37.8323 33.6972 37.6914 33.7171 37.5721 33.7337C37.3036 33.7701 37.0633 33.8298 36.8512 33.9126C36.6391 33.9955 36.4717 34.1115 36.3491 34.2607C36.2264 34.4065 36.1651 34.5954 36.1651 34.8274C36.1651 35.1589 36.2861 35.4091 36.5281 35.5781C36.77 35.7472 37.0782 35.8317 37.4528 35.8317ZM44.6268 32.5256V37H42.8271V29.3636H44.5472V30.6612H44.6367C44.8124 30.2337 45.0924 29.8939 45.4769 29.642C45.8647 29.3902 46.3436 29.2642 46.9137 29.2642C47.4407 29.2642 47.8997 29.3769 48.2908 29.6023C48.6853 29.8277 48.9902 30.1541 49.2056 30.5817C49.4244 31.0092 49.5321 31.5279 49.5288 32.1378V37H47.729V32.4162C47.729 31.9058 47.5965 31.5064 47.3313 31.218C47.0695 30.9297 46.7066 30.7855 46.2425 30.7855C45.9277 30.7855 45.6476 30.8551 45.4023 30.9943C45.1604 31.1302 44.9698 31.3274 44.8306 31.5859C44.6947 31.8445 44.6268 32.1577 44.6268 32.5256ZM57.3938 31.3821L55.7532 31.5611C55.7068 31.3954 55.6256 31.2396 55.5096 31.0938C55.3969 30.9479 55.2444 30.8303 55.0522 30.7408C54.86 30.6513 54.6246 30.6065 54.3462 30.6065C53.9717 30.6065 53.6568 30.6877 53.4016 30.8501C53.1497 31.0125 53.0254 31.223 53.0288 31.4815C53.0254 31.7036 53.1067 31.8842 53.2724 32.0234C53.4414 32.1626 53.7198 32.277 54.1076 32.3665L55.4102 32.6449C56.1327 32.8007 56.6696 33.0476 57.021 33.3857C57.3756 33.7237 57.5546 34.1662 57.5579 34.7131C57.5546 35.1937 57.4137 35.6179 57.1353 35.9858C56.8602 36.3504 56.4774 36.6354 55.9869 36.8409C55.4963 37.0464 54.9329 37.1491 54.2965 37.1491C53.3619 37.1491 52.6095 36.9536 52.0394 36.5625C51.4693 36.1681 51.1296 35.6196 51.0202 34.9169L52.7752 34.7479C52.8548 35.0926 53.0238 35.3527 53.2823 35.5284C53.5408 35.7041 53.8772 35.7919 54.2915 35.7919C54.7191 35.7919 55.0621 35.7041 55.3207 35.5284C55.5825 35.3527 55.7134 35.1357 55.7134 34.8771C55.7134 34.6584 55.6289 34.4777 55.4599 34.3352C55.2942 34.1927 55.0356 34.0833 54.6843 34.0071L53.3817 33.7337C52.6493 33.5812 52.1074 33.3243 51.756 32.9631C51.4047 32.5985 51.2307 32.1378 51.234 31.581C51.2307 31.1103 51.3583 30.7027 51.6168 30.358C51.8787 30.0099 52.2416 29.7415 52.7056 29.5526C53.1729 29.3603 53.7115 29.2642 54.3214 29.2642C55.2163 29.2642 55.9206 29.4548 56.4343 29.8359C56.9513 30.2171 57.2712 30.7325 57.3938 31.3821ZM62.9098 29.3636V30.7557H58.3956V29.3636H62.9098ZM59.5241 37V28.6428C59.5241 28.129 59.6302 27.7015 59.8423 27.3601C60.0578 27.0187 60.3461 26.7635 60.7074 26.5945C61.0687 26.4254 61.4697 26.3409 61.9105 26.3409C62.2221 26.3409 62.4988 26.3658 62.7408 26.4155C62.9827 26.4652 63.1617 26.5099 63.2777 26.5497L62.9197 27.9418C62.8435 27.9186 62.7474 27.8954 62.6314 27.8722C62.5154 27.8456 62.3861 27.8324 62.2436 27.8324C61.9089 27.8324 61.6719 27.9136 61.5327 28.076C61.3968 28.2351 61.3288 28.4638 61.3288 28.7621V37H59.5241ZM67.4128 37.1491C66.6472 37.1491 65.986 36.9901 65.4292 36.6719C64.8757 36.3504 64.4498 35.8963 64.1515 35.3097C63.8532 34.7197 63.704 34.0253 63.704 33.2266C63.704 32.4411 63.8532 31.7517 64.1515 31.1584C64.4531 30.5618 64.874 30.0978 65.4142 29.7663C65.9545 29.4316 66.5892 29.2642 67.3184 29.2642C67.789 29.2642 68.2331 29.3404 68.6507 29.4929C69.0717 29.642 69.4429 29.8741 69.7644 30.1889C70.0892 30.5038 70.3444 30.9048 70.53 31.392C70.7156 31.8759 70.8084 32.4527 70.8084 33.1222V33.674H64.5492V32.4609H69.0833C69.08 32.1162 69.0054 31.8097 68.8596 31.5412C68.7137 31.2694 68.5099 31.0556 68.248 30.8999C67.9895 30.7441 67.6879 30.6662 67.3432 30.6662C66.9753 30.6662 66.6522 30.7557 66.3738 30.9347C66.0953 31.1103 65.8783 31.3423 65.7225 31.6307C65.57 31.9157 65.4921 32.2289 65.4888 32.5703V33.6293C65.4888 34.0734 65.57 34.4545 65.7324 34.7727C65.8948 35.0876 66.1219 35.3295 66.4135 35.4986C66.7052 35.6643 67.0466 35.7472 67.4377 35.7472C67.6995 35.7472 67.9365 35.7107 68.1486 35.6378C68.3607 35.5616 68.5447 35.4505 68.7005 35.3047C68.8562 35.1589 68.9739 34.9782 69.0534 34.7628L70.7338 34.9517C70.6278 35.3958 70.4256 35.7836 70.1273 36.1151C69.8323 36.4432 69.4545 36.6984 68.9938 36.8807C68.5331 37.0597 68.0061 37.1491 67.4128 37.1491ZM72.331 37V29.3636H74.076V30.6364H74.1555C74.2947 30.1955 74.5334 29.8558 74.8714 29.6172C75.2128 29.3752 75.6023 29.2543 76.0398 29.2543C76.1392 29.2543 76.2502 29.2592 76.3729 29.2692C76.4988 29.2758 76.6032 29.2874 76.6861 29.304V30.9595C76.6098 30.933 76.4889 30.9098 76.3232 30.8899C76.1607 30.8667 76.0033 30.8551 75.8509 30.8551C75.5227 30.8551 75.2277 30.9264 74.9659 31.0689C74.7074 31.2081 74.5036 31.402 74.3544 31.6506C74.2053 31.8991 74.1307 32.1858 74.1307 32.5107V37H72.331ZM84.1882 37.1342C83.5883 37.1342 83.0514 36.9801 82.5774 36.6719C82.1035 36.3636 81.7289 35.9162 81.4538 35.3295C81.1787 34.7429 81.0412 34.0303 81.0412 33.1918C81.0412 32.3433 81.1804 31.6274 81.4588 31.044C81.7405 30.4574 82.12 30.0149 82.5973 29.7166C83.0746 29.415 83.6065 29.2642 84.1932 29.2642C84.6406 29.2642 85.0085 29.3404 85.2969 29.4929C85.5852 29.642 85.8139 29.8227 85.983 30.0348C86.152 30.2436 86.2829 30.4408 86.3757 30.6264H86.4503V26.8182H88.255V37H86.4851V35.7969H86.3757C86.2829 35.9825 86.1487 36.1797 85.973 36.3885C85.7973 36.594 85.5653 36.7696 85.277 36.9155C84.9886 37.0613 84.6257 37.1342 84.1882 37.1342ZM84.6903 35.6577C85.0715 35.6577 85.3963 35.5549 85.6648 35.3494C85.9332 35.1406 86.1371 34.8506 86.2763 34.4794C86.4155 34.1082 86.4851 33.6757 86.4851 33.1818C86.4851 32.688 86.4155 32.2588 86.2763 31.8942C86.1404 31.5296 85.9382 31.2462 85.6697 31.044C85.4046 30.8419 85.0781 30.7408 84.6903 30.7408C84.2893 30.7408 83.9545 30.8452 83.6861 31.054C83.4176 31.2628 83.2154 31.5511 83.0795 31.919C82.9437 32.2869 82.8757 32.7079 82.8757 33.1818C82.8757 33.6591 82.9437 34.085 83.0795 34.4595C83.2188 34.8307 83.4226 35.1241 83.6911 35.3395C83.9628 35.5516 84.2959 35.6577 84.6903 35.6577ZM93.5534 37.1491C92.7878 37.1491 92.1266 36.9901 91.5698 36.6719C91.0163 36.3504 90.5904 35.8963 90.2921 35.3097C89.9938 34.7197 89.8446 34.0253 89.8446 33.2266C89.8446 32.4411 89.9938 31.7517 90.2921 31.1584C90.5937 30.5618 91.0146 30.0978 91.5549 29.7663C92.0951 29.4316 92.7298 29.2642 93.459 29.2642C93.9296 29.2642 94.3738 29.3404 94.7914 29.4929C95.2123 29.642 95.5835 29.8741 95.905 30.1889C96.2298 30.5038 96.485 30.9048 96.6706 31.392C96.8562 31.8759 96.949 32.4527 96.949 33.1222V33.674H90.6898V32.4609H95.2239C95.2206 32.1162 95.146 31.8097 95.0002 31.5412C94.8543 31.2694 94.6505 31.0556 94.3887 30.8999C94.1301 30.7441 93.8285 30.6662 93.4838 30.6662C93.1159 30.6662 92.7928 30.7557 92.5144 30.9347C92.236 31.1103 92.0189 31.3423 91.8631 31.6307C91.7106 31.9157 91.6328 32.2289 91.6294 32.5703V33.6293C91.6294 34.0734 91.7106 34.4545 91.873 34.7727C92.0355 35.0876 92.2625 35.3295 92.5542 35.4986C92.8458 35.6643 93.1872 35.7472 93.5783 35.7472C93.8401 35.7472 94.0771 35.7107 94.2892 35.6378C94.5014 35.5616 94.6853 35.4505 94.8411 35.3047C94.9969 35.1589 95.1145 34.9782 95.1941 34.7628L96.8745 34.9517C96.7684 35.3958 96.5662 35.7836 96.2679 36.1151C95.973 36.4432 95.5951 36.6984 95.1344 36.8807C94.6737 37.0597 94.1467 37.1491 93.5534 37.1491ZM102.285 29.3636V30.7557H97.8949V29.3636H102.285ZM98.9787 27.5341H100.778V34.7031C100.778 34.9451 100.815 35.1307 100.888 35.2599C100.964 35.3859 101.063 35.4721 101.186 35.5185C101.309 35.5649 101.445 35.5881 101.594 35.5881C101.706 35.5881 101.809 35.5798 101.902 35.5632C101.998 35.5466 102.071 35.5317 102.121 35.5185L102.424 36.9254C102.328 36.9586 102.19 36.995 102.011 37.0348C101.836 37.0746 101.62 37.0978 101.365 37.1044C100.914 37.1177 100.508 37.0497 100.147 36.9006C99.7857 36.7481 99.4991 36.5128 99.2869 36.1946C99.0781 35.8764 98.9754 35.4787 98.9787 35.0014V27.5341ZM105.987 37.1541C105.503 37.1541 105.068 37.0679 104.68 36.8956C104.295 36.7199 103.99 36.4614 103.765 36.12C103.543 35.7786 103.432 35.3577 103.432 34.8572C103.432 34.4264 103.512 34.0701 103.671 33.7884C103.83 33.5066 104.047 33.2812 104.322 33.1122C104.597 32.9432 104.907 32.8156 105.252 32.7294C105.6 32.6399 105.959 32.5753 106.33 32.5355C106.778 32.4891 107.141 32.4477 107.419 32.4112C107.698 32.3714 107.9 32.3118 108.026 32.2322C108.155 32.1494 108.22 32.0218 108.22 31.8494V31.8196C108.22 31.4451 108.109 31.1551 107.887 30.9496C107.664 30.7441 107.345 30.6413 106.927 30.6413C106.486 30.6413 106.137 30.7375 105.878 30.9297C105.623 31.1219 105.45 31.349 105.361 31.6108L103.681 31.3722C103.813 30.9081 104.032 30.5204 104.337 30.2088C104.642 29.8939 105.015 29.6586 105.455 29.5028C105.896 29.3438 106.383 29.2642 106.917 29.2642C107.285 29.2642 107.651 29.3073 108.016 29.3935C108.38 29.4796 108.713 29.6222 109.015 29.821C109.317 30.0166 109.559 30.2834 109.741 30.6214C109.927 30.9595 110.019 31.3821 110.019 31.8892V37H108.289V35.951H108.23C108.12 36.1631 107.966 36.362 107.767 36.5476C107.572 36.7299 107.325 36.8774 107.026 36.9901C106.731 37.0994 106.385 37.1541 105.987 37.1541ZM106.455 35.8317C106.816 35.8317 107.129 35.7604 107.394 35.6179C107.66 35.4721 107.863 35.2798 108.006 35.0412C108.152 34.8026 108.225 34.5424 108.225 34.2607V33.3608C108.168 33.4072 108.072 33.4503 107.936 33.4901C107.804 33.5298 107.655 33.5646 107.489 33.5945C107.323 33.6243 107.159 33.6508 106.997 33.674C106.834 33.6972 106.693 33.7171 106.574 33.7337C106.306 33.7701 106.065 33.8298 105.853 33.9126C105.641 33.9955 105.474 34.1115 105.351 34.2607C105.228 34.4065 105.167 34.5954 105.167 34.8274C105.167 35.1589 105.288 35.4091 105.53 35.5781C105.772 35.7472 106.08 35.8317 106.455 35.8317ZM111.829 37V29.3636H113.629V37H111.829ZM112.734 28.2798C112.449 28.2798 112.204 28.1854 111.998 27.9964C111.793 27.8042 111.69 27.5739 111.69 27.3054C111.69 27.0336 111.793 26.8033 111.998 26.6143C112.204 26.4221 112.449 26.326 112.734 26.326C113.022 26.326 113.267 26.4221 113.47 26.6143C113.675 26.8033 113.778 27.0336 113.778 27.3054C113.778 27.5739 113.675 27.8042 113.47 27.9964C113.267 28.1854 113.022 28.2798 112.734 28.2798ZM117.279 26.8182V37H115.479V26.8182H117.279ZM125.165 31.3821L123.525 31.5611C123.478 31.3954 123.397 31.2396 123.281 31.0938C123.168 30.9479 123.016 30.8303 122.824 30.7408C122.631 30.6513 122.396 30.6065 122.118 30.6065C121.743 30.6065 121.428 30.6877 121.173 30.8501C120.921 31.0125 120.797 31.223 120.8 31.4815C120.797 31.7036 120.878 31.8842 121.044 32.0234C121.213 32.1626 121.491 32.277 121.879 32.3665L123.182 32.6449C123.904 32.8007 124.441 33.0476 124.792 33.3857C125.147 33.7237 125.326 34.1662 125.329 34.7131C125.326 35.1937 125.185 35.6179 124.907 35.9858C124.632 36.3504 124.249 36.6354 123.758 36.8409C123.268 37.0464 122.704 37.1491 122.068 37.1491C121.133 37.1491 120.381 36.9536 119.811 36.5625C119.241 36.1681 118.901 35.6196 118.792 34.9169L120.547 34.7479C120.626 35.0926 120.795 35.3527 121.054 35.5284C121.312 35.7041 121.649 35.7919 122.063 35.7919C122.491 35.7919 122.834 35.7041 123.092 35.5284C123.354 35.3527 123.485 35.1357 123.485 34.8771C123.485 34.6584 123.4 34.4777 123.231 34.3352C123.066 34.1927 122.807 34.0833 122.456 34.0071L121.153 33.7337C120.421 33.5812 119.879 33.3243 119.528 32.9631C119.176 32.5985 119.002 32.1378 119.006 31.581C119.002 31.1103 119.13 30.7027 119.388 30.358C119.65 30.0099 120.013 29.7415 120.477 29.5526C120.944 29.3603 121.483 29.2642 122.093 29.2642C122.988 29.2642 123.692 29.4548 124.206 29.8359C124.723 30.2171 125.043 30.7325 125.165 31.3821Z" fill="#111827"/>
<mask id="path-2-inside-1_55127_16304" fill="white">
<path d="M0 44H668V264H0V44Z"/>
</mask>
<path d="M668 264V263H0V264V265H668V264Z" fill="#E9EEF4" mask="url(#path-2-inside-1_55127_16304)"/>
<g clip-path="url(#clip1_55127_16304)">
<mask id="path-6-inside-2_55127_16304" fill="white">
<path d="M20 64H648V104H20V64Z"/>
</mask>
<path d="M20 64H648V104H20V64Z" fill="#F9FAFB"/>
<path d="M648 104V103H20V104V105H648V104Z" fill="#E9EEF4" mask="url(#path-6-inside-2_55127_16304)"/>
<mask id="path-8-inside-3_55127_16304" fill="white">
<path d="M20 64H334V104H20V64Z"/>
</mask>
<path d="M334 64H333V104H334H335V64H334Z" fill="#E9EEF4" mask="url(#path-8-inside-3_55127_16304)"/>
<path d="M38.6719 81.4929C38.6188 81.0223 38.4001 80.6577 38.0156 80.3991C37.6312 80.1373 37.1473 80.0064 36.5639 80.0064C36.1463 80.0064 35.785 80.0727 35.4801 80.2053C35.1752 80.3345 34.9382 80.5135 34.7692 80.7422C34.6035 80.9676 34.5206 81.2244 34.5206 81.5128C34.5206 81.7547 34.5769 81.9635 34.6896 82.1392C34.8056 82.3149 34.9564 82.4624 35.142 82.5817C35.331 82.6977 35.5331 82.7955 35.7486 82.875C35.964 82.9512 36.1712 83.0142 36.37 83.0639L37.3643 83.3224C37.6892 83.402 38.0223 83.5097 38.3636 83.6456C38.705 83.7815 39.0215 83.9605 39.3132 84.1825C39.6049 84.4046 39.8402 84.6797 40.0192 85.0078C40.2015 85.3359 40.2926 85.7287 40.2926 86.1861C40.2926 86.7628 40.1435 87.2749 39.8452 87.7223C39.5502 88.1697 39.121 88.5227 38.5575 88.7812C37.9974 89.0398 37.3196 89.169 36.5241 89.169C35.7618 89.169 35.1023 89.0481 34.5455 88.8061C33.9886 88.5642 33.5528 88.2211 33.2379 87.777C32.9231 87.3295 32.7491 86.7992 32.7159 86.1861H34.2571C34.2869 86.554 34.4063 86.8606 34.6151 87.1058C34.8272 87.3478 35.0973 87.5284 35.4254 87.6477C35.7569 87.7637 36.1198 87.8217 36.5142 87.8217C36.9484 87.8217 37.3345 87.7538 37.6726 87.6179C38.014 87.4787 38.2824 87.2865 38.478 87.0412C38.6735 86.7926 38.7713 86.5026 38.7713 86.1712C38.7713 85.8696 38.6851 85.6226 38.5128 85.4304C38.3438 85.2382 38.1134 85.0791 37.8217 84.9531C37.5334 84.8272 37.2069 84.7161 36.8423 84.62L35.6392 84.2919C34.8239 84.0698 34.1776 83.7434 33.7003 83.3125C33.2263 82.8816 32.9893 82.3116 32.9893 81.6023C32.9893 81.0156 33.1484 80.5036 33.4666 80.0661C33.7848 79.6286 34.2157 79.2888 34.7592 79.0469C35.3028 78.8016 35.916 78.679 36.5987 78.679C37.2881 78.679 37.8963 78.8 38.4233 79.0419C38.9536 79.2839 39.3712 79.617 39.6761 80.0412C39.9811 80.4621 40.1402 80.946 40.1534 81.4929H38.6719ZM45.2257 89.1541C44.5098 89.1541 43.885 88.9901 43.3514 88.6619C42.8178 88.3338 42.4035 87.8748 42.1085 87.2848C41.8135 86.6948 41.666 86.0054 41.666 85.2166C41.666 84.4245 41.8135 83.7318 42.1085 83.1385C42.4035 82.5452 42.8178 82.0845 43.3514 81.7564C43.885 81.4283 44.5098 81.2642 45.2257 81.2642C45.9416 81.2642 46.5663 81.4283 47.1 81.7564C47.6336 82.0845 48.0479 82.5452 48.3429 83.1385C48.6378 83.7318 48.7853 84.4245 48.7853 85.2166C48.7853 86.0054 48.6378 86.6948 48.3429 87.2848C48.0479 87.8748 47.6336 88.3338 47.1 88.6619C46.5663 88.9901 45.9416 89.1541 45.2257 89.1541ZM45.2306 87.9062C45.6947 87.9062 46.0791 87.7836 46.3841 87.5384C46.689 87.2931 46.9144 86.9666 47.0602 86.5589C47.2093 86.1513 47.2839 85.7022 47.2839 85.2116C47.2839 84.7244 47.2093 84.277 47.0602 83.8693C46.9144 83.4583 46.689 83.1286 46.3841 82.88C46.0791 82.6314 45.6947 82.5071 45.2306 82.5071C44.7633 82.5071 44.3755 82.6314 44.0673 82.88C43.7624 83.1286 43.5353 83.4583 43.3862 83.8693C43.2404 84.277 43.1674 84.7244 43.1674 85.2116C43.1674 85.7022 43.2404 86.1513 43.3862 86.5589C43.5353 86.9666 43.7624 87.2931 44.0673 87.5384C44.3755 87.7836 44.7633 87.9062 45.2306 87.9062ZM51.9311 78.8182V89H50.4446V78.8182H51.9311ZM53.9309 89V81.3636H55.4174V89H53.9309ZM54.6816 80.1854C54.4231 80.1854 54.2011 80.0992 54.0154 79.9268C53.8332 79.7512 53.742 79.5424 53.742 79.3004C53.742 79.0552 53.8332 78.8464 54.0154 78.674C54.2011 78.4983 54.4231 78.4105 54.6816 78.4105C54.9402 78.4105 55.1606 78.4983 55.3429 78.674C55.5285 78.8464 55.6213 79.0552 55.6213 79.3004C55.6213 79.5424 55.5285 79.7512 55.3429 79.9268C55.1606 80.0992 54.9402 80.1854 54.6816 80.1854ZM60.6339 89.1541C59.8948 89.1541 59.2584 88.9867 58.7248 88.652C58.1945 88.3139 57.7868 87.8482 57.5018 87.255C57.2167 86.6617 57.0742 85.9822 57.0742 85.2166C57.0742 84.4411 57.2201 83.7566 57.5117 83.1634C57.8034 82.5668 58.2144 82.1011 58.7447 81.7663C59.275 81.4316 59.8997 81.2642 60.619 81.2642C61.199 81.2642 61.716 81.3719 62.1701 81.5874C62.6242 81.7995 62.9904 82.0978 63.2688 82.4822C63.5505 82.8667 63.7179 83.3158 63.771 83.8295H62.3242C62.2447 83.4716 62.0624 83.1634 61.7773 82.9048C61.4956 82.6463 61.1178 82.517 60.6438 82.517C60.2295 82.517 59.8666 82.6264 59.555 82.8452C59.2468 83.0606 59.0065 83.3688 58.8342 83.7699C58.6618 84.1676 58.5756 84.6383 58.5756 85.1818C58.5756 85.7386 58.6602 86.2192 58.8292 86.6236C58.9982 87.0279 59.2369 87.3411 59.5451 87.5632C59.8567 87.7853 60.2229 87.8963 60.6438 87.8963C60.9255 87.8963 61.1808 87.8449 61.4094 87.7422C61.6415 87.6361 61.8353 87.4853 61.9911 87.2898C62.1502 87.0942 62.2612 86.8589 62.3242 86.5838H63.771C63.7179 87.0777 63.5572 87.5185 63.2887 87.9062C63.0202 88.294 62.6606 88.599 62.2099 88.821C61.7624 89.0431 61.2371 89.1541 60.6339 89.1541ZM65.3606 89V81.3636H66.8471V89H65.3606ZM66.1113 80.1854C65.8528 80.1854 65.6307 80.0992 65.4451 79.9268C65.2628 79.7512 65.1717 79.5424 65.1717 79.3004C65.1717 79.0552 65.2628 78.8464 65.4451 78.674C65.6307 78.4983 65.8528 78.4105 66.1113 78.4105C66.3699 78.4105 66.5903 78.4983 66.7725 78.674C66.9582 78.8464 67.051 79.0552 67.051 79.3004C67.051 79.5424 66.9582 79.7512 66.7725 79.9268C66.5903 80.0992 66.3699 80.1854 66.1113 80.1854ZM72.4116 81.3636V82.5568H68.2404V81.3636H72.4116ZM69.359 79.5341H70.8455V86.7578C70.8455 87.0462 70.8886 87.2633 70.9748 87.4091C71.061 87.5516 71.172 87.6494 71.3079 87.7024C71.4471 87.7521 71.5979 87.777 71.7603 87.777C71.8796 87.777 71.984 87.7687 72.0735 87.7521C72.163 87.7356 72.2326 87.7223 72.2823 87.7124L72.5508 88.9403C72.4646 88.9735 72.342 89.0066 72.1829 89.0398C72.0238 89.0762 71.8249 89.0961 71.5863 89.0994C71.1952 89.1061 70.8306 89.0365 70.4925 88.8906C70.1545 88.7448 69.881 88.5194 69.6722 88.2145C69.4634 87.9096 69.359 87.5268 69.359 87.0661V79.5341ZM77.1905 89.1541C76.4746 89.1541 75.8498 88.9901 75.3162 88.6619C74.7826 88.3338 74.3683 87.8748 74.0733 87.2848C73.7783 86.6948 73.6309 86.0054 73.6309 85.2166C73.6309 84.4245 73.7783 83.7318 74.0733 83.1385C74.3683 82.5452 74.7826 82.0845 75.3162 81.7564C75.8498 81.4283 76.4746 81.2642 77.1905 81.2642C77.9064 81.2642 78.5312 81.4283 79.0648 81.7564C79.5984 82.0845 80.0127 82.5452 80.3077 83.1385C80.6027 83.7318 80.7502 84.4245 80.7502 85.2166C80.7502 86.0054 80.6027 86.6948 80.3077 87.2848C80.0127 87.8748 79.5984 88.3338 79.0648 88.6619C78.5312 88.9901 77.9064 89.1541 77.1905 89.1541ZM77.1955 87.9062C77.6595 87.9062 78.044 87.7836 78.3489 87.5384C78.6538 87.2931 78.8792 86.9666 79.025 86.5589C79.1742 86.1513 79.2488 85.7022 79.2488 85.2116C79.2488 84.7244 79.1742 84.277 79.025 83.8693C78.8792 83.4583 78.6538 83.1286 78.3489 82.88C78.044 82.6314 77.6595 82.5071 77.1955 82.5071C76.7282 82.5071 76.3404 82.6314 76.0321 82.88C75.7272 83.1286 75.5002 83.4583 75.351 83.8693C75.2052 84.277 75.1323 84.7244 75.1323 85.2116C75.1323 85.7022 75.2052 86.1513 75.351 86.5589C75.5002 86.9666 75.7272 87.2931 76.0321 87.5384C76.3404 87.7836 76.7282 87.9062 77.1955 87.9062ZM82.4094 89V81.3636H83.8462V82.5767H83.9258C84.065 82.1657 84.3103 81.8426 84.6616 81.6072C85.0162 81.3686 85.4173 81.2493 85.8647 81.2493C85.9575 81.2493 86.0669 81.2526 86.1928 81.2592C86.3221 81.2659 86.4232 81.2741 86.4961 81.2841V82.706C86.4364 82.6894 86.3304 82.6712 86.1779 82.6513C86.0254 82.6281 85.873 82.6165 85.7205 82.6165C85.3692 82.6165 85.056 82.6911 84.7809 82.8402C84.5091 82.986 84.2937 83.1899 84.1346 83.4517C83.9755 83.7102 83.896 84.0052 83.896 84.3366V89H82.4094ZM91.6069 89V78.8182H93.0934V82.6016H93.1829C93.2691 82.4425 93.3933 82.2585 93.5558 82.0497C93.7182 81.8409 93.9435 81.6586 94.2319 81.5028C94.5202 81.3438 94.9014 81.2642 95.3754 81.2642C95.9918 81.2642 96.542 81.42 97.0259 81.7315C97.5098 82.0431 97.8893 82.4922 98.1644 83.0788C98.4428 83.6655 98.582 84.3714 98.582 85.1967C98.582 86.022 98.4445 86.7296 98.1694 87.3196C97.8943 87.9062 97.5165 88.3587 97.0359 88.6768C96.5553 88.9917 96.0067 89.1491 95.3903 89.1491C94.9263 89.1491 94.5468 89.0713 94.2518 88.9155C93.9601 88.7597 93.7314 88.5774 93.5657 88.3686C93.4 88.1598 93.2724 87.9742 93.1829 87.8118H93.0586V89H91.6069ZM93.0636 85.1818C93.0636 85.7187 93.1415 86.1894 93.2972 86.5938C93.453 86.9981 93.6784 87.3146 93.9734 87.5433C94.2683 87.7687 94.6296 87.8814 95.0572 87.8814C95.5013 87.8814 95.8725 87.7637 96.1708 87.5284C96.4691 87.2898 96.6945 86.9666 96.8469 86.5589C97.0027 86.1513 97.0806 85.6922 97.0806 85.1818C97.0806 84.678 97.0044 84.2256 96.8519 83.8246C96.7028 83.4235 96.4774 83.107 96.1758 82.875C95.8775 82.643 95.5046 82.527 95.0572 82.527C94.6263 82.527 94.2617 82.638 93.9634 82.8601C93.6684 83.0821 93.4447 83.392 93.2923 83.7898C93.1398 84.1875 93.0636 84.6515 93.0636 85.1818ZM102.474 89.169C101.99 89.169 101.552 89.0795 101.161 88.9006C100.77 88.7183 100.46 88.4548 100.231 88.1101C100.006 87.7654 99.8933 87.3428 99.8933 86.8423C99.8933 86.4115 99.9761 86.0568 100.142 85.7784C100.308 85.5 100.531 85.2796 100.813 85.1172C101.095 84.9548 101.41 84.8321 101.758 84.7493C102.106 84.6664 102.46 84.6035 102.822 84.5604C103.279 84.5073 103.65 84.4643 103.935 84.4311C104.22 84.3946 104.427 84.3366 104.557 84.2571C104.686 84.1776 104.751 84.0483 104.751 83.8693V83.8345C104.751 83.4003 104.628 83.0639 104.383 82.8253C104.141 82.5866 103.779 82.4673 103.299 82.4673C102.798 82.4673 102.404 82.5784 102.116 82.8004C101.831 83.0192 101.633 83.2628 101.524 83.5312L100.127 83.2131C100.293 82.7491 100.535 82.3745 100.853 82.0895C101.174 81.8011 101.544 81.5923 101.961 81.4631C102.379 81.3305 102.818 81.2642 103.279 81.2642C103.584 81.2642 103.907 81.3007 104.248 81.3736C104.593 81.4432 104.915 81.5724 105.213 81.7614C105.515 81.9503 105.761 82.2204 105.954 82.5717C106.146 82.9197 106.242 83.3722 106.242 83.929V89H104.79V87.956H104.731C104.635 88.1482 104.49 88.3371 104.298 88.5227C104.106 88.7083 103.859 88.8625 103.557 88.9851C103.256 89.1077 102.894 89.169 102.474 89.169ZM102.797 87.9759C103.208 87.9759 103.559 87.8946 103.851 87.7322C104.146 87.5698 104.369 87.3577 104.522 87.0959C104.678 86.8307 104.756 86.5473 104.756 86.2457V85.2614C104.702 85.3144 104.6 85.3641 104.447 85.4105C104.298 85.4536 104.127 85.4917 103.935 85.5249C103.743 85.5547 103.556 85.5829 103.373 85.6094C103.191 85.6326 103.039 85.6525 102.916 85.669C102.628 85.7055 102.364 85.7668 102.126 85.853C101.89 85.9392 101.701 86.0634 101.559 86.2259C101.42 86.3849 101.35 86.5971 101.35 86.8622C101.35 87.2301 101.486 87.5085 101.758 87.6974C102.029 87.883 102.376 87.9759 102.797 87.9759ZM109.708 84.4659V89H108.222V81.3636H109.649V82.6065H109.743C109.919 82.2022 110.194 81.8774 110.569 81.6321C110.946 81.3868 111.422 81.2642 111.995 81.2642C112.516 81.2642 112.971 81.3736 113.363 81.5923C113.754 81.8078 114.057 82.1293 114.272 82.5568C114.488 82.9844 114.596 83.513 114.596 84.1428V89H113.109V84.3217C113.109 83.7682 112.965 83.3357 112.676 83.0241C112.388 82.7093 111.992 82.5518 111.488 82.5518C111.144 82.5518 110.837 82.6264 110.569 82.7756C110.303 82.9247 110.093 83.1435 109.937 83.4318C109.785 83.7169 109.708 84.0616 109.708 84.4659ZM117.956 86.4098L117.946 84.5952H118.205L121.248 81.3636H123.027L119.557 85.0426H119.324L117.956 86.4098ZM116.589 89V78.8182H118.076V89H116.589ZM121.412 89L118.677 85.3707L119.701 84.3317L123.236 89H121.412ZM130.946 89.1491C130.329 89.1491 129.779 88.9917 129.295 88.6768C128.815 88.3587 128.437 87.9062 128.162 87.3196C127.89 86.7296 127.754 86.022 127.754 85.1967C127.754 84.3714 127.892 83.6655 128.167 83.0788C128.445 82.4922 128.826 82.0431 129.31 81.7315C129.794 81.42 130.343 81.2642 130.956 81.2642C131.43 81.2642 131.811 81.3438 132.099 81.5028C132.391 81.6586 132.616 81.8409 132.775 82.0497C132.938 82.2585 133.064 82.4425 133.153 82.6016H133.243V78.8182H134.729V89H133.278V87.8118H133.153C133.064 87.9742 132.934 88.1598 132.765 88.3686C132.6 88.5774 132.371 88.7597 132.079 88.9155C131.788 89.0713 131.41 89.1491 130.946 89.1491ZM131.274 87.8814C131.702 87.8814 132.063 87.7687 132.358 87.5433C132.656 87.3146 132.881 86.9981 133.034 86.5938C133.19 86.1894 133.268 85.7187 133.268 85.1818C133.268 84.6515 133.191 84.1875 133.039 83.7898C132.886 83.392 132.663 83.0821 132.368 82.8601C132.073 82.638 131.708 82.527 131.274 82.527C130.827 82.527 130.454 82.643 130.155 82.875C129.857 83.107 129.632 83.4235 129.479 83.8246C129.33 84.2256 129.256 84.678 129.256 85.1818C129.256 85.6922 129.332 86.1513 129.484 86.5589C129.637 86.9666 129.862 87.2898 130.16 87.5284C130.462 87.7637 130.833 87.8814 131.274 87.8814ZM140.142 89.1541C139.39 89.1541 138.742 88.9934 138.198 88.6719C137.658 88.3471 137.24 87.8913 136.945 87.3047C136.654 86.7147 136.508 86.0237 136.508 85.2315C136.508 84.4493 136.654 83.7599 136.945 83.1634C137.24 82.5668 137.651 82.1011 138.178 81.7663C138.709 81.4316 139.328 81.2642 140.038 81.2642C140.469 81.2642 140.886 81.3355 141.29 81.478C141.695 81.6205 142.058 81.8442 142.379 82.1491C142.701 82.4541 142.954 82.8501 143.14 83.3374C143.326 83.8213 143.418 84.4096 143.418 85.1023V85.6293H137.348V84.5156H141.962C141.962 84.1245 141.882 83.7782 141.723 83.4766C141.564 83.1716 141.34 82.9313 141.052 82.7557C140.767 82.58 140.432 82.4922 140.048 82.4922C139.63 82.4922 139.265 82.5949 138.954 82.8004C138.646 83.0026 138.407 83.2678 138.238 83.5959C138.072 83.9207 137.989 84.2737 137.989 84.6548V85.5249C137.989 86.0353 138.079 86.4695 138.258 86.8274C138.44 87.1854 138.694 87.4588 139.018 87.6477C139.343 87.8333 139.723 87.9261 140.157 87.9261C140.439 87.9261 140.696 87.8864 140.928 87.8068C141.16 87.724 141.36 87.6013 141.529 87.4389C141.698 87.2765 141.827 87.076 141.917 86.8374L143.324 87.0909C143.211 87.5052 143.009 87.8681 142.717 88.1797C142.429 88.4879 142.066 88.7282 141.629 88.9006C141.194 89.0696 140.699 89.1541 140.142 89.1541ZM148.632 81.3636V82.5568H144.461V81.3636H148.632ZM145.58 79.5341H147.066V86.7578C147.066 87.0462 147.109 87.2633 147.195 87.4091C147.282 87.5516 147.393 87.6494 147.529 87.7024C147.668 87.7521 147.819 87.777 147.981 87.777C148.1 87.777 148.205 87.7687 148.294 87.7521C148.384 87.7356 148.453 87.7223 148.503 87.7124L148.771 88.9403C148.685 88.9735 148.563 89.0066 148.404 89.0398C148.244 89.0762 148.046 89.0961 147.807 89.0994C147.416 89.1061 147.051 89.0365 146.713 88.8906C146.375 88.7448 146.102 88.5194 145.893 88.2145C145.684 87.9096 145.58 87.5268 145.58 87.0661V79.5341ZM152.499 89.169C152.015 89.169 151.578 89.0795 151.186 88.9006C150.795 88.7183 150.485 88.4548 150.257 88.1101C150.031 87.7654 149.919 87.3428 149.919 86.8423C149.919 86.4115 150.002 86.0568 150.167 85.7784C150.333 85.5 150.557 85.2796 150.838 85.1172C151.12 84.9548 151.435 84.8321 151.783 84.7493C152.131 84.6664 152.486 84.6035 152.847 84.5604C153.304 84.5073 153.676 84.4643 153.961 84.4311C154.246 84.3946 154.453 84.3366 154.582 84.2571C154.711 84.1776 154.776 84.0483 154.776 83.8693V83.8345C154.776 83.4003 154.653 83.0639 154.408 82.8253C154.166 82.5866 153.805 82.4673 153.324 82.4673C152.824 82.4673 152.429 82.5784 152.141 82.8004C151.856 83.0192 151.659 83.2628 151.549 83.5312L150.152 83.2131C150.318 82.7491 150.56 82.3745 150.878 82.0895C151.2 81.8011 151.569 81.5923 151.987 81.4631C152.404 81.3305 152.844 81.2642 153.304 81.2642C153.609 81.2642 153.932 81.3007 154.274 81.3736C154.618 81.4432 154.94 81.5724 155.238 81.7614C155.54 81.9503 155.787 82.2204 155.979 82.5717C156.171 82.9197 156.267 83.3722 156.267 83.929V89H154.816V87.956H154.756C154.66 88.1482 154.516 88.3371 154.324 88.5227C154.131 88.7083 153.884 88.8625 153.583 88.9851C153.281 89.1077 152.92 89.169 152.499 89.169ZM152.822 87.9759C153.233 87.9759 153.584 87.8946 153.876 87.7322C154.171 87.5698 154.395 87.3577 154.547 87.0959C154.703 86.8307 154.781 86.5473 154.781 86.2457V85.2614C154.728 85.3144 154.625 85.3641 154.473 85.4105C154.324 85.4536 154.153 85.4917 153.961 85.5249C153.768 85.5547 153.581 85.5829 153.399 85.6094C153.217 85.6326 153.064 85.6525 152.941 85.669C152.653 85.7055 152.39 85.7668 152.151 85.853C151.916 85.9392 151.727 86.0634 151.584 86.2259C151.445 86.3849 151.375 86.5971 151.375 86.8622C151.375 87.2301 151.511 87.5085 151.783 87.6974C152.055 87.883 152.401 87.9759 152.822 87.9759ZM158.247 89V81.3636H159.734V89H158.247ZM158.998 80.1854C158.74 80.1854 158.517 80.0992 158.332 79.9268C158.15 79.7512 158.058 79.5424 158.058 79.3004C158.058 79.0552 158.15 78.8464 158.332 78.674C158.517 78.4983 158.74 78.4105 158.998 78.4105C159.257 78.4105 159.477 78.4983 159.659 78.674C159.845 78.8464 159.938 79.0552 159.938 79.3004C159.938 79.5424 159.845 79.7512 159.659 79.9268C159.477 80.0992 159.257 80.1854 158.998 80.1854ZM163.22 78.8182V89H161.734V78.8182H163.22ZM170.942 83.228L169.595 83.4666C169.539 83.2943 169.449 83.1302 169.327 82.9744C169.207 82.8187 169.045 82.6911 168.839 82.5916C168.634 82.4922 168.377 82.4425 168.069 82.4425C167.648 82.4425 167.296 82.5369 167.015 82.7259C166.733 82.9115 166.592 83.1518 166.592 83.4467C166.592 83.7019 166.687 83.9074 166.876 84.0632C167.064 84.219 167.369 84.3466 167.79 84.446L169.003 84.7244C169.706 84.8868 170.23 85.1371 170.574 85.4751C170.919 85.8132 171.091 86.2524 171.091 86.7926C171.091 87.25 170.959 87.6577 170.694 88.0156C170.432 88.3703 170.066 88.6487 169.595 88.8509C169.128 89.053 168.586 89.1541 167.969 89.1541C167.114 89.1541 166.416 88.9718 165.876 88.6072C165.336 88.2393 165.005 87.7173 164.882 87.0412L166.319 86.8224C166.408 87.197 166.592 87.4804 166.871 87.6726C167.149 87.8615 167.512 87.956 167.959 87.956C168.447 87.956 168.836 87.8549 169.128 87.6527C169.419 87.4472 169.565 87.197 169.565 86.902C169.565 86.6634 169.476 86.4628 169.297 86.3004C169.121 86.138 168.851 86.0154 168.486 85.9325L167.194 85.6491C166.481 85.4867 165.954 85.2282 165.613 84.8736C165.275 84.5189 165.106 84.0698 165.106 83.5263C165.106 83.0755 165.232 82.6811 165.483 82.343C165.735 82.005 166.083 81.7415 166.528 81.5526C166.972 81.3603 167.48 81.2642 168.054 81.2642C168.879 81.2642 169.529 81.4432 170.003 81.8011C170.477 82.1558 170.79 82.6314 170.942 83.228Z" fill="#111827"/>
<path d="M350.634 78.8182V89H349.401V80.1108H349.341L346.855 81.7614V80.5085L349.401 78.8182H350.634ZM353.562 89V88.1051L356.923 84.4261C357.317 83.9953 357.642 83.6207 357.897 83.3026C358.152 82.9811 358.341 82.6795 358.464 82.3977C358.59 82.1127 358.653 81.8144 358.653 81.5028C358.653 81.1449 358.567 80.835 358.394 80.5732C358.225 80.3113 357.993 80.1091 357.698 79.9666C357.403 79.8241 357.072 79.7528 356.704 79.7528C356.313 79.7528 355.971 79.834 355.68 79.9964C355.391 80.1555 355.168 80.3793 355.009 80.6676C354.853 80.956 354.775 81.294 354.775 81.6818H353.602C353.602 81.0852 353.739 80.5616 354.014 80.1108C354.289 79.66 354.664 79.3087 355.138 79.0568C355.615 78.8049 356.15 78.679 356.744 78.679C357.34 78.679 357.869 78.8049 358.33 79.0568C358.79 79.3087 359.152 79.6484 359.413 80.076C359.675 80.5036 359.806 80.9792 359.806 81.5028C359.806 81.8774 359.738 82.2436 359.602 82.6016C359.47 82.9562 359.238 83.3523 358.906 83.7898C358.578 84.224 358.122 84.7543 357.539 85.3807L355.252 87.8267V87.9062H359.985V89H353.562ZM366.433 83.3622V84.456H361.979V83.3622H366.433ZM367.999 89V88.1051L371.36 84.4261C371.754 83.9953 372.079 83.6207 372.335 83.3026C372.59 82.9811 372.779 82.6795 372.901 82.3977C373.027 82.1127 373.09 81.8144 373.09 81.5028C373.09 81.1449 373.004 80.835 372.832 80.5732C372.663 80.3113 372.431 80.1091 372.136 79.9666C371.841 79.8241 371.509 79.7528 371.141 79.7528C370.75 79.7528 370.409 79.834 370.117 79.9964C369.829 80.1555 369.605 80.3793 369.446 80.6676C369.29 80.956 369.212 81.294 369.212 81.6818H368.039C368.039 81.0852 368.177 80.5616 368.452 80.1108C368.727 79.66 369.101 79.3087 369.575 79.0568C370.053 78.8049 370.588 78.679 371.181 78.679C371.778 78.679 372.306 78.8049 372.767 79.0568C373.228 79.3087 373.589 79.6484 373.851 80.076C374.113 80.5036 374.244 80.9792 374.244 81.5028C374.244 81.8774 374.176 82.2436 374.04 82.6016C373.907 82.9562 373.675 83.3523 373.344 83.7898C373.016 84.224 372.56 84.7543 371.977 85.3807L369.69 87.8267V87.9062H374.423V89H367.999ZM379.916 89.1392C379.26 89.1392 378.675 89.0265 378.161 88.8011C377.651 88.5758 377.245 88.2625 376.943 87.8615C376.645 87.4571 376.482 86.9882 376.456 86.4545H377.709C377.735 86.7827 377.848 87.0661 378.047 87.3047C378.246 87.54 378.506 87.7223 378.827 87.8516C379.149 87.9808 379.505 88.0455 379.896 88.0455C380.334 88.0455 380.722 87.9692 381.06 87.8168C381.398 87.6643 381.663 87.4522 381.855 87.1804C382.047 86.9086 382.143 86.5938 382.143 86.2358C382.143 85.8613 382.051 85.5315 381.865 85.2464C381.679 84.9581 381.408 84.7327 381.05 84.5703C380.692 84.4079 380.254 84.3267 379.737 84.3267H378.922V83.233H379.737C380.142 83.233 380.496 83.16 380.801 83.0142C381.109 82.8684 381.35 82.6629 381.522 82.3977C381.698 82.1326 381.786 81.821 381.786 81.4631C381.786 81.1184 381.709 80.8184 381.557 80.5632C381.404 80.308 381.189 80.1091 380.911 79.9666C380.635 79.8241 380.311 79.7528 379.936 79.7528C379.585 79.7528 379.253 79.8175 378.942 79.9467C378.634 80.0727 378.382 80.2566 378.186 80.4986C377.991 80.7372 377.884 81.0256 377.868 81.3636H376.675C376.695 80.83 376.855 80.3627 377.157 79.9616C377.459 79.5573 377.853 79.2424 378.34 79.017C378.831 78.7917 379.369 78.679 379.956 78.679C380.586 78.679 381.126 78.8066 381.577 79.0618C382.027 79.3137 382.374 79.6468 382.616 80.0611C382.858 80.4754 382.979 80.9228 382.979 81.4034C382.979 81.9768 382.828 82.4657 382.526 82.87C382.228 83.2744 381.822 83.5545 381.308 83.7102V83.7898C381.951 83.8958 382.453 84.1693 382.815 84.6101C383.176 85.0476 383.357 85.5895 383.357 86.2358C383.357 86.7893 383.206 87.2865 382.904 87.7273C382.606 88.1648 382.198 88.5095 381.681 88.7614C381.164 89.0133 380.576 89.1392 379.916 89.1392ZM389.785 83.3622V84.456H385.33V83.3622H389.785ZM391.591 86.9119V85.8977L396.065 78.8182H396.801V80.3892H396.304L392.923 85.7386V85.8182H398.949V86.9119H391.591ZM396.383 89V86.6037V86.1314V78.8182H397.557V89H396.383ZM403.994 89.1392C403.41 89.1392 402.885 89.0232 402.418 88.7912C401.95 88.5592 401.576 88.241 401.294 87.8366C401.012 87.4323 400.858 86.9716 400.832 86.4545H402.025C402.071 86.9152 402.28 87.2964 402.651 87.598C403.026 87.8963 403.473 88.0455 403.994 88.0455C404.411 88.0455 404.782 87.9477 405.107 87.7521C405.435 87.5566 405.692 87.2881 405.878 86.9467C406.067 86.602 406.161 86.2126 406.161 85.7784C406.161 85.3343 406.063 84.9382 405.868 84.5902C405.676 84.2389 405.411 83.9621 405.072 83.7599C404.734 83.5578 404.348 83.455 403.914 83.4517C403.603 83.4484 403.283 83.4964 402.955 83.5959C402.626 83.692 402.356 83.8163 402.144 83.9688L400.991 83.8295L401.607 78.8182H406.897V79.9119H402.641L402.283 82.9148H402.343C402.552 82.7491 402.814 82.6115 403.129 82.5021C403.443 82.3928 403.772 82.3381 404.113 82.3381C404.736 82.3381 405.291 82.4872 405.778 82.7855C406.269 83.0805 406.653 83.4848 406.932 83.9986C407.214 84.5123 407.354 85.099 407.354 85.7585C407.354 86.4081 407.209 86.9882 406.917 87.4986C406.629 88.0057 406.231 88.4067 405.724 88.7017C405.217 88.9934 404.64 89.1392 403.994 89.1392ZM416.846 78.8182V89H415.613V80.1108H415.554L413.068 81.7614V80.5085L415.613 78.8182H416.846ZM419.775 89V88.1051L423.135 84.4261C423.53 83.9953 423.855 83.6207 424.11 83.3026C424.365 82.9811 424.554 82.6795 424.677 82.3977C424.803 82.1127 424.866 81.8144 424.866 81.5028C424.866 81.1449 424.779 80.835 424.607 80.5732C424.438 80.3113 424.206 80.1091 423.911 79.9666C423.616 79.8241 423.285 79.7528 422.917 79.7528C422.526 79.7528 422.184 79.834 421.893 79.9964C421.604 80.1555 421.381 80.3793 421.221 80.6676C421.066 80.956 420.988 81.294 420.988 81.6818H419.814C419.814 81.0852 419.952 80.5616 420.227 80.1108C420.502 79.66 420.877 79.3087 421.351 79.0568C421.828 78.8049 422.363 78.679 422.956 78.679C423.553 78.679 424.082 78.8049 424.542 79.0568C425.003 79.3087 425.364 79.6484 425.626 80.076C425.888 80.5036 426.019 80.9792 426.019 81.5028C426.019 81.8774 425.951 82.2436 425.815 82.6016C425.683 82.9562 425.451 83.3523 425.119 83.7898C424.791 84.224 424.335 84.7543 423.752 85.3807L421.465 87.8267V87.9062H426.198V89H419.775ZM431.692 89.1392C431.035 89.1392 430.45 89.0265 429.937 88.8011C429.426 88.5758 429.02 88.2625 428.719 87.8615C428.42 87.4571 428.258 86.9882 428.231 86.4545H429.484C429.511 86.7827 429.623 87.0661 429.822 87.3047C430.021 87.54 430.281 87.7223 430.603 87.8516C430.924 87.9808 431.281 88.0455 431.672 88.0455C432.109 88.0455 432.497 87.9692 432.835 87.8168C433.173 87.6643 433.438 87.4522 433.631 87.1804C433.823 86.9086 433.919 86.5938 433.919 86.2358C433.919 85.8613 433.826 85.5315 433.64 85.2464C433.455 84.9581 433.183 84.7327 432.825 84.5703C432.467 84.4079 432.03 84.3267 431.513 84.3267H430.697V83.233H431.513C431.917 83.233 432.272 83.16 432.577 83.0142C432.885 82.8684 433.125 82.6629 433.297 82.3977C433.473 82.1326 433.561 81.821 433.561 81.4631C433.561 81.1184 433.485 80.8184 433.332 80.5632C433.18 80.308 432.964 80.1091 432.686 79.9666C432.411 79.8241 432.086 79.7528 431.711 79.7528C431.36 79.7528 431.029 79.8175 430.717 79.9467C430.409 80.0727 430.157 80.2566 429.961 80.4986C429.766 80.7372 429.66 81.0256 429.643 81.3636H428.45C428.47 80.83 428.631 80.3627 428.932 79.9616C429.234 79.5573 429.628 79.2424 430.116 79.017C430.606 78.7917 431.145 78.679 431.731 78.679C432.361 78.679 432.901 78.8066 433.352 79.0618C433.803 79.3137 434.149 79.6468 434.391 80.0611C434.633 80.4754 434.754 80.9228 434.754 81.4034C434.754 81.9768 434.603 82.4657 434.302 82.87C434.003 83.2744 433.597 83.5545 433.084 83.7102V83.7898C433.727 83.8958 434.229 84.1693 434.59 84.6101C434.951 85.0476 435.132 85.5895 435.132 86.2358C435.132 86.7893 434.981 87.2865 434.68 87.7273C434.381 88.1648 433.974 88.5095 433.456 88.7614C432.939 89.0133 432.351 89.1392 431.692 89.1392ZM436.927 86.9119V85.8977L441.401 78.8182H442.137V80.3892H441.64L438.259 85.7386V85.8182H444.285V86.9119H436.927ZM441.719 89V86.6037V86.1314V78.8182H442.893V89H441.719ZM449.33 89.1392C448.746 89.1392 448.221 89.0232 447.754 88.7912C447.286 88.5592 446.912 88.241 446.63 87.8366C446.348 87.4323 446.194 86.9716 446.168 86.4545H447.361C447.407 86.9152 447.616 87.2964 447.987 87.598C448.362 87.8963 448.809 88.0455 449.33 88.0455C449.747 88.0455 450.118 87.9477 450.443 87.7521C450.771 87.5566 451.028 87.2881 451.214 86.9467C451.403 86.602 451.497 86.2126 451.497 85.7784C451.497 85.3343 451.399 84.9382 451.204 84.5902C451.012 84.2389 450.746 83.9621 450.408 83.7599C450.07 83.5578 449.684 83.455 449.25 83.4517C448.938 83.4484 448.619 83.4964 448.29 83.5959C447.962 83.692 447.692 83.8163 447.48 83.9688L446.327 83.8295L446.943 78.8182H452.233V79.9119H447.977L447.619 82.9148H447.679C447.888 82.7491 448.15 82.6115 448.464 82.5021C448.779 82.3928 449.107 82.3381 449.449 82.3381C450.072 82.3381 450.627 82.4872 451.114 82.7855C451.605 83.0805 451.989 83.4848 452.268 83.9986C452.549 84.5123 452.69 85.099 452.69 85.7585C452.69 86.4081 452.545 86.9882 452.253 87.4986C451.964 88.0057 451.567 88.4067 451.06 88.7017C450.553 88.9934 449.976 89.1392 449.33 89.1392ZM458.046 89.1392C457.628 89.1326 457.211 89.053 456.793 88.9006C456.376 88.7481 455.994 88.4912 455.65 88.13C455.305 87.7654 455.028 87.2732 454.819 86.6534C454.611 86.0303 454.506 85.2481 454.506 84.3068C454.506 83.4053 454.591 82.6065 454.76 81.9105C454.929 81.2112 455.174 80.6229 455.496 80.1456C455.817 79.665 456.205 79.3004 456.659 79.0518C457.116 78.8033 457.632 78.679 458.205 78.679C458.775 78.679 459.282 78.7933 459.726 79.022C460.174 79.2474 460.538 79.5623 460.82 79.9666C461.102 80.371 461.284 80.8366 461.367 81.3636H460.154C460.041 80.9062 459.823 80.5268 459.498 80.2251C459.173 79.9235 458.742 79.7727 458.205 79.7727C457.416 79.7727 456.795 80.1158 456.341 80.8018C455.89 81.4879 455.663 82.4508 455.66 83.6903H455.739C455.925 83.4086 456.145 83.1683 456.4 82.9695C456.659 82.7673 456.944 82.6115 457.256 82.5021C457.567 82.3928 457.897 82.3381 458.245 82.3381C458.828 82.3381 459.362 82.4839 459.846 82.7756C460.33 83.0639 460.717 83.4633 461.009 83.9737C461.301 84.4808 461.447 85.0625 461.447 85.7188C461.447 86.3485 461.306 86.9252 461.024 87.4489C460.742 87.9692 460.346 88.3835 459.836 88.6918C459.329 88.9967 458.732 89.1458 458.046 89.1392ZM458.046 88.0455C458.464 88.0455 458.838 87.9411 459.17 87.7322C459.504 87.5234 459.768 87.2434 459.96 86.892C460.156 86.5407 460.253 86.1496 460.253 85.7188C460.253 85.2978 460.159 84.915 459.97 84.5703C459.784 84.2223 459.528 83.9455 459.199 83.7401C458.875 83.5346 458.503 83.4318 458.086 83.4318C457.771 83.4318 457.478 83.4948 457.206 83.6207C456.934 83.7434 456.695 83.9124 456.49 84.1278C456.288 84.3433 456.129 84.5902 456.013 84.8686C455.897 85.1437 455.839 85.4337 455.839 85.7386C455.839 86.143 455.933 86.5208 456.122 86.8722C456.314 87.2235 456.576 87.5069 456.907 87.7223C457.242 87.9377 457.622 88.0455 458.046 88.0455ZM463.72 89L468.274 79.9915V79.9119H463.024V78.8182H469.547V79.9716L465.012 89H463.72ZM474.456 89.1392C473.773 89.1392 473.17 89.0182 472.646 88.7763C472.126 88.531 471.72 88.1946 471.428 87.767C471.137 87.3362 470.992 86.8456 470.996 86.2955C470.992 85.8646 471.077 85.4669 471.249 85.1023C471.422 84.7344 471.657 84.4278 471.955 84.1825C472.257 83.9339 472.593 83.7765 472.964 83.7102V83.6506C472.477 83.5246 472.089 83.2512 471.801 82.8303C471.513 82.406 471.37 81.9238 471.374 81.3835C471.37 80.8665 471.501 80.4041 471.766 79.9964C472.031 79.5888 472.396 79.2673 472.86 79.032C473.327 78.7966 473.859 78.679 474.456 78.679C475.046 78.679 475.573 78.7966 476.037 79.032C476.501 79.2673 476.866 79.5888 477.131 79.9964C477.399 80.4041 477.535 80.8665 477.538 81.3835C477.535 81.9238 477.388 82.406 477.096 82.8303C476.808 83.2512 476.425 83.5246 475.947 83.6506V83.7102C476.315 83.7765 476.647 83.9339 476.942 84.1825C477.237 84.4278 477.472 84.7344 477.648 85.1023C477.823 85.4669 477.913 85.8646 477.916 86.2955C477.913 86.8456 477.764 87.3362 477.469 87.767C477.177 88.1946 476.771 88.531 476.251 88.7763C475.734 89.0182 475.135 89.1392 474.456 89.1392ZM474.456 88.0455C474.917 88.0455 475.314 87.9709 475.649 87.8217C475.984 87.6726 476.242 87.4621 476.425 87.1903C476.607 86.9186 476.7 86.6004 476.703 86.2358C476.7 85.8513 476.6 85.5116 476.405 85.2166C476.209 84.9216 475.942 84.6896 475.604 84.5206C475.27 84.3516 474.887 84.267 474.456 84.267C474.022 84.267 473.634 84.3516 473.293 84.5206C472.955 84.6896 472.688 84.9216 472.492 85.2166C472.3 85.5116 472.205 85.8513 472.209 86.2358C472.205 86.6004 472.293 86.9186 472.472 87.1903C472.655 87.4621 472.915 87.6726 473.253 87.8217C473.591 87.9709 473.992 88.0455 474.456 88.0455ZM474.456 83.2131C474.821 83.2131 475.144 83.1402 475.425 82.9943C475.71 82.8485 475.934 82.6446 476.097 82.3828C476.259 82.121 476.342 81.8144 476.345 81.4631C476.342 81.1184 476.261 80.8184 476.102 80.5632C475.942 80.3047 475.722 80.1058 475.44 79.9666C475.159 79.8241 474.83 79.7528 474.456 79.7528C474.075 79.7528 473.742 79.8241 473.457 79.9666C473.172 80.1058 472.951 80.3047 472.795 80.5632C472.64 80.8184 472.563 81.1184 472.567 81.4631C472.563 81.8144 472.641 82.121 472.8 82.3828C472.963 82.6446 473.187 82.8485 473.472 82.9943C473.757 83.1402 474.085 83.2131 474.456 83.2131Z" fill="#111827"/>
<mask id="path-12-inside-4_55127_16304" fill="white">
<path d="M20 104H648V144H20V104Z"/>
</mask>
<path d="M20 104H648V144H20V104Z" fill="#F9FAFB"/>
<path d="M648 144V143H20V144V145H648V144Z" fill="#E9EEF4" mask="url(#path-12-inside-4_55127_16304)"/>
<mask id="path-14-inside-5_55127_16304" fill="white">
<path d="M20 104H334V144H20V104Z"/>
</mask>
<path d="M334 104H333V144H334H335V104H334Z" fill="#E9EEF4" mask="url(#path-14-inside-5_55127_16304)"/>
<path d="M33.1186 129V118.818H36.7479C37.5367 118.818 38.1913 118.954 38.7116 119.226C39.2353 119.498 39.6264 119.874 39.8849 120.354C40.1435 120.832 40.2727 121.384 40.2727 122.01C40.2727 122.633 40.1418 123.182 39.88 123.656C39.6214 124.126 39.2304 124.492 38.7067 124.754C38.1863 125.016 37.5317 125.147 36.7429 125.147H33.9936V123.825H36.6037C37.1009 123.825 37.5052 123.753 37.8168 123.611C38.1316 123.468 38.362 123.261 38.5078 122.989C38.6536 122.718 38.7266 122.391 38.7266 122.01C38.7266 121.625 38.652 121.292 38.5028 121.011C38.357 120.729 38.1267 120.513 37.8118 120.364C37.5002 120.212 37.0909 120.136 36.5838 120.136H34.6548V129H33.1186ZM38.1449 124.406L40.6605 129H38.9105L36.4446 124.406H38.1449ZM45.2182 129.154C44.4658 129.154 43.8179 128.993 43.2743 128.672C42.7341 128.347 42.3165 127.891 42.0215 127.305C41.7298 126.715 41.584 126.024 41.584 125.232C41.584 124.449 41.7298 123.76 42.0215 123.163C42.3165 122.567 42.7275 122.101 43.2544 121.766C43.7847 121.432 44.4045 121.264 45.1138 121.264C45.5447 121.264 45.9623 121.335 46.3667 121.478C46.771 121.621 47.1339 121.844 47.4554 122.149C47.7769 122.454 48.0305 122.85 48.2161 123.337C48.4017 123.821 48.4945 124.41 48.4945 125.102V125.629H42.4242V124.516H47.0378C47.0378 124.125 46.9583 123.778 46.7992 123.477C46.6401 123.172 46.4164 122.931 46.128 122.756C45.843 122.58 45.5082 122.492 45.1238 122.492C44.7061 122.492 44.3416 122.595 44.03 122.8C43.7218 123.003 43.4831 123.268 43.3141 123.596C43.1484 123.921 43.0655 124.274 43.0655 124.655V125.525C43.0655 126.035 43.155 126.469 43.334 126.827C43.5163 127.185 43.7698 127.459 44.0946 127.648C44.4194 127.833 44.7989 127.926 45.2331 127.926C45.5149 127.926 45.7717 127.886 46.0037 127.807C46.2357 127.724 46.4363 127.601 46.6053 127.439C46.7743 127.277 46.9036 127.076 46.9931 126.837L48.4 127.091C48.2873 127.505 48.0852 127.868 47.7935 128.18C47.5051 128.488 47.1422 128.728 46.7047 128.901C46.2705 129.07 45.775 129.154 45.2182 129.154ZM53.7781 121.364V122.557H49.4627V121.364H53.7781ZM50.646 129V120.479C50.646 120.001 50.7504 119.605 50.9592 119.29C51.168 118.972 51.4447 118.735 51.7894 118.58C52.1341 118.42 52.5086 118.341 52.913 118.341C53.2113 118.341 53.4665 118.366 53.6786 118.415C53.8907 118.462 54.0482 118.505 54.1509 118.545L53.8029 119.748C53.7333 119.728 53.6438 119.705 53.5344 119.678C53.4251 119.648 53.2925 119.634 53.1367 119.634C52.7754 119.634 52.5169 119.723 52.3612 119.902C52.2087 120.081 52.1325 120.339 52.1325 120.678V129H50.646ZM58.3022 129.154C57.5498 129.154 56.9019 128.993 56.3583 128.672C55.8181 128.347 55.4004 127.891 55.1055 127.305C54.8138 126.715 54.668 126.024 54.668 125.232C54.668 124.449 54.8138 123.76 55.1055 123.163C55.4004 122.567 55.8114 122.101 56.3384 121.766C56.8687 121.432 57.4885 121.264 58.1978 121.264C58.6287 121.264 59.0463 121.335 59.4506 121.478C59.855 121.621 60.2179 121.844 60.5394 122.149C60.8609 122.454 61.1145 122.85 61.3001 123.337C61.4857 123.821 61.5785 124.41 61.5785 125.102V125.629H55.5082V124.516H60.1218C60.1218 124.125 60.0423 123.778 59.8832 123.477C59.7241 123.172 59.5004 122.931 59.212 122.756C58.927 122.58 58.5922 122.492 58.2077 122.492C57.7901 122.492 57.4255 122.595 57.114 122.8C56.8058 123.003 56.5671 123.268 56.3981 123.596C56.2324 123.921 56.1495 124.274 56.1495 124.655V125.525C56.1495 126.035 56.239 126.469 56.418 126.827C56.6003 127.185 56.8538 127.459 57.1786 127.648C57.5034 127.833 57.8829 127.926 58.3171 127.926C58.5988 127.926 58.8557 127.886 59.0877 127.807C59.3197 127.724 59.5202 127.601 59.6893 127.439C59.8583 127.277 59.9876 127.076 60.0771 126.837L61.484 127.091C61.3713 127.505 61.1692 127.868 60.8775 128.18C60.5891 128.488 60.2262 128.728 59.7887 128.901C59.3545 129.07 58.859 129.154 58.3022 129.154ZM63.2278 129V121.364H64.6646V122.577H64.7441C64.8833 122.166 65.1286 121.843 65.4799 121.607C65.8346 121.369 66.2356 121.249 66.6831 121.249C66.7759 121.249 66.8852 121.253 67.0112 121.259C67.1404 121.266 67.2415 121.274 67.3145 121.284V122.706C67.2548 122.689 67.1487 122.671 66.9963 122.651C66.8438 122.628 66.6913 122.616 66.5389 122.616C66.1876 122.616 65.8743 122.691 65.5993 122.84C65.3275 122.986 65.112 123.19 64.9529 123.452C64.7939 123.71 64.7143 124.005 64.7143 124.337V129H63.2278ZM71.6186 129.154C70.8662 129.154 70.2183 128.993 69.6747 128.672C69.1345 128.347 68.7169 127.891 68.4219 127.305C68.1302 126.715 67.9844 126.024 67.9844 125.232C67.9844 124.449 68.1302 123.76 68.4219 123.163C68.7169 122.567 69.1278 122.101 69.6548 121.766C70.1851 121.432 70.8049 121.264 71.5142 121.264C71.9451 121.264 72.3627 121.335 72.767 121.478C73.1714 121.621 73.5343 121.844 73.8558 122.149C74.1773 122.454 74.4309 122.85 74.6165 123.337C74.8021 123.821 74.8949 124.41 74.8949 125.102V125.629H68.8246V124.516H73.4382C73.4382 124.125 73.3587 123.778 73.1996 123.477C73.0405 123.172 72.8168 122.931 72.5284 122.756C72.2434 122.58 71.9086 122.492 71.5241 122.492C71.1065 122.492 70.742 122.595 70.4304 122.8C70.1222 123.003 69.8835 123.268 69.7145 123.596C69.5488 123.921 69.4659 124.274 69.4659 124.655V125.525C69.4659 126.035 69.5554 126.469 69.7344 126.827C69.9167 127.185 70.1702 127.459 70.495 127.648C70.8198 127.833 71.1993 127.926 71.6335 127.926C71.9152 127.926 72.1721 127.886 72.4041 127.807C72.6361 127.724 72.8366 127.601 73.0057 127.439C73.1747 127.277 73.304 127.076 73.3935 126.837L74.8004 127.091C74.6877 127.505 74.4856 127.868 74.1939 128.18C73.9055 128.488 73.5426 128.728 73.1051 128.901C72.6709 129.07 72.1754 129.154 71.6186 129.154ZM78.0307 124.466V129H76.5442V121.364H77.9711V122.607H78.0655C78.2412 122.202 78.5163 121.877 78.8908 121.632C79.2686 121.387 79.7443 121.264 80.3176 121.264C80.838 121.264 81.2937 121.374 81.6848 121.592C82.0759 121.808 82.3792 122.129 82.5946 122.557C82.8101 122.984 82.9178 123.513 82.9178 124.143V129H81.4313V124.322C81.4313 123.768 81.2871 123.336 80.9988 123.024C80.7104 122.709 80.3143 122.552 79.8105 122.552C79.4658 122.552 79.1593 122.626 78.8908 122.776C78.6257 122.925 78.4152 123.143 78.2594 123.432C78.1069 123.717 78.0307 124.062 78.0307 124.466ZM88.128 129.154C87.3889 129.154 86.7525 128.987 86.2189 128.652C85.6886 128.314 85.281 127.848 84.9959 127.255C84.7109 126.662 84.5684 125.982 84.5684 125.217C84.5684 124.441 84.7142 123.757 85.0059 123.163C85.2975 122.567 85.7085 122.101 86.2388 121.766C86.7691 121.432 87.3939 121.264 88.1131 121.264C88.6931 121.264 89.2102 121.372 89.6642 121.587C90.1183 121.799 90.4846 122.098 90.763 122.482C91.0447 122.867 91.2121 123.316 91.2651 123.83H89.8184C89.7388 123.472 89.5565 123.163 89.2715 122.905C88.9898 122.646 88.6119 122.517 88.138 122.517C87.7237 122.517 87.3607 122.626 87.0492 122.845C86.7409 123.061 86.5007 123.369 86.3283 123.77C86.156 124.168 86.0698 124.638 86.0698 125.182C86.0698 125.739 86.1543 126.219 86.3233 126.624C86.4924 127.028 86.731 127.341 87.0392 127.563C87.3508 127.785 87.717 127.896 88.138 127.896C88.4197 127.896 88.6749 127.845 88.9036 127.742C89.1356 127.636 89.3295 127.485 89.4853 127.29C89.6444 127.094 89.7554 126.859 89.8184 126.584H91.2651C91.2121 127.078 91.0513 127.518 90.7828 127.906C90.5144 128.294 90.1548 128.599 89.704 128.821C89.2566 129.043 88.7312 129.154 88.128 129.154ZM96.146 129.154C95.3936 129.154 94.7456 128.993 94.2021 128.672C93.6618 128.347 93.2442 127.891 92.9492 127.305C92.6576 126.715 92.5117 126.024 92.5117 125.232C92.5117 124.449 92.6576 123.76 92.9492 123.163C93.2442 122.567 93.6552 122.101 94.1822 121.766C94.7125 121.432 95.3323 121.264 96.0415 121.264C96.4724 121.264 96.89 121.335 97.2944 121.478C97.6987 121.621 98.0617 121.844 98.3832 122.149C98.7047 122.454 98.9582 122.85 99.1438 123.337C99.3294 123.821 99.4222 124.41 99.4222 125.102V125.629H93.3519V124.516H97.9656C97.9656 124.125 97.886 123.778 97.7269 123.477C97.5678 123.172 97.3441 122.931 97.0558 122.756C96.7707 122.58 96.436 122.492 96.0515 122.492C95.6339 122.492 95.2693 122.595 94.9577 122.8C94.6495 123.003 94.4109 123.268 94.2418 123.596C94.0761 123.921 93.9933 124.274 93.9933 124.655V125.525C93.9933 126.035 94.0827 126.469 94.2617 126.827C94.444 127.185 94.6976 127.459 95.0224 127.648C95.3472 127.833 95.7267 127.926 96.1609 127.926C96.4426 127.926 96.6995 127.886 96.9315 127.807C97.1635 127.724 97.364 127.601 97.533 127.439C97.7021 127.277 97.8313 127.076 97.9208 126.837L99.3278 127.091C99.2151 127.505 99.0129 127.868 98.7212 128.18C98.4329 128.488 98.07 128.728 97.6325 128.901C97.1983 129.07 96.7028 129.154 96.146 129.154Z" fill="#111827"/>
<path d="M347.83 118.818L350.455 123.054H350.534L353.159 118.818H354.611L351.409 123.909L354.611 129H353.159L350.534 124.844H350.455L347.83 129H346.378L349.659 123.909L346.378 118.818H347.83ZM355.34 118.818H356.752L359.576 123.571H359.695L362.519 118.818H363.931L360.252 124.804V129H359.019V124.804L355.34 118.818ZM365.188 129V128.105L370.676 119.912H365.128V118.818H372.148V119.713L366.659 127.906H372.208V129H365.188Z" fill="#111827"/>
<mask id="path-18-inside-6_55127_16304" fill="white">
<path d="M20 144H648V184H20V144Z"/>
</mask>
<path d="M20 144H648V184H20V144Z" fill="#F9FAFB"/>
<path d="M648 184V183H20V184V185H648V184Z" fill="#E9EEF4" mask="url(#path-18-inside-6_55127_16304)"/>
<mask id="path-20-inside-7_55127_16304" fill="white">
<path d="M20 144H334V184H20V144Z"/>
</mask>
<path d="M334 144H333V184H334H335V144H334Z" fill="#E9EEF4" mask="url(#path-20-inside-7_55127_16304)"/>
<path d="M33.9787 169H32.348L36.0121 158.818H37.7869L41.451 169H39.8203L36.9418 160.668H36.8622L33.9787 169ZM34.2521 165.013H39.5419V166.305H34.2521V165.013ZM42.802 169V161.364H44.2289V162.607H44.3233C44.4824 162.186 44.7426 161.857 45.1039 161.622C45.4651 161.384 45.8977 161.264 46.4015 161.264C46.9119 161.264 47.3394 161.384 47.6841 161.622C48.0321 161.861 48.289 162.189 48.4547 162.607H48.5343C48.7166 162.199 49.0066 161.874 49.4043 161.632C49.802 161.387 50.276 161.264 50.8262 161.264C51.5189 161.264 52.084 161.481 52.5215 161.915C52.9623 162.35 53.1827 163.004 53.1827 163.879V169H51.6962V164.018C51.6962 163.501 51.5553 163.127 51.2736 162.895C50.9919 162.663 50.6555 162.547 50.2644 162.547C49.7805 162.547 49.4043 162.696 49.1358 162.994C48.8674 163.289 48.7331 163.669 48.7331 164.133V169H47.2516V163.924C47.2516 163.51 47.1223 163.177 46.8638 162.925C46.6053 162.673 46.2689 162.547 45.8546 162.547C45.5729 162.547 45.3127 162.621 45.074 162.771C44.8387 162.916 44.6481 163.12 44.5023 163.382C44.3598 163.644 44.2885 163.947 44.2885 164.292V169H42.802ZM58.3917 169.154C57.6758 169.154 57.051 168.99 56.5174 168.662C55.9838 168.334 55.5695 167.875 55.2745 167.285C54.9795 166.695 54.832 166.005 54.832 165.217C54.832 164.424 54.9795 163.732 55.2745 163.138C55.5695 162.545 55.9838 162.085 56.5174 161.756C57.051 161.428 57.6758 161.264 58.3917 161.264C59.1076 161.264 59.7324 161.428 60.266 161.756C60.7996 162.085 61.2139 162.545 61.5089 163.138C61.8039 163.732 61.9513 164.424 61.9513 165.217C61.9513 166.005 61.8039 166.695 61.5089 167.285C61.2139 167.875 60.7996 168.334 60.266 168.662C59.7324 168.99 59.1076 169.154 58.3917 169.154ZM58.3967 167.906C58.8607 167.906 59.2451 167.784 59.5501 167.538C59.855 167.293 60.0804 166.967 60.2262 166.559C60.3754 166.151 60.4499 165.702 60.4499 165.212C60.4499 164.724 60.3754 164.277 60.2262 163.869C60.0804 163.458 59.855 163.129 59.5501 162.88C59.2451 162.631 58.8607 162.507 58.3967 162.507C57.9293 162.507 57.5415 162.631 57.2333 162.88C56.9284 163.129 56.7013 163.458 56.5522 163.869C56.4064 164.277 56.3335 164.724 56.3335 165.212C56.3335 165.702 56.4064 166.151 56.5522 166.559C56.7013 166.967 56.9284 167.293 57.2333 167.538C57.5415 167.784 57.9293 167.906 58.3967 167.906ZM68.448 165.833V161.364H69.9395V169H68.4778V167.678H68.3983C68.2226 168.085 67.9409 168.425 67.5531 168.697C67.1686 168.965 66.6897 169.099 66.1163 169.099C65.6258 169.099 65.1916 168.992 64.8137 168.776C64.4392 168.558 64.1442 168.234 63.9288 167.807C63.7167 167.379 63.6106 166.851 63.6106 166.221V161.364H65.0971V166.042C65.0971 166.562 65.2413 166.977 65.5297 167.285C65.818 167.593 66.1925 167.747 66.6532 167.747C66.9316 167.747 67.2084 167.678 67.4835 167.538C67.7619 167.399 67.9922 167.189 68.1745 166.907C68.3601 166.625 68.4513 166.267 68.448 165.833ZM73.4233 164.466V169H71.9368V161.364H73.3636V162.607H73.4581C73.6338 162.202 73.9089 161.877 74.2834 161.632C74.6612 161.387 75.1368 161.264 75.7102 161.264C76.2306 161.264 76.6863 161.374 77.0774 161.592C77.4685 161.808 77.7718 162.129 77.9872 162.557C78.2027 162.984 78.3104 163.513 78.3104 164.143V169H76.8239V164.322C76.8239 163.768 76.6797 163.336 76.3913 163.024C76.103 162.709 75.7069 162.552 75.2031 162.552C74.8584 162.552 74.5518 162.626 74.2834 162.776C74.0182 162.925 73.8078 163.143 73.652 163.432C73.4995 163.717 73.4233 164.062 73.4233 164.466ZM83.8686 161.364V162.557H79.6974V161.364H83.8686ZM80.8161 159.534H82.3026V166.758C82.3026 167.046 82.3456 167.263 82.4318 167.409C82.518 167.552 82.629 167.649 82.7649 167.702C82.9041 167.752 83.0549 167.777 83.2173 167.777C83.3366 167.777 83.4411 167.769 83.5305 167.752C83.62 167.736 83.6896 167.722 83.7393 167.712L84.0078 168.94C83.9216 168.973 83.799 169.007 83.6399 169.04C83.4808 169.076 83.282 169.096 83.0433 169.099C82.6522 169.106 82.2876 169.036 81.9496 168.891C81.6115 168.745 81.3381 168.519 81.1293 168.214C80.9205 167.91 80.8161 167.527 80.8161 167.066V159.534Z" fill="#111827"/>
<path d="M353.656 169H346.915V167.906H353.656V169ZM351.509 165.043H346.875V163.909H351.509V165.043ZM349.043 161.901L349.202 166.216C349.222 166.634 349.183 167.02 349.087 167.374C348.995 167.726 348.814 167.996 348.545 168.185L347.312 167.906C347.511 167.906 347.664 167.807 347.77 167.608C347.876 167.409 347.947 167.177 347.984 166.912C348.02 166.647 348.035 166.415 348.028 166.216L347.889 161.901C347.863 161.178 347.994 160.578 348.282 160.101C348.574 159.624 348.955 159.267 349.425 159.032C349.899 158.797 350.395 158.679 350.912 158.679C351.386 158.679 351.817 158.765 352.205 158.938C352.592 159.107 352.919 159.335 353.184 159.624C353.449 159.912 353.635 160.237 353.741 160.598C353.847 160.956 353.852 161.324 353.756 161.702L352.602 161.384C352.649 161.039 352.596 160.747 352.443 160.509C352.294 160.267 352.085 160.084 351.817 159.962C351.552 159.836 351.27 159.773 350.972 159.773C350.653 159.773 350.347 159.849 350.052 160.001C349.757 160.151 349.515 160.383 349.326 160.697C349.137 161.009 349.043 161.41 349.043 161.901ZM359.326 169.139C358.67 169.139 358.085 169.027 357.571 168.801C357.061 168.576 356.655 168.263 356.353 167.862C356.055 167.457 355.893 166.988 355.866 166.455H357.119C357.145 166.783 357.258 167.066 357.457 167.305C357.656 167.54 357.916 167.722 358.238 167.852C358.559 167.981 358.915 168.045 359.306 168.045C359.744 168.045 360.132 167.969 360.47 167.817C360.808 167.664 361.073 167.452 361.265 167.18C361.458 166.909 361.554 166.594 361.554 166.236C361.554 165.861 361.461 165.531 361.275 165.246C361.09 164.958 360.818 164.733 360.46 164.57C360.102 164.408 359.664 164.327 359.147 164.327H358.332V163.233H359.147C359.552 163.233 359.906 163.16 360.211 163.014C360.52 162.868 360.76 162.663 360.932 162.398C361.108 162.133 361.196 161.821 361.196 161.463C361.196 161.118 361.119 160.818 360.967 160.563C360.815 160.308 360.599 160.109 360.321 159.967C360.046 159.824 359.721 159.753 359.346 159.753C358.995 159.753 358.663 159.817 358.352 159.947C358.044 160.073 357.792 160.257 357.596 160.499C357.401 160.737 357.295 161.026 357.278 161.364H356.085C356.105 160.83 356.266 160.363 356.567 159.962C356.869 159.557 357.263 159.242 357.75 159.017C358.241 158.792 358.779 158.679 359.366 158.679C359.996 158.679 360.536 158.807 360.987 159.062C361.438 159.314 361.784 159.647 362.026 160.061C362.268 160.475 362.389 160.923 362.389 161.403C362.389 161.977 362.238 162.466 361.936 162.87C361.638 163.274 361.232 163.554 360.718 163.71V163.79C361.361 163.896 361.864 164.169 362.225 164.61C362.586 165.048 362.767 165.589 362.767 166.236C362.767 166.789 362.616 167.286 362.314 167.727C362.016 168.165 361.608 168.509 361.091 168.761C360.574 169.013 359.986 169.139 359.326 169.139ZM368.121 169.139C367.372 169.139 366.734 168.935 366.207 168.528C365.68 168.117 365.277 167.522 364.999 166.743C364.721 165.961 364.581 165.016 364.581 163.909C364.581 162.809 364.721 161.869 364.999 161.09C365.281 160.308 365.685 159.711 366.212 159.3C366.742 158.886 367.379 158.679 368.121 158.679C368.864 158.679 369.498 158.886 370.025 159.3C370.556 159.711 370.96 160.308 371.238 161.09C371.52 161.869 371.661 162.809 371.661 163.909C371.661 165.016 371.522 165.961 371.243 166.743C370.965 167.522 370.562 168.117 370.035 168.528C369.508 168.935 368.87 169.139 368.121 169.139ZM368.121 168.045C368.864 168.045 369.44 167.687 369.851 166.972C370.262 166.256 370.468 165.235 370.468 163.909C370.468 163.027 370.373 162.277 370.184 161.657C369.999 161.037 369.73 160.565 369.379 160.24C369.031 159.915 368.612 159.753 368.121 159.753C367.385 159.753 366.81 160.116 366.396 160.842C365.982 161.564 365.775 162.587 365.775 163.909C365.775 164.791 365.867 165.54 366.053 166.156C366.239 166.773 366.505 167.242 366.853 167.563C367.205 167.885 367.627 168.045 368.121 168.045ZM373.595 169L378.149 159.991V159.912H372.899V158.818H379.422V159.972L374.887 169H373.595ZM381.295 167.608L381.215 168.145C381.159 168.523 381.073 168.927 380.956 169.358C380.844 169.789 380.726 170.195 380.604 170.576C380.481 170.957 380.38 171.26 380.3 171.486H379.405C379.448 171.274 379.505 170.994 379.574 170.646C379.644 170.298 379.714 169.908 379.783 169.477C379.856 169.05 379.916 168.612 379.962 168.165L380.022 167.608H381.295ZM386.506 169.139C385.85 169.139 385.265 169.027 384.751 168.801C384.241 168.576 383.835 168.263 383.533 167.862C383.235 167.457 383.072 166.988 383.046 166.455H384.299C384.325 166.783 384.438 167.066 384.637 167.305C384.836 167.54 385.096 167.722 385.417 167.852C385.739 167.981 386.095 168.045 386.486 168.045C386.924 168.045 387.311 167.969 387.65 167.817C387.988 167.664 388.253 167.452 388.445 167.18C388.637 166.909 388.733 166.594 388.733 166.236C388.733 165.861 388.641 165.531 388.455 165.246C388.269 164.958 387.998 164.733 387.64 164.57C387.282 164.408 386.844 164.327 386.327 164.327H385.512V163.233H386.327C386.731 163.233 387.086 163.16 387.391 163.014C387.699 162.868 387.94 162.663 388.112 162.398C388.288 162.133 388.375 161.821 388.375 161.463C388.375 161.118 388.299 160.818 388.147 160.563C387.994 160.308 387.779 160.109 387.5 159.967C387.225 159.824 386.9 159.753 386.526 159.753C386.175 159.753 385.843 159.817 385.532 159.947C385.223 160.073 384.971 160.257 384.776 160.499C384.58 160.737 384.474 161.026 384.458 161.364H383.265C383.284 160.83 383.445 160.363 383.747 159.962C384.048 159.557 384.443 159.242 384.93 159.017C385.421 158.792 385.959 158.679 386.546 158.679C387.176 158.679 387.716 158.807 388.167 159.062C388.617 159.314 388.964 159.647 389.206 160.061C389.448 160.475 389.569 160.923 389.569 161.403C389.569 161.977 389.418 162.466 389.116 162.87C388.818 163.274 388.412 163.554 387.898 163.71V163.79C388.541 163.896 389.043 164.169 389.404 164.61C389.766 165.048 389.946 165.589 389.946 166.236C389.946 166.789 389.796 167.286 389.494 167.727C389.196 168.165 388.788 168.509 388.271 168.761C387.754 169.013 387.166 169.139 386.506 169.139ZM395.301 169.139C394.552 169.139 393.914 168.935 393.387 168.528C392.86 168.117 392.457 167.522 392.179 166.743C391.9 165.961 391.761 165.016 391.761 163.909C391.761 162.809 391.9 161.869 392.179 161.09C392.46 160.308 392.865 159.711 393.392 159.3C393.922 158.886 394.558 158.679 395.301 158.679C396.043 158.679 396.678 158.886 397.205 159.3C397.735 159.711 398.14 160.308 398.418 161.09C398.7 161.869 398.841 162.809 398.841 163.909C398.841 165.016 398.701 165.961 398.423 166.743C398.145 167.522 397.742 168.117 397.215 168.528C396.688 168.935 396.05 169.139 395.301 169.139ZM395.301 168.045C396.043 168.045 396.62 167.687 397.031 166.972C397.442 166.256 397.647 165.235 397.647 163.909C397.647 163.027 397.553 162.277 397.364 161.657C397.178 161.037 396.91 160.565 396.559 160.24C396.211 159.915 395.791 159.753 395.301 159.753C394.565 159.753 393.99 160.116 393.576 160.842C393.161 161.564 392.954 162.587 392.954 163.909C392.954 164.791 393.047 165.54 393.233 166.156C393.418 166.773 393.685 167.242 394.033 167.563C394.384 167.885 394.807 168.045 395.301 168.045ZM404.051 169.139C403.302 169.139 402.664 168.935 402.137 168.528C401.61 168.117 401.207 167.522 400.929 166.743C400.65 165.961 400.511 165.016 400.511 163.909C400.511 162.809 400.65 161.869 400.929 161.09C401.21 160.308 401.615 159.711 402.142 159.3C402.672 158.886 403.308 158.679 404.051 158.679C404.793 158.679 405.428 158.886 405.955 159.3C406.485 159.711 406.89 160.308 407.168 161.09C407.45 161.869 407.591 162.809 407.591 163.909C407.591 165.016 407.451 165.961 407.173 166.743C406.895 167.522 406.492 168.117 405.965 168.528C405.438 168.935 404.8 169.139 404.051 169.139ZM404.051 168.045C404.793 168.045 405.37 167.687 405.781 166.972C406.192 166.256 406.397 165.235 406.397 163.909C406.397 163.027 406.303 162.277 406.114 161.657C405.928 161.037 405.66 160.565 405.309 160.24C404.961 159.915 404.541 159.753 404.051 159.753C403.315 159.753 402.74 160.116 402.326 160.842C401.911 161.564 401.704 162.587 401.704 163.909C401.704 164.791 401.797 165.54 401.983 166.156C402.168 166.773 402.435 167.242 402.783 167.563C403.134 167.885 403.557 168.045 404.051 168.045ZM409.999 169.08C409.754 169.08 409.544 168.992 409.368 168.816C409.192 168.64 409.104 168.43 409.104 168.185C409.104 167.939 409.192 167.729 409.368 167.553C409.544 167.378 409.754 167.29 409.999 167.29C410.245 167.29 410.455 167.378 410.631 167.553C410.806 167.729 410.894 167.939 410.894 168.185C410.894 168.347 410.853 168.496 410.77 168.632C410.69 168.768 410.583 168.877 410.447 168.96C410.314 169.04 410.165 169.08 409.999 169.08ZM415.945 169.139C415.196 169.139 414.558 168.935 414.031 168.528C413.504 168.117 413.102 167.522 412.823 166.743C412.545 165.961 412.406 165.016 412.406 163.909C412.406 162.809 412.545 161.869 412.823 161.09C413.105 160.308 413.509 159.711 414.036 159.3C414.567 158.886 415.203 158.679 415.945 158.679C416.688 158.679 417.322 158.886 417.849 159.3C418.38 159.711 418.784 160.308 419.062 161.09C419.344 161.869 419.485 162.809 419.485 163.909C419.485 165.016 419.346 165.961 419.067 166.743C418.789 167.522 418.386 168.117 417.859 168.528C417.332 168.935 416.694 169.139 415.945 169.139ZM415.945 168.045C416.688 168.045 417.264 167.687 417.675 166.972C418.086 166.256 418.292 165.235 418.292 163.909C418.292 163.027 418.197 162.277 418.009 161.657C417.823 161.037 417.554 160.565 417.203 160.24C416.855 159.915 416.436 159.753 415.945 159.753C415.21 159.753 414.634 160.116 414.22 160.842C413.806 161.564 413.599 162.587 413.599 163.909C413.599 164.791 413.692 165.54 413.877 166.156C414.063 166.773 414.33 167.242 414.678 167.563C415.029 167.885 415.451 168.045 415.945 168.045ZM424.695 169.139C423.946 169.139 423.308 168.935 422.781 168.528C422.254 168.117 421.852 167.522 421.573 166.743C421.295 165.961 421.156 165.016 421.156 163.909C421.156 162.809 421.295 161.869 421.573 161.09C421.855 160.308 422.259 159.711 422.786 159.3C423.317 158.886 423.953 158.679 424.695 158.679C425.438 158.679 426.072 158.886 426.599 159.3C427.13 159.711 427.534 160.308 427.812 161.09C428.094 161.869 428.235 162.809 428.235 163.909C428.235 165.016 428.096 165.961 427.817 166.743C427.539 167.522 427.136 168.117 426.609 168.528C426.082 168.935 425.444 169.139 424.695 169.139ZM424.695 168.045C425.438 168.045 426.014 167.687 426.425 166.972C426.836 166.256 427.042 165.235 427.042 163.909C427.042 163.027 426.947 162.277 426.759 161.657C426.573 161.037 426.304 160.565 425.953 160.24C425.605 159.915 425.186 159.753 424.695 159.753C423.96 159.753 423.384 160.116 422.97 160.842C422.556 161.564 422.349 162.587 422.349 163.909C422.349 164.791 422.442 165.54 422.627 166.156C422.813 166.773 423.08 167.242 423.428 167.563C423.779 167.885 424.201 168.045 424.695 168.045Z" fill="#111827"/>
</g>
<rect x="20.5" y="64.5" width="627" height="119" rx="9.5" stroke="#E9EEF4"/>
<path d="M26.669 231.277C25.4995 231.277 24.4957 230.981 23.6577 230.389C22.8243 229.793 22.1828 228.933 21.733 227.811C21.2879 226.684 21.0653 225.328 21.0653 223.741C21.0701 222.155 21.295 220.806 21.7401 219.693C22.1899 218.576 22.8314 217.723 23.6648 217.136C24.5028 216.549 25.5043 216.256 26.669 216.256C27.8338 216.256 28.8352 216.549 29.6733 217.136C30.5114 217.723 31.1529 218.576 31.598 219.693C32.0478 220.811 32.2727 222.16 32.2727 223.741C32.2727 225.332 32.0478 226.691 31.598 227.818C31.1529 228.94 30.5114 229.797 29.6733 230.389C28.84 230.981 27.8385 231.277 26.669 231.277ZM26.669 229.054C27.5781 229.054 28.2955 228.607 28.821 227.712C29.3513 226.812 29.6165 225.489 29.6165 223.741C29.6165 222.586 29.4957 221.616 29.2543 220.83C29.0128 220.044 28.6719 219.452 28.2315 219.054C27.7912 218.652 27.2704 218.45 26.669 218.45C25.7647 218.45 25.0497 218.9 24.5241 219.8C23.9986 220.695 23.7334 222.009 23.7287 223.741C23.724 224.902 23.84 225.877 24.0767 226.668C24.3182 227.458 24.6591 228.055 25.0994 228.457C25.5398 228.855 26.063 229.054 26.669 229.054ZM40.0089 231.277C38.8394 231.277 37.8356 230.981 36.9975 230.389C36.1642 229.793 35.5226 228.933 35.0728 227.811C34.6277 226.684 34.4052 225.328 34.4052 223.741C34.4099 222.155 34.6348 220.806 35.0799 219.693C35.5297 218.576 36.1713 217.723 37.0046 217.136C37.8427 216.549 38.8441 216.256 40.0089 216.256C41.1737 216.256 42.1751 216.549 43.0131 217.136C43.8512 217.723 44.4928 218.576 44.9379 219.693C45.3877 220.811 45.6126 222.16 45.6126 223.741C45.6126 225.332 45.3877 226.691 44.9379 227.818C44.4928 228.94 43.8512 229.797 43.0131 230.389C42.1798 230.981 41.1784 231.277 40.0089 231.277ZM40.0089 229.054C40.918 229.054 41.6353 228.607 42.1609 227.712C42.6912 226.812 42.9563 225.489 42.9563 223.741C42.9563 222.586 42.8356 221.616 42.5941 220.83C42.3526 220.044 42.0117 219.452 41.5714 219.054C41.131 218.652 40.6102 218.45 40.0089 218.45C39.1045 218.45 38.3896 218.9 37.864 219.8C37.3384 220.695 37.0733 222.009 37.0685 223.741C37.0638 224.902 37.1798 225.877 37.4165 226.668C37.658 227.458 37.9989 228.055 38.4393 228.457C38.8796 228.855 39.4028 229.054 40.0089 229.054ZM53.022 216.256C53.718 216.26 54.3951 216.384 55.0533 216.625C55.7161 216.862 56.3127 217.25 56.843 217.79C57.3733 218.325 57.7947 219.042 58.1072 219.942C58.4197 220.841 58.576 221.954 58.576 223.28C58.5807 224.53 58.4482 225.647 58.1783 226.632C57.9131 227.612 57.532 228.441 57.0348 229.118C56.5376 229.795 55.9387 230.311 55.2379 230.666C54.5372 231.021 53.7488 231.199 52.8729 231.199C51.9543 231.199 51.1399 231.019 50.4297 230.659C49.7242 230.299 49.1536 229.807 48.718 229.182C48.2824 228.557 48.0149 227.842 47.9155 227.037H50.5078C50.6404 227.615 50.9103 228.074 51.3175 228.415C51.7294 228.751 52.2479 228.919 52.8729 228.919C53.8814 228.919 54.6579 228.481 55.2024 227.605C55.7469 226.729 56.0192 225.512 56.0192 223.955H55.9197C55.6877 224.371 55.3871 224.731 55.0178 225.034C54.6484 225.332 54.2294 225.562 53.7607 225.723C53.2966 225.884 52.8042 225.964 52.2834 225.964C51.4311 225.964 50.6641 225.761 49.9822 225.354C49.3052 224.946 48.7678 224.388 48.37 223.678C47.977 222.967 47.7782 222.155 47.7734 221.241C47.7734 220.295 47.9912 219.445 48.4268 218.692C48.8672 217.934 49.4804 217.338 50.2663 216.902C51.0523 216.462 51.9709 216.246 53.022 216.256ZM53.0291 218.386C52.5178 218.386 52.0561 218.512 51.6442 218.763C51.237 219.009 50.915 219.345 50.6783 219.771C50.4463 220.193 50.3303 220.664 50.3303 221.185C50.335 221.701 50.451 222.17 50.6783 222.591C50.9103 223.012 51.2251 223.346 51.6229 223.592C52.0253 223.839 52.4846 223.962 53.0007 223.962C53.3842 223.962 53.7417 223.888 54.0732 223.741C54.4046 223.595 54.6934 223.391 54.9396 223.131C55.1906 222.866 55.3847 222.565 55.522 222.229C55.6641 221.893 55.7327 221.537 55.728 221.163C55.728 220.666 55.6096 220.207 55.3729 219.786C55.1409 219.364 54.8213 219.026 54.4141 218.77C54.0116 218.514 53.55 218.386 53.0291 218.386ZM61.0831 231L67.2692 218.756V218.656H60.0888V216.455H69.9964V218.706L63.8175 231H61.0831ZM77.1768 231.199C76.1541 231.199 75.245 231.024 74.4496 230.673C73.6589 230.323 73.0339 229.835 72.5746 229.21C72.1153 228.585 71.8714 227.863 71.843 227.044H74.5135C74.5372 227.437 74.6674 227.78 74.9041 228.074C75.1409 228.363 75.4557 228.588 75.8487 228.749C76.2417 228.91 76.6821 228.99 77.1697 228.99C77.6906 228.99 78.1522 228.9 78.5547 228.72C78.9571 228.536 79.272 228.28 79.4993 227.953C79.7266 227.626 79.8378 227.25 79.8331 226.824C79.8378 226.384 79.7242 225.995 79.4922 225.659C79.2602 225.323 78.924 225.06 78.4837 224.871C78.0481 224.681 77.5225 224.587 76.907 224.587H75.6214V222.555H76.907C77.4136 222.555 77.8563 222.468 78.2351 222.293C78.6186 222.117 78.9193 221.871 79.1371 221.554C79.3549 221.232 79.4614 220.86 79.4567 220.439C79.4614 220.027 79.3691 219.67 79.1797 219.366C78.995 219.059 78.7322 218.82 78.3913 218.649C78.0552 218.479 77.6598 218.393 77.2053 218.393C76.7602 218.393 76.3482 218.474 75.9695 218.635C75.5907 218.796 75.2853 219.026 75.0533 219.324C74.8213 219.617 74.6982 219.968 74.6839 220.375H72.1484C72.1674 219.561 72.4018 218.846 72.8516 218.23C73.3061 217.61 73.9122 217.127 74.6697 216.781C75.4273 216.431 76.2772 216.256 77.2195 216.256C78.1901 216.256 79.0329 216.438 79.7479 216.803C80.4676 217.162 81.0239 217.648 81.4169 218.259C81.8099 218.869 82.0064 219.544 82.0064 220.283C82.0111 221.102 81.7696 221.788 81.282 222.342C80.799 222.896 80.1645 223.259 79.3786 223.429V223.543C80.4013 223.685 81.1849 224.063 81.7294 224.679C82.2786 225.29 82.5509 226.05 82.5462 226.959C82.5462 227.773 82.3142 228.502 81.8501 229.146C81.3909 229.786 80.7564 230.287 79.9467 230.652C79.1418 231.017 78.2185 231.199 77.1768 231.199ZM84.984 231V229.097L90.0337 224.146C90.5167 223.659 90.9192 223.225 91.2411 222.847C91.5631 222.468 91.8046 222.101 91.9656 221.746C92.1265 221.391 92.207 221.012 92.207 220.609C92.207 220.15 92.1029 219.757 91.8945 219.43C91.6862 219.099 91.3997 218.843 91.0352 218.663C90.6706 218.483 90.2563 218.393 89.7923 218.393C89.314 218.393 88.895 218.493 88.5352 218.692C88.1753 218.886 87.896 219.163 87.6971 219.523C87.503 219.883 87.4059 220.311 87.4059 220.808H84.8988C84.8988 219.885 85.1095 219.082 85.5309 218.401C85.9523 217.719 86.5323 217.191 87.271 216.817C88.0143 216.443 88.8666 216.256 89.8278 216.256C90.8031 216.256 91.6602 216.438 92.3988 216.803C93.1374 217.167 93.7103 217.667 94.1175 218.301C94.5295 218.936 94.7354 219.66 94.7354 220.474C94.7354 221.019 94.6313 221.554 94.4229 222.08C94.2146 222.605 93.8477 223.187 93.3221 223.827C92.8013 224.466 92.0697 225.24 91.1275 226.149L88.6204 228.699V228.798H94.9556V231H84.984Z" fill="#111827"/>
<rect x="504" y="204" width="144" height="40" rx="8" fill="#0073DE"/>
<path d="M529.822 222.254H527.963C527.91 221.949 527.812 221.679 527.669 221.443C527.527 221.205 527.349 221.002 527.137 220.837C526.925 220.671 526.683 220.547 526.411 220.464C526.143 220.378 525.853 220.335 525.541 220.335C524.988 220.335 524.497 220.474 524.07 220.752C523.642 221.027 523.308 221.432 523.066 221.965C522.824 222.496 522.703 223.143 522.703 223.909C522.703 224.688 522.824 225.344 523.066 225.878C523.311 226.408 523.646 226.809 524.07 227.081C524.497 227.349 524.986 227.484 525.536 227.484C525.841 227.484 526.126 227.444 526.392 227.364C526.66 227.281 526.9 227.161 527.112 227.001C527.328 226.842 527.509 226.647 527.654 226.415C527.804 226.183 527.906 225.918 527.963 225.619L529.822 225.629C529.752 226.113 529.602 226.567 529.37 226.991C529.141 227.416 528.841 227.79 528.47 228.115C528.099 228.437 527.664 228.688 527.167 228.871C526.67 229.05 526.118 229.139 525.512 229.139C524.617 229.139 523.818 228.932 523.115 228.518C522.413 228.103 521.859 227.505 521.455 226.723C521.05 225.941 520.848 225.003 520.848 223.909C520.848 222.812 521.052 221.874 521.46 221.095C521.867 220.313 522.423 219.715 523.125 219.3C523.828 218.886 524.623 218.679 525.512 218.679C526.078 218.679 526.605 218.759 527.093 218.918C527.58 219.077 528.014 219.31 528.395 219.619C528.776 219.924 529.09 220.298 529.335 220.742C529.583 221.183 529.746 221.687 529.822 222.254ZM534.763 229.149C534.017 229.149 533.37 228.985 532.824 228.657C532.277 228.329 531.852 227.87 531.551 227.28C531.253 226.69 531.103 226 531.103 225.212C531.103 224.423 531.253 223.732 531.551 223.138C531.852 222.545 532.277 222.085 532.824 221.756C533.37 221.428 534.017 221.264 534.763 221.264C535.508 221.264 536.155 221.428 536.701 221.756C537.248 222.085 537.671 222.545 537.969 223.138C538.271 223.732 538.422 224.423 538.422 225.212C538.422 226 538.271 226.69 537.969 227.28C537.671 227.87 537.248 228.329 536.701 228.657C536.155 228.985 535.508 229.149 534.763 229.149ZM534.772 227.707C535.177 227.707 535.515 227.596 535.787 227.374C536.058 227.149 536.261 226.847 536.393 226.469C536.529 226.092 536.597 225.671 536.597 225.207C536.597 224.739 536.529 224.317 536.393 223.939C536.261 223.558 536.058 223.254 535.787 223.029C535.515 222.804 535.177 222.691 534.772 222.691C534.358 222.691 534.013 222.804 533.738 223.029C533.467 223.254 533.263 223.558 533.127 223.939C532.994 224.317 532.928 224.739 532.928 225.207C532.928 225.671 532.994 226.092 533.127 226.469C533.263 226.847 533.467 227.149 533.738 227.374C534.013 227.596 534.358 227.707 534.772 227.707ZM541.749 224.526V229H539.949V221.364H541.669V222.661H541.759C541.934 222.234 542.215 221.894 542.599 221.642C542.987 221.39 543.466 221.264 544.036 221.264C544.563 221.264 545.022 221.377 545.413 221.602C545.807 221.828 546.112 222.154 546.328 222.582C546.546 223.009 546.654 223.528 546.651 224.138V229H544.851V224.416C544.851 223.906 544.719 223.506 544.453 223.218C544.192 222.93 543.829 222.786 543.365 222.786C543.05 222.786 542.77 222.855 542.524 222.994C542.282 223.13 542.092 223.327 541.953 223.586C541.817 223.844 541.749 224.158 541.749 224.526ZM552.348 221.364V222.756H547.834V221.364H552.348ZM548.963 229V220.643C548.963 220.129 549.069 219.701 549.281 219.36C549.496 219.019 549.785 218.763 550.146 218.594C550.507 218.425 550.908 218.341 551.349 218.341C551.661 218.341 551.937 218.366 552.179 218.415C552.421 218.465 552.6 218.51 552.716 218.55L552.358 219.942C552.282 219.919 552.186 219.895 552.07 219.872C551.954 219.846 551.825 219.832 551.682 219.832C551.347 219.832 551.11 219.914 550.971 220.076C550.835 220.235 550.767 220.464 550.767 220.762V229H548.963ZM553.758 229V221.364H555.557V229H553.758ZM554.663 220.28C554.378 220.28 554.132 220.185 553.927 219.996C553.721 219.804 553.619 219.574 553.619 219.305C553.619 219.034 553.721 218.803 553.927 218.614C554.132 218.422 554.378 218.326 554.663 218.326C554.951 218.326 555.196 218.422 555.398 218.614C555.604 218.803 555.707 219.034 555.707 219.305C555.707 219.574 555.604 219.804 555.398 219.996C555.196 220.185 554.951 220.28 554.663 220.28ZM557.408 229V221.364H559.153V222.636H559.233C559.372 222.196 559.611 221.856 559.949 221.617C560.29 221.375 560.679 221.254 561.117 221.254C561.216 221.254 561.327 221.259 561.45 221.269C561.576 221.276 561.68 221.287 561.763 221.304V222.96C561.687 222.933 561.566 222.91 561.4 222.89C561.238 222.867 561.08 222.855 560.928 222.855C560.6 222.855 560.305 222.926 560.043 223.069C559.785 223.208 559.581 223.402 559.432 223.651C559.282 223.899 559.208 224.186 559.208 224.511V229H557.408ZM562.959 229V221.364H564.679V222.661H564.769C564.928 222.224 565.191 221.882 565.559 221.637C565.927 221.388 566.366 221.264 566.877 221.264C567.394 221.264 567.829 221.39 568.184 221.642C568.542 221.891 568.794 222.23 568.94 222.661H569.019C569.188 222.237 569.473 221.899 569.874 221.647C570.279 221.392 570.758 221.264 571.311 221.264C572.014 221.264 572.587 221.486 573.031 221.93C573.475 222.375 573.698 223.022 573.698 223.874V229H571.893V224.153C571.893 223.679 571.767 223.332 571.515 223.114C571.263 222.892 570.955 222.781 570.59 222.781C570.156 222.781 569.816 222.916 569.571 223.188C569.329 223.457 569.208 223.806 569.208 224.237V229H567.443V224.078C567.443 223.684 567.324 223.369 567.085 223.134C566.85 222.898 566.542 222.781 566.161 222.781C565.902 222.781 565.667 222.847 565.455 222.979C565.243 223.109 565.073 223.293 564.948 223.531C564.822 223.767 564.759 224.042 564.759 224.357V229H562.959ZM582.809 221.364V222.756H578.419V221.364H582.809ZM579.503 219.534H581.303V226.703C581.303 226.945 581.339 227.131 581.412 227.26C581.488 227.386 581.588 227.472 581.71 227.518C581.833 227.565 581.969 227.588 582.118 227.588C582.231 227.588 582.334 227.58 582.426 227.563C582.523 227.547 582.595 227.532 582.645 227.518L582.948 228.925C582.852 228.959 582.715 228.995 582.536 229.035C582.36 229.075 582.145 229.098 581.889 229.104C581.439 229.118 581.033 229.05 580.671 228.901C580.31 228.748 580.023 228.513 579.811 228.195C579.603 227.876 579.5 227.479 579.503 227.001V219.534ZM584.314 229V221.364H586.059V222.636H586.139C586.278 222.196 586.517 221.856 586.855 221.617C587.196 221.375 587.586 221.254 588.023 221.254C588.123 221.254 588.234 221.259 588.356 221.269C588.482 221.276 588.587 221.287 588.669 221.304V222.96C588.593 222.933 588.472 222.91 588.307 222.89C588.144 222.867 587.987 222.855 587.834 222.855C587.506 222.855 587.211 222.926 586.949 223.069C586.691 223.208 586.487 223.402 586.338 223.651C586.189 223.899 586.114 224.186 586.114 224.511V229H584.314ZM591.926 229.154C591.442 229.154 591.006 229.068 590.618 228.896C590.234 228.72 589.929 228.461 589.704 228.12C589.482 227.779 589.37 227.358 589.37 226.857C589.37 226.426 589.45 226.07 589.609 225.788C589.768 225.507 589.985 225.281 590.26 225.112C590.535 224.943 590.845 224.816 591.19 224.729C591.538 224.64 591.898 224.575 592.269 224.536C592.716 224.489 593.079 224.448 593.358 224.411C593.636 224.371 593.838 224.312 593.964 224.232C594.093 224.149 594.158 224.022 594.158 223.849V223.82C594.158 223.445 594.047 223.155 593.825 222.95C593.603 222.744 593.283 222.641 592.866 222.641C592.425 222.641 592.075 222.737 591.816 222.93C591.561 223.122 591.389 223.349 591.299 223.611L589.619 223.372C589.752 222.908 589.97 222.52 590.275 222.209C590.58 221.894 590.953 221.659 591.394 221.503C591.835 221.344 592.322 221.264 592.856 221.264C593.223 221.264 593.59 221.307 593.954 221.393C594.319 221.48 594.652 221.622 594.954 221.821C595.255 222.017 595.497 222.283 595.679 222.621C595.865 222.96 595.958 223.382 595.958 223.889V229H594.228V227.951H594.168C594.059 228.163 593.905 228.362 593.706 228.548C593.51 228.73 593.263 228.877 592.965 228.99C592.67 229.099 592.324 229.154 591.926 229.154ZM592.393 227.832C592.754 227.832 593.068 227.76 593.333 227.618C593.598 227.472 593.802 227.28 593.944 227.041C594.09 226.803 594.163 226.542 594.163 226.261V225.361C594.107 225.407 594.011 225.45 593.875 225.49C593.742 225.53 593.593 225.565 593.427 225.594C593.262 225.624 593.098 225.651 592.935 225.674C592.773 225.697 592.632 225.717 592.513 225.734C592.244 225.77 592.004 225.83 591.792 225.913C591.58 225.996 591.412 226.112 591.29 226.261C591.167 226.406 591.106 226.595 591.106 226.827C591.106 227.159 591.227 227.409 591.468 227.578C591.71 227.747 592.019 227.832 592.393 227.832ZM599.567 224.526V229H597.767V221.364H599.488V222.661H599.577C599.753 222.234 600.033 221.894 600.417 221.642C600.805 221.39 601.284 221.264 601.854 221.264C602.381 221.264 602.84 221.377 603.231 221.602C603.626 221.828 603.931 222.154 604.146 222.582C604.365 223.009 604.473 223.528 604.469 224.138V229H602.669V224.416C602.669 223.906 602.537 223.506 602.272 223.218C602.01 222.93 601.647 222.786 601.183 222.786C600.868 222.786 600.588 222.855 600.343 222.994C600.101 223.13 599.91 223.327 599.771 223.586C599.635 223.844 599.567 224.158 599.567 224.526ZM612.334 223.382L610.694 223.561C610.647 223.395 610.566 223.24 610.45 223.094C610.337 222.948 610.185 222.83 609.993 222.741C609.8 222.651 609.565 222.607 609.287 222.607C608.912 222.607 608.597 222.688 608.342 222.85C608.09 223.013 607.966 223.223 607.969 223.482C607.966 223.704 608.047 223.884 608.213 224.023C608.382 224.163 608.66 224.277 609.048 224.366L610.351 224.645C611.073 224.801 611.61 225.048 611.961 225.386C612.316 225.724 612.495 226.166 612.498 226.713C612.495 227.194 612.354 227.618 612.076 227.986C611.801 228.35 611.418 228.635 610.927 228.841C610.437 229.046 609.873 229.149 609.237 229.149C608.302 229.149 607.55 228.954 606.98 228.562C606.41 228.168 606.07 227.62 605.961 226.917L607.716 226.748C607.795 227.093 607.964 227.353 608.223 227.528C608.481 227.704 608.818 227.792 609.232 227.792C609.66 227.792 610.003 227.704 610.261 227.528C610.523 227.353 610.654 227.136 610.654 226.877C610.654 226.658 610.569 226.478 610.4 226.335C610.235 226.193 609.976 226.083 609.625 226.007L608.322 225.734C607.59 225.581 607.048 225.324 606.696 224.963C606.345 224.598 606.171 224.138 606.174 223.581C606.171 223.11 606.299 222.703 606.557 222.358C606.819 222.01 607.182 221.741 607.646 221.553C608.113 221.36 608.652 221.264 609.262 221.264C610.157 221.264 610.861 221.455 611.375 221.836C611.892 222.217 612.212 222.732 612.334 223.382ZM617.85 221.364V222.756H613.336V221.364H617.85ZM614.465 229V220.643C614.465 220.129 614.571 219.701 614.783 219.36C614.998 219.019 615.287 218.763 615.648 218.594C616.009 218.425 616.41 218.341 616.851 218.341C617.162 218.341 617.439 218.366 617.681 218.415C617.923 218.465 618.102 218.51 618.218 218.55L617.86 219.942C617.784 219.919 617.688 219.895 617.572 219.872C617.456 219.846 617.327 219.832 617.184 219.832C616.849 219.832 616.612 219.914 616.473 220.076C616.337 220.235 616.269 220.464 616.269 220.762V229H614.465ZM622.353 229.149C621.588 229.149 620.926 228.99 620.37 228.672C619.816 228.35 619.39 227.896 619.092 227.31C618.794 226.72 618.644 226.025 618.644 225.227C618.644 224.441 618.794 223.752 619.092 223.158C619.393 222.562 619.814 222.098 620.355 221.766C620.895 221.432 621.53 221.264 622.259 221.264C622.729 221.264 623.174 221.34 623.591 221.493C624.012 221.642 624.383 221.874 624.705 222.189C625.03 222.504 625.285 222.905 625.47 223.392C625.656 223.876 625.749 224.453 625.749 225.122V225.674H619.49V224.461H624.024C624.02 224.116 623.946 223.81 623.8 223.541C623.654 223.269 623.45 223.056 623.188 222.9C622.93 222.744 622.628 222.666 622.284 222.666C621.916 222.666 621.593 222.756 621.314 222.935C621.036 223.11 620.819 223.342 620.663 223.631C620.51 223.916 620.433 224.229 620.429 224.57V225.629C620.429 226.073 620.51 226.455 620.673 226.773C620.835 227.088 621.062 227.33 621.354 227.499C621.646 227.664 621.987 227.747 622.378 227.747C622.64 227.747 622.877 227.711 623.089 227.638C623.301 227.562 623.485 227.451 623.641 227.305C623.797 227.159 623.914 226.978 623.994 226.763L625.674 226.952C625.568 227.396 625.366 227.784 625.068 228.115C624.773 228.443 624.395 228.698 623.934 228.881C623.474 229.06 622.947 229.149 622.353 229.149ZM627.271 229V221.364H629.016V222.636H629.096C629.235 222.196 629.474 221.856 629.812 221.617C630.153 221.375 630.543 221.254 630.98 221.254C631.08 221.254 631.191 221.259 631.313 221.269C631.439 221.276 631.544 221.287 631.627 221.304V222.96C631.55 222.933 631.429 222.91 631.264 222.89C631.101 222.867 630.944 222.855 630.791 222.855C630.463 222.855 630.168 222.926 629.906 223.069C629.648 223.208 629.444 223.402 629.295 223.651C629.146 223.899 629.071 224.186 629.071 224.511V229H627.271Z" fill="white"/>
</g>
<defs>
<clipPath id="clip0_55127_16304">
<rect width="668" height="264" fill="white"/>
</clipPath>
<clipPath id="clip1_55127_16304">
<rect x="20" y="64" width="628" height="120" rx="10" fill="white"/>
</clipPath>
</defs>
</svg>
