<svg width="519" height="268" viewBox="0 0 519 268" fill="none" xmlns="http://www.w3.org/2000/svg">
<g clip-path="url(#clip0_55148_23799)">
<rect width="519" height="268" fill="white"/>
<mask id="path-1-inside-1_55148_23799" fill="white">
<path d="M0 0H519V42H0V0Z"/>
</mask>
<path d="M0 0H519V42H0V0Z" fill="white"/>
<path d="M519 42V41H0V42V43H519V42Z" fill="#E4E7EC" mask="url(#path-1-inside-1_55148_23799)"/>
<path fill-rule="evenodd" clip-rule="evenodd" d="M12 18.3379V17.0068H23.3333V18.3379H12ZM12 21.6657H23.3333V20.3346H12V21.6657ZM12 24.9934H23.3333V23.6623H12V24.9934Z" fill="#64676C"/>
<path d="M39.5566 28.2682V20.9962L37.2649 18.933L35.21 17.7881V26.9849C35.21 27.6949 35.7945 28.2682 36.514 28.2682H39.5566V28.2682Z" fill="#4285F4"/>
<path d="M49.9878 28.2681H53.0304C53.752 28.2681 54.3344 27.6927 54.3344 26.9848V17.7881L52.0068 19.0995L49.9878 20.9962V28.2681V28.2681Z" fill="#34A853"/>
<path d="M39.556 20.9964L39.2441 18.155L39.556 15.4355L44.7719 19.2854L49.9878 15.4355L50.3366 18.0082L49.9878 20.9964L44.7719 24.8462L39.556 20.9964Z" fill="#EA4335"/>
<path d="M49.9878 15.4353V20.9961L54.3344 17.788V16.0769C54.3344 14.49 52.4936 13.5853 51.2049 14.537L49.9878 15.4353Z" fill="#FBBC04"/>
<path d="M35.21 17.788L37.209 19.2636L39.5566 20.9962V15.4354L38.3394 14.5371C37.0485 13.5853 35.21 14.49 35.21 16.0769V17.7879V17.788Z" fill="#C5221F"/>
<path d="M65.8474 20.7823H69.4354V25.6057C68.9316 25.7722 68.4102 25.9014 67.8714 25.9934C67.3325 26.0854 66.7279 26.1314 66.0577 26.1314C65.0807 26.1314 64.2527 25.9387 63.5736 25.5531C62.899 25.1632 62.3864 24.6003 62.0359 23.8643C61.6855 23.1239 61.5102 22.2324 61.5102 21.1897C61.5102 20.1865 61.7052 19.3168 62.0951 18.5808C62.485 17.8404 63.0523 17.2687 63.7971 16.8657C64.5418 16.4583 65.4443 16.2545 66.5045 16.2545C67.0259 16.2545 67.5297 16.3071 68.016 16.4123C68.5066 16.513 68.9557 16.6532 69.3631 16.8328L68.8111 18.134C68.4869 17.9806 68.1233 17.8514 67.7202 17.7463C67.3172 17.6411 66.8988 17.5885 66.4651 17.5885C65.7773 17.5885 65.1837 17.7375 64.6842 18.0354C64.1892 18.3333 63.808 18.7539 63.5408 19.2971C63.2736 19.836 63.1399 20.4734 63.1399 21.2094C63.1399 21.9235 63.2473 22.55 63.4619 23.0888C63.6766 23.6277 64.0117 24.0483 64.4674 24.3506C64.9274 24.6485 65.521 24.7974 66.2482 24.7974C66.6119 24.7974 66.9207 24.7777 67.1748 24.7383C67.4289 24.6989 67.6633 24.655 67.8779 24.6069V22.1294H65.8474V20.7823ZM79.324 18.5874C80.1388 18.5874 80.7522 18.7977 81.164 19.2183C81.5802 19.6388 81.7883 20.3135 81.7883 21.2423V26H80.244V21.5183C80.244 20.9663 80.1366 20.5501 79.922 20.2697C79.7073 19.9893 79.3809 19.8491 78.9428 19.8491C78.3295 19.8491 77.887 20.0463 77.6154 20.4406C77.3482 20.8305 77.2145 21.3978 77.2145 22.1426V26H75.6703V21.5183C75.6703 21.1503 75.6221 20.8436 75.5257 20.5983C75.4337 20.3486 75.2913 20.1624 75.0985 20.0397C74.9058 19.9126 74.6626 19.8491 74.3691 19.8491C73.9442 19.8491 73.6046 19.9455 73.3505 20.1383C73.1008 20.331 72.9212 20.6158 72.8117 20.9926C72.7021 21.3649 72.6474 21.8227 72.6474 22.366V26H71.1031V18.7254H72.3057L72.5225 19.7045H72.608C72.7569 19.4505 72.9409 19.2424 73.16 19.0803C73.3834 18.9138 73.6309 18.7911 73.9025 18.7123C74.1742 18.629 74.4567 18.5874 74.7502 18.5874C75.2935 18.5874 75.7513 18.6838 76.1237 18.8765C76.4961 19.0649 76.7743 19.3541 76.9583 19.744H77.0765C77.3044 19.3497 77.622 19.0584 78.0294 18.87C78.4368 18.6816 78.8684 18.5874 79.324 18.5874ZM86.3211 18.5874C87.2411 18.5874 87.9355 18.7911 88.4043 19.1985C88.8774 19.606 89.114 20.2412 89.114 21.1043V26H88.0166L87.7209 24.9683H87.6683C87.4624 25.2311 87.2499 25.448 87.0309 25.6189C86.8118 25.7897 86.5577 25.9168 86.2686 26C85.9838 26.0876 85.6355 26.1314 85.2237 26.1314C84.79 26.1314 84.4023 26.0526 84.0606 25.8949C83.7188 25.7328 83.4494 25.4874 83.2523 25.1589C83.0551 24.8303 82.9566 24.4141 82.9566 23.9103C82.9566 23.1611 83.2347 22.5982 83.7911 22.2214C84.3519 21.8447 85.1974 21.6366 86.3277 21.5971L87.5894 21.5511V21.17C87.5894 20.6662 87.4711 20.3069 87.2346 20.0923C87.0024 19.8776 86.6738 19.7703 86.2488 19.7703C85.8852 19.7703 85.5326 19.8228 85.1908 19.928C84.8491 20.0331 84.5162 20.1624 84.192 20.3157L83.6926 19.2248C84.0474 19.0365 84.4505 18.8831 84.9017 18.7648C85.3573 18.6465 85.8305 18.5874 86.3211 18.5874ZM87.5829 22.5237L86.6431 22.5566C85.8721 22.5828 85.331 22.7143 85.02 22.9508C84.7089 23.1874 84.5534 23.5116 84.5534 23.9234C84.5534 24.2827 84.6607 24.5455 84.8754 24.712C85.0901 24.8741 85.3727 24.9551 85.7231 24.9551C86.2576 24.9551 86.7001 24.804 87.0506 24.5017C87.4054 24.195 87.5829 23.746 87.5829 23.1546V22.5237ZM92.3457 18.7254V26H90.8014V18.7254H92.3457ZM91.5834 15.9391C91.82 15.9391 92.0237 16.0026 92.1946 16.1297C92.3698 16.2567 92.4574 16.4758 92.4574 16.7868C92.4574 17.0935 92.3698 17.3125 92.1946 17.444C92.0237 17.571 91.82 17.6345 91.5834 17.6345C91.3381 17.6345 91.13 17.571 90.9591 17.444C90.7927 17.3125 90.7094 17.0935 90.7094 16.7868C90.7094 16.4758 90.7927 16.2567 90.9591 16.1297C91.13 16.0026 91.3381 15.9391 91.5834 15.9391ZM95.6366 26H94.0857V15.7748H95.6366V26Z" fill="#64686C"/>
<rect width="519" height="226" transform="translate(0 42)" fill="#F6F7FB"/>
<rect width="519" height="226" transform="translate(0 42)" fill="white"/>
<path d="M34.856 88.742H39.004V90H33.309V78.151H34.856V88.742ZM49.1469 84.985C49.1469 85.2797 49.1299 85.5913 49.0959 85.92H41.6499C41.7066 86.838 42.0182 87.5577 42.5849 88.079C43.1629 88.589 43.8599 88.844 44.6759 88.844C45.3446 88.844 45.8999 88.691 46.3419 88.385C46.7952 88.0677 47.1126 87.6483 47.2939 87.127H48.9599C48.7106 88.0223 48.2119 88.7533 47.4639 89.32C46.7159 89.8753 45.7866 90.153 44.6759 90.153C43.7919 90.153 42.9986 89.9547 42.2959 89.558C41.6046 89.1613 41.0606 88.6003 40.6639 87.875C40.2672 87.1383 40.0689 86.2883 40.0689 85.325C40.0689 84.3617 40.2616 83.5173 40.6469 82.792C41.0322 82.0667 41.5706 81.5113 42.2619 81.126C42.9646 80.7293 43.7692 80.531 44.6759 80.531C45.5599 80.531 46.3419 80.7237 47.0219 81.109C47.7019 81.4943 48.2232 82.027 48.5859 82.707C48.9599 83.3757 49.1469 84.135 49.1469 84.985ZM47.5489 84.662C47.5489 84.0727 47.4186 83.5683 47.1579 83.149C46.8972 82.7183 46.5402 82.3953 46.0869 82.18C45.6449 81.9533 45.1519 81.84 44.6079 81.84C43.8259 81.84 43.1572 82.0893 42.6019 82.588C42.0579 83.0867 41.7462 83.778 41.6669 84.662H47.5489ZM55.7279 80.514C56.8612 80.514 57.7792 80.8597 58.4819 81.551C59.1845 82.231 59.5359 83.217 59.5359 84.509V90H58.0059V84.73C58.0059 83.8007 57.7735 83.0923 57.3089 82.605C56.8442 82.1063 56.2095 81.857 55.4049 81.857C54.5889 81.857 53.9372 82.112 53.4499 82.622C52.9739 83.132 52.7359 83.8743 52.7359 84.849V90H51.1889V80.684H52.7359V82.01C53.0419 81.534 53.4555 81.1657 53.9769 80.905C54.5095 80.6443 55.0932 80.514 55.7279 80.514ZM61.4849 85.308C61.4849 84.356 61.6776 83.523 62.0629 82.809C62.4482 82.0837 62.9752 81.5227 63.6439 81.126C64.3239 80.7293 65.0832 80.531 65.9219 80.531C66.6472 80.531 67.3216 80.701 67.9449 81.041C68.5682 81.3697 69.0442 81.806 69.3729 82.35V77.42H70.9369V90H69.3729V88.249C69.0669 88.8043 68.6136 89.2633 68.0129 89.626C67.4122 89.9773 66.7096 90.153 65.9049 90.153C65.0776 90.153 64.3239 89.949 63.6439 89.541C62.9752 89.133 62.4482 88.5607 62.0629 87.824C61.6776 87.0873 61.4849 86.2487 61.4849 85.308ZM69.3729 85.325C69.3729 84.6223 69.2312 84.0103 68.9479 83.489C68.6646 82.9677 68.2792 82.571 67.7919 82.299C67.3159 82.0157 66.7889 81.874 66.2109 81.874C65.6329 81.874 65.1059 82.01 64.6299 82.282C64.1539 82.554 63.7742 82.9507 63.4909 83.472C63.2076 83.9933 63.0659 84.6053 63.0659 85.308C63.0659 86.022 63.2076 86.6453 63.4909 87.178C63.7742 87.6993 64.1539 88.1017 64.6299 88.385C65.1059 88.657 65.6329 88.793 66.2109 88.793C66.7889 88.793 67.3159 88.657 67.7919 88.385C68.2792 88.1017 68.6646 87.6993 68.9479 87.178C69.2312 86.6453 69.3729 86.0277 69.3729 85.325ZM82.0512 84.985C82.0512 85.2797 82.0342 85.5913 82.0002 85.92H74.5542C74.6109 86.838 74.9225 87.5577 75.4892 88.079C76.0672 88.589 76.7642 88.844 77.5802 88.844C78.2489 88.844 78.8042 88.691 79.2462 88.385C79.6995 88.0677 80.0169 87.6483 80.1982 87.127H81.8642C81.6149 88.0223 81.1162 88.7533 80.3682 89.32C79.6202 89.8753 78.6909 90.153 77.5802 90.153C76.6962 90.153 75.9029 89.9547 75.2002 89.558C74.5089 89.1613 73.9649 88.6003 73.5682 87.875C73.1715 87.1383 72.9732 86.2883 72.9732 85.325C72.9732 84.3617 73.1659 83.5173 73.5512 82.792C73.9365 82.0667 74.4749 81.5113 75.1662 81.126C75.8689 80.7293 76.6735 80.531 77.5802 80.531C78.4642 80.531 79.2462 80.7237 79.9262 81.109C80.6062 81.4943 81.1275 82.027 81.4902 82.707C81.8642 83.3757 82.0512 84.135 82.0512 84.985ZM80.4532 84.662C80.4532 84.0727 80.3229 83.5683 80.0622 83.149C79.8015 82.7183 79.4445 82.3953 78.9912 82.18C78.5492 81.9533 78.0562 81.84 77.5122 81.84C76.7302 81.84 76.0615 82.0893 75.5062 82.588C74.9622 83.0867 74.6505 83.778 74.5712 84.662H80.4532ZM85.6402 82.197C85.9122 81.6643 86.2975 81.2507 86.7962 80.956C87.3062 80.6613 87.9238 80.514 88.6492 80.514V82.112H88.2412C86.5072 82.112 85.6402 83.0527 85.6402 84.934V90H84.0932V80.684H85.6402V82.197ZM99.275 81.908C99.275 82.5993 99.1163 83.234 98.799 83.812C98.4816 84.3787 97.9943 84.8377 97.337 85.189C96.6796 85.5403 95.8636 85.716 94.889 85.716H93.087V90H90.18V78.066H94.889C95.841 78.066 96.6456 78.2303 97.303 78.559C97.9603 78.8877 98.4533 79.341 98.782 79.919C99.1106 80.497 99.275 81.16 99.275 81.908ZM94.668 83.404C95.2233 83.404 95.637 83.2737 95.909 83.013C96.181 82.7523 96.317 82.384 96.317 81.908C96.317 81.432 96.181 81.0637 95.909 80.803C95.637 80.5423 95.2233 80.412 94.668 80.412H93.087V83.404H94.668ZM100.21 85.24C100.21 84.2653 100.392 83.4097 100.754 82.673C101.128 81.9363 101.633 81.3697 102.267 80.973C102.902 80.5763 103.61 80.378 104.392 80.378C105.061 80.378 105.645 80.514 106.143 80.786C106.653 81.058 107.044 81.415 107.316 81.857V80.514H110.223V90H107.316V88.657C107.033 89.099 106.636 89.456 106.126 89.728C105.628 90 105.044 90.136 104.375 90.136C103.605 90.136 102.902 89.9377 102.267 89.541C101.633 89.133 101.128 88.5607 100.754 87.824C100.392 87.076 100.21 86.2147 100.21 85.24ZM107.316 85.257C107.316 84.5317 107.112 83.9593 106.704 83.54C106.308 83.1207 105.82 82.911 105.242 82.911C104.664 82.911 104.171 83.1207 103.763 83.54C103.367 83.948 103.168 84.5147 103.168 85.24C103.168 85.9653 103.367 86.5433 103.763 86.974C104.171 87.3933 104.664 87.603 105.242 87.603C105.82 87.603 106.308 87.3933 106.704 86.974C107.112 86.5547 107.316 85.9823 107.316 85.257ZM115.233 82.095C115.573 81.5737 115.998 81.1657 116.508 80.871C117.018 80.565 117.585 80.412 118.208 80.412V83.489H117.409C116.684 83.489 116.14 83.6477 115.777 83.965C115.415 84.271 115.233 84.815 115.233 85.597V90H112.326V80.514H115.233V82.095ZM124.885 87.535V90H123.406C122.352 90 121.53 89.745 120.941 89.235C120.352 88.7137 120.057 87.8693 120.057 86.702V82.928H118.901V80.514H120.057V78.202H122.964V80.514H124.868V82.928H122.964V86.736C122.964 87.0193 123.032 87.2233 123.168 87.348C123.304 87.4727 123.531 87.535 123.848 87.535H124.885ZM132.284 80.412C133.395 80.412 134.279 80.7747 134.936 81.5C135.605 82.214 135.939 83.2 135.939 84.458V90H133.049V84.849C133.049 84.2143 132.885 83.7213 132.556 83.37C132.228 83.0187 131.786 82.843 131.23 82.843C130.675 82.843 130.233 83.0187 129.904 83.37C129.576 83.7213 129.411 84.2143 129.411 84.849V90H126.504V80.514H129.411V81.772C129.706 81.3527 130.103 81.024 130.601 80.786C131.1 80.5367 131.661 80.412 132.284 80.412ZM146.901 85.104C146.901 85.376 146.884 85.6593 146.85 85.954H140.271C140.317 86.5433 140.504 86.9967 140.832 87.314C141.172 87.62 141.586 87.773 142.073 87.773C142.799 87.773 143.303 87.467 143.586 86.855H146.68C146.522 87.4783 146.233 88.0393 145.813 88.538C145.405 89.0367 144.89 89.4277 144.266 89.711C143.643 89.9943 142.946 90.136 142.175 90.136C141.246 90.136 140.419 89.9377 139.693 89.541C138.968 89.1443 138.401 88.5777 137.993 87.841C137.585 87.1043 137.381 86.243 137.381 85.257C137.381 84.271 137.58 83.4097 137.976 82.673C138.384 81.9363 138.951 81.3697 139.676 80.973C140.402 80.5763 141.235 80.378 142.175 80.378C143.093 80.378 143.909 80.5707 144.623 80.956C145.337 81.3413 145.893 81.891 146.289 82.605C146.697 83.319 146.901 84.152 146.901 85.104ZM143.926 84.339C143.926 83.8403 143.756 83.4437 143.416 83.149C143.076 82.8543 142.651 82.707 142.141 82.707C141.654 82.707 141.24 82.8487 140.9 83.132C140.572 83.4153 140.368 83.8177 140.288 84.339H143.926ZM151.342 82.095C151.682 81.5737 152.107 81.1657 152.617 80.871C153.127 80.565 153.694 80.412 154.317 80.412V83.489H153.518C152.793 83.489 152.249 83.6477 151.886 83.965C151.523 84.271 151.342 84.815 151.342 85.597V90H148.435V80.514H151.342V82.095Z" fill="#0073DE"/>
<path d="M35.9844 125H33.1229V115.727H36.1112C37.0107 115.727 37.7804 115.913 38.4203 116.284C39.0602 116.652 39.5507 117.182 39.8918 117.873C40.2329 118.562 40.4034 119.386 40.4034 120.346C40.4034 121.311 40.2314 122.143 39.8873 122.84C39.5431 123.535 39.0421 124.069 38.3841 124.443C37.726 124.814 36.9261 125 35.9844 125ZM34.2457 124.004H35.9119C36.6786 124.004 37.314 123.856 37.8181 123.56C38.3222 123.264 38.698 122.843 38.9455 122.297C39.193 121.751 39.3168 121.1 39.3168 120.346C39.3168 119.597 39.1945 118.953 38.95 118.412C38.7055 117.869 38.3403 117.452 37.8543 117.163C37.3683 116.87 36.7631 116.723 36.0387 116.723H34.2457V124.004ZM45.0579 125.145C44.3878 125.145 43.8097 124.997 43.3238 124.701C42.8408 124.402 42.468 123.986 42.2054 123.452C41.9458 122.914 41.8161 122.289 41.8161 121.577C41.8161 120.865 41.9458 120.237 42.2054 119.694C42.468 119.147 42.8333 118.722 43.3011 118.417C43.772 118.109 44.3214 117.955 44.9492 117.955C45.3114 117.955 45.6691 118.015 46.0223 118.136C46.3754 118.257 46.6969 118.453 46.9867 118.725C47.2765 118.993 47.5074 119.349 47.6794 119.793C47.8515 120.237 47.9375 120.783 47.9375 121.432V121.885H42.5767V120.961H46.8509C46.8509 120.569 46.7724 120.219 46.6154 119.911C46.4615 119.603 46.2411 119.36 45.9544 119.182C45.6706 119.004 45.3356 118.915 44.9492 118.915C44.5236 118.915 44.1554 119.02 43.8445 119.232C43.5366 119.44 43.2996 119.712 43.1336 120.047C42.9676 120.382 42.8846 120.741 42.8846 121.124V121.74C42.8846 122.265 42.9751 122.71 43.1562 123.076C43.3404 123.438 43.5954 123.714 43.9214 123.904C44.2474 124.091 44.6262 124.185 45.0579 124.185C45.3386 124.185 45.5922 124.146 45.8185 124.067C46.0479 123.986 46.2457 123.865 46.4117 123.705C46.5777 123.542 46.706 123.34 46.7965 123.098L47.8288 123.388C47.7202 123.738 47.5376 124.046 47.281 124.312C47.0244 124.574 46.7075 124.78 46.3302 124.928C45.9529 125.072 45.5288 125.145 45.0579 125.145ZM51.6095 125.163C51.1688 125.163 50.7688 125.08 50.4096 124.914C50.0504 124.745 49.7652 124.502 49.5539 124.185C49.3426 123.865 49.2369 123.479 49.2369 123.026C49.2369 122.627 49.3154 122.305 49.4724 122.057C49.6294 121.806 49.8391 121.61 50.1017 121.468C50.3643 121.327 50.6541 121.221 50.9711 121.151C51.291 121.079 51.6125 121.022 51.9355 120.979C52.358 120.925 52.7006 120.884 52.9632 120.857C53.2289 120.827 53.4221 120.777 53.5428 120.708C53.6665 120.638 53.7284 120.518 53.7284 120.346V120.309C53.7284 119.863 53.6062 119.515 53.3617 119.268C53.1202 119.02 52.7535 118.897 52.2615 118.897C51.7513 118.897 51.3514 119.008 51.0616 119.232C50.7718 119.455 50.5681 119.694 50.4504 119.947L49.4362 119.585C49.6173 119.162 49.8588 118.833 50.1606 118.598C50.4655 118.359 50.7975 118.193 51.1567 118.1C51.5189 118.003 51.8751 117.955 52.2252 117.955C52.4486 117.955 52.7052 117.982 52.9949 118.036C53.2877 118.088 53.57 118.195 53.8416 118.358C54.1163 118.521 54.3442 118.767 54.5253 119.096C54.7064 119.425 54.797 119.866 54.797 120.418V125H53.7284V124.058H53.6741C53.6017 124.209 53.4809 124.371 53.3119 124.543C53.1428 124.715 52.918 124.861 52.6373 124.982C52.3565 125.103 52.0139 125.163 51.6095 125.163ZM51.7725 124.203C52.195 124.203 52.5512 124.12 52.841 123.954C53.1338 123.788 53.3541 123.574 53.502 123.311C53.653 123.049 53.7284 122.772 53.7284 122.483V121.505C53.6832 121.559 53.5835 121.609 53.4296 121.654C53.2787 121.696 53.1036 121.734 52.9044 121.767C52.7082 121.797 52.5165 121.825 52.3294 121.849C52.1452 121.87 51.9958 121.888 51.8811 121.903C51.6034 121.939 51.3438 121.998 51.1024 122.08C50.8639 122.158 50.6707 122.277 50.5228 122.437C50.3779 122.594 50.3055 122.809 50.3055 123.08C50.3055 123.452 50.4428 123.732 50.7175 123.922C50.9952 124.11 51.3469 124.203 51.7725 124.203ZM56.7473 125V118.045H57.7796V119.096H57.852C57.9788 118.752 58.2082 118.473 58.5402 118.258C58.8723 118.044 59.2466 117.937 59.6631 117.937C59.7416 117.937 59.8397 117.938 59.9574 117.941C60.0751 117.944 60.1642 117.949 60.2245 117.955V119.042C60.1883 119.032 60.1053 119.019 59.9755 119.001C59.8487 118.98 59.7144 118.969 59.5726 118.969C59.2345 118.969 58.9326 119.04 58.667 119.182C58.4044 119.321 58.1961 119.514 58.0422 119.761C57.8913 120.006 57.8158 120.285 57.8158 120.599V125H56.7473ZM65.6023 126.159V114.568H68.2827V115.456H66.6165V125.272H68.2827V126.159H65.6023ZM69.8414 125V115.727H73.0832C73.7292 115.727 74.2619 115.839 74.6815 116.062C75.1011 116.283 75.4135 116.58 75.6187 116.954C75.824 117.326 75.9266 117.738 75.9266 118.19C75.9266 118.589 75.8557 118.918 75.7138 119.177C75.575 119.437 75.3908 119.642 75.1614 119.793C74.935 119.944 74.689 120.056 74.4234 120.128V120.219C74.7071 120.237 74.9924 120.336 75.2791 120.518C75.5659 120.699 75.8059 120.958 75.999 121.296C76.1922 121.634 76.2888 122.048 76.2888 122.537C76.2888 123.002 76.1832 123.42 75.9719 123.791C75.7606 124.162 75.427 124.457 74.9713 124.674C74.5155 124.891 73.9223 125 73.1919 125H69.8414ZM70.9642 124.004H73.1919C73.9254 124.004 74.446 123.862 74.7539 123.578C75.0648 123.292 75.2203 122.944 75.2203 122.537C75.2203 122.223 75.1403 121.933 74.9803 121.668C74.8203 121.399 74.5924 121.185 74.2966 121.025C74.0008 120.862 73.6507 120.78 73.2462 120.78H70.9642V124.004ZM70.9642 119.802H73.047C73.3851 119.802 73.6899 119.736 73.9616 119.603C74.2363 119.47 74.4536 119.283 74.6136 119.042C74.7766 118.8 74.8581 118.516 74.8581 118.19C74.8581 117.783 74.7162 117.437 74.4325 117.153C74.1487 116.867 73.699 116.723 73.0832 116.723H70.9642V119.802ZM80.8143 125.145C80.1864 125.145 79.6355 124.995 79.1616 124.697C78.6908 124.398 78.3225 123.98 78.0569 123.442C77.7943 122.905 77.663 122.277 77.663 121.559C77.663 120.835 77.7943 120.202 78.0569 119.662C78.3225 119.122 78.6908 118.702 79.1616 118.403C79.6355 118.104 80.1864 117.955 80.8143 117.955C81.4421 117.955 81.9915 118.104 82.4623 118.403C82.9362 118.702 83.3045 119.122 83.5671 119.662C83.8327 120.202 83.9655 120.835 83.9655 121.559C83.9655 122.277 83.8327 122.905 83.5671 123.442C83.3045 123.98 82.9362 124.398 82.4623 124.697C81.9915 124.995 81.4421 125.145 80.8143 125.145ZM80.8143 124.185C81.2912 124.185 81.6836 124.063 81.9915 123.818C82.2993 123.574 82.5272 123.252 82.6751 122.854C82.823 122.455 82.897 122.024 82.897 121.559C82.897 121.094 82.823 120.661 82.6751 120.259C82.5272 119.858 82.2993 119.534 81.9915 119.286C81.6836 119.039 81.2912 118.915 80.8143 118.915C80.3373 118.915 79.9449 119.039 79.6371 119.286C79.3292 119.534 79.1013 119.858 78.9534 120.259C78.8055 120.661 78.7315 121.094 78.7315 121.559C78.7315 122.024 78.8055 122.455 78.9534 122.854C79.1013 123.252 79.3292 123.574 79.6371 123.818C79.9449 124.063 80.3373 124.185 80.8143 124.185ZM85.5966 125V118.045H86.629V119.096H86.7014C86.8282 118.752 87.0576 118.473 87.3896 118.258C87.7216 118.044 88.0959 117.937 88.5125 117.937C88.591 117.937 88.6891 117.938 88.8068 117.941C88.9245 117.944 89.0135 117.949 89.0739 117.955V119.042C89.0377 119.032 88.9547 119.019 88.8249 119.001C88.6981 118.98 88.5638 118.969 88.4219 118.969C88.0839 118.969 87.782 119.04 87.5164 119.182C87.2538 119.321 87.0455 119.514 86.8916 119.761C86.7406 120.006 86.6652 120.285 86.6652 120.599V125H85.5966ZM90.3405 125V118.045H91.3728V119.096H91.4453C91.5721 118.752 91.8015 118.473 92.1335 118.258C92.4655 118.044 92.8398 117.937 93.2564 117.937C93.3349 117.937 93.433 117.938 93.5507 117.941C93.6684 117.944 93.7574 117.949 93.8178 117.955V119.042C93.7816 119.032 93.6986 119.019 93.5688 119.001C93.442 118.98 93.3077 118.969 93.1658 118.969C92.8277 118.969 92.5259 119.04 92.2603 119.182C91.9977 119.321 91.7894 119.514 91.6355 119.761C91.4845 120.006 91.4091 120.285 91.4091 120.599V125H90.3405ZM97.698 125.145C97.0702 125.145 96.5193 124.995 96.0454 124.697C95.5746 124.398 95.2063 123.98 94.9407 123.442C94.6781 122.905 94.5468 122.277 94.5468 121.559C94.5468 120.835 94.6781 120.202 94.9407 119.662C95.2063 119.122 95.5746 118.702 96.0454 118.403C96.5193 118.104 97.0702 117.955 97.698 117.955C98.3259 117.955 98.8752 118.104 99.3461 118.403C99.82 118.702 100.188 119.122 100.451 119.662C100.717 120.202 100.849 120.835 100.849 121.559C100.849 122.277 100.717 122.905 100.451 123.442C100.188 123.98 99.82 124.398 99.3461 124.697C98.8752 124.995 98.3259 125.145 97.698 125.145ZM97.698 124.185C98.175 124.185 98.5674 124.063 98.8752 123.818C99.1831 123.574 99.411 123.252 99.5589 122.854C99.7068 122.455 99.7808 122.024 99.7808 121.559C99.7808 121.094 99.7068 120.661 99.5589 120.259C99.411 119.858 99.1831 119.534 98.8752 119.286C98.5674 119.039 98.175 118.915 97.698 118.915C97.2211 118.915 96.8287 119.039 96.5208 119.286C96.213 119.534 95.9851 119.858 95.8372 120.259C95.6893 120.661 95.6153 121.094 95.6153 121.559C95.6153 122.024 95.6893 122.455 95.8372 122.854C95.9851 123.252 96.213 123.574 96.5208 123.818C96.8287 124.063 97.2211 124.185 97.698 124.185ZM103.819 125L101.701 118.045H102.823L104.327 123.37H104.399L105.884 118.045H107.025L108.492 123.352H108.565L110.068 118.045H111.191L109.072 125H108.021L106.5 119.657H106.391L104.87 125H103.819ZM115.282 125.145C114.612 125.145 114.034 124.997 113.548 124.701C113.065 124.402 112.693 123.986 112.43 123.452C112.17 122.914 112.041 122.289 112.041 121.577C112.041 120.865 112.17 120.237 112.43 119.694C112.693 119.147 113.058 118.722 113.526 118.417C113.997 118.109 114.546 117.955 115.174 117.955C115.536 117.955 115.894 118.015 116.247 118.136C116.6 118.257 116.922 118.453 117.211 118.725C117.501 118.993 117.732 119.349 117.904 119.793C118.076 120.237 118.162 120.783 118.162 121.432V121.885H112.801V120.961H117.075C117.075 120.569 116.997 120.219 116.84 119.911C116.686 119.603 116.466 119.36 116.179 119.182C115.895 119.004 115.56 118.915 115.174 118.915C114.748 118.915 114.38 119.02 114.069 119.232C113.761 119.44 113.524 119.712 113.358 120.047C113.192 120.382 113.109 120.741 113.109 121.124V121.74C113.109 122.265 113.2 122.71 113.381 123.076C113.565 123.438 113.82 123.714 114.146 123.904C114.472 124.091 114.851 124.185 115.282 124.185C115.563 124.185 115.817 124.146 116.043 124.067C116.273 123.986 116.47 123.865 116.636 123.705C116.802 123.542 116.931 123.34 117.021 123.098L118.053 123.388C117.945 123.738 117.762 124.046 117.506 124.312C117.249 124.574 116.932 124.78 116.555 124.928C116.177 125.072 115.753 125.145 115.282 125.145ZM119.788 125V118.045H120.82V119.096H120.892C121.019 118.752 121.248 118.473 121.581 118.258C121.913 118.044 122.287 117.937 122.703 117.937C122.782 117.937 122.88 117.938 122.998 117.941C123.115 117.944 123.204 117.949 123.265 117.955V119.042C123.229 119.032 123.146 119.019 123.016 119.001C122.889 118.98 122.755 118.969 122.613 118.969C122.275 118.969 121.973 119.04 121.707 119.182C121.445 119.321 121.236 119.514 121.082 119.761C120.932 120.006 120.856 120.285 120.856 120.599V125H119.788ZM135.615 115.727V125H134.529L129.476 117.719H129.385V125H128.262V115.727H129.349L134.42 123.026H134.51V115.727H135.615ZM139.764 125.163C139.323 125.163 138.923 125.08 138.564 124.914C138.205 124.745 137.919 124.502 137.708 124.185C137.497 123.865 137.391 123.479 137.391 123.026C137.391 122.627 137.47 122.305 137.627 122.057C137.784 121.806 137.993 121.61 138.256 121.468C138.519 121.327 138.808 121.221 139.125 121.151C139.445 121.079 139.767 121.022 140.09 120.979C140.512 120.925 140.855 120.884 141.118 120.857C141.383 120.827 141.576 120.777 141.697 120.708C141.821 120.638 141.883 120.518 141.883 120.346V120.309C141.883 119.863 141.76 119.515 141.516 119.268C141.275 119.02 140.908 118.897 140.416 118.897C139.906 118.897 139.506 119.008 139.216 119.232C138.926 119.455 138.722 119.694 138.605 119.947L137.59 119.585C137.772 119.162 138.013 118.833 138.315 118.598C138.62 118.359 138.952 118.193 139.311 118.1C139.673 118.003 140.029 117.955 140.38 117.955C140.603 117.955 140.859 117.982 141.149 118.036C141.442 118.088 141.724 118.195 141.996 118.358C142.271 118.521 142.498 118.767 142.68 119.096C142.861 119.425 142.951 119.866 142.951 120.418V125H141.883V124.058H141.828C141.756 124.209 141.635 124.371 141.466 124.543C141.297 124.715 141.072 124.861 140.792 124.982C140.511 125.103 140.168 125.163 139.764 125.163ZM139.927 124.203C140.349 124.203 140.706 124.12 140.995 123.954C141.288 123.788 141.508 123.574 141.656 123.311C141.807 123.049 141.883 122.772 141.883 122.483V121.505C141.837 121.559 141.738 121.609 141.584 121.654C141.433 121.696 141.258 121.734 141.059 121.767C140.862 121.797 140.671 121.825 140.484 121.849C140.3 121.87 140.15 121.888 140.035 121.903C139.758 121.939 139.498 121.998 139.257 122.08C139.018 122.158 138.825 122.277 138.677 122.437C138.532 122.594 138.46 122.809 138.46 123.08C138.46 123.452 138.597 123.732 138.872 123.922C139.15 124.11 139.501 124.203 139.927 124.203ZM144.902 125V118.045H145.934V119.132H146.024C146.169 118.761 146.403 118.473 146.726 118.267C147.049 118.059 147.437 117.955 147.89 117.955C148.349 117.955 148.73 118.059 149.035 118.267C149.343 118.473 149.583 118.761 149.755 119.132H149.828C150.006 118.773 150.273 118.488 150.629 118.276C150.985 118.062 151.412 117.955 151.91 117.955C152.532 117.955 153.041 118.15 153.436 118.539C153.832 118.925 154.029 119.528 154.029 120.346V125H152.961V120.346C152.961 119.832 152.821 119.466 152.54 119.245C152.259 119.025 151.929 118.915 151.548 118.915C151.059 118.915 150.68 119.063 150.412 119.358C150.143 119.651 150.009 120.023 150.009 120.472V125H148.922V120.237C148.922 119.841 148.794 119.523 148.537 119.282C148.281 119.037 147.95 118.915 147.546 118.915C147.268 118.915 147.008 118.989 146.767 119.137C146.529 119.285 146.335 119.49 146.187 119.752C146.043 120.012 145.97 120.312 145.97 120.653V125H144.902ZM158.899 125.145C158.229 125.145 157.651 124.997 157.165 124.701C156.682 124.402 156.309 123.986 156.046 123.452C155.787 122.914 155.657 122.289 155.657 121.577C155.657 120.865 155.787 120.237 156.046 119.694C156.309 119.147 156.674 118.722 157.142 118.417C157.613 118.109 158.162 117.955 158.79 117.955C159.152 117.955 159.51 118.015 159.863 118.136C160.217 118.257 160.538 118.453 160.828 118.725C161.118 118.993 161.348 119.349 161.52 119.793C161.693 120.237 161.779 120.783 161.779 121.432V121.885H156.418V120.961H160.692C160.692 120.569 160.613 120.219 160.456 119.911C160.303 119.603 160.082 119.36 159.795 119.182C159.512 119.004 159.177 118.915 158.79 118.915C158.365 118.915 157.996 119.02 157.686 119.232C157.378 119.44 157.141 119.712 156.975 120.047C156.809 120.382 156.726 120.741 156.726 121.124V121.74C156.726 122.265 156.816 122.71 156.997 123.076C157.181 123.438 157.437 123.714 157.762 123.904C158.088 124.091 158.467 124.185 158.899 124.185C159.18 124.185 159.433 124.146 159.66 124.067C159.889 123.986 160.087 123.865 160.253 123.705C160.419 123.542 160.547 123.34 160.638 123.098L161.67 123.388C161.561 123.738 161.379 124.046 161.122 124.312C160.865 124.574 160.549 124.78 160.171 124.928C159.794 125.072 159.37 125.145 158.899 125.145ZM165.541 115.293V126.884H162.861V125.996H164.527V116.18H162.861V115.293H165.541ZM169.617 123.732L169.545 124.221C169.493 124.565 169.415 124.934 169.309 125.326C169.207 125.718 169.099 126.088 168.988 126.435C168.876 126.782 168.784 127.059 168.712 127.264H167.897C167.936 127.071 167.987 126.816 168.051 126.499C168.114 126.182 168.177 125.827 168.241 125.435C168.307 125.045 168.361 124.647 168.404 124.239L168.458 123.732H169.617Z" fill="#6B7280"/>
<path d="M32.8352 146.047V143.727H45.0206V146.047H40.3001V159H37.5558V146.047H32.8352ZM49.9499 152.288V159H47.2504V143.727H49.8903V149.492H50.0245C50.293 148.846 50.7081 148.336 51.2699 147.963C51.8366 147.585 52.5575 147.396 53.4325 147.396C54.228 147.396 54.9215 147.563 55.5131 147.896C56.1048 148.229 56.5621 148.716 56.8853 149.358C57.2134 149.999 57.3775 150.782 57.3775 151.707V159H54.6779V152.124C54.6779 151.354 54.479 150.755 54.0813 150.327C53.6886 149.895 53.1367 149.678 52.4258 149.678C51.9485 149.678 51.521 149.783 51.1431 149.991C50.7702 150.195 50.4769 150.491 50.2631 150.879C50.0543 151.267 49.9499 151.737 49.9499 152.288ZM65.2003 159.224C64.0518 159.224 63.06 158.985 62.2248 158.508C61.3945 158.026 60.7557 157.344 60.3082 156.464C59.8608 155.58 59.6371 154.538 59.6371 153.34C59.6371 152.162 59.8608 151.127 60.3082 150.238C60.7607 149.343 61.392 148.647 62.2024 148.15C63.0128 147.647 63.9648 147.396 65.0586 147.396C65.7646 147.396 66.4308 147.511 67.0572 147.739C67.6886 147.963 68.2454 148.311 68.7276 148.783C69.2148 149.256 69.5977 149.857 69.8761 150.588C70.1545 151.314 70.2937 152.179 70.2937 153.183V154.011H60.9048V152.191H67.706C67.701 151.674 67.5891 151.214 67.3704 150.812C67.1516 150.404 66.8459 150.083 66.4531 149.85C66.0653 149.616 65.6129 149.499 65.0959 149.499C64.544 149.499 64.0593 149.634 63.6417 149.902C63.2241 150.165 62.8984 150.513 62.6648 150.946C62.4361 151.374 62.3192 151.843 62.3143 152.355V153.944C62.3143 154.61 62.4361 155.182 62.6797 155.659C62.9233 156.131 63.2638 156.494 63.7013 156.748C64.1388 156.996 64.6509 157.121 65.2376 157.121C65.6303 157.121 65.9858 157.066 66.304 156.957C66.6222 156.842 66.8981 156.676 67.1317 156.457C67.3654 156.238 67.5419 155.967 67.6612 155.644L70.1818 155.928C70.0227 156.594 69.7195 157.175 69.272 157.673C68.8295 158.165 68.2628 158.548 67.5717 158.821C66.8807 159.089 66.0902 159.224 65.2003 159.224ZM80.4861 143.727V159H77.7865V143.727H80.4861ZM88.3331 159.224C87.1847 159.224 86.1928 158.985 85.3576 158.508C84.5273 158.026 83.8885 157.344 83.4411 156.464C82.9936 155.58 82.7699 154.538 82.7699 153.34C82.7699 152.162 82.9936 151.127 83.4411 150.238C83.8935 149.343 84.5249 148.647 85.3352 148.15C86.1456 147.647 87.0977 147.396 88.1914 147.396C88.8974 147.396 89.5636 147.511 90.19 147.739C90.8214 147.963 91.3782 148.311 91.8604 148.783C92.3477 149.256 92.7305 149.857 93.0089 150.588C93.2873 151.314 93.4265 152.179 93.4265 153.183V154.011H84.0376V152.191H90.8388C90.8338 151.674 90.7219 151.214 90.5032 150.812C90.2844 150.404 89.9787 150.083 89.5859 149.85C89.1982 149.616 88.7457 149.499 88.2287 149.499C87.6768 149.499 87.1921 149.634 86.7745 149.902C86.3569 150.165 86.0313 150.513 85.7976 150.946C85.5689 151.374 85.4521 151.843 85.4471 152.355V153.944C85.4471 154.61 85.5689 155.182 85.8125 155.659C86.0561 156.131 86.3967 156.494 86.8342 156.748C87.2717 156.996 87.7837 157.121 88.3704 157.121C88.7631 157.121 89.1186 157.066 89.4368 156.957C89.755 156.842 90.0309 156.676 90.2646 156.457C90.4982 156.238 90.6747 155.967 90.794 155.644L93.3146 155.928C93.1555 156.594 92.8523 157.175 92.4048 157.673C91.9624 158.165 91.3956 158.548 90.7045 158.821C90.0135 159.089 89.223 159.224 88.3331 159.224ZM98.4099 152.288V159H95.7103V147.545H98.2906V149.492H98.4248C98.6883 148.85 99.1084 148.341 99.6851 147.963C100.267 147.585 100.985 147.396 101.84 147.396C102.631 147.396 103.319 147.565 103.906 147.903C104.498 148.241 104.955 148.731 105.278 149.373C105.606 150.014 105.768 150.792 105.763 151.707V159H103.063V152.124C103.063 151.359 102.864 150.76 102.467 150.327C102.074 149.895 101.53 149.678 100.834 149.678C100.361 149.678 99.9411 149.783 99.5732 149.991C99.2103 150.195 98.9244 150.491 98.7156 150.879C98.5118 151.267 98.4099 151.737 98.4099 152.288ZM112.758 159.201C111.858 159.201 111.053 158.97 110.342 158.508C109.631 158.045 109.069 157.374 108.656 156.494C108.244 155.614 108.037 154.545 108.037 153.288C108.037 152.015 108.246 150.941 108.664 150.066C109.086 149.186 109.656 148.522 110.372 148.075C111.087 147.623 111.885 147.396 112.765 147.396C113.437 147.396 113.988 147.511 114.421 147.739C114.853 147.963 115.196 148.234 115.45 148.552C115.704 148.865 115.9 149.161 116.039 149.44H116.151V143.727H118.858V159H116.203V157.195H116.039C115.9 157.474 115.699 157.77 115.435 158.083C115.172 158.391 114.824 158.654 114.391 158.873C113.959 159.092 113.414 159.201 112.758 159.201ZM113.511 156.987C114.083 156.987 114.57 156.832 114.973 156.524C115.375 156.211 115.681 155.776 115.89 155.219C116.099 154.662 116.203 154.013 116.203 153.273C116.203 152.532 116.099 151.888 115.89 151.341C115.686 150.794 115.383 150.369 114.98 150.066C114.582 149.763 114.093 149.611 113.511 149.611C112.91 149.611 112.407 149.768 112.005 150.081C111.602 150.394 111.299 150.827 111.095 151.379C110.891 151.93 110.789 152.562 110.789 153.273C110.789 153.989 110.891 154.627 111.095 155.189C111.304 155.746 111.609 156.186 112.012 156.509C112.42 156.827 112.919 156.987 113.511 156.987ZM126.806 159.224C125.657 159.224 124.665 158.985 123.83 158.508C123 158.026 122.361 157.344 121.914 156.464C121.466 155.58 121.243 154.538 121.243 153.34C121.243 152.162 121.466 151.127 121.914 150.238C122.366 149.343 122.998 148.647 123.808 148.15C124.618 147.647 125.57 147.396 126.664 147.396C127.37 147.396 128.036 147.511 128.663 147.739C129.294 147.963 129.851 148.311 130.333 148.783C130.82 149.256 131.203 149.857 131.482 150.588C131.76 151.314 131.899 152.179 131.899 153.183V154.011H122.51V152.191H129.311C129.306 151.674 129.195 151.214 128.976 150.812C128.757 150.404 128.451 150.083 128.059 149.85C127.671 149.616 127.218 149.499 126.701 149.499C126.15 149.499 125.665 149.634 125.247 149.902C124.83 150.165 124.504 150.513 124.27 150.946C124.042 151.374 123.925 151.843 123.92 152.355V153.944C123.92 154.61 124.042 155.182 124.285 155.659C124.529 156.131 124.869 156.494 125.307 156.748C125.744 156.996 126.256 157.121 126.843 157.121C127.236 157.121 127.591 157.066 127.909 156.957C128.228 156.842 128.504 156.676 128.737 156.457C128.971 156.238 129.147 155.967 129.267 155.644L131.787 155.928C131.628 156.594 131.325 157.175 130.877 157.673C130.435 158.165 129.868 158.548 129.177 158.821C128.486 159.089 127.696 159.224 126.806 159.224ZM134.183 159V147.545H136.801V149.455H136.92C137.129 148.793 137.487 148.284 137.994 147.926C138.506 147.563 139.09 147.381 139.746 147.381C139.895 147.381 140.062 147.389 140.246 147.404C140.435 147.414 140.591 147.431 140.716 147.456V149.939C140.601 149.9 140.42 149.865 140.171 149.835C139.928 149.8 139.691 149.783 139.463 149.783C138.971 149.783 138.528 149.89 138.135 150.103C137.748 150.312 137.442 150.603 137.218 150.976C136.994 151.349 136.883 151.779 136.883 152.266V159H134.183ZM147.718 159V147.545H150.336V149.455H150.455C150.664 148.793 151.022 148.284 151.529 147.926C152.041 147.563 152.625 147.381 153.281 147.381C153.43 147.381 153.597 147.389 153.781 147.404C153.97 147.414 154.127 147.431 154.251 147.456V149.939C154.136 149.9 153.955 149.865 153.706 149.835C153.463 149.8 153.227 149.783 152.998 149.783C152.506 149.783 152.063 149.89 151.671 150.103C151.283 150.312 150.977 150.603 150.753 150.976C150.53 151.349 150.418 151.779 150.418 152.266V159H147.718ZM160.644 159.224C159.495 159.224 158.503 158.985 157.668 158.508C156.838 158.026 156.199 157.344 155.752 156.464C155.304 155.58 155.08 154.538 155.08 153.34C155.08 152.162 155.304 151.127 155.752 150.238C156.204 149.343 156.835 148.647 157.646 148.15C158.456 147.647 159.408 147.396 160.502 147.396C161.208 147.396 161.874 147.511 162.501 147.739C163.132 147.963 163.689 148.311 164.171 148.783C164.658 149.256 165.041 149.857 165.319 150.588C165.598 151.314 165.737 152.179 165.737 153.183V154.011H156.348V152.191H163.149C163.144 151.674 163.032 151.214 162.814 150.812C162.595 150.404 162.289 150.083 161.896 149.85C161.509 149.616 161.056 149.499 160.539 149.499C159.987 149.499 159.503 149.634 159.085 149.902C158.667 150.165 158.342 150.513 158.108 150.946C157.879 151.374 157.763 151.843 157.758 152.355V153.944C157.758 154.61 157.879 155.182 158.123 155.659C158.367 156.131 158.707 156.494 159.145 156.748C159.582 156.996 160.094 157.121 160.681 157.121C161.074 157.121 161.429 157.066 161.747 156.957C162.066 156.842 162.341 156.676 162.575 156.457C162.809 156.238 162.985 155.967 163.105 155.644L165.625 155.928C165.466 156.594 165.163 157.175 164.715 157.673C164.273 158.165 163.706 158.548 163.015 158.821C162.324 159.089 161.534 159.224 160.644 159.224ZM175.665 163.295V157.195H175.553C175.414 157.474 175.212 157.77 174.949 158.083C174.685 158.391 174.337 158.654 173.905 158.873C173.472 159.092 172.928 159.201 172.272 159.201C171.372 159.201 170.566 158.97 169.855 158.508C169.144 158.045 168.583 157.374 168.17 156.494C167.757 155.614 167.551 154.545 167.551 153.288C167.551 152.015 167.76 150.941 168.177 150.066C168.6 149.186 169.169 148.522 169.885 148.075C170.601 147.623 171.399 147.396 172.279 147.396C172.95 147.396 173.502 147.511 173.935 147.739C174.367 147.963 174.71 148.234 174.964 148.552C175.217 148.865 175.414 149.161 175.553 149.44H175.717V147.545H178.372V163.295H175.665ZM173.025 156.987C173.597 156.987 174.084 156.832 174.486 156.524C174.889 156.211 175.195 155.776 175.404 155.219C175.612 154.662 175.717 154.013 175.717 153.273C175.717 152.532 175.612 151.888 175.404 151.341C175.2 150.794 174.897 150.369 174.494 150.066C174.096 149.763 173.606 149.611 173.025 149.611C172.423 149.611 171.921 149.768 171.518 150.081C171.116 150.394 170.812 150.827 170.609 151.379C170.405 151.93 170.303 152.562 170.303 153.273C170.303 153.989 170.405 154.627 170.609 155.189C170.817 155.746 171.123 156.186 171.526 156.509C171.934 156.827 172.433 156.987 173.025 156.987ZM188.447 154.183V147.545H191.146V159H188.529V156.964H188.409C188.151 157.605 187.726 158.13 187.134 158.538C186.547 158.945 185.824 159.149 184.964 159.149C184.213 159.149 183.55 158.983 182.973 158.65C182.401 158.311 181.954 157.822 181.631 157.18C181.307 156.534 181.146 155.754 181.146 154.839V147.545H183.845V154.421C183.845 155.147 184.044 155.724 184.442 156.151C184.84 156.579 185.362 156.793 186.008 156.793C186.406 156.793 186.791 156.696 187.164 156.502C187.537 156.308 187.843 156.02 188.081 155.637C188.325 155.249 188.447 154.764 188.447 154.183ZM198.993 159.224C197.845 159.224 196.853 158.985 196.018 158.508C195.188 158.026 194.549 157.344 194.101 156.464C193.654 155.58 193.43 154.538 193.43 153.34C193.43 152.162 193.654 151.127 194.101 150.238C194.554 149.343 195.185 148.647 195.995 148.15C196.806 147.647 197.758 147.396 198.852 147.396C199.558 147.396 200.224 147.511 200.85 147.739C201.482 147.963 202.038 148.311 202.521 148.783C203.008 149.256 203.391 149.857 203.669 150.588C203.947 151.314 204.087 152.179 204.087 153.183V154.011H194.698V152.191H201.499C201.494 151.674 201.382 151.214 201.163 150.812C200.945 150.404 200.639 150.083 200.246 149.85C199.858 149.616 199.406 149.499 198.889 149.499C198.337 149.499 197.852 149.634 197.435 149.902C197.017 150.165 196.691 150.513 196.458 150.946C196.229 151.374 196.112 151.843 196.107 152.355V153.944C196.107 154.61 196.229 155.182 196.473 155.659C196.716 156.131 197.057 156.494 197.494 156.748C197.932 156.996 198.444 157.121 199.031 157.121C199.423 157.121 199.779 157.066 200.097 156.957C200.415 156.842 200.691 156.676 200.925 156.457C201.158 156.238 201.335 155.967 201.454 155.644L203.975 155.928C203.816 156.594 203.512 157.175 203.065 157.673C202.623 158.165 202.056 158.548 201.365 158.821C200.674 159.089 199.883 159.224 198.993 159.224ZM215.424 150.573L212.963 150.842C212.893 150.593 212.771 150.359 212.597 150.141C212.428 149.922 212.2 149.745 211.911 149.611C211.623 149.477 211.27 149.41 210.852 149.41C210.291 149.41 209.818 149.532 209.435 149.775C209.058 150.019 208.871 150.335 208.876 150.722C208.871 151.055 208.993 151.326 209.242 151.535C209.495 151.744 209.913 151.915 210.494 152.05L212.448 152.467C213.532 152.701 214.337 153.071 214.864 153.578C215.396 154.086 215.665 154.749 215.67 155.57C215.665 156.29 215.454 156.927 215.036 157.479C214.623 158.026 214.049 158.453 213.313 158.761C212.578 159.07 211.732 159.224 210.778 159.224C209.376 159.224 208.247 158.93 207.392 158.344C206.537 157.752 206.027 156.929 205.863 155.875L208.496 155.622C208.615 156.139 208.869 156.529 209.256 156.793C209.644 157.056 210.149 157.188 210.77 157.188C211.412 157.188 211.926 157.056 212.314 156.793C212.707 156.529 212.903 156.203 212.903 155.816C212.903 155.488 212.776 155.217 212.523 155.003C212.274 154.789 211.886 154.625 211.359 154.511L209.406 154.1C208.307 153.872 207.494 153.487 206.967 152.945C206.44 152.398 206.179 151.707 206.184 150.871C206.179 150.165 206.37 149.554 206.758 149.037C207.151 148.515 207.695 148.112 208.391 147.829C209.092 147.54 209.9 147.396 210.815 147.396C212.157 147.396 213.214 147.682 213.984 148.254C214.76 148.826 215.24 149.599 215.424 150.573ZM223.616 147.545V149.634H217.031V147.545H223.616ZM218.657 144.801H221.356V155.555C221.356 155.918 221.411 156.196 221.52 156.39C221.634 156.579 221.784 156.708 221.968 156.778C222.152 156.847 222.355 156.882 222.579 156.882C222.748 156.882 222.902 156.87 223.041 156.845C223.186 156.82 223.295 156.798 223.37 156.778L223.824 158.888C223.68 158.938 223.474 158.993 223.206 159.052C222.942 159.112 222.619 159.147 222.236 159.157C221.56 159.176 220.951 159.075 220.409 158.851C219.867 158.622 219.437 158.269 219.119 157.792C218.806 157.315 218.652 156.718 218.657 156.002V144.801ZM230.821 159.224C229.673 159.224 228.681 158.985 227.846 158.508C227.016 158.026 226.377 157.344 225.929 156.464C225.482 155.58 225.258 154.538 225.258 153.34C225.258 152.162 225.482 151.127 225.929 150.238C226.382 149.343 227.013 148.647 227.824 148.15C228.634 147.647 229.586 147.396 230.68 147.396C231.386 147.396 232.052 147.511 232.678 147.739C233.31 147.963 233.866 148.311 234.349 148.783C234.836 149.256 235.219 149.857 235.497 150.588C235.776 151.314 235.915 152.179 235.915 153.183V154.011H226.526V152.191H233.327C233.322 151.674 233.21 151.214 232.991 150.812C232.773 150.404 232.467 150.083 232.074 149.85C231.686 149.616 231.234 149.499 230.717 149.499C230.165 149.499 229.68 149.634 229.263 149.902C228.845 150.165 228.52 150.513 228.286 150.946C228.057 151.374 227.94 151.843 227.935 152.355V153.944C227.935 154.61 228.057 155.182 228.301 155.659C228.544 156.131 228.885 156.494 229.322 156.748C229.76 156.996 230.272 157.121 230.859 157.121C231.251 157.121 231.607 157.066 231.925 156.957C232.243 156.842 232.519 156.676 232.753 156.457C232.987 156.238 233.163 155.967 233.282 155.644L235.803 155.928C235.644 156.594 235.341 157.175 234.893 157.673C234.451 158.165 233.884 158.548 233.193 158.821C232.502 159.089 231.711 159.224 230.821 159.224ZM242.449 159.201C241.549 159.201 240.744 158.97 240.033 158.508C239.322 158.045 238.76 157.374 238.348 156.494C237.935 155.614 237.729 154.545 237.729 153.288C237.729 152.015 237.938 150.941 238.355 150.066C238.778 149.186 239.347 148.522 240.063 148.075C240.779 147.623 241.577 147.396 242.457 147.396C243.128 147.396 243.68 147.511 244.112 147.739C244.545 147.963 244.888 148.234 245.141 148.552C245.395 148.865 245.591 149.161 245.731 149.44H245.842V143.727H248.549V159H245.895V157.195H245.731C245.591 157.474 245.39 157.77 245.127 158.083C244.863 158.391 244.515 158.654 244.082 158.873C243.65 159.092 243.106 159.201 242.449 159.201ZM243.203 156.987C243.774 156.987 244.261 156.832 244.664 156.524C245.067 156.211 245.373 155.776 245.581 155.219C245.79 154.662 245.895 154.013 245.895 153.273C245.895 152.532 245.79 151.888 245.581 151.341C245.378 150.794 245.074 150.369 244.672 150.066C244.274 149.763 243.784 149.611 243.203 149.611C242.601 149.611 242.099 149.768 241.696 150.081C241.293 150.394 240.99 150.827 240.786 151.379C240.582 151.93 240.481 152.562 240.481 153.273C240.481 153.989 240.582 154.627 240.786 155.189C240.995 155.746 241.301 156.186 241.704 156.509C242.111 156.827 242.611 156.987 243.203 156.987ZM262.437 147.545V149.634H255.666V147.545H262.437ZM257.358 159V146.464C257.358 145.694 257.518 145.052 257.836 144.54C258.159 144.028 258.591 143.645 259.133 143.392C259.675 143.138 260.277 143.011 260.938 143.011C261.405 143.011 261.82 143.049 262.183 143.123C262.546 143.198 262.815 143.265 262.989 143.325L262.452 145.413C262.338 145.378 262.193 145.343 262.019 145.308C261.845 145.268 261.651 145.249 261.438 145.249C260.936 145.249 260.58 145.37 260.371 145.614C260.167 145.853 260.066 146.196 260.066 146.643V159H257.358ZM271.852 154.183V147.545H274.551V159H271.934V156.964H271.815C271.556 157.605 271.131 158.13 270.539 158.538C269.953 158.945 269.229 159.149 268.369 159.149C267.619 159.149 266.955 158.983 266.378 158.65C265.806 158.311 265.359 157.822 265.036 157.18C264.713 156.534 264.551 155.754 264.551 154.839V147.545H267.251V154.421C267.251 155.147 267.45 155.724 267.847 156.151C268.245 156.579 268.767 156.793 269.413 156.793C269.811 156.793 270.196 156.696 270.569 156.502C270.942 156.308 271.248 156.02 271.487 155.637C271.73 155.249 271.852 154.764 271.852 154.183ZM277.328 159V147.545H279.945V149.455H280.064C280.273 148.793 280.631 148.284 281.138 147.926C281.65 147.563 282.234 147.381 282.891 147.381C283.04 147.381 283.206 147.389 283.39 147.404C283.579 147.414 283.736 147.431 283.86 147.456V149.939C283.746 149.9 283.564 149.865 283.316 149.835C283.072 149.8 282.836 149.783 282.607 149.783C282.115 149.783 281.673 149.89 281.28 150.103C280.892 150.312 280.586 150.603 280.363 150.976C280.139 151.349 280.027 151.779 280.027 152.266V159H277.328ZM291.989 147.545V149.634H285.404V147.545H291.989ZM287.03 144.801H289.729V155.555C289.729 155.918 289.784 156.196 289.893 156.39C290.008 156.579 290.157 156.708 290.341 156.778C290.525 156.847 290.728 156.882 290.952 156.882C291.121 156.882 291.275 156.87 291.415 156.845C291.559 156.82 291.668 156.798 291.743 156.778L292.198 158.888C292.053 158.938 291.847 158.993 291.579 159.052C291.315 159.112 290.992 159.147 290.609 159.157C289.933 159.176 289.324 159.075 288.782 158.851C288.24 158.622 287.81 158.269 287.492 157.792C287.179 157.315 287.025 156.718 287.03 156.002V144.801ZM297.192 152.288V159H294.493V143.727H297.132V149.492H297.267C297.535 148.846 297.95 148.336 298.512 147.963C299.079 147.585 299.8 147.396 300.675 147.396C301.47 147.396 302.164 147.563 302.755 147.896C303.347 148.229 303.804 148.716 304.127 149.358C304.456 149.999 304.62 150.782 304.62 151.707V159H301.92V152.124C301.92 151.354 301.721 150.755 301.324 150.327C300.931 149.895 300.379 149.678 299.668 149.678C299.191 149.678 298.763 149.783 298.385 149.991C298.012 150.195 297.719 150.491 297.505 150.879C297.297 151.267 297.192 151.737 297.192 152.288ZM312.442 159.224C311.294 159.224 310.302 158.985 309.467 158.508C308.637 158.026 307.998 157.344 307.55 156.464C307.103 155.58 306.879 154.538 306.879 153.34C306.879 152.162 307.103 151.127 307.55 150.238C308.003 149.343 308.634 148.647 309.445 148.15C310.255 147.647 311.207 147.396 312.301 147.396C313.007 147.396 313.673 147.511 314.299 147.739C314.931 147.963 315.488 148.311 315.97 148.783C316.457 149.256 316.84 149.857 317.118 150.588C317.397 151.314 317.536 152.179 317.536 153.183V154.011H308.147V152.191H314.948C314.943 151.674 314.831 151.214 314.613 150.812C314.394 150.404 314.088 150.083 313.695 149.85C313.308 149.616 312.855 149.499 312.338 149.499C311.786 149.499 311.301 149.634 310.884 149.902C310.466 150.165 310.141 150.513 309.907 150.946C309.678 151.374 309.561 151.843 309.556 152.355V153.944C309.556 154.61 309.678 155.182 309.922 155.659C310.165 156.131 310.506 156.494 310.944 156.748C311.381 156.996 311.893 157.121 312.48 157.121C312.873 157.121 313.228 157.066 313.546 156.957C313.864 156.842 314.14 156.676 314.374 156.457C314.608 156.238 314.784 155.967 314.903 155.644L317.424 155.928C317.265 156.594 316.962 157.175 316.514 157.673C316.072 158.165 315.505 158.548 314.814 158.821C314.123 159.089 313.332 159.224 312.442 159.224ZM319.82 159V147.545H322.437V149.455H322.557C322.765 148.793 323.123 148.284 323.63 147.926C324.142 147.563 324.727 147.381 325.383 147.381C325.532 147.381 325.699 147.389 325.883 147.404C326.071 147.414 326.228 147.431 326.352 147.456V149.939C326.238 149.9 326.057 149.865 325.808 149.835C325.564 149.8 325.328 149.783 325.1 149.783C324.607 149.783 324.165 149.89 323.772 150.103C323.384 150.312 323.079 150.603 322.855 150.976C322.631 151.349 322.519 151.779 322.519 152.266V159H319.82ZM337.606 159.201C336.706 159.201 335.9 158.97 335.189 158.508C334.478 158.045 333.917 157.374 333.504 156.494C333.091 155.614 332.885 154.545 332.885 153.288C332.885 152.015 333.094 150.941 333.511 150.066C333.934 149.186 334.503 148.522 335.219 148.075C335.935 147.623 336.733 147.396 337.613 147.396C338.284 147.396 338.836 147.511 339.269 147.739C339.701 147.963 340.044 148.234 340.298 148.552C340.551 148.865 340.748 149.161 340.887 149.44H340.999V143.727H343.706V159H341.051V157.195H340.887C340.748 157.474 340.546 157.77 340.283 158.083C340.019 158.391 339.671 158.654 339.239 158.873C338.806 159.092 338.262 159.201 337.606 159.201ZM338.359 156.987C338.93 156.987 339.418 156.832 339.82 156.524C340.223 156.211 340.529 155.776 340.738 155.219C340.946 154.662 341.051 154.013 341.051 153.273C341.051 152.532 340.946 151.888 340.738 151.341C340.534 150.794 340.231 150.369 339.828 150.066C339.43 149.763 338.94 149.611 338.359 149.611C337.757 149.611 337.255 149.768 336.852 150.081C336.45 150.394 336.146 150.827 335.943 151.379C335.739 151.93 335.637 152.562 335.637 153.273C335.637 153.989 335.739 154.627 335.943 155.189C336.151 155.746 336.457 156.186 336.86 156.509C337.267 156.827 337.767 156.987 338.359 156.987ZM351.579 159.224C350.46 159.224 349.491 158.978 348.67 158.485C347.85 157.993 347.214 157.305 346.761 156.42C346.314 155.535 346.09 154.501 346.09 153.317C346.09 152.134 346.314 151.098 346.761 150.208C347.214 149.318 347.85 148.627 348.67 148.135C349.491 147.642 350.46 147.396 351.579 147.396C352.697 147.396 353.667 147.642 354.487 148.135C355.308 148.627 355.941 149.318 356.389 150.208C356.841 151.098 357.067 152.134 357.067 153.317C357.067 154.501 356.841 155.535 356.389 156.42C355.941 157.305 355.308 157.993 354.487 158.485C353.667 158.978 352.697 159.224 351.579 159.224ZM351.594 157.061C352.2 157.061 352.707 156.895 353.115 156.561C353.523 156.223 353.826 155.771 354.025 155.204C354.229 154.637 354.331 154.006 354.331 153.31C354.331 152.609 354.229 151.975 354.025 151.408C353.826 150.837 353.523 150.382 353.115 150.044C352.707 149.706 352.2 149.537 351.594 149.537C350.972 149.537 350.455 149.706 350.043 150.044C349.635 150.382 349.329 150.837 349.125 151.408C348.926 151.975 348.827 152.609 348.827 153.31C348.827 154.006 348.926 154.637 349.125 155.204C349.329 155.771 349.635 156.223 350.043 156.561C350.455 156.895 350.972 157.061 351.594 157.061ZM364.355 159.224C363.212 159.224 362.23 158.973 361.41 158.471C360.594 157.968 359.965 157.275 359.523 156.39C359.085 155.5 358.867 154.476 358.867 153.317C358.867 152.154 359.09 151.127 359.538 150.238C359.985 149.343 360.617 148.647 361.432 148.15C362.252 147.647 363.222 147.396 364.34 147.396C365.27 147.396 366.093 147.568 366.809 147.911C367.53 148.249 368.104 148.729 368.531 149.35C368.959 149.967 369.203 150.687 369.262 151.513H366.682C366.578 150.961 366.329 150.501 365.936 150.133C365.548 149.76 365.029 149.574 364.378 149.574C363.826 149.574 363.341 149.723 362.923 150.021C362.506 150.315 362.18 150.737 361.946 151.289C361.718 151.841 361.603 152.502 361.603 153.273C361.603 154.053 361.718 154.724 361.946 155.286C362.175 155.843 362.496 156.273 362.908 156.576C363.326 156.875 363.816 157.024 364.378 157.024C364.775 157.024 365.131 156.949 365.444 156.8C365.762 156.646 366.028 156.425 366.242 156.136C366.456 155.848 366.602 155.498 366.682 155.085H369.262C369.198 155.895 368.959 156.614 368.546 157.24C368.134 157.862 367.572 158.349 366.861 158.702C366.15 159.05 365.315 159.224 364.355 159.224ZM378.78 154.183V147.545H381.479V159H378.862V156.964H378.742C378.484 157.605 378.059 158.13 377.467 158.538C376.881 158.945 376.157 159.149 375.297 159.149C374.546 159.149 373.883 158.983 373.306 158.65C372.734 158.311 372.287 157.822 371.964 157.18C371.64 156.534 371.479 155.754 371.479 154.839V147.545H374.178V154.421C374.178 155.147 374.377 155.724 374.775 156.151C375.173 156.579 375.695 156.793 376.341 156.793C376.739 156.793 377.124 156.696 377.497 156.502C377.87 156.308 378.176 156.02 378.414 155.637C378.658 155.249 378.78 154.764 378.78 154.183ZM384.255 159V147.545H386.835V149.492H386.97C387.208 148.836 387.604 148.324 388.155 147.956C388.707 147.583 389.366 147.396 390.132 147.396C390.907 147.396 391.561 147.585 392.093 147.963C392.63 148.336 393.008 148.846 393.226 149.492H393.346C393.599 148.855 394.027 148.348 394.628 147.971C395.235 147.588 395.953 147.396 396.784 147.396C397.838 147.396 398.698 147.729 399.364 148.396C400.03 149.062 400.363 150.034 400.363 151.311V159H397.656V151.729C397.656 151.018 397.467 150.499 397.089 150.17C396.712 149.837 396.249 149.671 395.702 149.671C395.051 149.671 394.541 149.875 394.174 150.282C393.811 150.685 393.629 151.21 393.629 151.856V159H390.982V151.617C390.982 151.026 390.803 150.553 390.445 150.2C390.092 149.847 389.63 149.671 389.058 149.671C388.67 149.671 388.317 149.77 387.999 149.969C387.681 150.163 387.427 150.439 387.238 150.797C387.049 151.15 386.955 151.562 386.955 152.035V159H384.255ZM408.173 159.224C407.025 159.224 406.033 158.985 405.197 158.508C404.367 158.026 403.728 157.344 403.281 156.464C402.833 155.58 402.61 154.538 402.61 153.34C402.61 152.162 402.833 151.127 403.281 150.238C403.733 149.343 404.365 148.647 405.175 148.15C405.985 147.647 406.938 147.396 408.031 147.396C408.737 147.396 409.403 147.511 410.03 147.739C410.661 147.963 411.218 148.311 411.7 148.783C412.188 149.256 412.57 149.857 412.849 150.588C413.127 151.314 413.266 152.179 413.266 153.183V154.011H403.877V152.191H410.679C410.674 151.674 410.562 151.214 410.343 150.812C410.124 150.404 409.819 150.083 409.426 149.85C409.038 149.616 408.586 149.499 408.069 149.499C407.517 149.499 407.032 149.634 406.614 149.902C406.197 150.165 405.871 150.513 405.637 150.946C405.409 151.374 405.292 151.843 405.287 152.355V153.944C405.287 154.61 405.409 155.182 405.652 155.659C405.896 156.131 406.237 156.494 406.674 156.748C407.112 156.996 407.624 157.121 408.21 157.121C408.603 157.121 408.958 157.066 409.277 156.957C409.595 156.842 409.871 156.676 410.104 156.457C410.338 156.238 410.515 155.967 410.634 155.644L413.154 155.928C412.995 156.594 412.692 157.175 412.245 157.673C411.802 158.165 411.235 158.548 410.544 158.821C409.853 159.089 409.063 159.224 408.173 159.224ZM418.25 152.288V159H415.55V147.545H418.13V149.492H418.265C418.528 148.85 418.948 148.341 419.525 147.963C420.107 147.585 420.825 147.396 421.68 147.396C422.471 147.396 423.159 147.565 423.746 147.903C424.337 148.241 424.795 148.731 425.118 149.373C425.446 150.014 425.608 150.792 425.603 151.707V159H422.903V152.124C422.903 151.359 422.704 150.76 422.307 150.327C421.914 149.895 421.369 149.678 420.673 149.678C420.201 149.678 419.781 149.783 419.413 149.991C419.05 150.195 418.764 150.491 418.555 150.879C418.352 151.267 418.25 151.737 418.25 152.288ZM434.067 147.545V149.634H427.482V147.545H434.067ZM429.108 144.801H431.807V155.555C431.807 155.918 431.862 156.196 431.971 156.39C432.086 156.579 432.235 156.708 432.419 156.778C432.603 156.847 432.807 156.882 433.03 156.882C433.199 156.882 433.353 156.87 433.493 156.845C433.637 156.82 433.746 156.798 433.821 156.778L434.276 158.888C434.131 158.938 433.925 158.993 433.657 159.052C433.393 159.112 433.07 159.147 432.687 159.157C432.011 159.176 431.402 159.075 430.86 158.851C430.318 158.622 429.888 158.269 429.57 157.792C429.257 157.315 429.103 156.718 429.108 156.002V144.801ZM445.214 150.573L442.753 150.842C442.683 150.593 442.561 150.359 442.387 150.141C442.218 149.922 441.99 149.745 441.701 149.611C441.413 149.477 441.06 149.41 440.642 149.41C440.081 149.41 439.608 149.532 439.225 149.775C438.848 150.019 438.661 150.335 438.666 150.722C438.661 151.055 438.783 151.326 439.032 151.535C439.285 151.744 439.703 151.915 440.284 152.05L442.238 152.467C443.322 152.701 444.127 153.071 444.654 153.578C445.186 154.086 445.455 154.749 445.46 155.57C445.455 156.29 445.244 156.927 444.826 157.479C444.413 158.026 443.839 158.453 443.103 158.761C442.368 159.07 441.522 159.224 440.568 159.224C439.166 159.224 438.037 158.93 437.182 158.344C436.327 157.752 435.817 156.929 435.653 155.875L438.286 155.622C438.405 156.139 438.659 156.529 439.047 156.793C439.434 157.056 439.939 157.188 440.56 157.188C441.202 157.188 441.716 157.056 442.104 156.793C442.497 156.529 442.693 156.203 442.693 155.816C442.693 155.488 442.566 155.217 442.313 155.003C442.064 154.789 441.676 154.625 441.15 154.511L439.196 154.1C438.097 153.872 437.284 153.487 436.757 152.945C436.23 152.398 435.969 151.707 435.974 150.871C435.969 150.165 436.161 149.554 436.548 149.037C436.941 148.515 437.485 148.112 438.181 147.829C438.882 147.54 439.69 147.396 440.605 147.396C441.947 147.396 443.004 147.682 443.775 148.254C444.55 148.826 445.03 149.599 445.214 150.573Z" fill="#111827"/>
<path d="M32 195.333C32 189.074 37.0741 184 43.3333 184H475.667C481.926 184 487 189.074 487 195.333V215.167C487 221.426 481.926 226.5 475.667 226.5H43.3333C37.0741 226.5 32 221.426 32 215.167V195.333Z" fill="#0073DE"/>
<path d="M222.188 203.878C222.156 203.553 222.017 203.301 221.773 203.121C221.529 202.942 221.198 202.852 220.779 202.852C220.495 202.852 220.255 202.892 220.059 202.973C219.863 203.05 219.713 203.159 219.608 203.299C219.506 203.438 219.455 203.596 219.455 203.773C219.45 203.921 219.481 204.05 219.548 204.16C219.617 204.27 219.713 204.365 219.833 204.446C219.954 204.523 220.094 204.592 220.252 204.651C220.41 204.707 220.579 204.755 220.759 204.796L221.5 204.973C221.859 205.053 222.189 205.161 222.49 205.295C222.79 205.429 223.05 205.594 223.27 205.79C223.49 205.986 223.661 206.216 223.781 206.482C223.905 206.748 223.968 207.052 223.971 207.396C223.968 207.9 223.839 208.337 223.584 208.708C223.332 209.075 222.967 209.361 222.49 209.565C222.015 209.766 221.442 209.867 220.771 209.867C220.106 209.867 219.526 209.765 219.032 209.561C218.541 209.357 218.158 209.055 217.881 208.655C217.608 208.253 217.464 207.755 217.451 207.162H219.137C219.156 207.439 219.235 207.669 219.375 207.854C219.517 208.037 219.706 208.175 219.942 208.269C220.181 208.36 220.45 208.406 220.751 208.406C221.046 208.406 221.302 208.363 221.52 208.277C221.74 208.191 221.91 208.072 222.031 207.919C222.152 207.766 222.212 207.59 222.212 207.392C222.212 207.206 222.157 207.051 222.047 206.925C221.94 206.799 221.781 206.691 221.572 206.603C221.365 206.514 221.112 206.434 220.811 206.361L219.914 206.136C219.219 205.967 218.67 205.703 218.268 205.343C217.865 204.984 217.665 204.499 217.668 203.89C217.665 203.391 217.798 202.955 218.067 202.582C218.338 202.209 218.709 201.918 219.181 201.709C219.654 201.5 220.19 201.395 220.791 201.395C221.403 201.395 221.937 201.5 222.393 201.709C222.852 201.918 223.209 202.209 223.464 202.582C223.718 202.955 223.85 203.387 223.858 203.878H222.188ZM225.111 209.75V203.568H226.825V209.75H225.111ZM225.972 202.771C225.717 202.771 225.498 202.687 225.316 202.518C225.136 202.346 225.046 202.141 225.046 201.902C225.046 201.666 225.136 201.463 225.316 201.294C225.498 201.123 225.717 201.037 225.972 201.037C226.227 201.037 226.444 201.123 226.624 201.294C226.806 201.463 226.898 201.666 226.898 201.902C226.898 202.141 226.806 202.346 226.624 202.518C226.444 202.687 226.227 202.771 225.972 202.771ZM230.984 212.197C230.428 212.197 229.952 212.121 229.555 211.968C229.16 211.817 228.846 211.612 228.613 211.352C228.38 211.092 228.228 210.799 228.158 210.474L229.744 210.261C229.792 210.385 229.869 210.5 229.973 210.607C230.078 210.715 230.216 210.8 230.388 210.865C230.562 210.932 230.774 210.965 231.024 210.965C231.397 210.965 231.704 210.874 231.945 210.692C232.19 210.512 232.312 210.21 232.312 209.786V208.655H232.239C232.164 208.827 232.051 208.989 231.901 209.142C231.751 209.295 231.558 209.42 231.322 209.517C231.086 209.613 230.804 209.661 230.476 209.661C230.012 209.661 229.59 209.554 229.209 209.339C228.83 209.122 228.529 208.791 228.303 208.345C228.08 207.897 227.969 207.331 227.969 206.647C227.969 205.947 228.083 205.362 228.311 204.892C228.539 204.423 228.842 204.071 229.221 203.838C229.602 203.604 230.019 203.488 230.472 203.488C230.819 203.488 231.108 203.547 231.342 203.665C231.575 203.78 231.763 203.925 231.905 204.099C232.05 204.271 232.161 204.44 232.239 204.607H232.304V203.568H234.006V209.81C234.006 210.336 233.877 210.776 233.62 211.13C233.362 211.485 233.005 211.75 232.549 211.927C232.096 212.107 231.574 212.197 230.984 212.197ZM231.02 208.374C231.296 208.374 231.53 208.305 231.72 208.168C231.913 208.029 232.061 207.83 232.163 207.573C232.267 207.312 232.32 207.001 232.32 206.639C232.32 206.277 232.269 205.963 232.167 205.697C232.065 205.429 231.917 205.221 231.724 205.073C231.531 204.926 231.296 204.852 231.02 204.852C230.738 204.852 230.501 204.929 230.307 205.081C230.114 205.232 229.968 205.441 229.869 205.709C229.769 205.978 229.72 206.287 229.72 206.639C229.72 206.996 229.769 207.304 229.869 207.565C229.971 207.822 230.117 208.022 230.307 208.164C230.501 208.304 230.738 208.374 231.02 208.374ZM237.085 206.176V209.75H235.37V203.568H237.004V204.659H237.077C237.214 204.299 237.443 204.015 237.765 203.806C238.087 203.594 238.477 203.488 238.936 203.488C239.365 203.488 239.74 203.582 240.059 203.769C240.378 203.957 240.627 204.226 240.804 204.574C240.981 204.92 241.069 205.334 241.069 205.814V209.75H239.355V206.12C239.357 205.741 239.261 205.446 239.065 205.234C238.869 205.02 238.599 204.912 238.256 204.912C238.025 204.912 237.821 204.962 237.644 205.061C237.47 205.161 237.333 205.305 237.234 205.496C237.137 205.684 237.088 205.911 237.085 206.176ZM247.998 209.75H245.076V201.508H248.022C248.851 201.508 249.565 201.673 250.163 202.003C250.761 202.33 251.221 202.801 251.543 203.415C251.868 204.03 252.03 204.765 252.03 205.621C252.03 206.479 251.868 207.217 251.543 207.834C251.221 208.451 250.759 208.925 250.155 209.255C249.554 209.585 248.835 209.75 247.998 209.75ZM246.818 208.257H247.925C248.44 208.257 248.874 208.166 249.225 207.983C249.579 207.798 249.845 207.512 250.022 207.126C250.202 206.737 250.292 206.235 250.292 205.621C250.292 205.012 250.202 204.514 250.022 204.128C249.845 203.741 249.581 203.457 249.229 203.274C248.878 203.092 248.444 203.001 247.929 203.001H246.818V208.257ZM256.082 209.871C255.457 209.871 254.916 209.738 254.46 209.472C254.007 209.204 253.657 208.831 253.41 208.353C253.163 207.873 253.039 207.316 253.039 206.683C253.039 206.045 253.163 205.487 253.41 205.009C253.657 204.529 254.007 204.156 254.46 203.89C254.916 203.622 255.457 203.488 256.082 203.488C256.707 203.488 257.247 203.622 257.7 203.89C258.156 204.156 258.508 204.529 258.754 205.009C259.001 205.487 259.125 206.045 259.125 206.683C259.125 207.316 259.001 207.873 258.754 208.353C258.508 208.831 258.156 209.204 257.7 209.472C257.247 209.738 256.707 209.871 256.082 209.871ZM256.09 208.543C256.375 208.543 256.612 208.462 256.802 208.301C256.993 208.137 257.137 207.915 257.233 207.633C257.332 207.351 257.382 207.031 257.382 206.671C257.382 206.312 257.332 205.991 257.233 205.709C257.137 205.428 256.993 205.205 256.802 205.041C256.612 204.878 256.375 204.796 256.09 204.796C255.803 204.796 255.562 204.878 255.366 205.041C255.173 205.205 255.026 205.428 254.927 205.709C254.83 205.991 254.782 206.312 254.782 206.671C254.782 207.031 254.83 207.351 254.927 207.633C255.026 207.915 255.173 208.137 255.366 208.301C255.562 208.462 255.803 208.543 256.09 208.543ZM263.033 209.871C262.399 209.871 261.855 209.737 261.399 209.468C260.945 209.197 260.596 208.822 260.352 208.341C260.111 207.861 259.99 207.308 259.99 206.683C259.99 206.05 260.112 205.495 260.356 205.017C260.603 204.537 260.953 204.162 261.407 203.894C261.86 203.623 262.399 203.488 263.025 203.488C263.564 203.488 264.036 203.586 264.441 203.781C264.846 203.977 265.167 204.252 265.403 204.607C265.639 204.961 265.769 205.377 265.793 205.854H264.176C264.13 205.546 264.009 205.297 263.813 205.11C263.62 204.919 263.367 204.824 263.053 204.824C262.787 204.824 262.555 204.896 262.356 205.041C262.161 205.183 262.008 205.391 261.898 205.665C261.788 205.939 261.733 206.27 261.733 206.659C261.733 207.054 261.786 207.389 261.894 207.665C262.004 207.942 262.158 208.152 262.356 208.297C262.555 208.442 262.787 208.514 263.053 208.514C263.249 208.514 263.424 208.474 263.58 208.394C263.738 208.313 263.868 208.196 263.97 208.044C264.075 207.888 264.143 207.701 264.176 207.484H265.793C265.767 207.956 265.638 208.372 265.407 208.732C265.179 209.089 264.864 209.368 264.461 209.569C264.059 209.77 263.583 209.871 263.033 209.871ZM270.855 207.118V203.568H272.57V209.75H270.924V208.627H270.859C270.72 208.989 270.488 209.28 270.163 209.5C269.841 209.72 269.448 209.83 268.984 209.83C268.571 209.83 268.207 209.737 267.893 209.549C267.579 209.361 267.334 209.094 267.157 208.748C266.982 208.402 266.894 207.987 266.891 207.504V203.568H268.606V207.198C268.608 207.563 268.706 207.852 268.9 208.064C269.093 208.276 269.352 208.382 269.676 208.382C269.883 208.382 270.076 208.335 270.256 208.241C270.436 208.144 270.58 208.002 270.69 207.814C270.803 207.626 270.858 207.394 270.855 207.118ZM273.941 209.75V203.568H275.575V204.659H275.648C275.777 204.297 275.991 204.011 276.292 203.802C276.592 203.592 276.952 203.488 277.37 203.488C277.794 203.488 278.155 203.594 278.453 203.806C278.751 204.015 278.949 204.299 279.049 204.659H279.113C279.239 204.305 279.467 204.022 279.797 203.81C280.13 203.595 280.523 203.488 280.976 203.488C281.553 203.488 282.021 203.671 282.381 204.039C282.743 204.404 282.924 204.922 282.924 205.593V209.75H281.214V205.931C281.214 205.587 281.123 205.33 280.94 205.158C280.758 204.986 280.53 204.9 280.256 204.9C279.945 204.9 279.702 205 279.528 205.198C279.353 205.394 279.266 205.653 279.266 205.975V209.75H277.604V205.894C277.604 205.591 277.517 205.35 277.342 205.17C277.17 204.99 276.944 204.9 276.662 204.9C276.471 204.9 276.3 204.949 276.147 205.045C275.997 205.139 275.877 205.272 275.789 205.444C275.7 205.613 275.656 205.811 275.656 206.039V209.75H273.941ZM287.096 209.871C286.46 209.871 285.913 209.742 285.454 209.484C284.998 209.224 284.646 208.857 284.399 208.382C284.152 207.904 284.029 207.339 284.029 206.687C284.029 206.051 284.152 205.493 284.399 205.013C284.646 204.533 284.994 204.158 285.442 203.89C285.892 203.622 286.421 203.488 287.027 203.488C287.435 203.488 287.815 203.553 288.166 203.685C288.521 203.814 288.829 204.008 289.092 204.268C289.358 204.529 289.564 204.856 289.712 205.25C289.859 205.642 289.933 206.101 289.933 206.627V207.098H284.713V206.035H288.319C288.319 205.788 288.266 205.57 288.158 205.379C288.051 205.189 287.902 205.04 287.712 204.933C287.524 204.823 287.305 204.768 287.056 204.768C286.795 204.768 286.565 204.828 286.363 204.949C286.165 205.067 286.009 205.226 285.896 205.428C285.784 205.626 285.726 205.847 285.723 206.092V207.102C285.723 207.408 285.78 207.672 285.892 207.895C286.008 208.117 286.17 208.289 286.379 208.41C286.589 208.531 286.837 208.591 287.124 208.591C287.314 208.591 287.489 208.564 287.647 208.51C287.805 208.457 287.941 208.376 288.054 208.269C288.166 208.162 288.252 208.03 288.311 207.875L289.897 207.979C289.816 208.36 289.651 208.693 289.402 208.977C289.155 209.259 288.836 209.479 288.444 209.637C288.055 209.793 287.606 209.871 287.096 209.871ZM292.767 206.176V209.75H291.052V203.568H292.686V204.659H292.758C292.895 204.299 293.125 204.015 293.447 203.806C293.769 203.594 294.159 203.488 294.618 203.488C295.047 203.488 295.421 203.582 295.741 203.769C296.06 203.957 296.308 204.226 296.485 204.574C296.662 204.92 296.751 205.334 296.751 205.814V209.75H295.036V206.12C295.039 205.741 294.942 205.446 294.747 205.234C294.551 205.02 294.281 204.912 293.938 204.912C293.707 204.912 293.503 204.962 293.326 205.061C293.152 205.161 293.015 205.305 292.915 205.496C292.819 205.684 292.769 205.911 292.767 206.176ZM301.39 203.568V204.856H297.667V203.568H301.39ZM298.513 202.087H300.227V207.85C300.227 208.009 300.251 208.132 300.3 208.221C300.348 208.307 300.415 208.367 300.501 208.402C300.589 208.437 300.691 208.454 300.807 208.454C300.887 208.454 300.968 208.447 301.048 208.434C301.129 208.418 301.19 208.406 301.233 208.398L301.503 209.674C301.417 209.7 301.296 209.731 301.141 209.766C300.985 209.804 300.796 209.826 300.573 209.835C300.16 209.851 299.798 209.796 299.487 209.67C299.178 209.543 298.938 209.348 298.766 209.082C298.594 208.816 298.51 208.481 298.513 208.076V202.087Z" fill="white"/>
</g>
<defs>
<clipPath id="clip0_55148_23799">
<rect width="519" height="268" fill="white"/>
</clipPath>
</defs>
</svg>
