<svg width="400" height="125" viewBox="0 0 400 125" fill="none" xmlns="http://www.w3.org/2000/svg">
<g clip-path="url(#clip0_55148_23821)">
<rect width="400" height="125" fill="white"/>
<path d="M30.049 22.9091V36H27.9396L21.7713 27.0831H21.6626V36H19.2912V22.9091H21.4134L27.5753 31.8324H27.6903V22.9091H30.049ZM36.6154 36.1918C35.6566 36.1918 34.8256 35.9808 34.1225 35.5589C33.4194 35.1371 32.8739 34.5469 32.4861 33.7884C32.1026 33.0298 31.9108 32.1435 31.9108 31.1293C31.9108 30.1151 32.1026 29.2266 32.4861 28.4638C32.8739 27.701 33.4194 27.1087 34.1225 26.6868C34.8256 26.2649 35.6566 26.054 36.6154 26.054C37.5742 26.054 38.4052 26.2649 39.1083 26.6868C39.8114 27.1087 40.3547 27.701 40.7383 28.4638C41.126 29.2266 41.3199 30.1151 41.3199 31.1293C41.3199 32.1435 41.126 33.0298 40.7383 33.7884C40.3547 34.5469 39.8114 35.1371 39.1083 35.5589C38.4052 35.9808 37.5742 36.1918 36.6154 36.1918ZM36.6282 34.3381C37.1481 34.3381 37.5827 34.1953 37.9321 33.9098C38.2816 33.62 38.5415 33.2322 38.712 32.7464C38.8867 32.2607 38.9741 31.7195 38.9741 31.1229C38.9741 30.522 38.8867 29.9787 38.712 29.4929C38.5415 29.0028 38.2816 28.6129 37.9321 28.3232C37.5827 28.0334 37.1481 27.8885 36.6282 27.8885C36.0955 27.8885 35.6523 28.0334 35.2986 28.3232C34.9492 28.6129 34.6871 29.0028 34.5124 29.4929C34.342 29.9787 34.2567 30.522 34.2567 31.1229C34.2567 31.7195 34.342 32.2607 34.5124 32.7464C34.6871 33.2322 34.9492 33.62 35.2986 33.9098C35.6523 34.1953 36.0955 34.3381 36.6282 34.3381ZM47.9886 26.1818V27.9716H42.3444V26.1818H47.9886ZM43.7379 23.8295H46.0518V33.0469C46.0518 33.358 46.0987 33.5966 46.1924 33.7628C46.2904 33.9247 46.4183 34.0355 46.5759 34.0952C46.7336 34.1548 46.9083 34.1847 47.1001 34.1847C47.245 34.1847 47.3771 34.174 47.4964 34.1527C47.62 34.1314 47.7137 34.1122 47.7777 34.0952L48.1676 35.9041C48.044 35.9467 47.8671 35.9936 47.637 36.0447C47.4112 36.0959 47.1342 36.1257 46.8061 36.1342C46.2265 36.1513 45.7045 36.0639 45.24 35.8722C44.7755 35.6761 44.4069 35.3736 44.1342 34.9645C43.8657 34.5554 43.7336 34.044 43.7379 33.4304V23.8295ZM49.7258 36V26.1818H52.0397V36H49.7258ZM50.8891 24.7884C50.5227 24.7884 50.2073 24.6669 49.9431 24.424C49.6789 24.1768 49.5468 23.8807 49.5468 23.5355C49.5468 23.1861 49.6789 22.8899 49.9431 22.647C50.2073 22.3999 50.5227 22.2763 50.8891 22.2763C51.2599 22.2763 51.5752 22.3999 51.8352 22.647C52.0994 22.8899 52.2315 23.1861 52.2315 23.5355C52.2315 23.8807 52.0994 24.1768 51.8352 24.424C51.5752 24.6669 51.2599 24.7884 50.8891 24.7884ZM59.1942 26.1818V27.9716H53.3902V26.1818H59.1942ZM54.8412 36V25.255C54.8412 24.5945 54.9775 24.0447 55.2503 23.6058C55.5272 23.1669 55.898 22.8388 56.3625 22.6214C56.827 22.4041 57.3426 22.2955 57.9093 22.2955C58.3099 22.2955 58.6657 22.3274 58.9768 22.3913C59.2879 22.4553 59.518 22.5128 59.6672 22.5639L59.2069 24.3537C59.1089 24.3239 58.9853 24.294 58.8362 24.2642C58.687 24.2301 58.5209 24.2131 58.3376 24.2131C57.9072 24.2131 57.6025 24.3175 57.4236 24.5263C57.2488 24.7308 57.1615 25.0249 57.1615 25.4084V36H54.8412ZM60.8083 36V26.1818H63.1222V36H60.8083ZM61.9716 24.7884C61.6052 24.7884 61.2898 24.6669 61.0256 24.424C60.7614 24.1768 60.6293 23.8807 60.6293 23.5355C60.6293 23.1861 60.7614 22.8899 61.0256 22.647C61.2898 22.3999 61.6052 22.2763 61.9716 22.2763C62.3424 22.2763 62.6577 22.3999 62.9177 22.647C63.1819 22.8899 63.314 23.1861 63.314 23.5355C63.314 23.8807 63.1819 24.1768 62.9177 24.424C62.6577 24.6669 62.3424 24.7884 61.9716 24.7884ZM69.5863 36.1918C68.6062 36.1918 67.7646 35.9766 67.0615 35.5462C66.3626 35.1158 65.8235 34.5213 65.4443 33.7628C65.0693 33 64.8818 32.1222 64.8818 31.1293C64.8818 30.1321 65.0735 29.2521 65.4571 28.4893C65.8406 27.7223 66.3818 27.1257 67.0806 26.6996C67.7838 26.2692 68.6147 26.054 69.5735 26.054C70.3704 26.054 71.0757 26.201 71.6893 26.495C72.3072 26.7848 72.7994 27.196 73.1659 27.7287C73.5323 28.2571 73.7412 28.875 73.7923 29.5824H71.5806C71.4912 29.1094 71.2781 28.7152 70.9414 28.3999C70.6091 28.0803 70.1637 27.9205 69.6055 27.9205C69.1325 27.9205 68.717 28.0483 68.3591 28.304C68.0011 28.5554 67.722 28.9176 67.5217 29.3906C67.3257 29.8636 67.2277 30.4304 67.2277 31.0909C67.2277 31.7599 67.3257 32.3352 67.5217 32.8168C67.7177 33.294 67.9926 33.6626 68.3463 33.9226C68.7042 34.1783 69.124 34.3061 69.6055 34.3061C69.9464 34.3061 70.2511 34.2422 70.5196 34.1143C70.7923 33.9822 71.0203 33.7926 71.2035 33.5455C71.3868 33.2983 71.5125 32.9979 71.5806 32.6442H73.7923C73.7369 33.3388 73.5323 33.9545 73.1787 34.4915C72.825 35.0241 72.3434 35.4418 71.7341 35.7443C71.1247 36.0426 70.4088 36.1918 69.5863 36.1918ZM78.3196 36.1982C77.6975 36.1982 77.1371 36.0874 76.6385 35.8658C76.1442 35.6399 75.7521 35.3075 75.4624 34.8686C75.1769 34.4297 75.0341 33.8885 75.0341 33.245C75.0341 32.6911 75.1364 32.233 75.3409 31.8707C75.5455 31.5085 75.8246 31.2188 76.1783 31.0014C76.532 30.7841 76.9304 30.62 77.3736 30.5092C77.821 30.3942 78.2834 30.3111 78.7607 30.2599C79.3359 30.2003 79.8026 30.147 80.1605 30.1001C80.5185 30.049 80.7784 29.9723 80.9403 29.87C81.1065 29.7635 81.1896 29.5994 81.1896 29.3778V29.3395C81.1896 28.858 81.0469 28.4851 80.7614 28.2209C80.4759 27.9567 80.0646 27.8246 79.5277 27.8246C78.9609 27.8246 78.5114 27.9482 78.179 28.1953C77.8509 28.4425 77.6293 28.7344 77.5142 29.071L75.3537 28.7642C75.5242 28.1676 75.8054 27.669 76.1975 27.2685C76.5895 26.8636 77.0689 26.5611 77.6357 26.3608C78.2024 26.1562 78.8288 26.054 79.5149 26.054C79.9879 26.054 80.4588 26.1094 80.9276 26.2202C81.3963 26.331 81.8246 26.5142 82.2124 26.7699C82.6001 27.0213 82.9112 27.3643 83.1456 27.799C83.3842 28.2337 83.5036 28.777 83.5036 29.429V36H81.2791V34.6513H81.2024C81.0618 34.924 80.8636 35.1797 80.608 35.4183C80.3565 35.6527 80.0391 35.8423 79.6555 35.9872C79.2763 36.1278 78.831 36.1982 78.3196 36.1982ZM78.9205 34.4979C79.385 34.4979 79.7876 34.4062 80.1286 34.223C80.4695 34.0355 80.7315 33.7884 80.9148 33.4815C81.1023 33.1747 81.196 32.8402 81.196 32.478V31.321C81.1236 31.3807 81 31.4361 80.8253 31.4872C80.6548 31.5384 80.4631 31.5831 80.25 31.6214C80.0369 31.6598 79.826 31.6939 79.6172 31.7237C79.4084 31.7536 79.2273 31.7791 79.0739 31.8004C78.7287 31.8473 78.4198 31.924 78.147 32.0305C77.8743 32.1371 77.6591 32.2862 77.5014 32.478C77.3438 32.6655 77.2649 32.9084 77.2649 33.2067C77.2649 33.6328 77.4205 33.9545 77.7315 34.1719C78.0426 34.3892 78.4389 34.4979 78.9205 34.4979ZM90.535 26.1818V27.9716H84.8908V26.1818H90.535ZM86.2843 23.8295H88.5982V33.0469C88.5982 33.358 88.645 33.5966 88.7388 33.7628C88.8368 33.9247 88.9647 34.0355 89.1223 34.0952C89.28 34.1548 89.4547 34.1847 89.6465 34.1847C89.7914 34.1847 89.9235 34.174 90.0428 34.1527C90.1664 34.1314 90.2601 34.1122 90.324 34.0952L90.7139 35.9041C90.5904 35.9467 90.4135 35.9936 90.1834 36.0447C89.9575 36.0959 89.6806 36.1257 89.3524 36.1342C88.7729 36.1513 88.2509 36.0639 87.7864 35.8722C87.3219 35.6761 86.9533 35.3736 86.6806 34.9645C86.4121 34.5554 86.28 34.044 86.2843 33.4304V23.8295ZM92.2722 36V26.1818H94.5861V36H92.2722ZM93.4355 24.7884C93.069 24.7884 92.7537 24.6669 92.4895 24.424C92.2253 24.1768 92.0932 23.8807 92.0932 23.5355C92.0932 23.1861 92.2253 22.8899 92.4895 22.647C92.7537 22.3999 93.069 22.2763 93.4355 22.2763C93.8062 22.2763 94.1216 22.3999 94.3815 22.647C94.6457 22.8899 94.7778 23.1861 94.7778 23.5355C94.7778 23.8807 94.6457 24.1768 94.3815 24.424C94.1216 24.6669 93.8062 24.7884 93.4355 24.7884ZM101.05 36.1918C100.091 36.1918 99.2604 35.9808 98.5573 35.5589C97.8542 35.1371 97.3087 34.5469 96.9209 33.7884C96.5374 33.0298 96.3456 32.1435 96.3456 31.1293C96.3456 30.1151 96.5374 29.2266 96.9209 28.4638C97.3087 27.701 97.8542 27.1087 98.5573 26.6868C99.2604 26.2649 100.091 26.054 101.05 26.054C102.009 26.054 102.84 26.2649 103.543 26.6868C104.246 27.1087 104.79 27.701 105.173 28.4638C105.561 29.2266 105.755 30.1151 105.755 31.1293C105.755 32.1435 105.561 33.0298 105.173 33.7884C104.79 34.5469 104.246 35.1371 103.543 35.5589C102.84 35.9808 102.009 36.1918 101.05 36.1918ZM101.063 34.3381C101.583 34.3381 102.018 34.1953 102.367 33.9098C102.716 33.62 102.976 33.2322 103.147 32.7464C103.321 32.2607 103.409 31.7195 103.409 31.1229C103.409 30.522 103.321 29.9787 103.147 29.4929C102.976 29.0028 102.716 28.6129 102.367 28.3232C102.018 28.0334 101.583 27.8885 101.063 27.8885C100.53 27.8885 100.087 28.0334 99.7334 28.3232C99.384 28.6129 99.1219 29.0028 98.9472 29.4929C98.7767 29.9787 98.6915 30.522 98.6915 31.1229C98.6915 31.7195 98.7767 32.2607 98.9472 32.7464C99.1219 33.2322 99.384 33.62 99.7334 33.9098C100.087 34.1953 100.53 34.3381 101.063 34.3381ZM109.835 30.2472V36H107.521V26.1818H109.732V27.8501H109.847C110.073 27.3004 110.433 26.8636 110.928 26.5398C111.426 26.2159 112.042 26.054 112.775 26.054C113.453 26.054 114.043 26.1989 114.546 26.4886C115.053 26.7784 115.445 27.1982 115.722 27.7479C116.003 28.2976 116.141 28.9645 116.137 29.7486V36H113.823V30.1065C113.823 29.4503 113.653 28.9368 113.312 28.5661C112.975 28.1953 112.509 28.0099 111.912 28.0099C111.507 28.0099 111.147 28.0994 110.832 28.2784C110.521 28.4531 110.276 28.7067 110.097 29.0391C109.922 29.3714 109.835 29.7741 109.835 30.2472ZM126.051 28.777L123.942 29.0071C123.882 28.794 123.778 28.5938 123.629 28.4062C123.484 28.2188 123.288 28.0675 123.041 27.9524C122.794 27.8374 122.491 27.7798 122.133 27.7798C121.652 27.7798 121.247 27.8842 120.919 28.093C120.595 28.3018 120.435 28.5724 120.439 28.9048C120.435 29.1903 120.539 29.4226 120.752 29.6016C120.97 29.7805 121.328 29.9276 121.826 30.0426L123.501 30.4006C124.43 30.6009 125.12 30.9183 125.572 31.353C126.028 31.7876 126.258 32.3565 126.262 33.0597C126.258 33.6776 126.077 34.223 125.719 34.696C125.365 35.1648 124.873 35.5312 124.242 35.7955C123.612 36.0597 122.887 36.1918 122.069 36.1918C120.867 36.1918 119.9 35.9403 119.167 35.4375C118.434 34.9304 117.997 34.2251 117.857 33.3217L120.113 33.1044C120.215 33.5476 120.433 33.8821 120.765 34.108C121.098 34.3338 121.53 34.4467 122.063 34.4467C122.612 34.4467 123.054 34.3338 123.386 34.108C123.723 33.8821 123.891 33.603 123.891 33.2706C123.891 32.9893 123.782 32.7571 123.565 32.5739C123.352 32.3906 123.019 32.25 122.568 32.152L120.893 31.8004C119.951 31.6044 119.255 31.2741 118.803 30.8097C118.351 30.3409 118.127 29.7486 118.132 29.0327C118.127 28.4276 118.291 27.9034 118.624 27.4602C118.96 27.0128 119.427 26.6676 120.024 26.4247C120.625 26.1776 121.317 26.054 122.101 26.054C123.252 26.054 124.157 26.299 124.818 26.7891C125.482 27.2791 125.894 27.9418 126.051 28.777Z" fill="#212329"/>
<rect x="8" y="52" width="384" height="60" rx="8" fill="#EEF5FF" fill-opacity="0.6"/>
<rect x="18" y="60" width="20" height="20" rx="10" fill="#D9E7FF" fill-opacity="0.6"/>
<path d="M27.9999 75.5999C31.093 75.5999 33.5999 73.093 33.5999 69.9999C33.5999 66.9068 31.093 64.3999 27.9999 64.3999C24.9068 64.3999 22.3999 66.9068 22.3999 69.9999C22.3999 73.093 24.9068 75.5999 27.9999 75.5999ZM27.2999 67.8999C27.2999 67.5127 27.6127 67.1999 27.9999 67.1999C28.3871 67.1999 28.6999 67.5127 28.6999 67.8999C28.6999 68.2871 28.3871 68.5999 27.9999 68.5999C27.6127 68.5999 27.2999 68.2871 27.2999 67.8999ZM27.1249 69.2999H28.1749C28.4658 69.2999 28.6999 69.534 28.6999 69.8249V71.7499H28.8749C29.1658 71.7499 29.3999 71.984 29.3999 72.2749C29.3999 72.5658 29.1658 72.7999 28.8749 72.7999H27.1249C26.834 72.7999 26.5999 72.5658 26.5999 72.2749C26.5999 71.984 26.834 71.7499 27.1249 71.7499H27.6499V70.3499H27.1249C26.834 70.3499 26.5999 70.1158 26.5999 69.8249C26.5999 69.534 26.834 69.2999 27.1249 69.2999Z" fill="#3772FF"/>
<path d="M46.6761 67.9119V66.8182H54.3125V67.9119H51.1108V77H49.8778V67.9119H46.6761ZM57.1456 72.4062V77H55.9723V66.8182H57.1456V70.5568H57.245C57.424 70.1624 57.6925 69.8492 58.0504 69.6172C58.4117 69.3819 58.8923 69.2642 59.4922 69.2642C60.0125 69.2642 60.4683 69.3686 60.8594 69.5774C61.2505 69.7829 61.5537 70.0994 61.7692 70.527C61.9879 70.9512 62.0973 71.4915 62.0973 72.1477V77H60.924V72.2273C60.924 71.6207 60.7666 71.1518 60.4517 70.8203C60.1401 70.4856 59.7076 70.3182 59.1541 70.3182C58.7696 70.3182 58.4249 70.3994 58.12 70.5618C57.8184 70.7242 57.5798 70.9612 57.4041 71.2727C57.2318 71.5843 57.1456 71.9621 57.1456 72.4062ZM67.3615 77.1591C66.6257 77.1591 65.991 76.9967 65.4574 76.6719C64.9271 76.3438 64.5177 75.8864 64.2294 75.2997C63.9443 74.7098 63.8018 74.0237 63.8018 73.2415C63.8018 72.4593 63.9443 71.7699 64.2294 71.1733C64.5177 70.5734 64.9188 70.1061 65.4325 69.7713C65.9495 69.4332 66.5528 69.2642 67.2422 69.2642C67.6399 69.2642 68.0326 69.3305 68.4204 69.4631C68.8082 69.5956 69.1612 69.8111 69.4794 70.1094C69.7976 70.4044 70.0511 70.7955 70.24 71.2827C70.4289 71.7699 70.5234 72.3698 70.5234 73.0824V73.5795H64.637V72.5653H69.3302C69.3302 72.1345 69.2441 71.75 69.0717 71.4119C68.9027 71.0739 68.6607 70.8071 68.3459 70.6115C68.0343 70.416 67.6664 70.3182 67.2422 70.3182C66.7748 70.3182 66.3705 70.4342 66.0291 70.6662C65.691 70.8949 65.4308 71.1932 65.2485 71.5611C65.0663 71.929 64.9751 72.3234 64.9751 72.7443V73.4205C64.9751 73.9972 65.0745 74.486 65.2734 74.8871C65.4756 75.2848 65.7557 75.5881 66.1136 75.7969C66.4716 76.0024 66.8875 76.1051 67.3615 76.1051C67.6697 76.1051 67.9481 76.062 68.1967 75.9759C68.4486 75.8864 68.6657 75.7538 68.848 75.5781C69.0303 75.3991 69.1711 75.1771 69.2706 74.9119L70.4041 75.2301C70.2848 75.6146 70.0842 75.9527 69.8025 76.2443C69.5208 76.5327 69.1728 76.758 68.7585 76.9205C68.3442 77.0795 67.8785 77.1591 67.3615 77.1591ZM77.251 66.8182V77H76.0777V66.8182H77.251ZM82.5177 77.1591C81.7819 77.1591 81.1472 76.9967 80.6136 76.6719C80.0833 76.3438 79.6739 75.8864 79.3856 75.2997C79.1005 74.7098 78.958 74.0237 78.958 73.2415C78.958 72.4593 79.1005 71.7699 79.3856 71.1733C79.6739 70.5734 80.075 70.1061 80.5887 69.7713C81.1057 69.4332 81.709 69.2642 82.3984 69.2642C82.7961 69.2642 83.1888 69.3305 83.5766 69.4631C83.9644 69.5956 84.3174 69.8111 84.6356 70.1094C84.9538 70.4044 85.2073 70.7955 85.3962 71.2827C85.5852 71.7699 85.6796 72.3698 85.6796 73.0824V73.5795H79.7932V72.5653H84.4864C84.4864 72.1345 84.4003 71.75 84.2279 71.4119C84.0589 71.0739 83.8169 70.8071 83.5021 70.6115C83.1905 70.416 82.8226 70.3182 82.3984 70.3182C81.931 70.3182 81.5267 70.4342 81.1853 70.6662C80.8472 70.8949 80.587 71.1932 80.4048 71.5611C80.2225 71.929 80.1313 72.3234 80.1313 72.7443V73.4205C80.1313 73.9972 80.2307 74.486 80.4296 74.8871C80.6318 75.2848 80.9119 75.5881 81.2698 75.7969C81.6278 76.0024 82.0437 76.1051 82.5177 76.1051C82.8259 76.1051 83.1043 76.062 83.3529 75.9759C83.6048 75.8864 83.8219 75.7538 84.0042 75.5781C84.1865 75.3991 84.3273 75.1771 84.4268 74.9119L85.5603 75.2301C85.441 75.6146 85.2405 75.9527 84.9587 76.2443C84.677 76.5327 84.329 76.758 83.9147 76.9205C83.5004 77.0795 83.0347 77.1591 82.5177 77.1591ZM88.5537 72.4062V77H87.3804V69.3636H88.5139V70.5568H88.6134C88.7923 70.169 89.0641 69.8575 89.4287 69.6222C89.7933 69.3835 90.2639 69.2642 90.8406 69.2642C91.3577 69.2642 91.8101 69.3703 92.1979 69.5824C92.5857 69.7912 92.8873 70.1094 93.1027 70.5369C93.3181 70.9612 93.4259 71.4981 93.4259 72.1477V77H92.2526V72.2273C92.2526 71.6274 92.0968 71.16 91.7852 70.8253C91.4737 70.4872 91.0461 70.3182 90.5026 70.3182C90.128 70.3182 89.7933 70.3994 89.4983 70.5618C89.2066 70.7242 88.9763 70.9612 88.8073 71.2727C88.6382 71.5843 88.5537 71.9621 88.5537 72.4062ZM98.3694 77.1591C97.733 77.1591 97.1712 76.9983 96.684 76.6768C96.1968 76.352 95.8156 75.8946 95.5405 75.3047C95.2655 74.7114 95.1279 74.0104 95.1279 73.2017C95.1279 72.3996 95.2655 71.7036 95.5405 71.1136C95.8156 70.5237 96.1985 70.0679 96.689 69.7464C97.1795 69.425 97.7463 69.2642 98.3893 69.2642C98.8864 69.2642 99.2792 69.3471 99.5675 69.5128C99.8592 69.6752 100.081 69.8608 100.234 70.0696C100.39 70.2751 100.51 70.4441 100.597 70.5767H100.696V66.8182H101.869V77H100.736V75.8267H100.597C100.51 75.9659 100.388 76.1416 100.229 76.3537C100.07 76.5625 99.8426 76.7498 99.5477 76.9155C99.2527 77.0779 98.8599 77.1591 98.3694 77.1591ZM98.5285 76.1051C98.9991 76.1051 99.3968 75.9825 99.7217 75.7372C100.046 75.4886 100.293 75.1456 100.462 74.7081C100.631 74.2673 100.716 73.7585 100.716 73.1818C100.716 72.6117 100.633 72.1129 100.467 71.6854C100.302 71.2545 100.056 70.9197 99.7316 70.6811C99.4068 70.4392 99.0057 70.3182 98.5285 70.3182C98.0313 70.3182 97.617 70.4458 97.2856 70.701C96.9575 70.9529 96.7105 71.2959 96.5448 71.7301C96.3824 72.161 96.3012 72.6449 96.3012 73.1818C96.3012 73.7254 96.3841 74.2192 96.5498 74.6634C96.7188 75.1042 96.9674 75.4555 97.2955 75.7173C97.627 75.9759 98.0379 76.1051 98.5285 76.1051ZM107.299 77.1591C106.563 77.1591 105.928 76.9967 105.395 76.6719C104.864 76.3438 104.455 75.8864 104.167 75.2997C103.882 74.7098 103.739 74.0237 103.739 73.2415C103.739 72.4593 103.882 71.7699 104.167 71.1733C104.455 70.5734 104.856 70.1061 105.37 69.7713C105.887 69.4332 106.49 69.2642 107.18 69.2642C107.577 69.2642 107.97 69.3305 108.358 69.4631C108.746 69.5956 109.099 69.8111 109.417 70.1094C109.735 70.4044 109.989 70.7955 110.177 71.2827C110.366 71.7699 110.461 72.3698 110.461 73.0824V73.5795H104.574V72.5653H109.268C109.268 72.1345 109.181 71.75 109.009 71.4119C108.84 71.0739 108.598 70.8071 108.283 70.6115C107.972 70.416 107.604 70.3182 107.18 70.3182C106.712 70.3182 106.308 70.4342 105.966 70.6662C105.628 70.8949 105.368 71.1932 105.186 71.5611C105.004 71.929 104.913 72.3234 104.913 72.7443V73.4205C104.913 73.9972 105.012 74.486 105.211 74.8871C105.413 75.2848 105.693 75.5881 106.051 75.7969C106.409 76.0024 106.825 76.1051 107.299 76.1051C107.607 76.1051 107.886 76.062 108.134 75.9759C108.386 75.8864 108.603 75.7538 108.785 75.5781C108.968 75.3991 109.109 75.1771 109.208 74.9119L110.341 75.2301C110.222 75.6146 110.022 75.9527 109.74 76.2443C109.458 76.5327 109.11 76.758 108.696 76.9205C108.282 77.0795 107.816 77.1591 107.299 77.1591ZM112.162 77V69.3636H113.295V70.517H113.375C113.514 70.1392 113.766 69.8326 114.13 69.5973C114.495 69.362 114.906 69.2443 115.363 69.2443C115.449 69.2443 115.557 69.246 115.686 69.2493C115.816 69.2526 115.914 69.2576 115.98 69.2642V70.4574C115.94 70.4474 115.849 70.4325 115.706 70.4126C115.567 70.3894 115.42 70.3778 115.264 70.3778C114.893 70.3778 114.561 70.4557 114.27 70.6115C113.981 70.764 113.753 70.9761 113.583 71.2479C113.418 71.5163 113.335 71.8229 113.335 72.1676V77H112.162ZM121.14 77V69.3636H122.274V70.517H122.353C122.492 70.1392 122.744 69.8326 123.109 69.5973C123.473 69.362 123.884 69.2443 124.342 69.2443C124.428 69.2443 124.536 69.246 124.665 69.2493C124.794 69.2526 124.892 69.2576 124.958 69.2642V70.4574C124.919 70.4474 124.827 70.4325 124.685 70.4126C124.546 70.3894 124.398 70.3778 124.242 70.3778C123.871 70.3778 123.54 70.4557 123.248 70.6115C122.96 70.764 122.731 70.9761 122.562 71.2479C122.396 71.5163 122.313 71.8229 122.313 72.1676V77H121.14ZM129.234 77.1591C128.499 77.1591 127.864 76.9967 127.33 76.6719C126.8 76.3438 126.391 75.8864 126.102 75.2997C125.817 74.7098 125.675 74.0237 125.675 73.2415C125.675 72.4593 125.817 71.7699 126.102 71.1733C126.391 70.5734 126.792 70.1061 127.305 69.7713C127.822 69.4332 128.426 69.2642 129.115 69.2642C129.513 69.2642 129.906 69.3305 130.293 69.4631C130.681 69.5956 131.034 69.8111 131.352 70.1094C131.67 70.4044 131.924 70.7955 132.113 71.2827C132.302 71.7699 132.396 72.3698 132.396 73.0824V73.5795H126.51V72.5653H131.203C131.203 72.1345 131.117 71.75 130.945 71.4119C130.776 71.0739 130.534 70.8071 130.219 70.6115C129.907 70.416 129.539 70.3182 129.115 70.3182C128.648 70.3182 128.243 70.4342 127.902 70.6662C127.564 70.8949 127.304 71.1932 127.121 71.5611C126.939 71.929 126.848 72.3234 126.848 72.7443V73.4205C126.848 73.9972 126.947 74.486 127.146 74.8871C127.348 75.2848 127.629 75.5881 127.986 75.7969C128.344 76.0024 128.76 76.1051 129.234 76.1051C129.543 76.1051 129.821 76.062 130.07 75.9759C130.321 75.8864 130.539 75.7538 130.721 75.5781C130.903 75.3991 131.044 75.1771 131.143 74.9119L132.277 75.2301C132.158 75.6146 131.957 75.9527 131.675 76.2443C131.394 76.5327 131.046 76.758 130.631 76.9205C130.217 77.0795 129.751 77.1591 129.234 77.1591ZM139.307 79.8636V75.8267H139.208C139.122 75.9659 138.999 76.1416 138.84 76.3537C138.681 76.5625 138.454 76.7498 138.159 76.9155C137.864 77.0779 137.471 77.1591 136.981 77.1591C136.344 77.1591 135.782 76.9983 135.295 76.6768C134.808 76.352 134.427 75.8946 134.152 75.3047C133.877 74.7114 133.739 74.0104 133.739 73.2017C133.739 72.3996 133.877 71.7036 134.152 71.1136C134.427 70.5237 134.81 70.0679 135.3 69.7464C135.791 69.425 136.358 69.2642 137.001 69.2642C137.498 69.2642 137.89 69.3471 138.179 69.5128C138.47 69.6752 138.693 69.8608 138.845 70.0696C139.001 70.2751 139.122 70.4441 139.208 70.5767H139.347V69.3636H140.481V79.8636H139.307ZM137.14 76.1051C137.61 76.1051 138.008 75.9825 138.333 75.7372C138.658 75.4886 138.905 75.1456 139.074 74.7081C139.243 74.2673 139.327 73.7585 139.327 73.1818C139.327 72.6117 139.244 72.1129 139.079 71.6854C138.913 71.2545 138.668 70.9197 138.343 70.6811C138.018 70.4392 137.617 70.3182 137.14 70.3182C136.643 70.3182 136.228 70.4458 135.897 70.701C135.569 70.9529 135.322 71.2959 135.156 71.7301C134.994 72.161 134.912 72.6449 134.912 73.1818C134.912 73.7254 134.995 74.2192 135.161 74.6634C135.33 75.1042 135.579 75.4555 135.907 75.7173C136.238 75.9759 136.649 76.1051 137.14 76.1051ZM147.357 73.8778V69.3636H148.53V77H147.357V75.7074H147.277C147.098 76.0952 146.82 76.425 146.442 76.6967C146.064 76.9652 145.587 77.0994 145.01 77.0994C144.533 77.0994 144.109 76.995 143.738 76.7862C143.366 76.5741 143.075 76.2559 142.863 75.8317C142.65 75.4041 142.544 74.8655 142.544 74.2159V69.3636H143.718V74.1364C143.718 74.6932 143.873 75.1373 144.185 75.4688C144.5 75.8002 144.901 75.9659 145.388 75.9659C145.68 75.9659 145.976 75.8913 146.278 75.7422C146.583 75.593 146.838 75.3643 147.044 75.0561C147.252 74.7479 147.357 74.3551 147.357 73.8778ZM153.797 77.1591C153.061 77.1591 152.426 76.9967 151.893 76.6719C151.362 76.3438 150.953 75.8864 150.665 75.2997C150.38 74.7098 150.237 74.0237 150.237 73.2415C150.237 72.4593 150.38 71.7699 150.665 71.1733C150.953 70.5734 151.354 70.1061 151.868 69.7713C152.385 69.4332 152.988 69.2642 153.677 69.2642C154.075 69.2642 154.468 69.3305 154.856 69.4631C155.244 69.5956 155.597 69.8111 155.915 70.1094C156.233 70.4044 156.486 70.7955 156.675 71.2827C156.864 71.7699 156.959 72.3698 156.959 73.0824V73.5795H151.072V72.5653H155.766C155.766 72.1345 155.679 71.75 155.507 71.4119C155.338 71.0739 155.096 70.8071 154.781 70.6115C154.47 70.416 154.102 70.3182 153.677 70.3182C153.21 70.3182 152.806 70.4342 152.464 70.6662C152.126 70.8949 151.866 71.1932 151.684 71.5611C151.502 71.929 151.41 72.3234 151.41 72.7443V73.4205C151.41 73.9972 151.51 74.486 151.709 74.8871C151.911 75.2848 152.191 75.5881 152.549 75.7969C152.907 76.0024 153.323 76.1051 153.797 76.1051C154.105 76.1051 154.383 76.062 154.632 75.9759C154.884 75.8864 155.101 75.7538 155.283 75.5781C155.466 75.3991 155.606 75.1771 155.706 74.9119L156.839 75.2301C156.72 75.6146 156.52 75.9527 156.238 76.2443C155.956 76.5327 155.608 76.758 155.194 76.9205C154.78 77.0795 154.314 77.1591 153.797 77.1591ZM164.069 71.0739L163.015 71.3722C162.948 71.1965 162.851 71.0258 162.721 70.8601C162.595 70.6911 162.423 70.5518 162.204 70.4425C161.986 70.3331 161.705 70.2784 161.364 70.2784C160.897 70.2784 160.507 70.3861 160.196 70.6016C159.888 70.8137 159.733 71.0838 159.733 71.4119C159.733 71.7036 159.839 71.9339 160.052 72.103C160.264 72.272 160.595 72.4129 161.046 72.5256L162.179 72.804C162.862 72.9697 163.371 73.2232 163.706 73.5646C164.04 73.9027 164.208 74.3385 164.208 74.8722C164.208 75.3097 164.082 75.7008 163.83 76.0455C163.581 76.3902 163.233 76.6619 162.786 76.8608C162.339 77.0597 161.818 77.1591 161.225 77.1591C160.446 77.1591 159.801 76.9901 159.291 76.652C158.781 76.3139 158.457 75.8201 158.321 75.1705L159.435 74.892C159.541 75.303 159.742 75.6113 160.037 75.8168C160.335 76.0223 160.724 76.125 161.205 76.125C161.752 76.125 162.186 76.009 162.508 75.777C162.832 75.5417 162.995 75.2599 162.995 74.9318C162.995 74.6667 162.902 74.4446 162.716 74.2656C162.531 74.0833 162.246 73.9474 161.861 73.858L160.589 73.5597C159.889 73.3939 159.375 73.1371 159.047 72.7891C158.723 72.4377 158.56 71.9986 158.56 71.4716C158.56 71.0407 158.681 70.6596 158.923 70.3281C159.168 69.9967 159.501 69.7365 159.922 69.5476C160.347 69.3587 160.827 69.2642 161.364 69.2642C162.12 69.2642 162.713 69.4299 163.144 69.7614C163.578 70.0928 163.886 70.5303 164.069 71.0739ZM169.211 69.3636V70.358H165.254V69.3636H169.211ZM166.407 67.5341H167.58V74.8125C167.58 75.1439 167.628 75.3925 167.725 75.5582C167.824 75.7206 167.95 75.83 168.102 75.8864C168.258 75.9394 168.422 75.9659 168.595 75.9659C168.724 75.9659 168.83 75.9593 168.913 75.946C168.996 75.9295 169.062 75.9162 169.112 75.9062L169.35 76.9602C169.271 76.9901 169.16 77.0199 169.017 77.0497C168.875 77.0829 168.694 77.0994 168.475 77.0994C168.144 77.0994 167.819 77.0282 167.501 76.8857C167.186 76.7431 166.924 76.526 166.715 76.2344C166.51 75.9427 166.407 75.5748 166.407 75.1307V67.5341ZM174.012 77.1591C173.276 77.1591 172.641 76.9967 172.107 76.6719C171.577 76.3438 171.168 75.8864 170.88 75.2997C170.594 74.7098 170.452 74.0237 170.452 73.2415C170.452 72.4593 170.594 71.7699 170.88 71.1733C171.168 70.5734 171.569 70.1061 172.083 69.7713C172.6 69.4332 173.203 69.2642 173.892 69.2642C174.29 69.2642 174.683 69.3305 175.071 69.4631C175.458 69.5956 175.811 69.8111 176.13 70.1094C176.448 70.4044 176.701 70.7955 176.89 71.2827C177.079 71.7699 177.174 72.3698 177.174 73.0824V73.5795H171.287V72.5653H175.98C175.98 72.1345 175.894 71.75 175.722 71.4119C175.553 71.0739 175.311 70.8071 174.996 70.6115C174.684 70.416 174.317 70.3182 173.892 70.3182C173.425 70.3182 173.021 70.4342 172.679 70.6662C172.341 70.8949 172.081 71.1932 171.899 71.5611C171.716 71.929 171.625 72.3234 171.625 72.7443V73.4205C171.625 73.9972 171.725 74.486 171.924 74.8871C172.126 75.2848 172.406 75.5881 172.764 75.7969C173.122 76.0024 173.538 76.1051 174.012 76.1051C174.32 76.1051 174.598 76.062 174.847 75.9759C175.099 75.8864 175.316 75.7538 175.498 75.5781C175.68 75.3991 175.821 75.1771 175.921 74.9119L177.054 75.2301C176.935 75.6146 176.734 75.9527 176.453 76.2443C176.171 76.5327 175.823 76.758 175.409 76.9205C174.994 77.0795 174.529 77.1591 174.012 77.1591ZM181.758 77.1591C181.122 77.1591 180.56 76.9983 180.073 76.6768C179.585 76.352 179.204 75.8946 178.929 75.3047C178.654 74.7114 178.516 74.0104 178.516 73.2017C178.516 72.3996 178.654 71.7036 178.929 71.1136C179.204 70.5237 179.587 70.0679 180.077 69.7464C180.568 69.425 181.135 69.2642 181.778 69.2642C182.275 69.2642 182.668 69.3471 182.956 69.5128C183.248 69.6752 183.47 69.8608 183.622 70.0696C183.778 70.2751 183.899 70.4441 183.985 70.5767H184.085V66.8182H185.258V77H184.124V75.8267H183.985C183.899 75.9659 183.776 76.1416 183.617 76.3537C183.458 76.5625 183.231 76.7498 182.936 76.9155C182.641 77.0779 182.248 77.1591 181.758 77.1591ZM181.917 76.1051C182.388 76.1051 182.785 75.9825 183.11 75.7372C183.435 75.4886 183.682 75.1456 183.851 74.7081C184.02 74.2673 184.104 73.7585 184.104 73.1818C184.104 72.6117 184.022 72.1129 183.856 71.6854C183.69 71.2545 183.445 70.9197 183.12 70.6811C182.795 70.4392 182.394 70.3182 181.917 70.3182C181.42 70.3182 181.006 70.4458 180.674 70.701C180.346 70.9529 180.099 71.2959 179.933 71.7301C179.771 72.161 179.69 72.6449 179.69 73.1818C179.69 73.7254 179.773 74.2192 179.938 74.6634C180.107 75.1042 180.356 75.4555 180.684 75.7173C181.015 75.9759 181.426 76.1051 181.917 76.1051ZM194.74 69.3636V70.358H190.623V69.3636H194.74ZM191.856 77V68.3097C191.856 67.8722 191.959 67.5076 192.164 67.2159C192.37 66.9242 192.637 66.7055 192.965 66.5597C193.293 66.4138 193.639 66.3409 194.004 66.3409C194.292 66.3409 194.528 66.3641 194.71 66.4105C194.892 66.4569 195.028 66.5 195.118 66.5398L194.779 67.554C194.72 67.5341 194.637 67.5092 194.531 67.4794C194.428 67.4496 194.292 67.4347 194.123 67.4347C193.735 67.4347 193.455 67.5324 193.283 67.728C193.114 67.9235 193.029 68.2102 193.029 68.5881V77H191.856ZM201.113 73.8778V69.3636H202.286V77H201.113V75.7074H201.033C200.854 76.0952 200.576 76.425 200.198 76.6967C199.82 76.9652 199.343 77.0994 198.766 77.0994C198.289 77.0994 197.864 76.995 197.493 76.7862C197.122 76.5741 196.83 76.2559 196.618 75.8317C196.406 75.4041 196.3 74.8655 196.3 74.2159V69.3636H197.473V74.1364C197.473 74.6932 197.629 75.1373 197.941 75.4688C198.256 75.8002 198.657 75.9659 199.144 75.9659C199.435 75.9659 199.732 75.8913 200.034 75.7422C200.339 75.593 200.594 75.3643 200.799 75.0561C201.008 74.7479 201.113 74.3551 201.113 73.8778ZM204.351 77V69.3636H205.484V70.517H205.564C205.703 70.1392 205.955 69.8326 206.32 69.5973C206.684 69.362 207.095 69.2443 207.553 69.2443C207.639 69.2443 207.746 69.246 207.876 69.2493C208.005 69.2526 208.103 69.2576 208.169 69.2642V70.4574C208.129 70.4474 208.038 70.4325 207.896 70.4126C207.756 70.3894 207.609 70.3778 207.453 70.3778C207.082 70.3778 206.75 70.4557 206.459 70.6115C206.17 70.764 205.942 70.9761 205.773 71.2479C205.607 71.5163 205.524 71.8229 205.524 72.1676V77H204.351ZM213.275 69.3636V70.358H209.318V69.3636H213.275ZM210.471 67.5341H211.645V74.8125C211.645 75.1439 211.693 75.3925 211.789 75.5582C211.888 75.7206 212.014 75.83 212.167 75.8864C212.322 75.9394 212.487 75.9659 212.659 75.9659C212.788 75.9659 212.894 75.9593 212.977 75.946C213.06 75.9295 213.126 75.9162 213.176 75.9062L213.415 76.9602C213.335 76.9901 213.224 77.0199 213.081 77.0497C212.939 77.0829 212.758 77.0994 212.54 77.0994C212.208 77.0994 211.883 77.0282 211.565 76.8857C211.25 76.7431 210.988 76.526 210.78 76.2344C210.574 75.9427 210.471 75.5748 210.471 75.1307V67.5341ZM216.294 72.4062V77H215.12V66.8182H216.294V70.5568H216.393C216.572 70.1624 216.841 69.8492 217.198 69.6172C217.56 69.3819 218.04 69.2642 218.64 69.2642C219.161 69.2642 219.616 69.3686 220.007 69.5774C220.399 69.7829 220.702 70.0994 220.917 70.527C221.136 70.9512 221.245 71.4915 221.245 72.1477V77H220.072V72.2273C220.072 71.6207 219.915 71.1518 219.6 70.8203C219.288 70.4856 218.856 70.3182 218.302 70.3182C217.918 70.3182 217.573 70.3994 217.268 70.5618C216.966 70.7242 216.728 70.9612 216.552 71.2727C216.38 71.5843 216.294 71.9621 216.294 72.4062ZM226.51 77.1591C225.774 77.1591 225.139 76.9967 224.605 76.6719C224.075 76.3438 223.666 75.8864 223.377 75.2997C223.092 74.7098 222.95 74.0237 222.95 73.2415C222.95 72.4593 223.092 71.7699 223.377 71.1733C223.666 70.5734 224.067 70.1061 224.581 69.7713C225.098 69.4332 225.701 69.2642 226.39 69.2642C226.788 69.2642 227.181 69.3305 227.568 69.4631C227.956 69.5956 228.309 69.8111 228.627 70.1094C228.946 70.4044 229.199 70.7955 229.388 71.2827C229.577 71.7699 229.671 72.3698 229.671 73.0824V73.5795H223.785V72.5653H228.478C228.478 72.1345 228.392 71.75 228.22 71.4119C228.051 71.0739 227.809 70.8071 227.494 70.6115C227.182 70.416 226.814 70.3182 226.39 70.3182C225.923 70.3182 225.519 70.4342 225.177 70.6662C224.839 70.8949 224.579 71.1932 224.397 71.5611C224.214 71.929 224.123 72.3234 224.123 72.7443V73.4205C224.123 73.9972 224.223 74.486 224.421 74.8871C224.624 75.2848 224.904 75.5881 225.262 75.7969C225.62 76.0024 226.036 76.1051 226.51 76.1051C226.818 76.1051 227.096 76.062 227.345 75.9759C227.597 75.8864 227.814 75.7538 227.996 75.5781C228.178 75.3991 228.319 75.1771 228.419 74.9119L229.552 75.2301C229.433 75.6146 229.232 75.9527 228.951 76.2443C228.669 76.5327 228.321 76.758 227.907 76.9205C227.492 77.0795 227.027 77.1591 226.51 77.1591ZM231.372 77V69.3636H232.506V70.517H232.585C232.725 70.1392 232.976 69.8326 233.341 69.5973C233.706 69.362 234.117 69.2443 234.574 69.2443C234.66 69.2443 234.768 69.246 234.897 69.2493C235.026 69.2526 235.124 69.2576 235.19 69.2642V70.4574C235.151 70.4474 235.06 70.4325 234.917 70.4126C234.778 70.3894 234.63 70.3778 234.475 70.3778C234.103 70.3778 233.772 70.4557 233.48 70.6115C233.192 70.764 232.963 70.9761 232.794 71.2479C232.628 71.5163 232.546 71.8229 232.546 72.1676V77H231.372ZM243.234 77.1591C242.598 77.1591 242.036 76.9983 241.549 76.6768C241.062 76.352 240.681 75.8946 240.405 75.3047C240.13 74.7114 239.993 74.0104 239.993 73.2017C239.993 72.3996 240.13 71.7036 240.405 71.1136C240.681 70.5237 241.063 70.0679 241.554 69.7464C242.044 69.425 242.611 69.2642 243.254 69.2642C243.751 69.2642 244.144 69.3471 244.432 69.5128C244.724 69.6752 244.946 69.8608 245.099 70.0696C245.254 70.2751 245.375 70.4441 245.462 70.5767H245.561V66.8182H246.734V77H245.601V75.8267H245.462C245.375 75.9659 245.253 76.1416 245.094 76.3537C244.935 76.5625 244.708 76.7498 244.413 76.9155C244.118 77.0779 243.725 77.1591 243.234 77.1591ZM243.393 76.1051C243.864 76.1051 244.262 75.9825 244.587 75.7372C244.911 75.4886 245.158 75.1456 245.327 74.7081C245.496 74.2673 245.581 73.7585 245.581 73.1818C245.581 72.6117 245.498 72.1129 245.332 71.6854C245.167 71.2545 244.921 70.9197 244.596 70.6811C244.272 70.4392 243.871 70.3182 243.393 70.3182C242.896 70.3182 242.482 70.4458 242.15 70.701C241.822 70.9529 241.575 71.2959 241.41 71.7301C241.247 72.161 241.166 72.6449 241.166 73.1818C241.166 73.7254 241.249 74.2192 241.415 74.6634C241.584 75.1042 241.832 75.4555 242.16 75.7173C242.492 75.9759 242.903 76.1051 243.393 76.1051ZM252.064 77.1591C251.375 77.1591 250.77 76.995 250.25 76.6669C249.733 76.3388 249.328 75.8797 249.037 75.2898C248.748 74.6998 248.604 74.0104 248.604 73.2216C248.604 72.4261 248.748 71.7318 249.037 71.1385C249.328 70.5452 249.733 70.0845 250.25 69.7564C250.77 69.4283 251.375 69.2642 252.064 69.2642C252.754 69.2642 253.357 69.4283 253.874 69.7564C254.394 70.0845 254.799 70.5452 255.087 71.1385C255.379 71.7318 255.525 72.4261 255.525 73.2216C255.525 74.0104 255.379 74.6998 255.087 75.2898C254.799 75.8797 254.394 76.3388 253.874 76.6669C253.357 76.995 252.754 77.1591 252.064 77.1591ZM252.064 76.1051C252.588 76.1051 253.019 75.9709 253.357 75.7024C253.695 75.4339 253.945 75.081 254.108 74.6435C254.27 74.206 254.351 73.732 254.351 73.2216C254.351 72.7112 254.27 72.2356 254.108 71.7947C253.945 71.3539 253.695 70.9976 253.357 70.7259C253.019 70.4541 252.588 70.3182 252.064 70.3182C251.541 70.3182 251.11 70.4541 250.772 70.7259C250.434 70.9976 250.183 71.3539 250.021 71.7947C249.859 72.2356 249.777 72.7112 249.777 73.2216C249.777 73.732 249.859 74.206 250.021 74.6435C250.183 75.081 250.434 75.4339 250.772 75.7024C251.11 75.9709 251.541 76.1051 252.064 76.1051ZM260.334 77.1591C259.618 77.1591 259.001 76.9901 258.484 76.652C257.967 76.3139 257.57 75.8482 257.291 75.255C257.013 74.6617 256.874 73.9839 256.874 73.2216C256.874 72.446 257.016 71.7616 257.301 71.1683C257.59 70.5717 257.991 70.1061 258.504 69.7713C259.021 69.4332 259.625 69.2642 260.314 69.2642C260.851 69.2642 261.335 69.3636 261.766 69.5625C262.197 69.7614 262.55 70.0398 262.825 70.3977C263.1 70.7557 263.27 71.1733 263.337 71.6506H262.163C262.074 71.3026 261.875 70.9943 261.567 70.7259C261.262 70.4541 260.851 70.3182 260.334 70.3182C259.876 70.3182 259.475 70.4375 259.131 70.6761C258.789 70.9115 258.523 71.2446 258.33 71.6754C258.141 72.103 258.047 72.6051 258.047 73.1818C258.047 73.7718 258.14 74.2855 258.325 74.723C258.514 75.1605 258.779 75.5002 259.121 75.7422C259.465 75.9841 259.87 76.1051 260.334 76.1051C260.639 76.1051 260.916 76.0521 261.164 75.946C261.413 75.84 261.623 75.6875 261.795 75.4886C261.968 75.2898 262.09 75.0511 262.163 74.7727H263.337C263.27 75.2235 263.106 75.6295 262.845 75.9908C262.586 76.3487 262.243 76.6338 261.815 76.8459C261.391 77.0547 260.897 77.1591 260.334 77.1591ZM269.78 73.8778V69.3636H270.954V77H269.78V75.7074H269.701C269.522 76.0952 269.243 76.425 268.866 76.6967C268.488 76.9652 268.011 77.0994 267.434 77.0994C266.957 77.0994 266.532 76.995 266.161 76.7862C265.79 76.5741 265.498 76.2559 265.286 75.8317C265.074 75.4041 264.968 74.8655 264.968 74.2159V69.3636H266.141V74.1364C266.141 74.6932 266.297 75.1373 266.609 75.4688C266.923 75.8002 267.324 75.9659 267.812 75.9659C268.103 75.9659 268.4 75.8913 268.702 75.7422C269.006 75.593 269.262 75.3643 269.467 75.0561C269.676 74.7479 269.78 74.3551 269.78 73.8778ZM273.019 77V69.3636H274.152V70.5568H274.252C274.411 70.1491 274.668 69.8326 275.022 69.6072C275.377 69.3786 275.803 69.2642 276.3 69.2642C276.804 69.2642 277.223 69.3786 277.558 69.6072C277.896 69.8326 278.159 70.1491 278.348 70.5568H278.428C278.623 70.1624 278.917 69.8492 279.308 69.6172C279.699 69.3819 280.168 69.2642 280.715 69.2642C281.397 69.2642 281.956 69.478 282.39 69.9055C282.824 70.3298 283.041 70.991 283.041 71.8892V77H281.868V71.8892C281.868 71.3258 281.714 70.9231 281.406 70.6811C281.097 70.4392 280.735 70.3182 280.317 70.3182C279.78 70.3182 279.364 70.4806 279.069 70.8054C278.774 71.1269 278.627 71.5346 278.627 72.0284V77H277.433V71.7699C277.433 71.3357 277.293 70.986 277.011 70.7209C276.729 70.4524 276.366 70.3182 275.922 70.3182C275.617 70.3182 275.332 70.3994 275.067 70.5618C274.805 70.7242 274.593 70.9496 274.431 71.2379C274.271 71.523 274.192 71.8527 274.192 72.2273V77H273.019ZM288.304 77.1591C287.569 77.1591 286.934 76.9967 286.4 76.6719C285.87 76.3438 285.461 75.8864 285.172 75.2997C284.887 74.7098 284.745 74.0237 284.745 73.2415C284.745 72.4593 284.887 71.7699 285.172 71.1733C285.461 70.5734 285.862 70.1061 286.375 69.7713C286.892 69.4332 287.496 69.2642 288.185 69.2642C288.583 69.2642 288.975 69.3305 289.363 69.4631C289.751 69.5956 290.104 69.8111 290.422 70.1094C290.74 70.4044 290.994 70.7955 291.183 71.2827C291.372 71.7699 291.466 72.3698 291.466 73.0824V73.5795H285.58V72.5653H290.273C290.273 72.1345 290.187 71.75 290.015 71.4119C289.846 71.0739 289.604 70.8071 289.289 70.6115C288.977 70.416 288.609 70.3182 288.185 70.3182C287.718 70.3182 287.313 70.4342 286.972 70.6662C286.634 70.8949 286.374 71.1932 286.191 71.5611C286.009 71.929 285.918 72.3234 285.918 72.7443V73.4205C285.918 73.9972 286.017 74.486 286.216 74.8871C286.418 75.2848 286.699 75.5881 287.056 75.7969C287.414 76.0024 287.83 76.1051 288.304 76.1051C288.613 76.1051 288.891 76.062 289.14 75.9759C289.391 75.8864 289.609 75.7538 289.791 75.5781C289.973 75.3991 290.114 75.1771 290.213 74.9119L291.347 75.2301C291.228 75.6146 291.027 75.9527 290.745 76.2443C290.464 76.5327 290.116 76.758 289.701 76.9205C289.287 77.0795 288.821 77.1591 288.304 77.1591ZM294.34 72.4062V77H293.167V69.3636H294.301V70.5568H294.4C294.579 70.169 294.851 69.8575 295.215 69.6222C295.58 69.3835 296.051 69.2642 296.627 69.2642C297.144 69.2642 297.597 69.3703 297.985 69.5824C298.372 69.7912 298.674 70.1094 298.889 70.5369C299.105 70.9612 299.213 71.4981 299.213 72.1477V77H298.039V72.2273C298.039 71.6274 297.883 71.16 297.572 70.8253C297.26 70.4872 296.833 70.3182 296.289 70.3182C295.915 70.3182 295.58 70.3994 295.285 70.5618C294.993 70.7242 294.763 70.9612 294.594 71.2727C294.425 71.5843 294.34 71.9621 294.34 72.4062ZM304.594 69.3636V70.358H300.636V69.3636H304.594ZM301.79 67.5341H302.963V74.8125C302.963 75.1439 303.011 75.3925 303.107 75.5582C303.206 75.7206 303.332 75.83 303.485 75.8864C303.641 75.9394 303.805 75.9659 303.977 75.9659C304.106 75.9659 304.212 75.9593 304.295 75.946C304.378 75.9295 304.444 75.9162 304.494 75.9062L304.733 76.9602C304.653 76.9901 304.542 77.0199 304.4 77.0497C304.257 77.0829 304.076 77.0994 303.858 77.0994C303.526 77.0994 303.201 77.0282 302.883 76.8857C302.568 76.7431 302.307 76.526 302.098 76.2344C301.892 75.9427 301.79 75.5748 301.79 75.1307V67.5341ZM311.547 71.0739L310.493 71.3722C310.427 71.1965 310.329 71.0258 310.2 70.8601C310.074 70.6911 309.901 70.5518 309.682 70.4425C309.464 70.3331 309.184 70.2784 308.842 70.2784C308.375 70.2784 307.986 70.3861 307.674 70.6016C307.366 70.8137 307.212 71.0838 307.212 71.4119C307.212 71.7036 307.318 71.9339 307.53 72.103C307.742 72.272 308.073 72.4129 308.524 72.5256L309.658 72.804C310.34 72.9697 310.849 73.2232 311.184 73.5646C311.519 73.9027 311.686 74.3385 311.686 74.8722C311.686 75.3097 311.56 75.7008 311.308 76.0455C311.06 76.3902 310.712 76.6619 310.264 76.8608C309.817 77.0597 309.296 77.1591 308.703 77.1591C307.924 77.1591 307.28 76.9901 306.769 76.652C306.259 76.3139 305.936 75.8201 305.8 75.1705L306.913 74.892C307.019 75.303 307.22 75.6113 307.515 75.8168C307.813 76.0223 308.203 76.125 308.683 76.125C309.23 76.125 309.664 76.009 309.986 75.777C310.311 75.5417 310.473 75.2599 310.473 74.9318C310.473 74.6667 310.38 74.4446 310.195 74.2656C310.009 74.0833 309.724 73.9474 309.339 73.858L308.067 73.5597C307.367 73.3939 306.854 73.1371 306.526 72.7891C306.201 72.4377 306.038 71.9986 306.038 71.4716C306.038 71.0407 306.159 70.6596 306.401 70.3281C306.646 69.9967 306.98 69.7365 307.401 69.5476C307.825 69.3587 308.305 69.2642 308.842 69.2642C309.598 69.2642 310.191 69.4299 310.622 69.7614C311.056 70.0928 311.365 70.5303 311.547 71.0739ZM314.223 77.0795C313.978 77.0795 313.768 76.9917 313.592 76.8161C313.416 76.6404 313.328 76.4299 313.328 76.1847C313.328 75.9394 313.416 75.7289 313.592 75.5533C313.768 75.3776 313.978 75.2898 314.223 75.2898C314.469 75.2898 314.679 75.3776 314.855 75.5533C315.03 75.7289 315.118 75.9394 315.118 76.1847C315.118 76.3471 315.077 76.4962 314.994 76.6321C314.914 76.768 314.807 76.8774 314.671 76.9602C314.538 77.0398 314.389 77.0795 314.223 77.0795ZM47.233 97V86.8182H50.6733C51.4721 86.8182 52.125 86.9624 52.6321 87.2507C53.1425 87.5357 53.5204 87.9219 53.7656 88.4091C54.0109 88.8963 54.1335 89.4399 54.1335 90.0398C54.1335 90.6397 54.0109 91.1849 53.7656 91.6754C53.5237 92.166 53.1491 92.5571 52.642 92.8487C52.1349 93.1371 51.4853 93.2812 50.6932 93.2812H48.2273V92.1875H50.6534C51.2003 92.1875 51.6394 92.093 51.9709 91.9041C52.3023 91.7152 52.5426 91.46 52.6918 91.1385C52.8442 90.8137 52.9205 90.4474 52.9205 90.0398C52.9205 89.6321 52.8442 89.2675 52.6918 88.946C52.5426 88.6245 52.3007 88.3726 51.9659 88.1903C51.6312 88.0047 51.187 87.9119 50.6335 87.9119H48.4659V97H47.233ZM57.0499 86.8182V97H55.8766V86.8182H57.0499ZM62.3166 97.1591C61.5808 97.1591 60.9461 96.9967 60.4124 96.6719C59.8821 96.3438 59.4728 95.8864 59.1845 95.2997C58.8994 94.7098 58.7569 94.0237 58.7569 93.2415C58.7569 92.4593 58.8994 91.7699 59.1845 91.1733C59.4728 90.5734 59.8738 90.1061 60.3876 89.7713C60.9046 89.4332 61.5078 89.2642 62.1972 89.2642C62.595 89.2642 62.9877 89.3305 63.3755 89.4631C63.7633 89.5956 64.1163 89.8111 64.4345 90.1094C64.7526 90.4044 65.0062 90.7955 65.1951 91.2827C65.384 91.7699 65.4785 92.3698 65.4785 93.0824V93.5795H59.5921V92.5653H64.2853C64.2853 92.1345 64.1991 91.75 64.0268 91.4119C63.8577 91.0739 63.6158 90.8071 63.3009 90.6115C62.9894 90.416 62.6215 90.3182 62.1972 90.3182C61.7299 90.3182 61.3255 90.4342 60.9842 90.6662C60.6461 90.8949 60.3859 91.1932 60.2036 91.5611C60.0213 91.929 59.9302 92.3234 59.9302 92.7443V93.4205C59.9302 93.9972 60.0296 94.486 60.2285 94.8871C60.4307 95.2848 60.7107 95.5881 61.0687 95.7969C61.4266 96.0024 61.8426 96.1051 62.3166 96.1051C62.6248 96.1051 62.9032 96.062 63.1518 95.9759C63.4037 95.8864 63.6208 95.7538 63.8031 95.5781C63.9853 95.3991 64.1262 95.1771 64.2256 94.9119L65.3592 95.2301C65.2398 95.6146 65.0393 95.9527 64.7576 96.2443C64.4759 96.5327 64.1279 96.758 63.7136 96.9205C63.2993 97.0795 62.8336 97.1591 62.3166 97.1591ZM69.4264 97.179C68.9425 97.179 68.5034 97.0878 68.109 96.9055C67.7146 96.7199 67.4013 96.4531 67.1693 96.1051C66.9373 95.7538 66.8213 95.3295 66.8213 94.8324C66.8213 94.3949 66.9075 94.0402 67.0799 93.7685C67.2522 93.4934 67.4826 93.2779 67.7709 93.1222C68.0593 92.9664 68.3774 92.8504 68.7254 92.7741C69.0768 92.6946 69.4298 92.6316 69.7844 92.5852C70.2484 92.5256 70.6246 92.4808 70.9129 92.451C71.2046 92.4179 71.4167 92.3632 71.5493 92.2869C71.6852 92.2107 71.7531 92.0781 71.7531 91.8892V91.8494C71.7531 91.3589 71.6189 90.9777 71.3504 90.706C71.0853 90.4342 70.6826 90.2983 70.1424 90.2983C69.5822 90.2983 69.1431 90.4209 68.8249 90.6662C68.5067 90.9115 68.283 91.1733 68.1537 91.4517L67.0401 91.054C67.2389 90.59 67.5041 90.2287 67.8355 89.9702C68.1703 89.7083 68.5349 89.526 68.9293 89.4233C69.327 89.3172 69.7181 89.2642 70.1026 89.2642C70.3478 89.2642 70.6296 89.294 70.9478 89.3537C71.2692 89.41 71.5791 89.5277 71.8774 89.7067C72.179 89.8857 72.4293 90.1558 72.6281 90.517C72.827 90.8783 72.9264 91.3622 72.9264 91.9688V97H71.7531V95.9659H71.6935C71.6139 96.1316 71.4814 96.3089 71.2958 96.4979C71.1102 96.6868 70.8632 96.8475 70.555 96.9801C70.2468 97.1127 69.8706 97.179 69.4264 97.179ZM69.6054 96.125C70.0694 96.125 70.4605 96.0339 70.7787 95.8516C71.1002 95.6693 71.3422 95.4339 71.5046 95.1456C71.6703 94.8572 71.7531 94.554 71.7531 94.2358V93.1619C71.7034 93.2216 71.5941 93.2763 71.425 93.326C71.2593 93.3724 71.0671 93.4138 70.8483 93.4503C70.6329 93.4834 70.4224 93.5133 70.2169 93.5398C70.0147 93.563 69.8507 93.5829 69.7247 93.5994C69.4198 93.6392 69.1348 93.7038 68.8696 93.7933C68.6078 93.8795 68.3957 94.0104 68.2333 94.1861C68.0742 94.3584 67.9946 94.5937 67.9946 94.892C67.9946 95.2997 68.1454 95.608 68.447 95.8168C68.752 96.0223 69.1381 96.125 69.6054 96.125ZM80.393 91.0739L79.3391 91.3722C79.2728 91.1965 79.175 91.0258 79.0457 90.8601C78.9198 90.6911 78.7475 90.5518 78.5287 90.4425C78.31 90.3331 78.0299 90.2784 77.6885 90.2784C77.2212 90.2784 76.8317 90.3861 76.5202 90.6016C76.2119 90.8137 76.0578 91.0838 76.0578 91.4119C76.0578 91.7036 76.1639 91.9339 76.376 92.103C76.5881 92.272 76.9196 92.4129 77.3703 92.5256L78.5038 92.804C79.1866 92.9697 79.6954 93.2232 80.0301 93.5646C80.3649 93.9027 80.5323 94.3385 80.5323 94.8722C80.5323 95.3097 80.4063 95.7008 80.1544 96.0455C79.9058 96.3902 79.5578 96.6619 79.1104 96.8608C78.6629 97.0597 78.1426 97.1591 77.5493 97.1591C76.7704 97.1591 76.1258 96.9901 75.6153 96.652C75.1049 96.3139 74.7818 95.8201 74.6459 95.1705L75.7595 94.892C75.8656 95.303 76.0661 95.6113 76.3611 95.8168C76.6594 96.0223 77.0488 96.125 77.5294 96.125C78.0763 96.125 78.5105 96.009 78.832 95.777C79.1568 95.5417 79.3192 95.2599 79.3192 94.9318C79.3192 94.6667 79.2264 94.4446 79.0408 94.2656C78.8552 94.0833 78.5701 93.9474 78.1857 93.858L76.9129 93.5597C76.2136 93.3939 75.6999 93.1371 75.3717 92.7891C75.0469 92.4377 74.8845 91.9986 74.8845 91.4716C74.8845 91.0407 75.0055 90.6596 75.2475 90.3281C75.4927 89.9967 75.8258 89.7365 76.2467 89.5476C76.671 89.3587 77.1516 89.2642 77.6885 89.2642C78.4442 89.2642 79.0375 89.4299 79.4683 89.7614C79.9025 90.0928 80.2108 90.5303 80.393 91.0739ZM85.4161 97.1591C84.6803 97.1591 84.0456 96.9967 83.512 96.6719C82.9817 96.3438 82.5724 95.8864 82.284 95.2997C81.999 94.7098 81.8565 94.0237 81.8565 93.2415C81.8565 92.4593 81.999 91.7699 82.284 91.1733C82.5724 90.5734 82.9734 90.1061 83.4871 89.7713C84.0042 89.4332 84.6074 89.2642 85.2968 89.2642C85.6945 89.2642 86.0873 89.3305 86.4751 89.4631C86.8629 89.5956 87.2158 89.8111 87.534 90.1094C87.8522 90.4044 88.1057 90.7955 88.2947 91.2827C88.4836 91.7699 88.578 92.3698 88.578 93.0824V93.5795H82.6917V92.5653H87.3849C87.3849 92.1345 87.2987 91.75 87.1263 91.4119C86.9573 91.0739 86.7154 90.8071 86.4005 90.6115C86.0889 90.416 85.721 90.3182 85.2968 90.3182C84.8295 90.3182 84.4251 90.4342 84.0837 90.6662C83.7457 90.8949 83.4855 91.1932 83.3032 91.5611C83.1209 91.929 83.0298 92.3234 83.0298 92.7443V93.4205C83.0298 93.9972 83.1292 94.486 83.328 94.8871C83.5302 95.2848 83.8103 95.5881 84.1682 95.7969C84.5262 96.0024 84.9422 96.1051 85.4161 96.1051C85.7244 96.1051 86.0028 96.062 86.2513 95.9759C86.5032 95.8864 86.7203 95.7538 86.9026 95.5781C87.0849 95.3991 87.2258 95.1771 87.3252 94.9119L88.4587 95.2301C88.3394 95.6146 88.1389 95.9527 87.8572 96.2443C87.5754 96.5327 87.2274 96.758 86.8131 96.9205C86.3988 97.0795 85.9332 97.1591 85.4161 97.1591ZM97.2346 97.1591C96.5187 97.1591 95.9022 96.9901 95.3852 96.652C94.8681 96.3139 94.4704 95.8482 94.192 95.255C93.9136 94.6617 93.7744 93.9839 93.7744 93.2216C93.7744 92.446 93.9169 91.7616 94.2019 91.1683C94.4903 90.5717 94.8913 90.1061 95.4051 89.7713C95.9221 89.4332 96.5253 89.2642 97.2147 89.2642C97.7517 89.2642 98.2356 89.3636 98.6664 89.5625C99.0973 89.7614 99.4503 90.0398 99.7254 90.3977C100 90.7557 100.171 91.1733 100.237 91.6506H99.0642C98.9747 91.3026 98.7758 90.9943 98.4676 90.7259C98.1626 90.4541 97.7517 90.3182 97.2346 90.3182C96.7772 90.3182 96.3762 90.4375 96.0315 90.6761C95.6901 90.9115 95.4233 91.2446 95.2311 91.6754C95.0421 92.103 94.9477 92.6051 94.9477 93.1818C94.9477 93.7718 95.0405 94.2855 95.2261 94.723C95.415 95.1605 95.6802 95.5002 96.0216 95.7422C96.3662 95.9841 96.7706 96.1051 97.2346 96.1051C97.5395 96.1051 97.8163 96.0521 98.0649 95.946C98.3135 95.84 98.5239 95.6875 98.6963 95.4886C98.8686 95.2898 98.9912 95.0511 99.0642 94.7727H100.237C100.171 95.2235 100.007 95.6295 99.7453 95.9908C99.4868 96.3487 99.1437 96.6338 98.7162 96.8459C98.2919 97.0547 97.7981 97.1591 97.2346 97.1591ZM103.042 92.4062V97H101.869V86.8182H103.042V90.5568H103.141C103.32 90.1624 103.589 89.8492 103.947 89.6172C104.308 89.3819 104.789 89.2642 105.389 89.2642C105.909 89.2642 106.365 89.3686 106.756 89.5774C107.147 89.7829 107.45 90.0994 107.666 90.527C107.884 90.9512 107.994 91.4915 107.994 92.1477V97H106.82V92.2273C106.82 91.6207 106.663 91.1518 106.348 90.8203C106.037 90.4856 105.604 90.3182 105.05 90.3182C104.666 90.3182 104.321 90.3994 104.016 90.5618C103.715 90.7242 103.476 90.9612 103.3 91.2727C103.128 91.5843 103.042 91.9621 103.042 92.4062ZM113.258 97.1591C112.522 97.1591 111.887 96.9967 111.354 96.6719C110.823 96.3438 110.414 95.8864 110.126 95.2997C109.841 94.7098 109.698 94.0237 109.698 93.2415C109.698 92.4593 109.841 91.7699 110.126 91.1733C110.414 90.5734 110.815 90.1061 111.329 89.7713C111.846 89.4332 112.449 89.2642 113.139 89.2642C113.536 89.2642 113.929 89.3305 114.317 89.4631C114.705 89.5956 115.058 89.8111 115.376 90.1094C115.694 90.4044 115.947 90.7955 116.136 91.2827C116.325 91.7699 116.42 92.3698 116.42 93.0824V93.5795H110.533V92.5653H115.227C115.227 92.1345 115.14 91.75 114.968 91.4119C114.799 91.0739 114.557 90.8071 114.242 90.6115C113.931 90.416 113.563 90.3182 113.139 90.3182C112.671 90.3182 112.267 90.4342 111.925 90.6662C111.587 90.8949 111.327 91.1932 111.145 91.5611C110.963 91.929 110.871 92.3234 110.871 92.7443V93.4205C110.871 93.9972 110.971 94.486 111.17 94.8871C111.372 95.2848 111.652 95.5881 112.01 95.7969C112.368 96.0024 112.784 96.1051 113.258 96.1051C113.566 96.1051 113.844 96.062 114.093 95.9759C114.345 95.8864 114.562 95.7538 114.744 95.5781C114.927 95.3991 115.068 95.1771 115.167 94.9119L116.3 95.2301C116.181 95.6146 115.981 95.9527 115.699 96.2443C115.417 96.5327 115.069 96.758 114.655 96.9205C114.241 97.0795 113.775 97.1591 113.258 97.1591ZM121.223 97.1591C120.507 97.1591 119.89 96.9901 119.373 96.652C118.856 96.3139 118.459 95.8482 118.18 95.255C117.902 94.6617 117.763 93.9839 117.763 93.2216C117.763 92.446 117.905 91.7616 118.19 91.1683C118.479 90.5717 118.88 90.1061 119.393 89.7713C119.91 89.4332 120.514 89.2642 121.203 89.2642C121.74 89.2642 122.224 89.3636 122.655 89.5625C123.086 89.7614 123.439 90.0398 123.714 90.3977C123.989 90.7557 124.159 91.1733 124.226 91.6506H123.052C122.963 91.3026 122.764 90.9943 122.456 90.7259C122.151 90.4541 121.74 90.3182 121.223 90.3182C120.765 90.3182 120.364 90.4375 120.02 90.6761C119.678 90.9115 119.412 91.2446 119.219 91.6754C119.03 92.103 118.936 92.6051 118.936 93.1818C118.936 93.7718 119.029 94.2855 119.214 94.723C119.403 95.1605 119.668 95.5002 120.01 95.7422C120.354 95.9841 120.759 96.1051 121.223 96.1051C121.528 96.1051 121.805 96.0521 122.053 95.946C122.302 95.84 122.512 95.6875 122.685 95.4886C122.857 95.2898 122.979 95.0511 123.052 94.7727H124.226C124.159 95.2235 123.995 95.6295 123.734 95.9908C123.475 96.3487 123.132 96.6338 122.704 96.8459C122.28 97.0547 121.786 97.1591 121.223 97.1591ZM126.951 94.2159L126.931 92.7642H127.169L130.51 89.3636H131.962L128.402 92.9631H128.303L126.951 94.2159ZM125.857 97V86.8182H127.03V97H125.857ZM130.709 97L127.726 93.2216L128.561 92.4062L132.201 97H130.709ZM137.997 99.8636C137.798 99.8636 137.621 99.8471 137.465 99.8139C137.31 99.7841 137.202 99.7543 137.142 99.7244L137.44 98.6903C137.726 98.7633 137.977 98.7898 138.196 98.7699C138.415 98.75 138.609 98.6522 138.778 98.4766C138.95 98.3042 139.108 98.0241 139.25 97.6364L139.469 97.0398L136.645 89.3636H137.918L140.026 95.4489H140.105L142.213 89.3636H143.486L140.244 98.1136C140.099 98.508 139.918 98.8345 139.703 99.093C139.487 99.3549 139.237 99.5488 138.952 99.6747C138.67 99.8007 138.352 99.8636 137.997 99.8636ZM147.779 97.1591C147.09 97.1591 146.485 96.995 145.965 96.6669C145.448 96.3388 145.043 95.8797 144.752 95.2898C144.463 94.6998 144.319 94.0104 144.319 93.2216C144.319 92.4261 144.463 91.7318 144.752 91.1385C145.043 90.5452 145.448 90.0845 145.965 89.7564C146.485 89.4283 147.09 89.2642 147.779 89.2642C148.469 89.2642 149.072 89.4283 149.589 89.7564C150.109 90.0845 150.514 90.5452 150.802 91.1385C151.094 91.7318 151.24 92.4261 151.24 93.2216C151.24 94.0104 151.094 94.6998 150.802 95.2898C150.514 95.8797 150.109 96.3388 149.589 96.6669C149.072 96.995 148.469 97.1591 147.779 97.1591ZM147.779 96.1051C148.303 96.1051 148.734 95.9709 149.072 95.7024C149.41 95.4339 149.66 95.081 149.823 94.6435C149.985 94.206 150.066 93.732 150.066 93.2216C150.066 92.7112 149.985 92.2356 149.823 91.7947C149.66 91.3539 149.41 90.9976 149.072 90.7259C148.734 90.4541 148.303 90.3182 147.779 90.3182C147.256 90.3182 146.825 90.4541 146.487 90.7259C146.149 90.9976 145.899 91.3539 145.736 91.7947C145.574 92.2356 145.492 92.7112 145.492 93.2216C145.492 93.732 145.574 94.206 145.736 94.6435C145.899 95.081 146.149 95.4339 146.487 95.7024C146.825 95.9709 147.256 96.1051 147.779 96.1051ZM157.759 93.8778V89.3636H158.932V97H157.759V95.7074H157.68C157.501 96.0952 157.222 96.425 156.844 96.6967C156.467 96.9652 155.989 97.0994 155.413 97.0994C154.935 97.0994 154.511 96.995 154.14 96.7862C153.769 96.5741 153.477 96.2559 153.265 95.8317C153.053 95.4041 152.947 94.8655 152.947 94.2159V89.3636H154.12V94.1364C154.12 94.6932 154.276 95.1373 154.587 95.4688C154.902 95.8002 155.303 95.9659 155.79 95.9659C156.082 95.9659 156.379 95.8913 156.68 95.7422C156.985 95.593 157.24 95.3643 157.446 95.0561C157.655 94.7479 157.759 94.3551 157.759 93.8778ZM160.997 97V89.3636H162.131V90.517H162.211C162.35 90.1392 162.602 89.8326 162.966 89.5973C163.331 89.362 163.742 89.2443 164.199 89.2443C164.285 89.2443 164.393 89.246 164.522 89.2493C164.652 89.2526 164.749 89.2576 164.816 89.2642V90.4574C164.776 90.4474 164.685 90.4325 164.542 90.4126C164.403 90.3894 164.255 90.3778 164.1 90.3778C163.729 90.3778 163.397 90.4557 163.105 90.6115C162.817 90.764 162.588 90.9761 162.419 91.2479C162.254 91.5163 162.171 91.8229 162.171 92.1676V97H160.997ZM173.178 97.1591C172.442 97.1591 171.807 96.9967 171.274 96.6719C170.743 96.3438 170.334 95.8864 170.046 95.2997C169.76 94.7098 169.618 94.0237 169.618 93.2415C169.618 92.4593 169.76 91.7699 170.046 91.1733C170.334 90.5734 170.735 90.1061 171.249 89.7713C171.766 89.4332 172.369 89.2642 173.058 89.2642C173.456 89.2642 173.849 89.3305 174.237 89.4631C174.624 89.5956 174.977 89.8111 175.296 90.1094C175.614 90.4044 175.867 90.7955 176.056 91.2827C176.245 91.7699 176.34 92.3698 176.34 93.0824V93.5795H170.453V92.5653H175.146C175.146 92.1345 175.06 91.75 174.888 91.4119C174.719 91.0739 174.477 90.8071 174.162 90.6115C173.85 90.416 173.483 90.3182 173.058 90.3182C172.591 90.3182 172.187 90.4342 171.845 90.6662C171.507 90.8949 171.247 91.1932 171.065 91.5611C170.882 91.929 170.791 92.3234 170.791 92.7443V93.4205C170.791 93.9972 170.891 94.486 171.09 94.8871C171.292 95.2848 171.572 95.5881 171.93 95.7969C172.288 96.0024 172.704 96.1051 173.178 96.1051C173.486 96.1051 173.764 96.062 174.013 95.9759C174.265 95.8864 174.482 95.7538 174.664 95.5781C174.846 95.3991 174.987 95.1771 175.087 94.9119L176.22 95.2301C176.101 95.6146 175.9 95.9527 175.619 96.2443C175.337 96.5327 174.989 96.758 174.575 96.9205C174.16 97.0795 173.695 97.1591 173.178 97.1591ZM178.04 97V89.3636H179.174V90.5568H179.273C179.432 90.1491 179.689 89.8326 180.044 89.6072C180.399 89.3786 180.824 89.2642 181.322 89.2642C181.825 89.2642 182.245 89.3786 182.579 89.6072C182.918 89.8326 183.181 90.1491 183.37 90.5568H183.449C183.645 90.1624 183.938 89.8492 184.329 89.6172C184.721 89.3819 185.19 89.2642 185.736 89.2642C186.419 89.2642 186.978 89.478 187.412 89.9055C187.846 90.3298 188.063 90.991 188.063 91.8892V97H186.89V91.8892C186.89 91.3258 186.736 90.9231 186.427 90.6811C186.119 90.4392 185.756 90.3182 185.339 90.3182C184.802 90.3182 184.386 90.4806 184.091 90.8054C183.796 91.1269 183.648 91.5346 183.648 92.0284V97H182.455V91.7699C182.455 91.3357 182.314 90.986 182.033 90.7209C181.751 90.4524 181.388 90.3182 180.944 90.3182C180.639 90.3182 180.354 90.3994 180.089 90.5618C179.827 90.7242 179.615 90.9496 179.452 91.2379C179.293 91.523 179.214 91.8527 179.214 92.2273V97H178.04ZM192.371 97.179C191.888 97.179 191.448 97.0878 191.054 96.9055C190.66 96.7199 190.346 96.4531 190.114 96.1051C189.882 95.7538 189.766 95.3295 189.766 94.8324C189.766 94.3949 189.853 94.0402 190.025 93.7685C190.197 93.4934 190.428 93.2779 190.716 93.1222C191.004 92.9664 191.322 92.8504 191.671 92.7741C192.022 92.6946 192.375 92.6316 192.729 92.5852C193.193 92.5256 193.57 92.4808 193.858 92.451C194.15 92.4179 194.362 92.3632 194.494 92.2869C194.63 92.2107 194.698 92.0781 194.698 91.8892V91.8494C194.698 91.3589 194.564 90.9777 194.296 90.706C194.03 90.4342 193.628 90.2983 193.087 90.2983C192.527 90.2983 192.088 90.4209 191.77 90.6662C191.452 90.9115 191.228 91.1733 191.099 91.4517L189.985 91.054C190.184 90.59 190.449 90.2287 190.781 89.9702C191.115 89.7083 191.48 89.526 191.874 89.4233C192.272 89.3172 192.663 89.2642 193.048 89.2642C193.293 89.2642 193.575 89.294 193.893 89.3537C194.214 89.41 194.524 89.5277 194.822 89.7067C195.124 89.8857 195.374 90.1558 195.573 90.517C195.772 90.8783 195.871 91.3622 195.871 91.9688V97H194.698V95.9659H194.639C194.559 96.1316 194.426 96.3089 194.241 96.4979C194.055 96.6868 193.808 96.8475 193.5 96.9801C193.192 97.1127 192.816 97.179 192.371 97.179ZM192.55 96.125C193.014 96.125 193.406 96.0339 193.724 95.8516C194.045 95.6693 194.287 95.4339 194.45 95.1456C194.615 94.8572 194.698 94.554 194.698 94.2358V93.1619C194.648 93.2216 194.539 93.2763 194.37 93.326C194.204 93.3724 194.012 93.4138 193.793 93.4503C193.578 93.4834 193.367 93.5133 193.162 93.5398C192.96 93.563 192.796 93.5829 192.67 93.5994C192.365 93.6392 192.08 93.7038 191.815 93.7933C191.553 93.8795 191.341 94.0104 191.178 94.1861C191.019 94.3584 190.94 94.5937 190.94 94.892C190.94 95.2997 191.09 95.608 191.392 95.8168C191.697 96.0223 192.083 96.125 192.55 96.125ZM197.929 97V89.3636H199.102V97H197.929ZM198.526 88.0909C198.297 88.0909 198.1 88.013 197.934 87.8572C197.772 87.7015 197.69 87.5142 197.69 87.2955C197.69 87.0767 197.772 86.8894 197.934 86.7337C198.1 86.5779 198.297 86.5 198.526 86.5C198.754 86.5 198.95 86.5779 199.112 86.7337C199.278 86.8894 199.361 87.0767 199.361 87.2955C199.361 87.5142 199.278 87.7015 199.112 87.8572C198.95 88.013 198.754 88.0909 198.526 88.0909ZM202.341 86.8182V97H201.167V86.8182H202.341ZM205.261 97.0795C205.015 97.0795 204.805 96.9917 204.629 96.8161C204.454 96.6404 204.366 96.4299 204.366 96.1847C204.366 95.9394 204.454 95.7289 204.629 95.5533C204.805 95.3776 205.015 95.2898 205.261 95.2898C205.506 95.2898 205.716 95.3776 205.892 95.5533C206.068 95.7289 206.156 95.9394 206.156 96.1847C206.156 96.3471 206.114 96.4962 206.031 96.6321C205.952 96.768 205.844 96.8774 205.708 96.9602C205.576 97.0398 205.426 97.0795 205.261 97.0795Z" fill="#212329"/>
<path d="M340.885 76V74.858L343.915 71.8878C344.205 71.5952 344.446 71.3352 344.639 71.108C344.832 70.8807 344.977 70.6605 345.074 70.4474C345.17 70.2344 345.219 70.0071 345.219 69.7656C345.219 69.4901 345.156 69.2543 345.031 69.0582C344.906 68.8594 344.734 68.706 344.516 68.598C344.297 68.4901 344.048 68.4361 343.77 68.4361C343.483 68.4361 343.232 68.4957 343.016 68.6151C342.8 68.7315 342.632 68.8977 342.513 69.1136C342.396 69.3295 342.338 69.5866 342.338 69.8849H340.834C340.834 69.331 340.96 68.8494 341.213 68.4403C341.466 68.0312 341.814 67.7145 342.257 67.4901C342.703 67.2656 343.214 67.1534 343.791 67.1534C344.376 67.1534 344.891 67.2628 345.334 67.4815C345.777 67.7003 346.121 68 346.365 68.3807C346.612 68.7614 346.736 69.196 346.736 69.6847C346.736 70.0114 346.673 70.3324 346.548 70.6477C346.423 70.9631 346.203 71.3125 345.888 71.696C345.575 72.0795 345.136 72.544 344.571 73.0895L343.067 74.6193V74.679H346.868V76H340.885ZM348.355 76V69.4545H349.83V70.5668H349.906C350.043 70.1918 350.268 69.8991 350.584 69.6889C350.899 69.4759 351.276 69.3693 351.713 69.3693C352.156 69.3693 352.53 69.4773 352.834 69.6932C353.141 69.9062 353.357 70.1974 353.482 70.5668H353.55C353.695 70.2031 353.939 69.9134 354.283 69.6974C354.629 69.4787 355.04 69.3693 355.514 69.3693C356.116 69.3693 356.608 69.5597 356.989 69.9403C357.369 70.321 357.56 70.8764 357.56 71.6065V76H356.013V71.8452C356.013 71.4389 355.905 71.142 355.689 70.9545C355.473 70.7642 355.209 70.669 354.896 70.669C354.524 70.669 354.233 70.7855 354.023 71.0185C353.815 71.2486 353.712 71.5483 353.712 71.9176V76H352.199V71.7812C352.199 71.4432 352.097 71.1733 351.892 70.9716C351.69 70.7699 351.426 70.669 351.099 70.669C350.878 70.669 350.676 70.7259 350.494 70.8395C350.313 70.9503 350.168 71.108 350.06 71.3125C349.952 71.5142 349.898 71.75 349.898 72.0199V76H348.355ZM363.985 76.1321C363.57 76.1321 363.196 76.0582 362.864 75.9105C362.534 75.7599 362.273 75.5384 362.08 75.2457C361.89 74.9531 361.794 74.5923 361.794 74.1634C361.794 73.794 361.863 73.4886 361.999 73.2472C362.135 73.0057 362.321 72.8125 362.557 72.6676C362.793 72.5227 363.059 72.4134 363.354 72.3395C363.652 72.2628 363.961 72.2074 364.279 72.1733C364.662 72.1335 364.973 72.098 365.212 72.0668C365.451 72.0327 365.624 71.9815 365.732 71.9134C365.843 71.8423 365.898 71.733 365.898 71.5852V71.5597C365.898 71.2386 365.803 70.9901 365.613 70.8139C365.422 70.6378 365.148 70.5497 364.79 70.5497C364.412 70.5497 364.113 70.6321 363.891 70.7969C363.672 70.9616 363.525 71.1562 363.448 71.3807L362.007 71.1761C362.121 70.7784 362.309 70.446 362.57 70.179C362.831 69.9091 363.151 69.7074 363.529 69.5739C363.907 69.4375 364.324 69.3693 364.782 69.3693C365.097 69.3693 365.411 69.4062 365.723 69.4801C366.036 69.554 366.321 69.6761 366.58 69.8466C366.838 70.0142 367.046 70.2429 367.202 70.5327C367.361 70.8224 367.441 71.1847 367.441 71.6193V76H365.958V75.1009H365.907C365.813 75.2827 365.681 75.4531 365.51 75.6122C365.343 75.7685 365.131 75.8949 364.875 75.9915C364.623 76.0852 364.326 76.1321 363.985 76.1321ZM364.385 74.9986C364.695 74.9986 364.963 74.9375 365.191 74.8153C365.418 74.6903 365.593 74.5256 365.715 74.321C365.84 74.1165 365.902 73.8935 365.902 73.652V72.8807C365.854 72.9205 365.772 72.9574 365.655 72.9915C365.542 73.0256 365.414 73.0554 365.272 73.081C365.13 73.1065 364.989 73.1293 364.85 73.1491C364.711 73.169 364.59 73.1861 364.488 73.2003C364.257 73.2315 364.051 73.2827 363.87 73.3537C363.688 73.4247 363.544 73.5241 363.439 73.652C363.334 73.777 363.282 73.9389 363.282 74.1378C363.282 74.4219 363.385 74.6364 363.593 74.7812C363.8 74.9261 364.064 74.9986 364.385 74.9986ZM371.838 78.5909C371.284 78.5909 370.809 78.5156 370.411 78.3651C370.013 78.2173 369.694 78.0185 369.452 77.7685C369.211 77.5185 369.043 77.2415 368.949 76.9375L370.338 76.6009C370.401 76.7287 370.492 76.8551 370.611 76.9801C370.73 77.108 370.891 77.2131 371.093 77.2955C371.297 77.3807 371.554 77.4233 371.864 77.4233C372.301 77.4233 372.664 77.3168 372.951 77.1037C373.238 76.8935 373.381 76.5469 373.381 76.0639V74.8239H373.304C373.225 74.983 373.108 75.1463 372.955 75.3139C372.804 75.4815 372.604 75.6222 372.354 75.7358C372.107 75.8494 371.796 75.9062 371.421 75.9062C370.918 75.9062 370.462 75.7884 370.053 75.5526C369.647 75.3139 369.323 74.9588 369.081 74.4872C368.843 74.0128 368.723 73.419 368.723 72.706C368.723 71.9872 368.843 71.3807 369.081 70.8864C369.323 70.3892 369.648 70.0128 370.057 69.7571C370.466 69.4986 370.922 69.3693 371.425 69.3693C371.809 69.3693 372.124 69.4347 372.371 69.5653C372.621 69.6932 372.82 69.848 372.968 70.0298C373.115 70.2088 373.228 70.3778 373.304 70.5369H373.39V69.4545H374.911V76.1065C374.911 76.6662 374.777 77.1293 374.51 77.4957C374.243 77.8622 373.878 78.1364 373.415 78.3182C372.952 78.5 372.426 78.5909 371.838 78.5909ZM371.851 74.696C372.178 74.696 372.456 74.6165 372.686 74.4574C372.917 74.2983 373.091 74.0696 373.211 73.7713C373.33 73.473 373.39 73.1151 373.39 72.6974C373.39 72.2855 373.33 71.9247 373.211 71.6151C373.094 71.3054 372.921 71.0653 372.691 70.8949C372.463 70.7216 372.184 70.6349 371.851 70.6349C371.507 70.6349 371.221 70.7244 370.99 70.9034C370.76 71.0824 370.587 71.3281 370.471 71.6406C370.354 71.9503 370.296 72.3026 370.296 72.6974C370.296 73.098 370.354 73.4489 370.471 73.75C370.59 74.0483 370.765 74.2812 370.995 74.4489C371.228 74.6136 371.513 74.696 371.851 74.696ZM379.347 76.1278C378.708 76.1278 378.154 75.9872 377.685 75.706C377.216 75.4247 376.853 75.0312 376.594 74.5256C376.338 74.0199 376.211 73.429 376.211 72.7528C376.211 72.0767 376.338 71.4844 376.594 70.9759C376.853 70.4673 377.216 70.0724 377.685 69.7912C378.154 69.5099 378.708 69.3693 379.347 69.3693C379.986 69.3693 380.54 69.5099 381.009 69.7912C381.478 70.0724 381.84 70.4673 382.096 70.9759C382.354 71.4844 382.483 72.0767 382.483 72.7528C382.483 73.429 382.354 74.0199 382.096 74.5256C381.84 75.0312 381.478 75.4247 381.009 75.706C380.54 75.9872 379.986 76.1278 379.347 76.1278ZM379.355 74.892C379.702 74.892 379.992 74.7969 380.225 74.6065C380.458 74.4134 380.631 74.1548 380.745 73.831C380.861 73.5071 380.919 73.1463 380.919 72.7486C380.919 72.348 380.861 71.9858 380.745 71.6619C380.631 71.3352 380.458 71.0753 380.225 70.8821C379.992 70.6889 379.702 70.5923 379.355 70.5923C379 70.5923 378.705 70.6889 378.469 70.8821C378.236 71.0753 378.061 71.3352 377.945 71.6619C377.831 71.9858 377.775 72.348 377.775 72.7486C377.775 73.1463 377.831 73.5071 377.945 73.831C378.061 74.1548 378.236 74.4134 378.469 74.6065C378.705 74.7969 379 74.892 379.355 74.892Z" fill="#3772FF"/>
<rect x="8" y="114" width="384" height="60" rx="8" fill="#EEF5FF" fill-opacity="0.6"/>
<rect x="18" y="122" width="20" height="20" rx="10" fill="#FEECEC"/>
</g>
<defs>
<clipPath id="clip0_55148_23821">
<rect width="400" height="125" fill="white"/>
</clipPath>
</defs>
</svg>
