<svg width="172" height="80" viewBox="0 0 172 80" fill="none" xmlns="http://www.w3.org/2000/svg">
<g clip-path="url(#clip0_55128_17924)">
<rect width="172" height="80" fill="white"/>
<mask id="path-1-inside-1_55128_17924" fill="white">
<path d="M0 0H172V80H0V0Z"/>
</mask>
<path d="M172 80V79H0V80V81H172V80Z" fill="#E9EEF4" mask="url(#path-1-inside-1_55128_17924)"/>
<rect x="22" y="20" width="130" height="40" rx="8" fill="#3772FF"/>
<path d="M47.7536 38.2536H45.8943C45.8412 37.9486 45.7435 37.6785 45.6009 37.4432C45.4584 37.2045 45.2811 37.0024 45.069 36.8366C44.8569 36.6709 44.6149 36.5466 44.3431 36.4638C44.0747 36.3776 43.7847 36.3345 43.4731 36.3345C42.9196 36.3345 42.4291 36.4737 42.0015 36.7521C41.574 37.0272 41.2392 37.4316 40.9972 37.9652C40.7553 38.4955 40.6343 39.1435 40.6343 39.9091C40.6343 40.688 40.7553 41.3442 40.9972 41.8778C41.2425 42.4081 41.5773 42.8092 42.0015 43.081C42.4291 43.3494 42.9179 43.4837 43.4681 43.4837C43.7731 43.4837 44.0581 43.4439 44.3232 43.3643C44.5917 43.2815 44.832 43.1605 45.0441 43.0014C45.2596 42.8423 45.4402 42.6468 45.586 42.4148C45.7352 42.1828 45.8379 41.9176 45.8943 41.6193L47.7536 41.6293C47.684 42.1132 47.5332 42.5672 47.3012 42.9915C47.0725 43.4157 46.7726 43.7902 46.4014 44.1151C46.0302 44.4366 45.596 44.6884 45.0988 44.8707C44.6017 45.0497 44.0498 45.1392 43.4433 45.1392C42.5484 45.1392 41.7496 44.9321 41.047 44.5178C40.3443 44.1035 39.7908 43.5052 39.3865 42.723C38.9821 41.9408 38.7799 41.0028 38.7799 39.9091C38.7799 38.812 38.9838 37.8741 39.3914 37.0952C39.7991 36.313 40.3543 35.7147 41.0569 35.3004C41.7596 34.8861 42.555 34.679 43.4433 34.679C44.01 34.679 44.537 34.7585 45.0242 34.9176C45.5115 35.0767 45.9456 35.3104 46.3268 35.6186C46.7079 35.9235 47.0212 36.2981 47.2664 36.7422C47.515 37.183 47.6774 37.6868 47.7536 38.2536ZM52.6942 45.1491C51.9484 45.1491 51.3021 44.9851 50.7552 44.657C50.2084 44.3288 49.7841 43.8698 49.4825 43.2798C49.1842 42.6899 49.0351 42.0005 49.0351 41.2116C49.0351 40.4228 49.1842 39.7318 49.4825 39.1385C49.7841 38.5452 50.2084 38.0845 50.7552 37.7564C51.3021 37.4283 51.9484 37.2642 52.6942 37.2642C53.4399 37.2642 54.0862 37.4283 54.6331 37.7564C55.18 38.0845 55.6025 38.5452 55.9008 39.1385C56.2024 39.7318 56.3532 40.4228 56.3532 41.2116C56.3532 42.0005 56.2024 42.6899 55.9008 43.2798C55.6025 43.8698 55.18 44.3288 54.6331 44.657C54.0862 44.9851 53.4399 45.1491 52.6942 45.1491ZM52.7041 43.7074C53.1085 43.7074 53.4465 43.5964 53.7183 43.3743C53.9901 43.1489 54.1923 42.8473 54.3248 42.4695C54.4607 42.0916 54.5287 41.6707 54.5287 41.2067C54.5287 40.7393 54.4607 40.3168 54.3248 39.9389C54.1923 39.5578 53.9901 39.2545 53.7183 39.0291C53.4465 38.8037 53.1085 38.6911 52.7041 38.6911C52.2898 38.6911 51.9451 38.8037 51.67 39.0291C51.3982 39.2545 51.1944 39.5578 51.0585 39.9389C50.9259 40.3168 50.8596 40.7393 50.8596 41.2067C50.8596 41.6707 50.9259 42.0916 51.0585 42.4695C51.1944 42.8473 51.3982 43.1489 51.67 43.3743C51.9451 43.5964 52.2898 43.7074 52.7041 43.7074ZM57.8808 45V37.3636H59.6009V38.6612H59.6904C59.8495 38.2237 60.113 37.8823 60.4809 37.6371C60.8488 37.3885 61.288 37.2642 61.7984 37.2642C62.3154 37.2642 62.7513 37.3902 63.1059 37.642C63.4639 37.8906 63.7158 38.2304 63.8616 38.6612H63.9411C64.1102 38.237 64.3952 37.8989 64.7963 37.647C65.2006 37.3918 65.6795 37.2642 66.233 37.2642C66.9357 37.2642 67.5091 37.4863 67.9532 37.9304C68.3973 38.3745 68.6194 39.0225 68.6194 39.8743V45H66.8147V40.1527C66.8147 39.6787 66.6888 39.3324 66.4369 39.1136C66.185 38.8916 65.8767 38.7805 65.5122 38.7805C65.078 38.7805 64.7383 38.9164 64.493 39.1882C64.251 39.4567 64.1301 39.8063 64.1301 40.2372V45H62.3651V40.0781C62.3651 39.6837 62.2458 39.3688 62.0072 39.1335C61.7719 38.8982 61.4636 38.7805 61.0825 38.7805C60.824 38.7805 60.5886 38.8468 60.3765 38.9794C60.1644 39.1087 59.9954 39.2926 59.8694 39.5312C59.7435 39.7666 59.6805 40.0417 59.6805 40.3565V45H57.8808ZM70.4452 47.8636V37.3636H72.2151V38.6264H72.3195C72.4123 38.4408 72.5432 38.2436 72.7123 38.0348C72.8813 37.8227 73.11 37.642 73.3983 37.4929C73.6867 37.3404 74.0546 37.2642 74.502 37.2642C75.092 37.2642 75.624 37.415 76.0979 37.7166C76.5752 38.0149 76.953 38.4574 77.2314 39.044C77.5132 39.6274 77.654 40.3433 77.654 41.1918C77.654 42.0303 77.5165 42.7429 77.2414 43.3295C76.9663 43.9162 76.5918 44.3636 76.1178 44.6719C75.6439 44.9801 75.1069 45.1342 74.507 45.1342C74.0695 45.1342 73.7066 45.0613 73.4182 44.9155C73.1299 44.7696 72.8979 44.594 72.7222 44.3885C72.5499 44.1797 72.4156 43.9825 72.3195 43.7969H72.2449V47.8636H70.4452ZM72.2101 41.1818C72.2101 41.6757 72.2797 42.1082 72.4189 42.4794C72.5615 42.8506 72.7653 43.1406 73.0305 43.3494C73.2989 43.5549 73.6237 43.6577 74.0049 43.6577C74.4026 43.6577 74.7357 43.5516 75.0042 43.3395C75.2726 43.1241 75.4748 42.8307 75.6107 42.4595C75.7499 42.085 75.8195 41.6591 75.8195 41.1818C75.8195 40.7079 75.7516 40.2869 75.6157 39.919C75.4798 39.5511 75.2776 39.2628 75.0091 39.054C74.7407 38.8452 74.4059 38.7408 74.0049 38.7408C73.6204 38.7408 73.2939 38.8419 73.0255 39.044C72.757 39.2462 72.5532 39.5296 72.414 39.8942C72.2781 40.2588 72.2101 40.688 72.2101 41.1818ZM80.9949 34.8182V45H79.1952V34.8182H80.9949ZM86.2263 45.1491C85.4607 45.1491 84.7994 44.9901 84.2426 44.6719C83.6891 44.3504 83.2632 43.8963 82.9649 43.3097C82.6666 42.7197 82.5175 42.0253 82.5175 41.2266C82.5175 40.4411 82.6666 39.7517 82.9649 39.1584C83.2665 38.5618 83.6875 38.0978 84.2277 37.7663C84.768 37.4316 85.4027 37.2642 86.1318 37.2642C86.6025 37.2642 87.0466 37.3404 87.4642 37.4929C87.8852 37.642 88.2564 37.8741 88.5779 38.1889C88.9027 38.5038 89.1579 38.9048 89.3435 39.392C89.5291 39.8759 89.6219 40.4527 89.6219 41.1222V41.674H83.3627V40.4609H87.8968C87.8934 40.1162 87.8189 39.8097 87.673 39.5412C87.5272 39.2694 87.3234 39.0556 87.0615 38.8999C86.803 38.7441 86.5014 38.6662 86.1567 38.6662C85.7888 38.6662 85.4656 38.7557 85.1872 38.9347C84.9088 39.1103 84.6917 39.3423 84.536 39.6307C84.3835 39.9157 84.3056 40.2289 84.3023 40.5703V41.6293C84.3023 42.0734 84.3835 42.4545 84.5459 42.7727C84.7083 43.0876 84.9353 43.3295 85.227 43.4986C85.5187 43.6643 85.8601 43.7472 86.2512 43.7472C86.513 43.7472 86.75 43.7107 86.9621 43.6378C87.1742 43.5616 87.3582 43.4505 87.5139 43.3047C87.6697 43.1589 87.7874 42.9782 87.8669 42.7628L89.5473 42.9517C89.4413 43.3958 89.2391 43.7836 88.9408 44.1151C88.6458 44.4432 88.268 44.6984 87.8073 44.8807C87.3466 45.0597 86.8196 45.1491 86.2263 45.1491ZM94.9577 37.3636V38.7557H90.5677V37.3636H94.9577ZM91.6515 35.5341H93.4513V42.7031C93.4513 42.9451 93.4877 43.1307 93.5606 43.2599C93.6369 43.3859 93.7363 43.4721 93.8589 43.5185C93.9816 43.5649 94.1175 43.5881 94.2666 43.5881C94.3793 43.5881 94.482 43.5798 94.5748 43.5632C94.671 43.5466 94.7439 43.5317 94.7936 43.5185L95.0969 44.9254C95.0007 44.9586 94.8632 44.995 94.6842 45.0348C94.5086 45.0746 94.2931 45.0978 94.0379 45.1044C93.5872 45.1177 93.1811 45.0497 92.8199 44.9006C92.4586 44.7481 92.1719 44.5128 91.9598 44.1946C91.751 43.8764 91.6482 43.4787 91.6515 43.0014V35.5341ZM99.7615 45.1491C98.9958 45.1491 98.3346 44.9901 97.7778 44.6719C97.2243 44.3504 96.7984 43.8963 96.5001 43.3097C96.2018 42.7197 96.0526 42.0253 96.0526 41.2266C96.0526 40.4411 96.2018 39.7517 96.5001 39.1584C96.8017 38.5618 97.2226 38.0978 97.7629 37.7663C98.3031 37.4316 98.9378 37.2642 99.667 37.2642C100.138 37.2642 100.582 37.3404 100.999 37.4929C101.42 37.642 101.792 37.8741 102.113 38.1889C102.438 38.5038 102.693 38.9048 102.879 39.392C103.064 39.8759 103.157 40.4527 103.157 41.1222V41.674H96.8978V40.4609H101.432C101.429 40.1162 101.354 39.8097 101.208 39.5412C101.062 39.2694 100.859 39.0556 100.597 38.8999C100.338 38.7441 100.037 38.6662 99.6919 38.6662C99.324 38.6662 99.0008 38.7557 98.7224 38.9347C98.444 39.1103 98.2269 39.3423 98.0711 39.6307C97.9186 39.9157 97.8408 40.2289 97.8374 40.5703V41.6293C97.8374 42.0734 97.9186 42.4545 98.0811 42.7727C98.2435 43.0876 98.4705 43.3295 98.7622 43.4986C99.0538 43.6643 99.3952 43.7472 99.7863 43.7472C100.048 43.7472 100.285 43.7107 100.497 43.6378C100.709 43.5616 100.893 43.4505 101.049 43.3047C101.205 43.1589 101.323 42.9782 101.402 42.7628L103.082 42.9517C102.976 43.3958 102.774 43.7836 102.476 44.1151C102.181 44.4432 101.803 44.6984 101.342 44.8807C100.882 45.0597 100.355 45.1491 99.7615 45.1491ZM109.952 34.8182V45H108.152V34.8182H109.952ZM115.134 45.1491C114.388 45.1491 113.742 44.9851 113.195 44.657C112.648 44.3288 112.224 43.8698 111.922 43.2798C111.624 42.6899 111.475 42.0005 111.475 41.2116C111.475 40.4228 111.624 39.7318 111.922 39.1385C112.224 38.5452 112.648 38.0845 113.195 37.7564C113.742 37.4283 114.388 37.2642 115.134 37.2642C115.879 37.2642 116.526 37.4283 117.073 37.7564C117.619 38.0845 118.042 38.5452 118.34 39.1385C118.642 39.7318 118.793 40.4228 118.793 41.2116C118.793 42.0005 118.642 42.6899 118.34 43.2798C118.042 43.8698 117.619 44.3288 117.073 44.657C116.526 44.9851 115.879 45.1491 115.134 45.1491ZM115.144 43.7074C115.548 43.7074 115.886 43.5964 116.158 43.3743C116.43 43.1489 116.632 42.8473 116.764 42.4695C116.9 42.0916 116.968 41.6707 116.968 41.2067C116.968 40.7393 116.9 40.3168 116.764 39.9389C116.632 39.5578 116.43 39.2545 116.158 39.0291C115.886 38.8037 115.548 38.6911 115.144 38.6911C114.729 38.6911 114.385 38.8037 114.109 39.0291C113.838 39.2545 113.634 39.5578 113.498 39.9389C113.365 40.3168 113.299 40.7393 113.299 41.2067C113.299 41.6707 113.365 42.0916 113.498 42.4695C113.634 42.8473 113.838 43.1489 114.109 43.3743C114.385 43.5964 114.729 43.7074 115.144 43.7074ZM122.518 45.1541C122.034 45.1541 121.598 45.0679 121.21 44.8956C120.826 44.7199 120.521 44.4614 120.295 44.12C120.073 43.7786 119.962 43.3577 119.962 42.8572C119.962 42.4264 120.042 42.0701 120.201 41.7884C120.36 41.5066 120.577 41.2812 120.852 41.1122C121.127 40.9432 121.437 40.8156 121.782 40.7294C122.13 40.6399 122.489 40.5753 122.861 40.5355C123.308 40.4891 123.671 40.4477 123.949 40.4112C124.228 40.3714 124.43 40.3118 124.556 40.2322C124.685 40.1494 124.75 40.0218 124.75 39.8494V39.8196C124.75 39.4451 124.639 39.1551 124.417 38.9496C124.195 38.7441 123.875 38.6413 123.457 38.6413C123.016 38.6413 122.667 38.7375 122.408 38.9297C122.153 39.1219 121.981 39.349 121.891 39.6108L120.211 39.3722C120.343 38.9081 120.562 38.5204 120.867 38.2088C121.172 37.8939 121.545 37.6586 121.986 37.5028C122.427 37.3438 122.914 37.2642 123.447 37.2642C123.815 37.2642 124.181 37.3073 124.546 37.3935C124.911 37.4796 125.244 37.6222 125.545 37.821C125.847 38.0166 126.089 38.2834 126.271 38.6214C126.457 38.9595 126.55 39.3821 126.55 39.8892V45H124.82V43.951H124.76C124.65 44.1631 124.496 44.362 124.297 44.5476C124.102 44.7299 123.855 44.8774 123.557 44.9901C123.262 45.0994 122.915 45.1541 122.518 45.1541ZM122.985 43.8317C123.346 43.8317 123.659 43.7604 123.925 43.6179C124.19 43.4721 124.394 43.2798 124.536 43.0412C124.682 42.8026 124.755 42.5424 124.755 42.2607V41.3608C124.699 41.4072 124.602 41.4503 124.467 41.4901C124.334 41.5298 124.185 41.5646 124.019 41.5945C123.853 41.6243 123.689 41.6508 123.527 41.674C123.364 41.6972 123.224 41.7171 123.104 41.7337C122.836 41.7701 122.596 41.8298 122.383 41.9126C122.171 41.9955 122.004 42.1115 121.881 42.2607C121.759 42.4065 121.697 42.5954 121.697 42.8274C121.697 43.1589 121.818 43.4091 122.06 43.5781C122.302 43.7472 122.61 43.8317 122.985 43.8317ZM130.159 40.5256V45H128.359V37.3636H130.079V38.6612H130.169C130.345 38.2337 130.625 37.8939 131.009 37.642C131.397 37.3902 131.876 37.2642 132.446 37.2642C132.973 37.2642 133.432 37.3769 133.823 37.6023C134.217 37.8277 134.522 38.1541 134.738 38.5817C134.957 39.0092 135.064 39.5279 135.061 40.1378V45H133.261V40.4162C133.261 39.9058 133.129 39.5064 132.864 39.218C132.602 38.9297 132.239 38.7855 131.775 38.7855C131.46 38.7855 131.18 38.8551 130.935 38.9943C130.693 39.1302 130.502 39.3274 130.363 39.5859C130.227 39.8445 130.159 40.1577 130.159 40.5256Z" fill="white"/>
</g>
<defs>
<clipPath id="clip0_55128_17924">
<rect width="172" height="80" fill="white"/>
</clipPath>
</defs>
</svg>
