<svg width="519" height="314" viewBox="0 0 519 314" fill="none" xmlns="http://www.w3.org/2000/svg">
<g clip-path="url(#clip0_55128_17902)">
<rect width="519" height="314" fill="white"/>
<rect width="519" height="42" fill="white"/>
<path fill-rule="evenodd" clip-rule="evenodd" d="M12 18.3378V17.0067H23.3333V18.3378H12ZM12 21.6656H23.3333V20.3345H12V21.6656ZM12 24.9933H23.3333V23.6622H12V24.9933Z" fill="#64676C"/>
<path d="M39.5561 28.2683V20.9964L37.2644 18.9331L35.2095 17.7882V26.985C35.2095 27.6951 35.7941 28.2683 36.5135 28.2683H39.5561V28.2683Z" fill="#4285F4"/>
<path d="M49.9878 28.2684H53.0304C53.752 28.2684 54.3344 27.693 54.3344 26.985V17.7883L52.0068 19.0997L49.9878 20.9964V28.2684V28.2684Z" fill="#34A853"/>
<path d="M39.5555 20.9964L39.2437 18.155L39.5555 15.4355L44.7714 19.2854L49.9873 15.4355L50.3361 18.0082L49.9873 20.9964L44.7714 24.8462L39.5555 20.9964Z" fill="#EA4335"/>
<path d="M49.9878 15.4356V20.9964L54.3344 17.7882V16.0772C54.3344 14.4902 52.4936 13.5856 51.2049 14.5373L49.9878 15.4356Z" fill="#FBBC04"/>
<path d="M35.2095 17.7881L37.2086 19.2637L39.5561 20.9963V15.4355L38.3389 14.5372C37.048 13.5854 35.2095 14.4901 35.2095 16.077V17.7881V17.7881Z" fill="#C5221F"/>
<path d="M65.8471 20.7823H69.4351V25.6057C68.9313 25.7722 68.41 25.9014 67.8711 25.9934C67.3323 26.0854 66.7277 26.1314 66.0574 26.1314C65.0805 26.1314 64.2525 25.9387 63.5734 25.5531C62.8987 25.1632 62.3862 24.6003 62.0357 23.8643C61.6852 23.1239 61.51 22.2324 61.51 21.1897C61.51 20.1865 61.7049 19.3168 62.0948 18.5808C62.4847 17.8404 63.0521 17.2687 63.7968 16.8657C64.5416 16.4583 65.4441 16.2545 66.5043 16.2545C67.0256 16.2545 67.5294 16.3071 68.0157 16.4123C68.5064 16.513 68.9554 16.6532 69.3629 16.8328L68.8109 18.134C68.4867 17.9806 68.123 17.8514 67.72 17.7463C67.3169 17.6411 66.8986 17.5885 66.4648 17.5885C65.777 17.5885 65.1834 17.7375 64.684 18.0354C64.1889 18.3333 63.8078 18.7539 63.5405 19.2971C63.2733 19.836 63.1397 20.4734 63.1397 21.2094C63.1397 21.9235 63.247 22.55 63.4617 23.0888C63.6764 23.6277 64.0115 24.0483 64.4671 24.3506C64.9271 24.6485 65.5207 24.7974 66.248 24.7974C66.6116 24.7974 66.9205 24.7777 67.1746 24.7383C67.4287 24.6989 67.663 24.655 67.8777 24.6069V22.1294H65.8471V20.7823ZM79.3237 18.5874C80.1386 18.5874 80.7519 18.7977 81.1637 19.2183C81.5799 19.6388 81.788 20.3135 81.788 21.2423V26H80.2437V21.5183C80.2437 20.9663 80.1364 20.5501 79.9217 20.2697C79.7071 19.9893 79.3807 19.8491 78.9426 19.8491C78.3293 19.8491 77.8868 20.0463 77.6152 20.4406C77.3479 20.8305 77.2143 21.3978 77.2143 22.1426V26H75.67V21.5183C75.67 21.1503 75.6218 20.8436 75.5254 20.5983C75.4334 20.3486 75.2911 20.1624 75.0983 20.0397C74.9055 19.9126 74.6624 19.8491 74.3689 19.8491C73.9439 19.8491 73.6044 19.9455 73.3503 20.1383C73.1006 20.331 72.921 20.6158 72.8114 20.9926C72.7019 21.3649 72.6471 21.8227 72.6471 22.366V26H71.1028V18.7254H72.3054L72.5223 19.7045H72.6077C72.7567 19.4505 72.9407 19.2424 73.1597 19.0803C73.3831 18.9138 73.6307 18.7911 73.9023 18.7123C74.1739 18.629 74.4565 18.5874 74.75 18.5874C75.2932 18.5874 75.7511 18.6838 76.1234 18.8765C76.4958 19.0649 76.774 19.3541 76.958 19.744H77.0763C77.3041 19.3497 77.6217 19.0584 78.0292 18.87C78.4366 18.6816 78.8681 18.5874 79.3237 18.5874ZM86.3209 18.5874C87.2409 18.5874 87.9353 18.7911 88.404 19.1985C88.8772 19.606 89.1138 20.2412 89.1138 21.1043V26H88.0163L87.7206 24.9683H87.668C87.4621 25.2311 87.2497 25.448 87.0306 25.6189C86.8116 25.7897 86.5575 25.9168 86.2683 26C85.9836 26.0876 85.6353 26.1314 85.2235 26.1314C84.7897 26.1314 84.402 26.0526 84.0603 25.8949C83.7186 25.7328 83.4492 25.4874 83.252 25.1589C83.0549 24.8303 82.9563 24.4141 82.9563 23.9103C82.9563 23.1611 83.2345 22.5982 83.7909 22.2214C84.3516 21.8447 85.1972 21.6366 86.3275 21.5971L87.5892 21.5511V21.17C87.5892 20.6662 87.4709 20.3069 87.2343 20.0923C87.0021 19.8776 86.6736 19.7703 86.2486 19.7703C85.885 19.7703 85.5323 19.8228 85.1906 19.928C84.8489 20.0331 84.5159 20.1624 84.1917 20.3157L83.6923 19.2248C84.0472 19.0365 84.4502 18.8831 84.9015 18.7648C85.3571 18.6465 85.8302 18.5874 86.3209 18.5874ZM87.5826 22.5237L86.6429 22.5566C85.8718 22.5828 85.3308 22.7143 85.0197 22.9508C84.7087 23.1874 84.5532 23.5116 84.5532 23.9234C84.5532 24.2827 84.6605 24.5455 84.8752 24.712C85.0898 24.8741 85.3724 24.9551 85.7229 24.9551C86.2574 24.9551 86.6998 24.804 87.0503 24.5017C87.4052 24.195 87.5826 23.746 87.5826 23.1546V22.5237ZM92.3455 18.7254V26H90.8012V18.7254H92.3455ZM91.5832 15.9391C91.8198 15.9391 92.0235 16.0026 92.1943 16.1297C92.3696 16.2567 92.4572 16.4758 92.4572 16.7868C92.4572 17.0935 92.3696 17.3125 92.1943 17.444C92.0235 17.571 91.8198 17.6345 91.5832 17.6345C91.3379 17.6345 91.1298 17.571 90.9589 17.444C90.7924 17.3125 90.7092 17.0935 90.7092 16.7868C90.7092 16.4758 90.7924 16.2567 90.9589 16.1297C91.1298 16.0026 91.3379 15.9391 91.5832 15.9391ZM95.6363 26H94.0855V15.7748H95.6363V26Z" fill="#64686C"/>
<rect width="519" height="272" transform="translate(0 42)" fill="#F6F7FB"/>
<rect x="16" y="58" width="487" height="254.667" rx="16" fill="white"/>
<path d="M51.4393 105.325H55.5873V106.583H49.8923V94.7344H51.4393V105.325ZM65.7301 101.568C65.7301 101.863 65.7131 102.175 65.6791 102.503H58.2331C58.2898 103.421 58.6015 104.141 59.1681 104.662C59.7461 105.172 60.4431 105.427 61.2591 105.427C61.9278 105.427 62.4831 105.274 62.9251 104.968C63.3785 104.651 63.6958 104.232 63.8771 103.71H65.5431C65.2938 104.606 64.7951 105.337 64.0471 105.903C63.2991 106.459 62.3698 106.736 61.2591 106.736C60.3751 106.736 59.5818 106.538 58.8791 106.141C58.1878 105.745 57.6438 105.184 57.2471 104.458C56.8505 103.722 56.6521 102.872 56.6521 101.908C56.6521 100.945 56.8448 100.101 57.2301 99.3754C57.6155 98.65 58.1538 98.0947 58.8451 97.7094C59.5478 97.3127 60.3525 97.1144 61.2591 97.1144C62.1431 97.1144 62.9251 97.307 63.6051 97.6924C64.2851 98.0777 64.8065 98.6104 65.1691 99.2904C65.5431 99.959 65.7301 100.718 65.7301 101.568ZM64.1321 101.245C64.1321 100.656 64.0018 100.152 63.7411 99.7324C63.4805 99.3017 63.1235 98.9787 62.6701 98.7634C62.2281 98.5367 61.7351 98.4234 61.1911 98.4234C60.4091 98.4234 59.7405 98.6727 59.1851 99.1714C58.6411 99.67 58.3295 100.361 58.2501 101.245H64.1321ZM72.3111 97.0974C73.4445 97.0974 74.3625 97.443 75.0651 98.1344C75.7678 98.8144 76.1191 99.8004 76.1191 101.092V106.583H74.5891V101.313C74.5891 100.384 74.3568 99.6757 73.8921 99.1884C73.4275 98.6897 72.7928 98.4404 71.9881 98.4404C71.1721 98.4404 70.5205 98.6954 70.0331 99.2054C69.5571 99.7154 69.3191 100.458 69.3191 101.432V106.583H67.7721V97.2674H69.3191V98.5934C69.6251 98.1174 70.0388 97.749 70.5601 97.4884C71.0928 97.2277 71.6765 97.0974 72.3111 97.0974ZM78.0682 101.891C78.0682 100.939 78.2608 100.106 78.6462 99.3924C79.0315 98.667 79.5585 98.106 80.2272 97.7094C80.9072 97.3127 81.6665 97.1144 82.5052 97.1144C83.2305 97.1144 83.9048 97.2844 84.5282 97.6244C85.1515 97.953 85.6275 98.3894 85.9562 98.9334V94.0034H87.5202V106.583H85.9562V104.832C85.6502 105.388 85.1968 105.847 84.5962 106.209C83.9955 106.561 83.2928 106.736 82.4882 106.736C81.6608 106.736 80.9072 106.532 80.2272 106.124C79.5585 105.716 79.0315 105.144 78.6462 104.407C78.2608 103.671 78.0682 102.832 78.0682 101.891ZM85.9562 101.908C85.9562 101.206 85.8145 100.594 85.5312 100.072C85.2478 99.551 84.8625 99.1544 84.3752 98.8824C83.8992 98.599 83.3722 98.4574 82.7942 98.4574C82.2162 98.4574 81.6892 98.5934 81.2132 98.8654C80.7372 99.1374 80.3575 99.534 80.0742 100.055C79.7908 100.577 79.6492 101.189 79.6492 101.891C79.6492 102.605 79.7908 103.229 80.0742 103.761C80.3575 104.283 80.7372 104.685 81.2132 104.968C81.6892 105.24 82.2162 105.376 82.7942 105.376C83.3722 105.376 83.8992 105.24 84.3752 104.968C84.8625 104.685 85.2478 104.283 85.5312 103.761C85.8145 103.229 85.9562 102.611 85.9562 101.908ZM98.6344 101.568C98.6344 101.863 98.6174 102.175 98.5834 102.503H91.1374C91.1941 103.421 91.5058 104.141 92.0724 104.662C92.6504 105.172 93.3474 105.427 94.1634 105.427C94.8321 105.427 95.3874 105.274 95.8294 104.968C96.2828 104.651 96.6001 104.232 96.7814 103.71H98.4474C98.1981 104.606 97.6994 105.337 96.9514 105.903C96.2034 106.459 95.2741 106.736 94.1634 106.736C93.2794 106.736 92.4861 106.538 91.7834 106.141C91.0921 105.745 90.5481 105.184 90.1514 104.458C89.7548 103.722 89.5564 102.872 89.5564 101.908C89.5564 100.945 89.7491 100.101 90.1344 99.3754C90.5198 98.65 91.0581 98.0947 91.7494 97.7094C92.4521 97.3127 93.2568 97.1144 94.1634 97.1144C95.0474 97.1144 95.8294 97.307 96.5094 97.6924C97.1894 98.0777 97.7108 98.6104 98.0734 99.2904C98.4474 99.959 98.6344 100.718 98.6344 101.568ZM97.0364 101.245C97.0364 100.656 96.9061 100.152 96.6454 99.7324C96.3848 99.3017 96.0278 98.9787 95.5744 98.7634C95.1324 98.5367 94.6394 98.4234 94.0954 98.4234C93.3134 98.4234 92.6448 98.6727 92.0894 99.1714C91.5454 99.67 91.2338 100.361 91.1544 101.245H97.0364ZM102.223 98.7804C102.495 98.2477 102.881 97.834 103.379 97.5394C103.889 97.2447 104.507 97.0974 105.232 97.0974V98.6954H104.824C103.09 98.6954 102.223 99.636 102.223 101.517V106.583H100.676V97.2674H102.223V98.7804ZM115.858 98.4914C115.858 99.1827 115.7 99.8174 115.382 100.395C115.065 100.962 114.578 101.421 113.92 101.772C113.263 102.124 112.447 102.299 111.472 102.299H109.67V106.583H106.763V94.6494H111.472C112.424 94.6494 113.229 94.8137 113.886 95.1424C114.544 95.471 115.037 95.9244 115.365 96.5024C115.694 97.0804 115.858 97.7434 115.858 98.4914ZM111.251 99.9874C111.807 99.9874 112.22 99.857 112.492 99.5964C112.764 99.3357 112.9 98.9674 112.9 98.4914C112.9 98.0154 112.764 97.647 112.492 97.3864C112.22 97.1257 111.807 96.9954 111.251 96.9954H109.67V99.9874H111.251ZM116.794 101.823C116.794 100.849 116.975 99.993 117.338 99.2564C117.712 98.5197 118.216 97.953 118.851 97.5564C119.485 97.1597 120.194 96.9614 120.976 96.9614C121.644 96.9614 122.228 97.0974 122.727 97.3694C123.237 97.6414 123.628 97.9984 123.9 98.4404V97.0974H126.807V106.583H123.9V105.24C123.616 105.682 123.22 106.039 122.71 106.311C122.211 106.583 121.627 106.719 120.959 106.719C120.188 106.719 119.485 106.521 118.851 106.124C118.216 105.716 117.712 105.144 117.338 104.407C116.975 103.659 116.794 102.798 116.794 101.823ZM123.9 101.84C123.9 101.115 123.696 100.543 123.288 100.123C122.891 99.704 122.404 99.4944 121.826 99.4944C121.248 99.4944 120.755 99.704 120.347 100.123C119.95 100.531 119.752 101.098 119.752 101.823C119.752 102.549 119.95 103.127 120.347 103.557C120.755 103.977 121.248 104.186 121.826 104.186C122.404 104.186 122.891 103.977 123.288 103.557C123.696 103.138 123.9 102.566 123.9 101.84ZM131.817 98.6784C132.157 98.157 132.582 97.749 133.092 97.4544C133.602 97.1484 134.168 96.9954 134.792 96.9954V100.072H133.993C133.267 100.072 132.723 100.231 132.361 100.548C131.998 100.854 131.817 101.398 131.817 102.18V106.583H128.91V97.0974H131.817V98.6784ZM141.468 104.118V106.583H139.989C138.935 106.583 138.114 106.328 137.524 105.818C136.935 105.297 136.64 104.453 136.64 103.285V99.5114H135.484V97.0974H136.64V94.7854H139.547V97.0974H141.451V99.5114H139.547V103.319C139.547 103.603 139.615 103.807 139.751 103.931C139.887 104.056 140.114 104.118 140.431 104.118H141.468ZM148.867 96.9954C149.978 96.9954 150.862 97.358 151.519 98.0834C152.188 98.7974 152.522 99.7834 152.522 101.041V106.583H149.632V101.432C149.632 100.798 149.468 100.305 149.139 99.9534C148.811 99.602 148.369 99.4264 147.813 99.4264C147.258 99.4264 146.816 99.602 146.487 99.9534C146.159 100.305 145.994 100.798 145.994 101.432V106.583H143.087V97.0974H145.994V98.3554C146.289 97.936 146.686 97.6074 147.184 97.3694C147.683 97.12 148.244 96.9954 148.867 96.9954ZM163.485 101.687C163.485 101.959 163.468 102.243 163.434 102.537H156.855C156.9 103.127 157.087 103.58 157.416 103.897C157.756 104.203 158.169 104.356 158.657 104.356C159.382 104.356 159.886 104.05 160.17 103.438H163.264C163.105 104.062 162.816 104.623 162.397 105.121C161.989 105.62 161.473 106.011 160.85 106.294C160.226 106.578 159.529 106.719 158.759 106.719C157.829 106.719 157.002 106.521 156.277 106.124C155.551 105.728 154.985 105.161 154.577 104.424C154.169 103.688 153.965 102.826 153.965 101.84C153.965 100.854 154.163 99.993 154.56 99.2564C154.968 98.5197 155.534 97.953 156.26 97.5564C156.985 97.1597 157.818 96.9614 158.759 96.9614C159.677 96.9614 160.493 97.154 161.207 97.5394C161.921 97.9247 162.476 98.4744 162.873 99.1884C163.281 99.9024 163.485 100.735 163.485 101.687ZM160.51 100.922C160.51 100.424 160.34 100.027 160 99.7324C159.66 99.4377 159.235 99.2904 158.725 99.2904C158.237 99.2904 157.824 99.432 157.484 99.7154C157.155 99.9987 156.951 100.401 156.872 100.922H160.51ZM167.925 98.6784C168.265 98.157 168.69 97.749 169.2 97.4544C169.71 97.1484 170.277 96.9954 170.9 96.9954V100.072H170.101C169.376 100.072 168.832 100.231 168.469 100.548C168.106 100.854 167.925 101.398 167.925 102.18V106.583H165.018V97.0974H167.925V98.6784Z" fill="#0073DE"/>
<path d="M52.5676 141.583H49.7061V132.311H52.6944C53.5939 132.311 54.3636 132.496 55.0035 132.868C55.6434 133.236 56.1339 133.766 56.475 134.457C56.8161 135.145 56.9867 135.969 56.9867 136.929C56.9867 137.895 56.8146 138.726 56.4705 139.424C56.1264 140.118 55.6253 140.652 54.9673 141.026C54.3093 141.398 53.5094 141.583 52.5676 141.583ZM50.829 140.587H52.4952C53.2619 140.587 53.8973 140.439 54.4013 140.144C54.9054 139.848 55.2812 139.427 55.5287 138.88C55.7763 138.334 55.9 137.684 55.9 136.929C55.9 136.18 55.7778 135.536 55.5333 134.996C55.2888 134.452 54.9235 134.036 54.4376 133.746C53.9516 133.453 53.3464 133.307 52.622 133.307H50.829V140.587ZM61.6411 141.728C60.971 141.728 60.393 141.58 59.907 141.285C59.4241 140.986 59.0513 140.569 58.7887 140.035C58.5291 139.498 58.3993 138.873 58.3993 138.16C58.3993 137.448 58.5291 136.82 58.7887 136.277C59.0513 135.731 59.4165 135.305 59.8844 135C60.3553 134.692 60.9046 134.538 61.5325 134.538C61.8947 134.538 62.2524 134.599 62.6055 134.719C62.9587 134.84 63.2802 135.036 63.5699 135.308C63.8597 135.577 64.0906 135.933 64.2627 136.377C64.4347 136.82 64.5208 137.367 64.5208 138.016V138.468H59.16V137.545H63.4341C63.4341 137.152 63.3556 136.802 63.1987 136.494C63.0447 136.186 62.8244 135.943 62.5376 135.765C62.2539 135.587 61.9188 135.498 61.5325 135.498C61.1069 135.498 60.7386 135.604 60.4277 135.815C60.1198 136.023 59.8829 136.295 59.7169 136.63C59.5508 136.965 59.4678 137.324 59.4678 137.708V138.323C59.4678 138.849 59.5584 139.294 59.7395 139.659C59.9236 140.021 60.1787 140.298 60.5047 140.488C60.8307 140.675 61.2095 140.768 61.6411 140.768C61.9219 140.768 62.1754 140.729 62.4018 140.651C62.6312 140.569 62.8289 140.448 62.9949 140.288C63.1609 140.125 63.2892 139.923 63.3798 139.682L64.4121 139.972C64.3034 140.322 64.1208 140.63 63.8642 140.895C63.6077 141.158 63.2907 141.363 62.9134 141.511C62.5361 141.656 62.112 141.728 61.6411 141.728ZM68.1927 141.746C67.752 141.746 67.3521 141.663 66.9929 141.497C66.6337 141.328 66.3484 141.085 66.1371 140.768C65.9258 140.448 65.8202 140.062 65.8202 139.609C65.8202 139.211 65.8987 138.888 66.0556 138.64C66.2126 138.39 66.4224 138.194 66.685 138.052C66.9476 137.91 67.2374 137.804 67.5543 137.735C67.8743 137.662 68.1957 137.605 68.5187 137.563C68.9413 137.508 69.2839 137.468 69.5465 137.441C69.8121 137.41 70.0053 137.361 70.126 137.291C70.2498 137.222 70.3117 137.101 70.3117 136.929V136.893C70.3117 136.446 70.1894 136.099 69.9449 135.851C69.7035 135.604 69.3367 135.48 68.8447 135.48C68.3346 135.48 67.9346 135.592 67.6449 135.815C67.3551 136.038 67.1513 136.277 67.0336 136.53L66.0194 136.168C66.2005 135.746 66.442 135.417 66.7439 135.181C67.0487 134.943 67.3807 134.777 67.7399 134.683C68.1022 134.587 68.4583 134.538 68.8085 134.538C69.0318 134.538 69.2884 134.565 69.5782 134.62C69.871 134.671 70.1532 134.778 70.4249 134.941C70.6996 135.104 70.9274 135.35 71.1086 135.679C71.2897 136.008 71.3802 136.449 71.3802 137.001V141.583H70.3117V140.642H70.2573C70.1849 140.793 70.0642 140.954 69.8951 141.126C69.7261 141.298 69.5012 141.445 69.2205 141.565C68.9398 141.686 68.5972 141.746 68.1927 141.746ZM68.3557 140.786C68.7783 140.786 69.1345 140.703 69.4243 140.537C69.717 140.371 69.9374 140.157 70.0853 139.895C70.2362 139.632 70.3117 139.356 70.3117 139.066V138.088C70.2664 138.142 70.1668 138.192 70.0129 138.237C69.8619 138.28 69.6869 138.317 69.4876 138.351C69.2914 138.381 69.0998 138.408 68.9126 138.432C68.7285 138.453 68.5791 138.471 68.4644 138.486C68.1867 138.523 67.9271 138.582 67.6856 138.663C67.4472 138.741 67.254 138.861 67.1061 139.021C66.9612 139.178 66.8887 139.392 66.8887 139.664C66.8887 140.035 67.0261 140.316 67.3008 140.506C67.5785 140.693 67.9301 140.786 68.3557 140.786ZM73.3305 141.583V134.629H74.3628V135.679H74.4353C74.5621 135.335 74.7915 135.056 75.1235 134.842C75.4555 134.627 75.8298 134.52 76.2464 134.52C76.3248 134.52 76.4229 134.522 76.5407 134.525C76.6584 134.528 76.7474 134.532 76.8078 134.538V135.625C76.7716 135.616 76.6886 135.602 76.5588 135.584C76.432 135.563 76.2977 135.552 76.1558 135.552C75.8177 135.552 75.5159 135.623 75.2503 135.765C74.9877 135.904 74.7794 136.097 74.6254 136.345C74.4745 136.589 74.3991 136.869 74.3991 137.182V141.583H73.3305ZM82.1856 142.742V131.152H84.866V132.039H83.1998V141.855H84.866V142.742H82.1856ZM87.5475 132.311V141.583H86.4246V132.311H87.5475ZM90.7225 137.4V141.583H89.654V134.629H90.6863V135.715H90.7769C90.9399 135.362 91.1874 135.079 91.5194 134.864C91.8515 134.647 92.2801 134.538 92.8053 134.538C93.2762 134.538 93.6882 134.635 94.0413 134.828C94.3945 135.018 94.6692 135.308 94.8654 135.697C95.0616 136.084 95.1597 136.573 95.1597 137.164V141.583H94.0912V137.237C94.0912 136.69 93.9493 136.265 93.6655 135.96C93.3818 135.652 92.9924 135.498 92.4974 135.498C92.1563 135.498 91.8515 135.572 91.5828 135.72C91.3172 135.868 91.1074 136.084 90.9535 136.367C90.7995 136.651 90.7225 136.995 90.7225 137.4ZM102.55 134.629L99.9783 141.583H98.8916L96.3199 134.629H97.479L99.3987 140.171H99.4712L101.391 134.629H102.55ZM106.627 141.728C105.957 141.728 105.379 141.58 104.893 141.285C104.41 140.986 104.037 140.569 103.775 140.035C103.515 139.498 103.385 138.873 103.385 138.16C103.385 137.448 103.515 136.82 103.775 136.277C104.037 135.731 104.403 135.305 104.87 135C105.341 134.692 105.891 134.538 106.519 134.538C106.881 134.538 107.238 134.599 107.592 134.719C107.945 134.84 108.266 135.036 108.556 135.308C108.846 135.577 109.077 135.933 109.249 136.377C109.421 136.82 109.507 137.367 109.507 138.016V138.468H104.146V137.545H108.42C108.42 137.152 108.342 136.802 108.185 136.494C108.031 136.186 107.81 135.943 107.524 135.765C107.24 135.587 106.905 135.498 106.519 135.498C106.093 135.498 105.725 135.604 105.414 135.815C105.106 136.023 104.869 136.295 104.703 136.63C104.537 136.965 104.454 137.324 104.454 137.708V138.323C104.454 138.849 104.544 139.294 104.726 139.659C104.91 140.021 105.165 140.298 105.491 140.488C105.817 140.675 106.196 140.768 106.627 140.768C106.908 140.768 107.161 140.729 107.388 140.651C107.617 140.569 107.815 140.448 107.981 140.288C108.147 140.125 108.275 139.923 108.366 139.682L109.398 139.972C109.29 140.322 109.107 140.63 108.85 140.895C108.594 141.158 108.277 141.363 107.9 141.511C107.522 141.656 107.098 141.728 106.627 141.728ZM116.058 136.186L115.099 136.458C115.038 136.298 114.949 136.143 114.831 135.992C114.717 135.838 114.56 135.711 114.361 135.611C114.161 135.512 113.906 135.462 113.595 135.462C113.17 135.462 112.815 135.56 112.531 135.756C112.251 135.949 112.11 136.195 112.11 136.494C112.11 136.76 112.207 136.97 112.4 137.124C112.593 137.278 112.895 137.406 113.306 137.508L114.338 137.762C114.96 137.913 115.423 138.144 115.728 138.455C116.033 138.763 116.185 139.16 116.185 139.646C116.185 140.044 116.07 140.4 115.841 140.714C115.615 141.028 115.298 141.275 114.89 141.457C114.483 141.638 114.009 141.728 113.469 141.728C112.759 141.728 112.172 141.574 111.707 141.266C111.242 140.959 110.948 140.509 110.824 139.917L111.839 139.664C111.935 140.038 112.118 140.319 112.386 140.506C112.658 140.693 113.013 140.786 113.45 140.786C113.949 140.786 114.344 140.681 114.637 140.47C114.933 140.255 115.08 139.999 115.08 139.7C115.08 139.458 114.996 139.256 114.827 139.093C114.658 138.927 114.398 138.803 114.048 138.722L112.889 138.45C112.252 138.299 111.784 138.065 111.485 137.748C111.19 137.428 111.042 137.029 111.042 136.549C111.042 136.156 111.152 135.809 111.372 135.507C111.596 135.205 111.899 134.968 112.282 134.796C112.669 134.624 113.106 134.538 113.595 134.538C114.284 134.538 114.824 134.689 115.216 134.991C115.612 135.293 115.892 135.691 116.058 136.186ZM120.818 134.629V135.534H117.214V134.629H120.818ZM118.265 132.963H119.333V139.591C119.333 139.893 119.377 140.119 119.464 140.27C119.555 140.418 119.67 140.518 119.808 140.569C119.95 140.617 120.1 140.642 120.257 140.642C120.374 140.642 120.471 140.636 120.546 140.624C120.622 140.608 120.682 140.596 120.728 140.587L120.945 141.547C120.872 141.574 120.771 141.601 120.642 141.629C120.512 141.659 120.347 141.674 120.148 141.674C119.846 141.674 119.55 141.609 119.261 141.479C118.974 141.349 118.735 141.152 118.545 140.886C118.358 140.62 118.265 140.285 118.265 139.881V132.963ZM125.176 141.728C124.548 141.728 123.997 141.579 123.523 141.28C123.053 140.981 122.684 140.563 122.419 140.026C122.156 139.489 122.025 138.861 122.025 138.142C122.025 137.418 122.156 136.786 122.419 136.245C122.684 135.705 123.053 135.285 123.523 134.987C123.997 134.688 124.548 134.538 125.176 134.538C125.804 134.538 126.353 134.688 126.824 134.987C127.298 135.285 127.666 135.705 127.929 136.245C128.195 136.786 128.327 137.418 128.327 138.142C128.327 138.861 128.195 139.489 127.929 140.026C127.666 140.563 127.298 140.981 126.824 141.28C126.353 141.579 125.804 141.728 125.176 141.728ZM125.176 140.768C125.653 140.768 126.045 140.646 126.353 140.402C126.661 140.157 126.889 139.836 127.037 139.437C127.185 139.039 127.259 138.607 127.259 138.142C127.259 137.677 127.185 137.244 127.037 136.843C126.889 136.441 126.661 136.117 126.353 135.869C126.045 135.622 125.653 135.498 125.176 135.498C124.699 135.498 124.307 135.622 123.999 135.869C123.691 136.117 123.463 136.441 123.315 136.843C123.167 137.244 123.093 137.677 123.093 138.142C123.093 138.607 123.167 139.039 123.315 139.437C123.463 139.836 123.691 140.157 123.999 140.402C124.307 140.646 124.699 140.768 125.176 140.768ZM129.958 141.583V134.629H130.991V135.679H131.063C131.19 135.335 131.419 135.056 131.751 134.842C132.083 134.627 132.458 134.52 132.874 134.52C132.953 134.52 133.051 134.522 133.169 134.525C133.286 134.528 133.375 134.532 133.436 134.538V135.625C133.4 135.616 133.316 135.602 133.187 135.584C133.06 135.563 132.926 135.552 132.784 135.552C132.446 135.552 132.144 135.623 131.878 135.765C131.616 135.904 131.407 136.097 131.253 136.345C131.102 136.589 131.027 136.869 131.027 137.182V141.583H129.958ZM145.786 132.311V141.583H144.7L139.647 134.303H139.556V141.583H138.433V132.311H139.52L144.591 139.609H144.681V132.311H145.786ZM149.935 141.746C149.494 141.746 149.094 141.663 148.735 141.497C148.376 141.328 148.09 141.085 147.879 140.768C147.668 140.448 147.562 140.062 147.562 139.609C147.562 139.211 147.641 138.888 147.798 138.64C147.955 138.39 148.164 138.194 148.427 138.052C148.69 137.91 148.979 137.804 149.296 137.735C149.616 137.662 149.938 137.605 150.261 137.563C150.683 137.508 151.026 137.468 151.288 137.441C151.554 137.41 151.747 137.361 151.868 137.291C151.992 137.222 152.054 137.101 152.054 136.929V136.893C152.054 136.446 151.931 136.099 151.687 135.851C151.445 135.604 151.079 135.48 150.587 135.48C150.077 135.48 149.677 135.592 149.387 135.815C149.097 136.038 148.893 136.277 148.776 136.53L147.761 136.168C147.942 135.746 148.184 135.417 148.486 135.181C148.791 134.943 149.123 134.777 149.482 134.683C149.844 134.587 150.2 134.538 150.55 134.538C150.774 134.538 151.03 134.565 151.32 134.62C151.613 134.671 151.895 134.778 152.167 134.941C152.441 135.104 152.669 135.35 152.85 135.679C153.032 136.008 153.122 136.449 153.122 137.001V141.583H152.054V140.642H151.999C151.927 140.793 151.806 140.954 151.637 141.126C151.468 141.298 151.243 141.445 150.962 141.565C150.682 141.686 150.339 141.746 149.935 141.746ZM150.098 140.786C150.52 140.786 150.876 140.703 151.166 140.537C151.459 140.371 151.679 140.157 151.827 139.895C151.978 139.632 152.054 139.356 152.054 139.066V138.088C152.008 138.142 151.909 138.192 151.755 138.237C151.604 138.28 151.429 138.317 151.23 138.351C151.033 138.381 150.842 138.408 150.655 138.432C150.47 138.453 150.321 138.471 150.206 138.486C149.929 138.523 149.669 138.582 149.428 138.663C149.189 138.741 148.996 138.861 148.848 139.021C148.703 139.178 148.631 139.392 148.631 139.664C148.631 140.035 148.768 140.316 149.043 140.506C149.32 140.693 149.672 140.786 150.098 140.786ZM155.072 141.583V134.629H156.105V135.715H156.195C156.34 135.344 156.574 135.056 156.897 134.851C157.22 134.642 157.608 134.538 158.061 134.538C158.52 134.538 158.901 134.642 159.206 134.851C159.514 135.056 159.754 135.344 159.926 135.715H159.999C160.177 135.356 160.444 135.071 160.8 134.86C161.156 134.645 161.583 134.538 162.081 134.538C162.703 134.538 163.212 134.733 163.607 135.122C164.003 135.509 164.2 136.111 164.2 136.929V141.583H163.132V136.929C163.132 136.416 162.991 136.049 162.711 135.829C162.43 135.608 162.099 135.498 161.719 135.498C161.23 135.498 160.851 135.646 160.583 135.942C160.314 136.235 160.18 136.606 160.18 137.056V141.583H159.093V136.82C159.093 136.425 158.965 136.106 158.708 135.865C158.452 135.62 158.121 135.498 157.717 135.498C157.439 135.498 157.179 135.572 156.938 135.72C156.699 135.868 156.506 136.073 156.358 136.336C156.213 136.595 156.141 136.896 156.141 137.237V141.583H155.072ZM169.07 141.728C168.4 141.728 167.822 141.58 167.336 141.285C166.853 140.986 166.48 140.569 166.217 140.035C165.958 139.498 165.828 138.873 165.828 138.16C165.828 137.448 165.958 136.82 166.217 136.277C166.48 135.731 166.845 135.305 167.313 135C167.784 134.692 168.333 134.538 168.961 134.538C169.323 134.538 169.681 134.599 170.034 134.719C170.387 134.84 170.709 135.036 170.999 135.308C171.288 135.577 171.519 135.933 171.691 136.377C171.863 136.82 171.949 137.367 171.949 138.016V138.468H166.589V137.545H170.863C170.863 137.152 170.784 136.802 170.627 136.494C170.473 136.186 170.253 135.943 169.966 135.765C169.683 135.587 169.348 135.498 168.961 135.498C168.536 135.498 168.167 135.604 167.856 135.815C167.549 136.023 167.312 136.295 167.146 136.63C166.98 136.965 166.897 137.324 166.897 137.708V138.323C166.897 138.849 166.987 139.294 167.168 139.659C167.352 140.021 167.607 140.298 167.933 140.488C168.259 140.675 168.638 140.768 169.07 140.768C169.351 140.768 169.604 140.729 169.831 140.651C170.06 140.569 170.258 140.448 170.424 140.288C170.59 140.125 170.718 139.923 170.808 139.682L171.841 139.972C171.732 140.322 171.55 140.63 171.293 140.895C171.036 141.158 170.719 141.363 170.342 141.511C169.965 141.656 169.541 141.728 169.07 141.728ZM175.712 131.876V143.467H173.032V142.579H174.698V132.763H173.032V131.876H175.712ZM179.788 140.316L179.716 140.805C179.664 141.149 179.586 141.517 179.48 141.909C179.378 142.302 179.27 142.672 179.159 143.019C179.047 143.366 178.955 143.642 178.883 143.847H178.068C178.107 143.654 178.158 143.399 178.221 143.082C178.285 142.765 178.348 142.41 178.412 142.018C178.478 141.629 178.532 141.23 178.575 140.823L178.629 140.316H179.788Z" fill="#6B7280"/>
<path d="M50.1614 176.583V160.583H53.0598V174.154H60.1067V176.583H50.1614ZM67.7317 176.818C66.5598 176.818 65.5442 176.56 64.6848 176.044C63.8254 175.529 63.1588 174.807 62.6848 173.88C62.2161 172.953 61.9817 171.87 61.9817 170.63C61.9817 169.391 62.2161 168.305 62.6848 167.372C63.1588 166.44 63.8254 165.716 64.6848 165.201C65.5442 164.685 66.5598 164.427 67.7317 164.427C68.9036 164.427 69.9192 164.685 70.7786 165.201C71.6379 165.716 72.302 166.44 72.7708 167.372C73.2447 168.305 73.4817 169.391 73.4817 170.63C73.4817 171.87 73.2447 172.953 72.7708 173.88C72.302 174.807 71.6379 175.529 70.7786 176.044C69.9192 176.56 68.9036 176.818 67.7317 176.818ZM67.7473 174.552C68.3827 174.552 68.914 174.378 69.3411 174.029C69.7681 173.675 70.0859 173.201 70.2942 172.607C70.5077 172.013 70.6145 171.352 70.6145 170.622C70.6145 169.888 70.5077 169.224 70.2942 168.63C70.0859 168.031 69.7681 167.555 69.3411 167.201C68.914 166.846 68.3827 166.669 67.7473 166.669C67.0963 166.669 66.5546 166.846 66.1223 167.201C65.6952 167.555 65.3749 168.031 65.1614 168.63C64.953 169.224 64.8489 169.888 64.8489 170.622C64.8489 171.352 64.953 172.013 65.1614 172.607C65.3749 173.201 65.6952 173.675 66.1223 174.029C66.5546 174.378 67.0963 174.552 67.7473 174.552ZM79.3352 176.826C78.5748 176.826 77.8899 176.69 77.2805 176.419C76.6764 176.143 76.1972 175.737 75.843 175.201C75.4941 174.664 75.3196 174.003 75.3196 173.216C75.3196 172.539 75.4446 171.979 75.6946 171.536C75.9446 171.094 76.2857 170.74 76.718 170.474C77.1503 170.208 77.6373 170.008 78.179 169.872C78.7258 169.732 79.2909 169.63 79.8743 169.568C80.5774 169.495 81.1477 169.43 81.5852 169.372C82.0227 169.31 82.3404 169.216 82.5383 169.091C82.7415 168.961 82.843 168.76 82.843 168.49V168.443C82.843 167.854 82.6685 167.398 82.3196 167.076C81.9706 166.753 81.468 166.591 80.8118 166.591C80.1191 166.591 79.5696 166.742 79.1633 167.044C78.7623 167.346 78.4915 167.703 78.3508 168.115L75.7102 167.74C75.9185 167.01 76.2623 166.401 76.7415 165.911C77.2206 165.417 77.8066 165.047 78.4993 164.802C79.192 164.552 79.9576 164.427 80.7961 164.427C81.3743 164.427 81.9498 164.495 82.5227 164.63C83.0956 164.766 83.6191 164.99 84.093 165.302C84.567 165.609 84.9472 166.029 85.2336 166.56C85.5253 167.091 85.6711 167.755 85.6711 168.552V176.583H82.9524V174.935H82.8586C82.6868 175.268 82.4446 175.581 82.1321 175.872C81.8248 176.159 81.4368 176.391 80.968 176.568C80.5045 176.74 79.9602 176.826 79.3352 176.826ZM80.0696 174.747C80.6373 174.747 81.1295 174.635 81.5461 174.411C81.9628 174.182 82.2831 173.88 82.5071 173.505C82.7362 173.13 82.8508 172.721 82.8508 172.279V170.865C82.7623 170.938 82.6112 171.005 82.3977 171.068C82.1894 171.13 81.955 171.185 81.6946 171.232C81.4342 171.279 81.1764 171.32 80.9211 171.357C80.6659 171.393 80.4446 171.425 80.2571 171.451C79.8352 171.508 79.4576 171.602 79.1243 171.732C78.7909 171.862 78.5279 172.044 78.3352 172.279C78.1425 172.508 78.0461 172.805 78.0461 173.169C78.0461 173.69 78.2362 174.083 78.6165 174.349C78.9967 174.615 79.481 174.747 80.0696 174.747ZM91.343 169.552V176.583H88.5149V164.583H91.218V166.622H91.3586C91.6347 165.951 92.0748 165.417 92.679 165.021C93.2883 164.625 94.0409 164.427 94.9368 164.427C95.7649 164.427 96.4862 164.604 97.1008 164.958C97.7206 165.313 98.1998 165.826 98.5383 166.497C98.8821 167.169 99.0514 167.984 99.0461 168.943V176.583H96.218V169.38C96.218 168.578 96.0097 167.951 95.593 167.497C95.1816 167.044 94.6112 166.818 93.8821 166.818C93.3873 166.818 92.9472 166.927 92.5618 167.146C92.1816 167.359 91.8821 167.669 91.6633 168.076C91.4498 168.482 91.343 168.974 91.343 169.552ZM107.378 176.583V164.583H110.206V176.583H107.378ZM108.8 162.88C108.352 162.88 107.967 162.732 107.644 162.435C107.321 162.133 107.159 161.771 107.159 161.349C107.159 160.922 107.321 160.56 107.644 160.263C107.967 159.961 108.352 159.81 108.8 159.81C109.253 159.81 109.639 159.961 109.956 160.263C110.279 160.56 110.441 160.922 110.441 161.349C110.441 161.771 110.279 162.133 109.956 162.435C109.639 162.732 109.253 162.88 108.8 162.88ZM122.599 167.755L120.021 168.036C119.948 167.776 119.82 167.531 119.638 167.302C119.461 167.073 119.221 166.888 118.919 166.747C118.617 166.607 118.247 166.536 117.81 166.536C117.221 166.536 116.726 166.664 116.325 166.919C115.93 167.175 115.734 167.505 115.74 167.911C115.734 168.26 115.862 168.544 116.122 168.763C116.388 168.982 116.825 169.161 117.435 169.302L119.482 169.74C120.617 169.984 121.461 170.372 122.013 170.904C122.57 171.435 122.851 172.13 122.857 172.99C122.851 173.745 122.63 174.411 122.193 174.99C121.76 175.563 121.159 176.01 120.388 176.333C119.617 176.656 118.732 176.818 117.732 176.818C116.263 176.818 115.081 176.51 114.185 175.896C113.289 175.276 112.755 174.414 112.583 173.31L115.341 173.044C115.466 173.586 115.732 173.995 116.138 174.271C116.544 174.547 117.073 174.685 117.724 174.685C118.396 174.685 118.935 174.547 119.341 174.271C119.753 173.995 119.958 173.654 119.958 173.247C119.958 172.904 119.825 172.62 119.56 172.396C119.299 172.172 118.893 172 118.341 171.88L116.294 171.451C115.143 171.211 114.292 170.807 113.74 170.24C113.187 169.667 112.914 168.943 112.919 168.068C112.914 167.328 113.115 166.688 113.521 166.146C113.932 165.599 114.503 165.177 115.232 164.88C115.966 164.578 116.812 164.427 117.771 164.427C119.177 164.427 120.284 164.727 121.091 165.326C121.904 165.925 122.406 166.734 122.599 167.755ZM135.88 176.818C134.682 176.818 133.654 176.555 132.794 176.029C131.94 175.503 131.281 174.776 130.818 173.849C130.359 172.917 130.13 171.844 130.13 170.63C130.13 169.411 130.365 168.336 130.833 167.404C131.302 166.466 131.963 165.737 132.818 165.216C133.677 164.69 134.693 164.427 135.865 164.427C136.838 164.427 137.7 164.607 138.45 164.966C139.206 165.32 139.807 165.823 140.255 166.474C140.703 167.12 140.958 167.875 141.021 168.74H138.318C138.208 168.161 137.948 167.68 137.536 167.294C137.13 166.904 136.586 166.708 135.904 166.708C135.325 166.708 134.818 166.865 134.38 167.177C133.943 167.484 133.601 167.927 133.357 168.505C133.117 169.083 132.997 169.776 132.997 170.583C132.997 171.401 133.117 172.104 133.357 172.693C133.596 173.276 133.932 173.727 134.365 174.044C134.802 174.357 135.315 174.513 135.904 174.513C136.32 174.513 136.693 174.435 137.021 174.279C137.354 174.117 137.633 173.885 137.857 173.583C138.081 173.281 138.234 172.914 138.318 172.482H141.021C140.953 173.331 140.703 174.083 140.271 174.74C139.838 175.391 139.25 175.901 138.505 176.271C137.76 176.635 136.885 176.818 135.88 176.818ZM148.577 176.818C147.406 176.818 146.39 176.56 145.531 176.044C144.671 175.529 144.004 174.807 143.531 173.88C143.062 172.953 142.827 171.87 142.827 170.63C142.827 169.391 143.062 168.305 143.531 167.372C144.004 166.44 144.671 165.716 145.531 165.201C146.39 164.685 147.406 164.427 148.577 164.427C149.749 164.427 150.765 164.685 151.624 165.201C152.484 165.716 153.148 166.44 153.616 167.372C154.09 168.305 154.327 169.391 154.327 170.63C154.327 171.87 154.09 172.953 153.616 173.88C153.148 174.807 152.484 175.529 151.624 176.044C150.765 176.56 149.749 176.818 148.577 176.818ZM148.593 174.552C149.228 174.552 149.76 174.378 150.187 174.029C150.614 173.675 150.932 173.201 151.14 172.607C151.353 172.013 151.46 171.352 151.46 170.622C151.46 169.888 151.353 169.224 151.14 168.63C150.932 168.031 150.614 167.555 150.187 167.201C149.76 166.846 149.228 166.669 148.593 166.669C147.942 166.669 147.4 166.846 146.968 167.201C146.541 167.555 146.221 168.031 146.007 168.63C145.799 169.224 145.695 169.888 145.695 170.622C145.695 171.352 145.799 172.013 146.007 172.607C146.221 173.201 146.541 173.675 146.968 174.029C147.4 174.378 147.942 174.552 148.593 174.552ZM156.728 176.583V164.583H159.431V166.622H159.572C159.822 165.935 160.236 165.398 160.814 165.013C161.392 164.622 162.082 164.427 162.884 164.427C163.697 164.427 164.381 164.625 164.939 165.021C165.501 165.411 165.897 165.945 166.126 166.622H166.251C166.517 165.956 166.965 165.425 167.595 165.029C168.23 164.628 168.983 164.427 169.853 164.427C170.957 164.427 171.858 164.776 172.556 165.474C173.254 166.172 173.603 167.19 173.603 168.529V176.583H170.767V168.966C170.767 168.221 170.569 167.677 170.173 167.333C169.777 166.984 169.293 166.81 168.72 166.81C168.038 166.81 167.504 167.023 167.118 167.451C166.738 167.872 166.548 168.422 166.548 169.099V176.583H163.775V168.849C163.775 168.229 163.587 167.734 163.212 167.365C162.842 166.995 162.358 166.81 161.759 166.81C161.353 166.81 160.983 166.914 160.65 167.122C160.316 167.326 160.051 167.615 159.853 167.99C159.655 168.359 159.556 168.792 159.556 169.286V176.583H156.728ZM176.472 181.083V164.583H179.253V166.568H179.417C179.563 166.276 179.769 165.966 180.034 165.638C180.3 165.305 180.659 165.021 181.113 164.786C181.566 164.547 182.144 164.427 182.847 164.427C183.774 164.427 184.61 164.664 185.355 165.138C186.105 165.607 186.698 166.302 187.136 167.224C187.579 168.141 187.8 169.266 187.8 170.599C187.8 171.917 187.584 173.036 187.152 173.958C186.719 174.88 186.131 175.583 185.386 176.068C184.641 176.552 183.797 176.794 182.855 176.794C182.167 176.794 181.597 176.68 181.144 176.451C180.691 176.221 180.326 175.945 180.05 175.622C179.779 175.294 179.568 174.984 179.417 174.693H179.3V181.083H176.472ZM179.245 170.583C179.245 171.359 179.355 172.039 179.573 172.622C179.797 173.206 180.118 173.661 180.534 173.99C180.956 174.313 181.467 174.474 182.066 174.474C182.691 174.474 183.214 174.307 183.636 173.974C184.058 173.635 184.376 173.175 184.589 172.591C184.808 172.003 184.917 171.333 184.917 170.583C184.917 169.839 184.81 169.177 184.597 168.599C184.383 168.021 184.066 167.568 183.644 167.24C183.222 166.911 182.696 166.747 182.066 166.747C181.462 166.747 180.948 166.906 180.527 167.224C180.105 167.542 179.784 167.987 179.566 168.56C179.352 169.133 179.245 169.807 179.245 170.583ZM193.05 160.583V176.583H190.222V160.583H193.05ZM201.271 176.818C200.068 176.818 199.029 176.568 198.154 176.068C197.284 175.563 196.615 174.849 196.146 173.927C195.677 173 195.443 171.909 195.443 170.654C195.443 169.419 195.677 168.336 196.146 167.404C196.62 166.466 197.281 165.737 198.13 165.216C198.979 164.69 199.976 164.427 201.122 164.427C201.862 164.427 202.56 164.547 203.216 164.786C203.878 165.021 204.461 165.385 204.966 165.88C205.476 166.375 205.878 167.005 206.169 167.771C206.461 168.531 206.607 169.438 206.607 170.49V171.357H196.771V169.451H203.896C203.891 168.909 203.773 168.427 203.544 168.005C203.315 167.578 202.995 167.242 202.583 166.997C202.177 166.753 201.703 166.63 201.161 166.63C200.583 166.63 200.075 166.771 199.638 167.052C199.2 167.328 198.859 167.693 198.615 168.146C198.375 168.594 198.253 169.086 198.247 169.622V171.286C198.247 171.984 198.375 172.583 198.63 173.083C198.885 173.578 199.242 173.958 199.7 174.224C200.159 174.484 200.695 174.615 201.31 174.615C201.721 174.615 202.094 174.557 202.427 174.443C202.76 174.323 203.049 174.148 203.294 173.919C203.539 173.69 203.724 173.406 203.849 173.068L206.49 173.365C206.323 174.063 206.005 174.672 205.536 175.193C205.073 175.708 204.479 176.109 203.755 176.396C203.031 176.677 202.203 176.818 201.271 176.818ZM214.991 164.583V166.771H208.093V164.583H214.991ZM209.796 161.708H212.624V172.974C212.624 173.354 212.682 173.646 212.796 173.849C212.916 174.047 213.072 174.182 213.265 174.255C213.458 174.328 213.671 174.365 213.906 174.365C214.083 174.365 214.244 174.352 214.39 174.326C214.541 174.3 214.656 174.276 214.734 174.255L215.21 176.466C215.059 176.518 214.843 176.576 214.562 176.638C214.286 176.701 213.947 176.737 213.546 176.747C212.838 176.768 212.2 176.661 211.632 176.427C211.064 176.188 210.614 175.818 210.281 175.318C209.952 174.818 209.791 174.193 209.796 173.443V161.708ZM222.54 176.818C221.337 176.818 220.298 176.568 219.423 176.068C218.553 175.563 217.884 174.849 217.415 173.927C216.947 173 216.712 171.909 216.712 170.654C216.712 169.419 216.947 168.336 217.415 167.404C217.889 166.466 218.551 165.737 219.4 165.216C220.249 164.69 221.246 164.427 222.392 164.427C223.131 164.427 223.829 164.547 224.486 164.786C225.147 165.021 225.73 165.385 226.236 165.88C226.746 166.375 227.147 167.005 227.439 167.771C227.73 168.531 227.876 169.438 227.876 170.49V171.357H218.04V169.451H225.165C225.16 168.909 225.043 168.427 224.814 168.005C224.585 167.578 224.264 167.242 223.853 166.997C223.447 166.753 222.973 166.63 222.431 166.63C221.853 166.63 221.345 166.771 220.907 167.052C220.47 167.328 220.129 167.693 219.884 168.146C219.644 168.594 219.522 169.086 219.517 169.622V171.286C219.517 171.984 219.644 172.583 219.9 173.083C220.155 173.578 220.512 173.958 220.97 174.224C221.428 174.484 221.965 174.615 222.579 174.615C222.991 174.615 223.363 174.557 223.697 174.443C224.03 174.323 224.319 174.148 224.564 173.919C224.809 173.69 224.993 173.406 225.118 173.068L227.759 173.365C227.592 174.063 227.275 174.672 226.806 175.193C226.342 175.708 225.749 176.109 225.025 176.396C224.301 176.677 223.473 176.818 222.54 176.818ZM234.722 176.794C233.779 176.794 232.935 176.552 232.191 176.068C231.446 175.583 230.857 174.88 230.425 173.958C229.993 173.036 229.777 171.917 229.777 170.599C229.777 169.266 229.995 168.141 230.433 167.224C230.876 166.302 231.472 165.607 232.222 165.138C232.972 164.664 233.808 164.427 234.73 164.427C235.433 164.427 236.011 164.547 236.464 164.786C236.917 165.021 237.277 165.305 237.542 165.638C237.808 165.966 238.014 166.276 238.159 166.568H238.277V160.583H241.113V176.583H238.331V174.693H238.159C238.014 174.984 237.803 175.294 237.527 175.622C237.251 175.945 236.886 176.221 236.433 176.451C235.98 176.68 235.409 176.794 234.722 176.794ZM235.511 174.474C236.11 174.474 236.62 174.313 237.042 173.99C237.464 173.661 237.784 173.206 238.003 172.622C238.222 172.039 238.331 171.359 238.331 170.583C238.331 169.807 238.222 169.133 238.003 168.56C237.79 167.987 237.472 167.542 237.05 167.224C236.633 166.906 236.12 166.747 235.511 166.747C234.881 166.747 234.355 166.911 233.933 167.24C233.511 167.568 233.193 168.021 232.98 168.599C232.766 169.177 232.659 169.839 232.659 170.583C232.659 171.333 232.766 172.003 232.98 172.591C233.198 173.175 233.519 173.635 233.941 173.974C234.368 174.307 234.891 174.474 235.511 174.474ZM253.036 176.826C252.276 176.826 251.591 176.69 250.982 176.419C250.378 176.143 249.898 175.737 249.544 175.201C249.195 174.664 249.021 174.003 249.021 173.216C249.021 172.539 249.146 171.979 249.396 171.536C249.646 171.094 249.987 170.74 250.419 170.474C250.851 170.208 251.338 170.008 251.88 169.872C252.427 169.732 252.992 169.63 253.575 169.568C254.279 169.495 254.849 169.43 255.286 169.372C255.724 169.31 256.042 169.216 256.24 169.091C256.443 168.961 256.544 168.76 256.544 168.49V168.443C256.544 167.854 256.37 167.398 256.021 167.076C255.672 166.753 255.169 166.591 254.513 166.591C253.82 166.591 253.271 166.742 252.865 167.044C252.463 167.346 252.193 167.703 252.052 168.115L249.411 167.74C249.62 167.01 249.963 166.401 250.443 165.911C250.922 165.417 251.508 165.047 252.2 164.802C252.893 164.552 253.659 164.427 254.497 164.427C255.075 164.427 255.651 164.495 256.224 164.63C256.797 164.766 257.32 164.99 257.794 165.302C258.268 165.609 258.648 166.029 258.935 166.56C259.226 167.091 259.372 167.755 259.372 168.552V176.583H256.654V174.935H256.56C256.388 175.268 256.146 175.581 255.833 175.872C255.526 176.159 255.138 176.391 254.669 176.568C254.206 176.74 253.661 176.826 253.036 176.826ZM253.771 174.747C254.338 174.747 254.831 174.635 255.247 174.411C255.664 174.182 255.984 173.88 256.208 173.505C256.437 173.13 256.552 172.721 256.552 172.279V170.865C256.463 170.938 256.312 171.005 256.099 171.068C255.891 171.13 255.656 171.185 255.396 171.232C255.135 171.279 254.878 171.32 254.622 171.357C254.367 171.393 254.146 171.425 253.958 171.451C253.536 171.508 253.159 171.602 252.825 171.732C252.492 171.862 252.229 172.044 252.036 172.279C251.844 172.508 251.747 172.805 251.747 173.169C251.747 173.69 251.937 174.083 252.318 174.349C252.698 174.615 253.182 174.747 253.771 174.747ZM265.044 169.552V176.583H262.216V164.583H264.919V166.622H265.06C265.336 165.951 265.776 165.417 266.38 165.021C266.99 164.625 267.742 164.427 268.638 164.427C269.466 164.427 270.187 164.604 270.802 164.958C271.422 165.313 271.901 165.826 272.24 166.497C272.583 167.169 272.753 167.984 272.747 168.943V176.583H269.919V169.38C269.919 168.578 269.711 167.951 269.294 167.497C268.883 167.044 268.312 166.818 267.583 166.818C267.088 166.818 266.648 166.927 266.263 167.146C265.883 167.359 265.583 167.669 265.365 168.076C265.151 168.482 265.044 168.974 265.044 169.552ZM280.075 176.794C279.133 176.794 278.289 176.552 277.544 176.068C276.799 175.583 276.211 174.88 275.779 173.958C275.346 173.036 275.13 171.917 275.13 170.599C275.13 169.266 275.349 168.141 275.786 167.224C276.229 166.302 276.825 165.607 277.575 165.138C278.325 164.664 279.161 164.427 280.083 164.427C280.786 164.427 281.365 164.547 281.818 164.786C282.271 165.021 282.63 165.305 282.896 165.638C283.161 165.966 283.367 166.276 283.513 166.568H283.63V160.583H286.466V176.583H283.685V174.693H283.513C283.367 174.984 283.156 175.294 282.88 175.622C282.604 175.945 282.24 176.221 281.786 176.451C281.333 176.68 280.763 176.794 280.075 176.794ZM280.865 174.474C281.463 174.474 281.974 174.313 282.396 173.99C282.818 173.661 283.138 173.206 283.357 172.622C283.575 172.039 283.685 171.359 283.685 170.583C283.685 169.807 283.575 169.133 283.357 168.56C283.143 167.987 282.825 167.542 282.404 167.224C281.987 166.906 281.474 166.747 280.865 166.747C280.234 166.747 279.708 166.911 279.286 167.24C278.865 167.568 278.547 168.021 278.333 168.599C278.12 169.177 278.013 169.839 278.013 170.583C278.013 171.333 278.12 172.003 278.333 172.591C278.552 173.175 278.872 173.635 279.294 173.974C279.721 174.307 280.245 174.474 280.865 174.474ZM296.695 181.083C296.309 181.083 295.952 181.052 295.624 180.99C295.301 180.932 295.044 180.865 294.851 180.786L295.507 178.583C295.919 178.703 296.286 178.76 296.609 178.755C296.932 178.75 297.215 178.648 297.46 178.451C297.71 178.258 297.921 177.935 298.093 177.482L298.335 176.833L293.984 164.583H296.984L299.749 173.646H299.874L302.648 164.583H305.656L300.851 178.036C300.627 178.672 300.33 179.216 299.96 179.669C299.59 180.128 299.137 180.477 298.601 180.716C298.07 180.961 297.434 181.083 296.695 181.083ZM312.439 176.818C311.267 176.818 310.251 176.56 309.392 176.044C308.532 175.529 307.866 174.807 307.392 173.88C306.923 172.953 306.689 171.87 306.689 170.63C306.689 169.391 306.923 168.305 307.392 167.372C307.866 166.44 308.532 165.716 309.392 165.201C310.251 164.685 311.267 164.427 312.439 164.427C313.611 164.427 314.626 164.685 315.486 165.201C316.345 165.716 317.009 166.44 317.478 167.372C317.952 168.305 318.189 169.391 318.189 170.63C318.189 171.87 317.952 172.953 317.478 173.88C317.009 174.807 316.345 175.529 315.486 176.044C314.626 176.56 313.611 176.818 312.439 176.818ZM312.454 174.552C313.09 174.552 313.621 174.378 314.048 174.029C314.475 173.675 314.793 173.201 315.001 172.607C315.215 172.013 315.322 171.352 315.322 170.622C315.322 169.888 315.215 169.224 315.001 168.63C314.793 168.031 314.475 167.555 314.048 167.201C313.621 166.846 313.09 166.669 312.454 166.669C311.803 166.669 311.262 166.846 310.829 167.201C310.402 167.555 310.082 168.031 309.868 168.63C309.66 169.224 309.556 169.888 309.556 170.622C309.556 171.352 309.66 172.013 309.868 172.607C310.082 173.201 310.402 173.675 310.829 174.029C311.262 174.378 311.803 174.552 312.454 174.552ZM328.238 171.536V164.583H331.066V176.583H328.323V174.451H328.198C327.928 175.122 327.482 175.672 326.863 176.099C326.248 176.526 325.49 176.74 324.589 176.74C323.803 176.74 323.107 176.565 322.503 176.216C321.904 175.862 321.435 175.349 321.097 174.677C320.758 174 320.589 173.182 320.589 172.224V164.583H323.417V171.786C323.417 172.547 323.626 173.151 324.042 173.599C324.459 174.047 325.006 174.271 325.683 174.271C326.1 174.271 326.503 174.169 326.894 173.966C327.284 173.763 327.605 173.461 327.855 173.06C328.11 172.654 328.238 172.146 328.238 171.536ZM333.974 176.583V164.583H336.716V166.583H336.841C337.06 165.891 337.435 165.357 337.966 164.982C338.503 164.602 339.115 164.411 339.802 164.411C339.958 164.411 340.133 164.419 340.325 164.435C340.523 164.445 340.687 164.464 340.818 164.49V167.091C340.698 167.05 340.508 167.013 340.247 166.982C339.992 166.945 339.745 166.927 339.505 166.927C338.99 166.927 338.526 167.039 338.115 167.263C337.708 167.482 337.388 167.786 337.154 168.177C336.919 168.568 336.802 169.018 336.802 169.529V176.583H333.974ZM357.638 167.755L355.06 168.036C354.987 167.776 354.859 167.531 354.677 167.302C354.5 167.073 354.26 166.888 353.958 166.747C353.656 166.607 353.286 166.536 352.849 166.536C352.26 166.536 351.766 166.664 351.365 166.919C350.969 167.175 350.773 167.505 350.779 167.911C350.773 168.26 350.901 168.544 351.161 168.763C351.427 168.982 351.865 169.161 352.474 169.302L354.521 169.74C355.656 169.984 356.5 170.372 357.052 170.904C357.609 171.435 357.891 172.13 357.896 172.99C357.891 173.745 357.669 174.411 357.232 174.99C356.799 175.563 356.198 176.01 355.427 176.333C354.656 176.656 353.771 176.818 352.771 176.818C351.302 176.818 350.12 176.51 349.224 175.896C348.328 175.276 347.794 174.414 347.622 173.31L350.38 173.044C350.505 173.586 350.771 173.995 351.177 174.271C351.583 174.547 352.112 174.685 352.763 174.685C353.435 174.685 353.974 174.547 354.38 174.271C354.792 173.995 354.997 173.654 354.997 173.247C354.997 172.904 354.865 172.62 354.599 172.396C354.338 172.172 353.932 172 353.38 171.88L351.333 171.451C350.182 171.211 349.331 170.807 348.779 170.24C348.226 169.667 347.953 168.943 347.958 168.068C347.953 167.328 348.154 166.688 348.56 166.146C348.971 165.599 349.542 165.177 350.271 164.88C351.005 164.578 351.851 164.427 352.81 164.427C354.216 164.427 355.323 164.727 356.13 165.326C356.943 165.925 357.445 166.734 357.638 167.755ZM365.54 176.818C364.337 176.818 363.298 176.568 362.423 176.068C361.553 175.563 360.884 174.849 360.415 173.927C359.947 173 359.712 171.909 359.712 170.654C359.712 169.419 359.947 168.336 360.415 167.404C360.889 166.466 361.551 165.737 362.4 165.216C363.249 164.69 364.246 164.427 365.392 164.427C366.131 164.427 366.829 164.547 367.486 164.786C368.147 165.021 368.73 165.385 369.236 165.88C369.746 166.375 370.147 167.005 370.439 167.771C370.73 168.531 370.876 169.438 370.876 170.49V171.357H361.04V169.451H368.165C368.16 168.909 368.043 168.427 367.814 168.005C367.585 167.578 367.264 167.242 366.853 166.997C366.447 166.753 365.973 166.63 365.431 166.63C364.853 166.63 364.345 166.771 363.907 167.052C363.47 167.328 363.129 167.693 362.884 168.146C362.644 168.594 362.522 169.086 362.517 169.622V171.286C362.517 171.984 362.644 172.583 362.9 173.083C363.155 173.578 363.512 173.958 363.97 174.224C364.428 174.484 364.965 174.615 365.579 174.615C365.991 174.615 366.363 174.557 366.697 174.443C367.03 174.323 367.319 174.148 367.564 173.919C367.809 173.69 367.993 173.406 368.118 173.068L370.759 173.365C370.592 174.063 370.275 174.672 369.806 175.193C369.342 175.708 368.749 176.109 368.025 176.396C367.301 176.677 366.473 176.818 365.54 176.818ZM378.503 176.818C377.305 176.818 376.277 176.555 375.417 176.029C374.563 175.503 373.904 174.776 373.441 173.849C372.982 172.917 372.753 171.844 372.753 170.63C372.753 169.411 372.988 168.336 373.456 167.404C373.925 166.466 374.587 165.737 375.441 165.216C376.3 164.69 377.316 164.427 378.488 164.427C379.462 164.427 380.323 164.607 381.073 164.966C381.829 165.32 382.43 165.823 382.878 166.474C383.326 167.12 383.581 167.875 383.644 168.74H380.941C380.831 168.161 380.571 167.68 380.159 167.294C379.753 166.904 379.209 166.708 378.527 166.708C377.948 166.708 377.441 166.865 377.003 167.177C376.566 167.484 376.225 167.927 375.98 168.505C375.74 169.083 375.62 169.776 375.62 170.583C375.62 171.401 375.74 172.104 375.98 172.693C376.219 173.276 376.555 173.727 376.988 174.044C377.425 174.357 377.938 174.513 378.527 174.513C378.943 174.513 379.316 174.435 379.644 174.279C379.977 174.117 380.256 173.885 380.48 173.583C380.704 173.281 380.857 172.914 380.941 172.482H383.644C383.576 173.331 383.326 174.083 382.894 174.74C382.462 175.391 381.873 175.901 381.128 176.271C380.383 176.635 379.508 176.818 378.503 176.818ZM393.615 171.536V164.583H396.443V176.583H393.7V174.451H393.575C393.305 175.122 392.859 175.672 392.24 176.099C391.625 176.526 390.867 176.74 389.966 176.74C389.18 176.74 388.484 176.565 387.88 176.216C387.281 175.862 386.812 175.349 386.474 174.677C386.135 174 385.966 173.182 385.966 172.224V164.583H388.794V171.786C388.794 172.547 389.003 173.151 389.419 173.599C389.836 174.047 390.383 174.271 391.06 174.271C391.476 174.271 391.88 174.169 392.271 173.966C392.661 173.763 392.982 173.461 393.232 173.06C393.487 172.654 393.615 172.146 393.615 171.536ZM399.351 176.583V164.583H402.093V166.583H402.218C402.437 165.891 402.812 165.357 403.343 164.982C403.879 164.602 404.491 164.411 405.179 164.411C405.335 164.411 405.51 164.419 405.702 164.435C405.9 164.445 406.064 164.464 406.195 164.49V167.091C406.075 167.05 405.885 167.013 405.624 166.982C405.369 166.945 405.122 166.927 404.882 166.927C404.366 166.927 403.903 167.039 403.491 167.263C403.085 167.482 402.765 167.786 402.531 168.177C402.296 168.568 402.179 169.018 402.179 169.529V176.583H399.351ZM408.073 176.583V164.583H410.902V176.583H408.073ZM409.495 162.88C409.047 162.88 408.662 162.732 408.339 162.435C408.016 162.133 407.855 161.771 407.855 161.349C407.855 160.922 408.016 160.56 408.339 160.263C408.662 159.961 409.047 159.81 409.495 159.81C409.948 159.81 410.334 159.961 410.652 160.263C410.975 160.56 411.136 160.922 411.136 161.349C411.136 161.771 410.975 162.133 410.652 162.435C410.334 162.732 409.948 162.88 409.495 162.88ZM419.802 164.583V166.771H412.904V164.583H419.802ZM414.607 161.708H417.435V172.974C417.435 173.354 417.492 173.646 417.607 173.849C417.726 174.047 417.883 174.182 418.075 174.255C418.268 174.328 418.482 174.365 418.716 174.365C418.893 174.365 419.055 174.352 419.2 174.326C419.351 174.3 419.466 174.276 419.544 174.255L420.021 176.466C419.87 176.518 419.654 176.576 419.372 176.638C419.096 176.701 418.758 176.737 418.357 176.747C417.648 176.768 417.01 176.661 416.443 176.427C415.875 176.188 415.424 175.818 415.091 175.318C414.763 174.818 414.601 174.193 414.607 173.443V161.708ZM423.925 181.083C423.54 181.083 423.183 181.052 422.855 180.99C422.532 180.932 422.274 180.865 422.081 180.786L422.738 178.583C423.149 178.703 423.516 178.76 423.839 178.755C424.162 178.75 424.446 178.648 424.691 178.451C424.941 178.258 425.152 177.935 425.323 177.482L425.566 176.833L421.214 164.583H424.214L426.98 173.646H427.105L429.878 164.583H432.886L428.081 178.036C427.857 178.672 427.56 179.216 427.191 179.669C426.821 180.128 426.368 180.477 425.831 180.716C425.3 180.961 424.665 181.083 423.925 181.083ZM50.0364 211.583V199.583H52.8645V211.583H50.0364ZM51.4583 197.88C51.0103 197.88 50.6249 197.732 50.302 197.435C49.9791 197.133 49.8176 196.771 49.8176 196.349C49.8176 195.922 49.9791 195.56 50.302 195.263C50.6249 194.961 51.0103 194.81 51.4583 194.81C51.9114 194.81 52.2968 194.961 52.6145 195.263C52.9374 195.56 53.0989 195.922 53.0989 196.349C53.0989 196.771 52.9374 197.133 52.6145 197.435C52.2968 197.732 51.9114 197.88 51.4583 197.88ZM65.2571 202.755L62.679 203.036C62.606 202.776 62.4784 202.531 62.2961 202.302C62.1191 202.073 61.8795 201.888 61.5774 201.747C61.2753 201.607 60.9055 201.536 60.468 201.536C59.8795 201.536 59.3847 201.664 58.9836 201.919C58.5878 202.175 58.3925 202.505 58.3977 202.911C58.3925 203.26 58.5201 203.544 58.7805 203.763C59.0461 203.982 59.4836 204.161 60.093 204.302L62.1399 204.74C63.2753 204.984 64.1191 205.372 64.6711 205.904C65.2284 206.435 65.5097 207.13 65.5149 207.99C65.5097 208.745 65.2883 209.411 64.8508 209.99C64.4185 210.563 63.817 211.01 63.0461 211.333C62.2753 211.656 61.3899 211.818 60.3899 211.818C58.9211 211.818 57.7389 211.51 56.843 210.896C55.9472 210.276 55.4133 209.414 55.2415 208.31L57.9993 208.044C58.1243 208.586 58.3899 208.995 58.7961 209.271C59.2024 209.547 59.731 209.685 60.3821 209.685C61.054 209.685 61.593 209.547 61.9993 209.271C62.4107 208.995 62.6165 208.654 62.6165 208.247C62.6165 207.904 62.4836 207.62 62.218 207.396C61.9576 207.172 61.5514 207 60.9993 206.88L58.9524 206.451C57.8014 206.211 56.9498 205.807 56.3977 205.24C55.8456 204.667 55.5722 203.943 55.5774 203.068C55.5722 202.328 55.7727 201.688 56.179 201.146C56.5904 200.599 57.1607 200.177 57.8899 199.88C58.6243 199.578 59.4706 199.427 60.429 199.427C61.8352 199.427 62.942 199.727 63.7493 200.326C64.5618 200.925 65.0644 201.734 65.2571 202.755ZM73.304 211.583V199.583H76.1321V211.583H73.304ZM74.7258 197.88C74.2779 197.88 73.8925 197.732 73.5696 197.435C73.2467 197.133 73.0852 196.771 73.0852 196.349C73.0852 195.922 73.2467 195.56 73.5696 195.263C73.8925 194.961 74.2779 194.81 74.7258 194.81C75.179 194.81 75.5644 194.961 75.8821 195.263C76.205 195.56 76.3665 195.922 76.3665 196.349C76.3665 196.771 76.205 197.133 75.8821 197.435C75.5644 197.732 75.179 197.88 74.7258 197.88ZM81.8684 204.552V211.583H79.0403V199.583H81.7434V201.622H81.884C82.1601 200.951 82.6002 200.417 83.2043 200.021C83.8137 199.625 84.5663 199.427 85.4622 199.427C86.2903 199.427 87.0116 199.604 87.6262 199.958C88.246 200.313 88.7252 200.826 89.0637 201.497C89.4075 202.169 89.5767 202.984 89.5715 203.943V211.583H86.7434V204.38C86.7434 203.578 86.5351 202.951 86.1184 202.497C85.707 202.044 85.1366 201.818 84.4075 201.818C83.9127 201.818 83.4726 201.927 83.0872 202.146C82.707 202.359 82.4075 202.669 82.1887 203.076C81.9752 203.482 81.8684 203.974 81.8684 204.552ZM97.9036 216.083V199.583H100.685V201.568H100.849C100.995 201.276 101.2 200.966 101.466 200.638C101.732 200.305 102.091 200.021 102.544 199.786C102.997 199.547 103.575 199.427 104.279 199.427C105.206 199.427 106.042 199.664 106.786 200.138C107.536 200.607 108.13 201.302 108.568 202.224C109.01 203.141 109.232 204.266 109.232 205.599C109.232 206.917 109.016 208.036 108.583 208.958C108.151 209.88 107.562 210.583 106.818 211.068C106.073 211.552 105.229 211.794 104.286 211.794C103.599 211.794 103.029 211.68 102.575 211.451C102.122 211.221 101.758 210.945 101.482 210.622C101.211 210.294 101 209.984 100.849 209.693H100.732V216.083H97.9036ZM100.677 205.583C100.677 206.359 100.786 207.039 101.005 207.622C101.229 208.206 101.549 208.661 101.966 208.99C102.388 209.313 102.898 209.474 103.497 209.474C104.122 209.474 104.646 209.307 105.068 208.974C105.49 208.635 105.807 208.175 106.021 207.591C106.24 207.003 106.349 206.333 106.349 205.583C106.349 204.839 106.242 204.177 106.029 203.599C105.815 203.021 105.497 202.568 105.075 202.24C104.654 201.911 104.128 201.747 103.497 201.747C102.893 201.747 102.38 201.906 101.958 202.224C101.536 202.542 101.216 202.987 100.997 203.56C100.784 204.133 100.677 204.807 100.677 205.583ZM114.482 195.583V211.583H111.654V195.583H114.482ZM120.843 211.826C120.083 211.826 119.398 211.69 118.788 211.419C118.184 211.143 117.705 210.737 117.351 210.201C117.002 209.664 116.827 209.003 116.827 208.216C116.827 207.539 116.952 206.979 117.202 206.536C117.452 206.094 117.794 205.74 118.226 205.474C118.658 205.208 119.145 205.008 119.687 204.872C120.234 204.732 120.799 204.63 121.382 204.568C122.085 204.495 122.656 204.43 123.093 204.372C123.531 204.31 123.848 204.216 124.046 204.091C124.249 203.961 124.351 203.76 124.351 203.49V203.443C124.351 202.854 124.176 202.398 123.827 202.076C123.478 201.753 122.976 201.591 122.32 201.591C121.627 201.591 121.077 201.742 120.671 202.044C120.27 202.346 119.999 202.703 119.859 203.115L117.218 202.74C117.426 202.01 117.77 201.401 118.249 200.911C118.728 200.417 119.314 200.047 120.007 199.802C120.7 199.552 121.465 199.427 122.304 199.427C122.882 199.427 123.458 199.495 124.031 199.63C124.603 199.766 125.127 199.99 125.601 200.302C126.075 200.609 126.455 201.029 126.741 201.56C127.033 202.091 127.179 202.755 127.179 203.552V211.583H124.46V209.935H124.366C124.195 210.268 123.952 210.581 123.64 210.872C123.333 211.159 122.945 211.391 122.476 211.568C122.012 211.74 121.468 211.826 120.843 211.826ZM121.577 209.747C122.145 209.747 122.637 209.635 123.054 209.411C123.471 209.182 123.791 208.88 124.015 208.505C124.244 208.13 124.359 207.721 124.359 207.279V205.865C124.27 205.938 124.119 206.005 123.906 206.068C123.697 206.13 123.463 206.185 123.202 206.232C122.942 206.279 122.684 206.32 122.429 206.357C122.174 206.393 121.952 206.425 121.765 206.451C121.343 206.508 120.965 206.602 120.632 206.732C120.299 206.862 120.036 207.044 119.843 207.279C119.65 207.508 119.554 207.805 119.554 208.169C119.554 208.69 119.744 209.083 120.124 209.349C120.504 209.615 120.989 209.747 121.577 209.747ZM135.257 211.818C134.059 211.818 133.031 211.555 132.171 211.029C131.317 210.503 130.658 209.776 130.195 208.849C129.736 207.917 129.507 206.844 129.507 205.63C129.507 204.411 129.741 203.336 130.21 202.404C130.679 201.466 131.34 200.737 132.195 200.216C133.054 199.69 134.07 199.427 135.241 199.427C136.215 199.427 137.077 199.607 137.827 199.966C138.583 200.32 139.184 200.823 139.632 201.474C140.08 202.12 140.335 202.875 140.398 203.74H137.695C137.585 203.161 137.325 202.68 136.913 202.294C136.507 201.904 135.963 201.708 135.281 201.708C134.702 201.708 134.195 201.865 133.757 202.177C133.32 202.484 132.978 202.927 132.734 203.505C132.494 204.083 132.374 204.776 132.374 205.583C132.374 206.401 132.494 207.104 132.734 207.693C132.973 208.276 133.309 208.727 133.741 209.044C134.179 209.357 134.692 209.513 135.281 209.513C135.697 209.513 136.07 209.435 136.398 209.279C136.731 209.117 137.01 208.885 137.234 208.583C137.458 208.281 137.611 207.914 137.695 207.482H140.398C140.33 208.331 140.08 209.083 139.648 209.74C139.215 210.391 138.627 210.901 137.882 211.271C137.137 211.635 136.262 211.818 135.257 211.818ZM148.032 211.818C146.829 211.818 145.79 211.568 144.915 211.068C144.045 210.563 143.376 209.849 142.907 208.927C142.439 208 142.204 206.909 142.204 205.654C142.204 204.419 142.439 203.336 142.907 202.404C143.381 201.466 144.043 200.737 144.892 200.216C145.741 199.69 146.738 199.427 147.884 199.427C148.624 199.427 149.322 199.547 149.978 199.786C150.639 200.021 151.223 200.385 151.728 200.88C152.238 201.375 152.639 202.005 152.931 202.771C153.223 203.531 153.368 204.438 153.368 205.49V206.357H143.532V204.451H150.657C150.652 203.909 150.535 203.427 150.306 203.005C150.077 202.578 149.756 202.242 149.345 201.997C148.939 201.753 148.465 201.63 147.923 201.63C147.345 201.63 146.837 201.771 146.4 202.052C145.962 202.328 145.621 202.693 145.376 203.146C145.137 203.594 145.014 204.086 145.009 204.622V206.286C145.009 206.984 145.137 207.583 145.392 208.083C145.647 208.578 146.004 208.958 146.462 209.224C146.92 209.484 147.457 209.615 148.072 209.615C148.483 209.615 148.855 209.557 149.189 209.443C149.522 209.323 149.811 209.148 150.056 208.919C150.301 208.69 150.486 208.406 150.611 208.068L153.251 208.365C153.085 209.063 152.767 209.672 152.298 210.193C151.835 210.708 151.241 211.109 150.517 211.396C149.793 211.677 148.965 211.818 148.032 211.818ZM159.222 195.583L158.964 206.88H156.448L156.198 195.583H159.222ZM157.706 211.755C157.232 211.755 156.826 211.589 156.488 211.255C156.154 210.922 155.988 210.516 155.988 210.036C155.988 209.568 156.154 209.167 156.488 208.833C156.826 208.5 157.232 208.333 157.706 208.333C158.17 208.333 158.571 208.5 158.909 208.833C159.253 209.167 159.425 209.568 159.425 210.036C159.425 210.354 159.344 210.643 159.183 210.904C159.027 211.164 158.818 211.372 158.558 211.529C158.303 211.68 158.019 211.755 157.706 211.755Z" fill="#111827"/>
<path d="M48.5833 248.917C48.5833 242.657 53.6574 237.583 59.9166 237.583H459.083C465.342 237.583 470.417 242.657 470.417 248.917V268.75C470.417 275.009 465.342 280.083 459.083 280.083H59.9166C53.6574 280.083 48.5833 275.009 48.5833 268.75V248.917Z" fill="#0073DE"/>
<path d="M225.716 263.333V255.091H227.459V261.896H230.993V263.333H225.716ZM234.908 263.454C234.282 263.454 233.742 263.321 233.286 263.056C232.832 262.787 232.482 262.414 232.235 261.937C231.988 261.456 231.865 260.9 231.865 260.266C231.865 259.628 231.988 259.07 232.235 258.592C232.482 258.112 232.832 257.739 233.286 257.473C233.742 257.205 234.282 257.071 234.908 257.071C235.533 257.071 236.072 257.205 236.526 257.473C236.982 257.739 237.333 258.112 237.58 258.592C237.827 259.07 237.95 259.628 237.95 260.266C237.95 260.9 237.827 261.456 237.58 261.937C237.333 262.414 236.982 262.787 236.526 263.056C236.072 263.321 235.533 263.454 234.908 263.454ZM234.916 262.126C235.2 262.126 235.438 262.045 235.628 261.884C235.819 261.721 235.962 261.498 236.059 261.216C236.158 260.935 236.208 260.614 236.208 260.254C236.208 259.895 236.158 259.574 236.059 259.293C235.962 259.011 235.819 258.788 235.628 258.624C235.438 258.461 235.2 258.379 234.916 258.379C234.629 258.379 234.387 258.461 234.191 258.624C233.998 258.788 233.852 259.011 233.753 259.293C233.656 259.574 233.608 259.895 233.608 260.254C233.608 260.614 233.656 260.935 233.753 261.216C233.852 261.498 233.998 261.721 234.191 261.884C234.387 262.045 234.629 262.126 234.916 262.126ZM240.828 263.45C240.433 263.45 240.082 263.382 239.773 263.245C239.465 263.105 239.221 262.9 239.041 262.629C238.864 262.355 238.775 262.015 238.775 261.607C238.775 261.263 238.838 260.975 238.964 260.741C239.091 260.508 239.262 260.32 239.48 260.178C239.697 260.036 239.944 259.928 240.22 259.856C240.499 259.784 240.792 259.733 241.097 259.703C241.457 259.665 241.747 259.631 241.967 259.598C242.187 259.564 242.346 259.513 242.446 259.445C242.545 259.378 242.595 259.279 242.595 259.148V259.123C242.595 258.869 242.514 258.671 242.353 258.532C242.195 258.392 241.969 258.323 241.677 258.323C241.368 258.323 241.123 258.391 240.941 258.528C240.758 258.662 240.637 258.831 240.578 259.035L238.993 258.906C239.073 258.531 239.231 258.206 239.468 257.932C239.704 257.656 240.008 257.444 240.381 257.296C240.757 257.146 241.191 257.071 241.685 257.071C242.029 257.071 242.357 257.111 242.671 257.192C242.988 257.272 243.268 257.397 243.512 257.566C243.759 257.735 243.954 257.952 244.096 258.218C244.238 258.481 244.309 258.796 244.309 259.164V263.333H242.683V262.476H242.635C242.536 262.669 242.403 262.84 242.236 262.987C242.07 263.132 241.87 263.246 241.637 263.329C241.403 263.41 241.134 263.45 240.828 263.45ZM241.319 262.267C241.571 262.267 241.794 262.217 241.987 262.118C242.18 262.016 242.332 261.879 242.442 261.707C242.552 261.536 242.607 261.341 242.607 261.124V260.468C242.553 260.503 242.479 260.535 242.385 260.564C242.294 260.591 242.191 260.617 242.075 260.641C241.96 260.662 241.845 260.682 241.729 260.701C241.614 260.717 241.509 260.732 241.415 260.745C241.214 260.775 241.038 260.822 240.888 260.886C240.738 260.951 240.621 261.038 240.538 261.148C240.455 261.255 240.413 261.389 240.413 261.55C240.413 261.784 240.498 261.962 240.667 262.086C240.839 262.206 241.056 262.267 241.319 262.267ZM247.354 259.759V263.333H245.639V257.151H247.273V258.242H247.346C247.483 257.883 247.712 257.598 248.034 257.389C248.356 257.177 248.746 257.071 249.205 257.071C249.634 257.071 250.009 257.165 250.328 257.353C250.647 257.54 250.895 257.809 251.073 258.158C251.25 258.504 251.338 258.917 251.338 259.397V263.333H249.624V259.703C249.626 259.325 249.53 259.03 249.334 258.818C249.138 258.603 248.868 258.496 248.525 258.496C248.294 258.496 248.09 258.545 247.913 258.645C247.739 258.744 247.602 258.889 247.503 259.079C247.406 259.267 247.356 259.494 247.354 259.759ZM258.267 263.333H255.345V255.091H258.291C259.12 255.091 259.833 255.256 260.432 255.586C261.03 255.913 261.49 256.384 261.812 256.998C262.137 257.613 262.299 258.348 262.299 259.204C262.299 260.063 262.137 260.8 261.812 261.418C261.49 262.035 261.027 262.508 260.424 262.838C259.823 263.168 259.104 263.333 258.267 263.333ZM257.087 261.84H258.194C258.709 261.84 259.143 261.749 259.494 261.566C259.848 261.381 260.114 261.096 260.291 260.709C260.471 260.32 260.561 259.818 260.561 259.204C260.561 258.595 260.471 258.097 260.291 257.711C260.114 257.324 259.85 257.04 259.498 256.858C259.147 256.675 258.713 256.584 258.198 256.584H257.087V261.84ZM266.375 263.454C265.739 263.454 265.192 263.325 264.733 263.068C264.277 262.807 263.925 262.44 263.679 261.965C263.432 261.487 263.308 260.923 263.308 260.271C263.308 259.635 263.432 259.077 263.679 258.596C263.925 258.116 264.273 257.742 264.721 257.473C265.172 257.205 265.7 257.071 266.307 257.071C266.715 257.071 267.094 257.137 267.446 257.268C267.8 257.397 268.108 257.591 268.371 257.852C268.637 258.112 268.844 258.439 268.991 258.834C269.139 259.225 269.212 259.684 269.212 260.21V260.681H263.993V259.619H267.599C267.599 259.372 267.545 259.153 267.438 258.963C267.33 258.772 267.181 258.623 266.991 258.516C266.803 258.406 266.584 258.351 266.335 258.351C266.075 258.351 265.844 258.411 265.643 258.532C265.444 258.65 265.288 258.81 265.176 259.011C265.063 259.209 265.005 259.431 265.003 259.675V260.685C265.003 260.991 265.059 261.255 265.172 261.478C265.287 261.701 265.449 261.872 265.659 261.993C265.868 262.114 266.116 262.174 266.403 262.174C266.594 262.174 266.768 262.147 266.926 262.094C267.085 262.04 267.22 261.96 267.333 261.852C267.446 261.745 267.532 261.613 267.591 261.458L269.176 261.562C269.096 261.943 268.931 262.276 268.681 262.561C268.434 262.842 268.115 263.062 267.723 263.221C267.334 263.376 266.885 263.454 266.375 263.454ZM273.619 257.151V258.439H269.897V257.151H273.619ZM270.742 255.67H272.456V261.434C272.456 261.592 272.48 261.715 272.529 261.804C272.577 261.89 272.644 261.95 272.73 261.985C272.819 262.02 272.92 262.037 273.036 262.037C273.116 262.037 273.197 262.031 273.277 262.017C273.358 262.001 273.42 261.989 273.462 261.981L273.732 263.257C273.646 263.284 273.526 263.314 273.37 263.349C273.214 263.387 273.025 263.41 272.802 263.418C272.389 263.434 272.027 263.379 271.716 263.253C271.407 263.127 271.167 262.931 270.995 262.665C270.824 262.4 270.739 262.064 270.742 261.659V255.67ZM276.499 263.45C276.105 263.45 275.753 263.382 275.445 263.245C275.136 263.105 274.892 262.9 274.712 262.629C274.535 262.355 274.446 262.015 274.446 261.607C274.446 261.263 274.51 260.975 274.636 260.741C274.762 260.508 274.933 260.32 275.151 260.178C275.368 260.036 275.615 259.928 275.891 259.856C276.17 259.784 276.463 259.733 276.769 259.703C277.128 259.665 277.418 259.631 277.638 259.598C277.858 259.564 278.018 259.513 278.117 259.445C278.216 259.378 278.266 259.279 278.266 259.148V259.123C278.266 258.869 278.185 258.671 278.024 258.532C277.866 258.392 277.641 258.323 277.348 258.323C277.04 258.323 276.794 258.391 276.612 258.528C276.429 258.662 276.309 258.831 276.25 259.035L274.664 258.906C274.744 258.531 274.903 258.206 275.139 257.932C275.375 257.656 275.679 257.444 276.052 257.296C276.428 257.146 276.863 257.071 277.356 257.071C277.7 257.071 278.028 257.111 278.342 257.192C278.659 257.272 278.939 257.397 279.183 257.566C279.43 257.735 279.625 257.952 279.767 258.218C279.909 258.481 279.98 258.796 279.98 259.164V263.333H278.354V262.476H278.306C278.207 262.669 278.074 262.84 277.908 262.987C277.741 263.132 277.541 263.246 277.308 263.329C277.075 263.41 276.805 263.45 276.499 263.45ZM276.99 262.267C277.242 262.267 277.465 262.217 277.658 262.118C277.851 262.016 278.003 261.879 278.113 261.707C278.223 261.536 278.278 261.341 278.278 261.124V260.468C278.224 260.503 278.15 260.535 278.057 260.564C277.965 260.591 277.862 260.617 277.747 260.641C277.631 260.662 277.516 260.682 277.401 260.701C277.285 260.717 277.181 260.732 277.087 260.745C276.885 260.775 276.71 260.822 276.559 260.886C276.409 260.951 276.292 261.038 276.209 261.148C276.126 261.255 276.085 261.389 276.085 261.55C276.085 261.784 276.169 261.962 276.338 262.086C276.51 262.206 276.727 262.267 276.99 262.267ZM281.31 263.333V257.151H283.025V263.333H281.31ZM282.172 256.355C281.917 256.355 281.698 256.27 281.516 256.101C281.336 255.929 281.246 255.724 281.246 255.485C281.246 255.249 281.336 255.047 281.516 254.878C281.698 254.706 281.917 254.62 282.172 254.62C282.427 254.62 282.644 254.706 282.824 254.878C283.006 255.047 283.097 255.249 283.097 255.485C283.097 255.724 283.006 255.929 282.824 256.101C282.644 256.27 282.427 256.355 282.172 256.355ZM286.113 255.091V263.333H284.398V255.091H286.113ZM292.63 258.914L291.06 259.011C291.033 258.877 290.976 258.756 290.887 258.649C290.799 258.539 290.682 258.451 290.537 258.387C290.395 258.32 290.224 258.286 290.026 258.286C289.76 258.286 289.536 258.343 289.354 258.455C289.171 258.565 289.08 258.713 289.08 258.898C289.08 259.046 289.139 259.17 289.257 259.272C289.375 259.374 289.578 259.456 289.865 259.518L290.984 259.743C291.585 259.867 292.033 260.065 292.328 260.339C292.623 260.613 292.771 260.972 292.771 261.418C292.771 261.823 292.651 262.178 292.412 262.484C292.176 262.79 291.852 263.029 291.438 263.2C291.028 263.369 290.554 263.454 290.018 263.454C289.199 263.454 288.547 263.284 288.062 262.943C287.579 262.599 287.296 262.133 287.213 261.542L288.899 261.454C288.95 261.703 289.073 261.894 289.269 262.025C289.465 262.154 289.716 262.218 290.022 262.218C290.322 262.218 290.564 262.161 290.746 262.045C290.931 261.927 291.025 261.776 291.028 261.591C291.025 261.435 290.96 261.308 290.831 261.208C290.702 261.106 290.503 261.028 290.235 260.975L289.165 260.762C288.561 260.641 288.111 260.432 287.816 260.134C287.524 259.836 287.378 259.456 287.378 258.995C287.378 258.598 287.485 258.256 287.7 257.968C287.917 257.681 288.221 257.46 288.613 257.304C289.008 257.149 289.469 257.071 289.998 257.071C290.778 257.071 291.393 257.236 291.841 257.566C292.292 257.896 292.555 258.345 292.63 258.914Z" fill="white"/>
</g>
<defs>
<clipPath id="clip0_55128_17902">
<rect width="519" height="314" fill="white"/>
</clipPath>
</defs>
</svg>
