<svg width="300" height="256" viewBox="0 0 300 256" fill="none" xmlns="http://www.w3.org/2000/svg">
<rect width="299.25" height="255.431" fill="white"/>
<rect width="299.25" height="255.431" fill="#0073DE" fill-opacity="0.06"/>
<mask id="path-1-inside-1_55146_19456" fill="white">
<path d="M0 0H299.25V93.5187H0V0Z"/>
</mask>
<path d="M299.25 93.5187V92.5308H0V93.5187V94.5067H299.25V93.5187Z" fill="#0073DE" fill-opacity="0.15" mask="url(#path-1-inside-1_55146_19456)"/>
<path d="M20.8639 36.7593V26.7H24.4495C25.2321 26.7 25.8805 26.8424 26.3946 27.1273C26.9087 27.4122 27.2935 27.8018 27.5489 28.2963C27.8043 28.7875 27.932 29.3409 27.932 29.9565C27.932 30.5754 27.8026 31.132 27.544 31.6265C27.2885 32.1176 26.9021 32.5073 26.3848 32.7955C25.8707 33.0804 25.224 33.2228 24.4446 33.2228H21.9789V31.9359H24.3071C24.8015 31.9359 25.2027 31.8508 25.5105 31.6805C25.8183 31.507 26.0442 31.2712 26.1883 30.9732C26.3324 30.6752 26.4044 30.3363 26.4044 29.9565C26.4044 29.5766 26.3324 29.2393 26.1883 28.9446C26.0442 28.6499 25.8166 28.4191 25.5056 28.2521C25.1978 28.0851 24.7917 28.0016 24.2874 28.0016H22.3817V36.7593H20.8639ZM32.6768 36.9115C31.9695 36.9115 31.3522 36.7495 30.825 36.4253C30.2978 36.1011 29.8885 35.6476 29.5971 35.0647C29.3056 34.4819 29.1599 33.8008 29.1599 33.0214C29.1599 32.2388 29.3056 31.5544 29.5971 30.9683C29.8885 30.3822 30.2978 29.927 30.825 29.6028C31.3522 29.2786 31.9695 29.1166 32.6768 29.1166C33.3841 29.1166 34.0013 29.2786 34.5285 29.6028C35.0557 29.927 35.465 30.3822 35.7564 30.9683C36.0479 31.5544 36.1936 32.2388 36.1936 33.0214C36.1936 33.8008 36.0479 34.4819 35.7564 35.0647C35.465 35.6476 35.0557 36.1011 34.5285 36.4253C34.0013 36.7495 33.3841 36.9115 32.6768 36.9115ZM32.6817 35.6787C33.1401 35.6787 33.5199 35.5575 33.8212 35.3152C34.1225 35.0729 34.3451 34.7504 34.4892 34.3476C34.6366 33.9448 34.7102 33.5011 34.7102 33.0165C34.7102 32.5352 34.6366 32.0931 34.4892 31.6903C34.3451 31.2843 34.1225 30.9585 33.8212 30.7129C33.5199 30.4673 33.1401 30.3445 32.6817 30.3445C32.22 30.3445 31.8368 30.4673 31.5323 30.7129C31.2311 30.9585 31.0068 31.2843 30.8594 31.6903C30.7153 32.0931 30.6433 32.5352 30.6433 33.0165C30.6433 33.5011 30.7153 33.9448 30.8594 34.3476C31.0068 34.7504 31.2311 35.0729 31.5323 35.3152C31.8368 35.5575 32.22 35.6787 32.6817 35.6787ZM41.3546 29.2148V30.3936H37.2337V29.2148H41.3546ZM38.3388 27.4073H39.8074V34.5441C39.8074 34.8289 39.85 35.0434 39.9351 35.1875C40.0203 35.3283 40.13 35.4249 40.2642 35.4773C40.4018 35.5264 40.5507 35.551 40.7112 35.551C40.8291 35.551 40.9322 35.5428 41.0206 35.5264C41.109 35.51 41.1778 35.497 41.2269 35.4871L41.4922 36.7003C41.407 36.7331 41.2859 36.7658 41.1287 36.7986C40.9715 36.8346 40.775 36.8542 40.5393 36.8575C40.1529 36.8641 39.7927 36.7953 39.4587 36.6512C39.1247 36.5071 38.8545 36.2845 38.6482 35.9832C38.442 35.682 38.3388 35.3038 38.3388 34.8486V27.4073ZM46.1498 36.9115C45.4064 36.9115 44.7663 36.7527 44.2293 36.4351C43.6955 36.1142 43.2829 35.664 42.9915 35.0844C42.7033 34.5015 42.5593 33.8188 42.5593 33.0362C42.5593 32.2634 42.7033 31.5823 42.9915 30.9929C43.2829 30.4034 43.689 29.9434 44.2096 29.6126C44.7335 29.2819 45.3459 29.1166 46.0466 29.1166C46.4723 29.1166 46.8849 29.187 47.2844 29.3278C47.6839 29.4686 48.0424 29.6896 48.3601 29.9909C48.6777 30.2921 48.9282 30.6834 49.1116 31.1648C49.2949 31.6428 49.3866 32.2241 49.3866 32.9084V33.4291H43.3893V32.3289H47.9475C47.9475 31.9425 47.8689 31.6003 47.7117 31.3023C47.5545 31.001 47.3335 30.7636 47.0486 30.5901C46.767 30.4165 46.4363 30.3298 46.0564 30.3298C45.6438 30.3298 45.2836 30.4313 44.9758 30.6343C44.6713 30.834 44.4355 31.096 44.2685 31.4202C44.1048 31.7411 44.023 32.0898 44.023 32.4664V33.3259C44.023 33.8302 44.1114 34.2592 44.2882 34.6128C44.4683 34.9665 44.7188 35.2366 45.0397 35.4233C45.3606 35.6066 45.7355 35.6983 46.1645 35.6983C46.4428 35.6983 46.6966 35.659 46.9258 35.5805C47.155 35.4986 47.3531 35.3774 47.5201 35.217C47.6871 35.0565 47.8149 34.8584 47.9033 34.6227L49.2933 34.8732C49.182 35.2825 48.9822 35.641 48.6941 35.9488C48.4092 36.2534 48.0506 36.4908 47.6184 36.661C47.1894 36.828 46.6999 36.9115 46.1498 36.9115ZM52.4847 32.2797V36.7593H51.0161V29.2148H52.4258V30.4427H52.5191C52.6927 30.0432 52.9644 29.7223 53.3345 29.48C53.7078 29.2377 54.1776 29.1166 54.7441 29.1166C55.2582 29.1166 55.7085 29.2246 56.0949 29.4407C56.4813 29.6536 56.7809 29.9712 56.9937 30.3936C57.2066 30.816 57.313 31.3383 57.313 31.9605V36.7593H55.8444V32.1373C55.8444 31.5905 55.7019 31.1631 55.4171 30.8553C55.1322 30.5442 54.7409 30.3887 54.2431 30.3887C53.9026 30.3887 53.5997 30.4624 53.3345 30.6097C53.0725 30.7571 52.8646 30.9732 52.7107 31.2581C52.56 31.5397 52.4847 31.8802 52.4847 32.2797ZM62.8044 29.2148V30.3936H58.6834V29.2148H62.8044ZM59.7885 27.4073H61.2572V34.5441C61.2572 34.8289 61.2997 35.0434 61.3849 35.1875C61.47 35.3283 61.5797 35.4249 61.7139 35.4773C61.8515 35.5264 62.0005 35.551 62.1609 35.551C62.2788 35.551 62.382 35.5428 62.4704 35.5264C62.5588 35.51 62.6275 35.497 62.6767 35.4871L62.9419 36.7003C62.8568 36.7331 62.7356 36.7658 62.5784 36.7986C62.4212 36.8346 62.2248 36.8542 61.989 36.8575C61.6026 36.8641 61.2424 36.7953 60.9084 36.6512C60.5744 36.5071 60.3043 36.2845 60.098 35.9832C59.8917 35.682 59.7885 35.3038 59.7885 34.8486V27.4073ZM64.4289 36.7593V29.2148H65.8976V36.7593H64.4289ZM65.1706 28.0507C64.9152 28.0507 64.6958 27.9656 64.5124 27.7953C64.3323 27.6217 64.2423 27.4154 64.2423 27.1764C64.2423 26.9341 64.3323 26.7278 64.5124 26.5575C64.6958 26.384 64.9152 26.2972 65.1706 26.2972C65.426 26.2972 65.6438 26.384 65.8239 26.5575C66.0072 26.7278 66.0989 26.9341 66.0989 27.1764C66.0989 27.4154 66.0072 27.6217 65.8239 27.7953C65.6438 27.9656 65.426 28.0507 65.1706 28.0507ZM70.0689 36.9263C69.5908 36.9263 69.1586 36.8379 68.7722 36.661C68.3858 36.4809 68.0796 36.2206 67.8537 35.8801C67.631 35.5395 67.5197 35.122 67.5197 34.6276C67.5197 34.2019 67.6015 33.8515 67.7653 33.5764C67.929 33.3014 68.15 33.0836 68.4283 32.9232C68.7067 32.7627 69.0178 32.6416 69.3616 32.5597C69.7054 32.4778 70.0558 32.4156 70.4127 32.3731C70.8646 32.3207 71.2313 32.2781 71.5129 32.2454C71.7945 32.2093 71.9992 32.152 72.1269 32.0734C72.2546 31.9949 72.3185 31.8671 72.3185 31.6903V31.6559C72.3185 31.227 72.1973 30.8946 71.955 30.6589C71.716 30.4231 71.359 30.3052 70.8842 30.3052C70.3898 30.3052 70.0001 30.4149 69.7152 30.6343C69.4336 30.8504 69.2388 31.0911 69.1307 31.3563L67.7505 31.042C67.9142 30.5835 68.1533 30.2135 68.4676 29.9319C68.7853 29.647 69.1504 29.4407 69.563 29.313C69.9756 29.182 70.4094 29.1166 70.8646 29.1166C71.1658 29.1166 71.4851 29.1526 71.8224 29.2246C72.1629 29.2934 72.4806 29.4211 72.7753 29.6077C73.0732 29.7944 73.3172 30.0613 73.5071 30.4084C73.697 30.7522 73.792 31.1991 73.792 31.7493V36.7593H72.3578V35.7278H72.2988C72.2039 35.9177 72.0614 36.1044 71.8715 36.2877C71.6816 36.4711 71.4376 36.6234 71.1396 36.7445C70.8417 36.8657 70.4847 36.9263 70.0689 36.9263ZM70.3881 35.7475C70.7942 35.7475 71.1413 35.6672 71.4294 35.5068C71.7209 35.3463 71.9419 35.1368 72.0925 34.8781C72.2464 34.6161 72.3234 34.3361 72.3234 34.0382V33.0656C72.271 33.118 72.1695 33.1671 72.0189 33.213C71.8715 33.2555 71.7029 33.2932 71.5129 33.3259C71.323 33.3554 71.138 33.3833 70.9579 33.4094C70.7778 33.4324 70.6272 33.452 70.506 33.4684C70.2211 33.5044 69.9608 33.565 69.7251 33.6501C69.4926 33.7353 69.3059 33.8581 69.1651 34.0185C69.0276 34.1757 68.9588 34.3853 68.9588 34.6472C68.9588 35.0107 69.0931 35.2857 69.3616 35.4724C69.6301 35.6558 69.9723 35.7475 70.3881 35.7475ZM77.2167 26.7V36.7593H75.7481V26.7H77.2167ZM82.853 36.7593V29.2148H84.2627V30.4427H84.356C84.5132 30.0269 84.7702 29.7027 85.1272 29.4702C85.4841 29.2344 85.9114 29.1166 86.4091 29.1166C86.9134 29.1166 87.3358 29.2344 87.6764 29.4702C88.0202 29.706 88.274 30.0301 88.4377 30.4427H88.5163C88.6964 30.04 88.9829 29.7191 89.3758 29.48C89.7688 29.2377 90.237 29.1166 90.7806 29.1166C91.465 29.1166 92.0233 29.331 92.4555 29.76C92.891 30.189 93.1088 30.8357 93.1088 31.7001V36.7593H91.6402V31.8377C91.6402 31.3269 91.501 30.9568 91.2227 30.7276C90.9443 30.4984 90.612 30.3838 90.2256 30.3838C89.7475 30.3838 89.3758 30.5311 89.1106 30.8259C88.8454 31.1173 88.7127 31.4922 88.7127 31.9506V36.7593H87.249V31.7444C87.249 31.335 87.1213 31.006 86.8659 30.7571C86.6105 30.5082 86.2781 30.3838 85.8688 30.3838C85.5905 30.3838 85.3334 30.4575 85.0977 30.6048C84.8652 30.7489 84.6769 30.9503 84.5328 31.209C84.392 31.4677 84.3216 31.7673 84.3216 32.1078V36.7593H82.853ZM97.2727 36.9263C96.7947 36.9263 96.3624 36.8379 95.976 36.661C95.5896 36.4809 95.2835 36.2206 95.0575 35.8801C94.8349 35.5395 94.7235 35.122 94.7235 34.6276C94.7235 34.2019 94.8054 33.8515 94.9691 33.5764C95.1328 33.3014 95.3539 33.0836 95.6322 32.9232C95.9105 32.7627 96.2216 32.6416 96.5654 32.5597C96.9093 32.4778 97.2596 32.4156 97.6166 32.3731C98.0685 32.3207 98.4352 32.2781 98.7168 32.2454C98.9984 32.2093 99.2031 32.152 99.3308 32.0734C99.4585 31.9949 99.5223 31.8671 99.5223 31.6903V31.6559C99.5223 31.227 99.4012 30.8946 99.1589 30.6589C98.9198 30.4231 98.5629 30.3052 98.0881 30.3052C97.5936 30.3052 97.204 30.4149 96.9191 30.6343C96.6375 30.8504 96.4427 31.0911 96.3346 31.3563L94.9544 31.042C95.1181 30.5835 95.3572 30.2135 95.6715 29.9319C95.9891 29.647 96.3542 29.4407 96.7668 29.313C97.1794 29.182 97.6133 29.1166 98.0685 29.1166C98.3697 29.1166 98.689 29.1526 99.0262 29.2246C99.3668 29.2934 99.6844 29.4211 99.9791 29.6077C100.277 29.7944 100.521 30.0613 100.711 30.4084C100.901 30.7522 100.996 31.1991 100.996 31.7493V36.7593H99.5616V35.7278H99.5027C99.4077 35.9177 99.2653 36.1044 99.0754 36.2877C98.8854 36.4711 98.6415 36.6234 98.3435 36.7445C98.0455 36.8657 97.6886 36.9263 97.2727 36.9263ZM97.592 35.7475C97.998 35.7475 98.3451 35.6672 98.6333 35.5068C98.9247 35.3463 99.1458 35.1368 99.2964 34.8781C99.4503 34.6161 99.5272 34.3361 99.5272 34.0382V33.0656C99.4749 33.118 99.3733 33.1671 99.2227 33.213C99.0754 33.2555 98.9067 33.2932 98.7168 33.3259C98.5269 33.3554 98.3419 33.3833 98.1618 33.4094C97.9817 33.4324 97.831 33.452 97.7099 33.4684C97.425 33.5044 97.1647 33.565 96.9289 33.6501C96.6964 33.7353 96.5098 33.8581 96.369 34.0185C96.2314 34.1757 96.1627 34.3853 96.1627 34.6472C96.1627 35.0107 96.2969 35.2857 96.5654 35.4724C96.834 35.6558 97.1761 35.7475 97.592 35.7475ZM104.111 29.2148L105.776 32.152L107.456 29.2148H109.062L106.709 32.987L109.082 36.7593H107.476L105.776 33.9399L104.082 36.7593H102.471L104.818 32.987L102.5 29.2148H104.111ZM110.57 36.7593V29.2148H112.039V36.7593H110.57ZM111.312 28.0507C111.056 28.0507 110.837 27.9656 110.654 27.7953C110.474 27.6217 110.384 27.4154 110.384 27.1764C110.384 26.9341 110.474 26.7278 110.654 26.5575C110.837 26.384 111.056 26.2972 111.312 26.2972C111.567 26.2972 111.785 26.384 111.965 26.5575C112.148 26.7278 112.24 26.9341 112.24 27.1764C112.24 27.4154 112.148 27.6217 111.965 27.7953C111.785 27.9656 111.567 28.0507 111.312 28.0507ZM114.015 36.7593V29.2148H115.424V30.4427H115.518C115.675 30.0269 115.932 29.7027 116.289 29.4702C116.646 29.2344 117.073 29.1166 117.571 29.1166C118.075 29.1166 118.497 29.2344 118.838 29.4702C119.182 29.706 119.435 30.0301 119.599 30.4427H119.678C119.858 30.04 120.144 29.7191 120.537 29.48C120.93 29.2377 121.399 29.1166 121.942 29.1166C122.627 29.1166 123.185 29.331 123.617 29.76C124.053 30.189 124.27 30.8357 124.27 31.7001V36.7593H122.802V31.8377C122.802 31.3269 122.663 30.9568 122.384 30.7276C122.106 30.4984 121.774 30.3838 121.387 30.3838C120.909 30.3838 120.537 30.5311 120.272 30.8259C120.007 31.1173 119.874 31.4922 119.874 31.9506V36.7593H118.411V31.7444C118.411 31.335 118.283 31.006 118.027 30.7571C117.772 30.5082 117.44 30.3838 117.03 30.3838C116.752 30.3838 116.495 30.4575 116.259 30.6048C116.027 30.7489 115.838 30.9503 115.694 31.209C115.554 31.4677 115.483 31.7673 115.483 32.1078V36.7593H114.015ZM131.018 33.6305V29.2148H132.491V36.7593H131.047V35.4527H130.969C130.795 35.8555 130.517 36.1911 130.134 36.4597C129.754 36.7249 129.281 36.8575 128.714 36.8575C128.23 36.8575 127.801 36.7511 127.427 36.5382C127.057 36.3221 126.766 36.0029 126.553 35.5805C126.344 35.158 126.239 34.6358 126.239 34.0136V29.2148H127.707V33.8368C127.707 34.3509 127.85 34.7602 128.135 35.0647C128.42 35.3692 128.79 35.5215 129.245 35.5215C129.52 35.5215 129.793 35.4527 130.065 35.3152C130.34 35.1777 130.568 34.9698 130.748 34.6914C130.931 34.4131 131.021 34.0594 131.018 33.6305ZM134.465 36.7593V29.2148H135.874V30.4427H135.968C136.125 30.0269 136.382 29.7027 136.739 29.4702C137.096 29.2344 137.523 29.1166 138.021 29.1166C138.525 29.1166 138.948 29.2344 139.288 29.4702C139.632 29.706 139.886 30.0301 140.049 30.4427H140.128C140.308 30.04 140.595 29.7191 140.988 29.48C141.38 29.2377 141.849 29.1166 142.392 29.1166C143.077 29.1166 143.635 29.331 144.067 29.76C144.503 30.189 144.721 30.8357 144.721 31.7001V36.7593H143.252V31.8377C143.252 31.3269 143.113 30.9568 142.834 30.7276C142.556 30.4984 142.224 30.3838 141.837 30.3838C141.359 30.3838 140.988 30.5311 140.722 30.8259C140.457 31.1173 140.324 31.4922 140.324 31.9506V36.7593H138.861V31.7444C138.861 31.335 138.733 31.006 138.478 30.7571C138.222 30.5082 137.89 30.3838 137.481 30.3838C137.202 30.3838 136.945 30.4575 136.709 30.6048C136.477 30.7489 136.289 30.9503 136.145 31.209C136.004 31.4677 135.933 31.7673 135.933 32.1078V36.7593H134.465ZM153.527 36.9115C152.82 36.9115 152.203 36.7495 151.676 36.4253C151.148 36.1011 150.739 35.6476 150.448 35.0647C150.156 34.4819 150.01 33.8008 150.01 33.0214C150.01 32.2388 150.156 31.5544 150.448 30.9683C150.739 30.3822 151.148 29.927 151.676 29.6028C152.203 29.2786 152.82 29.1166 153.527 29.1166C154.235 29.1166 154.852 29.2786 155.379 29.6028C155.906 29.927 156.316 30.3822 156.607 30.9683C156.898 31.5544 157.044 32.2388 157.044 33.0214C157.044 33.8008 156.898 34.4819 156.607 35.0647C156.316 35.6476 155.906 36.1011 155.379 36.4253C154.852 36.7495 154.235 36.9115 153.527 36.9115ZM153.532 35.6787C153.991 35.6787 154.37 35.5575 154.672 35.3152C154.973 35.0729 155.196 34.7504 155.34 34.3476C155.487 33.9448 155.561 33.5011 155.561 33.0165C155.561 32.5352 155.487 32.0931 155.34 31.6903C155.196 31.2843 154.973 30.9585 154.672 30.7129C154.37 30.4673 153.991 30.3445 153.532 30.3445C153.071 30.3445 152.687 30.4673 152.383 30.7129C152.082 30.9585 151.857 31.2843 151.71 31.6903C151.566 32.0931 151.494 32.5352 151.494 33.0165C151.494 33.5011 151.566 33.9448 151.71 34.3476C151.857 34.7504 152.082 35.0729 152.383 35.3152C152.687 35.5575 153.071 35.6787 153.532 35.6787ZM162.274 29.2148V30.3936H158.011V29.2148H162.274ZM159.18 36.7593V28.3405C159.18 27.869 159.283 27.4777 159.489 27.1666C159.695 26.8522 159.969 26.6181 160.309 26.4642C160.65 26.307 161.02 26.2284 161.419 26.2284C161.714 26.2284 161.966 26.253 162.176 26.3021C162.385 26.3479 162.541 26.3905 162.642 26.4298L162.299 27.6185C162.23 27.5988 162.141 27.5759 162.033 27.5497C161.925 27.5202 161.794 27.5055 161.64 27.5055C161.283 27.5055 161.028 27.5939 160.874 27.7707C160.723 27.9476 160.648 28.203 160.648 28.537V36.7593H159.18ZM167.38 29.2148V30.3936H163.116V29.2148H167.38ZM164.285 36.7593V28.3405C164.285 27.869 164.388 27.4777 164.595 27.1666C164.801 26.8522 165.074 26.6181 165.415 26.4642C165.756 26.307 166.126 26.2284 166.525 26.2284C166.82 26.2284 167.072 26.253 167.282 26.3021C167.491 26.3479 167.647 26.3905 167.748 26.4298L167.404 27.6185C167.336 27.5988 167.247 27.5759 167.139 27.5497C167.031 27.5202 166.9 27.5055 166.746 27.5055C166.389 27.5055 166.134 27.5939 165.98 27.7707C165.829 27.9476 165.754 28.203 165.754 28.537V36.7593H164.285ZM171.849 36.9115C171.106 36.9115 170.466 36.7527 169.929 36.4351C169.395 36.1142 168.983 35.664 168.691 35.0844C168.403 34.5015 168.259 33.8188 168.259 33.0362C168.259 32.2634 168.403 31.5823 168.691 30.9929C168.983 30.4034 169.389 29.9434 169.909 29.6126C170.433 29.2819 171.046 29.1166 171.746 29.1166C172.172 29.1166 172.585 29.187 172.984 29.3278C173.384 29.4686 173.742 29.6896 174.06 29.9909C174.377 30.2921 174.628 30.6834 174.811 31.1648C174.995 31.6428 175.086 32.2241 175.086 32.9084V33.4291H169.089V32.3289H173.647C173.647 31.9425 173.569 31.6003 173.411 31.3023C173.254 31.001 173.033 30.7636 172.748 30.5901C172.467 30.4165 172.136 30.3298 171.756 30.3298C171.344 30.3298 170.983 30.4313 170.676 30.6343C170.371 30.834 170.135 31.096 169.968 31.4202C169.805 31.7411 169.723 32.0898 169.723 32.4664V33.3259C169.723 33.8302 169.811 34.2592 169.988 34.6128C170.168 34.9665 170.418 35.2366 170.739 35.4233C171.06 35.6066 171.435 35.6983 171.864 35.6983C172.143 35.6983 172.396 35.659 172.626 35.5805C172.855 35.4986 173.053 35.3774 173.22 35.217C173.387 35.0565 173.515 34.8584 173.603 34.6227L174.993 34.8732C174.882 35.2825 174.682 35.641 174.394 35.9488C174.109 36.2534 173.75 36.4908 173.318 36.661C172.889 36.828 172.4 36.9115 171.849 36.9115ZM176.716 36.7593V29.2148H178.135V30.4133H178.214C178.351 30.0072 178.594 29.688 178.941 29.4555C179.291 29.2197 179.687 29.1018 180.129 29.1018C180.221 29.1018 180.329 29.1051 180.454 29.1116C180.581 29.1182 180.681 29.1264 180.753 29.1362V30.541C180.694 30.5246 180.59 30.5066 180.439 30.4869C180.288 30.464 180.138 30.4526 179.987 30.4526C179.64 30.4526 179.33 30.5262 179.059 30.6736C178.79 30.8177 178.577 31.019 178.42 31.2777C178.263 31.5331 178.184 31.8246 178.184 32.152V36.7593H176.716Z" fill="#6B7280"/>
<path d="M192.625 26.14C194.115 26.14 195.544 26.732 196.598 27.7858C197.652 28.8395 198.244 30.2688 198.244 31.759C198.244 33.2493 197.652 34.6785 196.598 35.7323C195.544 36.7861 194.115 37.3781 192.625 37.3781C191.134 37.3781 189.705 36.7861 188.651 35.7323C187.598 34.6785 187.006 33.2493 187.006 31.759C187.006 30.2688 187.598 28.8395 188.651 27.7858C189.705 26.732 191.134 26.14 192.625 26.14ZM192.625 38.6748C194.459 38.6748 196.218 37.9462 197.515 36.6492C198.812 35.3523 199.541 33.5932 199.541 31.759C199.541 29.9249 198.812 28.1658 197.515 26.8688C196.218 25.5719 194.459 24.8433 192.625 24.8433C190.791 24.8433 189.032 25.5719 187.735 26.8688C186.438 28.1658 185.709 29.9249 185.709 31.759C185.709 33.5932 186.438 35.3523 187.735 36.6492C189.032 37.9462 190.791 38.6748 192.625 38.6748ZM191.544 33.9202C191.185 33.9202 190.896 34.2093 190.896 34.5686C190.896 34.9279 191.185 35.2169 191.544 35.2169H193.705C194.065 35.2169 194.354 34.9279 194.354 34.5686C194.354 34.2093 194.065 33.9202 193.705 33.9202H193.489V31.5429C193.489 31.1836 193.2 30.8946 192.841 30.8946H191.544C191.185 30.8946 190.896 31.1836 190.896 31.5429C190.896 31.9022 191.185 32.1913 191.544 32.1913H192.193V33.9202H191.544ZM192.625 30.0301C192.854 30.0301 193.074 29.939 193.236 29.7769C193.398 29.6148 193.489 29.3949 193.489 29.1656C193.489 28.9364 193.398 28.7165 193.236 28.5544C193.074 28.3922 192.854 28.3012 192.625 28.3012C192.395 28.3012 192.176 28.3922 192.013 28.5544C191.851 28.7165 191.76 28.9364 191.76 29.1656C191.76 29.3949 191.851 29.6148 192.013 29.7769C192.176 29.939 192.395 30.0301 192.625 30.0301Z" fill="#6B7280"/>
<path d="M33.1385 66.7593H21.3502V64.5195H33.1385V66.7593ZM29.602 60.0063H21.2913V57.7665H29.602V60.0063ZM25.5182 54.6174L25.7876 61.884C25.8213 62.6081 25.7287 63.2565 25.5098 63.8291C25.2909 64.396 24.8951 64.8479 24.3225 65.1847L22.167 64.5195C22.4701 64.5027 22.703 64.3483 22.8658 64.0564C23.0286 63.7645 23.1381 63.4221 23.1942 63.0291C23.2504 62.6306 23.2728 62.2713 23.2616 61.9514L23.0174 54.6174C22.9725 53.4385 23.1914 52.4534 23.6742 51.6619C24.1625 50.8704 24.8109 50.2754 25.6192 49.8768C26.4276 49.4782 27.2977 49.279 28.2295 49.279C29.0603 49.279 29.8069 49.4165 30.4693 49.6916C31.1373 49.9666 31.6986 50.3427 32.1533 50.8199C32.6136 51.2914 32.942 51.8303 33.1385 52.4365C33.3349 53.0428 33.3742 53.6799 33.2563 54.3479L30.8229 53.9606C30.879 53.4105 30.792 52.953 30.5619 52.5881C30.3317 52.2232 30.0146 51.9482 29.6104 51.7629C29.2062 51.5777 28.7768 51.4851 28.3221 51.4851C27.845 51.4851 27.3903 51.5973 26.958 51.8219C26.5314 52.0464 26.1834 52.3888 25.9139 52.8491C25.6501 53.3094 25.5182 53.8988 25.5182 54.6174ZM42.7038 66.995C41.5474 66.995 40.5146 66.7958 39.6052 66.3972C38.7014 65.9987 37.9857 65.4457 37.458 64.7384C36.936 64.0255 36.6553 63.2003 36.616 62.2629H39.2599C39.2936 62.7737 39.4648 63.2172 39.7736 63.5933C40.0879 63.9638 40.4977 64.2501 41.0029 64.4521C41.5081 64.6542 42.0695 64.7553 42.687 64.7553C43.3662 64.7553 43.9668 64.6374 44.4889 64.4016C45.0165 64.1659 45.4291 63.8375 45.7266 63.4165C46.0242 62.9898 46.1729 62.4987 46.1729 61.9429C46.1729 61.3647 46.0242 60.8567 45.7266 60.4189C45.4347 59.9754 45.0053 59.6274 44.4384 59.3748C43.877 59.1222 43.1978 58.9959 42.4007 58.9959H40.944V56.874H42.4007C43.0406 56.874 43.602 56.7589 44.0847 56.5287C44.5731 56.2986 44.9548 55.9786 45.2299 55.5688C45.5049 55.1535 45.6424 54.6679 45.6424 54.1122C45.6424 53.5789 45.5218 53.1158 45.2804 52.7228C45.0446 52.3243 44.7078 52.0127 44.27 51.7882C43.8377 51.5636 43.3269 51.4514 42.7375 51.4514C42.1761 51.4514 41.6513 51.5552 41.1629 51.7629C40.6801 51.965 40.2872 52.2569 39.9841 52.6386C39.681 53.0147 39.5182 53.4666 39.4957 53.9943H36.9781C37.0061 53.0624 37.2812 52.2429 37.8032 51.5356C38.3309 50.8283 39.027 50.2754 39.8915 49.8768C40.7559 49.4782 41.7158 49.279 42.7712 49.279C43.877 49.279 44.8313 49.4951 45.634 49.9273C46.4424 50.3539 47.0655 50.9237 47.5033 51.6366C47.9468 52.3495 48.1657 53.1298 48.1601 53.9774C48.1657 54.9429 47.8962 55.7625 47.3517 56.4361C46.8129 57.1097 46.0943 57.5616 45.1962 57.7918V57.9265C46.3413 58.1005 47.2282 58.5552 47.857 59.2906C48.4913 60.0259 48.8056 60.9381 48.8 62.0271C48.8056 62.9758 48.5418 63.8262 48.0085 64.5784C47.4809 65.3307 46.7595 65.9229 45.8445 66.3551C44.9295 66.7817 43.8826 66.995 42.7038 66.995ZM58.0033 66.995C57.2342 66.9838 56.4764 66.8435 55.7298 66.574C54.9889 66.3046 54.3152 65.8555 53.709 65.2268C53.1027 64.5981 52.6172 63.7533 52.2523 62.6923C51.893 61.6314 51.7134 60.3066 51.7134 58.718C51.7134 57.2136 51.8622 55.8776 52.1597 54.71C52.4628 53.5424 52.8978 52.5572 53.4648 51.7545C54.0318 50.9462 54.7166 50.3315 55.5193 49.9105C56.322 49.4895 57.223 49.279 58.2222 49.279C59.2495 49.279 60.1617 49.4811 60.9588 49.8852C61.7559 50.2894 62.4014 50.8479 62.8954 51.5608C63.395 52.2737 63.7122 53.0849 63.8469 53.9943H61.2787C61.1047 53.2758 60.7595 52.6891 60.243 52.2345C59.7266 51.7798 59.053 51.5524 58.2222 51.5524C56.9592 51.5524 55.974 52.1025 55.2667 53.2028C54.565 54.303 54.2114 55.8327 54.2058 57.7918H54.3321C54.6296 57.3034 54.9945 56.888 55.4267 56.5456C55.8646 56.1976 56.3529 55.9309 56.8918 55.7457C57.4363 55.5548 58.0089 55.4594 58.6095 55.4594C59.6087 55.4594 60.5125 55.7036 61.3208 56.1919C62.1348 56.6747 62.7831 57.3427 63.2659 58.1959C63.7487 59.0492 63.99 60.0259 63.99 61.1262C63.99 62.2264 63.7402 63.2228 63.2406 64.1153C62.7467 65.0079 62.0506 65.7152 61.1524 66.2372C60.2543 66.7537 59.2046 67.0063 58.0033 66.995ZM57.9949 64.8058C58.6572 64.8058 59.2495 64.643 59.7715 64.3174C60.2936 63.9918 60.7062 63.554 61.0093 63.0039C61.3124 62.4538 61.464 61.8391 61.464 61.1599C61.464 60.4975 61.3152 59.894 61.0177 59.3495C60.7258 58.805 60.3216 58.3728 59.8052 58.0528C59.2944 57.7328 58.7106 57.5729 58.0538 57.5729C57.5542 57.5729 57.0911 57.6683 56.6645 57.8591C56.2435 58.05 55.873 58.3138 55.553 58.6506C55.233 58.9874 54.9804 59.3748 54.7952 59.8126C54.6156 60.2449 54.5257 60.7024 54.5257 61.1851C54.5257 61.8307 54.6745 62.4285 54.972 62.9786C55.2751 63.5287 55.6877 63.9722 56.2098 64.309C56.7374 64.6402 57.3325 64.8058 57.9949 64.8058ZM73.0607 67.0456C71.7303 67.04 70.5936 66.6891 69.6505 65.993C68.7074 65.297 67.9861 64.2837 67.4865 62.9534C66.9869 61.623 66.7371 60.0203 66.7371 58.1454C66.7371 56.2761 66.9869 54.6791 67.4865 53.3543C67.9917 52.0296 68.7159 51.0191 69.6589 50.3231C70.6076 49.627 71.7415 49.279 73.0607 49.279C74.3798 49.279 75.511 49.6298 76.454 50.3315C77.3971 51.0276 78.1184 52.038 78.618 53.3628C79.1232 54.6819 79.3758 56.2761 79.3758 58.1454C79.3758 60.0259 79.126 61.6314 78.6264 62.9618C78.1268 64.2865 77.4055 65.2998 76.4624 66.0015C75.5194 66.6975 74.3855 67.0456 73.0607 67.0456ZM73.0607 64.7974C74.2283 64.7974 75.1405 64.2276 75.7972 63.0881C76.4596 61.9485 76.7908 60.301 76.7908 58.1454C76.7908 56.714 76.6393 55.5043 76.3361 54.5163C76.0386 53.5227 75.6092 52.7705 75.0478 52.2597C74.4921 51.7433 73.8297 51.4851 73.0607 51.4851C71.8987 51.4851 70.9865 52.0576 70.3241 53.2028C69.6617 54.3479 69.3277 55.9955 69.3221 58.1454C69.3221 59.5825 69.4709 60.7978 69.7684 61.7914C70.0715 62.7793 70.5009 63.5287 71.0567 64.0396C71.6124 64.5448 72.2804 64.7974 73.0607 64.7974ZM85.0468 64.4016L84.9205 65.3194C84.8363 65.993 84.6932 66.6947 84.4911 67.4245C84.2946 68.1598 84.0897 68.8419 83.8764 69.4706C83.6687 70.0993 83.4975 70.5989 83.3628 70.9694H81.5777C81.6507 70.6213 81.7517 70.1498 81.8808 69.5548C82.0099 68.9654 82.1362 68.3058 82.2597 67.576C82.3832 66.8463 82.4758 66.1025 82.5376 65.3447L82.6218 64.4016H85.0468ZM93.947 67.0456C92.6166 67.04 91.4798 66.6891 90.5368 65.993C89.5937 65.297 88.8724 64.2837 88.3728 62.9534C87.8732 61.623 87.6234 60.0203 87.6234 58.1454C87.6234 56.2761 87.8732 54.6791 88.3728 53.3543C88.878 52.0296 89.6021 51.0191 90.5452 50.3231C91.4939 49.627 92.6278 49.279 93.947 49.279C95.2661 49.279 96.3972 49.6298 97.3403 50.3315C98.2834 51.0276 99.0047 52.038 99.5043 53.3628C100.009 54.6819 100.262 56.2761 100.262 58.1454C100.262 60.0259 100.012 61.6314 99.5127 62.9618C99.0131 64.2865 98.2918 65.2998 97.3487 66.0015C96.4056 66.6975 95.2717 67.0456 93.947 67.0456ZM93.947 64.7974C95.1146 64.7974 96.0267 64.2276 96.6835 63.0881C97.3459 61.9485 97.6771 60.301 97.6771 58.1454C97.6771 56.714 97.5255 55.5043 97.2224 54.5163C96.9249 53.5227 96.4955 52.7705 95.9341 52.2597C95.3784 51.7433 94.716 51.4851 93.947 51.4851C92.785 51.4851 91.8728 52.0576 91.2104 53.2028C90.548 54.3479 90.214 55.9955 90.2084 58.1454C90.2084 59.5825 90.3571 60.7978 90.6547 61.7914C90.9578 62.7793 91.3872 63.5287 91.9429 64.0396C92.4987 64.5448 93.1667 64.7974 93.947 64.7974ZM109.253 67.0456C107.922 67.04 106.786 66.6891 105.843 65.993C104.9 65.297 104.178 64.2837 103.679 62.9534C103.179 61.623 102.929 60.0203 102.929 58.1454C102.929 56.2761 103.179 54.6791 103.679 53.3543C104.184 52.0296 104.908 51.0191 105.851 50.3231C106.8 49.627 107.934 49.279 109.253 49.279C110.572 49.279 111.703 49.6298 112.646 50.3315C113.589 51.0276 114.31 52.038 114.81 53.3628C115.315 54.6819 115.568 56.2761 115.568 58.1454C115.568 60.0259 115.318 61.6314 114.818 62.9618C114.319 64.2865 113.598 65.2998 112.655 66.0015C111.711 66.6975 110.578 67.0456 109.253 67.0456ZM109.253 64.7974C110.42 64.7974 111.333 64.2276 111.989 63.0881C112.652 61.9485 112.983 60.301 112.983 58.1454C112.983 56.714 112.831 55.5043 112.528 54.5163C112.231 53.5227 111.801 52.7705 111.24 52.2597C110.684 51.7433 110.022 51.4851 109.253 51.4851C108.091 51.4851 107.179 52.0576 106.516 53.2028C105.854 54.3479 105.52 55.9955 105.514 58.1454C105.514 59.5825 105.663 60.7978 105.96 61.7914C106.264 62.7793 106.693 63.5287 107.249 64.0396C107.804 64.5448 108.472 64.7974 109.253 64.7974ZM124.559 67.0456C123.228 67.04 122.091 66.6891 121.148 65.993C120.205 65.297 119.484 64.2837 118.984 62.9534C118.485 61.623 118.235 60.0203 118.235 58.1454C118.235 56.2761 118.485 54.6791 118.984 53.3543C119.49 52.0296 120.214 51.0191 121.157 50.3231C122.105 49.627 123.239 49.279 124.559 49.279C125.878 49.279 127.009 49.6298 127.952 50.3315C128.895 51.0276 129.616 52.038 130.116 53.3628C130.621 54.6819 130.874 56.2761 130.874 58.1454C130.874 60.0259 130.624 61.6314 130.124 62.9618C129.625 64.2865 128.903 65.2998 127.96 66.0015C127.017 66.6975 125.883 67.0456 124.559 67.0456ZM124.559 64.7974C125.726 64.7974 126.638 64.2276 127.295 63.0881C127.957 61.9485 128.289 60.301 128.289 58.1454C128.289 56.714 128.137 55.5043 127.834 54.5163C127.536 53.5227 127.107 52.7705 126.546 52.2597C125.99 51.7433 125.328 51.4851 124.559 51.4851C123.397 51.4851 122.484 52.0576 121.822 53.2028C121.16 54.3479 120.826 55.9955 120.82 58.1454C120.82 59.5825 120.969 60.7978 121.266 61.7914C121.569 62.7793 121.999 63.5287 122.555 64.0396C123.11 64.5448 123.778 64.7974 124.559 64.7974ZM134.928 66.9193C134.468 66.9193 134.072 66.7565 133.741 66.4309C133.41 66.0997 133.244 65.7011 133.244 65.2352C133.244 64.7749 133.41 64.382 133.741 64.0564C134.072 63.7252 134.468 63.5596 134.928 63.5596C135.388 63.5596 135.784 63.7252 136.115 64.0564C136.446 64.382 136.612 64.7749 136.612 65.2352C136.612 65.544 136.533 65.8274 136.376 66.0857C136.225 66.3383 136.023 66.5404 135.77 66.6919C135.517 66.8435 135.237 66.9193 134.928 66.9193ZM145.329 67.0456C143.999 67.04 142.862 66.6891 141.919 65.993C140.976 65.297 140.254 64.2837 139.755 62.9534C139.255 61.623 139.005 60.0203 139.005 58.1454C139.005 56.2761 139.255 54.6791 139.755 53.3543C140.26 52.0296 140.984 51.0191 141.927 50.3231C142.876 49.627 144.01 49.279 145.329 49.279C146.648 49.279 147.779 49.6298 148.722 50.3315C149.665 51.0276 150.387 52.038 150.886 53.3628C151.392 54.6819 151.644 56.2761 151.644 58.1454C151.644 60.0259 151.394 61.6314 150.895 62.9618C150.395 64.2865 149.674 65.2998 148.731 66.0015C147.788 66.6975 146.654 67.0456 145.329 67.0456ZM145.329 64.7974C146.497 64.7974 147.409 64.2276 148.066 63.0881C148.728 61.9485 149.059 60.301 149.059 58.1454C149.059 56.714 148.908 55.5043 148.604 54.5163C148.307 53.5227 147.878 52.7705 147.316 52.2597C146.76 51.7433 146.098 51.4851 145.329 51.4851C144.167 51.4851 143.255 52.0576 142.592 53.2028C141.93 54.3479 141.596 55.9955 141.59 58.1454C141.59 59.5825 141.739 60.7978 142.037 61.7914C142.34 62.7793 142.769 63.5287 143.325 64.0396C143.881 64.5448 144.549 64.7974 145.329 64.7974ZM160.635 67.0456C159.304 67.04 158.168 66.6891 157.225 65.993C156.282 65.297 155.56 64.2837 155.061 62.9534C154.561 61.623 154.311 60.0203 154.311 58.1454C154.311 56.2761 154.561 54.6791 155.061 53.3543C155.566 52.0296 156.29 51.0191 157.233 50.3231C158.182 49.627 159.316 49.279 160.635 49.279C161.954 49.279 163.085 49.6298 164.028 50.3315C164.971 51.0276 165.693 52.038 166.192 53.3628C166.697 54.6819 166.95 56.2761 166.95 58.1454C166.95 60.0259 166.7 61.6314 166.201 62.9618C165.701 64.2865 164.98 65.2998 164.037 66.0015C163.094 66.6975 161.96 67.0456 160.635 67.0456ZM160.635 64.7974C161.802 64.7974 162.715 64.2276 163.371 63.0881C164.034 61.9485 164.365 60.301 164.365 58.1454C164.365 56.714 164.213 55.5043 163.91 54.5163C163.613 53.5227 163.183 52.7705 162.622 52.2597C162.066 51.7433 161.404 51.4851 160.635 51.4851C159.473 51.4851 158.561 52.0576 157.898 53.2028C157.236 54.3479 156.902 55.9955 156.896 58.1454C156.896 59.5825 157.045 60.7978 157.343 61.7914C157.646 62.7793 158.075 63.5287 158.631 64.0396C159.187 64.5448 159.855 64.7974 160.635 64.7974Z" fill="#0B0B0B"/>
<path d="M27.6717 123.397C27.5767 123.099 27.449 122.832 27.2885 122.596C27.1314 122.357 26.9431 122.154 26.7237 121.987C26.5043 121.817 26.2538 121.687 25.9722 121.599C25.6939 121.511 25.3877 121.466 25.0537 121.466C24.4872 121.466 23.9764 121.612 23.5212 121.903C23.0661 122.195 22.7059 122.622 22.4406 123.185C22.1787 123.745 22.0477 124.431 22.0477 125.244C22.0477 126.059 22.1803 126.748 22.4455 127.311C22.7108 127.875 23.0742 128.302 23.5359 128.593C23.9977 128.885 24.5232 129.03 25.1126 129.03C25.6595 129.03 26.1359 128.919 26.542 128.696C26.9513 128.474 27.2673 128.159 27.4899 127.753C27.7159 127.344 27.8288 126.863 27.8288 126.309L28.2218 126.383H25.3435V125.131H29.2975V126.275C29.2975 127.12 29.1174 127.853 28.7572 128.475C28.4002 129.094 27.9058 129.572 27.2738 129.91C26.6451 130.247 25.9247 130.416 25.1126 130.416C24.2023 130.416 23.4033 130.206 22.7157 129.787C22.0313 129.368 21.4976 128.773 21.1144 128.004C20.7313 127.231 20.5398 126.314 20.5398 125.253C20.5398 124.451 20.6511 123.731 20.8738 123.092C21.0964 122.454 21.4091 121.912 21.8119 121.466C22.218 121.018 22.6944 120.676 23.2412 120.44C23.7914 120.201 24.3922 120.081 25.0439 120.081C25.5874 120.081 26.0933 120.161 26.5616 120.322C27.0331 120.482 27.4523 120.71 27.819 121.005C28.189 121.299 28.4952 121.65 28.7375 122.056C28.9798 122.459 29.1436 122.906 29.2287 123.397H27.6717ZM31.2241 130.278V120.219H32.7418V128.972H37.3V130.278H31.2241ZM37.2251 121.525V120.219H45.0102V121.525H41.8716V130.278H40.3588V121.525H37.2251ZM46.7306 130.278V120.219H50.3162C51.0988 120.219 51.7471 120.361 52.2612 120.646C52.7753 120.931 53.1601 121.321 53.4155 121.815C53.6709 122.306 53.7986 122.86 53.7986 123.475C53.7986 124.094 53.6693 124.651 53.4106 125.145C53.1552 125.636 52.7688 126.026 52.2514 126.314C51.7373 126.599 51.0906 126.742 50.3113 126.742H47.8455V125.455H50.1737C50.6682 125.455 51.0693 125.37 51.3771 125.199C51.6849 125.026 51.9109 124.79 52.0549 124.492C52.199 124.194 52.2711 123.855 52.2711 123.475C52.2711 123.095 52.199 122.758 52.0549 122.463C51.9109 122.169 51.6833 121.938 51.3722 121.771C51.0644 121.604 50.6584 121.52 50.1541 121.52H48.2483V130.278H46.7306Z" fill="#6B7280"/>
<path d="M253.803 120.081C254.251 120.085 254.693 120.166 255.129 120.327C255.564 120.487 255.957 120.749 256.308 121.113C256.661 121.476 256.943 121.967 257.153 122.586C257.365 123.202 257.474 123.968 257.477 124.885C257.477 125.766 257.388 126.55 257.212 127.238C257.035 127.922 256.781 128.5 256.45 128.972C256.123 129.443 255.725 129.802 255.257 130.047C254.788 130.293 254.261 130.416 253.675 130.416C253.076 130.416 252.544 130.298 252.079 130.062C251.614 129.826 251.236 129.5 250.944 129.085C250.653 128.665 250.471 128.184 250.399 127.64H251.897C251.995 128.073 252.195 128.423 252.496 128.692C252.801 128.957 253.194 129.089 253.675 129.089C254.412 129.089 254.987 128.769 255.399 128.127C255.812 127.482 256.02 126.581 256.023 125.425H255.944C255.774 125.707 255.561 125.949 255.306 126.152C255.054 126.355 254.77 126.512 254.456 126.624C254.142 126.735 253.806 126.791 253.449 126.791C252.87 126.791 252.342 126.648 251.868 126.363C251.393 126.079 251.015 125.687 250.733 125.189C250.451 124.692 250.311 124.124 250.311 123.485C250.311 122.85 250.455 122.274 250.743 121.756C251.034 121.239 251.44 120.829 251.961 120.528C252.485 120.224 253.099 120.075 253.803 120.081ZM253.808 121.358C253.425 121.358 253.079 121.453 252.771 121.643C252.467 121.83 252.226 122.084 252.049 122.404C251.872 122.722 251.784 123.076 251.784 123.465C251.784 123.855 251.869 124.209 252.039 124.526C252.213 124.841 252.449 125.091 252.747 125.278C253.048 125.461 253.392 125.553 253.778 125.553C254.066 125.553 254.335 125.497 254.584 125.386C254.833 125.275 255.05 125.121 255.237 124.924C255.424 124.724 255.569 124.499 255.674 124.246C255.779 123.994 255.831 123.729 255.831 123.451C255.831 123.081 255.743 122.737 255.566 122.419C255.393 122.102 255.154 121.846 254.849 121.653C254.544 121.457 254.197 121.358 253.808 121.358ZM262.753 130.445C261.977 130.442 261.314 130.237 260.764 129.831C260.214 129.425 259.793 128.834 259.502 128.058C259.21 127.282 259.065 126.347 259.065 125.253C259.065 124.163 259.21 123.231 259.502 122.459C259.796 121.686 260.219 121.096 260.769 120.69C261.322 120.284 261.984 120.081 262.753 120.081C263.523 120.081 264.183 120.286 264.733 120.695C265.283 121.101 265.704 121.691 265.995 122.463C266.29 123.233 266.437 124.163 266.437 125.253C266.437 126.35 266.291 127.287 266 128.063C265.709 128.836 265.288 129.427 264.738 129.836C264.187 130.242 263.526 130.445 262.753 130.445ZM262.753 129.134C263.434 129.134 263.966 128.801 264.35 128.137C264.736 127.472 264.929 126.511 264.929 125.253C264.929 124.418 264.841 123.713 264.664 123.136C264.49 122.557 264.24 122.118 263.912 121.82C263.588 121.519 263.202 121.368 262.753 121.368C262.075 121.368 261.543 121.702 261.157 122.37C260.771 123.038 260.576 123.999 260.572 125.253C260.572 126.092 260.659 126.801 260.833 127.38C261.01 127.956 261.26 128.394 261.584 128.692C261.908 128.986 262.298 129.134 262.753 129.134ZM273.43 128.392V127.861C273.43 127.482 273.509 127.135 273.666 126.82C273.826 126.503 274.059 126.249 274.363 126.059C274.671 125.866 275.043 125.769 275.478 125.769C275.924 125.769 276.297 125.864 276.598 126.054C276.9 126.244 277.127 126.498 277.281 126.815C277.438 127.133 277.517 127.482 277.517 127.861V128.392C277.517 128.772 277.438 129.121 277.281 129.438C277.124 129.753 276.893 130.006 276.589 130.199C276.287 130.389 275.917 130.484 275.478 130.484C275.036 130.484 274.663 130.389 274.359 130.199C274.054 130.006 273.823 129.753 273.666 129.438C273.509 129.121 273.43 128.772 273.43 128.392ZM274.575 127.861V128.392C274.575 128.674 274.642 128.929 274.776 129.158C274.91 129.387 275.144 129.502 275.478 129.502C275.809 129.502 276.04 129.387 276.171 129.158C276.302 128.929 276.367 128.674 276.367 128.392V127.861C276.367 127.58 276.304 127.324 276.176 127.095C276.051 126.866 275.819 126.751 275.478 126.751C275.151 126.751 274.918 126.866 274.781 127.095C274.643 127.324 274.575 127.58 274.575 127.861ZM268.371 122.635V122.105C268.371 121.725 268.45 121.376 268.607 121.059C268.767 120.741 269 120.487 269.304 120.297C269.612 120.107 269.984 120.012 270.419 120.012C270.865 120.012 271.238 120.107 271.539 120.297C271.84 120.487 272.068 120.741 272.222 121.059C272.376 121.376 272.453 121.725 272.453 122.105V122.635C272.453 123.015 272.374 123.364 272.217 123.682C272.063 123.996 271.834 124.25 271.529 124.443C271.228 124.633 270.858 124.728 270.419 124.728C269.974 124.728 269.599 124.633 269.295 124.443C268.993 124.25 268.764 123.996 268.607 123.682C268.45 123.364 268.371 123.015 268.371 122.635ZM269.52 122.105V122.635C269.52 122.917 269.586 123.172 269.717 123.402C269.851 123.631 270.085 123.745 270.419 123.745C270.747 123.745 270.976 123.631 271.107 123.402C271.241 123.172 271.308 122.917 271.308 122.635V122.105C271.308 121.823 271.244 121.568 271.117 121.339C270.989 121.109 270.757 120.995 270.419 120.995C270.092 120.995 269.859 121.109 269.722 121.339C269.588 121.568 269.52 121.823 269.52 122.105ZM268.838 130.278L275.753 120.219H276.927L270.012 130.278H268.838Z" fill="#111827"/>
<path d="M27.6717 155.3C27.5767 155.003 27.449 154.736 27.2885 154.5C27.1314 154.261 26.9431 154.058 26.7237 153.891C26.5043 153.721 26.2538 153.591 25.9722 153.503C25.6939 153.414 25.3877 153.37 25.0537 153.37C24.4872 153.37 23.9764 153.516 23.5212 153.807C23.0661 154.099 22.7059 154.526 22.4406 155.089C22.1787 155.649 22.0477 156.335 22.0477 157.147C22.0477 157.963 22.1803 158.652 22.4455 159.215C22.7108 159.778 23.0742 160.206 23.5359 160.497C23.9977 160.789 24.5232 160.934 25.1126 160.934C25.6595 160.934 26.1359 160.823 26.542 160.6C26.9513 160.378 27.2673 160.063 27.4899 159.657C27.7159 159.248 27.8288 158.767 27.8288 158.213L28.2218 158.287H25.3435V157.034H29.2975V158.179C29.2975 159.024 29.1174 159.757 28.7572 160.379C28.4002 160.998 27.9058 161.476 27.2738 161.814C26.6451 162.151 25.9247 162.319 25.1126 162.319C24.2023 162.319 23.4033 162.11 22.7157 161.691C22.0313 161.272 21.4976 160.677 21.1144 159.908C20.7313 159.135 20.5398 158.218 20.5398 157.157C20.5398 156.355 20.6511 155.634 20.8738 154.996C21.0964 154.357 21.4091 153.815 21.8119 153.37C22.218 152.922 22.6944 152.579 23.2412 152.344C23.7914 152.105 24.3922 151.985 25.0439 151.985C25.5874 151.985 26.0933 152.065 26.5616 152.226C27.0331 152.386 27.4523 152.614 27.819 152.908C28.189 153.203 28.4952 153.554 28.7375 153.96C28.9798 154.362 29.1436 154.809 29.2287 155.3H27.6717ZM31.2241 162.182V152.123H32.7418V160.875H37.3V162.182H31.2241ZM37.2251 153.429V152.123H45.0102V153.429H41.8716V162.182H40.3588V153.429H37.2251ZM47.6098 152.123L50.4095 160.315H50.5225L53.3222 152.123H54.9627L51.3427 162.182H49.5892L45.9693 152.123H47.6098Z" fill="#6B7280"/>
<path d="M252.797 162.182L257.188 153.498V153.424H252.109V152.123H258.76V153.468L254.383 162.182H252.797ZM260.468 162.182V161.082L263.872 157.555C264.235 157.172 264.535 156.836 264.77 156.548C265.009 156.257 265.188 155.98 265.306 155.718C265.424 155.456 265.483 155.178 265.483 154.883C265.483 154.549 265.404 154.261 265.247 154.019C265.09 153.773 264.875 153.585 264.603 153.454C264.332 153.319 264.025 153.252 263.685 153.252C263.325 153.252 263.01 153.326 262.742 153.473C262.473 153.621 262.267 153.829 262.123 154.097C261.979 154.366 261.907 154.68 261.907 155.04H260.458C260.458 154.428 260.599 153.892 260.88 153.434C261.162 152.976 261.548 152.62 262.04 152.368C262.531 152.113 263.089 151.985 263.714 151.985C264.346 151.985 264.903 152.111 265.384 152.363C265.869 152.612 266.247 152.953 266.519 153.385C266.791 153.814 266.927 154.298 266.927 154.839C266.927 155.212 266.856 155.577 266.716 155.934C266.578 156.291 266.337 156.689 265.993 157.128C265.65 157.563 265.172 158.092 264.559 158.714L262.56 160.807V160.88H267.089V162.182H260.468ZM274.201 160.296V159.765C274.201 159.385 274.28 159.038 274.437 158.724C274.597 158.406 274.83 158.153 275.134 157.963C275.442 157.769 275.814 157.673 276.249 157.673C276.695 157.673 277.068 157.768 277.369 157.958C277.67 158.148 277.898 158.401 278.052 158.719C278.209 159.037 278.288 159.385 278.288 159.765V160.296C278.288 160.676 278.209 161.024 278.052 161.342C277.895 161.656 277.664 161.91 277.359 162.103C277.058 162.293 276.688 162.388 276.249 162.388C275.807 162.388 275.434 162.293 275.129 162.103C274.825 161.91 274.594 161.656 274.437 161.342C274.28 161.024 274.201 160.676 274.201 160.296ZM275.346 159.765V160.296C275.346 160.577 275.413 160.833 275.547 161.062C275.681 161.291 275.915 161.406 276.249 161.406C276.58 161.406 276.811 161.291 276.942 161.062C277.073 160.833 277.138 160.577 277.138 160.296V159.765C277.138 159.484 277.074 159.228 276.947 158.999C276.822 158.77 276.59 158.655 276.249 158.655C275.922 158.655 275.689 158.77 275.552 158.999C275.414 159.228 275.346 159.484 275.346 159.765ZM269.142 154.539V154.009C269.142 153.629 269.221 153.28 269.378 152.962C269.538 152.645 269.771 152.391 270.075 152.201C270.383 152.011 270.755 151.916 271.19 151.916C271.635 151.916 272.009 152.011 272.31 152.201C272.611 152.391 272.839 152.645 272.993 152.962C273.147 153.28 273.224 153.629 273.224 154.009V154.539C273.224 154.919 273.145 155.268 272.988 155.585C272.834 155.9 272.605 156.153 272.3 156.347C271.999 156.537 271.629 156.632 271.19 156.632C270.745 156.632 270.37 156.537 270.065 156.347C269.764 156.153 269.535 155.9 269.378 155.585C269.221 155.268 269.142 154.919 269.142 154.539ZM270.291 154.009V154.539C270.291 154.821 270.357 155.076 270.488 155.305C270.622 155.535 270.856 155.649 271.19 155.649C271.518 155.649 271.747 155.535 271.878 155.305C272.012 155.076 272.079 154.821 272.079 154.539V154.009C272.079 153.727 272.015 153.472 271.888 153.242C271.76 153.013 271.527 152.899 271.19 152.899C270.863 152.899 270.63 153.013 270.493 153.242C270.358 153.472 270.291 153.727 270.291 154.009ZM269.609 162.182L276.524 152.123H277.698L270.782 162.182H269.609Z" fill="#111827"/>
<path d="M27.6717 187.204C27.5767 186.906 27.449 186.639 27.2885 186.403C27.1314 186.164 26.9431 185.961 26.7237 185.794C26.5043 185.624 26.2538 185.495 25.9722 185.406C25.6939 185.318 25.3877 185.274 25.0537 185.274C24.4872 185.274 23.9764 185.419 23.5212 185.711C23.0661 186.002 22.7059 186.43 22.4406 186.993C22.1787 187.553 22.0477 188.239 22.0477 189.051C22.0477 189.866 22.1803 190.556 22.4455 191.119C22.7108 191.682 23.0742 192.109 23.5359 192.401C23.9977 192.692 24.5232 192.838 25.1126 192.838C25.6595 192.838 26.1359 192.727 26.542 192.504C26.9513 192.281 27.2673 191.967 27.4899 191.561C27.7159 191.151 27.8288 190.67 27.8288 190.117L28.2218 190.19H25.3435V188.938H29.2975V190.082C29.2975 190.927 29.1174 191.661 28.7572 192.283C28.4002 192.902 27.9058 193.38 27.2738 193.717C26.6451 194.054 25.9247 194.223 25.1126 194.223C24.2023 194.223 23.4033 194.013 22.7157 193.594C22.0313 193.175 21.4976 192.581 21.1144 191.811C20.7313 191.039 20.5398 190.122 20.5398 189.061C20.5398 188.258 20.6511 187.538 20.8738 186.9C21.0964 186.261 21.4091 185.719 21.8119 185.274C22.218 184.825 22.6944 184.483 23.2412 184.247C23.7914 184.008 24.3922 183.889 25.0439 183.889C25.5874 183.889 26.0933 183.969 26.5616 184.129C27.0331 184.29 27.4523 184.517 27.819 184.812C28.189 185.107 28.4952 185.457 28.7375 185.863C28.9798 186.266 29.1436 186.713 29.2287 187.204H27.6717ZM31.1062 194.085V186.541H32.5257V187.739H32.6043C32.7418 187.333 32.9842 187.014 33.3313 186.782C33.6816 186.546 34.0778 186.428 34.5199 186.428C34.6116 186.428 34.7196 186.431 34.8441 186.438C34.9718 186.444 35.0717 186.453 35.1437 186.462V187.867C35.0848 187.851 34.98 187.833 34.8293 187.813C34.6787 187.79 34.5281 187.779 34.3775 187.779C34.0304 187.779 33.7209 187.852 33.4491 188C33.1806 188.144 32.9678 188.345 32.8106 188.604C32.6534 188.859 32.5748 189.151 32.5748 189.478V194.085H31.1062ZM39.3224 194.238C38.6151 194.238 37.9978 194.076 37.4707 193.751C36.9435 193.427 36.5341 192.974 36.2427 192.391C35.9513 191.808 35.8056 191.127 35.8056 190.348C35.8056 189.565 35.9513 188.881 36.2427 188.294C36.5341 187.708 36.9435 187.253 37.4707 186.929C37.9978 186.605 38.6151 186.443 39.3224 186.443C40.0297 186.443 40.6469 186.605 41.1741 186.929C41.7013 187.253 42.1106 187.708 42.4021 188.294C42.6935 188.881 42.8392 189.565 42.8392 190.348C42.8392 191.127 42.6935 191.808 42.4021 192.391C42.1106 192.974 41.7013 193.427 41.1741 193.751C40.6469 194.076 40.0297 194.238 39.3224 194.238ZM39.3273 193.005C39.7857 193.005 40.1656 192.884 40.4668 192.641C40.7681 192.399 40.9908 192.077 41.1348 191.674C41.2822 191.271 41.3559 190.827 41.3559 190.343C41.3559 189.861 41.2822 189.419 41.1348 189.016C40.9908 188.61 40.7681 188.285 40.4668 188.039C40.1656 187.793 39.7857 187.671 39.3273 187.671C38.8656 187.671 38.4825 187.793 38.1779 188.039C37.8767 188.285 37.6524 188.61 37.505 189.016C37.361 189.419 37.2889 189.861 37.2889 190.343C37.2889 190.827 37.361 191.271 37.505 191.674C37.6524 192.077 37.8767 192.399 38.1779 192.641C38.4825 192.884 38.8656 193.005 39.3273 193.005ZM50.132 188.383L48.8009 188.619C48.7452 188.448 48.6568 188.286 48.5357 188.132C48.4178 187.978 48.2573 187.852 48.0543 187.754C47.8513 187.656 47.5975 187.607 47.293 187.607C46.8771 187.607 46.53 187.7 46.2517 187.887C45.9733 188.07 45.8342 188.308 45.8342 188.599C45.8342 188.851 45.9275 189.054 46.1141 189.208C46.3008 189.362 46.6021 189.488 47.0179 189.586L48.2164 189.861C48.9106 190.022 49.428 190.269 49.7685 190.603C50.1091 190.937 50.2793 191.371 50.2793 191.905C50.2793 192.357 50.1484 192.759 49.8864 193.113C49.6277 193.463 49.2659 193.738 48.8009 193.938C48.3392 194.138 47.8038 194.238 47.1947 194.238C46.3499 194.238 45.6606 194.058 45.1269 193.697C44.5931 193.334 44.2657 192.818 44.1445 192.15L45.564 191.934C45.6524 192.304 45.8342 192.584 46.1092 192.774C46.3843 192.961 46.7429 193.054 47.1849 193.054C47.6663 193.054 48.051 192.954 48.3392 192.754C48.6273 192.551 48.7714 192.304 48.7714 192.013C48.7714 191.777 48.683 191.579 48.5062 191.418C48.3326 191.258 48.0658 191.137 47.7056 191.055L46.4285 190.775C45.7245 190.614 45.2038 190.359 44.8666 190.009C44.5326 189.658 44.3656 189.215 44.3656 188.678C44.3656 188.232 44.49 187.843 44.7389 187.509C44.9877 187.175 45.3315 186.914 45.7703 186.728C46.2091 186.538 46.7117 186.443 47.2782 186.443C48.0936 186.443 48.7354 186.62 49.2037 186.973C49.6719 187.324 49.9814 187.793 50.132 188.383ZM57.5475 188.383L56.2164 188.619C56.1608 188.448 56.0724 188.286 55.9512 188.132C55.8333 187.978 55.6729 187.852 55.4699 187.754C55.2668 187.656 55.0131 187.607 54.7085 187.607C54.2927 187.607 53.9456 187.7 53.6672 187.887C53.3889 188.07 53.2497 188.308 53.2497 188.599C53.2497 188.851 53.3431 189.054 53.5297 189.208C53.7164 189.362 54.0176 189.488 54.4335 189.586L55.6319 189.861C56.3261 190.022 56.8435 190.269 57.1841 190.603C57.5246 190.937 57.6949 191.371 57.6949 191.905C57.6949 192.357 57.5639 192.759 57.3019 193.113C57.0433 193.463 56.6814 193.738 56.2164 193.938C55.7547 194.138 55.2194 194.238 54.6103 194.238C53.7655 194.238 53.0762 194.058 52.5424 193.697C52.0087 193.334 51.6812 192.818 51.5601 192.15L52.9796 191.934C53.068 192.304 53.2497 192.584 53.5248 192.774C53.7999 192.961 54.1584 193.054 54.6005 193.054C55.0818 193.054 55.4666 192.954 55.7547 192.754C56.0429 192.551 56.187 192.304 56.187 192.013C56.187 191.777 56.0986 191.579 55.9217 191.418C55.7482 191.258 55.4813 191.137 55.1211 191.055L53.8441 190.775C53.14 190.614 52.6194 190.359 52.2821 190.009C51.9481 189.658 51.7811 189.215 51.7811 188.678C51.7811 188.232 51.9055 187.843 52.1544 187.509C52.4033 187.175 52.7471 186.914 53.1859 186.728C53.6247 186.538 54.1273 186.443 54.6938 186.443C55.5091 186.443 56.151 186.62 56.6192 186.973C57.0875 187.324 57.3969 187.793 57.5475 188.383ZM64.4388 184.026V194.085H62.9701V184.026H64.4388ZM69.5924 194.238C68.8851 194.238 68.2679 194.076 67.7407 193.751C67.2135 193.427 66.8042 192.974 66.5128 192.391C66.2213 191.808 66.0756 191.127 66.0756 190.348C66.0756 189.565 66.2213 188.881 66.5128 188.294C66.8042 187.708 67.2135 187.253 67.7407 186.929C68.2679 186.605 68.8851 186.443 69.5924 186.443C70.2997 186.443 70.917 186.605 71.4442 186.929C71.9714 187.253 72.3807 187.708 72.6721 188.294C72.9636 188.881 73.1093 189.565 73.1093 190.348C73.1093 191.127 72.9636 191.808 72.6721 192.391C72.3807 192.974 71.9714 193.427 71.4442 193.751C70.917 194.076 70.2997 194.238 69.5924 194.238ZM69.5973 193.005C70.0558 193.005 70.4356 192.884 70.7369 192.641C71.0381 192.399 71.2608 192.077 71.4049 191.674C71.5522 191.271 71.6259 190.827 71.6259 190.343C71.6259 189.861 71.5522 189.419 71.4049 189.016C71.2608 188.61 71.0381 188.285 70.7369 188.039C70.4356 187.793 70.0558 187.671 69.5973 187.671C69.1356 187.671 68.7525 187.793 68.448 188.039C68.1467 188.285 67.9224 188.61 67.7751 189.016C67.631 189.419 67.559 189.861 67.559 190.343C67.559 190.827 67.631 191.271 67.7751 191.674C67.9224 192.077 68.1467 192.399 68.448 192.641C68.7525 192.884 69.1356 193.005 69.5973 193.005ZM76.9441 194.252C76.4661 194.252 76.0338 194.164 75.6474 193.987C75.261 193.807 74.9549 193.547 74.7289 193.206C74.5063 192.866 74.3949 192.448 74.3949 191.954C74.3949 191.528 74.4768 191.178 74.6405 190.903C74.8042 190.628 75.0253 190.41 75.3036 190.249C75.5819 190.089 75.893 189.968 76.2368 189.886C76.5807 189.804 76.931 189.742 77.288 189.699C77.7398 189.647 78.1066 189.604 78.3882 189.572C78.6698 189.536 78.8745 189.478 79.0022 189.4C79.1299 189.321 79.1937 189.193 79.1937 189.016V188.982C79.1937 188.553 79.0726 188.221 78.8303 187.985C78.5912 187.749 78.2343 187.631 77.7595 187.631C77.265 187.631 76.8754 187.741 76.5905 187.96C76.3089 188.177 76.114 188.417 76.006 188.682L74.6258 188.368C74.7895 187.91 75.0285 187.54 75.3429 187.258C75.6605 186.973 76.0256 186.767 76.4382 186.639C76.8508 186.508 77.2847 186.443 77.7398 186.443C78.0411 186.443 78.3604 186.479 78.6976 186.551C79.0382 186.62 79.3558 186.747 79.6505 186.934C79.9485 187.121 80.1925 187.387 80.3824 187.735C80.5723 188.078 80.6673 188.525 80.6673 189.075V194.085H79.233V193.054H79.1741C79.0791 193.244 78.9367 193.431 78.7468 193.614C78.5568 193.797 78.3129 193.95 78.0149 194.071C77.7169 194.192 77.36 194.252 76.9441 194.252ZM77.2634 193.074C77.6694 193.074 78.0165 192.993 78.3047 192.833C78.5961 192.672 78.8172 192.463 78.9678 192.204C79.1217 191.942 79.1986 191.662 79.1986 191.364V190.392C79.1463 190.444 79.0447 190.493 78.8941 190.539C78.7468 190.582 78.5781 190.619 78.3882 190.652C78.1983 190.682 78.0133 190.709 77.8332 190.736C77.6531 190.759 77.5024 190.778 77.3813 190.795C77.0964 190.831 76.8361 190.891 76.6003 190.976C76.3678 191.061 76.1812 191.184 76.0404 191.345C75.9028 191.502 75.8341 191.711 75.8341 191.973C75.8341 192.337 75.9683 192.612 76.2368 192.799C76.5054 192.982 76.8475 193.074 77.2634 193.074ZM84.092 189.606V194.085H82.6234V186.541H84.0331V187.769H84.1264C84.2999 187.369 84.5717 187.049 84.9417 186.806C85.315 186.564 85.7849 186.443 86.3514 186.443C86.8655 186.443 87.3158 186.551 87.7022 186.767C88.0885 186.98 88.3882 187.297 88.601 187.72C88.8139 188.142 88.9203 188.664 88.9203 189.287V194.085H87.4517V189.463C87.4517 188.917 87.3092 188.489 87.0243 188.181C86.7394 187.87 86.3481 187.715 85.8504 187.715C85.5099 187.715 85.207 187.789 84.9417 187.936C84.6798 188.083 84.4718 188.299 84.3179 188.584C84.1673 188.866 84.092 189.206 84.092 189.606Z" fill="#6B7280"/>
<path d="M200.295 194.085H193.419V192.779H200.295V194.085ZM198.232 190.146H193.384V188.84H198.232V190.146ZM195.85 187.003L196.007 191.242C196.027 191.664 195.973 192.042 195.845 192.376C195.717 192.707 195.486 192.97 195.152 193.167L193.895 192.779C194.072 192.769 194.208 192.679 194.303 192.509C194.398 192.338 194.461 192.139 194.494 191.91C194.527 191.677 194.54 191.467 194.534 191.281L194.391 187.003C194.365 186.315 194.493 185.74 194.774 185.279C195.059 184.817 195.437 184.47 195.909 184.237C196.38 184.005 196.888 183.889 197.431 183.889C197.916 183.889 198.352 183.969 198.738 184.129C199.128 184.29 199.455 184.509 199.72 184.787C199.989 185.063 200.18 185.377 200.295 185.731C200.41 186.084 200.433 186.456 200.364 186.845L198.944 186.62C198.977 186.299 198.926 186.032 198.792 185.819C198.658 185.606 198.473 185.446 198.237 185.338C198.001 185.23 197.751 185.175 197.486 185.175C197.207 185.175 196.942 185.241 196.69 185.372C196.441 185.503 196.238 185.703 196.081 185.971C195.927 186.24 195.85 186.584 195.85 187.003ZM205.875 194.223C205.2 194.223 204.598 194.107 204.067 193.874C203.54 193.642 203.123 193.319 202.815 192.907C202.51 192.491 202.347 192.009 202.324 191.463H203.866C203.886 191.761 203.985 192.019 204.166 192.239C204.349 192.455 204.588 192.622 204.883 192.74C205.177 192.858 205.505 192.916 205.865 192.916C206.261 192.916 206.612 192.848 206.916 192.71C207.224 192.573 207.465 192.381 207.638 192.135C207.812 191.887 207.898 191.6 207.898 191.276C207.898 190.939 207.812 190.642 207.638 190.387C207.468 190.128 207.217 189.925 206.887 189.778C206.559 189.63 206.163 189.557 205.698 189.557H204.848V188.319H205.698C206.071 188.319 206.399 188.252 206.68 188.118C206.965 187.983 207.188 187.797 207.348 187.558C207.509 187.315 207.589 187.032 207.589 186.708C207.589 186.397 207.519 186.127 207.378 185.898C207.24 185.665 207.044 185.483 206.788 185.352C206.536 185.221 206.238 185.156 205.894 185.156C205.567 185.156 205.261 185.216 204.976 185.338C204.694 185.455 204.465 185.626 204.288 185.848C204.111 186.068 204.017 186.331 204.003 186.639H202.535C202.551 186.096 202.712 185.618 203.016 185.205C203.324 184.792 203.73 184.47 204.234 184.237C204.739 184.005 205.299 183.889 205.914 183.889C206.559 183.889 207.116 184.015 207.584 184.267C208.056 184.516 208.419 184.848 208.675 185.264C208.933 185.68 209.061 186.135 209.058 186.629C209.061 187.193 208.904 187.671 208.586 188.064C208.272 188.457 207.853 188.72 207.329 188.854V188.933C207.997 189.035 208.514 189.3 208.881 189.729C209.251 190.158 209.434 190.69 209.431 191.325C209.434 191.878 209.28 192.375 208.969 192.813C208.661 193.252 208.241 193.598 207.707 193.85C207.173 194.099 206.562 194.223 205.875 194.223ZM214.8 194.223C214.351 194.216 213.909 194.135 213.473 193.977C213.041 193.82 212.648 193.558 212.295 193.192C211.941 192.825 211.658 192.332 211.445 191.713C211.235 191.094 211.13 190.321 211.13 189.395C211.13 188.517 211.217 187.738 211.391 187.057C211.568 186.376 211.821 185.801 212.152 185.333C212.483 184.861 212.882 184.503 213.351 184.257C213.819 184.011 214.344 183.889 214.927 183.889C215.526 183.889 216.059 184.006 216.524 184.242C216.989 184.478 217.365 184.804 217.653 185.22C217.945 185.636 218.13 186.109 218.208 186.639H216.71C216.609 186.22 216.407 185.878 216.106 185.613C215.805 185.347 215.412 185.215 214.927 185.215C214.19 185.215 213.616 185.536 213.203 186.177C212.794 186.819 212.588 187.712 212.584 188.854H212.658C212.832 188.57 213.044 188.327 213.297 188.127C213.552 187.924 213.837 187.769 214.151 187.661C214.469 187.55 214.803 187.494 215.153 187.494C215.736 187.494 216.263 187.636 216.735 187.921C217.21 188.203 217.588 188.592 217.869 189.09C218.151 189.588 218.292 190.158 218.292 190.799C218.292 191.441 218.146 192.023 217.855 192.543C217.566 193.064 217.16 193.476 216.637 193.781C216.113 194.082 215.5 194.23 214.8 194.223ZM214.795 192.946C215.181 192.946 215.526 192.851 215.831 192.661C216.136 192.471 216.376 192.216 216.553 191.895C216.73 191.574 216.818 191.215 216.818 190.819C216.818 190.433 216.731 190.081 216.558 189.763C216.388 189.445 216.152 189.193 215.851 189.007C215.553 188.82 215.212 188.727 214.829 188.727C214.538 188.727 214.267 188.782 214.019 188.894C213.773 189.005 213.557 189.159 213.37 189.355C213.184 189.552 213.036 189.778 212.928 190.033C212.823 190.285 212.771 190.552 212.771 190.834C212.771 191.21 212.858 191.559 213.031 191.88C213.208 192.201 213.449 192.46 213.753 192.656C214.061 192.849 214.408 192.946 214.795 192.946ZM223.583 194.252C222.807 194.249 222.144 194.045 221.594 193.638C221.044 193.232 220.623 192.641 220.331 191.865C220.04 191.089 219.894 190.154 219.894 189.061C219.894 187.97 220.04 187.039 220.331 186.266C220.626 185.493 221.049 184.904 221.599 184.498C222.152 184.092 222.813 183.889 223.583 183.889C224.353 183.889 225.012 184.093 225.562 184.503C226.113 184.909 226.533 185.498 226.825 186.271C227.119 187.04 227.267 187.97 227.267 189.061C227.267 190.158 227.121 191.094 226.83 191.87C226.538 192.643 226.117 193.234 225.567 193.643C225.017 194.049 224.356 194.252 223.583 194.252ZM223.583 192.941C224.264 192.941 224.796 192.609 225.179 191.944C225.566 191.279 225.759 190.318 225.759 189.061C225.759 188.226 225.671 187.52 225.494 186.944C225.32 186.364 225.07 185.925 224.742 185.627C224.418 185.326 224.032 185.175 223.583 185.175C222.905 185.175 222.373 185.509 221.987 186.177C221.6 186.845 221.405 187.807 221.402 189.061C221.402 189.899 221.489 190.608 221.662 191.188C221.839 191.764 222.09 192.201 222.414 192.499C222.738 192.794 223.128 192.941 223.583 192.941ZM230.575 192.71L230.501 193.246C230.452 193.638 230.369 194.048 230.251 194.473C230.136 194.902 230.017 195.3 229.892 195.667C229.771 196.034 229.671 196.325 229.593 196.541H228.551C228.594 196.338 228.653 196.063 228.728 195.716C228.803 195.372 228.877 194.988 228.949 194.562C229.021 194.136 229.075 193.702 229.111 193.26L229.16 192.71H230.575ZM235.767 194.252C234.991 194.249 234.328 194.045 233.777 193.638C233.227 193.232 232.806 192.641 232.515 191.865C232.224 191.089 232.078 190.154 232.078 189.061C232.078 187.97 232.224 187.039 232.515 186.266C232.81 185.493 233.232 184.904 233.782 184.498C234.336 184.092 234.997 183.889 235.767 183.889C236.536 183.889 237.196 184.093 237.746 184.503C238.296 184.909 238.717 185.498 239.008 186.271C239.303 187.04 239.45 187.97 239.45 189.061C239.45 190.158 239.305 191.094 239.013 191.87C238.722 192.643 238.301 193.234 237.751 193.643C237.201 194.049 236.539 194.252 235.767 194.252ZM235.767 192.941C236.448 192.941 236.98 192.609 237.363 191.944C237.749 191.279 237.943 190.318 237.943 189.061C237.943 188.226 237.854 187.52 237.677 186.944C237.504 186.364 237.253 185.925 236.926 185.627C236.602 185.326 236.215 185.175 235.767 185.175C235.089 185.175 234.557 185.509 234.17 186.177C233.784 186.845 233.589 187.807 233.586 189.061C233.586 189.899 233.673 190.608 233.846 191.188C234.023 191.764 234.273 192.201 234.598 192.499C234.922 192.794 235.312 192.941 235.767 192.941ZM244.695 194.252C243.919 194.249 243.256 194.045 242.706 193.638C242.156 193.232 241.735 192.641 241.443 191.865C241.152 191.089 241.006 190.154 241.006 189.061C241.006 187.97 241.152 187.039 241.443 186.266C241.738 185.493 242.161 184.904 242.711 184.498C243.264 184.092 243.926 183.889 244.695 183.889C245.465 183.889 246.124 184.093 246.674 184.503C247.225 184.909 247.645 185.498 247.937 186.271C248.232 187.04 248.379 187.97 248.379 189.061C248.379 190.158 248.233 191.094 247.942 191.87C247.65 192.643 247.23 193.234 246.679 193.643C246.129 194.049 245.468 194.252 244.695 194.252ZM244.695 192.941C245.376 192.941 245.908 192.609 246.291 191.944C246.678 191.279 246.871 190.318 246.871 189.061C246.871 188.226 246.783 187.52 246.606 186.944C246.432 186.364 246.182 185.925 245.854 185.627C245.53 185.326 245.144 185.175 244.695 185.175C244.017 185.175 243.485 185.509 243.099 186.177C242.712 186.845 242.517 187.807 242.514 189.061C242.514 189.899 242.601 190.608 242.775 191.188C242.951 191.764 243.202 192.201 243.526 192.499C243.85 192.794 244.24 192.941 244.695 192.941ZM253.623 194.252C252.847 194.249 252.184 194.045 251.634 193.638C251.084 193.232 250.663 192.641 250.372 191.865C250.08 191.089 249.935 190.154 249.935 189.061C249.935 187.97 250.08 187.039 250.372 186.266C250.667 185.493 251.089 184.904 251.639 184.498C252.192 184.092 252.854 183.889 253.623 183.889C254.393 183.889 255.053 184.093 255.603 184.503C256.153 184.909 256.574 185.498 256.865 186.271C257.16 187.04 257.307 187.97 257.307 189.061C257.307 190.158 257.162 191.094 256.87 191.87C256.579 192.643 256.158 193.234 255.608 193.643C255.058 194.049 254.396 194.252 253.623 194.252ZM253.623 192.941C254.305 192.941 254.837 192.609 255.22 191.944C255.606 191.279 255.799 190.318 255.799 189.061C255.799 188.226 255.711 187.52 255.534 186.944C255.361 186.364 255.11 185.925 254.783 185.627C254.458 185.326 254.072 185.175 253.623 185.175C252.946 185.175 252.413 185.509 252.027 186.177C251.641 186.845 251.446 187.807 251.443 189.061C251.443 189.899 251.529 190.608 251.703 191.188C251.88 191.764 252.13 192.201 252.454 192.499C252.779 192.794 253.168 192.941 253.623 192.941ZM259.672 194.179C259.404 194.179 259.173 194.084 258.98 193.894C258.787 193.701 258.69 193.468 258.69 193.196C258.69 192.928 258.787 192.699 258.98 192.509C259.173 192.316 259.404 192.219 259.672 192.219C259.941 192.219 260.172 192.316 260.365 192.509C260.558 192.699 260.655 192.928 260.655 193.196C260.655 193.377 260.609 193.542 260.517 193.693C260.429 193.84 260.311 193.958 260.163 194.046C260.016 194.135 259.852 194.179 259.672 194.179ZM265.74 194.252C264.963 194.249 264.3 194.045 263.75 193.638C263.2 193.232 262.779 192.641 262.488 191.865C262.197 191.089 262.051 190.154 262.051 189.061C262.051 187.97 262.197 187.039 262.488 186.266C262.783 185.493 263.205 184.904 263.755 184.498C264.309 184.092 264.97 183.889 265.74 183.889C266.509 183.889 267.169 184.093 267.719 184.503C268.269 184.909 268.69 185.498 268.981 186.271C269.276 187.04 269.423 187.97 269.423 189.061C269.423 190.158 269.278 191.094 268.986 191.87C268.695 192.643 268.274 193.234 267.724 193.643C267.174 194.049 266.512 194.252 265.74 194.252ZM265.74 192.941C266.421 192.941 266.953 192.609 267.336 191.944C267.722 191.279 267.915 190.318 267.915 189.061C267.915 188.226 267.827 187.52 267.65 186.944C267.477 186.364 267.226 185.925 266.899 185.627C266.575 185.326 266.188 185.175 265.74 185.175C265.062 185.175 264.53 185.509 264.143 186.177C263.757 186.845 263.562 187.807 263.559 189.061C263.559 189.899 263.645 190.608 263.819 191.188C263.996 191.764 264.246 192.201 264.571 192.499C264.895 192.794 265.284 192.941 265.74 192.941ZM274.668 194.252C273.892 194.249 273.229 194.045 272.679 193.638C272.129 193.232 271.708 192.641 271.416 191.865C271.125 191.089 270.979 190.154 270.979 189.061C270.979 187.97 271.125 187.039 271.416 186.266C271.711 185.493 272.133 184.904 272.684 184.498C273.237 184.092 273.898 183.889 274.668 183.889C275.437 183.889 276.097 184.093 276.647 184.503C277.197 184.909 277.618 185.498 277.91 186.271C278.204 187.04 278.352 187.97 278.352 189.061C278.352 190.158 278.206 191.094 277.915 191.87C277.623 192.643 277.202 193.234 276.652 193.643C276.102 194.049 275.441 194.252 274.668 194.252ZM274.668 192.941C275.349 192.941 275.881 192.609 276.264 191.944C276.651 191.279 276.844 190.318 276.844 189.061C276.844 188.226 276.755 187.52 276.579 186.944C276.405 186.364 276.155 185.925 275.827 185.627C275.503 185.326 275.117 185.175 274.668 185.175C273.99 185.175 273.458 185.509 273.072 186.177C272.685 186.845 272.49 187.807 272.487 189.061C272.487 189.899 272.574 190.608 272.747 191.188C272.924 191.764 273.175 192.201 273.499 192.499C273.823 192.794 274.213 192.941 274.668 192.941Z" fill="#111827"/>
<path d="M28.9831 215.93V225.989H27.5882L22.475 218.612H22.3817V225.989H20.8639V215.93H22.2687L27.3868 223.317H27.4801V215.93H28.9831ZM34.3308 226.142C33.5875 226.142 32.9473 225.983 32.4103 225.665C31.8765 225.344 31.464 224.894 31.1725 224.314C30.8844 223.731 30.7403 223.049 30.7403 222.266C30.7403 221.493 30.8844 220.812 31.1725 220.223C31.464 219.633 31.87 219.173 32.3906 218.843C32.9146 218.512 33.5269 218.347 34.2277 218.347C34.6533 218.347 35.0659 218.417 35.4654 218.558C35.8649 218.699 36.2235 218.92 36.5411 219.221C36.8587 219.522 37.1092 219.913 37.2926 220.395C37.476 220.873 37.5677 221.454 37.5677 222.138V222.659H31.5704V221.559H36.1285C36.1285 221.172 36.0499 220.83 35.8927 220.532C35.7356 220.231 35.5145 219.994 35.2297 219.82C34.948 219.647 34.6173 219.56 34.2375 219.56C33.8249 219.56 33.4647 219.661 33.1569 219.864C32.8524 220.064 32.6166 220.326 32.4496 220.65C32.2859 220.971 32.204 221.32 32.204 221.696V222.556C32.204 223.06 32.2924 223.489 32.4692 223.843C32.6493 224.196 32.8998 224.467 33.2207 224.653C33.5416 224.837 33.9166 224.928 34.3455 224.928C34.6239 224.928 34.8776 224.889 35.1069 224.81C35.3361 224.729 35.5342 224.607 35.7012 224.447C35.8682 224.287 35.9959 224.088 36.0843 223.853L37.4743 224.103C37.363 224.512 37.1633 224.871 36.8751 225.179C36.5902 225.483 36.2317 225.721 35.7994 225.891C35.3705 226.058 34.8809 226.142 34.3308 226.142ZM42.7189 218.445V219.624H38.5979V218.445H42.7189ZM39.7031 216.637H41.1717V223.774C41.1717 224.059 41.2142 224.273 41.2994 224.417C41.3845 224.558 41.4942 224.655 41.6285 224.707C41.766 224.756 41.915 224.781 42.0754 224.781C42.1933 224.781 42.2965 224.773 42.3849 224.756C42.4733 224.74 42.5421 224.727 42.5912 224.717L42.8564 225.93C42.7713 225.963 42.6501 225.996 42.4929 226.029C42.3358 226.065 42.1393 226.084 41.9035 226.087C41.5171 226.094 41.1569 226.025 40.8229 225.881C40.4889 225.737 40.2188 225.514 40.0125 225.213C39.8062 224.912 39.7031 224.534 39.7031 224.079V216.637ZM49.4726 215.93V225.989H48.004V215.93H49.4726ZM54.6263 226.142C53.919 226.142 53.3017 225.979 52.7745 225.655C52.2473 225.331 51.838 224.878 51.5466 224.295C51.2551 223.712 51.1094 223.031 51.1094 222.251C51.1094 221.469 51.2551 220.784 51.5466 220.198C51.838 219.612 52.2473 219.157 52.7745 218.833C53.3017 218.509 53.919 218.347 54.6263 218.347C55.3336 218.347 55.9508 218.509 56.478 218.833C57.0052 219.157 57.4145 219.612 57.7059 220.198C57.9974 220.784 58.1431 221.469 58.1431 222.251C58.1431 223.031 57.9974 223.712 57.7059 224.295C57.4145 224.878 57.0052 225.331 56.478 225.655C55.9508 225.979 55.3336 226.142 54.6263 226.142ZM54.6312 224.909C55.0896 224.909 55.4694 224.788 55.7707 224.545C56.072 224.303 56.2946 223.98 56.4387 223.578C56.5861 223.175 56.6597 222.731 56.6597 222.246C56.6597 221.765 56.5861 221.323 56.4387 220.92C56.2946 220.514 56.072 220.188 55.7707 219.943C55.4694 219.697 55.0896 219.574 54.6312 219.574C54.1695 219.574 53.7863 219.697 53.4818 219.943C53.1806 220.188 52.9563 220.514 52.8089 220.92C52.6648 221.323 52.5928 221.765 52.5928 222.246C52.5928 222.731 52.6648 223.175 52.8089 223.578C52.9563 223.98 53.1806 224.303 53.4818 224.545C53.7863 224.788 54.1695 224.909 54.6312 224.909ZM61.978 226.156C61.4999 226.156 61.0676 226.068 60.6812 225.891C60.2949 225.711 59.9887 225.451 59.7627 225.11C59.5401 224.77 59.4287 224.352 59.4287 223.858C59.4287 223.432 59.5106 223.081 59.6743 222.806C59.8381 222.531 60.0591 222.314 60.3374 222.153C60.6158 221.993 60.9268 221.872 61.2707 221.79C61.6145 221.708 61.9649 221.646 62.3218 221.603C62.7737 221.551 63.1404 221.508 63.422 221.475C63.7036 221.439 63.9083 221.382 64.036 221.303C64.1637 221.225 64.2275 221.097 64.2275 220.92V220.886C64.2275 220.457 64.1064 220.125 63.8641 219.889C63.625 219.653 63.2681 219.535 62.7933 219.535C62.2989 219.535 61.9092 219.645 61.6243 219.864C61.3427 220.08 61.1479 220.321 61.0398 220.586L59.6596 220.272C59.8233 219.814 60.0624 219.443 60.3767 219.162C60.6943 218.877 61.0595 218.671 61.472 218.543C61.8846 218.412 62.3185 218.347 62.7737 218.347C63.0749 218.347 63.3942 218.383 63.7315 218.455C64.072 218.523 64.3896 218.651 64.6843 218.838C64.9823 219.024 65.2263 219.291 65.4162 219.638C65.6061 219.982 65.7011 220.429 65.7011 220.979V225.989H64.2668V224.958H64.2079C64.1129 225.148 63.9705 225.334 63.7806 225.518C63.5907 225.701 63.3467 225.853 63.0487 225.975C62.7507 226.096 62.3938 226.156 61.978 226.156ZM62.2972 224.977C62.7033 224.977 63.0504 224.897 63.3385 224.737C63.6299 224.576 63.851 224.367 64.0016 224.108C64.1555 223.846 64.2325 223.566 64.2325 223.268V222.296C64.1801 222.348 64.0786 222.397 63.9279 222.443C63.7806 222.486 63.6119 222.523 63.422 222.556C63.2321 222.585 63.0471 222.613 62.867 222.639C62.6869 222.662 62.5363 222.682 62.4151 222.698C62.1302 222.734 61.8699 222.795 61.6341 222.88C61.4016 222.965 61.215 223.088 61.0742 223.248C60.9367 223.406 60.8679 223.615 60.8679 223.877C60.8679 224.241 61.0021 224.516 61.2707 224.702C61.5392 224.886 61.8814 224.977 62.2972 224.977ZM69.1258 221.51V225.989H67.6572V218.445H69.0669V219.673H69.1602C69.3337 219.273 69.6055 218.952 69.9756 218.71C70.3488 218.468 70.8187 218.347 71.3852 218.347C71.8993 218.347 72.3496 218.455 72.736 218.671C73.1224 218.884 73.422 219.201 73.6348 219.624C73.8477 220.046 73.9541 220.568 73.9541 221.19V225.989H72.4855V221.367C72.4855 220.82 72.343 220.393 72.0581 220.085C71.7733 219.774 71.382 219.619 70.8842 219.619C70.5437 219.619 70.2408 219.692 69.9756 219.84C69.7136 219.987 69.5057 220.203 69.3518 220.488C69.2011 220.77 69.1258 221.11 69.1258 221.51Z" fill="#6B7280"/>
<path d="M202.295 225.989H195.419V224.683H202.295V225.989ZM200.232 222.05H195.384V220.743H200.232V222.05ZM197.85 218.906L198.007 223.145C198.027 223.568 197.973 223.946 197.845 224.28C197.717 224.611 197.486 224.874 197.152 225.071L195.895 224.683C196.072 224.673 196.208 224.583 196.303 224.413C196.398 224.242 196.461 224.043 196.494 223.813C196.527 223.581 196.54 223.371 196.534 223.185L196.391 218.906C196.365 218.219 196.493 217.644 196.774 217.182C197.059 216.721 197.437 216.374 197.909 216.141C198.38 215.909 198.888 215.792 199.431 215.792C199.916 215.792 200.352 215.873 200.738 216.033C201.128 216.194 201.455 216.413 201.72 216.691C201.989 216.966 202.18 217.281 202.295 217.634C202.41 217.988 202.433 218.36 202.364 218.749L200.944 218.523C200.977 218.202 200.926 217.936 200.792 217.723C200.658 217.51 200.473 217.349 200.237 217.241C200.001 217.133 199.751 217.079 199.486 217.079C199.207 217.079 198.942 217.145 198.69 217.276C198.441 217.407 198.238 217.606 198.081 217.875C197.927 218.144 197.85 218.487 197.85 218.906ZM207.875 226.127C207.2 226.127 206.598 226.011 206.067 225.778C205.54 225.546 205.123 225.223 204.815 224.81C204.51 224.395 204.347 223.913 204.324 223.366H205.866C205.886 223.664 205.985 223.923 206.166 224.142C206.349 224.359 206.588 224.526 206.883 224.643C207.177 224.761 207.505 224.82 207.865 224.82C208.261 224.82 208.612 224.751 208.916 224.614C209.224 224.476 209.465 224.285 209.638 224.039C209.812 223.79 209.898 223.504 209.898 223.18C209.898 222.842 209.812 222.546 209.638 222.291C209.468 222.032 209.217 221.829 208.887 221.682C208.559 221.534 208.163 221.461 207.698 221.461H206.848V220.223H207.698C208.071 220.223 208.399 220.156 208.68 220.021C208.965 219.887 209.188 219.701 209.348 219.462C209.509 219.219 209.589 218.936 209.589 218.612C209.589 218.301 209.519 218.031 209.378 217.801C209.24 217.569 209.044 217.387 208.788 217.256C208.536 217.125 208.238 217.06 207.894 217.06C207.567 217.06 207.261 217.12 206.976 217.241C206.694 217.359 206.465 217.53 206.288 217.752C206.111 217.972 206.017 218.235 206.003 218.543H204.535C204.551 217.999 204.712 217.521 205.016 217.109C205.324 216.696 205.73 216.374 206.234 216.141C206.739 215.909 207.299 215.792 207.914 215.792C208.559 215.792 209.116 215.918 209.584 216.171C210.056 216.419 210.419 216.752 210.675 217.168C210.933 217.584 211.061 218.039 211.058 218.533C211.061 219.096 210.904 219.574 210.586 219.967C210.272 220.36 209.853 220.624 209.329 220.758V220.837C209.997 220.938 210.514 221.204 210.881 221.633C211.251 222.061 211.434 222.594 211.431 223.229C211.434 223.782 211.28 224.278 210.969 224.717C210.661 225.156 210.241 225.501 209.707 225.753C209.173 226.002 208.562 226.127 207.875 226.127ZM216.79 226.156C216.014 226.153 215.351 225.948 214.8 225.542C214.25 225.136 213.83 224.545 213.538 223.769C213.247 222.993 213.101 222.058 213.101 220.965C213.101 219.874 213.247 218.942 213.538 218.17C213.833 217.397 214.255 216.808 214.805 216.401C215.359 215.995 216.02 215.792 216.79 215.792C217.559 215.792 218.219 215.997 218.769 216.406C219.319 216.812 219.74 217.402 220.031 218.175C220.326 218.944 220.474 219.874 220.474 220.965C220.474 222.061 220.328 222.998 220.036 223.774C219.745 224.547 219.324 225.138 218.774 225.547C218.224 225.953 217.562 226.156 216.79 226.156ZM216.79 224.845C217.471 224.845 218.003 224.512 218.386 223.848C218.772 223.183 218.966 222.222 218.966 220.965C218.966 220.13 218.877 219.424 218.7 218.848C218.527 218.268 218.276 217.829 217.949 217.531C217.625 217.23 217.238 217.079 216.79 217.079C216.112 217.079 215.58 217.413 215.193 218.081C214.807 218.749 214.612 219.71 214.609 220.965C214.609 221.803 214.696 222.512 214.869 223.091C215.046 223.668 215.297 224.105 215.621 224.403C215.945 224.697 216.335 224.845 216.79 224.845ZM222.285 225.989L226.676 217.305V217.232H221.597V215.93H228.248V217.276L223.871 225.989H222.285ZM230.157 224.614L230.083 225.149C230.034 225.542 229.951 225.952 229.833 226.377C229.718 226.806 229.599 227.204 229.474 227.571C229.353 227.938 229.253 228.229 229.175 228.445H228.133C228.176 228.242 228.235 227.967 228.31 227.62C228.386 227.276 228.459 226.891 228.531 226.466C228.603 226.04 228.657 225.606 228.693 225.164L228.743 224.614H230.157ZM235.349 226.127C234.674 226.127 234.072 226.011 233.541 225.778C233.014 225.546 232.597 225.223 232.289 224.81C231.984 224.395 231.821 223.913 231.798 223.366H233.34C233.36 223.664 233.459 223.923 233.64 224.142C233.823 224.359 234.062 224.526 234.357 224.643C234.651 224.761 234.979 224.82 235.339 224.82C235.735 224.82 236.086 224.751 236.39 224.614C236.698 224.476 236.939 224.285 237.112 224.039C237.286 223.79 237.372 223.504 237.372 223.18C237.372 222.842 237.286 222.546 237.112 222.291C236.942 222.032 236.691 221.829 236.361 221.682C236.033 221.534 235.637 221.461 235.172 221.461H234.322V220.223H235.172C235.545 220.223 235.873 220.156 236.154 220.021C236.439 219.887 236.662 219.701 236.822 219.462C236.983 219.219 237.063 218.936 237.063 218.612C237.063 218.301 236.993 218.031 236.852 217.801C236.714 217.569 236.518 217.387 236.262 217.256C236.01 217.125 235.712 217.06 235.368 217.06C235.041 217.06 234.735 217.12 234.45 217.241C234.168 217.359 233.939 217.53 233.762 217.752C233.586 217.972 233.491 218.235 233.477 218.543H232.009C232.025 217.999 232.186 217.521 232.49 217.109C232.798 216.696 233.204 216.374 233.708 216.141C234.213 215.909 234.773 215.792 235.388 215.792C236.033 215.792 236.59 215.918 237.058 216.171C237.53 216.419 237.893 216.752 238.149 217.168C238.407 217.584 238.535 218.039 238.532 218.533C238.535 219.096 238.378 219.574 238.06 219.967C237.746 220.36 237.327 220.624 236.803 220.758V220.837C237.471 220.938 237.988 221.204 238.355 221.633C238.725 222.061 238.908 222.594 238.905 223.229C238.908 223.782 238.754 224.278 238.443 224.717C238.135 225.156 237.715 225.501 237.181 225.753C236.647 226.002 236.036 226.127 235.349 226.127ZM244.264 226.156C243.488 226.153 242.825 225.948 242.274 225.542C241.724 225.136 241.304 224.545 241.012 223.769C240.721 222.993 240.575 222.058 240.575 220.965C240.575 219.874 240.721 218.942 241.012 218.17C241.307 217.397 241.729 216.808 242.279 216.401C242.833 215.995 243.494 215.792 244.264 215.792C245.033 215.792 245.693 215.997 246.243 216.406C246.793 216.812 247.214 217.402 247.505 218.175C247.8 218.944 247.948 219.874 247.948 220.965C247.948 222.061 247.802 222.998 247.51 223.774C247.219 224.547 246.798 225.138 246.248 225.547C245.698 225.953 245.037 226.156 244.264 226.156ZM244.264 224.845C244.945 224.845 245.477 224.512 245.86 223.848C246.246 223.183 246.44 222.222 246.44 220.965C246.44 220.13 246.351 219.424 246.174 218.848C246.001 218.268 245.75 217.829 245.423 217.531C245.099 217.23 244.712 217.079 244.264 217.079C243.586 217.079 243.054 217.413 242.667 218.081C242.281 218.749 242.086 219.71 242.083 220.965C242.083 221.803 242.17 222.512 242.343 223.091C242.52 223.668 242.771 224.105 243.095 224.403C243.419 224.697 243.809 224.845 244.264 224.845ZM253.192 226.156C252.416 226.153 251.753 225.948 251.203 225.542C250.653 225.136 250.232 224.545 249.94 223.769C249.649 222.993 249.503 222.058 249.503 220.965C249.503 219.874 249.649 218.942 249.94 218.17C250.235 217.397 250.658 216.808 251.208 216.401C251.761 215.995 252.423 215.792 253.192 215.792C253.962 215.792 254.621 215.997 255.172 216.406C255.722 216.812 256.142 217.402 256.434 218.175C256.729 218.944 256.876 219.874 256.876 220.965C256.876 222.061 256.73 222.998 256.439 223.774C256.147 224.547 255.727 225.138 255.176 225.547C254.626 225.953 253.965 226.156 253.192 226.156ZM253.192 224.845C253.873 224.845 254.405 224.512 254.788 223.848C255.175 223.183 255.368 222.222 255.368 220.965C255.368 220.13 255.28 219.424 255.103 218.848C254.929 218.268 254.679 217.829 254.351 217.531C254.027 217.23 253.641 217.079 253.192 217.079C252.514 217.079 251.982 217.413 251.596 218.081C251.209 218.749 251.015 219.71 251.011 220.965C251.011 221.803 251.098 222.512 251.272 223.091C251.448 223.668 251.699 224.105 252.023 224.403C252.347 224.697 252.737 224.845 253.192 224.845ZM259.241 226.083C258.972 226.083 258.742 225.988 258.548 225.798C258.355 225.605 258.259 225.372 258.259 225.1C258.259 224.832 258.355 224.602 258.548 224.413C258.742 224.219 258.972 224.123 259.241 224.123C259.509 224.123 259.74 224.219 259.934 224.413C260.127 224.602 260.223 224.832 260.223 225.1C260.223 225.28 260.177 225.446 260.086 225.596C259.997 225.744 259.879 225.862 259.732 225.95C259.585 226.038 259.421 226.083 259.241 226.083ZM265.308 226.156C264.532 226.153 263.869 225.948 263.319 225.542C262.769 225.136 262.348 224.545 262.057 223.769C261.765 222.993 261.619 222.058 261.619 220.965C261.619 219.874 261.765 218.942 262.057 218.17C262.351 217.397 262.774 216.808 263.324 216.401C263.877 215.995 264.539 215.792 265.308 215.792C266.078 215.792 266.738 215.997 267.288 216.406C267.838 216.812 268.259 217.402 268.55 218.175C268.845 218.944 268.992 219.874 268.992 220.965C268.992 222.061 268.846 222.998 268.555 223.774C268.263 224.547 267.843 225.138 267.293 225.547C266.742 225.953 266.081 226.156 265.308 226.156ZM265.308 224.845C265.989 224.845 266.521 224.512 266.905 223.848C267.291 223.183 267.484 222.222 267.484 220.965C267.484 220.13 267.396 219.424 267.219 218.848C267.045 218.268 266.795 217.829 266.467 217.531C266.143 217.23 265.757 217.079 265.308 217.079C264.63 217.079 264.098 217.413 263.712 218.081C263.325 218.749 263.131 219.71 263.127 220.965C263.127 221.803 263.214 222.512 263.388 223.091C263.565 223.668 263.815 224.105 264.139 224.403C264.463 224.697 264.853 224.845 265.308 224.845ZM274.237 226.156C273.461 226.153 272.797 225.948 272.247 225.542C271.697 225.136 271.276 224.545 270.985 223.769C270.694 222.993 270.548 222.058 270.548 220.965C270.548 219.874 270.694 218.942 270.985 218.17C271.28 217.397 271.702 216.808 272.252 216.401C272.806 215.995 273.467 215.792 274.237 215.792C275.006 215.792 275.666 215.997 276.216 216.406C276.766 216.812 277.187 217.402 277.478 218.175C277.773 218.944 277.92 219.874 277.92 220.965C277.92 222.061 277.775 222.998 277.483 223.774C277.192 224.547 276.771 225.138 276.221 225.547C275.671 225.953 275.009 226.156 274.237 226.156ZM274.237 224.845C274.918 224.845 275.45 224.512 275.833 223.848C276.219 223.183 276.413 222.222 276.413 220.965C276.413 220.13 276.324 219.424 276.147 218.848C275.974 218.268 275.723 217.829 275.396 217.531C275.072 217.23 274.685 217.079 274.237 217.079C273.559 217.079 273.027 217.413 272.64 218.081C272.254 218.749 272.059 219.71 272.056 220.965C272.056 221.803 272.143 222.512 272.316 223.091C272.493 223.668 272.743 224.105 273.068 224.403C273.392 224.697 273.781 224.845 274.237 224.845Z" fill="#111827"/>
</svg>
