<svg width="372" height="108" viewBox="0 0 372 108" fill="none" xmlns="http://www.w3.org/2000/svg">
<rect width="372" height="107.667" fill="white"/>
<path d="M32.583 43.9168C32.583 37.6576 37.6571 32.5835 43.9163 32.5835H328.083C334.342 32.5835 339.416 37.6576 339.416 43.9168V63.7502C339.416 70.0094 334.342 75.0835 328.083 75.0835H43.9164C37.6571 75.0835 32.583 70.0094 32.583 63.7502V43.9168Z" fill="#0073DE"/>
<path d="M149.216 50.0911H151.366L153.635 55.629H153.732L156.002 50.0911H158.151V58.3335H156.461V52.9687H156.392L154.259 58.2932H153.108L150.975 52.9486H150.907V58.3335H149.216V50.0911ZM161.317 58.4502C160.923 58.4502 160.572 58.3818 160.263 58.245C159.954 58.1054 159.71 57.9002 159.53 57.6292C159.353 57.3555 159.265 57.0148 159.265 56.6069C159.265 56.2635 159.328 55.9751 159.454 55.7416C159.58 55.5082 159.752 55.3204 159.969 55.1782C160.186 55.036 160.433 54.9287 160.71 54.8562C160.989 54.7838 161.281 54.7328 161.587 54.7033C161.947 54.6657 162.236 54.6308 162.456 54.5986C162.676 54.5638 162.836 54.5128 162.935 54.4457C163.035 54.3786 163.084 54.2794 163.084 54.1479V54.1237C163.084 53.8688 163.004 53.6716 162.843 53.5321C162.684 53.3926 162.459 53.3228 162.167 53.3228C161.858 53.3228 161.613 53.3913 161.43 53.5281C161.248 53.6623 161.127 53.8313 161.068 54.0352L159.482 53.9064C159.563 53.5308 159.721 53.2061 159.957 52.9325C160.193 52.6561 160.498 52.4441 160.871 52.2966C161.246 52.1463 161.681 52.0712 162.175 52.0712C162.518 52.0712 162.847 52.1114 163.161 52.1919C163.477 52.2724 163.758 52.3972 164.002 52.5662C164.249 52.7352 164.443 52.9526 164.585 53.2182C164.728 53.4811 164.799 53.7964 164.799 54.164V58.3335H163.173V57.4763H163.124C163.025 57.6694 162.892 57.8398 162.726 57.9874C162.56 58.1323 162.36 58.2463 162.126 58.3295C161.893 58.41 161.623 58.4502 161.317 58.4502ZM161.808 57.267C162.061 57.267 162.283 57.2173 162.477 57.1181C162.67 57.0161 162.821 56.8793 162.931 56.7075C163.041 56.5358 163.096 56.3413 163.096 56.124V55.468C163.043 55.5028 162.969 55.535 162.875 55.5646C162.784 55.5914 162.68 55.6169 162.565 55.641C162.45 55.6625 162.334 55.6826 162.219 55.7014C162.104 55.7175 161.999 55.7322 161.905 55.7457C161.704 55.7752 161.528 55.8221 161.378 55.8865C161.228 55.9509 161.111 56.0381 161.028 56.1481C160.944 56.2554 160.903 56.3896 160.903 56.5506C160.903 56.784 160.987 56.9624 161.156 57.0859C161.328 57.2066 161.545 57.267 161.808 57.267ZM167.843 54.7596V58.3335H166.129V52.1517H167.763V53.2424H167.835C167.972 52.8828 168.202 52.5984 168.523 52.3891C168.845 52.1772 169.236 52.0712 169.695 52.0712C170.124 52.0712 170.498 52.1651 170.818 52.3529C171.137 52.5407 171.385 52.809 171.562 53.1578C171.739 53.504 171.828 53.9171 171.828 54.3974V58.3335H170.113V54.7033C170.116 54.325 170.019 54.0298 169.823 53.8179C169.628 53.6032 169.358 53.4959 169.014 53.4959C168.784 53.4959 168.58 53.5455 168.403 53.6448C168.228 53.7441 168.092 53.889 167.992 54.0795C167.896 54.2673 167.846 54.494 167.843 54.7596ZM174.942 58.4502C174.547 58.4502 174.196 58.3818 173.887 58.245C173.579 58.1054 173.335 57.9002 173.155 57.6292C172.978 57.3555 172.889 57.0148 172.889 56.6069C172.889 56.2635 172.952 55.9751 173.078 55.7416C173.204 55.5082 173.376 55.3204 173.594 55.1782C173.811 55.036 174.058 54.9287 174.334 54.8562C174.613 54.7838 174.906 54.7328 175.211 54.7033C175.571 54.6657 175.861 54.6308 176.081 54.5986C176.301 54.5638 176.46 54.5128 176.56 54.4457C176.659 54.3786 176.709 54.2794 176.709 54.1479V54.1237C176.709 53.8688 176.628 53.6716 176.467 53.5321C176.309 53.3926 176.083 53.3228 175.791 53.3228C175.482 53.3228 175.237 53.3913 175.054 53.5281C174.872 53.6623 174.751 53.8313 174.692 54.0352L173.107 53.9064C173.187 53.5308 173.345 53.2061 173.581 52.9325C173.818 52.6561 174.122 52.4441 174.495 52.2966C174.871 52.1463 175.305 52.0712 175.799 52.0712C176.142 52.0712 176.471 52.1114 176.785 52.1919C177.102 52.2724 177.382 52.3972 177.626 52.5662C177.873 52.7352 178.068 52.9526 178.21 53.2182C178.352 53.4811 178.423 53.7964 178.423 54.164V58.3335H176.797V57.4763H176.749C176.65 57.6694 176.517 57.8398 176.35 57.9874C176.184 58.1323 175.984 58.2463 175.751 58.3295C175.517 58.41 175.248 58.4502 174.942 58.4502ZM175.433 57.267C175.685 57.267 175.908 57.2173 176.101 57.1181C176.294 57.0161 176.446 56.8793 176.556 56.7075C176.666 56.5358 176.721 56.3413 176.721 56.124V55.468C176.667 55.5028 176.593 55.535 176.499 55.5646C176.408 55.5914 176.305 55.6169 176.189 55.641C176.074 55.6625 175.959 55.6826 175.843 55.7014C175.728 55.7175 175.623 55.7322 175.529 55.7457C175.328 55.7752 175.152 55.8221 175.002 55.8865C174.852 55.9509 174.735 56.0381 174.652 56.1481C174.569 56.2554 174.527 56.3896 174.527 56.5506C174.527 56.784 174.612 56.9624 174.781 57.0859C174.952 57.2066 175.17 57.267 175.433 57.267ZM182.538 60.7805C181.983 60.7805 181.507 60.704 181.109 60.5511C180.715 60.4008 180.401 60.1956 180.168 59.9353C179.934 59.675 179.783 59.3826 179.713 59.0579L181.299 58.8446C181.347 58.968 181.423 59.0834 181.528 59.1907C181.633 59.2981 181.771 59.3839 181.943 59.4483C182.117 59.5154 182.329 59.5489 182.578 59.5489C182.951 59.5489 183.259 59.4577 183.5 59.2753C183.744 59.0955 183.866 58.7936 183.866 58.3697V57.2388H183.794C183.719 57.4105 183.606 57.5728 183.456 57.7258C183.306 57.8787 183.112 58.0035 182.876 58.1001C182.64 58.1967 182.358 58.245 182.031 58.245C181.567 58.245 181.144 58.1376 180.763 57.923C180.385 57.7057 180.083 57.3743 179.858 56.9289C179.635 56.4808 179.524 55.9147 179.524 55.2305C179.524 54.5302 179.638 53.9453 179.866 53.4758C180.094 53.0062 180.397 52.6548 180.775 52.4213C181.156 52.1879 181.574 52.0712 182.027 52.0712C182.373 52.0712 182.663 52.1302 182.896 52.2483C183.13 52.3636 183.318 52.5085 183.46 52.6829C183.605 52.8546 183.716 53.0237 183.794 53.19H183.858V52.1517H185.561V58.3939C185.561 58.9197 185.432 59.3598 185.174 59.7139C184.917 60.0681 184.56 60.3337 184.104 60.5108C183.65 60.6906 183.129 60.7805 182.538 60.7805ZM182.574 56.9571C182.851 56.9571 183.084 56.8887 183.275 56.7518C183.468 56.6123 183.615 56.4138 183.717 56.1562C183.822 55.8959 183.874 55.5847 183.874 55.2225C183.874 54.8602 183.823 54.5463 183.721 54.2807C183.62 54.0124 183.472 53.8045 183.279 53.6569C183.086 53.5093 182.851 53.4355 182.574 53.4355C182.293 53.4355 182.055 53.512 181.862 53.6649C181.669 53.8152 181.523 54.0245 181.423 54.2928C181.324 54.5611 181.275 54.871 181.275 55.2225C181.275 55.5793 181.324 55.8879 181.423 56.1481C181.525 56.4057 181.672 56.6056 181.862 56.7478C182.055 56.8873 182.293 56.9571 182.574 56.9571ZM189.742 58.4542C189.106 58.4542 188.559 58.3254 188.1 58.0679C187.644 57.8076 187.293 57.44 187.046 56.9651C186.799 56.4875 186.676 55.9227 186.676 55.2708C186.676 54.6349 186.799 54.0768 187.046 53.5965C187.293 53.1162 187.64 52.742 188.088 52.4736C188.539 52.2053 189.068 52.0712 189.674 52.0712C190.082 52.0712 190.461 52.1369 190.813 52.2684C191.167 52.3972 191.476 52.5917 191.739 52.852C192.004 53.1122 192.211 53.4396 192.358 53.834C192.506 54.2257 192.58 54.6845 192.58 55.2104V55.6813H187.36V54.6188H190.966C190.966 54.3719 190.912 54.1533 190.805 53.9628C190.697 53.7723 190.549 53.6233 190.358 53.516C190.17 53.406 189.952 53.351 189.702 53.351C189.442 53.351 189.211 53.4114 189.01 53.5321C188.811 53.6502 188.656 53.8098 188.543 54.0111C188.43 54.2096 188.373 54.431 188.37 54.6751V55.6853C188.37 55.9912 188.426 56.2554 188.539 56.4781C188.654 56.7008 188.817 56.8726 189.026 56.9933C189.235 57.114 189.483 57.1744 189.77 57.1744C189.961 57.1744 190.135 57.1476 190.294 57.0939C190.452 57.0403 190.587 56.9598 190.7 56.8524C190.813 56.7451 190.899 56.6136 190.958 56.458L192.543 56.5627C192.463 56.9437 192.298 57.2764 192.048 57.5608C191.802 57.8425 191.482 58.0625 191.091 58.2208C190.702 58.3764 190.252 58.4542 189.742 58.4542ZM196.354 58.3335V50.0911H198.096V56.8967H201.63V58.3335H196.354ZM205.545 58.4542C204.92 58.4542 204.379 58.3214 203.923 58.0558C203.47 57.7875 203.119 57.4145 202.873 56.937C202.626 56.4567 202.502 55.8999 202.502 55.2667C202.502 54.6282 202.626 54.0701 202.873 53.5925C203.119 53.1122 203.47 52.7393 203.923 52.4736C204.379 52.2053 204.92 52.0712 205.545 52.0712C206.17 52.0712 206.709 52.2053 207.163 52.4736C207.619 52.7393 207.97 53.1122 208.217 53.5925C208.464 54.0701 208.588 54.6282 208.588 55.2667C208.588 55.8999 208.464 56.4567 208.217 56.937C207.97 57.4145 207.619 57.7875 207.163 58.0558C206.709 58.3214 206.17 58.4542 205.545 58.4542ZM205.553 57.1261C205.837 57.1261 206.075 57.0456 206.265 56.8846C206.456 56.721 206.599 56.4983 206.696 56.2165C206.795 55.9348 206.845 55.6142 206.845 55.2547C206.845 54.8951 206.795 54.5745 206.696 54.2928C206.599 54.0111 206.456 53.7884 206.265 53.6247C206.075 53.461 205.837 53.3792 205.553 53.3792C205.266 53.3792 205.024 53.461 204.829 53.6247C204.635 53.7884 204.489 54.0111 204.39 54.2928C204.293 54.5745 204.245 54.8951 204.245 55.2547C204.245 55.6142 204.293 55.9348 204.39 56.2165C204.489 56.4983 204.635 56.721 204.829 56.8846C205.024 57.0456 205.266 57.1261 205.553 57.1261ZM211.465 58.4502C211.071 58.4502 210.719 58.3818 210.411 58.245C210.102 58.1054 209.858 57.9002 209.678 57.6292C209.501 57.3555 209.413 57.0148 209.413 56.6069C209.413 56.2635 209.476 55.9751 209.602 55.7416C209.728 55.5082 209.9 55.3204 210.117 55.1782C210.334 55.036 210.581 54.9287 210.857 54.8562C211.137 54.7838 211.429 54.7328 211.735 54.7033C212.094 54.6657 212.384 54.6308 212.604 54.5986C212.824 54.5638 212.984 54.5128 213.083 54.4457C213.182 54.3786 213.232 54.2794 213.232 54.1479V54.1237C213.232 53.8688 213.152 53.6716 212.991 53.5321C212.832 53.3926 212.607 53.3228 212.314 53.3228C212.006 53.3228 211.76 53.3913 211.578 53.5281C211.395 53.6623 211.275 53.8313 211.216 54.0352L209.63 53.9064C209.71 53.5308 209.869 53.2061 210.105 52.9325C210.341 52.6561 210.646 52.4441 211.018 52.2966C211.394 52.1463 211.829 52.0712 212.322 52.0712C212.666 52.0712 212.995 52.1114 213.308 52.1919C213.625 52.2724 213.905 52.3972 214.15 52.5662C214.396 52.7352 214.591 52.9526 214.733 53.2182C214.875 53.4811 214.946 53.7964 214.946 54.164V58.3335H213.321V57.4763H213.272C213.173 57.6694 213.04 57.8398 212.874 57.9874C212.707 58.1323 212.508 58.2463 212.274 58.3295C212.041 58.41 211.771 58.4502 211.465 58.4502ZM211.956 57.267C212.208 57.267 212.431 57.2173 212.624 57.1181C212.817 57.0161 212.969 56.8793 213.079 56.7075C213.189 56.5358 213.244 56.3413 213.244 56.124V55.468C213.19 55.5028 213.117 55.535 213.023 55.5646C212.932 55.5914 212.828 55.6169 212.713 55.641C212.597 55.6625 212.482 55.6826 212.367 55.7014C212.251 55.7175 212.147 55.7322 212.053 55.7457C211.852 55.7752 211.676 55.8221 211.526 55.8865C211.375 55.9509 211.259 56.0381 211.175 56.1481C211.092 56.2554 211.051 56.3896 211.051 56.5506C211.051 56.784 211.135 56.9624 211.304 57.0859C211.476 57.2066 211.693 57.267 211.956 57.267ZM217.991 54.7596V58.3335H216.277V52.1517H217.911V53.2424H217.983C218.12 52.8828 218.349 52.5984 218.671 52.3891C218.993 52.1772 219.384 52.0712 219.842 52.0712C220.272 52.0712 220.646 52.1651 220.965 52.3529C221.285 52.5407 221.533 52.809 221.71 53.1578C221.887 53.504 221.975 53.9171 221.975 54.3974V58.3335H220.261V54.7033C220.264 54.325 220.167 54.0298 219.971 53.8179C219.775 53.6032 219.506 53.4959 219.162 53.4959C218.932 53.4959 218.728 53.5455 218.551 53.6448C218.376 53.7441 218.239 53.889 218.14 54.0795C218.043 54.2673 217.994 54.494 217.991 54.7596Z" fill="white"/>
</svg>
