<svg width="504" height="196" viewBox="0 0 504 196" fill="none" xmlns="http://www.w3.org/2000/svg">
<g clip-path="url(#clip0_55128_16824)">
<rect width="504" height="196" fill="white"/>
<mask id="path-1-inside-1_55128_16824" fill="white">
<path d="M0 0H504V196H0V0Z"/>
</mask>
<path d="M504 196V195H0V196V197H504V196Z" fill="#E9EEF4" mask="url(#path-1-inside-1_55128_16824)"/>
<g clip-path="url(#clip1_55128_16824)">
<path d="M19.998 30.0002C19.998 32.122 20.8409 34.1568 22.3412 35.6571C23.8415 37.1574 25.8763 38.0002 27.998 38.0002C30.1198 38.0002 32.1546 37.1574 33.6549 35.6571C35.1552 34.1568 35.998 32.122 35.998 30.0002C35.998 27.8785 35.1552 25.8437 33.6549 24.3434C32.1546 22.8431 30.1198 22.0002 27.998 22.0002C25.8763 22.0002 23.8415 22.8431 22.3412 24.3434C20.8409 25.8437 19.998 27.8785 19.998 30.0002ZM24.248 30.0002C24.248 29.8096 24.3199 29.6159 24.4668 29.469C24.7605 29.1752 25.2355 29.1752 25.5262 29.469L26.9949 30.9377C28.1512 29.7815 29.3074 28.6252 30.4637 27.469C30.6105 27.3221 30.8012 27.2502 30.9949 27.2502C31.1887 27.2502 31.3793 27.3221 31.5262 27.469C31.598 27.5409 31.6543 27.6252 31.6918 27.7159C31.7105 27.7627 31.723 27.8065 31.7324 27.8534C31.7387 27.8877 31.7418 27.9221 31.7418 27.9221C31.7449 27.9596 31.7449 27.9596 31.7449 28.0002C31.7418 28.0471 31.7418 28.0596 31.7418 28.0721C31.7387 28.094 31.7355 28.119 31.7324 28.1409C31.723 28.1877 31.7105 28.2346 31.6918 28.2784C31.6543 28.369 31.6012 28.4534 31.5262 28.5252C30.1918 29.8596 28.8605 31.1909 27.5262 32.5252C27.3793 32.6721 27.1887 32.744 26.9949 32.744C26.8012 32.744 26.6105 32.6721 26.4637 32.5252C25.798 31.8596 25.1293 31.1909 24.4637 30.5252C24.3168 30.3784 24.2449 30.1877 24.2449 29.994L24.248 30.0002Z" fill="#2A9919"/>
<path d="M31.5287 27.4684C31.8225 27.7621 31.8225 28.2371 31.5287 28.5277L27.5287 32.5309C27.235 32.8246 26.76 32.8246 26.4693 32.5309L24.4693 30.5309C24.1756 30.2371 24.1756 29.7621 24.4693 29.4715C24.7631 29.1809 25.2381 29.1777 25.5287 29.4715L26.9975 30.9402L30.4662 27.4684C30.76 27.1746 31.235 27.1746 31.5256 27.4684H31.5287Z" fill="white"/>
</g>
<path d="M43.1186 35V24.8182H44.6548V29.2429H49.7308V24.8182H51.272V35H49.7308V30.5604H44.6548V35H43.1186ZM56.6065 35.1541C55.8906 35.1541 55.2659 34.9901 54.7322 34.6619C54.1986 34.3338 53.7843 33.8748 53.4893 33.2848C53.1944 32.6948 53.0469 32.0054 53.0469 31.2166C53.0469 30.4245 53.1944 29.7318 53.4893 29.1385C53.7843 28.5452 54.1986 28.0845 54.7322 27.7564C55.2659 27.4283 55.8906 27.2642 56.6065 27.2642C57.3224 27.2642 57.9472 27.4283 58.4808 27.7564C59.0144 28.0845 59.4287 28.5452 59.7237 29.1385C60.0187 29.7318 60.1662 30.4245 60.1662 31.2166C60.1662 32.0054 60.0187 32.6948 59.7237 33.2848C59.4287 33.8748 59.0144 34.3338 58.4808 34.6619C57.9472 34.9901 57.3224 35.1541 56.6065 35.1541ZM56.6115 33.9062C57.0755 33.9062 57.46 33.7836 57.7649 33.5384C58.0698 33.2931 58.2952 32.9666 58.4411 32.5589C58.5902 32.1513 58.6648 31.7022 58.6648 31.2116C58.6648 30.7244 58.5902 30.277 58.4411 29.8693C58.2952 29.4583 58.0698 29.1286 57.7649 28.88C57.46 28.6314 57.0755 28.5071 56.6115 28.5071C56.1442 28.5071 55.7564 28.6314 55.4482 28.88C55.1432 29.1286 54.9162 29.4583 54.767 29.8693C54.6212 30.277 54.5483 30.7244 54.5483 31.2116C54.5483 31.7022 54.6212 32.1513 54.767 32.5589C54.9162 32.9666 55.1432 33.2931 55.4482 33.5384C55.7564 33.7836 56.1442 33.9062 56.6115 33.9062ZM63.2486 35L61.0014 27.3636H62.5376L64.0341 32.9716H64.1087L65.6101 27.3636H67.1463L68.6378 32.9467H68.7124L70.1989 27.3636H71.7351L69.4929 35H67.9766L66.4254 29.4865H66.3111L64.7599 35H63.2486ZM76.8509 35V27.3636H78.2777V28.6065H78.3722C78.5313 28.1856 78.7914 27.8575 79.1527 27.6222C79.514 27.3835 79.9465 27.2642 80.4503 27.2642C80.9607 27.2642 81.3883 27.3835 81.733 27.6222C82.081 27.8608 82.3378 28.1889 82.5036 28.6065H82.5831C82.7654 28.1989 83.0554 27.8741 83.4531 27.6321C83.8509 27.3868 84.3248 27.2642 84.875 27.2642C85.5677 27.2642 86.1328 27.4813 86.5703 27.9155C87.0111 28.3497 87.2315 29.0043 87.2315 29.8793V35H85.745V30.0185C85.745 29.5014 85.6042 29.1269 85.3224 28.8949C85.0407 28.6629 84.7043 28.5469 84.3132 28.5469C83.8293 28.5469 83.4531 28.696 83.1847 28.9943C82.9162 29.2893 82.782 29.6688 82.782 30.1328V35H81.3004V29.924C81.3004 29.5097 81.1712 29.1766 80.9126 28.9247C80.6541 28.6728 80.3177 28.5469 79.9034 28.5469C79.6217 28.5469 79.3615 28.6214 79.1229 28.7706C78.8875 28.9164 78.697 29.1203 78.5511 29.3821C78.4086 29.6439 78.3374 29.9472 78.3374 30.2919V35H76.8509ZM94.0613 31.8331V27.3636H95.5527V35H94.0911V33.6776H94.0115C93.8359 34.0852 93.5542 34.425 93.1664 34.6967C92.7819 34.9652 92.303 35.0994 91.7296 35.0994C91.2391 35.0994 90.8049 34.9917 90.427 34.7763C90.0525 34.5575 89.7575 34.2344 89.5421 33.8068C89.33 33.3793 89.2239 32.8506 89.2239 32.2209V27.3636H90.7104V32.0419C90.7104 32.5623 90.8546 32.9766 91.1429 33.2848C91.4313 33.593 91.8058 33.7472 92.2665 33.7472C92.5449 33.7472 92.8217 33.6776 93.0968 33.5384C93.3752 33.3991 93.6055 33.1887 93.7878 32.907C93.9734 32.6252 94.0646 32.2673 94.0613 31.8331ZM100.767 35.1541C100.028 35.1541 99.3912 34.9867 98.8576 34.652C98.3273 34.3139 97.9196 33.8482 97.6346 33.255C97.3496 32.6617 97.207 31.9822 97.207 31.2166C97.207 30.4411 97.3529 29.7566 97.6445 29.1634C97.9362 28.5668 98.3472 28.1011 98.8775 27.7663C99.4078 27.4316 100.033 27.2642 100.752 27.2642C101.332 27.2642 101.849 27.3719 102.303 27.5874C102.757 27.7995 103.123 28.0978 103.402 28.4822C103.683 28.8667 103.851 29.3158 103.904 29.8295H102.457C102.377 29.4716 102.195 29.1634 101.91 28.9048C101.628 28.6463 101.251 28.517 100.777 28.517C100.362 28.517 99.9994 28.6264 99.6879 28.8452C99.3796 29.0606 99.1393 29.3688 98.967 29.7699C98.7946 30.1676 98.7085 30.6383 98.7085 31.1818C98.7085 31.7386 98.793 32.2192 98.962 32.6236C99.131 33.0279 99.3697 33.3411 99.6779 33.5632C99.9895 33.7853 100.356 33.8963 100.777 33.8963C101.058 33.8963 101.314 33.8449 101.542 33.7422C101.774 33.6361 101.968 33.4853 102.124 33.2898C102.283 33.0942 102.394 32.8589 102.457 32.5838H103.904C103.851 33.0777 103.69 33.5185 103.422 33.9062C103.153 34.294 102.793 34.599 102.343 34.821C101.895 35.0431 101.37 35.1541 100.767 35.1541ZM106.98 30.4659V35H105.493V24.8182H106.96V28.6065H107.055C107.233 28.1955 107.507 27.8691 107.875 27.6271C108.243 27.3852 108.723 27.2642 109.317 27.2642C109.84 27.2642 110.298 27.3719 110.689 27.5874C111.083 27.8028 111.388 28.1243 111.604 28.5518C111.822 28.9761 111.932 29.5064 111.932 30.1428V35H110.445V30.3217C110.445 29.7616 110.301 29.3274 110.013 29.0192C109.724 28.7076 109.323 28.5518 108.809 28.5518C108.458 28.5518 108.143 28.6264 107.865 28.7756C107.59 28.9247 107.373 29.1435 107.214 29.4318C107.058 29.7169 106.98 30.0616 106.98 30.4659ZM120.479 35.1491C119.863 35.1491 119.312 34.9917 118.828 34.6768C118.348 34.3587 117.97 33.9062 117.695 33.3196C117.423 32.7296 117.287 32.022 117.287 31.1967C117.287 30.3714 117.425 29.6655 117.7 29.0788C117.978 28.4922 118.359 28.0431 118.843 27.7315C119.327 27.42 119.876 27.2642 120.489 27.2642C120.963 27.2642 121.344 27.3438 121.632 27.5028C121.924 27.6586 122.15 27.8409 122.309 28.0497C122.471 28.2585 122.597 28.4425 122.686 28.6016H122.776V24.8182H124.262V35H122.811V33.8118H122.686C122.597 33.9742 122.468 34.1598 122.299 34.3686C122.133 34.5774 121.904 34.7597 121.613 34.9155C121.321 35.0713 120.943 35.1491 120.479 35.1491ZM120.807 33.8814C121.235 33.8814 121.596 33.7687 121.891 33.5433C122.189 33.3146 122.415 32.9981 122.567 32.5938C122.723 32.1894 122.801 31.7187 122.801 31.1818C122.801 30.6515 122.725 30.1875 122.572 29.7898C122.42 29.392 122.196 29.0821 121.901 28.8601C121.606 28.638 121.241 28.527 120.807 28.527C120.36 28.527 119.987 28.643 119.689 28.875C119.39 29.107 119.165 29.4235 119.012 29.8246C118.863 30.2256 118.789 30.678 118.789 31.1818C118.789 31.6922 118.865 32.1513 119.017 32.5589C119.17 32.9666 119.395 33.2898 119.694 33.5284C119.995 33.7637 120.366 33.8814 120.807 33.8814ZM129.601 35.1541C128.885 35.1541 128.26 34.9901 127.726 34.6619C127.193 34.3338 126.778 33.8748 126.483 33.2848C126.189 32.6948 126.041 32.0054 126.041 31.2166C126.041 30.4245 126.189 29.7318 126.483 29.1385C126.778 28.5452 127.193 28.0845 127.726 27.7564C128.26 27.4283 128.885 27.2642 129.601 27.2642C130.317 27.2642 130.941 27.4283 131.475 27.7564C132.009 28.0845 132.423 28.5452 132.718 29.1385C133.013 29.7318 133.16 30.4245 133.16 31.2166C133.16 32.0054 133.013 32.6948 132.718 33.2848C132.423 33.8748 132.009 34.3338 131.475 34.6619C130.941 34.9901 130.317 35.1541 129.601 35.1541ZM129.606 33.9062C130.07 33.9062 130.454 33.7836 130.759 33.5384C131.064 33.2931 131.289 32.9666 131.435 32.5589C131.584 32.1513 131.659 31.7022 131.659 31.2116C131.659 30.7244 131.584 30.277 131.435 29.8693C131.289 29.4583 131.064 29.1286 130.759 28.88C130.454 28.6314 130.07 28.5071 129.606 28.5071C129.138 28.5071 128.751 28.6314 128.442 28.88C128.137 29.1286 127.91 29.4583 127.761 29.8693C127.615 30.277 127.542 30.7244 127.542 31.2116C127.542 31.7022 127.615 32.1513 127.761 32.5589C127.91 32.9666 128.137 33.2931 128.442 33.5384C128.751 33.7836 129.138 33.9062 129.606 33.9062ZM139.464 37.8636C139.242 37.8636 139.04 37.8454 138.858 37.8089C138.675 37.7758 138.54 37.7393 138.45 37.6996L138.808 36.4815C139.08 36.5545 139.322 36.5859 139.534 36.576C139.746 36.5661 139.933 36.4865 140.096 36.3374C140.261 36.1882 140.407 35.9446 140.533 35.6065L140.717 35.0994L137.923 27.3636H139.514L141.448 33.2898H141.528L143.461 27.3636H145.057L141.91 36.0192C141.765 36.4169 141.579 36.7533 141.354 37.0284C141.128 37.3068 140.86 37.5156 140.548 37.6548C140.237 37.794 139.875 37.8636 139.464 37.8636ZM149.411 35.1541C148.695 35.1541 148.071 34.9901 147.537 34.6619C147.003 34.3338 146.589 33.8748 146.294 33.2848C145.999 32.6948 145.852 32.0054 145.852 31.2166C145.852 30.4245 145.999 29.7318 146.294 29.1385C146.589 28.5452 147.003 28.0845 147.537 27.7564C148.071 27.4283 148.695 27.2642 149.411 27.2642C150.127 27.2642 150.752 27.4283 151.286 27.7564C151.819 28.0845 152.233 28.5452 152.528 29.1385C152.823 29.7318 152.971 30.4245 152.971 31.2166C152.971 32.0054 152.823 32.6948 152.528 33.2848C152.233 33.8748 151.819 34.3338 151.286 34.6619C150.752 34.9901 150.127 35.1541 149.411 35.1541ZM149.416 33.9062C149.88 33.9062 150.265 33.7836 150.57 33.5384C150.875 33.2931 151.1 32.9666 151.246 32.5589C151.395 32.1513 151.469 31.7022 151.469 31.2116C151.469 30.7244 151.395 30.277 151.246 29.8693C151.1 29.4583 150.875 29.1286 150.57 28.88C150.265 28.6314 149.88 28.5071 149.416 28.5071C148.949 28.5071 148.561 28.6314 148.253 28.88C147.948 29.1286 147.721 29.4583 147.572 29.8693C147.426 30.277 147.353 30.7244 147.353 31.2116C147.353 31.7022 147.426 32.1513 147.572 32.5589C147.721 32.9666 147.948 33.2931 148.253 33.5384C148.561 33.7836 148.949 33.9062 149.416 33.9062ZM159.468 31.8331V27.3636H160.959V35H159.497V33.6776H159.418C159.242 34.0852 158.96 34.425 158.573 34.6967C158.188 34.9652 157.709 35.0994 157.136 35.0994C156.645 35.0994 156.211 34.9917 155.833 34.7763C155.459 34.5575 155.164 34.2344 154.948 33.8068C154.736 33.3793 154.63 32.8506 154.63 32.2209V27.3636H156.117V32.0419C156.117 32.5623 156.261 32.9766 156.549 33.2848C156.838 33.593 157.212 33.7472 157.673 33.7472C157.951 33.7472 158.228 33.6776 158.503 33.5384C158.781 33.3991 159.012 33.1887 159.194 32.907C159.38 32.6252 159.471 32.2673 159.468 31.8331ZM168.317 35L166.07 27.3636H167.606L169.102 32.9716H169.177L170.678 27.3636H172.215L173.706 32.9467H173.781L175.267 27.3636H176.803L174.561 35H173.045L171.494 29.4865H171.379L169.828 35H168.317ZM180.436 35.169C179.953 35.169 179.515 35.0795 179.124 34.9006C178.733 34.7183 178.423 34.4548 178.194 34.1101C177.969 33.7654 177.856 33.3428 177.856 32.8423C177.856 32.4115 177.939 32.0568 178.105 31.7784C178.27 31.5 178.494 31.2796 178.776 31.1172C179.058 30.9548 179.373 30.8321 179.721 30.7493C180.069 30.6664 180.423 30.6035 180.784 30.5604C181.242 30.5073 181.613 30.4643 181.898 30.4311C182.183 30.3946 182.39 30.3366 182.52 30.2571C182.649 30.1776 182.713 30.0483 182.713 29.8693V29.8345C182.713 29.4003 182.591 29.0639 182.346 28.8253C182.104 28.5866 181.742 28.4673 181.262 28.4673C180.761 28.4673 180.367 28.5784 180.078 28.8004C179.793 29.0192 179.596 29.2628 179.487 29.5312L178.09 29.2131C178.256 28.7491 178.498 28.3745 178.816 28.0895C179.137 27.8011 179.507 27.5923 179.924 27.4631C180.342 27.3305 180.781 27.2642 181.242 27.2642C181.547 27.2642 181.87 27.3007 182.211 27.3736C182.556 27.4432 182.877 27.5724 183.176 27.7614C183.477 27.9503 183.724 28.2204 183.917 28.5717C184.109 28.9197 184.205 29.3722 184.205 29.929V35H182.753V33.956H182.694C182.597 34.1482 182.453 34.3371 182.261 34.5227C182.069 34.7083 181.822 34.8625 181.52 34.9851C181.219 35.1077 180.857 35.169 180.436 35.169ZM180.76 33.9759C181.171 33.9759 181.522 33.8946 181.814 33.7322C182.109 33.5698 182.332 33.3577 182.485 33.0959C182.641 32.8307 182.718 32.5473 182.718 32.2457V31.2614C182.665 31.3144 182.563 31.3641 182.41 31.4105C182.261 31.4536 182.09 31.4917 181.898 31.5249C181.706 31.5547 181.519 31.5829 181.336 31.6094C181.154 31.6326 181.002 31.6525 180.879 31.669C180.591 31.7055 180.327 31.7668 180.088 31.853C179.853 31.9392 179.664 32.0634 179.522 32.2259C179.382 32.3849 179.313 32.5971 179.313 32.8622C179.313 33.2301 179.449 33.5085 179.721 33.6974C179.992 33.883 180.339 33.9759 180.76 33.9759ZM187.671 30.4659V35H186.185V27.3636H187.612V28.6065H187.706C187.882 28.2022 188.157 27.8774 188.531 27.6321C188.909 27.3868 189.385 27.2642 189.958 27.2642C190.479 27.2642 190.934 27.3736 191.325 27.5923C191.717 27.8078 192.02 28.1293 192.235 28.5568C192.451 28.9844 192.558 29.513 192.558 30.1428V35H191.072V30.3217C191.072 29.7682 190.928 29.3357 190.639 29.0241C190.351 28.7093 189.955 28.5518 189.451 28.5518C189.106 28.5518 188.8 28.6264 188.531 28.7756C188.266 28.9247 188.056 29.1435 187.9 29.4318C187.748 29.7169 187.671 30.0616 187.671 30.4659ZM198.117 27.3636V28.5568H193.945V27.3636H198.117ZM195.064 25.5341H196.551V32.7578C196.551 33.0462 196.594 33.2633 196.68 33.4091C196.766 33.5516 196.877 33.6494 197.013 33.7024C197.152 33.7521 197.303 33.777 197.465 33.777C197.585 33.777 197.689 33.7687 197.779 33.7521C197.868 33.7356 197.938 33.7223 197.987 33.7124L198.256 34.9403C198.17 34.9735 198.047 35.0066 197.888 35.0398C197.729 35.0762 197.53 35.0961 197.291 35.0994C196.9 35.1061 196.536 35.0365 196.198 34.8906C195.86 34.7448 195.586 34.5194 195.377 34.2145C195.169 33.9096 195.064 33.5268 195.064 33.0661V25.5341ZM207.031 27.3636V28.5568H202.86V27.3636H207.031ZM203.978 25.5341H205.465V32.7578C205.465 33.0462 205.508 33.2633 205.594 33.4091C205.68 33.5516 205.791 33.6494 205.927 33.7024C206.066 33.7521 206.217 33.777 206.379 33.777C206.499 33.777 206.603 33.7687 206.693 33.7521C206.782 33.7356 206.852 33.7223 206.901 33.7124L207.17 34.9403C207.084 34.9735 206.961 35.0066 206.802 35.0398C206.643 35.0762 206.444 35.0961 206.205 35.0994C205.814 35.1061 205.45 35.0365 205.112 34.8906C204.774 34.7448 204.5 34.5194 204.291 34.2145C204.083 33.9096 203.978 33.5268 203.978 33.0661V25.5341ZM211.81 35.1541C211.094 35.1541 210.469 34.9901 209.935 34.6619C209.402 34.3338 208.987 33.8748 208.692 33.2848C208.397 32.6948 208.25 32.0054 208.25 31.2166C208.25 30.4245 208.397 29.7318 208.692 29.1385C208.987 28.5452 209.402 28.0845 209.935 27.7564C210.469 27.4283 211.094 27.2642 211.81 27.2642C212.526 27.2642 213.15 27.4283 213.684 27.7564C214.218 28.0845 214.632 28.5452 214.927 29.1385C215.222 29.7318 215.369 30.4245 215.369 31.2166C215.369 32.0054 215.222 32.6948 214.927 33.2848C214.632 33.8748 214.218 34.3338 213.684 34.6619C213.15 34.9901 212.526 35.1541 211.81 35.1541ZM211.815 33.9062C212.279 33.9062 212.663 33.7836 212.968 33.5384C213.273 33.2931 213.498 32.9666 213.644 32.5589C213.793 32.1513 213.868 31.7022 213.868 31.2116C213.868 30.7244 213.793 30.277 213.644 29.8693C213.498 29.4583 213.273 29.1286 212.968 28.88C212.663 28.6314 212.279 28.5071 211.815 28.5071C211.347 28.5071 210.96 28.6314 210.651 28.88C210.346 29.1286 210.119 29.4583 209.97 29.8693C209.824 30.277 209.751 30.7244 209.751 31.2116C209.751 31.7022 209.824 32.1513 209.97 32.5589C210.119 32.9666 210.346 33.2931 210.651 33.5384C210.96 33.7836 211.347 33.9062 211.815 33.9062ZM220.734 35V27.3636H222.22V35H220.734ZM221.484 26.1854C221.226 26.1854 221.004 26.0992 220.818 25.9268C220.636 25.7512 220.545 25.5424 220.545 25.3004C220.545 25.0552 220.636 24.8464 220.818 24.674C221.004 24.4983 221.226 24.4105 221.484 24.4105C221.743 24.4105 221.963 24.4983 222.146 24.674C222.331 24.8464 222.424 25.0552 222.424 25.3004C222.424 25.5424 222.331 25.7512 222.146 25.9268C221.963 26.0992 221.743 26.1854 221.484 26.1854ZM225.706 30.4659V35H224.22V27.3636H225.647V28.6065H225.741C225.917 28.2022 226.192 27.8774 226.567 27.6321C226.944 27.3868 227.42 27.2642 227.993 27.2642C228.514 27.2642 228.97 27.3736 229.361 27.5923C229.752 27.8078 230.055 28.1293 230.27 28.5568C230.486 28.9844 230.594 29.513 230.594 30.1428V35H229.107V30.3217C229.107 29.7682 228.963 29.3357 228.675 29.0241C228.386 28.7093 227.99 28.5518 227.486 28.5518C227.142 28.5518 226.835 28.6264 226.567 28.7756C226.301 28.9247 226.091 29.1435 225.935 29.4318C225.783 29.7169 225.706 30.0616 225.706 30.4659ZM238.846 27.3636L236.077 35H234.486L231.712 27.3636H233.308L235.242 33.2401H235.322L237.251 27.3636H238.846ZM243.275 35.1541C242.522 35.1541 241.875 34.9934 241.331 34.6719C240.791 34.3471 240.373 33.8913 240.078 33.3047C239.786 32.7147 239.641 32.0237 239.641 31.2315C239.641 30.4493 239.786 29.7599 240.078 29.1634C240.373 28.5668 240.784 28.1011 241.311 27.7663C241.841 27.4316 242.461 27.2642 243.17 27.2642C243.601 27.2642 244.019 27.3355 244.423 27.478C244.828 27.6205 245.191 27.8442 245.512 28.1491C245.834 28.4541 246.087 28.8501 246.273 29.3374C246.458 29.8213 246.551 30.4096 246.551 31.1023V31.6293H240.481V30.5156H245.094C245.094 30.1245 245.015 29.7782 244.856 29.4766C244.697 29.1716 244.473 28.9313 244.185 28.7557C243.9 28.58 243.565 28.4922 243.18 28.4922C242.763 28.4922 242.398 28.5949 242.087 28.8004C241.778 29.0026 241.54 29.2678 241.371 29.5959C241.205 29.9207 241.122 30.2737 241.122 30.6548V31.5249C241.122 32.0353 241.212 32.4695 241.391 32.8274C241.573 33.1854 241.826 33.4588 242.151 33.6477C242.476 33.8333 242.856 33.9261 243.29 33.9261C243.571 33.9261 243.828 33.8864 244.06 33.8068C244.292 33.724 244.493 33.6013 244.662 33.4389C244.831 33.2765 244.96 33.076 245.05 32.8374L246.457 33.0909C246.344 33.5052 246.142 33.8681 245.85 34.1797C245.562 34.4879 245.199 34.7282 244.761 34.9006C244.327 35.0696 243.832 35.1541 243.275 35.1541ZM253.923 29.228L252.575 29.4666C252.519 29.2943 252.43 29.1302 252.307 28.9744C252.188 28.8187 252.025 28.6911 251.82 28.5916C251.614 28.4922 251.357 28.4425 251.049 28.4425C250.628 28.4425 250.277 28.5369 249.995 28.7259C249.713 28.9115 249.573 29.1518 249.573 29.4467C249.573 29.7019 249.667 29.9074 249.856 30.0632C250.045 30.219 250.35 30.3466 250.771 30.446L251.984 30.7244C252.686 30.8868 253.21 31.1371 253.555 31.4751C253.9 31.8132 254.072 32.2524 254.072 32.7926C254.072 33.25 253.939 33.6577 253.674 34.0156C253.412 34.3703 253.046 34.6487 252.575 34.8509C252.108 35.053 251.566 35.1541 250.95 35.1541C250.095 35.1541 249.397 34.9718 248.857 34.6072C248.316 34.2393 247.985 33.7173 247.862 33.0412L249.299 32.8224C249.389 33.197 249.573 33.4804 249.851 33.6726C250.129 33.8615 250.492 33.956 250.94 33.956C251.427 33.956 251.816 33.8549 252.108 33.6527C252.4 33.4472 252.546 33.197 252.546 32.902C252.546 32.6634 252.456 32.4628 252.277 32.3004C252.102 32.138 251.831 32.0154 251.467 31.9325L250.174 31.6491C249.462 31.4867 248.935 31.2282 248.593 30.8736C248.255 30.5189 248.086 30.0698 248.086 29.5263C248.086 29.0755 248.212 28.6811 248.464 28.343C248.716 28.005 249.064 27.7415 249.508 27.5526C249.952 27.3603 250.461 27.2642 251.034 27.2642C251.86 27.2642 252.509 27.4432 252.983 27.8011C253.457 28.1558 253.77 28.6314 253.923 29.228ZM259.271 27.3636V28.5568H255.1V27.3636H259.271ZM256.218 25.5341H257.705V32.7578C257.705 33.0462 257.748 33.2633 257.834 33.4091C257.92 33.5516 258.031 33.6494 258.167 33.7024C258.306 33.7521 258.457 33.777 258.62 33.777C258.739 33.777 258.843 33.7687 258.933 33.7521C259.022 33.7356 259.092 33.7223 259.142 33.7124L259.41 34.9403C259.324 34.9735 259.201 35.0066 259.042 35.0398C258.883 35.0762 258.684 35.0961 258.446 35.0994C258.055 35.1061 257.69 35.0365 257.352 34.8906C257.014 34.7448 256.74 34.5194 256.532 34.2145C256.323 33.9096 256.218 33.5268 256.218 33.0661V25.5341ZM262.541 32.0717V31.9773C262.548 31.3608 262.609 30.8703 262.725 30.5057C262.844 30.1411 263.013 29.8461 263.232 29.6207C263.451 29.3954 263.714 29.1899 264.023 29.0043C264.221 28.8783 264.4 28.7375 264.559 28.5817C264.719 28.4259 264.845 28.2469 264.937 28.0447C265.03 27.8426 265.077 27.6188 265.077 27.3736C265.077 27.0786 265.007 26.8234 264.868 26.608C264.729 26.3925 264.543 26.2268 264.311 26.1108C264.082 25.9915 263.827 25.9318 263.545 25.9318C263.29 25.9318 263.046 25.9848 262.814 26.0909C262.582 26.197 262.39 26.3627 262.238 26.5881C262.085 26.8101 261.997 27.0968 261.974 27.4482H260.463C260.486 26.8516 260.637 26.3478 260.915 25.9368C261.194 25.5225 261.562 25.2093 262.019 24.9972C262.48 24.785 262.988 24.679 263.545 24.679C264.155 24.679 264.689 24.7933 265.146 25.022C265.604 25.2474 265.958 25.5639 266.21 25.9716C266.465 26.3759 266.593 26.8482 266.593 27.3885C266.593 27.7597 266.535 28.0945 266.419 28.3928C266.303 28.6877 266.137 28.9512 265.922 29.1832C265.71 29.4152 265.454 29.6207 265.156 29.7997C264.874 29.9754 264.646 30.1577 264.47 30.3466C264.298 30.5355 264.172 30.7592 264.092 31.0178C264.013 31.2763 263.97 31.5961 263.963 31.9773V32.0717H262.541ZM263.292 35.0945C263.02 35.0945 262.786 34.9983 262.591 34.8061C262.395 34.6106 262.297 34.3752 262.297 34.1001C262.297 33.8284 262.395 33.5964 262.591 33.4041C262.786 33.2086 263.02 33.1108 263.292 33.1108C263.56 33.1108 263.792 33.2086 263.988 33.4041C264.187 33.5964 264.286 33.8284 264.286 34.1001C264.286 34.2824 264.24 34.4498 264.147 34.6023C264.057 34.7514 263.938 34.8707 263.789 34.9602C263.64 35.0497 263.474 35.0945 263.292 35.0945Z" fill="#111827"/>
<path d="M482 33.0625C481.602 33.0625 481.221 33.2008 480.939 33.4469C480.658 33.6931 480.5 34.0269 480.5 34.375C480.5 34.7231 480.658 35.0569 480.939 35.3031C481.221 35.5492 481.602 35.6875 482 35.6875C482.398 35.6875 482.779 35.5492 483.061 35.3031C483.342 35.0569 483.5 34.7231 483.5 34.375C483.5 34.0269 483.342 33.6931 483.061 33.4469C482.779 33.2008 482.398 33.0625 482 33.0625ZM482 28.6875C481.602 28.6875 481.221 28.8258 480.939 29.0719C480.658 29.3181 480.5 29.6519 480.5 30C480.5 30.3481 480.658 30.6819 480.939 30.9281C481.221 31.1742 481.602 31.3125 482 31.3125C482.398 31.3125 482.779 31.1742 483.061 30.9281C483.342 30.6819 483.5 30.3481 483.5 30C483.5 29.6519 483.342 29.3181 483.061 29.0719C482.779 28.8258 482.398 28.6875 482 28.6875ZM483.5 25.625C483.5 25.4526 483.461 25.282 483.386 25.1227C483.31 24.9635 483.2 24.8188 483.061 24.6969C482.921 24.575 482.756 24.4784 482.574 24.4124C482.392 24.3464 482.197 24.3125 482 24.3125C481.803 24.3125 481.608 24.3464 481.426 24.4124C481.244 24.4784 481.079 24.575 480.939 24.6969C480.8 24.8188 480.69 24.9635 480.614 25.1227C480.539 25.282 480.5 25.4526 480.5 25.625C480.5 25.7974 480.539 25.968 480.614 26.1273C480.69 26.2865 480.8 26.4312 480.939 26.5531C481.079 26.675 481.244 26.7716 481.426 26.8376C481.608 26.9036 481.803 26.9375 482 26.9375C482.197 26.9375 482.392 26.9036 482.574 26.8376C482.756 26.7716 482.921 26.675 483.061 26.5531C483.2 26.4312 483.31 26.2865 483.386 26.1273C483.461 25.968 483.5 25.7974 483.5 25.625Z" fill="#6B7280"/>
<rect x="20.5" y="48.5" width="463" height="39" rx="7.5" fill="white"/>
<rect x="20.5" y="48.5" width="463" height="39" rx="7.5" stroke="#E9EEF4"/>
<path d="M39.6562 73H32.9148V71.9062H39.6562V73ZM37.5085 69.0426H32.875V67.9091H37.5085V69.0426ZM35.0426 65.9006L35.2017 70.2159C35.2216 70.6335 35.1835 71.0196 35.0874 71.3743C34.9946 71.7256 34.8139 71.9957 34.5455 72.1847L33.3125 71.9062C33.5114 71.9062 33.6638 71.8068 33.7699 71.608C33.8759 71.4091 33.9472 71.1771 33.9837 70.9119C34.0201 70.6468 34.035 70.4148 34.0284 70.2159L33.8892 65.9006C33.8627 65.178 33.9936 64.5781 34.282 64.1009C34.5736 63.6236 34.9548 63.2673 35.4254 63.032C35.8994 62.7966 36.3949 62.679 36.9119 62.679C37.3859 62.679 37.8168 62.7652 38.2045 62.9375C38.5923 63.1065 38.9188 63.3352 39.1839 63.6236C39.4491 63.9119 39.6347 64.2367 39.7408 64.598C39.8468 64.956 39.8518 65.3239 39.7557 65.7017L38.6023 65.3835C38.6487 65.0388 38.5956 64.7472 38.4432 64.5085C38.294 64.2666 38.0852 64.0843 37.8168 63.9616C37.5516 63.8357 37.2699 63.7727 36.9716 63.7727C36.6534 63.7727 36.3468 63.849 36.0518 64.0014C35.7569 64.1506 35.5149 64.3826 35.326 64.6974C35.1371 65.009 35.0426 65.41 35.0426 65.9006Z" fill="#576072"/>
<path d="M49.0053 73.1392C48.422 73.1392 47.8967 73.0232 47.4293 72.7912C46.962 72.5592 46.5875 72.241 46.3058 71.8366C46.024 71.4323 45.8699 70.9716 45.8434 70.4545H47.0366C47.083 70.9152 47.2918 71.2964 47.663 71.598C48.0375 71.8963 48.485 72.0455 49.0053 72.0455C49.4229 72.0455 49.7942 71.9477 50.119 71.7521C50.4471 71.5566 50.704 71.2881 50.8896 70.9467C51.0785 70.602 51.1729 70.2126 51.1729 69.7784C51.1729 69.3343 51.0752 68.9382 50.8796 68.5902C50.6874 68.2389 50.4222 67.9621 50.0842 67.7599C49.7461 67.5578 49.36 67.455 48.9258 67.4517C48.6142 67.4484 48.2944 67.4964 47.9663 67.5959C47.6381 67.692 47.368 67.8163 47.1559 67.9688L46.0025 67.8295L46.619 62.8182H51.9087V63.9119H47.6531L47.2951 66.9148H47.3548C47.5636 66.7491 47.8254 66.6115 48.1403 66.5021C48.4551 66.3928 48.7833 66.3381 49.1246 66.3381C49.7478 66.3381 50.3029 66.4872 50.7901 66.7855C51.2807 67.0805 51.6651 67.4848 51.9435 67.9986C52.2253 68.5123 52.3661 69.099 52.3661 69.7585C52.3661 70.4081 52.2203 70.9882 51.9286 71.4986C51.6403 72.0057 51.2425 72.4067 50.7354 72.7017C50.2283 72.9934 49.6516 73.1392 49.0053 73.1392ZM57.6621 73.1392C56.9131 73.1392 56.275 72.9354 55.748 72.5277C55.2211 72.1167 54.8184 71.5218 54.54 70.7429C54.2615 69.9607 54.1223 69.0161 54.1223 67.9091C54.1223 66.8087 54.2615 65.8691 54.54 65.0902C54.8217 64.308 55.226 63.7114 55.753 63.3004C56.2833 62.8861 56.9197 62.679 57.6621 62.679C58.4045 62.679 59.0392 62.8861 59.5662 63.3004C60.0965 63.7114 60.5009 64.308 60.7793 65.0902C61.061 65.8691 61.2019 66.8087 61.2019 67.9091C61.2019 69.0161 61.0627 69.9607 60.7843 70.7429C60.5059 71.5218 60.1032 72.1167 59.5762 72.5277C59.0492 72.9354 58.4112 73.1392 57.6621 73.1392ZM57.6621 72.0455C58.4045 72.0455 58.9812 71.6875 59.3922 70.9716C59.8032 70.2557 60.0087 69.2348 60.0087 67.9091C60.0087 67.0275 59.9142 66.2768 59.7253 65.657C59.5397 65.0372 59.2712 64.5649 58.9199 64.2401C58.5719 63.9152 58.1526 63.7528 57.6621 63.7528C56.9263 63.7528 56.3513 64.1158 55.937 64.8416C55.5227 65.5642 55.3155 66.5866 55.3155 67.9091C55.3155 68.7907 55.4083 69.5398 55.5939 70.1562C55.7795 70.7727 56.0463 71.2417 56.3944 71.5632C56.7457 71.8847 57.1683 72.0455 57.6621 72.0455ZM64.5055 71.608L64.426 72.1449C64.3696 72.5227 64.2834 72.9271 64.1674 73.358C64.0547 73.7888 63.9371 74.1948 63.8145 74.576C63.6918 74.9571 63.5907 75.2604 63.5112 75.4858H62.6163C62.6594 75.2737 62.7157 74.9936 62.7853 74.6456C62.8549 74.2976 62.9245 73.9081 62.9941 73.4773C63.0671 73.0497 63.1267 72.6122 63.1731 72.1648L63.2328 71.608H64.5055ZM69.625 73.1392C68.8759 73.1392 68.2379 72.9354 67.7109 72.5277C67.1839 72.1167 66.7813 71.5218 66.5028 70.7429C66.2244 69.9607 66.0852 69.0161 66.0852 67.9091C66.0852 66.8087 66.2244 65.8691 66.5028 65.0902C66.7846 64.308 67.1889 63.7114 67.7159 63.3004C68.2462 62.8861 68.8826 62.679 69.625 62.679C70.3674 62.679 71.0021 62.8861 71.5291 63.3004C72.0594 63.7114 72.4638 64.308 72.7422 65.0902C73.0239 65.8691 73.1648 66.8087 73.1648 67.9091C73.1648 69.0161 73.0256 69.9607 72.7472 70.7429C72.4688 71.5218 72.0661 72.1167 71.5391 72.5277C71.0121 72.9354 70.3741 73.1392 69.625 73.1392ZM69.625 72.0455C70.3674 72.0455 70.9441 71.6875 71.3551 70.9716C71.7661 70.2557 71.9716 69.2348 71.9716 67.9091C71.9716 67.0275 71.8771 66.2768 71.6882 65.657C71.5026 65.0372 71.2341 64.5649 70.8828 64.2401C70.5348 63.9152 70.1155 63.7528 69.625 63.7528C68.8892 63.7528 68.3142 64.1158 67.8999 64.8416C67.4856 65.5642 67.2784 66.5866 67.2784 67.9091C67.2784 68.7907 67.3712 69.5398 67.5568 70.1562C67.7424 70.7727 68.0092 71.2417 68.3572 71.5632C68.7086 71.8847 69.1312 72.0455 69.625 72.0455ZM78.375 73.1392C77.6259 73.1392 76.9879 72.9354 76.4609 72.5277C75.9339 72.1167 75.5313 71.5218 75.2528 70.7429C74.9744 69.9607 74.8352 69.0161 74.8352 67.9091C74.8352 66.8087 74.9744 65.8691 75.2528 65.0902C75.5346 64.308 75.9389 63.7114 76.4659 63.3004C76.9962 62.8861 77.6326 62.679 78.375 62.679C79.1174 62.679 79.7521 62.8861 80.2791 63.3004C80.8094 63.7114 81.2138 64.308 81.4922 65.0902C81.7739 65.8691 81.9148 66.8087 81.9148 67.9091C81.9148 69.0161 81.7756 69.9607 81.4972 70.7429C81.2188 71.5218 80.8161 72.1167 80.2891 72.5277C79.7621 72.9354 79.1241 73.1392 78.375 73.1392ZM78.375 72.0455C79.1174 72.0455 79.6941 71.6875 80.1051 70.9716C80.5161 70.2557 80.7216 69.2348 80.7216 67.9091C80.7216 67.0275 80.6271 66.2768 80.4382 65.657C80.2526 65.0372 79.9841 64.5649 79.6328 64.2401C79.2848 63.9152 78.8655 63.7528 78.375 63.7528C77.6392 63.7528 77.0642 64.1158 76.6499 64.8416C76.2356 65.5642 76.0284 66.5866 76.0284 67.9091C76.0284 68.7907 76.1212 69.5398 76.3068 70.1562C76.4924 70.7727 76.7592 71.2417 77.1072 71.5632C77.4586 71.8847 77.8812 72.0455 78.375 72.0455ZM87.125 73.1392C86.3759 73.1392 85.7379 72.9354 85.2109 72.5277C84.6839 72.1167 84.2813 71.5218 84.0028 70.7429C83.7244 69.9607 83.5852 69.0161 83.5852 67.9091C83.5852 66.8087 83.7244 65.8691 84.0028 65.0902C84.2846 64.308 84.6889 63.7114 85.2159 63.3004C85.7462 62.8861 86.3826 62.679 87.125 62.679C87.8674 62.679 88.5021 62.8861 89.0291 63.3004C89.5594 63.7114 89.9638 64.308 90.2422 65.0902C90.5239 65.8691 90.6648 66.8087 90.6648 67.9091C90.6648 69.0161 90.5256 69.9607 90.2472 70.7429C89.9688 71.5218 89.5661 72.1167 89.0391 72.5277C88.5121 72.9354 87.8741 73.1392 87.125 73.1392ZM87.125 72.0455C87.8674 72.0455 88.4441 71.6875 88.8551 70.9716C89.2661 70.2557 89.4716 69.2348 89.4716 67.9091C89.4716 67.0275 89.3771 66.2768 89.1882 65.657C89.0026 65.0372 88.7341 64.5649 88.3828 64.2401C88.0348 63.9152 87.6155 63.7528 87.125 63.7528C86.3892 63.7528 85.8142 64.1158 85.3999 64.8416C84.9856 65.5642 84.7784 66.5866 84.7784 67.9091C84.7784 68.7907 84.8712 69.5398 85.0568 70.1562C85.2424 70.7727 85.5092 71.2417 85.8572 71.5632C86.2086 71.8847 86.6312 72.0455 87.125 72.0455ZM93.0735 73.0795C92.8282 73.0795 92.6178 72.9917 92.4421 72.8161C92.2665 72.6404 92.1786 72.4299 92.1786 72.1847C92.1786 71.9394 92.2665 71.7289 92.4421 71.5533C92.6178 71.3776 92.8282 71.2898 93.0735 71.2898C93.3188 71.2898 93.5292 71.3776 93.7049 71.5533C93.8806 71.7289 93.9684 71.9394 93.9684 72.1847C93.9684 72.3471 93.927 72.4962 93.8441 72.6321C93.7646 72.768 93.6568 72.8774 93.521 72.9602C93.3884 73.0398 93.2392 73.0795 93.0735 73.0795ZM99.0195 73.1392C98.2705 73.1392 97.6325 72.9354 97.1055 72.5277C96.5785 72.1167 96.1758 71.5218 95.8974 70.7429C95.619 69.9607 95.4798 69.0161 95.4798 67.9091C95.4798 66.8087 95.619 65.8691 95.8974 65.0902C96.1791 64.308 96.5835 63.7114 97.1104 63.3004C97.6407 62.8861 98.2771 62.679 99.0195 62.679C99.762 62.679 100.397 62.8861 100.924 63.3004C101.454 63.7114 101.858 64.308 102.137 65.0902C102.418 65.8691 102.559 66.8087 102.559 67.9091C102.559 69.0161 102.42 69.9607 102.142 70.7429C101.863 71.5218 101.461 72.1167 100.934 72.5277C100.407 72.9354 99.7686 73.1392 99.0195 73.1392ZM99.0195 72.0455C99.762 72.0455 100.339 71.6875 100.75 70.9716C101.161 70.2557 101.366 69.2348 101.366 67.9091C101.366 67.0275 101.272 66.2768 101.083 65.657C100.897 65.0372 100.629 64.5649 100.277 64.2401C99.9293 63.9152 99.5101 63.7528 99.0195 63.7528C98.2837 63.7528 97.7087 64.1158 97.2944 64.8416C96.8801 65.5642 96.6729 66.5866 96.6729 67.9091C96.6729 68.7907 96.7657 69.5398 96.9513 70.1562C97.137 70.7727 97.4038 71.2417 97.7518 71.5632C98.1031 71.8847 98.5257 72.0455 99.0195 72.0455ZM107.77 73.1392C107.02 73.1392 106.382 72.9354 105.855 72.5277C105.328 72.1167 104.926 71.5218 104.647 70.7429C104.369 69.9607 104.23 69.0161 104.23 67.9091C104.23 66.8087 104.369 65.8691 104.647 65.0902C104.929 64.308 105.333 63.7114 105.86 63.3004C106.391 62.8861 107.027 62.679 107.77 62.679C108.512 62.679 109.147 62.8861 109.674 63.3004C110.204 63.7114 110.608 64.308 110.887 65.0902C111.168 65.8691 111.309 66.8087 111.309 67.9091C111.309 69.0161 111.17 69.9607 110.892 70.7429C110.613 71.5218 110.211 72.1167 109.684 72.5277C109.157 72.9354 108.519 73.1392 107.77 73.1392ZM107.77 72.0455C108.512 72.0455 109.089 71.6875 109.5 70.9716C109.911 70.2557 110.116 69.2348 110.116 67.9091C110.116 67.0275 110.022 66.2768 109.833 65.657C109.647 65.0372 109.379 64.5649 109.027 64.2401C108.679 63.9152 108.26 63.7528 107.77 63.7528C107.034 63.7528 106.459 64.1158 106.044 64.8416C105.63 65.5642 105.423 66.5866 105.423 67.9091C105.423 68.7907 105.516 69.5398 105.701 70.1562C105.887 70.7727 106.154 71.2417 106.502 71.5632C106.853 71.8847 107.276 72.0455 107.77 72.0455Z" fill="#111827"/>
<path d="M21.0568 101.273H22.3182L25.2841 108.517H25.3864L28.3523 101.273H29.6136V110H28.625V103.369H28.5398L25.8125 110H24.858L22.1307 103.369H22.0455V110H21.0568V101.273ZM33.5224 110.153C33.1076 110.153 32.7312 110.075 32.3931 109.919C32.055 109.76 31.7866 109.531 31.5877 109.233C31.3888 108.932 31.2894 108.568 31.2894 108.142C31.2894 107.767 31.3633 107.463 31.511 107.23C31.6587 106.994 31.8562 106.81 32.1033 106.676C32.3505 106.543 32.6232 106.443 32.9215 106.378C33.2227 106.31 33.5252 106.256 33.8292 106.216C34.2269 106.165 34.5494 106.126 34.7965 106.101C35.0465 106.072 35.2283 106.026 35.342 105.96C35.4585 105.895 35.5167 105.781 35.5167 105.619V105.585C35.5167 105.165 35.4016 104.838 35.1715 104.605C34.9442 104.372 34.5991 104.256 34.136 104.256C33.6559 104.256 33.2795 104.361 33.0067 104.571C32.734 104.781 32.5423 105.006 32.4315 105.244L31.4769 104.903C31.6474 104.506 31.8746 104.196 32.1587 103.974C32.4457 103.75 32.7582 103.594 33.0962 103.506C33.4371 103.415 33.7724 103.369 34.1019 103.369C34.3121 103.369 34.5536 103.395 34.8263 103.446C35.1019 103.494 35.3675 103.595 35.6232 103.749C35.8817 103.902 36.0962 104.134 36.2667 104.443C36.4371 104.753 36.5224 105.168 36.5224 105.688V110H35.5167V109.114H35.4656C35.3974 109.256 35.2837 109.408 35.1246 109.57C34.9656 109.732 34.7539 109.869 34.4897 109.983C34.2255 110.097 33.9031 110.153 33.5224 110.153ZM33.6758 109.25C34.0735 109.25 34.4087 109.172 34.6815 109.016C34.957 108.859 35.1644 108.658 35.3036 108.411C35.4457 108.163 35.5167 107.903 35.5167 107.631V106.71C35.4741 106.761 35.3803 106.808 35.2354 106.851C35.0934 106.891 34.9286 106.926 34.7411 106.957C34.5565 106.986 34.3761 107.011 34.1999 107.034C34.0266 107.054 33.886 107.071 33.7781 107.085C33.5167 107.119 33.2724 107.175 33.0451 107.251C32.8207 107.325 32.6388 107.437 32.4996 107.588C32.3633 107.736 32.2951 107.937 32.2951 108.193C32.2951 108.543 32.4244 108.807 32.6829 108.986C32.9442 109.162 33.2752 109.25 33.6758 109.25ZM39.108 103.455L40.6761 106.131L42.2443 103.455H43.4034L41.2898 106.727L43.4034 110H42.2443L40.6761 107.46L39.108 110H37.9489L40.0284 106.727L37.9489 103.455H39.108ZM44.8384 110V103.455H45.8441V110H44.8384ZM45.3498 102.364C45.1538 102.364 44.9847 102.297 44.8427 102.163C44.7035 102.03 44.6339 101.869 44.6339 101.682C44.6339 101.494 44.7035 101.334 44.8427 101.2C44.9847 101.067 45.1538 101 45.3498 101C45.5458 101 45.7134 101.067 45.8526 101.2C45.9947 101.334 46.0657 101.494 46.0657 101.682C46.0657 101.869 45.9947 102.03 45.8526 102.163C45.7134 102.297 45.5458 102.364 45.3498 102.364ZM47.6861 110V103.455H48.6577V104.477H48.7429C48.8793 104.128 49.0994 103.857 49.4034 103.663C49.7074 103.467 50.0724 103.369 50.4986 103.369C50.9304 103.369 51.2898 103.467 51.5767 103.663C51.8665 103.857 52.0923 104.128 52.2543 104.477H52.3224C52.4901 104.139 52.7415 103.871 53.0767 103.672C53.4119 103.47 53.8139 103.369 54.2827 103.369C54.8679 103.369 55.3466 103.553 55.7188 103.919C56.0909 104.283 56.277 104.849 56.277 105.619V110H55.2713V105.619C55.2713 105.136 55.1392 104.791 54.875 104.584C54.6108 104.376 54.2997 104.273 53.9418 104.273C53.4815 104.273 53.125 104.412 52.8722 104.69C52.6193 104.966 52.4929 105.315 52.4929 105.739V110H51.4702V105.517C51.4702 105.145 51.3494 104.845 51.108 104.618C50.8665 104.388 50.5554 104.273 50.1747 104.273C49.9134 104.273 49.669 104.342 49.4418 104.482C49.2173 104.621 49.0355 104.814 48.8963 105.061C48.7599 105.305 48.6918 105.588 48.6918 105.909V110H47.6861ZM62.2408 107.324V103.455H63.2464V110H62.2408V108.892H62.1726C62.0192 109.224 61.7805 109.507 61.4567 109.74C61.1328 109.97 60.7237 110.085 60.2294 110.085C59.8203 110.085 59.4567 109.996 59.1385 109.817C58.8203 109.635 58.5703 109.362 58.3885 108.999C58.2067 108.632 58.1158 108.17 58.1158 107.614V103.455H59.1214V107.545C59.1214 108.023 59.255 108.403 59.522 108.688C59.7919 108.972 60.1357 109.114 60.5533 109.114C60.8033 109.114 61.0575 109.05 61.3161 108.922C61.5774 108.794 61.7962 108.598 61.9723 108.334C62.1513 108.07 62.2408 107.733 62.2408 107.324ZM65.0884 110V103.455H66.06V104.477H66.1452C66.2816 104.128 66.5018 103.857 66.8058 103.663C67.1097 103.467 67.4748 103.369 67.9009 103.369C68.3327 103.369 68.6921 103.467 68.979 103.663C69.2688 103.857 69.4947 104.128 69.6566 104.477H69.7248C69.8924 104.139 70.1438 103.871 70.479 103.672C70.8143 103.47 71.2163 103.369 71.685 103.369C72.2702 103.369 72.7489 103.553 73.1211 103.919C73.4933 104.283 73.6793 104.849 73.6793 105.619V110H72.6737V105.619C72.6737 105.136 72.5415 104.791 72.2773 104.584C72.0131 104.376 71.7021 104.273 71.3441 104.273C70.8839 104.273 70.5273 104.412 70.2745 104.69C70.0217 104.966 69.8952 105.315 69.8952 105.739V110H68.8725V105.517C68.8725 105.145 68.7518 104.845 68.5103 104.618C68.2688 104.388 67.9577 104.273 67.5771 104.273C67.3157 104.273 67.0714 104.342 66.8441 104.482C66.6197 104.621 66.4379 104.814 66.2987 105.061C66.1623 105.305 66.0941 105.588 66.0941 105.909V110H65.0884ZM80.8192 110.153C80.4045 110.153 80.0281 110.075 79.69 109.919C79.3519 109.76 79.0835 109.531 78.8846 109.233C78.6857 108.932 78.5863 108.568 78.5863 108.142C78.5863 107.767 78.6602 107.463 78.8079 107.23C78.9556 106.994 79.1531 106.81 79.4002 106.676C79.6474 106.543 79.9201 106.443 80.2184 106.378C80.5195 106.31 80.8221 106.256 81.1261 106.216C81.5238 106.165 81.8462 106.126 82.0934 106.101C82.3434 106.072 82.5252 106.026 82.6388 105.96C82.7553 105.895 82.8136 105.781 82.8136 105.619V105.585C82.8136 105.165 82.6985 104.838 82.4684 104.605C82.2411 104.372 81.896 104.256 81.4329 104.256C80.9528 104.256 80.5763 104.361 80.3036 104.571C80.0309 104.781 79.8391 105.006 79.7283 105.244L78.7738 104.903C78.9442 104.506 79.1715 104.196 79.4556 103.974C79.7425 103.75 80.055 103.594 80.3931 103.506C80.734 103.415 81.0692 103.369 81.3988 103.369C81.609 103.369 81.8505 103.395 82.1232 103.446C82.3988 103.494 82.6644 103.595 82.9201 103.749C83.1786 103.902 83.3931 104.134 83.5636 104.443C83.734 104.753 83.8192 105.168 83.8192 105.688V110H82.8136V109.114H82.7624C82.6942 109.256 82.5806 109.408 82.4215 109.57C82.2624 109.732 82.0508 109.869 81.7866 109.983C81.5224 110.097 81.1999 110.153 80.8192 110.153ZM80.9727 109.25C81.3704 109.25 81.7056 109.172 81.9783 109.016C82.2539 108.859 82.4613 108.658 82.6005 108.411C82.7425 108.163 82.8136 107.903 82.8136 107.631V106.71C82.771 106.761 82.6772 106.808 82.5323 106.851C82.3903 106.891 82.2255 106.926 82.038 106.957C81.8533 106.986 81.6729 107.011 81.4968 107.034C81.3235 107.054 81.1829 107.071 81.0749 107.085C80.8136 107.119 80.5692 107.175 80.342 107.251C80.1175 107.325 79.9357 107.437 79.7965 107.588C79.6602 107.736 79.592 107.937 79.592 108.193C79.592 108.543 79.7212 108.807 79.9798 108.986C80.2411 109.162 80.5721 109.25 80.9727 109.25ZM86.6605 101.273V110H85.6548V101.273H86.6605ZM89.5082 101.273V110H88.5025V101.273H89.5082ZM94.0092 110.136C93.4183 110.136 92.8999 109.996 92.4538 109.714C92.0107 109.433 91.6641 109.04 91.4141 108.534C91.1669 108.028 91.0433 107.437 91.0433 106.761C91.0433 106.08 91.1669 105.484 91.4141 104.976C91.6641 104.467 92.0107 104.072 92.4538 103.791C92.8999 103.51 93.4183 103.369 94.0092 103.369C94.6001 103.369 95.1172 103.51 95.5604 103.791C96.0064 104.072 96.353 104.467 96.6001 104.976C96.8501 105.484 96.9751 106.08 96.9751 106.761C96.9751 107.437 96.8501 108.028 96.6001 108.534C96.353 109.04 96.0064 109.433 95.5604 109.714C95.1172 109.996 94.6001 110.136 94.0092 110.136ZM94.0092 109.233C94.4581 109.233 94.8274 109.118 95.1172 108.888C95.407 108.658 95.6214 108.355 95.7607 107.98C95.8999 107.605 95.9695 107.199 95.9695 106.761C95.9695 106.324 95.8999 105.916 95.7607 105.538C95.6214 105.161 95.407 104.855 95.1172 104.622C94.8274 104.389 94.4581 104.273 94.0092 104.273C93.5604 104.273 93.1911 104.389 92.9013 104.622C92.6115 104.855 92.397 105.161 92.2578 105.538C92.1186 105.916 92.049 106.324 92.049 106.761C92.049 107.199 92.1186 107.605 92.2578 107.98C92.397 108.355 92.6115 108.658 92.9013 108.888C93.1911 109.118 93.5604 109.233 94.0092 109.233ZM99.7706 110L97.7763 103.455H98.8331L100.248 108.466H100.316L101.714 103.455H102.788L104.168 108.449H104.237L105.651 103.455H106.708L104.714 110H103.725L102.293 104.972H102.191L100.759 110H99.7706ZM110.559 110.136C109.929 110.136 109.385 109.997 108.927 109.719C108.473 109.438 108.122 109.045 107.875 108.543C107.63 108.037 107.508 107.449 107.508 106.778C107.508 106.108 107.63 105.517 107.875 105.006C108.122 104.491 108.466 104.091 108.906 103.804C109.349 103.514 109.866 103.369 110.457 103.369C110.798 103.369 111.135 103.426 111.467 103.54C111.799 103.653 112.102 103.838 112.375 104.094C112.647 104.347 112.865 104.682 113.027 105.099C113.189 105.517 113.27 106.031 113.27 106.642V107.068H108.224V106.199H112.247C112.247 105.83 112.173 105.5 112.025 105.21C111.88 104.92 111.673 104.692 111.403 104.524C111.136 104.357 110.821 104.273 110.457 104.273C110.056 104.273 109.71 104.372 109.417 104.571C109.127 104.767 108.904 105.023 108.748 105.338C108.592 105.653 108.514 105.991 108.514 106.352V106.932C108.514 107.426 108.599 107.845 108.77 108.189C108.943 108.53 109.183 108.79 109.49 108.969C109.797 109.145 110.153 109.233 110.559 109.233C110.824 109.233 111.062 109.196 111.275 109.122C111.491 109.045 111.677 108.932 111.833 108.781C111.99 108.628 112.11 108.437 112.196 108.21L113.167 108.483C113.065 108.812 112.893 109.102 112.652 109.352C112.41 109.599 112.112 109.793 111.757 109.932C111.402 110.068 111.002 110.136 110.559 110.136ZM117.271 110.136C116.725 110.136 116.244 109.999 115.826 109.723C115.409 109.445 115.082 109.053 114.846 108.547C114.61 108.038 114.493 107.438 114.493 106.744C114.493 106.057 114.61 105.46 114.846 104.955C115.082 104.449 115.41 104.058 115.831 103.783C116.251 103.507 116.737 103.369 117.288 103.369C117.714 103.369 118.051 103.44 118.298 103.582C118.548 103.722 118.738 103.881 118.869 104.06C119.002 104.236 119.106 104.381 119.18 104.494H119.265V101.273H120.271V110H119.299V108.994H119.18C119.106 109.114 119.001 109.264 118.865 109.446C118.728 109.625 118.534 109.786 118.281 109.928C118.028 110.067 117.691 110.136 117.271 110.136ZM117.407 109.233C117.811 109.233 118.152 109.128 118.43 108.918C118.708 108.705 118.92 108.411 119.065 108.036C119.21 107.658 119.282 107.222 119.282 106.727C119.282 106.239 119.211 105.811 119.069 105.445C118.927 105.075 118.717 104.788 118.439 104.584C118.16 104.376 117.816 104.273 117.407 104.273C116.981 104.273 116.626 104.382 116.342 104.601C116.061 104.817 115.849 105.111 115.707 105.483C115.568 105.852 115.498 106.267 115.498 106.727C115.498 107.193 115.569 107.616 115.711 107.997C115.856 108.375 116.069 108.676 116.35 108.901C116.635 109.122 116.987 109.233 117.407 109.233ZM127.554 110.153C127.139 110.153 126.762 110.075 126.424 109.919C126.086 109.76 125.818 109.531 125.619 109.233C125.42 108.932 125.321 108.568 125.321 108.142C125.321 107.767 125.395 107.463 125.542 107.23C125.69 106.994 125.887 106.81 126.135 106.676C126.382 106.543 126.654 106.443 126.953 106.378C127.254 106.31 127.556 106.256 127.86 106.216C128.258 106.165 128.581 106.126 128.828 106.101C129.078 106.072 129.26 106.026 129.373 105.96C129.49 105.895 129.548 105.781 129.548 105.619V105.585C129.548 105.165 129.433 104.838 129.203 104.605C128.975 104.372 128.63 104.256 128.167 104.256C127.687 104.256 127.311 104.361 127.038 104.571C126.765 104.781 126.574 105.006 126.463 105.244L125.508 104.903C125.679 104.506 125.906 104.196 126.19 103.974C126.477 103.75 126.789 103.594 127.127 103.506C127.468 103.415 127.804 103.369 128.133 103.369C128.343 103.369 128.585 103.395 128.858 103.446C129.133 103.494 129.399 103.595 129.654 103.749C129.913 103.902 130.127 104.134 130.298 104.443C130.468 104.753 130.554 105.168 130.554 105.688V110H129.548V109.114H129.497C129.429 109.256 129.315 109.408 129.156 109.57C128.997 109.732 128.785 109.869 128.521 109.983C128.257 110.097 127.934 110.153 127.554 110.153ZM127.707 109.25C128.105 109.25 128.44 109.172 128.713 109.016C128.988 108.859 129.196 108.658 129.335 108.411C129.477 108.163 129.548 107.903 129.548 107.631V106.71C129.505 106.761 129.412 106.808 129.267 106.851C129.125 106.891 128.96 106.926 128.772 106.957C128.588 106.986 128.407 107.011 128.231 107.034C128.058 107.054 127.917 107.071 127.809 107.085C127.548 107.119 127.304 107.175 127.076 107.251C126.852 107.325 126.67 107.437 126.531 107.588C126.395 107.736 126.326 107.937 126.326 108.193C126.326 108.543 126.456 108.807 126.714 108.986C126.975 109.162 127.306 109.25 127.707 109.25ZM132.389 110V103.455H133.361V104.477H133.446C133.582 104.128 133.803 103.857 134.107 103.663C134.411 103.467 134.776 103.369 135.202 103.369C135.634 103.369 135.993 103.467 136.28 103.663C136.57 103.857 136.795 104.128 136.957 104.477H137.026C137.193 104.139 137.445 103.871 137.78 103.672C138.115 103.47 138.517 103.369 138.986 103.369C139.571 103.369 140.05 103.553 140.422 103.919C140.794 104.283 140.98 104.849 140.98 105.619V110H139.974V105.619C139.974 105.136 139.842 104.791 139.578 104.584C139.314 104.376 139.003 104.273 138.645 104.273C138.185 104.273 137.828 104.412 137.575 104.69C137.322 104.966 137.196 105.315 137.196 105.739V110H136.173V105.517C136.173 105.145 136.053 104.845 135.811 104.618C135.57 104.388 135.259 104.273 134.878 104.273C134.616 104.273 134.372 104.342 134.145 104.482C133.92 104.621 133.739 104.814 133.599 105.061C133.463 105.305 133.395 105.588 133.395 105.909V110H132.389ZM145.478 110.136C144.887 110.136 144.369 109.996 143.923 109.714C143.479 109.433 143.133 109.04 142.883 108.534C142.636 108.028 142.512 107.437 142.512 106.761C142.512 106.08 142.636 105.484 142.883 104.976C143.133 104.467 143.479 104.072 143.923 103.791C144.369 103.51 144.887 103.369 145.478 103.369C146.069 103.369 146.586 103.51 147.029 103.791C147.475 104.072 147.822 104.467 148.069 104.976C148.319 105.484 148.444 106.08 148.444 106.761C148.444 107.437 148.319 108.028 148.069 108.534C147.822 109.04 147.475 109.433 147.029 109.714C146.586 109.996 146.069 110.136 145.478 110.136ZM145.478 109.233C145.927 109.233 146.296 109.118 146.586 108.888C146.876 108.658 147.09 108.355 147.229 107.98C147.369 107.605 147.438 107.199 147.438 106.761C147.438 106.324 147.369 105.916 147.229 105.538C147.09 105.161 146.876 104.855 146.586 104.622C146.296 104.389 145.927 104.273 145.478 104.273C145.029 104.273 144.66 104.389 144.37 104.622C144.08 104.855 143.866 105.161 143.727 105.538C143.587 105.916 143.518 106.324 143.518 106.761C143.518 107.199 143.587 107.605 143.727 107.98C143.866 108.355 144.08 108.658 144.37 108.888C144.66 109.118 145.029 109.233 145.478 109.233ZM154.104 107.324V103.455H155.11V110H154.104V108.892H154.036C153.882 109.224 153.644 109.507 153.32 109.74C152.996 109.97 152.587 110.085 152.093 110.085C151.684 110.085 151.32 109.996 151.002 109.817C150.684 109.635 150.434 109.362 150.252 108.999C150.07 108.632 149.979 108.17 149.979 107.614V103.455H150.985V107.545C150.985 108.023 151.118 108.403 151.385 108.688C151.655 108.972 151.999 109.114 152.417 109.114C152.667 109.114 152.921 109.05 153.179 108.922C153.441 108.794 153.659 108.598 153.836 108.334C154.015 108.07 154.104 107.733 154.104 107.324ZM157.957 106.062V110H156.952V103.455H157.923V104.477H158.009C158.162 104.145 158.395 103.878 158.707 103.676C159.02 103.472 159.423 103.369 159.918 103.369C160.361 103.369 160.749 103.46 161.081 103.642C161.413 103.821 161.672 104.094 161.857 104.46C162.041 104.824 162.134 105.284 162.134 105.841V110H161.128V105.909C161.128 105.395 160.994 104.994 160.727 104.707C160.46 104.418 160.094 104.273 159.628 104.273C159.307 104.273 159.02 104.342 158.767 104.482C158.517 104.621 158.32 104.824 158.175 105.091C158.03 105.358 157.957 105.682 157.957 106.062ZM166.818 103.455V104.307H163.426V103.455H166.818ZM164.414 101.886H165.42V108.125C165.42 108.409 165.461 108.622 165.544 108.764C165.629 108.903 165.737 108.997 165.868 109.045C166.001 109.091 166.142 109.114 166.289 109.114C166.4 109.114 166.491 109.108 166.562 109.097C166.633 109.082 166.69 109.071 166.733 109.062L166.937 109.966C166.869 109.991 166.774 110.017 166.652 110.043C166.529 110.071 166.375 110.085 166.187 110.085C165.903 110.085 165.625 110.024 165.352 109.902C165.082 109.78 164.858 109.594 164.679 109.344C164.502 109.094 164.414 108.778 164.414 108.398V101.886ZM171.842 110V101.273H172.848V104.494H172.933C173.007 104.381 173.109 104.236 173.24 104.06C173.373 103.881 173.564 103.722 173.811 103.582C174.061 103.44 174.399 103.369 174.825 103.369C175.376 103.369 175.862 103.507 176.282 103.783C176.703 104.058 177.031 104.449 177.267 104.955C177.502 105.46 177.62 106.057 177.62 106.744C177.62 107.438 177.502 108.038 177.267 108.547C177.031 109.053 176.704 109.445 176.287 109.723C175.869 109.999 175.387 110.136 174.842 110.136C174.422 110.136 174.085 110.067 173.832 109.928C173.579 109.786 173.385 109.625 173.248 109.446C173.112 109.264 173.007 109.114 172.933 108.994H172.814V110H171.842ZM172.831 106.727C172.831 107.222 172.903 107.658 173.048 108.036C173.193 108.411 173.404 108.705 173.683 108.918C173.961 109.128 174.302 109.233 174.706 109.233C175.126 109.233 175.477 109.122 175.758 108.901C176.042 108.676 176.255 108.375 176.397 107.997C176.542 107.616 176.615 107.193 176.615 106.727C176.615 106.267 176.544 105.852 176.402 105.483C176.262 105.111 176.051 104.817 175.767 104.601C175.485 104.382 175.132 104.273 174.706 104.273C174.297 104.273 173.953 104.376 173.674 104.584C173.396 104.788 173.186 105.075 173.044 105.445C172.902 105.811 172.831 106.239 172.831 106.727ZM179.572 112.455C179.402 112.455 179.25 112.44 179.116 112.412C178.983 112.386 178.89 112.361 178.839 112.335L179.095 111.449C179.339 111.511 179.555 111.534 179.743 111.517C179.93 111.5 180.096 111.416 180.241 111.266C180.389 111.118 180.524 110.878 180.646 110.545L180.833 110.034L178.413 103.455H179.504L181.311 108.67H181.379L183.186 103.455H184.277L181.498 110.955C181.373 111.293 181.218 111.572 181.034 111.794C180.849 112.018 180.635 112.185 180.39 112.293C180.149 112.401 179.876 112.455 179.572 112.455ZM191.826 103.455V104.307H188.434V103.455H191.826ZM189.422 101.886H190.428V108.125C190.428 108.409 190.469 108.622 190.551 108.764C190.637 108.903 190.745 108.997 190.875 109.045C191.009 109.091 191.15 109.114 191.297 109.114C191.408 109.114 191.499 109.108 191.57 109.097C191.641 109.082 191.698 109.071 191.74 109.062L191.945 109.966C191.877 109.991 191.782 110.017 191.659 110.043C191.537 110.071 191.382 110.085 191.195 110.085C190.911 110.085 190.632 110.024 190.36 109.902C190.09 109.78 189.865 109.594 189.686 109.344C189.51 109.094 189.422 108.778 189.422 108.398V101.886ZM194.485 106.062V110H193.479V101.273H194.485V104.477H194.57C194.723 104.139 194.953 103.871 195.26 103.672C195.57 103.47 195.982 103.369 196.496 103.369C196.942 103.369 197.333 103.459 197.668 103.638C198.003 103.814 198.263 104.085 198.448 104.452C198.635 104.815 198.729 105.278 198.729 105.841V110H197.723V105.909C197.723 105.389 197.588 104.987 197.319 104.703C197.051 104.416 196.681 104.273 196.206 104.273C195.877 104.273 195.581 104.342 195.32 104.482C195.061 104.621 194.857 104.824 194.706 105.091C194.559 105.358 194.485 105.682 194.485 106.062ZM203.313 110.136C202.683 110.136 202.138 109.997 201.681 109.719C201.227 109.438 200.876 109.045 200.629 108.543C200.384 108.037 200.262 107.449 200.262 106.778C200.262 106.108 200.384 105.517 200.629 105.006C200.876 104.491 201.219 104.091 201.66 103.804C202.103 103.514 202.62 103.369 203.211 103.369C203.552 103.369 203.888 103.426 204.221 103.54C204.553 103.653 204.856 103.838 205.129 104.094C205.401 104.347 205.619 104.682 205.781 105.099C205.942 105.517 206.023 106.031 206.023 106.642V107.068H200.978V106.199H205.001C205.001 105.83 204.927 105.5 204.779 105.21C204.634 104.92 204.427 104.692 204.157 104.524C203.89 104.357 203.575 104.273 203.211 104.273C202.81 104.273 202.464 104.372 202.171 104.571C201.881 104.767 201.658 105.023 201.502 105.338C201.346 105.653 201.268 105.991 201.268 106.352V106.932C201.268 107.426 201.353 107.845 201.523 108.189C201.697 108.53 201.937 108.79 202.244 108.969C202.55 109.145 202.907 109.233 203.313 109.233C203.577 109.233 203.816 109.196 204.029 109.122C204.245 109.045 204.431 108.932 204.587 108.781C204.744 108.628 204.864 108.437 204.95 108.21L205.921 108.483C205.819 108.812 205.647 109.102 205.406 109.352C205.164 109.599 204.866 109.793 204.511 109.932C204.156 110.068 203.756 110.136 203.313 110.136ZM211.934 101.273V110H210.928V101.273H211.934ZM216.52 110.136C215.89 110.136 215.346 109.997 214.888 109.719C214.434 109.438 214.083 109.045 213.836 108.543C213.591 108.037 213.469 107.449 213.469 106.778C213.469 106.108 213.591 105.517 213.836 105.006C214.083 104.491 214.426 104.091 214.867 103.804C215.31 103.514 215.827 103.369 216.418 103.369C216.759 103.369 217.096 103.426 217.428 103.54C217.76 103.653 218.063 103.838 218.336 104.094C218.608 104.347 218.826 104.682 218.988 105.099C219.15 105.517 219.23 106.031 219.23 106.642V107.068H214.185V106.199H218.208C218.208 105.83 218.134 105.5 217.986 105.21C217.841 104.92 217.634 104.692 217.364 104.524C217.097 104.357 216.782 104.273 216.418 104.273C216.017 104.273 215.671 104.372 215.378 104.571C215.088 104.767 214.865 105.023 214.709 105.338C214.553 105.653 214.475 105.991 214.475 106.352V106.932C214.475 107.426 214.56 107.845 214.73 108.189C214.904 108.53 215.144 108.79 215.451 108.969C215.757 109.145 216.114 109.233 216.52 109.233C216.784 109.233 217.023 109.196 217.236 109.122C217.452 109.045 217.638 108.932 217.794 108.781C217.951 108.628 218.071 108.437 218.157 108.21L219.128 108.483C219.026 108.812 218.854 109.102 218.613 109.352C218.371 109.599 218.073 109.793 217.718 109.932C217.363 110.068 216.963 110.136 216.52 110.136ZM221.766 106.062V110H220.76V103.455H221.732V104.477H221.817C221.971 104.145 222.203 103.878 222.516 103.676C222.828 103.472 223.232 103.369 223.726 103.369C224.169 103.369 224.557 103.46 224.89 103.642C225.222 103.821 225.48 104.094 225.665 104.46C225.85 104.824 225.942 105.284 225.942 105.841V110H224.936V105.909C224.936 105.395 224.803 104.994 224.536 104.707C224.269 104.418 223.902 104.273 223.436 104.273C223.115 104.273 222.828 104.342 222.576 104.482C222.326 104.621 222.128 104.824 221.983 105.091C221.838 105.358 221.766 105.682 221.766 106.062ZM230.251 110.136C229.706 110.136 229.224 109.999 228.807 109.723C228.389 109.445 228.063 109.053 227.827 108.547C227.591 108.038 227.473 107.438 227.473 106.744C227.473 106.057 227.591 105.46 227.827 104.955C228.063 104.449 228.391 104.058 228.811 103.783C229.232 103.507 229.717 103.369 230.268 103.369C230.695 103.369 231.031 103.44 231.278 103.582C231.528 103.722 231.719 103.881 231.849 104.06C231.983 104.236 232.087 104.381 232.161 104.494H232.246V101.273H233.251V110H232.28V108.994H232.161C232.087 109.114 231.982 109.264 231.845 109.446C231.709 109.625 231.514 109.786 231.261 109.928C231.009 110.067 230.672 110.136 230.251 110.136ZM230.388 109.233C230.791 109.233 231.132 109.128 231.411 108.918C231.689 108.705 231.901 108.411 232.045 108.036C232.19 107.658 232.263 107.222 232.263 106.727C232.263 106.239 232.192 105.811 232.05 105.445C231.908 105.075 231.697 104.788 231.419 104.584C231.141 104.376 230.797 104.273 230.388 104.273C229.962 104.273 229.607 104.382 229.322 104.601C229.041 104.817 228.83 105.111 228.688 105.483C228.548 105.852 228.479 106.267 228.479 106.727C228.479 107.193 228.55 107.616 228.692 107.997C228.837 108.375 229.05 108.676 229.331 108.901C229.615 109.122 229.967 109.233 230.388 109.233ZM237.977 110.136C237.347 110.136 236.803 109.997 236.345 109.719C235.891 109.438 235.54 109.045 235.293 108.543C235.048 108.037 234.926 107.449 234.926 106.778C234.926 106.108 235.048 105.517 235.293 105.006C235.54 104.491 235.884 104.091 236.324 103.804C236.767 103.514 237.284 103.369 237.875 103.369C238.216 103.369 238.553 103.426 238.885 103.54C239.217 103.653 239.52 103.838 239.793 104.094C240.065 104.347 240.283 104.682 240.445 105.099C240.607 105.517 240.688 106.031 240.688 106.642V107.068H235.642V106.199H239.665C239.665 105.83 239.591 105.5 239.443 105.21C239.298 104.92 239.091 104.692 238.821 104.524C238.554 104.357 238.239 104.273 237.875 104.273C237.474 104.273 237.128 104.372 236.835 104.571C236.545 104.767 236.322 105.023 236.166 105.338C236.01 105.653 235.932 105.991 235.932 106.352V106.932C235.932 107.426 236.017 107.845 236.188 108.189C236.361 108.53 236.601 108.79 236.908 108.969C237.214 109.145 237.571 109.233 237.977 109.233C238.241 109.233 238.48 109.196 238.693 109.122C238.909 109.045 239.095 108.932 239.251 108.781C239.408 108.628 239.528 108.437 239.614 108.21L240.585 108.483C240.483 108.812 240.311 109.102 240.07 109.352C239.828 109.599 239.53 109.793 239.175 109.932C238.82 110.068 238.42 110.136 237.977 110.136ZM242.217 110V103.455H243.189V104.443H243.257C243.376 104.119 243.592 103.857 243.905 103.655C244.217 103.453 244.57 103.352 244.962 103.352C245.036 103.352 245.128 103.354 245.239 103.357C245.349 103.359 245.433 103.364 245.49 103.369V104.392C245.456 104.384 245.378 104.371 245.256 104.354C245.136 104.334 245.01 104.324 244.876 104.324C244.558 104.324 244.274 104.391 244.024 104.524C243.777 104.655 243.581 104.837 243.436 105.07C243.294 105.3 243.223 105.562 243.223 105.858V110H242.217ZM250.057 110V103.455H251.063V110H250.057ZM250.569 102.364C250.373 102.364 250.203 102.297 250.061 102.163C249.922 102.03 249.853 101.869 249.853 101.682C249.853 101.494 249.922 101.334 250.061 101.2C250.203 101.067 250.373 101 250.569 101C250.765 101 250.932 101.067 251.071 101.2C251.213 101.334 251.284 101.494 251.284 101.682C251.284 101.869 251.213 102.03 251.071 102.163C250.932 102.297 250.765 102.364 250.569 102.364ZM257.541 104.92L256.638 105.176C256.581 105.026 256.497 104.879 256.386 104.737C256.278 104.592 256.131 104.473 255.943 104.379C255.756 104.286 255.516 104.239 255.223 104.239C254.822 104.239 254.489 104.331 254.222 104.516C253.957 104.697 253.825 104.929 253.825 105.21C253.825 105.46 253.916 105.658 254.098 105.803C254.28 105.947 254.564 106.068 254.95 106.165L255.922 106.403C256.507 106.545 256.943 106.763 257.23 107.055C257.517 107.345 257.661 107.719 257.661 108.176C257.661 108.551 257.553 108.886 257.337 109.182C257.124 109.477 256.825 109.71 256.442 109.881C256.058 110.051 255.612 110.136 255.104 110.136C254.436 110.136 253.884 109.991 253.446 109.702C253.009 109.412 252.732 108.989 252.615 108.432L253.57 108.193C253.661 108.545 253.832 108.81 254.085 108.986C254.341 109.162 254.675 109.25 255.087 109.25C255.555 109.25 255.928 109.151 256.203 108.952C256.482 108.75 256.621 108.509 256.621 108.227C256.621 108 256.541 107.81 256.382 107.656C256.223 107.5 255.979 107.384 255.649 107.307L254.558 107.051C253.959 106.909 253.518 106.689 253.237 106.391C252.959 106.089 252.82 105.713 252.82 105.261C252.82 104.892 252.923 104.565 253.131 104.281C253.341 103.997 253.626 103.774 253.987 103.612C254.351 103.45 254.763 103.369 255.223 103.369C255.871 103.369 256.379 103.511 256.749 103.795C257.121 104.08 257.385 104.455 257.541 104.92ZM268.191 110H262.413V109.062H268.191V110ZM266.35 106.608H262.379V105.636H266.35V106.608ZM264.237 103.915L264.373 107.614C264.39 107.972 264.358 108.303 264.275 108.607C264.196 108.908 264.041 109.139 263.811 109.301L262.754 109.062C262.924 109.062 263.055 108.977 263.146 108.807C263.237 108.636 263.298 108.437 263.329 108.21C263.36 107.983 263.373 107.784 263.368 107.614L263.248 103.915C263.225 103.295 263.338 102.781 263.585 102.372C263.835 101.963 264.162 101.658 264.565 101.456C264.971 101.254 265.396 101.153 265.839 101.153C266.245 101.153 266.615 101.227 266.947 101.375C267.279 101.52 267.559 101.716 267.787 101.963C268.014 102.21 268.173 102.489 268.264 102.798C268.355 103.105 268.359 103.42 268.277 103.744L267.288 103.472C267.328 103.176 267.282 102.926 267.152 102.722C267.024 102.514 266.845 102.358 266.615 102.253C266.387 102.145 266.146 102.091 265.89 102.091C265.618 102.091 265.355 102.156 265.102 102.287C264.849 102.415 264.642 102.614 264.48 102.884C264.318 103.151 264.237 103.494 264.237 103.915ZM273 110.119C272.642 110.114 272.284 110.045 271.926 109.915C271.569 109.784 271.242 109.564 270.946 109.254C270.651 108.942 270.414 108.52 270.235 107.989C270.056 107.455 269.966 106.784 269.966 105.977C269.966 105.205 270.039 104.52 270.184 103.923C270.328 103.324 270.539 102.82 270.814 102.411C271.09 101.999 271.422 101.686 271.811 101.473C272.203 101.26 272.645 101.153 273.137 101.153C273.625 101.153 274.06 101.251 274.441 101.447C274.824 101.641 275.137 101.911 275.378 102.257C275.62 102.604 275.776 103.003 275.847 103.455H274.807C274.711 103.062 274.523 102.737 274.245 102.479C273.966 102.22 273.597 102.091 273.137 102.091C272.461 102.091 271.928 102.385 271.539 102.973C271.152 103.561 270.958 104.386 270.955 105.449H271.023C271.182 105.207 271.371 105.001 271.59 104.831C271.811 104.658 272.056 104.524 272.323 104.43C272.59 104.337 272.873 104.29 273.171 104.29C273.671 104.29 274.128 104.415 274.543 104.665C274.958 104.912 275.29 105.254 275.54 105.692C275.79 106.126 275.915 106.625 275.915 107.188C275.915 107.727 275.794 108.222 275.553 108.67C275.311 109.116 274.972 109.472 274.534 109.736C274.1 109.997 273.588 110.125 273 110.119ZM273 109.182C273.358 109.182 273.679 109.092 273.963 108.913C274.25 108.734 274.476 108.494 274.641 108.193C274.809 107.892 274.892 107.557 274.892 107.188C274.892 106.827 274.811 106.499 274.65 106.203C274.49 105.905 274.27 105.668 273.989 105.491C273.711 105.315 273.392 105.227 273.034 105.227C272.765 105.227 272.513 105.281 272.28 105.389C272.047 105.494 271.843 105.639 271.667 105.824C271.493 106.009 271.357 106.22 271.257 106.459C271.158 106.695 271.108 106.943 271.108 107.205C271.108 107.551 271.189 107.875 271.351 108.176C271.516 108.477 271.74 108.72 272.025 108.905C272.311 109.089 272.637 109.182 273 109.182ZM280.438 110.119C279.795 110.119 279.249 109.945 278.797 109.595C278.345 109.243 278 108.733 277.761 108.065C277.523 107.395 277.403 106.585 277.403 105.636C277.403 104.693 277.523 103.888 277.761 103.22C278.003 102.55 278.349 102.038 278.801 101.686C279.256 101.331 279.801 101.153 280.438 101.153C281.074 101.153 281.618 101.331 282.07 101.686C282.524 102.038 282.871 102.55 283.109 103.22C283.351 103.888 283.472 104.693 283.472 105.636C283.472 106.585 283.352 107.395 283.114 108.065C282.875 108.733 282.53 109.243 282.078 109.595C281.626 109.945 281.08 110.119 280.438 110.119ZM280.438 109.182C281.074 109.182 281.568 108.875 281.92 108.261C282.273 107.648 282.449 106.773 282.449 105.636C282.449 104.881 282.368 104.237 282.206 103.706C282.047 103.175 281.817 102.77 281.516 102.491C281.217 102.213 280.858 102.074 280.438 102.074C279.807 102.074 279.314 102.385 278.959 103.007C278.604 103.626 278.426 104.503 278.426 105.636C278.426 106.392 278.506 107.034 278.665 107.562C278.824 108.091 279.053 108.493 279.351 108.768C279.652 109.044 280.014 109.182 280.438 109.182ZM286.303 108.807L286.235 109.267C286.187 109.591 286.113 109.938 286.013 110.307C285.917 110.676 285.816 111.024 285.711 111.351C285.606 111.678 285.519 111.938 285.451 112.131H284.684C284.721 111.949 284.769 111.709 284.829 111.411C284.888 111.112 284.948 110.778 285.008 110.409C285.07 110.043 285.121 109.668 285.161 109.284L285.212 108.807H286.303ZM290.691 110.119C290.049 110.119 289.502 109.945 289.051 109.595C288.599 109.243 288.254 108.733 288.015 108.065C287.777 107.395 287.657 106.585 287.657 105.636C287.657 104.693 287.777 103.888 288.015 103.22C288.257 102.55 288.603 102.038 289.055 101.686C289.51 101.331 290.055 101.153 290.691 101.153C291.328 101.153 291.872 101.331 292.324 101.686C292.778 102.038 293.125 102.55 293.363 103.22C293.605 103.888 293.725 104.693 293.725 105.636C293.725 106.585 293.606 107.395 293.368 108.065C293.129 108.733 292.784 109.243 292.332 109.595C291.88 109.945 291.333 110.119 290.691 110.119ZM290.691 109.182C291.328 109.182 291.822 108.875 292.174 108.261C292.527 107.648 292.703 106.773 292.703 105.636C292.703 104.881 292.622 104.237 292.46 103.706C292.301 103.175 292.071 102.77 291.77 102.491C291.471 102.213 291.112 102.074 290.691 102.074C290.061 102.074 289.568 102.385 289.213 103.007C288.858 103.626 288.68 104.503 288.68 105.636C288.68 106.392 288.76 107.034 288.919 107.562C289.078 108.091 289.306 108.493 289.605 108.768C289.906 109.044 290.268 109.182 290.691 109.182ZM298.191 110.119C297.549 110.119 297.002 109.945 296.551 109.595C296.099 109.243 295.754 108.733 295.515 108.065C295.277 107.395 295.157 106.585 295.157 105.636C295.157 104.693 295.277 103.888 295.515 103.22C295.757 102.55 296.103 102.038 296.555 101.686C297.01 101.331 297.555 101.153 298.191 101.153C298.828 101.153 299.372 101.331 299.824 101.686C300.278 102.038 300.625 102.55 300.863 103.22C301.105 103.888 301.225 104.693 301.225 105.636C301.225 106.585 301.106 107.395 300.868 108.065C300.629 108.733 300.284 109.243 299.832 109.595C299.38 109.945 298.833 110.119 298.191 110.119ZM298.191 109.182C298.828 109.182 299.322 108.875 299.674 108.261C300.027 107.648 300.203 106.773 300.203 105.636C300.203 104.881 300.122 104.237 299.96 103.706C299.801 103.175 299.571 102.77 299.27 102.491C298.971 102.213 298.612 102.074 298.191 102.074C297.561 102.074 297.068 102.385 296.713 103.007C296.358 103.626 296.18 104.503 296.18 105.636C296.18 106.392 296.26 107.034 296.419 107.562C296.578 108.091 296.806 108.493 297.105 108.768C297.406 109.044 297.768 109.182 298.191 109.182ZM305.691 110.119C305.049 110.119 304.502 109.945 304.051 109.595C303.599 109.243 303.254 108.733 303.015 108.065C302.777 107.395 302.657 106.585 302.657 105.636C302.657 104.693 302.777 103.888 303.015 103.22C303.257 102.55 303.603 102.038 304.055 101.686C304.51 101.331 305.055 101.153 305.691 101.153C306.328 101.153 306.872 101.331 307.324 101.686C307.778 102.038 308.125 102.55 308.363 103.22C308.605 103.888 308.725 104.693 308.725 105.636C308.725 106.585 308.606 107.395 308.368 108.065C308.129 108.733 307.784 109.243 307.332 109.595C306.88 109.945 306.333 110.119 305.691 110.119ZM305.691 109.182C306.328 109.182 306.822 108.875 307.174 108.261C307.527 107.648 307.703 106.773 307.703 105.636C307.703 104.881 307.622 104.237 307.46 103.706C307.301 103.175 307.071 102.77 306.77 102.491C306.471 102.213 306.112 102.074 305.691 102.074C305.061 102.074 304.568 102.385 304.213 103.007C303.858 103.626 303.68 104.503 303.68 105.636C303.68 106.392 303.76 107.034 303.919 107.562C304.078 108.091 304.306 108.493 304.605 108.768C304.906 109.044 305.268 109.182 305.691 109.182ZM310.79 110.068C310.58 110.068 310.4 109.993 310.249 109.842C310.098 109.692 310.023 109.511 310.023 109.301C310.023 109.091 310.098 108.911 310.249 108.76C310.4 108.609 310.58 108.534 310.79 108.534C311 108.534 311.181 108.609 311.331 108.76C311.482 108.911 311.557 109.091 311.557 109.301C311.557 109.44 311.522 109.568 311.451 109.685C311.382 109.801 311.29 109.895 311.174 109.966C311.06 110.034 310.932 110.068 310.79 110.068ZM315.887 110.119C315.245 110.119 314.698 109.945 314.246 109.595C313.794 109.243 313.449 108.733 313.211 108.065C312.972 107.395 312.853 106.585 312.853 105.636C312.853 104.693 312.972 103.888 313.211 103.22C313.452 102.55 313.799 102.038 314.25 101.686C314.705 101.331 315.25 101.153 315.887 101.153C316.523 101.153 317.067 101.331 317.519 101.686C317.973 102.038 318.32 102.55 318.559 103.22C318.8 103.888 318.921 104.693 318.921 105.636C318.921 106.585 318.801 107.395 318.563 108.065C318.324 108.733 317.979 109.243 317.527 109.595C317.076 109.945 316.529 110.119 315.887 110.119ZM315.887 109.182C316.523 109.182 317.017 108.875 317.37 108.261C317.722 107.648 317.898 106.773 317.898 105.636C317.898 104.881 317.817 104.237 317.655 103.706C317.496 103.175 317.266 102.77 316.965 102.491C316.667 102.213 316.307 102.074 315.887 102.074C315.256 102.074 314.763 102.385 314.408 103.007C314.053 103.626 313.875 104.503 313.875 105.636C313.875 106.392 313.955 107.034 314.114 107.562C314.273 108.091 314.502 108.493 314.8 108.768C315.101 109.044 315.463 109.182 315.887 109.182ZM323.387 110.119C322.745 110.119 322.198 109.945 321.746 109.595C321.294 109.243 320.949 108.733 320.711 108.065C320.472 107.395 320.353 106.585 320.353 105.636C320.353 104.693 320.472 103.888 320.711 103.22C320.952 102.55 321.299 102.038 321.75 101.686C322.205 101.331 322.75 101.153 323.387 101.153C324.023 101.153 324.567 101.331 325.019 101.686C325.473 102.038 325.82 102.55 326.059 103.22C326.3 103.888 326.421 104.693 326.421 105.636C326.421 106.585 326.301 107.395 326.063 108.065C325.824 108.733 325.479 109.243 325.027 109.595C324.576 109.945 324.029 110.119 323.387 110.119ZM323.387 109.182C324.023 109.182 324.517 108.875 324.87 108.261C325.222 107.648 325.398 106.773 325.398 105.636C325.398 104.881 325.317 104.237 325.155 103.706C324.996 103.175 324.766 102.77 324.465 102.491C324.167 102.213 323.807 102.074 323.387 102.074C322.756 102.074 322.263 102.385 321.908 103.007C321.553 103.626 321.375 104.503 321.375 105.636C321.375 106.392 321.455 107.034 321.614 107.562C321.773 108.091 322.002 108.493 322.3 108.768C322.601 109.044 322.963 109.182 323.387 109.182Z" fill="#6B7280"/>
<path d="M20 144C20 139.582 23.5817 136 28 136H239C243.418 136 247 139.582 247 144V168C247 172.418 243.418 176 239 176H28C23.5817 176 20 172.418 20 168V144Z" fill="#0073DE"/>
<path d="M77.8118 160.5H75.843L79.4276 150.318H81.7045L85.294 160.5H83.3253L80.6058 152.406H80.5263L77.8118 160.5ZM77.8764 156.508H83.2457V157.989H77.8764V156.508ZM89.6541 160.649C88.8918 160.649 88.2372 160.482 87.6903 160.147C87.1468 159.812 86.7275 159.35 86.4325 158.76C86.1409 158.167 85.995 157.484 85.995 156.712C85.995 155.936 86.1442 155.252 86.4425 154.658C86.7408 154.062 87.1617 153.598 87.7053 153.266C88.2521 152.932 88.8984 152.764 89.6442 152.764C90.264 152.764 90.8125 152.879 91.2898 153.107C91.7704 153.333 92.1532 153.652 92.4382 154.067C92.7232 154.478 92.8857 154.958 92.9254 155.509H91.2053C91.1357 155.141 90.9699 154.834 90.7081 154.589C90.4496 154.34 90.1032 154.216 89.669 154.216C89.3011 154.216 88.978 154.315 88.6996 154.514C88.4212 154.71 88.2041 154.991 88.0483 155.359C87.8958 155.727 87.8196 156.168 87.8196 156.682C87.8196 157.202 87.8958 157.65 88.0483 158.024C88.2008 158.395 88.4145 158.682 88.6896 158.884C88.968 159.083 89.2945 159.183 89.669 159.183C89.9342 159.183 90.1712 159.133 90.38 159.033C90.5921 158.931 90.7694 158.783 90.9119 158.591C91.0545 158.399 91.1522 158.165 91.2053 157.89H92.9254C92.8823 158.43 92.7232 158.909 92.4482 159.327C92.1731 159.741 91.7985 160.066 91.3246 160.301C90.8506 160.533 90.2938 160.649 89.6541 160.649ZM97.7342 160.649C96.9719 160.649 96.3173 160.482 95.7704 160.147C95.2269 159.812 94.8076 159.35 94.5126 158.76C94.2209 158.167 94.0751 157.484 94.0751 156.712C94.0751 155.936 94.2243 155.252 94.5225 154.658C94.8208 154.062 95.2418 153.598 95.7853 153.266C96.3322 152.932 96.9785 152.764 97.7243 152.764C98.344 152.764 98.8926 152.879 99.3699 153.107C99.8504 153.333 100.233 153.652 100.518 154.067C100.803 154.478 100.966 154.958 101.006 155.509H99.2853C99.2157 155.141 99.05 154.834 98.7882 154.589C98.5297 154.34 98.1833 154.216 97.7491 154.216C97.3812 154.216 97.0581 154.315 96.7797 154.514C96.5012 154.71 96.2842 154.991 96.1284 155.359C95.9759 155.727 95.8997 156.168 95.8997 156.682C95.8997 157.202 95.9759 157.65 96.1284 158.024C96.2808 158.395 96.4946 158.682 96.7697 158.884C97.0481 159.083 97.3746 159.183 97.7491 159.183C98.0143 159.183 98.2512 159.133 98.46 159.033C98.6722 158.931 98.8495 158.783 98.992 158.591C99.1345 158.399 99.2323 158.165 99.2853 157.89H101.006C100.962 158.43 100.803 158.909 100.528 159.327C100.253 159.741 99.8786 160.066 99.4047 160.301C98.9307 160.533 98.3739 160.649 97.7342 160.649ZM105.864 160.649C105.098 160.649 104.437 160.49 103.88 160.172C103.327 159.85 102.901 159.396 102.603 158.81C102.304 158.22 102.155 157.525 102.155 156.727C102.155 155.941 102.304 155.252 102.603 154.658C102.904 154.062 103.325 153.598 103.865 153.266C104.406 152.932 105.04 152.764 105.77 152.764C106.24 152.764 106.684 152.84 107.102 152.993C107.523 153.142 107.894 153.374 108.216 153.689C108.54 154.004 108.796 154.405 108.981 154.892C109.167 155.376 109.26 155.953 109.26 156.622V157.174H103V155.961H107.534C107.531 155.616 107.457 155.31 107.311 155.041C107.165 154.769 106.961 154.556 106.699 154.4C106.441 154.244 106.139 154.166 105.794 154.166C105.426 154.166 105.103 154.256 104.825 154.435C104.547 154.61 104.329 154.842 104.174 155.131C104.021 155.416 103.943 155.729 103.94 156.07V157.129C103.94 157.573 104.021 157.955 104.184 158.273C104.346 158.588 104.573 158.83 104.865 158.999C105.156 159.164 105.498 159.247 105.889 159.247C106.151 159.247 106.388 159.211 106.6 159.138C106.812 159.062 106.996 158.951 107.152 158.805C107.307 158.659 107.425 158.478 107.505 158.263L109.185 158.452C109.079 158.896 108.877 159.284 108.578 159.615C108.283 159.943 107.906 160.198 107.445 160.381C106.984 160.56 106.457 160.649 105.864 160.649ZM110.782 163.364V152.864H112.552V154.126H112.656C112.749 153.941 112.88 153.744 113.049 153.535C113.218 153.323 113.447 153.142 113.735 152.993C114.024 152.84 114.392 152.764 114.839 152.764C115.429 152.764 115.961 152.915 116.435 153.217C116.912 153.515 117.29 153.957 117.568 154.544C117.85 155.127 117.991 155.843 117.991 156.692C117.991 157.53 117.853 158.243 117.578 158.83C117.303 159.416 116.929 159.864 116.455 160.172C115.981 160.48 115.444 160.634 114.844 160.634C114.406 160.634 114.044 160.561 113.755 160.415C113.467 160.27 113.235 160.094 113.059 159.888C112.887 159.68 112.753 159.482 112.656 159.297H112.582V163.364H110.782ZM112.547 156.682C112.547 157.176 112.617 157.608 112.756 157.979C112.898 158.351 113.102 158.641 113.367 158.849C113.636 159.055 113.961 159.158 114.342 159.158C114.74 159.158 115.073 159.052 115.341 158.839C115.61 158.624 115.812 158.331 115.948 157.96C116.087 157.585 116.156 157.159 116.156 156.682C116.156 156.208 116.088 155.787 115.953 155.419C115.817 155.051 115.615 154.763 115.346 154.554C115.078 154.345 114.743 154.241 114.342 154.241C113.957 154.241 113.631 154.342 113.362 154.544C113.094 154.746 112.89 155.03 112.751 155.394C112.615 155.759 112.547 156.188 112.547 156.682ZM123.345 152.864V154.256H118.955V152.864H123.345ZM120.039 151.034H121.839V158.203C121.839 158.445 121.875 158.631 121.948 158.76C122.025 158.886 122.124 158.972 122.247 159.018C122.369 159.065 122.505 159.088 122.654 159.088C122.767 159.088 122.87 159.08 122.963 159.063C123.059 159.047 123.132 159.032 123.181 159.018L123.485 160.425C123.388 160.459 123.251 160.495 123.072 160.535C122.896 160.575 122.681 160.598 122.426 160.604C121.975 160.618 121.569 160.55 121.208 160.401C120.846 160.248 120.56 160.013 120.347 159.695C120.139 159.376 120.036 158.979 120.039 158.501V151.034ZM130.247 150.318V160.5H128.403V150.318H130.247ZM133.965 156.026V160.5H132.165V152.864H133.885V154.161H133.975C134.15 153.734 134.43 153.394 134.815 153.142C135.203 152.89 135.682 152.764 136.252 152.764C136.779 152.764 137.238 152.877 137.629 153.102C138.023 153.328 138.328 153.654 138.544 154.082C138.762 154.509 138.87 155.028 138.867 155.638V160.5H137.067V155.916C137.067 155.406 136.934 155.006 136.669 154.718C136.407 154.43 136.044 154.286 135.58 154.286C135.266 154.286 134.985 154.355 134.74 154.494C134.498 154.63 134.308 154.827 134.169 155.086C134.033 155.344 133.965 155.658 133.965 156.026ZM147.244 152.864L144.524 160.5H142.536L139.816 152.864H141.735L143.49 158.536H143.57L145.33 152.864H147.244ZM148.489 160.5V152.864H150.289V160.5H148.489ZM149.394 151.78C149.109 151.78 148.864 151.685 148.658 151.496C148.453 151.304 148.35 151.074 148.35 150.805C148.35 150.534 148.453 150.303 148.658 150.114C148.864 149.922 149.109 149.826 149.394 149.826C149.682 149.826 149.928 149.922 150.13 150.114C150.335 150.303 150.438 150.534 150.438 150.805C150.438 151.074 150.335 151.304 150.13 151.496C149.928 151.685 149.682 151.78 149.394 151.78ZM155.953 152.864V154.256H151.563V152.864H155.953ZM152.647 151.034H154.446V158.203C154.446 158.445 154.483 158.631 154.556 158.76C154.632 158.886 154.731 158.972 154.854 159.018C154.977 159.065 155.113 159.088 155.262 159.088C155.374 159.088 155.477 159.08 155.57 159.063C155.666 159.047 155.739 159.032 155.789 159.018L156.092 160.425C155.996 160.459 155.858 160.495 155.679 160.535C155.504 160.575 155.288 160.598 155.033 160.604C154.582 160.618 154.176 160.55 153.815 160.401C153.454 160.248 153.167 160.013 152.955 159.695C152.746 159.376 152.643 158.979 152.647 158.501V151.034ZM159.655 160.654C159.171 160.654 158.736 160.568 158.348 160.396C157.963 160.22 157.658 159.961 157.433 159.62C157.211 159.279 157.1 158.858 157.1 158.357C157.1 157.926 157.18 157.57 157.339 157.288C157.498 157.007 157.715 156.781 157.99 156.612C158.265 156.443 158.575 156.316 158.92 156.229C159.268 156.14 159.627 156.075 159.998 156.036C160.446 155.989 160.809 155.948 161.087 155.911C161.366 155.871 161.568 155.812 161.694 155.732C161.823 155.649 161.888 155.522 161.888 155.349V155.32C161.888 154.945 161.777 154.655 161.555 154.45C161.332 154.244 161.013 154.141 160.595 154.141C160.154 154.141 159.805 154.237 159.546 154.43C159.291 154.622 159.118 154.849 159.029 155.111L157.349 154.872C157.481 154.408 157.7 154.02 158.005 153.709C158.31 153.394 158.683 153.159 159.123 153.003C159.564 152.844 160.051 152.764 160.585 152.764C160.953 152.764 161.319 152.807 161.684 152.893C162.048 152.98 162.381 153.122 162.683 153.321C162.985 153.517 163.227 153.783 163.409 154.121C163.595 154.46 163.687 154.882 163.687 155.389V160.5H161.957V159.451H161.898C161.788 159.663 161.634 159.862 161.435 160.048C161.24 160.23 160.993 160.377 160.694 160.49C160.399 160.599 160.053 160.654 159.655 160.654ZM160.123 159.332C160.484 159.332 160.797 159.26 161.062 159.118C161.327 158.972 161.531 158.78 161.674 158.541C161.82 158.303 161.893 158.042 161.893 157.761V156.861C161.836 156.907 161.74 156.95 161.604 156.99C161.472 157.03 161.323 157.065 161.157 157.094C160.991 157.124 160.827 157.151 160.665 157.174C160.502 157.197 160.361 157.217 160.242 157.234C159.974 157.27 159.733 157.33 159.521 157.413C159.309 157.496 159.142 157.612 159.019 157.761C158.896 157.906 158.835 158.095 158.835 158.327C158.835 158.659 158.956 158.909 159.198 159.078C159.44 159.247 159.748 159.332 160.123 159.332ZM169.31 152.864V154.256H164.92V152.864H169.31ZM166.004 151.034H167.804V158.203C167.804 158.445 167.84 158.631 167.913 158.76C167.989 158.886 168.089 158.972 168.211 159.018C168.334 159.065 168.47 159.088 168.619 159.088C168.732 159.088 168.835 159.08 168.927 159.063C169.023 159.047 169.096 159.032 169.146 159.018L169.449 160.425C169.353 160.459 169.216 160.495 169.037 160.535C168.861 160.575 168.646 160.598 168.39 160.604C167.94 160.618 167.534 160.55 167.172 160.401C166.811 160.248 166.524 160.013 166.312 159.695C166.104 159.376 166.001 158.979 166.004 158.501V151.034ZM170.815 160.5V152.864H172.615V160.5H170.815ZM171.72 151.78C171.435 151.78 171.19 151.685 170.984 151.496C170.779 151.304 170.676 151.074 170.676 150.805C170.676 150.534 170.779 150.303 170.984 150.114C171.19 149.922 171.435 149.826 171.72 149.826C172.009 149.826 172.254 149.922 172.456 150.114C172.661 150.303 172.764 150.534 172.764 150.805C172.764 151.074 172.661 151.304 172.456 151.496C172.254 151.685 172.009 151.78 171.72 151.78ZM177.797 160.649C177.051 160.649 176.405 160.485 175.858 160.157C175.311 159.829 174.887 159.37 174.585 158.78C174.287 158.19 174.138 157.5 174.138 156.712C174.138 155.923 174.287 155.232 174.585 154.638C174.887 154.045 175.311 153.585 175.858 153.256C176.405 152.928 177.051 152.764 177.797 152.764C178.542 152.764 179.189 152.928 179.736 153.256C180.282 153.585 180.705 154.045 181.003 154.638C181.305 155.232 181.456 155.923 181.456 156.712C181.456 157.5 181.305 158.19 181.003 158.78C180.705 159.37 180.282 159.829 179.736 160.157C179.189 160.485 178.542 160.649 177.797 160.649ZM177.807 159.207C178.211 159.207 178.549 159.096 178.821 158.874C179.093 158.649 179.295 158.347 179.427 157.969C179.563 157.592 179.631 157.171 179.631 156.707C179.631 156.239 179.563 155.817 179.427 155.439C179.295 155.058 179.093 154.754 178.821 154.529C178.549 154.304 178.211 154.191 177.807 154.191C177.392 154.191 177.048 154.304 176.773 154.529C176.501 154.754 176.297 155.058 176.161 155.439C176.028 155.817 175.962 156.239 175.962 156.707C175.962 157.171 176.028 157.592 176.161 157.969C176.297 158.347 176.501 158.649 176.773 158.874C177.048 159.096 177.392 159.207 177.807 159.207ZM184.783 156.026V160.5H182.983V152.864H184.703V154.161H184.793C184.969 153.734 185.249 153.394 185.633 153.142C186.021 152.89 186.5 152.764 187.07 152.764C187.597 152.764 188.056 152.877 188.447 153.102C188.842 153.328 189.146 153.654 189.362 154.082C189.581 154.509 189.688 155.028 189.685 155.638V160.5H187.885V155.916C187.885 155.406 187.753 155.006 187.488 154.718C187.226 154.43 186.863 154.286 186.399 154.286C186.084 154.286 185.804 154.355 185.559 154.494C185.317 154.63 185.126 154.827 184.987 155.086C184.851 155.344 184.783 155.658 184.783 156.026Z" fill="white"/>
<path d="M257 144C257 139.582 260.582 136 265 136H476C480.418 136 484 139.582 484 144V168C484 172.418 480.418 176 476 176H265C260.582 176 257 172.418 257 168V144Z" fill="#EA4335"/>
<path d="M316.504 160.5V150.318H320.322C321.105 150.318 321.761 150.454 322.291 150.726C322.825 150.998 323.228 151.379 323.499 151.869C323.774 152.357 323.912 152.925 323.912 153.575C323.912 154.228 323.773 154.794 323.494 155.275C323.219 155.752 322.813 156.122 322.276 156.384C321.739 156.642 321.08 156.771 320.298 156.771H317.578V155.24H320.049C320.506 155.24 320.881 155.177 321.173 155.051C321.464 154.922 321.68 154.735 321.819 154.489C321.961 154.241 322.033 153.936 322.033 153.575C322.033 153.213 321.961 152.905 321.819 152.65C321.676 152.391 321.459 152.196 321.168 152.063C320.876 151.927 320.5 151.859 320.039 151.859H318.349V160.5H316.504ZM321.764 155.886L324.285 160.5H322.227L319.751 155.886H321.764ZM328.801 160.649C328.036 160.649 327.375 160.49 326.818 160.172C326.264 159.85 325.838 159.396 325.54 158.81C325.242 158.22 325.093 157.525 325.093 156.727C325.093 155.941 325.242 155.252 325.54 154.658C325.842 154.062 326.263 153.598 326.803 153.266C327.343 152.932 327.978 152.764 328.707 152.764C329.178 152.764 329.622 152.84 330.039 152.993C330.46 153.142 330.832 153.374 331.153 153.689C331.478 154.004 331.733 154.405 331.919 154.892C332.104 155.376 332.197 155.953 332.197 156.622V157.174H325.938V155.961H330.472C330.469 155.616 330.394 155.31 330.248 155.041C330.102 154.769 329.899 154.556 329.637 154.4C329.378 154.244 329.077 154.166 328.732 154.166C328.364 154.166 328.041 154.256 327.762 154.435C327.484 154.61 327.267 154.842 327.111 155.131C326.959 155.416 326.881 155.729 326.877 156.07V157.129C326.877 157.573 326.959 157.955 327.121 158.273C327.283 158.588 327.511 158.83 327.802 158.999C328.094 159.164 328.435 159.247 328.826 159.247C329.088 159.247 329.325 159.211 329.537 159.138C329.749 159.062 329.933 158.951 330.089 158.805C330.245 158.659 330.363 158.478 330.442 158.263L332.123 158.452C332.016 158.896 331.814 159.284 331.516 159.615C331.221 159.943 330.843 160.198 330.382 160.381C329.922 160.56 329.395 160.649 328.801 160.649ZM333.72 152.864H335.519V160.938C335.519 161.488 335.415 161.942 335.206 162.3C334.997 162.658 334.696 162.924 334.301 163.1C333.907 163.276 333.428 163.364 332.865 163.364C332.798 163.364 332.737 163.362 332.681 163.359C332.624 163.359 332.563 163.357 332.497 163.354V161.887C332.546 161.89 332.591 161.892 332.631 161.892C332.671 161.895 332.712 161.897 332.755 161.897C333.1 161.897 333.347 161.813 333.496 161.643C333.645 161.478 333.72 161.234 333.72 160.913V152.864ZM334.615 151.78C334.326 151.78 334.079 151.685 333.874 151.496C333.672 151.304 333.57 151.074 333.57 150.805C333.57 150.534 333.672 150.303 333.874 150.114C334.079 149.922 334.326 149.826 334.615 149.826C334.9 149.826 335.143 149.922 335.345 150.114C335.551 150.303 335.654 150.534 335.654 150.805C335.654 151.074 335.551 151.304 335.345 151.496C335.143 151.685 334.9 151.78 334.615 151.78ZM340.751 160.649C339.985 160.649 339.324 160.49 338.767 160.172C338.214 159.85 337.788 159.396 337.489 158.81C337.191 158.22 337.042 157.525 337.042 156.727C337.042 155.941 337.191 155.252 337.489 154.658C337.791 154.062 338.212 153.598 338.752 153.266C339.292 152.932 339.927 152.764 340.656 152.764C341.127 152.764 341.571 152.84 341.989 152.993C342.41 153.142 342.781 153.374 343.102 153.689C343.427 154.004 343.682 154.405 343.868 154.892C344.054 155.376 344.146 155.953 344.146 156.622V157.174H337.887V155.961H342.421C342.418 155.616 342.343 155.31 342.197 155.041C342.052 154.769 341.848 154.556 341.586 154.4C341.327 154.244 341.026 154.166 340.681 154.166C340.313 154.166 339.99 154.256 339.712 154.435C339.433 154.61 339.216 154.842 339.06 155.131C338.908 155.416 338.83 155.729 338.827 156.07V157.129C338.827 157.573 338.908 157.955 339.07 158.273C339.233 158.588 339.46 158.83 339.751 158.999C340.043 159.164 340.384 159.247 340.776 159.247C341.037 159.247 341.274 159.211 341.487 159.138C341.699 159.062 341.883 158.951 342.038 158.805C342.194 158.659 342.312 158.478 342.391 158.263L344.072 158.452C343.966 158.896 343.763 159.284 343.465 159.615C343.17 159.943 342.792 160.198 342.332 160.381C341.871 160.56 341.344 160.649 340.751 160.649ZM349 160.649C348.238 160.649 347.583 160.482 347.036 160.147C346.492 159.812 346.073 159.35 345.778 158.76C345.487 158.167 345.341 157.484 345.341 156.712C345.341 155.936 345.49 155.252 345.788 154.658C346.086 154.062 346.507 153.598 347.051 153.266C347.598 152.932 348.244 152.764 348.99 152.764C349.61 152.764 350.158 152.879 350.635 153.107C351.116 153.333 351.499 153.652 351.784 154.067C352.069 154.478 352.231 154.958 352.271 155.509H350.551C350.481 155.141 350.316 154.834 350.054 154.589C349.795 154.34 349.449 154.216 349.015 154.216C348.647 154.216 348.324 154.315 348.045 154.514C347.767 154.71 347.55 154.991 347.394 155.359C347.242 155.727 347.165 156.168 347.165 156.682C347.165 157.202 347.242 157.65 347.394 158.024C347.546 158.395 347.76 158.682 348.035 158.884C348.314 159.083 348.64 159.183 349.015 159.183C349.28 159.183 349.517 159.133 349.726 159.033C349.938 158.931 350.115 158.783 350.258 158.591C350.4 158.399 350.498 158.165 350.551 157.89H352.271C352.228 158.43 352.069 158.909 351.794 159.327C351.519 159.741 351.144 160.066 350.67 160.301C350.196 160.533 349.64 160.649 349 160.649ZM357.562 152.864V154.256H353.172V152.864H357.562ZM354.256 151.034H356.056V158.203C356.056 158.445 356.092 158.631 356.165 158.76C356.241 158.886 356.341 158.972 356.463 159.018C356.586 159.065 356.722 159.088 356.871 159.088C356.984 159.088 357.087 159.08 357.179 159.063C357.275 159.047 357.348 159.032 357.398 159.018L357.701 160.425C357.605 160.459 357.468 160.495 357.289 160.535C357.113 160.575 356.898 160.598 356.642 160.604C356.192 160.618 355.786 160.55 355.424 160.401C355.063 160.248 354.776 160.013 354.564 159.695C354.355 159.376 354.253 158.979 354.256 158.501V151.034ZM364.464 150.318V160.5H362.619V150.318H364.464ZM368.181 156.026V160.5H366.382V152.864H368.102V154.161H368.191C368.367 153.734 368.647 153.394 369.032 153.142C369.419 152.89 369.898 152.764 370.468 152.764C370.995 152.764 371.454 152.877 371.846 153.102C372.24 153.328 372.545 153.654 372.76 154.082C372.979 154.509 373.087 155.028 373.083 155.638V160.5H371.284V155.916C371.284 155.406 371.151 155.006 370.886 154.718C370.624 154.43 370.261 154.286 369.797 154.286C369.482 154.286 369.202 154.355 368.957 154.494C368.715 154.63 368.525 154.827 368.385 155.086C368.249 155.344 368.181 155.658 368.181 156.026ZM381.461 152.864L378.741 160.5H376.752L374.033 152.864H375.952L377.707 158.536H377.787L379.547 152.864H381.461ZM382.706 160.5V152.864H384.506V160.5H382.706ZM383.611 151.78C383.326 151.78 383.08 151.685 382.875 151.496C382.67 151.304 382.567 151.074 382.567 150.805C382.567 150.534 382.67 150.303 382.875 150.114C383.08 149.922 383.326 149.826 383.611 149.826C383.899 149.826 384.144 149.922 384.347 150.114C384.552 150.303 384.655 150.534 384.655 150.805C384.655 151.074 384.552 151.304 384.347 151.496C384.144 151.685 383.899 151.78 383.611 151.78ZM390.17 152.864V154.256H385.78V152.864H390.17ZM386.863 151.034H388.663V158.203C388.663 158.445 388.7 158.631 388.773 158.76C388.849 158.886 388.948 158.972 389.071 159.018C389.193 159.065 389.329 159.088 389.479 159.088C389.591 159.088 389.694 159.08 389.787 159.063C389.883 159.047 389.956 159.032 390.006 159.018L390.309 160.425C390.213 160.459 390.075 160.495 389.896 160.535C389.72 160.575 389.505 160.598 389.25 160.604C388.799 160.618 388.393 160.55 388.032 160.401C387.671 160.248 387.384 160.013 387.172 159.695C386.963 159.376 386.86 158.979 386.863 158.501V151.034ZM393.872 160.654C393.388 160.654 392.952 160.568 392.565 160.396C392.18 160.22 391.875 159.961 391.65 159.62C391.428 159.279 391.317 158.858 391.317 158.357C391.317 157.926 391.396 157.57 391.555 157.288C391.714 157.007 391.932 156.781 392.207 156.612C392.482 156.443 392.792 156.316 393.136 156.229C393.484 156.14 393.844 156.075 394.215 156.036C394.663 155.989 395.026 155.948 395.304 155.911C395.582 155.871 395.785 155.812 395.911 155.732C396.04 155.649 396.104 155.522 396.104 155.349V155.32C396.104 154.945 395.993 154.655 395.771 154.45C395.549 154.244 395.229 154.141 394.812 154.141C394.371 154.141 394.021 154.237 393.763 154.43C393.508 154.622 393.335 154.849 393.246 155.111L391.565 154.872C391.698 154.408 391.917 154.02 392.222 153.709C392.527 153.394 392.899 153.159 393.34 153.003C393.781 152.844 394.268 152.764 394.802 152.764C395.17 152.764 395.536 152.807 395.901 152.893C396.265 152.98 396.598 153.122 396.9 153.321C397.201 153.517 397.443 153.783 397.626 154.121C397.811 154.46 397.904 154.882 397.904 155.389V160.5H396.174V159.451H396.114C396.005 159.663 395.851 159.862 395.652 160.048C395.456 160.23 395.21 160.377 394.911 160.49C394.616 160.599 394.27 160.654 393.872 160.654ZM394.339 159.332C394.701 159.332 395.014 159.26 395.279 159.118C395.544 158.972 395.748 158.78 395.891 158.541C396.036 158.303 396.109 158.042 396.109 157.761V156.861C396.053 156.907 395.957 156.95 395.821 156.99C395.688 157.03 395.539 157.065 395.374 157.094C395.208 157.124 395.044 157.151 394.881 157.174C394.719 157.197 394.578 157.217 394.459 157.234C394.19 157.27 393.95 157.33 393.738 157.413C393.526 157.496 393.358 157.612 393.236 157.761C393.113 157.906 393.052 158.095 393.052 158.327C393.052 158.659 393.173 158.909 393.415 159.078C393.657 159.247 393.965 159.332 394.339 159.332ZM403.527 152.864V154.256H399.137V152.864H403.527ZM400.221 151.034H402.021V158.203C402.021 158.445 402.057 158.631 402.13 158.76C402.206 158.886 402.306 158.972 402.428 159.018C402.551 159.065 402.687 159.088 402.836 159.088C402.949 159.088 403.051 159.08 403.144 159.063C403.24 159.047 403.313 159.032 403.363 159.018L403.666 160.425C403.57 160.459 403.433 160.495 403.254 160.535C403.078 160.575 402.862 160.598 402.607 160.604C402.156 160.618 401.75 160.55 401.389 160.401C401.028 160.248 400.741 160.013 400.529 159.695C400.32 159.376 400.218 158.979 400.221 158.501V151.034ZM405.032 160.5V152.864H406.832V160.5H405.032ZM405.937 151.78C405.652 151.78 405.407 151.685 405.201 151.496C404.996 151.304 404.893 151.074 404.893 150.805C404.893 150.534 404.996 150.303 405.201 150.114C405.407 149.922 405.652 149.826 405.937 149.826C406.225 149.826 406.471 149.922 406.673 150.114C406.878 150.303 406.981 150.534 406.981 150.805C406.981 151.074 406.878 151.304 406.673 151.496C406.471 151.685 406.225 151.78 405.937 151.78ZM412.013 160.649C411.268 160.649 410.621 160.485 410.075 160.157C409.528 159.829 409.103 159.37 408.802 158.78C408.504 158.19 408.354 157.5 408.354 156.712C408.354 155.923 408.504 155.232 408.802 154.638C409.103 154.045 409.528 153.585 410.075 153.256C410.621 152.928 411.268 152.764 412.013 152.764C412.759 152.764 413.406 152.928 413.952 153.256C414.499 153.585 414.922 154.045 415.22 154.638C415.522 155.232 415.673 155.923 415.673 156.712C415.673 157.5 415.522 158.19 415.22 158.78C414.922 159.37 414.499 159.829 413.952 160.157C413.406 160.485 412.759 160.649 412.013 160.649ZM412.023 159.207C412.428 159.207 412.766 159.096 413.038 158.874C413.309 158.649 413.512 158.347 413.644 157.969C413.78 157.592 413.848 157.171 413.848 156.707C413.848 156.239 413.78 155.817 413.644 155.439C413.512 155.058 413.309 154.754 413.038 154.529C412.766 154.304 412.428 154.191 412.023 154.191C411.609 154.191 411.264 154.304 410.989 154.529C410.718 154.754 410.514 155.058 410.378 155.439C410.245 155.817 410.179 156.239 410.179 156.707C410.179 157.171 410.245 157.592 410.378 157.969C410.514 158.347 410.718 158.649 410.989 158.874C411.264 159.096 411.609 159.207 412.023 159.207ZM419 156.026V160.5H417.2V152.864H418.92V154.161H419.01C419.185 153.734 419.465 153.394 419.85 153.142C420.238 152.89 420.717 152.764 421.287 152.764C421.814 152.764 422.273 152.877 422.664 153.102C423.058 153.328 423.363 153.654 423.579 154.082C423.797 154.509 423.905 155.028 423.902 155.638V160.5H422.102V155.916C422.102 155.406 421.97 155.006 421.704 154.718C421.443 154.43 421.08 154.286 420.616 154.286C420.301 154.286 420.021 154.355 419.775 154.494C419.533 154.63 419.343 154.827 419.204 155.086C419.068 155.344 419 155.658 419 156.026Z" fill="white"/>
</g>
<defs>
<clipPath id="clip0_55128_16824">
<rect width="504" height="196" fill="white"/>
</clipPath>
<clipPath id="clip1_55128_16824">
<rect width="16" height="16" fill="white" transform="translate(20 22)"/>
</clipPath>
</defs>
</svg>
