<svg width="248" height="97" viewBox="0 0 248 97" fill="none" xmlns="http://www.w3.org/2000/svg">
<rect width="247.11" height="96.0846" fill="white"/>
<path d="M24.4661 37.0422H21.163V26.8389H24.5707C25.5705 26.8389 26.4291 27.0431 27.1465 27.4517C27.8639 27.8569 28.4136 28.4398 28.7956 29.2004C29.1808 29.9577 29.3735 30.8661 29.3735 31.9256C29.3735 32.9885 29.1792 33.9018 28.7906 34.6658C28.4053 35.4297 27.8473 36.0176 27.1166 36.4294C26.3859 36.838 25.5024 37.0422 24.4661 37.0422ZM22.7024 35.6971H24.3814C25.1586 35.6971 25.8046 35.5509 26.3194 35.2586C26.8343 34.963 27.2195 34.5362 27.4753 33.9782C27.731 33.4169 27.8589 32.7327 27.8589 31.9256C27.8589 31.1252 27.731 30.4459 27.4753 29.8879C27.2229 29.3299 26.8459 28.9065 26.3444 28.6175C25.8428 28.3285 25.2201 28.1841 24.4761 28.1841H22.7024V35.6971ZM34.4664 37.1967C33.7125 37.1967 33.0631 37.0356 32.5184 36.7134C31.977 36.3879 31.5585 35.9312 31.2629 35.3433C30.9707 34.7521 30.8245 34.0596 30.8245 33.2658C30.8245 32.4819 30.9707 31.7911 31.2629 31.1932C31.5585 30.5954 31.9704 30.1287 32.4985 29.7933C33.0299 29.4578 33.651 29.2901 34.3618 29.2901C34.7936 29.2901 35.2121 29.3615 35.6173 29.5043C36.0225 29.6471 36.3862 29.8713 36.7084 30.1769C37.0306 30.4825 37.2846 30.8794 37.4706 31.3676C37.6566 31.8525 37.7496 32.4421 37.7496 33.1363V33.6644H31.6665V32.5484H36.2899C36.2899 32.1565 36.2102 31.8094 36.0507 31.5071C35.8913 31.2015 35.6671 30.9607 35.3782 30.7847C35.0925 30.6087 34.7571 30.5207 34.3718 30.5207C33.9533 30.5207 33.5879 30.6236 33.2757 30.8296C32.9668 31.0322 32.7277 31.2979 32.5583 31.6267C32.3922 31.9522 32.3092 32.3059 32.3092 32.6879V33.5597C32.3092 34.0712 32.3989 34.5063 32.5782 34.8651C32.7609 35.2238 33.015 35.4978 33.3405 35.6871C33.666 35.8731 34.0463 35.9661 34.4814 35.9661C34.7637 35.9661 35.0211 35.9262 35.2536 35.8465C35.4861 35.7635 35.6871 35.6406 35.8564 35.4779C36.0258 35.3151 36.1554 35.1142 36.245 34.875L37.655 35.1291C37.5421 35.5443 37.3394 35.908 37.0472 36.2202C36.7582 36.5291 36.3945 36.7699 35.9561 36.9426C35.521 37.112 35.0244 37.1967 34.4664 37.1967ZM41.6295 37.2116C41.1445 37.2116 40.7061 37.122 40.3142 36.9426C39.9223 36.7599 39.6117 36.4959 39.3825 36.1504C39.1567 35.805 39.0437 35.3815 39.0437 34.88C39.0437 34.4482 39.1268 34.0928 39.2928 33.8138C39.4589 33.5348 39.6831 33.314 39.9654 33.1512C40.2478 32.9885 40.5633 32.8656 40.912 32.7825C41.2608 32.6995 41.6162 32.6364 41.9782 32.5932C42.4366 32.5401 42.8086 32.4969 43.0942 32.4637C43.3798 32.4271 43.5874 32.369 43.717 32.2893C43.8465 32.2096 43.9113 32.0801 43.9113 31.9007V31.8658C43.9113 31.4307 43.7884 31.0936 43.5426 30.8545C43.3001 30.6153 42.9381 30.4957 42.4565 30.4957C41.955 30.4957 41.5597 30.607 41.2707 30.8296C40.9851 31.0488 40.7875 31.2929 40.6779 31.5619L39.2779 31.2431C39.444 30.7781 39.6864 30.4028 40.0053 30.1171C40.3275 29.8281 40.6978 29.6189 41.1163 29.4894C41.5348 29.3565 41.9749 29.2901 42.4366 29.2901C42.7421 29.2901 43.066 29.3266 43.4081 29.3997C43.7535 29.4694 44.0757 29.599 44.3746 29.7883C44.6768 29.9776 44.9243 30.2483 45.1169 30.6004C45.3096 30.9491 45.4059 31.4025 45.4059 31.9605V37.0422H43.9511V35.996H43.8913C43.795 36.1886 43.6505 36.378 43.4579 36.564C43.2652 36.75 43.0178 36.9044 42.7156 37.0273C42.4133 37.1502 42.0513 37.2116 41.6295 37.2116ZM41.9533 36.0159C42.3651 36.0159 42.7172 35.9345 43.0095 35.7718C43.3051 35.6091 43.5293 35.3965 43.6821 35.1341C43.8382 34.8684 43.9162 34.5844 43.9162 34.2821V33.2957C43.8631 33.3488 43.7601 33.3987 43.6074 33.4452C43.4579 33.4883 43.2868 33.5265 43.0942 33.5597C42.9016 33.5896 42.7139 33.6179 42.5312 33.6444C42.3485 33.6677 42.1958 33.6876 42.0729 33.7042C41.7839 33.7408 41.5199 33.8022 41.2807 33.8886C41.0449 33.9749 40.8556 34.0995 40.7127 34.2622C40.5733 34.4216 40.5035 34.6342 40.5035 34.8999C40.5035 35.2686 40.6397 35.5476 40.912 35.7369C41.1844 35.9229 41.5315 36.0159 41.9533 36.0159ZM50.2547 37.1917C49.6369 37.1917 49.0856 37.0339 48.6007 36.7184C48.1191 36.3995 47.7404 35.9462 47.4647 35.3583C47.1924 34.7671 47.0562 34.058 47.0562 33.2309C47.0562 32.4039 47.1941 31.6964 47.4697 31.1085C47.7487 30.5207 48.1307 30.0706 48.6156 29.7584C49.1005 29.4462 49.6502 29.2901 50.2647 29.2901C50.7397 29.2901 51.1216 29.3698 51.4106 29.5292C51.7029 29.6853 51.9287 29.868 52.0881 30.0773C52.2509 30.2865 52.3771 30.4708 52.4668 30.6303H52.5565V26.8389H54.0461V37.0422H52.5913V35.8515H52.4668C52.3771 36.0143 52.2476 36.2003 52.0782 36.4095C51.9121 36.6188 51.6829 36.8014 51.3906 36.9575C51.0984 37.1136 50.7197 37.1917 50.2547 37.1917ZM50.5835 35.9213C51.012 35.9213 51.374 35.8083 51.6696 35.5825C51.9686 35.3533 52.1944 35.0361 52.3472 34.6309C52.5033 34.2257 52.5814 33.754 52.5814 33.216C52.5814 32.6846 52.505 32.2196 52.3522 31.821C52.1994 31.4224 51.9752 31.1119 51.6796 30.8893C51.384 30.6668 51.0186 30.5555 50.5835 30.5555C50.1352 30.5555 49.7615 30.6718 49.4626 30.9043C49.1636 31.1368 48.9378 31.454 48.785 31.8559C48.6355 32.2578 48.5608 32.7111 48.5608 33.216C48.5608 33.7275 48.6372 34.1875 48.79 34.596C48.9428 35.0046 49.1686 35.3284 49.4676 35.5675C49.7698 35.8034 50.1418 35.9213 50.5835 35.9213ZM57.6619 26.8389V37.0422H56.1722V26.8389H57.6619ZM59.6659 37.0422V29.3897H61.1556V37.0422H59.6659ZM60.4182 28.209C60.1592 28.209 59.9366 28.1226 59.7506 27.9499C59.5679 27.7739 59.4766 27.5646 59.4766 27.3221C59.4766 27.0764 59.5679 26.8671 59.7506 26.6944C59.9366 26.5184 60.1592 26.4304 60.4182 26.4304C60.6773 26.4304 60.8982 26.5184 61.0808 26.6944C61.2668 26.8671 61.3598 27.0764 61.3598 27.3221C61.3598 27.5646 61.2668 27.7739 61.0808 27.9499C60.8982 28.1226 60.6773 28.209 60.4182 28.209ZM64.6493 32.4986V37.0422H63.1596V29.3897H64.5895V30.6352H64.6841C64.8602 30.23 65.1359 29.9045 65.5112 29.6588C65.8898 29.413 66.3664 29.2901 66.941 29.2901C67.4625 29.2901 67.9192 29.3997 68.3111 29.6189C68.703 29.8348 69.007 30.157 69.2228 30.5854C69.4387 31.0139 69.5467 31.5437 69.5467 32.1747V37.0422H68.057V32.3541C68.057 31.7994 67.9126 31.366 67.6236 31.0537C67.3346 30.7382 66.9377 30.5804 66.4329 30.5804C66.0874 30.5804 65.7802 30.6552 65.5112 30.8046C65.2455 30.9541 65.0346 31.1733 64.8785 31.4623C64.7257 31.7479 64.6493 32.0933 64.6493 32.4986ZM74.8427 37.1967C74.0887 37.1967 73.4394 37.0356 72.8947 36.7134C72.3533 36.3879 71.9348 35.9312 71.6392 35.3433C71.3469 34.7521 71.2007 34.0596 71.2007 33.2658C71.2007 32.4819 71.3469 31.7911 71.6392 31.1932C71.9348 30.5954 72.3466 30.1287 72.8747 29.7933C73.4062 29.4578 74.0273 29.2901 74.738 29.2901C75.1698 29.2901 75.5883 29.3615 75.9935 29.5043C76.3987 29.6471 76.7624 29.8713 77.0846 30.1769C77.4068 30.4825 77.6609 30.8794 77.8469 31.3676C78.0329 31.8525 78.1259 32.4421 78.1259 33.1363V33.6644H72.0427V32.5484H76.6661C76.6661 32.1565 76.5864 31.8094 76.427 31.5071C76.2675 31.2015 76.0434 30.9607 75.7544 30.7847C75.4687 30.6087 75.1333 30.5207 74.748 30.5207C74.3295 30.5207 73.9642 30.6236 73.6519 30.8296C73.343 31.0322 73.1039 31.2979 72.9345 31.6267C72.7684 31.9522 72.6854 32.3059 72.6854 32.6879V33.5597C72.6854 34.0712 72.7751 34.5063 72.9544 34.8651C73.1371 35.2238 73.3912 35.4978 73.7167 35.6871C74.0422 35.8731 74.4225 35.9661 74.8576 35.9661C75.1399 35.9661 75.3973 35.9262 75.6298 35.8465C75.8623 35.7635 76.0633 35.6406 76.2327 35.4779C76.4021 35.3151 76.5316 35.1142 76.6213 34.875L78.0312 35.1291C77.9183 35.5443 77.7157 35.908 77.4234 36.2202C77.1344 36.5291 76.7707 36.7699 76.3323 36.9426C75.8972 37.112 75.4007 37.1967 74.8427 37.1967Z" fill="#6B7280"/>
<path d="M21.5266 68.0422V66.3542L26.749 60.9434C27.3067 60.3556 27.7664 59.8406 28.1281 59.3985C28.4948 58.9514 28.7686 58.5268 28.9495 58.1249C29.1304 57.723 29.2208 57.296 29.2208 56.8438C29.2208 56.3314 29.1002 55.8892 28.8591 55.5175C28.6179 55.1407 28.2888 54.8518 27.8719 54.6508C27.4549 54.4449 26.9851 54.3419 26.4626 54.3419C25.91 54.3419 25.4277 54.4549 25.0157 54.681C24.6038 54.9071 24.2872 55.2261 24.0662 55.638C23.8451 56.05 23.7346 56.5323 23.7346 57.085H21.5115C21.5115 56.1455 21.7275 55.324 22.1596 54.6207C22.5917 53.9173 23.1845 53.3722 23.9381 52.9854C24.6917 52.5935 25.5483 52.3976 26.5078 52.3976C27.4775 52.3976 28.3315 52.591 29.0701 52.9779C29.8136 53.3597 30.3939 53.8822 30.8109 54.5453C31.2279 55.2035 31.4364 55.947 31.4364 56.776C31.4364 57.3487 31.3283 57.9089 31.1123 58.4565C30.9013 59.0041 30.532 59.6145 30.0045 60.2877C29.477 60.9559 28.7435 61.7673 27.804 62.7218L24.7369 65.9322V66.0452H31.685V68.0422H21.5266ZM39.6732 52.3976C40.3614 52.4026 41.0397 52.5282 41.7079 52.7744C42.3761 53.0206 42.9789 53.4225 43.5165 53.9801C44.0591 54.5378 44.4912 55.2914 44.8127 56.2409C45.1392 57.1854 45.305 58.361 45.3101 59.7678C45.3101 61.1192 45.1744 62.3224 44.9031 63.3775C44.6318 64.4275 44.2425 65.3142 43.735 66.0377C43.2327 66.7611 42.6222 67.3112 41.9038 67.688C41.1854 68.0648 40.3765 68.2532 39.4772 68.2532C38.5578 68.2532 37.7414 68.0724 37.028 67.7107C36.3146 67.3489 35.7344 66.849 35.2872 66.211C34.8401 65.5679 34.5613 64.8294 34.4507 63.9954H36.7492C36.8999 64.6586 37.2064 65.1962 37.6686 65.6081C38.1358 66.0151 38.7387 66.2185 39.4772 66.2185C40.6076 66.2185 41.4893 65.7262 42.1224 64.7415C42.7554 63.7518 43.0744 62.3702 43.0794 60.5967H42.9588C42.6976 61.0288 42.371 61.4005 41.9792 61.712C41.5923 62.0235 41.1577 62.2647 40.6754 62.4355C40.1931 62.6063 39.6782 62.6917 39.1306 62.6917C38.2413 62.6917 37.4325 62.4732 36.704 62.0361C35.9755 61.599 35.3953 60.9986 34.9632 60.235C34.5311 59.4713 34.3151 58.5997 34.3151 57.62C34.3151 56.6454 34.5362 55.7611 34.9783 54.9673C35.4254 54.1736 36.0484 53.5456 36.8472 53.0834C37.651 52.6161 38.593 52.3875 39.6732 52.3976ZM39.6807 54.3569C39.0929 54.3569 38.5629 54.5026 38.0906 54.794C37.6234 55.0804 37.2541 55.4697 36.9828 55.9621C36.7115 56.4494 36.5759 56.992 36.5759 57.5899C36.5759 58.1877 36.7065 58.7303 36.9678 59.2176C37.234 59.6999 37.5958 60.0843 38.0529 60.3706C38.5151 60.652 39.0427 60.7926 39.6355 60.7926C40.0776 60.7926 40.4896 60.7072 40.8714 60.5364C41.2532 60.3656 41.5873 60.1295 41.8737 59.828C42.16 59.5216 42.3836 59.1749 42.5444 58.7881C42.7051 58.4012 42.7855 57.9943 42.7855 57.5673C42.7855 56.9995 42.6499 56.472 42.3786 55.9847C42.1123 55.4974 41.7456 55.1055 41.2783 54.8091C40.8111 54.5077 40.2786 54.3569 39.6807 54.3569ZM67.2661 60.3254C67.2661 61.9733 66.9646 63.39 66.3618 64.5757C65.7589 65.7563 64.9324 66.6657 63.8824 67.3037C62.8374 67.9367 61.6493 68.2532 60.3179 68.2532C58.9815 68.2532 57.7884 67.9367 56.7383 67.3037C55.6934 66.6657 54.8694 65.7538 54.2665 64.5682C53.6637 63.3825 53.3622 61.9683 53.3622 60.3254C53.3622 58.6776 53.6637 57.2633 54.2665 56.0827C54.8694 54.897 55.6934 53.9877 56.7383 53.3547C57.7884 52.7166 58.9815 52.3976 60.3179 52.3976C61.6493 52.3976 62.8374 52.7166 63.8824 53.3547C64.9324 53.9877 65.7589 54.897 66.3618 56.0827C66.9646 57.2633 67.2661 58.6776 67.2661 60.3254ZM64.9601 60.3254C64.9601 59.0694 64.7566 58.0119 64.3497 57.1528C63.9477 56.2887 63.3951 55.6355 62.6918 55.1934C61.9934 54.7463 61.2021 54.5227 60.3179 54.5227C59.4287 54.5227 58.6349 54.7463 57.9366 55.1934C57.2382 55.6355 56.6856 56.2887 56.2787 57.1528C55.8767 58.0119 55.6758 59.0694 55.6758 60.3254C55.6758 61.5814 55.8767 62.6415 56.2787 63.5056C56.6856 64.3647 57.2382 65.0178 57.9366 65.4649C58.6349 65.907 59.4287 66.1281 60.3179 66.1281C61.2021 66.1281 61.9934 65.907 62.6918 65.4649C63.3951 65.0178 63.9477 64.3647 64.3497 63.5056C64.7566 62.6415 64.9601 61.5814 64.9601 60.3254ZM74.8642 68.2759C73.7439 68.2759 72.7793 68.0221 71.9704 67.5147C71.1666 67.0023 70.5486 66.2964 70.1166 65.3971C69.6845 64.4978 69.4685 63.4679 69.4685 62.3074C69.4685 61.1318 69.6895 60.0943 70.1316 59.195C70.5737 58.2907 71.1967 57.5848 72.0005 57.0774C72.8044 56.57 73.7514 56.3163 74.8416 56.3163C75.7208 56.3163 76.5045 56.4796 77.1928 56.8061C77.8811 57.1277 78.4363 57.5798 78.8583 58.1626C79.2853 58.7454 79.539 59.4261 79.6194 60.2048H77.4264C77.3059 59.6622 77.0295 59.195 76.5975 58.8032C76.1704 58.4113 75.5977 58.2153 74.8793 58.2153C74.2513 58.2153 73.7012 58.3811 73.2289 58.7127C72.7617 59.0393 72.3974 59.5065 72.1362 60.1144C71.8749 60.7173 71.7443 61.4307 71.7443 62.2546C71.7443 63.0986 71.8724 63.8271 72.1287 64.44C72.3849 65.053 72.7466 65.5277 73.2138 65.8643C73.6861 66.201 74.2412 66.3693 74.8793 66.3693C75.3063 66.3693 75.6932 66.2914 76.0398 66.1356C76.3915 65.9749 76.6854 65.7463 76.9215 65.4499C77.1627 65.1535 77.331 64.7967 77.4264 64.3798H79.6194C79.539 65.1283 79.2953 65.7965 78.8884 66.3843C78.4815 66.9721 77.9364 67.4343 77.2531 67.7709C76.5749 68.1075 75.7786 68.2759 74.8642 68.2759ZM87.4323 56.467V58.2756H81.1096V56.467H87.4323ZM82.8052 53.6938H85.0585V64.6435C85.0585 65.0806 85.1238 65.4097 85.2544 65.6307C85.385 65.8468 85.5533 65.995 85.7593 66.0754C85.9703 66.1507 86.1989 66.1884 86.4451 66.1884C86.626 66.1884 86.7842 66.1758 86.9199 66.1507C87.0555 66.1256 87.161 66.1055 87.2364 66.0904L87.6433 67.9518C87.5127 68.002 87.3268 68.0523 87.0856 68.1025C86.8445 68.1578 86.5431 68.1879 86.1813 68.193C85.5885 68.203 85.0359 68.0975 84.5234 67.8764C84.011 67.6554 83.5965 67.3138 83.28 66.8516C82.9635 66.3893 82.8052 65.8091 82.8052 65.1107V53.6938ZM95.5109 68.0422V66.3542L100.733 60.9434C101.291 60.3556 101.751 59.8406 102.112 59.3985C102.479 58.9514 102.753 58.5268 102.934 58.1249C103.115 57.723 103.205 57.296 103.205 56.8438C103.205 56.3314 103.084 55.8892 102.843 55.5175C102.602 55.1407 102.273 54.8518 101.856 54.6508C101.439 54.4449 100.969 54.3419 100.447 54.3419C99.8943 54.3419 99.412 54.4549 99 54.681C98.588 54.9071 98.2715 55.2261 98.0505 55.638C97.8294 56.05 97.7189 56.5323 97.7189 57.085H95.4958C95.4958 56.1455 95.7118 55.324 96.1439 54.6207C96.5759 53.9173 97.1688 53.3722 97.9224 52.9854C98.676 52.5935 99.5325 52.3976 100.492 52.3976C101.462 52.3976 102.316 52.591 103.054 52.9779C103.798 53.3597 104.378 53.8822 104.795 54.5453C105.212 55.2035 105.421 55.947 105.421 56.776C105.421 57.3487 105.313 57.9089 105.097 58.4565C104.886 59.0041 104.516 59.6145 103.989 60.2877C103.461 60.9559 102.728 61.7673 101.788 62.7218L98.7212 65.9322V66.0452H105.669V68.0422H95.5109ZM113.899 68.2985C112.708 68.2934 111.691 67.9794 110.847 67.3565C110.003 66.7335 109.357 65.8267 108.91 64.636C108.463 63.4453 108.239 62.011 108.239 60.333C108.239 58.66 108.463 57.2306 108.91 56.045C109.362 54.8593 110.01 53.955 110.854 53.332C111.703 52.7091 112.718 52.3976 113.899 52.3976C115.079 52.3976 116.092 52.7116 116.936 53.3396C117.78 53.9626 118.425 54.8669 118.872 56.0525C119.324 57.2332 119.551 58.66 119.551 60.333C119.551 62.016 119.327 63.4528 118.88 64.6435C118.433 65.8292 117.787 66.736 116.943 67.364C116.099 67.987 115.084 68.2985 113.899 68.2985ZM113.899 66.2864C114.944 66.2864 115.76 65.7764 116.348 64.7566C116.941 63.7367 117.237 62.2622 117.237 60.333C117.237 59.0518 117.101 57.9692 116.83 57.085C116.564 56.1957 116.179 55.5225 115.677 55.0653C115.18 54.6031 114.587 54.372 113.899 54.372C112.859 54.372 112.042 54.8845 111.449 55.9093C110.857 56.9342 110.558 58.4088 110.553 60.333C110.553 61.6191 110.686 62.7068 110.952 63.596C111.223 64.4802 111.608 65.1509 112.105 65.6081C112.602 66.0603 113.2 66.2864 113.899 66.2864ZM122.224 68.0422V66.3542L127.446 60.9434C128.004 60.3556 128.464 59.8406 128.825 59.3985C129.192 58.9514 129.466 58.5268 129.647 58.1249C129.828 57.723 129.918 57.296 129.918 56.8438C129.918 56.3314 129.798 55.8892 129.556 55.5175C129.315 55.1407 128.986 54.8518 128.569 54.6508C128.152 54.4449 127.682 54.3419 127.16 54.3419C126.607 54.3419 126.125 54.4549 125.713 54.681C125.301 54.9071 124.985 55.2261 124.764 55.638C124.543 56.05 124.432 56.5323 124.432 57.085H122.209C122.209 56.1455 122.425 55.324 122.857 54.6207C123.289 53.9173 123.882 53.3722 124.635 52.9854C125.389 52.5935 126.246 52.3976 127.205 52.3976C128.175 52.3976 129.029 52.591 129.767 52.9779C130.511 53.3597 131.091 53.8822 131.508 54.5453C131.925 55.2035 132.134 55.947 132.134 56.776C132.134 57.3487 132.026 57.9089 131.81 58.4565C131.599 59.0041 131.229 59.6145 130.702 60.2877C130.174 60.9559 129.441 61.7673 128.501 62.7218L125.434 65.9322V66.0452H132.382V68.0422H122.224ZM140.627 68.2532C139.938 68.2432 139.26 68.1176 138.592 67.8764C137.929 67.6353 137.326 67.2334 136.783 66.6707C136.241 66.108 135.806 65.3519 135.48 64.4024C135.158 63.4528 134.997 62.2672 134.997 60.8454C134.997 59.499 135.131 58.3033 135.397 57.2583C135.668 56.2133 136.057 55.3316 136.565 54.6132C137.072 53.8897 137.685 53.3396 138.404 52.9628C139.122 52.586 139.928 52.3976 140.823 52.3976C141.742 52.3976 142.558 52.5784 143.272 52.9402C143.985 53.3019 144.563 53.8018 145.005 54.4398C145.452 55.0779 145.736 55.8038 145.857 56.6177H143.558C143.402 55.9747 143.094 55.4496 142.631 55.0427C142.169 54.6358 141.566 54.4323 140.823 54.4323C139.692 54.4323 138.811 54.9246 138.178 55.9093C137.55 56.894 137.233 58.2631 137.228 60.0164H137.341C137.607 59.5794 137.934 59.2076 138.321 58.9011C138.713 58.5896 139.15 58.351 139.632 58.1852C140.119 58.0144 140.632 57.929 141.169 57.929C142.064 57.929 142.872 58.1475 143.596 58.5846C144.324 59.0167 144.905 59.6145 145.337 60.3782C145.769 61.1418 145.985 62.016 145.985 63.0007C145.985 63.9854 145.761 64.8771 145.314 65.6759C144.872 66.4748 144.249 67.1078 143.445 67.575C142.641 68.0372 141.702 68.2633 140.627 68.2532ZM140.619 66.2939C141.212 66.2939 141.742 66.1482 142.209 65.8568C142.677 65.5654 143.046 65.1735 143.317 64.6812C143.588 64.1888 143.724 63.6387 143.724 63.0308C143.724 62.438 143.591 61.8979 143.325 61.4106C143.063 60.9233 142.702 60.5364 142.239 60.2501C141.782 59.9637 141.26 59.8205 140.672 59.8205C140.225 59.8205 139.81 59.9059 139.429 60.0767C139.052 60.2475 138.72 60.4837 138.434 60.7851C138.147 61.0865 137.921 61.4332 137.756 61.8251C137.595 62.2119 137.514 62.6214 137.514 63.0534C137.514 63.6312 137.648 64.1662 137.914 64.6586C138.185 65.1509 138.554 65.5478 139.022 65.8493C139.494 66.1457 140.026 66.2939 140.619 66.2939ZM150.987 65.9322L150.874 66.7536C150.798 67.3565 150.67 67.9845 150.489 68.6376C150.314 69.2957 150.13 69.9061 149.939 70.4688C149.753 71.0315 149.6 71.4786 149.48 71.8102H147.882C147.947 71.4987 148.038 71.0767 148.153 70.5442C148.269 70.0167 148.382 69.4263 148.492 68.7732C148.603 68.1201 148.686 67.4544 148.741 66.7762L148.816 65.9322H150.987ZM159.506 68.0422V66.3542L164.729 60.9434C165.286 60.3556 165.746 59.8406 166.108 59.3985C166.474 58.9514 166.748 58.5268 166.929 58.1249C167.11 57.723 167.2 57.296 167.2 56.8438C167.2 56.3314 167.08 55.8892 166.839 55.5175C166.598 55.1407 166.268 54.8518 165.851 54.6508C165.434 54.4449 164.965 54.3419 164.442 54.3419C163.89 54.3419 163.407 54.4549 162.995 54.681C162.583 54.9071 162.267 55.2261 162.046 55.638C161.825 56.05 161.714 56.5323 161.714 57.085H159.491C159.491 56.1455 159.707 55.324 160.139 54.6207C160.571 53.9173 161.164 53.3722 161.918 52.9854C162.671 52.5935 163.528 52.3976 164.487 52.3976C165.457 52.3976 166.311 52.591 167.05 52.9779C167.793 53.3597 168.374 53.8822 168.791 54.5453C169.207 55.2035 169.416 55.947 169.416 56.776C169.416 57.3487 169.308 57.9089 169.092 58.4565C168.881 59.0041 168.512 59.6145 167.984 60.2877C167.457 60.9559 166.723 61.7673 165.784 62.7218L162.717 65.9322V66.0452H169.665V68.0422H159.506ZM177.894 68.2532C176.859 68.2532 175.935 68.0749 175.121 67.7182C174.312 67.3615 173.671 66.8666 173.199 66.2336C172.732 65.5956 172.481 64.857 172.445 64.018H174.812C174.842 64.4752 174.995 64.8721 175.271 65.2087C175.553 65.5403 175.92 65.7965 176.372 65.9774C176.824 66.1582 177.326 66.2487 177.879 66.2487C178.487 66.2487 179.024 66.1432 179.492 65.9322C179.964 65.7212 180.333 65.4273 180.599 65.0505C180.866 64.6686 180.999 64.229 180.999 63.7317C180.999 63.2142 180.866 62.7595 180.599 62.3677C180.338 61.9708 179.954 61.6593 179.446 61.4332C178.944 61.2071 178.336 61.0941 177.623 61.0941H176.319V59.195H177.623C178.195 59.195 178.698 59.092 179.13 58.886C179.567 58.6801 179.909 58.3937 180.155 58.0269C180.401 57.6552 180.524 57.2206 180.524 56.7232C180.524 56.2459 180.416 55.8315 180.2 55.4798C179.989 55.1231 179.688 54.8443 179.296 54.6433C178.909 54.4423 178.452 54.3419 177.924 54.3419C177.422 54.3419 176.952 54.4348 176.515 54.6207C176.083 54.8016 175.731 55.0628 175.46 55.4044C175.189 55.741 175.043 56.1455 175.023 56.6177H172.769C172.795 55.7837 173.041 55.0502 173.508 54.4172C173.98 53.7842 174.603 53.2893 175.377 52.9326C176.151 52.5759 177.01 52.3976 177.954 52.3976C178.944 52.3976 179.798 52.591 180.516 52.9779C181.24 53.3597 181.798 53.8696 182.189 54.5077C182.586 55.1457 182.782 55.844 182.777 56.6027C182.782 57.4668 182.541 58.2003 182.054 58.8032C181.571 59.406 180.928 59.8105 180.125 60.0164V60.137C181.149 60.2928 181.943 60.6997 182.506 61.3578C183.074 62.016 183.355 62.8324 183.35 63.807C183.355 64.6561 183.119 65.4172 182.642 66.0904C182.169 66.7636 181.524 67.2937 180.705 67.6805C179.886 68.0623 178.949 68.2532 177.894 68.2532ZM187.713 66.1281C187.301 66.1281 186.947 65.9824 186.651 65.691C186.354 65.3946 186.206 65.0379 186.206 64.6209C186.206 64.2089 186.354 63.8573 186.651 63.5659C186.947 63.2695 187.301 63.1213 187.713 63.1213C188.125 63.1213 188.479 63.2695 188.776 63.5659C189.072 63.8573 189.22 64.2089 189.22 64.6209C189.22 64.8972 189.15 65.1509 189.009 65.382C188.874 65.6081 188.693 65.789 188.467 65.9246C188.241 66.0603 187.99 66.1281 187.713 66.1281ZM187.713 58.3962C187.301 58.3962 186.947 58.2505 186.651 57.9591C186.354 57.6627 186.206 57.306 186.206 56.889C186.206 56.4771 186.354 56.1254 186.651 55.834C186.947 55.5376 187.301 55.3894 187.713 55.3894C188.125 55.3894 188.479 55.5376 188.776 55.834C189.072 56.1254 189.22 56.4771 189.22 56.889C189.22 57.1653 189.15 57.419 189.009 57.6501C188.874 57.8762 188.693 58.0571 188.467 58.1927C188.241 58.3284 187.99 58.3962 187.713 58.3962ZM197.303 68.2532C196.358 68.2532 195.509 68.0724 194.756 67.7107C194.007 67.3439 193.409 66.8415 192.962 66.2035C192.515 65.5654 192.276 64.8369 192.246 64.018H194.507C194.562 64.6812 194.856 65.2263 195.389 65.6533C195.921 66.0804 196.559 66.2939 197.303 66.2939C197.896 66.2939 198.421 66.1582 198.878 65.887C199.34 65.6106 199.702 65.2313 199.963 64.749C200.229 64.2667 200.362 63.7166 200.362 63.0986C200.362 62.4707 200.227 61.9105 199.955 61.4181C199.684 60.9258 199.31 60.5389 198.833 60.2576C198.36 59.9762 197.818 59.8331 197.205 59.828C196.738 59.828 196.268 59.9084 195.796 60.0692C195.323 60.23 194.942 60.441 194.65 60.7022L192.517 60.3857L193.384 52.6086H201.87V54.6056H195.321L194.831 58.9237H194.921C195.223 58.6323 195.622 58.3887 196.12 58.1927C196.622 57.9968 197.16 57.8988 197.732 57.8988C198.672 57.8988 199.508 58.1224 200.242 58.5695C200.98 59.0167 201.561 59.6271 201.983 60.4008C202.41 61.1694 202.621 62.0537 202.616 63.0534C202.621 64.0532 202.395 64.945 201.937 65.7287C201.485 66.5124 200.857 67.1304 200.053 67.5825C199.255 68.0297 198.338 68.2532 197.303 68.2532ZM210.5 52.3976C211.188 52.4026 211.867 52.5282 212.535 52.7744C213.203 53.0206 213.806 53.4225 214.344 53.9801C214.886 54.5378 215.318 55.2914 215.64 56.2409C215.966 57.1854 216.132 58.361 216.137 59.7678C216.137 61.1192 216.001 62.3224 215.73 63.3775C215.459 64.4275 215.069 65.3142 214.562 66.0377C214.06 66.7611 213.449 67.3112 212.731 67.688C212.012 68.0648 211.204 68.2532 210.304 68.2532C209.385 68.2532 208.568 68.0724 207.855 67.7107C207.142 67.3489 206.561 66.849 206.114 66.211C205.667 65.5679 205.388 64.8294 205.278 63.9954H207.576C207.727 64.6586 208.033 65.1962 208.496 65.6081C208.963 66.0151 209.566 66.2185 210.304 66.2185C211.435 66.2185 212.316 65.7262 212.949 64.7415C213.582 63.7518 213.901 62.3702 213.906 60.5967H213.786C213.525 61.0288 213.198 61.4005 212.806 61.712C212.419 62.0235 211.985 62.2647 211.502 62.4355C211.02 62.6063 210.505 62.6917 209.958 62.6917C209.068 62.6917 208.259 62.4732 207.531 62.0361C206.803 61.599 206.222 60.9986 205.79 60.235C205.358 59.4713 205.142 58.5997 205.142 57.62C205.142 56.6454 205.363 55.7611 205.805 54.9673C206.252 54.1736 206.875 53.5456 207.674 53.0834C208.478 52.6161 209.42 52.3875 210.5 52.3976ZM210.508 54.3569C209.92 54.3569 209.39 54.5026 208.918 54.794C208.45 55.0804 208.081 55.4697 207.81 55.9621C207.539 56.4494 207.403 56.992 207.403 57.5899C207.403 58.1877 207.534 58.7303 207.795 59.2176C208.061 59.6999 208.423 60.0843 208.88 60.3706C209.342 60.652 209.87 60.7926 210.462 60.7926C210.905 60.7926 211.317 60.7072 211.698 60.5364C212.08 60.3656 212.414 60.1295 212.701 59.828C212.987 59.5216 213.211 59.1749 213.371 58.7881C213.532 58.4012 213.613 57.9943 213.613 57.5673C213.613 56.9995 213.477 56.472 213.206 55.9847C212.939 55.4974 212.573 55.1055 212.105 54.8091C211.638 54.5077 211.106 54.3569 210.508 54.3569Z" fill="#0B0B0B"/>
</svg>
