<svg width="515" height="192" viewBox="0 0 515 192" fill="none" xmlns="http://www.w3.org/2000/svg">
<g clip-path="url(#clip0_55152_46600)">
<rect width="515" height="192" fill="white"/>
<path d="M21.0043 37V26.8182H22.8487V35.4538H27.3331V37H21.0043ZM32.1854 37.1491C31.4396 37.1491 30.7933 36.9851 30.2464 36.657C29.6996 36.3288 29.2753 35.8698 28.9737 35.2798C28.6754 34.6899 28.5263 34.0005 28.5263 33.2116C28.5263 32.4228 28.6754 31.7318 28.9737 31.1385C29.2753 30.5452 29.6996 30.0845 30.2464 29.7564C30.7933 29.4283 31.4396 29.2642 32.1854 29.2642C32.9311 29.2642 33.5774 29.4283 34.1243 29.7564C34.6712 30.0845 35.0938 30.5452 35.392 31.1385C35.6937 31.7318 35.8445 32.4228 35.8445 33.2116C35.8445 34.0005 35.6937 34.6899 35.392 35.2798C35.0938 35.8698 34.6712 36.3288 34.1243 36.657C33.5774 36.9851 32.9311 37.1491 32.1854 37.1491ZM32.1953 35.7074C32.5997 35.7074 32.9377 35.5964 33.2095 35.3743C33.4813 35.1489 33.6835 34.8473 33.8161 34.4695C33.9519 34.0916 34.0199 33.6707 34.0199 33.2067C34.0199 32.7393 33.9519 32.3168 33.8161 31.9389C33.6835 31.5578 33.4813 31.2545 33.2095 31.0291C32.9377 30.8037 32.5997 30.6911 32.1953 30.6911C31.781 30.6911 31.4363 30.8037 31.1612 31.0291C30.8894 31.2545 30.6856 31.5578 30.5497 31.9389C30.4171 32.3168 30.3509 32.7393 30.3509 33.2067C30.3509 33.6707 30.4171 34.0916 30.5497 34.4695C30.6856 34.8473 30.8894 35.1489 31.1612 35.3743C31.4363 35.5964 31.781 35.7074 32.1953 35.7074ZM39.5694 37.1541C39.0855 37.1541 38.6497 37.0679 38.2619 36.8956C37.8774 36.7199 37.5725 36.4614 37.3471 36.12C37.1251 35.7786 37.014 35.3577 37.014 34.8572C37.014 34.4264 37.0936 34.0701 37.2527 33.7884C37.4118 33.5066 37.6288 33.2812 37.9039 33.1122C38.179 32.9432 38.4889 32.8156 38.8336 32.7294C39.1816 32.6399 39.5413 32.5753 39.9125 32.5355C40.3599 32.4891 40.7228 32.4477 41.0012 32.4112C41.2797 32.3714 41.4818 32.3118 41.6078 32.2322C41.737 32.1494 41.8017 32.0218 41.8017 31.8494V31.8196C41.8017 31.4451 41.6906 31.1551 41.4686 30.9496C41.2465 30.7441 40.9267 30.6413 40.5091 30.6413C40.0682 30.6413 39.7186 30.7375 39.46 30.9297C39.2048 31.1219 39.0325 31.349 38.943 31.6108L37.2626 31.3722C37.3952 30.9081 37.6139 30.5204 37.9189 30.2088C38.2238 29.8939 38.5967 29.6586 39.0375 29.5028C39.4783 29.3438 39.9655 29.2642 40.4991 29.2642C40.867 29.2642 41.2333 29.3073 41.5978 29.3935C41.9624 29.4796 42.2955 29.6222 42.5971 29.821C42.8987 30.0166 43.1407 30.2834 43.323 30.6214C43.5086 30.9595 43.6014 31.3821 43.6014 31.8892V37H41.8713V35.951H41.8116C41.7022 36.1631 41.5481 36.362 41.3493 36.5476C41.1537 36.7299 40.9068 36.8774 40.6085 36.9901C40.3135 37.0994 39.9672 37.1541 39.5694 37.1541ZM40.0368 35.8317C40.398 35.8317 40.7112 35.7604 40.9764 35.6179C41.2415 35.4721 41.4454 35.2798 41.5879 35.0412C41.7337 34.8026 41.8066 34.5424 41.8066 34.2607V33.3608C41.7503 33.4072 41.6542 33.4503 41.5183 33.4901C41.3857 33.5298 41.2366 33.5646 41.0708 33.5945C40.9051 33.6243 40.7411 33.6508 40.5787 33.674C40.4163 33.6972 40.2754 33.7171 40.1561 33.7337C39.8876 33.7701 39.6473 33.8298 39.4352 33.9126C39.2231 33.9955 39.0557 34.1115 38.9331 34.2607C38.8104 34.4065 38.7491 34.5954 38.7491 34.8274C38.7491 35.1589 38.8701 35.4091 39.112 35.5781C39.354 35.7472 39.6622 35.8317 40.0368 35.8317ZM47.2108 32.5256V37H45.411V29.3636H47.1312V30.6612H47.2207C47.3964 30.2337 47.6764 29.8939 48.0609 29.642C48.4487 29.3902 48.9276 29.2642 49.4977 29.2642C50.0247 29.2642 50.4837 29.3769 50.8748 29.6023C51.2692 29.8277 51.5742 30.1541 51.7896 30.5817C52.0083 31.0092 52.1161 31.5279 52.1127 32.1378V37H50.313V32.4162C50.313 31.9058 50.1805 31.5064 49.9153 31.218C49.6535 30.9297 49.2905 30.7855 48.8265 30.7855C48.5117 30.7855 48.2316 30.8551 47.9863 30.9943C47.7444 31.1302 47.5538 31.3274 47.4146 31.5859C47.2787 31.8445 47.2108 32.1577 47.2108 32.5256Z" fill="#111827"/>
<mask id="path-2-inside-1_55152_46600" fill="white">
<path d="M0 44H515V192H0V44Z"/>
</mask>
<path d="M515 192V191H0V192V193H515V192Z" fill="#E9EEF4" mask="url(#path-2-inside-1_55152_46600)"/>
<g clip-path="url(#clip1_55152_46600)">
<path d="M28 82C30.1217 82 32.1566 81.1571 33.6569 79.6569C35.1571 78.1566 36 76.1217 36 74C36 71.8783 35.1571 69.8434 33.6569 68.3431C32.1566 66.8429 30.1217 66 28 66C25.8783 66 23.8434 66.8429 22.3431 68.3431C20.8429 69.8434 20 71.8783 20 74C20 76.1217 20.8429 78.1566 22.3431 79.6569C23.8434 81.1571 25.8783 82 28 82ZM28 70C28.4156 70 28.75 70.3344 28.75 70.75V74.25C28.75 74.6656 28.4156 75 28 75C27.5844 75 27.25 74.6656 27.25 74.25V70.75C27.25 70.3344 27.5844 70 28 70ZM27 77C27 76.7348 27.1054 76.4804 27.2929 76.2929C27.4804 76.1054 27.7348 76 28 76C28.2652 76 28.5196 76.1054 28.7071 76.2929C28.8946 76.4804 29 76.7348 29 77C29 77.2652 28.8946 77.5196 28.7071 77.7071C28.5196 77.8946 28.2652 78 28 78C27.7348 78 27.4804 77.8946 27.2929 77.7071C27.1054 77.5196 27 77.2652 27 77Z" fill="#C37E0F"/>
</g>
<path d="M45.1122 79L42.2884 68.8182H43.9041L45.8878 76.7031H45.9822L48.0455 68.8182H49.6463L51.7095 76.7081H51.804L53.7827 68.8182H55.4034L52.5746 79H51.0284L48.8857 71.3736H48.8061L46.6634 79H45.1122ZM58.1713 74.4659V79H56.6848V68.8182H58.1515V72.6065H58.2459C58.4249 72.1955 58.6983 71.8691 59.0662 71.6271C59.4341 71.3852 59.9147 71.2642 60.508 71.2642C61.0317 71.2642 61.4891 71.3719 61.8801 71.5874C62.2746 71.8028 62.5795 72.1243 62.7949 72.5518C63.0137 72.9761 63.123 73.5064 63.123 74.1428V79H61.6365V74.3217C61.6365 73.7616 61.4924 73.3274 61.204 73.0192C60.9157 72.7076 60.5146 72.5518 60.0009 72.5518C59.6496 72.5518 59.3347 72.6264 59.0563 72.7756C58.7812 72.9247 58.5641 73.1435 58.405 73.4318C58.2492 73.7169 58.1713 74.0616 58.1713 74.4659ZM67.329 79.169C66.8451 79.169 66.4076 79.0795 66.0165 78.9006C65.6254 78.7183 65.3155 78.4548 65.0868 78.1101C64.8614 77.7654 64.7488 77.3428 64.7488 76.8423C64.7488 76.4115 64.8316 76.0568 64.9973 75.7784C65.1631 75.5 65.3868 75.2796 65.6685 75.1172C65.9502 74.9548 66.2651 74.8321 66.6131 74.7493C66.9611 74.6664 67.3158 74.6035 67.677 74.5604C68.1344 74.5073 68.5056 74.4643 68.7907 74.4311C69.0757 74.3946 69.2828 74.3366 69.4121 74.2571C69.5414 74.1776 69.606 74.0483 69.606 73.8693V73.8345C69.606 73.4003 69.4834 73.0639 69.2381 72.8253C68.9962 72.5866 68.6349 72.4673 68.1543 72.4673C67.6538 72.4673 67.2594 72.5784 66.9711 72.8004C66.686 73.0192 66.4888 73.2628 66.3794 73.5312L64.9824 73.2131C65.1481 72.7491 65.3901 72.3745 65.7083 72.0895C66.0298 71.8011 66.3993 71.5923 66.8169 71.4631C67.2346 71.3305 67.6737 71.2642 68.1344 71.2642C68.4393 71.2642 68.7625 71.3007 69.1039 71.3736C69.4486 71.4432 69.7701 71.5724 70.0684 71.7614C70.37 71.9503 70.6169 72.2204 70.8091 72.5717C71.0014 72.9197 71.0975 73.3722 71.0975 73.929V79H69.6458V77.956H69.5861C69.49 78.1482 69.3458 78.3371 69.1536 78.5227C68.9614 78.7083 68.7144 78.8625 68.4128 78.9851C68.1112 79.1077 67.7499 79.169 67.329 79.169ZM67.6522 77.9759C68.0632 77.9759 68.4145 77.8946 68.7061 77.7322C69.0011 77.5698 69.2248 77.3577 69.3773 77.0959C69.5331 76.8307 69.611 76.5473 69.611 76.2457V75.2614C69.5579 75.3144 69.4552 75.3641 69.3027 75.4105C69.1536 75.4536 68.9829 75.4917 68.7907 75.5249C68.5984 75.5547 68.4112 75.5829 68.2289 75.6094C68.0466 75.6326 67.8941 75.6525 67.7715 75.669C67.4831 75.7055 67.2196 75.7668 66.981 75.853C66.7457 75.9392 66.5568 76.0634 66.4142 76.2259C66.275 76.3849 66.2054 76.5971 66.2054 76.8622C66.2054 77.2301 66.3413 77.5085 66.6131 77.6974C66.8849 77.883 67.2312 77.9759 67.6522 77.9759ZM76.642 71.3636V72.5568H72.4709V71.3636H76.642ZM73.5895 69.5341H75.076V76.7578C75.076 77.0462 75.1191 77.2633 75.2053 77.4091C75.2914 77.5516 75.4025 77.6494 75.5384 77.7024C75.6776 77.7521 75.8284 77.777 75.9908 77.777C76.1101 77.777 76.2145 77.7687 76.304 77.7521C76.3935 77.7356 76.4631 77.7223 76.5128 77.7124L76.7812 78.9403C76.6951 78.9735 76.5724 79.0066 76.4134 79.0398C76.2543 79.0762 76.0554 79.0961 75.8168 79.0994C75.4257 79.1061 75.0611 79.0365 74.723 78.8906C74.3849 78.7448 74.1115 78.5194 73.9027 78.2145C73.6939 77.9096 73.5895 77.5268 73.5895 77.0661V69.5341ZM81.9915 79V71.3636H83.478V79H81.9915ZM82.7422 70.1854C82.4837 70.1854 82.2616 70.0992 82.076 69.9268C81.8937 69.7512 81.8026 69.5424 81.8026 69.3004C81.8026 69.0552 81.8937 68.8464 82.076 68.674C82.2616 68.4983 82.4837 68.4105 82.7422 68.4105C83.0007 68.4105 83.2211 68.4983 83.4034 68.674C83.589 68.8464 83.6818 69.0552 83.6818 69.3004C83.6818 69.5424 83.589 69.7512 83.4034 69.9268C83.2211 70.0992 83.0007 70.1854 82.7422 70.1854ZM91.2001 73.228L89.8528 73.4666C89.7965 73.2943 89.707 73.1302 89.5843 72.9744C89.465 72.8187 89.3026 72.6911 89.0971 72.5916C88.8916 72.4922 88.6348 72.4425 88.3265 72.4425C87.9056 72.4425 87.5543 72.5369 87.2725 72.7259C86.9908 72.9115 86.85 73.1518 86.85 73.4467C86.85 73.7019 86.9444 73.9074 87.1333 74.0632C87.3223 74.219 87.6272 74.3466 88.0481 74.446L89.2612 74.7244C89.9638 74.8868 90.4875 75.1371 90.8322 75.4751C91.1769 75.8132 91.3493 76.2524 91.3493 76.7926C91.3493 77.25 91.2167 77.6577 90.9515 78.0156C90.6897 78.3703 90.3234 78.6487 89.8528 78.8509C89.3855 79.053 88.8436 79.1541 88.2271 79.1541C87.372 79.1541 86.6743 78.9718 86.1341 78.6072C85.5938 78.2393 85.2624 77.7173 85.1397 77.0412L86.5765 76.8224C86.666 77.197 86.85 77.4804 87.1284 77.6726C87.4068 77.8615 87.7697 77.956 88.2172 77.956C88.7044 77.956 89.0938 77.8549 89.3855 77.6527C89.6771 77.4472 89.823 77.197 89.823 76.902C89.823 76.6634 89.7335 76.4628 89.5545 76.3004C89.3788 76.138 89.1087 76.0154 88.7441 75.9325L87.4515 75.6491C86.7389 75.4867 86.2119 75.2282 85.8706 74.8736C85.5325 74.5189 85.3635 74.0698 85.3635 73.5263C85.3635 73.0755 85.4894 72.6811 85.7413 72.343C85.9932 72.005 86.3412 71.7415 86.7853 71.5526C87.2295 71.3603 87.7382 71.2642 88.3116 71.2642C89.1369 71.2642 89.7865 71.4432 90.2605 71.8011C90.7344 72.1558 91.0476 72.6314 91.2001 73.228ZM100.253 71.3636V72.5568H96.0822V71.3636H100.253ZM97.2008 69.5341H98.6873V76.7578C98.6873 77.0462 98.7304 77.2633 98.8166 77.4091C98.9028 77.5516 99.0138 77.6494 99.1497 77.7024C99.2889 77.7521 99.4397 77.777 99.6021 77.777C99.7214 77.777 99.8258 77.7687 99.9153 77.7521C100.005 77.7356 100.074 77.7223 100.124 77.7124L100.393 78.9403C100.306 78.9735 100.184 79.0066 100.025 79.0398C99.8656 79.0762 99.6667 79.0961 99.4281 79.0994C99.037 79.1061 98.6724 79.0365 98.3343 78.8906C97.9963 78.7448 97.7228 78.5194 97.514 78.2145C97.3052 77.9096 97.2008 77.5268 97.2008 77.0661V69.5341ZM103.548 74.4659V79H102.062V68.8182H103.528V72.6065H103.623C103.802 72.1955 104.075 71.8691 104.443 71.6271C104.811 71.3852 105.292 71.2642 105.885 71.2642C106.409 71.2642 106.866 71.3719 107.257 71.5874C107.652 71.8028 107.956 72.1243 108.172 72.5518C108.391 72.9761 108.5 73.5064 108.5 74.1428V79H107.013V74.3217C107.013 73.7616 106.869 73.3274 106.581 73.0192C106.293 72.7076 105.892 72.5518 105.378 72.5518C105.027 72.5518 104.712 72.6264 104.433 72.7756C104.158 72.9247 103.941 73.1435 103.782 73.4318C103.626 73.7169 103.548 74.0616 103.548 74.4659ZM113.775 79.1541C113.022 79.1541 112.375 78.9934 111.831 78.6719C111.291 78.3471 110.873 77.8913 110.578 77.3047C110.286 76.7147 110.141 76.0237 110.141 75.2315C110.141 74.4493 110.286 73.7599 110.578 73.1634C110.873 72.5668 111.284 72.1011 111.811 71.7663C112.341 71.4316 112.961 71.2642 113.67 71.2642C114.101 71.2642 114.519 71.3355 114.923 71.478C115.328 71.6205 115.691 71.8442 116.012 72.1491C116.334 72.4541 116.587 72.8501 116.773 73.3374C116.958 73.8213 117.051 74.4096 117.051 75.1023V75.6293H110.981V74.5156H115.594C115.594 74.1245 115.515 73.7782 115.356 73.4766C115.197 73.1716 114.973 72.9313 114.685 72.7557C114.4 72.58 114.065 72.4922 113.68 72.4922C113.263 72.4922 112.898 72.5949 112.587 72.8004C112.278 73.0026 112.04 73.2678 111.871 73.5959C111.705 73.9207 111.622 74.2737 111.622 74.6548V75.5249C111.622 76.0353 111.712 76.4695 111.891 76.8274C112.073 77.1854 112.326 77.4588 112.651 77.6477C112.976 77.8333 113.356 77.9261 113.79 77.9261C114.071 77.9261 114.328 77.8864 114.56 77.8068C114.792 77.724 114.993 77.6013 115.162 77.4389C115.331 77.2765 115.46 77.076 115.55 76.8374L116.957 77.0909C116.844 77.5052 116.642 77.8681 116.35 78.1797C116.062 78.4879 115.699 78.7282 115.261 78.9006C114.827 79.0696 114.332 79.1541 113.775 79.1541ZM125.97 71.3636V72.5568H121.799V71.3636H125.97ZM122.918 69.5341H124.404V76.7578C124.404 77.0462 124.447 77.2633 124.533 77.4091C124.62 77.5516 124.731 77.6494 124.866 77.7024C125.006 77.7521 125.156 77.777 125.319 77.777C125.438 77.777 125.543 77.7687 125.632 77.7521C125.722 77.7356 125.791 77.7223 125.841 77.7124L126.109 78.9403C126.023 78.9735 125.901 79.0066 125.741 79.0398C125.582 79.0762 125.384 79.0961 125.145 79.0994C124.754 79.1061 124.389 79.0365 124.051 78.8906C123.713 78.7448 123.44 78.5194 123.231 78.2145C123.022 77.9096 122.918 77.5268 122.918 77.0661V69.5341ZM130.824 79.1541C130.071 79.1541 129.423 78.9934 128.88 78.6719C128.34 78.3471 127.922 77.8913 127.627 77.3047C127.335 76.7147 127.189 76.0237 127.189 75.2315C127.189 74.4493 127.335 73.7599 127.627 73.1634C127.922 72.5668 128.333 72.1011 128.86 71.7663C129.39 71.4316 130.01 71.2642 130.719 71.2642C131.15 71.2642 131.568 71.3355 131.972 71.478C132.376 71.6205 132.739 71.8442 133.061 72.1491C133.382 72.4541 133.636 72.8501 133.822 73.3374C134.007 73.8213 134.1 74.4096 134.1 75.1023V75.6293H128.03V74.5156H132.643C132.643 74.1245 132.564 73.7782 132.405 73.4766C132.246 73.1716 132.022 72.9313 131.733 72.7557C131.448 72.58 131.114 72.4922 130.729 72.4922C130.312 72.4922 129.947 72.5949 129.635 72.8004C129.327 73.0026 129.089 73.2678 128.92 73.5959C128.754 73.9207 128.671 74.2737 128.671 74.6548V75.5249C128.671 76.0353 128.76 76.4695 128.939 76.8274C129.122 77.1854 129.375 77.4588 129.7 77.6477C130.025 77.8333 130.404 77.9261 130.839 77.9261C131.12 77.9261 131.377 77.8864 131.609 77.8068C131.841 77.724 132.042 77.6013 132.211 77.4389C132.38 77.2765 132.509 77.076 132.599 76.8374L134.006 77.0909C133.893 77.5052 133.691 77.8681 133.399 78.1797C133.111 78.4879 132.748 78.7282 132.31 78.9006C131.876 79.0696 131.381 79.1541 130.824 79.1541ZM137.236 74.4659V79H135.749V71.3636H137.176V72.6065H137.271C137.446 72.2022 137.721 71.8774 138.096 71.6321C138.474 71.3868 138.949 71.2642 139.523 71.2642C140.043 71.2642 140.499 71.3736 140.89 71.5923C141.281 71.8078 141.584 72.1293 141.8 72.5568C142.015 72.9844 142.123 73.513 142.123 74.1428V79H140.636V74.3217C140.636 73.7682 140.492 73.3357 140.204 73.0241C139.915 72.7093 139.519 72.5518 139.016 72.5518C138.671 72.5518 138.364 72.6264 138.096 72.7756C137.831 72.9247 137.62 73.1435 137.464 73.4318C137.312 73.7169 137.236 74.0616 137.236 74.4659ZM148.954 75.8331V71.3636H150.445V79H148.984V77.6776H148.904C148.728 78.0852 148.447 78.425 148.059 78.6967C147.674 78.9652 147.196 79.0994 146.622 79.0994C146.132 79.0994 145.697 78.9917 145.32 78.7763C144.945 78.5575 144.65 78.2344 144.435 77.8068C144.223 77.3793 144.116 76.8506 144.116 76.2209V71.3636H145.603V76.0419C145.603 76.5623 145.747 76.9766 146.036 77.2848C146.324 77.593 146.698 77.7472 147.159 77.7472C147.438 77.7472 147.714 77.6776 147.989 77.5384C148.268 77.3991 148.498 77.1887 148.68 76.907C148.866 76.6252 148.957 76.2673 148.954 75.8331ZM152.443 79V71.3636H153.879V72.5767H153.959C154.098 72.1657 154.343 71.8426 154.695 71.6072C155.049 71.3686 155.45 71.2493 155.898 71.2493C155.991 71.2493 156.1 71.2526 156.226 71.2592C156.355 71.2659 156.456 71.2741 156.529 71.2841V72.706C156.47 72.6894 156.364 72.6712 156.211 72.6513C156.059 72.6281 155.906 72.6165 155.754 72.6165C155.402 72.6165 155.089 72.6911 154.814 72.8402C154.542 72.986 154.327 73.1899 154.168 73.4517C154.009 73.7102 153.929 74.0052 153.929 74.3366V79H152.443ZM160.833 79.1541C160.081 79.1541 159.433 78.9934 158.89 78.6719C158.349 78.3471 157.932 77.8913 157.637 77.3047C157.345 76.7147 157.199 76.0237 157.199 75.2315C157.199 74.4493 157.345 73.7599 157.637 73.1634C157.932 72.5668 158.343 72.1011 158.87 71.7663C159.4 71.4316 160.02 71.2642 160.729 71.2642C161.16 71.2642 161.578 71.3355 161.982 71.478C162.386 71.6205 162.749 71.8442 163.071 72.1491C163.392 72.4541 163.646 72.8501 163.831 73.3374C164.017 73.8213 164.11 74.4096 164.11 75.1023V75.6293H158.039V74.5156H162.653C162.653 74.1245 162.574 73.7782 162.414 73.4766C162.255 73.1716 162.032 72.9313 161.743 72.7557C161.458 72.58 161.123 72.4922 160.739 72.4922C160.321 72.4922 159.957 72.5949 159.645 72.8004C159.337 73.0026 159.098 73.2678 158.929 73.5959C158.764 73.9207 158.681 74.2737 158.681 74.6548V75.5249C158.681 76.0353 158.77 76.4695 158.949 76.8274C159.132 77.1854 159.385 77.4588 159.71 77.6477C160.035 77.8333 160.414 77.9261 160.848 77.9261C161.13 77.9261 161.387 77.8864 161.619 77.8068C161.851 77.724 162.051 77.6013 162.221 77.4389C162.39 77.2765 162.519 77.076 162.608 76.8374L164.015 77.0909C163.903 77.5052 163.7 77.8681 163.409 78.1797C163.12 78.4879 162.757 78.7282 162.32 78.9006C161.886 79.0696 161.39 79.1541 160.833 79.1541ZM172.681 79.1541C171.965 79.1541 171.34 78.9901 170.806 78.6619C170.273 78.3338 169.859 77.8748 169.564 77.2848C169.269 76.6948 169.121 76.0054 169.121 75.2166C169.121 74.4245 169.269 73.7318 169.564 73.1385C169.859 72.5452 170.273 72.0845 170.806 71.7564C171.34 71.4283 171.965 71.2642 172.681 71.2642C173.397 71.2642 174.021 71.4283 174.555 71.7564C175.089 72.0845 175.503 72.5452 175.798 73.1385C176.093 73.7318 176.24 74.4245 176.24 75.2166C176.24 76.0054 176.093 76.6948 175.798 77.2848C175.503 77.8748 175.089 78.3338 174.555 78.6619C174.021 78.9901 173.397 79.1541 172.681 79.1541ZM172.686 77.9062C173.15 77.9062 173.534 77.7836 173.839 77.5384C174.144 77.2931 174.369 76.9666 174.515 76.5589C174.664 76.1513 174.739 75.7022 174.739 75.2116C174.739 74.7244 174.664 74.277 174.515 73.8693C174.369 73.4583 174.144 73.1286 173.839 72.88C173.534 72.6314 173.15 72.5071 172.686 72.5071C172.218 72.5071 171.831 72.6314 171.522 72.88C171.217 73.1286 170.99 73.4583 170.841 73.8693C170.695 74.277 170.623 74.7244 170.623 75.2116C170.623 75.7022 170.695 76.1513 170.841 76.5589C170.99 76.9666 171.217 77.2931 171.522 77.5384C171.831 77.7836 172.218 77.9062 172.686 77.9062ZM181.534 71.3636V72.5568H177.219V71.3636H181.534ZM178.402 79V70.4787C178.402 70.0014 178.506 69.6053 178.715 69.2905C178.924 68.9723 179.201 68.7353 179.545 68.5795C179.89 68.4205 180.265 68.3409 180.669 68.3409C180.967 68.3409 181.222 68.3658 181.434 68.4155C181.647 68.4619 181.804 68.505 181.907 68.5447L181.559 69.7479C181.489 69.728 181.4 69.7048 181.29 69.6783C181.181 69.6484 181.048 69.6335 180.893 69.6335C180.531 69.6335 180.273 69.723 180.117 69.902C179.965 70.081 179.888 70.3395 179.888 70.6776V79H178.402ZM190.337 71.3636V72.5568H186.166V71.3636H190.337ZM187.285 69.5341H188.771V76.7578C188.771 77.0462 188.814 77.2633 188.901 77.4091C188.987 77.5516 189.098 77.6494 189.234 77.7024C189.373 77.7521 189.524 77.777 189.686 77.777C189.805 77.777 189.91 77.7687 189.999 77.7521C190.089 77.7356 190.158 77.7223 190.208 77.7124L190.477 78.9403C190.39 78.9735 190.268 79.0066 190.109 79.0398C189.95 79.0762 189.751 79.0961 189.512 79.0994C189.121 79.1061 188.756 79.0365 188.418 78.8906C188.08 78.7448 187.807 78.5194 187.598 78.2145C187.389 77.9096 187.285 77.5268 187.285 77.0661V69.5341ZM193.632 74.4659V79H192.146V68.8182H193.612V72.6065H193.707C193.886 72.1955 194.159 71.8691 194.527 71.6271C194.895 71.3852 195.376 71.2642 195.969 71.2642C196.493 71.2642 196.95 71.3719 197.341 71.5874C197.735 71.8028 198.04 72.1243 198.256 72.5518C198.475 72.9761 198.584 73.5064 198.584 74.1428V79H197.097V74.3217C197.097 73.7616 196.953 73.3274 196.665 73.0192C196.377 72.7076 195.976 72.5518 195.462 72.5518C195.11 72.5518 194.796 72.6264 194.517 72.7756C194.242 72.9247 194.025 73.1435 193.866 73.4318C193.71 73.7169 193.632 74.0616 193.632 74.4659ZM203.859 79.1541C203.106 79.1541 202.459 78.9934 201.915 78.6719C201.375 78.3471 200.957 77.8913 200.662 77.3047C200.37 76.7147 200.225 76.0237 200.225 75.2315C200.225 74.4493 200.37 73.7599 200.662 73.1634C200.957 72.5668 201.368 72.1011 201.895 71.7663C202.425 71.4316 203.045 71.2642 203.754 71.2642C204.185 71.2642 204.603 71.3355 205.007 71.478C205.412 71.6205 205.775 71.8442 206.096 72.1491C206.418 72.4541 206.671 72.8501 206.857 73.3374C207.042 73.8213 207.135 74.4096 207.135 75.1023V75.6293H201.065V74.5156H205.678C205.678 74.1245 205.599 73.7782 205.44 73.4766C205.281 73.1716 205.057 72.9313 204.769 72.7557C204.484 72.58 204.149 72.4922 203.764 72.4922C203.347 72.4922 202.982 72.5949 202.671 72.8004C202.362 73.0026 202.124 73.2678 201.955 73.5959C201.789 73.9207 201.706 74.2737 201.706 74.6548V75.5249C201.706 76.0353 201.796 76.4695 201.975 76.8274C202.157 77.1854 202.41 77.4588 202.735 77.6477C203.06 77.8333 203.44 77.9261 203.874 77.9261C204.155 77.9261 204.412 77.8864 204.644 77.8068C204.876 77.724 205.077 77.6013 205.246 77.4389C205.415 77.2765 205.544 77.076 205.634 76.8374L207.041 77.0909C206.928 77.5052 206.726 77.8681 206.434 78.1797C206.146 78.4879 205.783 78.7282 205.345 78.9006C204.911 79.0696 204.416 79.1541 203.859 79.1541ZM212.49 81.8636V71.3636H213.941V72.6016H214.066C214.152 72.4425 214.276 72.2585 214.438 72.0497C214.601 71.8409 214.826 71.6586 215.115 71.5028C215.403 71.3438 215.784 71.2642 216.258 71.2642C216.874 71.2642 217.425 71.42 217.909 71.7315C218.392 72.0431 218.772 72.4922 219.047 73.0788C219.325 73.6655 219.465 74.3714 219.465 75.1967C219.465 76.022 219.327 76.7296 219.052 77.3196C218.777 77.9062 218.399 78.3587 217.919 78.6768C217.438 78.9917 216.889 79.1491 216.273 79.1491C215.809 79.1491 215.429 79.0713 215.134 78.9155C214.843 78.7597 214.614 78.5774 214.448 78.3686C214.283 78.1598 214.155 77.9742 214.066 77.8118H213.976V81.8636H212.49ZM213.946 75.1818C213.946 75.7187 214.024 76.1894 214.18 76.5938C214.336 76.9981 214.561 77.3146 214.856 77.5433C215.151 77.7687 215.512 77.8814 215.94 77.8814C216.384 77.8814 216.755 77.7637 217.053 77.5284C217.352 77.2898 217.577 76.9666 217.73 76.5589C217.885 76.1513 217.963 75.6922 217.963 75.1818C217.963 74.678 217.887 74.2256 217.735 73.8246C217.585 73.4235 217.36 73.107 217.058 72.875C216.76 72.643 216.387 72.527 215.94 72.527C215.509 72.527 215.144 72.638 214.846 72.8601C214.551 73.0821 214.327 73.392 214.175 73.7898C214.022 74.1875 213.946 74.6515 213.946 75.1818ZM221.13 79V71.3636H222.567V72.5767H222.646C222.786 72.1657 223.031 71.8426 223.382 71.6072C223.737 71.3686 224.138 71.2493 224.585 71.2493C224.678 71.2493 224.788 71.2526 224.914 71.2592C225.043 71.2659 225.144 71.2741 225.217 71.2841V72.706C225.157 72.6894 225.051 72.6712 224.899 72.6513C224.746 72.6281 224.594 72.6165 224.441 72.6165C224.09 72.6165 223.777 72.6911 223.502 72.8402C223.23 72.986 223.014 73.1899 222.855 73.4517C222.696 73.7102 222.617 74.0052 222.617 74.3366V79H221.13ZM229.446 79.1541C228.73 79.1541 228.106 78.9901 227.572 78.6619C227.038 78.3338 226.624 77.8748 226.329 77.2848C226.034 76.6948 225.887 76.0054 225.887 75.2166C225.887 74.4245 226.034 73.7318 226.329 73.1385C226.624 72.5452 227.038 72.0845 227.572 71.7564C228.106 71.4283 228.73 71.2642 229.446 71.2642C230.162 71.2642 230.787 71.4283 231.321 71.7564C231.854 72.0845 232.269 72.5452 232.564 73.1385C232.859 73.7318 233.006 74.4245 233.006 75.2166C233.006 76.0054 232.859 76.6948 232.564 77.2848C232.269 77.8748 231.854 78.3338 231.321 78.6619C230.787 78.9901 230.162 79.1541 229.446 79.1541ZM229.451 77.9062C229.915 77.9062 230.3 77.7836 230.605 77.5384C230.91 77.2931 231.135 76.9666 231.281 76.5589C231.43 76.1513 231.505 75.7022 231.505 75.2116C231.505 74.7244 231.43 74.277 231.281 73.8693C231.135 73.4583 230.91 73.1286 230.605 72.88C230.3 72.6314 229.915 72.5071 229.451 72.5071C228.984 72.5071 228.596 72.6314 228.288 72.88C227.983 73.1286 227.756 73.4583 227.607 73.8693C227.461 74.277 227.388 74.7244 227.388 75.2116C227.388 75.7022 227.461 76.1513 227.607 76.5589C227.756 76.9666 227.983 77.2931 228.288 77.5384C228.596 77.7836 228.984 77.9062 229.451 77.9062ZM234.665 81.8636V71.3636H236.117V72.6016H236.241C236.327 72.4425 236.452 72.2585 236.614 72.0497C236.777 71.8409 237.002 71.6586 237.29 71.5028C237.579 71.3438 237.96 71.2642 238.434 71.2642C239.05 71.2642 239.6 71.42 240.084 71.7315C240.568 72.0431 240.948 72.4922 241.223 73.0788C241.501 73.6655 241.64 74.3714 241.64 75.1967C241.64 76.022 241.503 76.7296 241.228 77.3196C240.953 77.9062 240.575 78.3587 240.094 78.6768C239.614 78.9917 239.065 79.1491 238.449 79.1491C237.985 79.1491 237.605 79.0713 237.31 78.9155C237.019 78.7597 236.79 78.5774 236.624 78.3686C236.458 78.1598 236.331 77.9742 236.241 77.8118H236.152V81.8636H234.665ZM236.122 75.1818C236.122 75.7187 236.2 76.1894 236.356 76.5938C236.511 76.9981 236.737 77.3146 237.032 77.5433C237.327 77.7687 237.688 77.8814 238.116 77.8814C238.56 77.8814 238.931 77.7637 239.229 77.5284C239.528 77.2898 239.753 76.9666 239.905 76.5589C240.061 76.1513 240.139 75.6922 240.139 75.1818C240.139 74.678 240.063 74.2256 239.91 73.8246C239.761 73.4235 239.536 73.107 239.234 72.875C238.936 72.643 238.563 72.527 238.116 72.527C237.685 72.527 237.32 72.638 237.022 72.8601C236.727 73.0821 236.503 73.392 236.351 73.7898C236.198 74.1875 236.122 74.6515 236.122 75.1818ZM246.597 79.1541C245.845 79.1541 245.197 78.9934 244.653 78.6719C244.113 78.3471 243.695 77.8913 243.4 77.3047C243.109 76.7147 242.963 76.0237 242.963 75.2315C242.963 74.4493 243.109 73.7599 243.4 73.1634C243.695 72.5668 244.106 72.1011 244.633 71.7663C245.164 71.4316 245.783 71.2642 246.493 71.2642C246.924 71.2642 247.341 71.3355 247.746 71.478C248.15 71.6205 248.513 71.8442 248.834 72.1491C249.156 72.4541 249.409 72.8501 249.595 73.3374C249.781 73.8213 249.873 74.4096 249.873 75.1023V75.6293H243.803V74.5156H248.417C248.417 74.1245 248.337 73.7782 248.178 73.4766C248.019 73.1716 247.795 72.9313 247.507 72.7557C247.222 72.58 246.887 72.4922 246.503 72.4922C246.085 72.4922 245.72 72.5949 245.409 72.8004C245.101 73.0026 244.862 73.2678 244.693 73.5959C244.527 73.9207 244.444 74.2737 244.444 74.6548V75.5249C244.444 76.0353 244.534 76.4695 244.713 76.8274C244.895 77.1854 245.149 77.4588 245.474 77.6477C245.798 77.8333 246.178 77.9261 246.612 77.9261C246.894 77.9261 247.151 77.8864 247.383 77.8068C247.615 77.724 247.815 77.6013 247.984 77.4389C248.153 77.2765 248.282 77.076 248.372 76.8374L249.779 77.0909C249.666 77.5052 249.464 77.8681 249.172 78.1797C248.884 78.4879 248.521 78.7282 248.084 78.9006C247.649 79.0696 247.154 79.1541 246.597 79.1541ZM251.523 79V71.3636H252.96V72.5767H253.039C253.178 72.1657 253.424 71.8426 253.775 71.6072C254.129 71.3686 254.531 71.2493 254.978 71.2493C255.071 71.2493 255.18 71.2526 255.306 71.2592C255.435 71.2659 255.536 71.2741 255.609 71.2841V72.706C255.55 72.6894 255.444 72.6712 255.291 72.6513C255.139 72.6281 254.986 72.6165 254.834 72.6165C254.482 72.6165 254.169 72.6911 253.894 72.8402C253.622 72.986 253.407 73.1899 253.248 73.4517C253.089 73.7102 253.009 74.0052 253.009 74.3366V79H251.523ZM260.912 71.3636V72.5568H256.74V71.3636H260.912ZM257.859 69.5341H259.346V76.7578C259.346 77.0462 259.389 77.2633 259.475 77.4091C259.561 77.5516 259.672 77.6494 259.808 77.7024C259.947 77.7521 260.098 77.777 260.26 77.777C260.38 77.777 260.484 77.7687 260.574 77.7521C260.663 77.7356 260.733 77.7223 260.782 77.7124L261.051 78.9403C260.965 78.9735 260.842 79.0066 260.683 79.0398C260.524 79.0762 260.325 79.0961 260.086 79.0994C259.695 79.1061 259.331 79.0365 258.993 78.8906C258.654 78.7448 258.381 78.5194 258.172 78.2145C257.963 77.9096 257.859 77.5268 257.859 77.0661V69.5341ZM263.496 81.8636C263.273 81.8636 263.071 81.8454 262.889 81.8089C262.707 81.7758 262.571 81.7393 262.481 81.6996L262.839 80.4815C263.111 80.5545 263.353 80.5859 263.565 80.576C263.777 80.5661 263.965 80.4865 264.127 80.3374C264.293 80.1882 264.439 79.9446 264.564 79.6065L264.748 79.0994L261.954 71.3636H263.545L265.479 77.2898H265.559L267.493 71.3636H269.089L265.942 80.0192C265.796 80.4169 265.61 80.7533 265.385 81.0284C265.159 81.3068 264.891 81.5156 264.579 81.6548C264.268 81.794 263.907 81.8636 263.496 81.8636ZM272.111 76.0717V75.9773C272.118 75.3608 272.179 74.8703 272.295 74.5057C272.415 74.1411 272.584 73.8461 272.802 73.6207C273.021 73.3954 273.285 73.1899 273.593 73.0043C273.792 72.8783 273.971 72.7375 274.13 72.5817C274.289 72.4259 274.415 72.2469 274.508 72.0447C274.6 71.8426 274.647 71.6188 274.647 71.3736C274.647 71.0786 274.577 70.8234 274.438 70.608C274.299 70.3925 274.113 70.2268 273.881 70.1108C273.653 69.9915 273.397 69.9318 273.116 69.9318C272.86 69.9318 272.617 69.9848 272.385 70.0909C272.153 70.197 271.961 70.3627 271.808 70.5881C271.656 70.8101 271.568 71.0968 271.545 71.4482H270.033C270.056 70.8516 270.207 70.3478 270.486 69.9368C270.764 69.5225 271.132 69.2093 271.589 68.9972C272.05 68.785 272.559 68.679 273.116 68.679C273.725 68.679 274.259 68.7933 274.716 69.022C275.174 69.2474 275.528 69.5639 275.78 69.9716C276.036 70.3759 276.163 70.8482 276.163 71.3885C276.163 71.7597 276.105 72.0945 275.989 72.3928C275.873 72.6877 275.707 72.9512 275.492 73.1832C275.28 73.4152 275.025 73.6207 274.726 73.7997C274.445 73.9754 274.216 74.1577 274.04 74.3466C273.868 74.5355 273.742 74.7592 273.662 75.0178C273.583 75.2763 273.54 75.5961 273.533 75.9773V76.0717H272.111ZM272.862 79.0945C272.59 79.0945 272.357 78.9983 272.161 78.8061C271.965 78.6106 271.868 78.3752 271.868 78.1001C271.868 77.8284 271.965 77.5964 272.161 77.4041C272.357 77.2086 272.59 77.1108 272.862 77.1108C273.131 77.1108 273.363 77.2086 273.558 77.4041C273.757 77.5964 273.856 77.8284 273.856 78.1001C273.856 78.2824 273.81 78.4498 273.717 78.6023C273.628 78.7514 273.508 78.8707 273.359 78.9602C273.21 79.0497 273.044 79.0945 272.862 79.0945Z" fill="#111827"/>
<path d="M493 77.0625C492.602 77.0625 492.221 77.2008 491.939 77.4469C491.658 77.6931 491.5 78.0269 491.5 78.375C491.5 78.7231 491.658 79.0569 491.939 79.3031C492.221 79.5492 492.602 79.6875 493 79.6875C493.398 79.6875 493.779 79.5492 494.061 79.3031C494.342 79.0569 494.5 78.7231 494.5 78.375C494.5 78.0269 494.342 77.6931 494.061 77.4469C493.779 77.2008 493.398 77.0625 493 77.0625ZM493 72.6875C492.602 72.6875 492.221 72.8258 491.939 73.0719C491.658 73.3181 491.5 73.6519 491.5 74C491.5 74.3481 491.658 74.6819 491.939 74.9281C492.221 75.1742 492.602 75.3125 493 75.3125C493.398 75.3125 493.779 75.1742 494.061 74.9281C494.342 74.6819 494.5 74.3481 494.5 74C494.5 73.6519 494.342 73.3181 494.061 73.0719C493.779 72.8258 493.398 72.6875 493 72.6875ZM494.5 69.625C494.5 69.4526 494.461 69.282 494.386 69.1227C494.31 68.9635 494.2 68.8188 494.061 68.6969C493.921 68.575 493.756 68.4784 493.574 68.4124C493.392 68.3464 493.197 68.3125 493 68.3125C492.803 68.3125 492.608 68.3464 492.426 68.4124C492.244 68.4784 492.079 68.575 491.939 68.6969C491.8 68.8188 491.69 68.9635 491.614 69.1227C491.539 69.282 491.5 69.4526 491.5 69.625C491.5 69.7974 491.539 69.968 491.614 70.1273C491.69 70.2865 491.8 70.4312 491.939 70.5531C492.079 70.675 492.244 70.7716 492.426 70.8376C492.608 70.9036 492.803 70.9375 493 70.9375C493.197 70.9375 493.392 70.9036 493.574 70.8376C493.756 70.7716 493.921 70.675 494.061 70.5531C494.2 70.4312 494.31 70.2865 494.386 70.1273C494.461 69.968 494.5 69.7974 494.5 69.625Z" fill="#6B7280"/>
<rect x="20.5" y="92.5" width="474" height="39" rx="7.5" fill="#F9FAFB"/>
<rect x="20.5" y="92.5" width="474" height="39" rx="7.5" stroke="#E9EEF4"/>
<path d="M33.233 117V106.818H34.4659V115.906H39.1989V117H33.233ZM44.1506 117.159C43.4148 117.159 42.7801 116.997 42.2464 116.672C41.7161 116.344 41.3068 115.886 41.0185 115.3C40.7334 114.71 40.5909 114.024 40.5909 113.241C40.5909 112.459 40.7334 111.77 41.0185 111.173C41.3068 110.573 41.7079 110.106 42.2216 109.771C42.7386 109.433 43.3419 109.264 44.0312 109.264C44.429 109.264 44.8217 109.33 45.2095 109.463C45.5973 109.596 45.9503 109.811 46.2685 110.109C46.5866 110.404 46.8402 110.795 47.0291 111.283C47.218 111.77 47.3125 112.37 47.3125 113.082V113.58H41.4261V112.565H46.1193C46.1193 112.134 46.0331 111.75 45.8608 111.412C45.6918 111.074 45.4498 110.807 45.1349 110.612C44.8234 110.416 44.4555 110.318 44.0312 110.318C43.5639 110.318 43.1596 110.434 42.8182 110.666C42.4801 110.895 42.2199 111.193 42.0376 111.561C41.8554 111.929 41.7642 112.323 41.7642 112.744V113.42C41.7642 113.997 41.8636 114.486 42.0625 114.887C42.2647 115.285 42.5447 115.588 42.9027 115.797C43.2607 116.002 43.6766 116.105 44.1506 116.105C44.4588 116.105 44.7372 116.062 44.9858 115.976C45.2377 115.886 45.4548 115.754 45.6371 115.578C45.8194 115.399 45.9602 115.177 46.0597 114.912L47.1932 115.23C47.0739 115.615 46.8733 115.953 46.5916 116.244C46.3099 116.533 45.9619 116.758 45.5476 116.92C45.1333 117.08 44.6676 117.159 44.1506 117.159ZM51.3445 117.179C50.8606 117.179 50.4214 117.088 50.027 116.906C49.6326 116.72 49.3194 116.453 49.0874 116.105C48.8554 115.754 48.7393 115.33 48.7393 114.832C48.7393 114.395 48.8255 114.04 48.9979 113.768C49.1702 113.493 49.4006 113.278 49.6889 113.122C49.9773 112.966 50.2955 112.85 50.6435 112.774C50.9948 112.695 51.3478 112.632 51.7024 112.585C52.1664 112.526 52.5426 112.481 52.831 112.451C53.1226 112.418 53.3348 112.363 53.4673 112.287C53.6032 112.211 53.6712 112.078 53.6712 111.889V111.849C53.6712 111.359 53.5369 110.978 53.2685 110.706C53.0033 110.434 52.6006 110.298 52.0604 110.298C51.5002 110.298 51.0611 110.421 50.7429 110.666C50.4247 110.911 50.201 111.173 50.0717 111.452L48.9581 111.054C49.157 110.59 49.4221 110.229 49.7536 109.97C50.0883 109.708 50.4529 109.526 50.8473 109.423C51.245 109.317 51.6361 109.264 52.0206 109.264C52.2659 109.264 52.5476 109.294 52.8658 109.354C53.1873 109.41 53.4972 109.528 53.7955 109.707C54.0971 109.886 54.3473 110.156 54.5462 110.517C54.745 110.878 54.8445 111.362 54.8445 111.969V117H53.6712V115.966H53.6115C53.532 116.132 53.3994 116.309 53.2138 116.498C53.0282 116.687 52.7813 116.848 52.473 116.98C52.1648 117.113 51.7886 117.179 51.3445 117.179ZM51.5234 116.125C51.9875 116.125 52.3786 116.034 52.6967 115.852C53.0182 115.669 53.2602 115.434 53.4226 115.146C53.5883 114.857 53.6712 114.554 53.6712 114.236V113.162C53.6214 113.222 53.5121 113.276 53.343 113.326C53.1773 113.372 52.9851 113.414 52.7663 113.45C52.5509 113.483 52.3404 113.513 52.1349 113.54C51.9328 113.563 51.7687 113.583 51.6428 113.599C51.3378 113.639 51.0528 113.704 50.7876 113.793C50.5258 113.879 50.3137 114.01 50.1513 114.186C49.9922 114.358 49.9126 114.594 49.9126 114.892C49.9126 115.3 50.0634 115.608 50.3651 115.817C50.67 116.022 51.0561 116.125 51.5234 116.125ZM62.3951 111.074L61.3411 111.372C61.2748 111.196 61.177 111.026 61.0478 110.86C60.9218 110.691 60.7495 110.552 60.5307 110.442C60.312 110.333 60.0319 110.278 59.6905 110.278C59.2232 110.278 58.8337 110.386 58.5222 110.602C58.214 110.814 58.0598 111.084 58.0598 111.412C58.0598 111.704 58.1659 111.934 58.378 112.103C58.5901 112.272 58.9216 112.413 59.3723 112.526L60.5059 112.804C61.1886 112.97 61.6974 113.223 62.0321 113.565C62.3669 113.903 62.5343 114.339 62.5343 114.872C62.5343 115.31 62.4083 115.701 62.1564 116.045C61.9078 116.39 61.5598 116.662 61.1124 116.861C60.665 117.06 60.1446 117.159 59.5513 117.159C58.7724 117.159 58.1278 116.99 57.6174 116.652C57.1069 116.314 56.7838 115.82 56.6479 115.17L57.7615 114.892C57.8676 115.303 58.0681 115.611 58.3631 115.817C58.6614 116.022 59.0508 116.125 59.5314 116.125C60.0783 116.125 60.5125 116.009 60.834 115.777C61.1588 115.542 61.3212 115.26 61.3212 114.932C61.3212 114.667 61.2284 114.445 61.0428 114.266C60.8572 114.083 60.5721 113.947 60.1877 113.858L58.915 113.56C58.2156 113.394 57.7019 113.137 57.3738 112.789C57.0489 112.438 56.8865 111.999 56.8865 111.472C56.8865 111.041 57.0075 110.66 57.2495 110.328C57.4947 109.997 57.8278 109.737 58.2488 109.548C58.673 109.359 59.1536 109.264 59.6905 109.264C60.4462 109.264 61.0395 109.43 61.4703 109.761C61.9045 110.093 62.2128 110.53 62.3951 111.074ZM67.5021 117.159C66.7663 117.159 66.1316 116.997 65.598 116.672C65.0677 116.344 64.6584 115.886 64.37 115.3C64.085 114.71 63.9425 114.024 63.9425 113.241C63.9425 112.459 64.085 111.77 64.37 111.173C64.6584 110.573 65.0594 110.106 65.5732 109.771C66.0902 109.433 66.6934 109.264 67.3828 109.264C67.7805 109.264 68.1733 109.33 68.5611 109.463C68.9489 109.596 69.3018 109.811 69.62 110.109C69.9382 110.404 70.1918 110.795 70.3807 111.283C70.5696 111.77 70.6641 112.37 70.6641 113.082V113.58H64.7777V112.565H69.4709C69.4709 112.134 69.3847 111.75 69.2124 111.412C69.0433 111.074 68.8014 110.807 68.4865 110.612C68.175 110.416 67.8071 110.318 67.3828 110.318C66.9155 110.318 66.5111 110.434 66.1697 110.666C65.8317 110.895 65.5715 111.193 65.3892 111.561C65.2069 111.929 65.1158 112.323 65.1158 112.744V113.42C65.1158 113.997 65.2152 114.486 65.4141 114.887C65.6162 115.285 65.8963 115.588 66.2543 115.797C66.6122 116.002 67.0282 116.105 67.5021 116.105C67.8104 116.105 68.0888 116.062 68.3374 115.976C68.5893 115.886 68.8063 115.754 68.9886 115.578C69.1709 115.399 69.3118 115.177 69.4112 114.912L70.5447 115.23C70.4254 115.615 70.2249 115.953 69.9432 116.244C69.6615 116.533 69.3134 116.758 68.8991 116.92C68.4848 117.08 68.0192 117.159 67.5021 117.159ZM73.6222 112.406V117H72.4489V106.818H73.6222V110.557H73.7216C73.9006 110.162 74.169 109.849 74.527 109.617C74.8883 109.382 75.3688 109.264 75.9688 109.264C76.4891 109.264 76.9448 109.369 77.3359 109.577C77.727 109.783 78.0303 110.099 78.2457 110.527C78.4645 110.951 78.5739 111.491 78.5739 112.148V117H77.4006V112.227C77.4006 111.621 77.2431 111.152 76.9283 110.82C76.6167 110.486 76.1842 110.318 75.6307 110.318C75.2462 110.318 74.9015 110.399 74.5966 110.562C74.295 110.724 74.0563 110.961 73.8807 111.273C73.7083 111.584 73.6222 111.962 73.6222 112.406ZM83.8226 117.159C83.1332 117.159 82.5284 116.995 82.008 116.667C81.4909 116.339 81.0866 115.88 80.7949 115.29C80.5066 114.7 80.3624 114.01 80.3624 113.222C80.3624 112.426 80.5066 111.732 80.7949 111.138C81.0866 110.545 81.4909 110.085 82.008 109.756C82.5284 109.428 83.1332 109.264 83.8226 109.264C84.512 109.264 85.1152 109.428 85.6323 109.756C86.1526 110.085 86.557 110.545 86.8453 111.138C87.137 111.732 87.2828 112.426 87.2828 113.222C87.2828 114.01 87.137 114.7 86.8453 115.29C86.557 115.88 86.1526 116.339 85.6323 116.667C85.1152 116.995 84.512 117.159 83.8226 117.159ZM83.8226 116.105C84.3463 116.105 84.7772 115.971 85.1152 115.702C85.4533 115.434 85.7035 115.081 85.8659 114.643C86.0284 114.206 86.1096 113.732 86.1096 113.222C86.1096 112.711 86.0284 112.236 85.8659 111.795C85.7035 111.354 85.4533 110.998 85.1152 110.726C84.7772 110.454 84.3463 110.318 83.8226 110.318C83.2989 110.318 82.8681 110.454 82.53 110.726C82.1919 110.998 81.9417 111.354 81.7793 111.795C81.6169 112.236 81.5357 112.711 81.5357 113.222C81.5357 113.732 81.6169 114.206 81.7793 114.643C81.9417 115.081 82.1919 115.434 82.53 115.702C82.8681 115.971 83.2989 116.105 83.8226 116.105ZM90.2472 106.818V117H89.0739V106.818H90.2472ZM95.2797 117.159C94.6433 117.159 94.0815 116.998 93.5943 116.677C93.1071 116.352 92.7259 115.895 92.4508 115.305C92.1757 114.711 92.0382 114.01 92.0382 113.202C92.0382 112.4 92.1757 111.704 92.4508 111.114C92.7259 110.524 93.1087 110.068 93.5993 109.746C94.0898 109.425 94.6565 109.264 95.2995 109.264C95.7967 109.264 96.1895 109.347 96.4778 109.513C96.7695 109.675 96.9915 109.861 97.144 110.07C97.2998 110.275 97.4208 110.444 97.5069 110.577H97.6064V106.818H98.7797V117H97.6461V115.827H97.5069C97.4208 115.966 97.2981 116.142 97.139 116.354C96.9799 116.562 96.7529 116.75 96.4579 116.915C96.1629 117.078 95.7702 117.159 95.2797 117.159ZM95.4387 116.105C95.9094 116.105 96.3071 115.982 96.6319 115.737C96.9567 115.489 97.2037 115.146 97.3727 114.708C97.5417 114.267 97.6262 113.759 97.6262 113.182C97.6262 112.612 97.5434 112.113 97.3777 111.685C97.2119 111.254 96.9667 110.92 96.6419 110.681C96.3171 110.439 95.916 110.318 95.4387 110.318C94.9416 110.318 94.5273 110.446 94.1958 110.701C93.8677 110.953 93.6208 111.296 93.4551 111.73C93.2927 112.161 93.2115 112.645 93.2115 113.182C93.2115 113.725 93.2943 114.219 93.46 114.663C93.6291 115.104 93.8777 115.455 94.2058 115.717C94.5372 115.976 94.9482 116.105 95.4387 116.105Z" fill="#111827"/>
<path d="M20 148C20 143.582 23.5817 140 28 140H487C491.418 140 495 143.582 495 148V164C495 168.418 491.418 172 487 172H28C23.5817 172 20 168.418 20 164V148Z" fill="#C37E0F" fill-opacity="0.06"/>
<path d="M36.3622 151.273H37.9432V156.974C37.9432 157.599 37.7955 158.149 37.5 158.624C37.2074 159.098 36.7955 159.469 36.2642 159.736C35.733 160 35.1122 160.132 34.402 160.132C33.6889 160.132 33.0668 160 32.5355 159.736C32.0043 159.469 31.5923 159.098 31.2997 158.624C31.0071 158.149 30.8608 157.599 30.8608 156.974V151.273H32.4418V156.842C32.4418 157.206 32.5213 157.53 32.6804 157.814C32.8423 158.098 33.0696 158.321 33.3622 158.483C33.6548 158.642 34.0014 158.722 34.402 158.722C34.8026 158.722 35.1491 158.642 35.4418 158.483C35.7372 158.321 35.9645 158.098 36.1236 157.814C36.2827 157.53 36.3622 157.206 36.3622 156.842V151.273ZM41.136 156.165V160H39.5934V153.455H41.0678V154.567H41.1445C41.2951 154.2 41.5352 153.909 41.8647 153.693C42.1971 153.477 42.6076 153.369 43.0962 153.369C43.5479 153.369 43.9414 153.466 44.2766 153.659C44.6147 153.852 44.8761 154.132 45.0607 154.499C45.2482 154.865 45.3406 155.31 45.3377 155.832V160H43.7951V156.071C43.7951 155.634 43.6815 155.291 43.4542 155.044C43.2298 154.797 42.9187 154.673 42.521 154.673C42.2511 154.673 42.011 154.733 41.8008 154.852C41.5934 154.969 41.43 155.138 41.3107 155.359C41.1942 155.581 41.136 155.849 41.136 156.165ZM48.4485 151.273V160H46.9059V151.273H48.4485ZM52.8899 160.128C52.2507 160.128 51.6967 159.987 51.228 159.706C50.7592 159.425 50.3956 159.031 50.1371 158.526C49.8814 158.02 49.7536 157.429 49.7536 156.753C49.7536 156.077 49.8814 155.484 50.1371 154.976C50.3956 154.467 50.7592 154.072 51.228 153.791C51.6967 153.51 52.2507 153.369 52.8899 153.369C53.5291 153.369 54.0831 153.51 54.5518 153.791C55.0206 154.072 55.3828 154.467 55.6385 154.976C55.897 155.484 56.0263 156.077 56.0263 156.753C56.0263 157.429 55.897 158.02 55.6385 158.526C55.3828 159.031 55.0206 159.425 54.5518 159.706C54.0831 159.987 53.5291 160.128 52.8899 160.128ZM52.8984 158.892C53.245 158.892 53.5348 158.797 53.7678 158.607C54.0007 158.413 54.174 158.155 54.2876 157.831C54.4041 157.507 54.4624 157.146 54.4624 156.749C54.4624 156.348 54.4041 155.986 54.2876 155.662C54.174 155.335 54.0007 155.075 53.7678 154.882C53.5348 154.689 53.245 154.592 52.8984 154.592C52.5433 154.592 52.2479 154.689 52.0121 154.882C51.7791 155.075 51.6044 155.335 51.4879 155.662C51.3743 155.986 51.3175 156.348 51.3175 156.749C51.3175 157.146 51.3743 157.507 51.4879 157.831C51.6044 158.155 51.7791 158.413 52.0121 158.607C52.2479 158.797 52.5433 158.892 52.8984 158.892ZM60.1907 160.128C59.5373 160.128 58.9762 159.984 58.5075 159.697C58.0415 159.411 57.6822 159.014 57.4293 158.509C57.1793 158 57.0543 157.415 57.0543 156.753C57.0543 156.088 57.1822 155.501 57.4379 154.993C57.6935 154.482 58.0543 154.084 58.5202 153.8C58.989 153.513 59.543 153.369 60.1822 153.369C60.7134 153.369 61.1836 153.467 61.5927 153.663C62.0046 153.857 62.3327 154.131 62.5771 154.486C62.8214 154.838 62.9606 155.25 62.9947 155.722H61.5202C61.4606 155.406 61.3185 155.143 61.0941 154.933C60.8725 154.72 60.5756 154.614 60.2035 154.614C59.8881 154.614 59.6112 154.699 59.3725 154.869C59.1339 155.037 58.9478 155.278 58.8143 155.594C58.6836 155.909 58.6183 156.287 58.6183 156.727C58.6183 157.173 58.6836 157.557 58.8143 157.878C58.945 158.196 59.1282 158.442 59.364 158.615C59.6026 158.786 59.8825 158.871 60.2035 158.871C60.4308 158.871 60.6339 158.828 60.8129 158.743C60.9947 158.655 61.1467 158.528 61.2688 158.364C61.391 158.199 61.4748 157.999 61.5202 157.763H62.9947C62.9577 158.226 62.8214 158.636 62.5856 158.994C62.3498 159.349 62.0288 159.628 61.6225 159.83C61.2163 160.028 60.739 160.128 60.1907 160.128ZM65.6676 157.946L65.6634 156.084H65.9105L68.2628 153.455H70.0653L67.1719 156.676H66.8523L65.6676 157.946ZM64.2614 160V151.273H65.804V160H64.2614ZM68.3693 160L66.2386 157.021L67.2784 155.935L70.2145 160H68.3693ZM74.07 160V153.455H75.5657V154.545H75.6339C75.7532 154.168 75.9577 153.876 76.2475 153.672C76.5401 153.464 76.8739 153.361 77.2489 153.361C77.3342 153.361 77.4293 153.365 77.5344 153.374C77.6424 153.379 77.7319 153.389 77.8029 153.403V154.822C77.7376 154.8 77.6339 154.78 77.4918 154.763C77.3526 154.743 77.2177 154.733 77.087 154.733C76.8058 154.733 76.5529 154.794 76.3285 154.916C76.1069 155.036 75.9322 155.202 75.8043 155.415C75.6765 155.628 75.6126 155.874 75.6126 156.152V160H74.07ZM81.456 160.128C80.7997 160.128 80.233 159.991 79.7557 159.719C79.2813 159.443 78.9162 159.054 78.6605 158.551C78.4048 158.045 78.277 157.45 78.277 156.766C78.277 156.092 78.4048 155.501 78.6605 154.993C78.919 154.482 79.2798 154.084 79.7429 153.8C80.206 153.513 80.75 153.369 81.375 153.369C81.7784 153.369 82.1591 153.435 82.517 153.565C82.8778 153.693 83.196 153.892 83.4716 154.162C83.75 154.432 83.9688 154.776 84.1278 155.193C84.2869 155.608 84.3665 156.102 84.3665 156.676V157.149H79.0014V156.109H82.8878C82.8849 155.814 82.821 155.551 82.696 155.321C82.571 155.088 82.3963 154.905 82.1719 154.771C81.9503 154.638 81.6918 154.571 81.3963 154.571C81.081 154.571 80.804 154.648 80.5653 154.801C80.3267 154.952 80.1406 155.151 80.0071 155.398C79.8764 155.642 79.8097 155.911 79.8068 156.203V157.111C79.8068 157.491 79.8764 157.818 80.0156 158.091C80.1548 158.361 80.3494 158.568 80.5994 158.713C80.8494 158.855 81.142 158.926 81.4773 158.926C81.7017 158.926 81.9048 158.895 82.0866 158.832C82.2685 158.767 82.4261 158.672 82.5597 158.547C82.6932 158.422 82.794 158.267 82.8622 158.082L84.3026 158.244C84.2116 158.625 84.0384 158.957 83.7827 159.241C83.5298 159.523 83.206 159.741 82.8111 159.898C82.4162 160.051 81.9645 160.128 81.456 160.128ZM90.0394 162.455V158.969H89.9755C89.896 159.128 89.7809 159.297 89.6303 159.476C89.4798 159.652 89.2809 159.803 89.0337 159.928C88.7866 160.053 88.4755 160.115 88.1005 160.115C87.5863 160.115 87.1261 159.983 86.7198 159.719C86.3136 159.455 85.9925 159.071 85.7567 158.568C85.521 158.065 85.4031 157.455 85.4031 156.736C85.4031 156.009 85.5224 155.395 85.761 154.895C86.0025 154.392 86.3278 154.013 86.7369 153.757C87.146 153.499 87.6019 153.369 88.1048 153.369C88.4883 153.369 88.8036 153.435 89.0508 153.565C89.2979 153.693 89.494 153.848 89.6388 154.03C89.7837 154.209 89.896 154.378 89.9755 154.537H90.0692V153.455H91.5863V162.455H90.0394ZM88.5309 158.849C88.8576 158.849 89.136 158.761 89.3661 158.585C89.5962 158.406 89.771 158.158 89.8903 157.839C90.0096 157.521 90.0692 157.151 90.0692 156.727C90.0692 156.304 90.0096 155.936 89.8903 155.624C89.7738 155.311 89.6005 155.068 89.3704 154.895C89.1431 154.722 88.8633 154.635 88.5309 154.635C88.1871 154.635 87.9002 154.724 87.6701 154.903C87.44 155.082 87.2667 155.33 87.1502 155.645C87.0337 155.96 86.9755 156.321 86.9755 156.727C86.9755 157.136 87.0337 157.501 87.1502 157.822C87.2695 158.141 87.4442 158.392 87.6744 158.577C87.9073 158.759 88.1928 158.849 88.5309 158.849ZM97.3434 157.247V153.455H98.886V160H97.3903V158.837H97.3221C97.1744 159.203 96.9315 159.503 96.5934 159.736C96.2582 159.969 95.8448 160.085 95.3533 160.085C94.9244 160.085 94.5451 159.99 94.2156 159.8C93.8888 159.607 93.6332 159.327 93.4485 158.96C93.2638 158.591 93.1715 158.145 93.1715 157.622V153.455H94.7141V157.384C94.7141 157.798 94.8278 158.128 95.055 158.372C95.2823 158.616 95.5806 158.739 95.9499 158.739C96.1772 158.739 96.3974 158.683 96.6104 158.572C96.8235 158.462 96.9982 158.297 97.1346 158.078C97.2738 157.857 97.3434 157.58 97.3434 157.247ZM103.37 160.128C102.714 160.128 102.147 159.991 101.67 159.719C101.195 159.443 100.83 159.054 100.575 158.551C100.319 158.045 100.191 157.45 100.191 156.766C100.191 156.092 100.319 155.501 100.575 154.993C100.833 154.482 101.194 154.084 101.657 153.8C102.12 153.513 102.664 153.369 103.289 153.369C103.692 153.369 104.073 153.435 104.431 153.565C104.792 153.693 105.11 153.892 105.386 154.162C105.664 154.432 105.883 154.776 106.042 155.193C106.201 155.608 106.281 156.102 106.281 156.676V157.149H100.915V156.109H104.802C104.799 155.814 104.735 155.551 104.61 155.321C104.485 155.088 104.31 154.905 104.086 154.771C103.864 154.638 103.606 154.571 103.31 154.571C102.995 154.571 102.718 154.648 102.479 154.801C102.241 154.952 102.055 155.151 101.921 155.398C101.79 155.642 101.724 155.911 101.721 156.203V157.111C101.721 157.491 101.79 157.818 101.93 158.091C102.069 158.361 102.263 158.568 102.513 158.713C102.763 158.855 103.056 158.926 103.391 158.926C103.616 158.926 103.819 158.895 104.001 158.832C104.183 158.767 104.34 158.672 104.474 158.547C104.607 158.422 104.708 158.267 104.776 158.082L106.217 158.244C106.126 158.625 105.952 158.957 105.697 159.241C105.444 159.523 105.12 159.741 104.725 159.898C104.33 160.051 103.879 160.128 103.37 160.128ZM112.759 155.185L111.353 155.338C111.313 155.196 111.243 155.062 111.144 154.938C111.047 154.812 110.917 154.712 110.752 154.635C110.587 154.558 110.385 154.52 110.147 154.52C109.826 154.52 109.556 154.589 109.337 154.729C109.121 154.868 109.015 155.048 109.017 155.27C109.015 155.46 109.084 155.615 109.226 155.734C109.371 155.854 109.61 155.952 109.942 156.028L111.059 156.267C111.678 156.401 112.138 156.612 112.439 156.902C112.743 157.192 112.897 157.571 112.9 158.04C112.897 158.452 112.776 158.815 112.537 159.131C112.301 159.443 111.973 159.687 111.553 159.864C111.132 160.04 110.65 160.128 110.104 160.128C109.303 160.128 108.658 159.96 108.169 159.625C107.681 159.287 107.39 158.817 107.296 158.214L108.8 158.07C108.868 158.365 109.013 158.588 109.235 158.739C109.456 158.889 109.745 158.964 110.1 158.964C110.466 158.964 110.76 158.889 110.982 158.739C111.206 158.588 111.319 158.402 111.319 158.18C111.319 157.993 111.246 157.838 111.101 157.716C110.959 157.594 110.738 157.5 110.436 157.435L109.32 157.2C108.692 157.07 108.228 156.849 107.926 156.54C107.625 156.227 107.476 155.832 107.479 155.355C107.476 154.952 107.586 154.602 107.807 154.307C108.032 154.009 108.343 153.778 108.74 153.616C109.141 153.452 109.603 153.369 110.125 153.369C110.892 153.369 111.496 153.533 111.936 153.859C112.38 154.186 112.654 154.628 112.759 155.185ZM117.44 153.455V154.648H113.677V153.455H117.44ZM114.606 151.886H116.149V158.031C116.149 158.239 116.18 158.398 116.243 158.509C116.308 158.616 116.393 158.69 116.498 158.73C116.603 158.77 116.72 158.79 116.848 158.79C116.944 158.79 117.032 158.783 117.112 158.768C117.194 158.754 117.257 158.741 117.299 158.73L117.559 159.936C117.477 159.964 117.359 159.996 117.206 160.03C117.055 160.064 116.87 160.084 116.652 160.089C116.265 160.101 115.917 160.043 115.608 159.915C115.298 159.784 115.052 159.582 114.87 159.31C114.691 159.037 114.603 158.696 114.606 158.287V151.886ZM121.558 160.128C120.901 160.128 120.335 159.991 119.857 159.719C119.383 159.443 119.018 159.054 118.762 158.551C118.506 158.045 118.379 157.45 118.379 156.766C118.379 156.092 118.506 155.501 118.762 154.993C119.021 154.482 119.381 154.084 119.844 153.8C120.308 153.513 120.852 153.369 121.477 153.369C121.88 153.369 122.261 153.435 122.619 153.565C122.979 153.693 123.298 153.892 123.573 154.162C123.852 154.432 124.07 154.776 124.229 155.193C124.388 155.608 124.468 156.102 124.468 156.676V157.149H119.103V156.109H122.989C122.987 155.814 122.923 155.551 122.798 155.321C122.673 155.088 122.498 154.905 122.273 154.771C122.052 154.638 121.793 154.571 121.498 154.571C121.183 154.571 120.906 154.648 120.667 154.801C120.428 154.952 120.242 155.151 120.109 155.398C119.978 155.642 119.911 155.911 119.908 156.203V157.111C119.908 157.491 119.978 157.818 120.117 158.091C120.256 158.361 120.451 158.568 120.701 158.713C120.951 158.855 121.244 158.926 121.579 158.926C121.803 158.926 122.006 158.895 122.188 158.832C122.37 158.767 122.528 158.672 122.661 158.547C122.795 158.422 122.896 158.267 122.964 158.082L124.404 158.244C124.313 158.625 124.14 158.957 123.884 159.241C123.631 159.523 123.308 159.741 122.913 159.898C122.518 160.051 122.066 160.128 121.558 160.128ZM128.202 160.115C127.688 160.115 127.228 159.983 126.821 159.719C126.415 159.455 126.094 159.071 125.858 158.568C125.623 158.065 125.505 157.455 125.505 156.736C125.505 156.009 125.624 155.395 125.863 154.895C126.104 154.392 126.429 154.013 126.838 153.757C127.248 153.499 127.703 153.369 128.206 153.369C128.59 153.369 128.905 153.435 129.152 153.565C129.4 153.693 129.596 153.848 129.74 154.03C129.885 154.209 129.998 154.378 130.077 154.537H130.141V151.273H131.688V160H130.171V158.969H130.077C129.998 159.128 129.882 159.297 129.732 159.476C129.581 159.652 129.382 159.803 129.135 159.928C128.888 160.053 128.577 160.115 128.202 160.115ZM128.632 158.849C128.959 158.849 129.238 158.761 129.468 158.585C129.698 158.406 129.873 158.158 129.992 157.839C130.111 157.521 130.171 157.151 130.171 156.727C130.171 156.304 130.111 155.936 129.992 155.624C129.875 155.311 129.702 155.068 129.472 154.895C129.245 154.722 128.965 154.635 128.632 154.635C128.289 154.635 128.002 154.724 127.772 154.903C127.542 155.082 127.368 155.33 127.252 155.645C127.135 155.96 127.077 156.321 127.077 156.727C127.077 157.136 127.135 157.501 127.252 157.822C127.371 158.141 127.546 158.392 127.776 158.577C128.009 158.759 128.294 158.849 128.632 158.849ZM135.219 151.273L135.079 157.435H133.707L133.57 151.273H135.219ZM134.393 160.094C134.134 160.094 133.913 160.003 133.728 159.821C133.546 159.639 133.455 159.418 133.455 159.156C133.455 158.901 133.546 158.682 133.728 158.5C133.913 158.318 134.134 158.227 134.393 158.227C134.646 158.227 134.864 158.318 135.049 158.5C135.237 158.682 135.33 158.901 135.33 159.156C135.33 159.33 135.286 159.487 135.198 159.629C135.113 159.771 134.999 159.885 134.857 159.97C134.718 160.053 134.563 160.094 134.393 160.094Z" fill="#C37E0F"/>
<path d="M142.259 160L139.873 151.273H140.947L142.771 158.381H142.856L144.714 151.273H145.907L147.765 158.381H147.85L149.674 151.273H150.748L148.362 160H147.271L145.344 153.045H145.276L143.35 160H142.259ZM153.245 160.153C152.83 160.153 152.454 160.075 152.116 159.919C151.778 159.76 151.509 159.531 151.31 159.233C151.112 158.932 151.012 158.568 151.012 158.142C151.012 157.767 151.086 157.463 151.234 157.23C151.381 156.994 151.579 156.81 151.826 156.676C152.073 156.543 152.346 156.443 152.644 156.378C152.945 156.31 153.248 156.256 153.552 156.216C153.95 156.165 154.272 156.126 154.519 156.101C154.769 156.072 154.951 156.026 155.065 155.96C155.181 155.895 155.239 155.781 155.239 155.619V155.585C155.239 155.165 155.124 154.838 154.894 154.605C154.667 154.372 154.322 154.256 153.859 154.256C153.379 154.256 153.002 154.361 152.729 154.571C152.457 154.781 152.265 155.006 152.154 155.244L151.2 154.903C151.37 154.506 151.597 154.196 151.881 153.974C152.168 153.75 152.481 153.594 152.819 153.506C153.16 153.415 153.495 153.369 153.825 153.369C154.035 153.369 154.276 153.395 154.549 153.446C154.825 153.494 155.09 153.595 155.346 153.749C155.604 153.902 155.819 154.134 155.989 154.443C156.16 154.753 156.245 155.168 156.245 155.688V160H155.239V159.114H155.188C155.12 159.256 155.006 159.408 154.847 159.57C154.688 159.732 154.477 159.869 154.212 159.983C153.948 160.097 153.626 160.153 153.245 160.153ZM153.398 159.25C153.796 159.25 154.131 159.172 154.404 159.016C154.68 158.859 154.887 158.658 155.026 158.411C155.168 158.163 155.239 157.903 155.239 157.631V156.71C155.197 156.761 155.103 156.808 154.958 156.851C154.816 156.891 154.651 156.926 154.464 156.957C154.279 156.986 154.099 157.011 153.923 157.034C153.749 157.054 153.609 157.071 153.501 157.085C153.239 157.119 152.995 157.175 152.768 157.251C152.543 157.325 152.362 157.437 152.222 157.588C152.086 157.736 152.018 157.937 152.018 158.193C152.018 158.543 152.147 158.807 152.406 158.986C152.667 159.162 152.998 159.25 153.398 159.25ZM158.081 160V153.455H159.086V160H158.081ZM158.592 152.364C158.396 152.364 158.227 152.297 158.085 152.163C157.946 152.03 157.876 151.869 157.876 151.682C157.876 151.494 157.946 151.334 158.085 151.2C158.227 151.067 158.396 151 158.592 151C158.788 151 158.956 151.067 159.095 151.2C159.237 151.334 159.308 151.494 159.308 151.682C159.308 151.869 159.237 152.03 159.095 152.163C158.956 152.297 158.788 152.364 158.592 152.364ZM163.775 153.455V154.307H160.383V153.455H163.775ZM161.371 151.886H162.377V158.125C162.377 158.409 162.418 158.622 162.501 158.764C162.586 158.903 162.694 158.997 162.825 159.045C162.958 159.091 163.099 159.114 163.246 159.114C163.357 159.114 163.448 159.108 163.519 159.097C163.59 159.082 163.647 159.071 163.69 159.062L163.894 159.966C163.826 159.991 163.731 160.017 163.609 160.043C163.487 160.071 163.332 160.085 163.144 160.085C162.86 160.085 162.582 160.024 162.309 159.902C162.039 159.78 161.815 159.594 161.636 159.344C161.46 159.094 161.371 158.778 161.371 158.398V151.886ZM165.288 160V153.455H166.293V160H165.288ZM165.799 152.364C165.603 152.364 165.434 152.297 165.292 152.163C165.153 152.03 165.083 151.869 165.083 151.682C165.083 151.494 165.153 151.334 165.292 151.2C165.434 151.067 165.603 151 165.799 151C165.995 151 166.163 151.067 166.302 151.2C166.444 151.334 166.515 151.494 166.515 151.682C166.515 151.869 166.444 152.03 166.302 152.163C166.163 152.297 165.995 152.364 165.799 152.364ZM169.141 156.062V160H168.135V153.455H169.107V154.477H169.192C169.346 154.145 169.578 153.878 169.891 153.676C170.203 153.472 170.607 153.369 171.101 153.369C171.544 153.369 171.932 153.46 172.265 153.642C172.597 153.821 172.855 154.094 173.04 154.46C173.225 154.824 173.317 155.284 173.317 155.841V160H172.311V155.909C172.311 155.395 172.178 154.994 171.911 154.707C171.644 154.418 171.277 154.273 170.811 154.273C170.49 154.273 170.203 154.342 169.951 154.482C169.701 154.621 169.503 154.824 169.358 155.091C169.213 155.358 169.141 155.682 169.141 156.062ZM177.797 162.591C177.311 162.591 176.893 162.528 176.544 162.403C176.195 162.281 175.903 162.119 175.67 161.918C175.44 161.719 175.257 161.506 175.121 161.278L175.922 160.716C176.013 160.835 176.128 160.972 176.267 161.125C176.406 161.281 176.597 161.416 176.838 161.53C177.082 161.646 177.402 161.705 177.797 161.705C178.325 161.705 178.761 161.577 179.105 161.321C179.449 161.065 179.621 160.665 179.621 160.119V158.79H179.536C179.462 158.909 179.357 159.057 179.22 159.233C179.087 159.406 178.893 159.561 178.641 159.697C178.391 159.831 178.053 159.898 177.626 159.898C177.098 159.898 176.624 159.773 176.203 159.523C175.786 159.273 175.455 158.909 175.21 158.432C174.969 157.955 174.848 157.375 174.848 156.693C174.848 156.023 174.966 155.439 175.202 154.942C175.438 154.442 175.766 154.055 176.186 153.783C176.607 153.507 177.092 153.369 177.643 153.369C178.07 153.369 178.408 153.44 178.658 153.582C178.911 153.722 179.104 153.881 179.237 154.06C179.374 154.236 179.479 154.381 179.553 154.494H179.655V153.455H180.626V160.188C180.626 160.75 180.499 161.207 180.243 161.56C179.99 161.915 179.649 162.175 179.22 162.339C178.794 162.507 178.32 162.591 177.797 162.591ZM177.763 158.994C178.166 158.994 178.507 158.902 178.786 158.717C179.064 158.533 179.276 158.267 179.42 157.92C179.565 157.574 179.638 157.159 179.638 156.676C179.638 156.205 179.567 155.788 179.425 155.428C179.283 155.067 179.072 154.784 178.794 154.58C178.516 154.375 178.172 154.273 177.763 154.273C177.337 154.273 176.982 154.381 176.697 154.597C176.416 154.812 176.205 155.102 176.062 155.466C175.923 155.83 175.854 156.233 175.854 156.676C175.854 157.131 175.925 157.533 176.067 157.882C176.212 158.229 176.425 158.501 176.706 158.7C176.99 158.896 177.342 158.994 177.763 158.994ZM188.757 153.455V154.307H185.229V153.455H188.757ZM186.286 160V152.551C186.286 152.176 186.374 151.864 186.55 151.614C186.726 151.364 186.955 151.176 187.236 151.051C187.517 150.926 187.814 150.864 188.126 150.864C188.374 150.864 188.575 150.884 188.732 150.923C188.888 150.963 189.004 151 189.081 151.034L188.791 151.903C188.74 151.886 188.669 151.865 188.578 151.839C188.49 151.814 188.374 151.801 188.229 151.801C187.896 151.801 187.656 151.885 187.509 152.053C187.364 152.22 187.291 152.466 187.291 152.79V160H186.286ZM192.556 160.136C191.965 160.136 191.447 159.996 191.001 159.714C190.558 159.433 190.211 159.04 189.961 158.534C189.714 158.028 189.59 157.437 189.59 156.761C189.59 156.08 189.714 155.484 189.961 154.976C190.211 154.467 190.558 154.072 191.001 153.791C191.447 153.51 191.965 153.369 192.556 153.369C193.147 153.369 193.664 153.51 194.107 153.791C194.553 154.072 194.9 154.467 195.147 154.976C195.397 155.484 195.522 156.08 195.522 156.761C195.522 157.437 195.397 158.028 195.147 158.534C194.9 159.04 194.553 159.433 194.107 159.714C193.664 159.996 193.147 160.136 192.556 160.136ZM192.556 159.233C193.005 159.233 193.374 159.118 193.664 158.888C193.954 158.658 194.168 158.355 194.308 157.98C194.447 157.605 194.516 157.199 194.516 156.761C194.516 156.324 194.447 155.916 194.308 155.538C194.168 155.161 193.954 154.855 193.664 154.622C193.374 154.389 193.005 154.273 192.556 154.273C192.107 154.273 191.738 154.389 191.448 154.622C191.158 154.855 190.944 155.161 190.805 155.538C190.665 155.916 190.596 156.324 190.596 156.761C190.596 157.199 190.665 157.605 190.805 157.98C190.944 158.355 191.158 158.658 191.448 158.888C191.738 159.118 192.107 159.233 192.556 159.233ZM197.057 160V153.455H198.029V154.443H198.097C198.216 154.119 198.432 153.857 198.745 153.655C199.057 153.453 199.409 153.352 199.801 153.352C199.875 153.352 199.968 153.354 200.078 153.357C200.189 153.359 200.273 153.364 200.33 153.369V154.392C200.296 154.384 200.218 154.371 200.096 154.354C199.976 154.334 199.85 154.324 199.716 154.324C199.398 154.324 199.114 154.391 198.864 154.524C198.617 154.655 198.421 154.837 198.276 155.07C198.134 155.3 198.063 155.562 198.063 155.858V160H197.057ZM209.022 157.324V153.455H210.028V160H209.022V158.892H208.954C208.8 159.224 208.562 159.507 208.238 159.74C207.914 159.97 207.505 160.085 207.011 160.085C206.602 160.085 206.238 159.996 205.92 159.817C205.602 159.635 205.352 159.362 205.17 158.999C204.988 158.632 204.897 158.17 204.897 157.614V153.455H205.903V157.545C205.903 158.023 206.036 158.403 206.303 158.688C206.573 158.972 206.917 159.114 207.335 159.114C207.585 159.114 207.839 159.05 208.097 158.922C208.359 158.794 208.577 158.598 208.754 158.334C208.933 158.07 209.022 157.733 209.022 157.324ZM212.875 156.062V160H211.87V153.455H212.841V154.477H212.926C213.08 154.145 213.313 153.878 213.625 153.676C213.938 153.472 214.341 153.369 214.836 153.369C215.279 153.369 215.667 153.46 215.999 153.642C216.331 153.821 216.59 154.094 216.775 154.46C216.959 154.824 217.051 155.284 217.051 155.841V160H216.046V155.909C216.046 155.395 215.912 154.994 215.645 154.707C215.378 154.418 215.012 154.273 214.546 154.273C214.225 154.273 213.938 154.342 213.685 154.482C213.435 154.621 213.238 154.824 213.093 155.091C212.948 155.358 212.875 155.682 212.875 156.062ZM219.895 151.273V160H218.889V151.273H219.895ZM224.396 160.136C223.805 160.136 223.287 159.996 222.841 159.714C222.397 159.433 222.051 159.04 221.801 158.534C221.554 158.028 221.43 157.437 221.43 156.761C221.43 156.08 221.554 155.484 221.801 154.976C222.051 154.467 222.397 154.072 222.841 153.791C223.287 153.51 223.805 153.369 224.396 153.369C224.987 153.369 225.504 153.51 225.947 153.791C226.393 154.072 226.74 154.467 226.987 154.976C227.237 155.484 227.362 156.08 227.362 156.761C227.362 157.437 227.237 158.028 226.987 158.534C226.74 159.04 226.393 159.433 225.947 159.714C225.504 159.996 224.987 160.136 224.396 160.136ZM224.396 159.233C224.845 159.233 225.214 159.118 225.504 158.888C225.794 158.658 226.008 158.355 226.147 157.98C226.287 157.605 226.356 157.199 226.356 156.761C226.356 156.324 226.287 155.916 226.147 155.538C226.008 155.161 225.794 154.855 225.504 154.622C225.214 154.389 224.845 154.273 224.396 154.273C223.947 154.273 223.578 154.389 223.288 154.622C222.998 154.855 222.784 155.161 222.645 155.538C222.505 155.916 222.436 156.324 222.436 156.761C222.436 157.199 222.505 157.605 222.645 157.98C222.784 158.355 222.998 158.658 223.288 158.888C223.578 159.118 223.947 159.233 224.396 159.233ZM231.556 160.136C230.942 160.136 230.414 159.991 229.971 159.702C229.528 159.412 229.187 159.013 228.948 158.504C228.71 157.996 228.59 157.415 228.59 156.761C228.59 156.097 228.712 155.51 228.957 155.001C229.204 154.49 229.548 154.091 229.988 153.804C230.431 153.514 230.948 153.369 231.539 153.369C231.999 153.369 232.414 153.455 232.783 153.625C233.153 153.795 233.455 154.034 233.691 154.341C233.927 154.648 234.073 155.006 234.13 155.415H233.124C233.048 155.116 232.877 154.852 232.613 154.622C232.352 154.389 231.999 154.273 231.556 154.273C231.164 154.273 230.82 154.375 230.525 154.58C230.232 154.781 230.004 155.067 229.839 155.436C229.677 155.803 229.596 156.233 229.596 156.727C229.596 157.233 229.675 157.673 229.835 158.048C229.996 158.423 230.224 158.714 230.516 158.922C230.812 159.129 231.158 159.233 231.556 159.233C231.817 159.233 232.055 159.188 232.268 159.097C232.481 159.006 232.661 158.875 232.809 158.705C232.957 158.534 233.062 158.33 233.124 158.091H234.13C234.073 158.477 233.933 158.825 233.708 159.135C233.487 159.442 233.192 159.686 232.826 159.868C232.462 160.047 232.039 160.136 231.556 160.136ZM236.538 157.614L236.521 156.369H236.725L239.589 153.455H240.833L237.782 156.54H237.697L236.538 157.614ZM235.6 160V151.273H236.606V160H235.6ZM239.759 160L237.202 156.761L237.918 156.062L241.038 160H239.759ZM247.429 160.153C247.014 160.153 246.637 160.075 246.299 159.919C245.961 159.76 245.693 159.531 245.494 159.233C245.295 158.932 245.196 158.568 245.196 158.142C245.196 157.767 245.27 157.463 245.417 157.23C245.565 156.994 245.762 156.81 246.01 156.676C246.257 156.543 246.529 156.443 246.828 156.378C247.129 156.31 247.431 156.256 247.735 156.216C248.133 156.165 248.456 156.126 248.703 156.101C248.953 156.072 249.135 156.026 249.248 155.96C249.365 155.895 249.423 155.781 249.423 155.619V155.585C249.423 155.165 249.308 154.838 249.078 154.605C248.85 154.372 248.505 154.256 248.042 154.256C247.562 154.256 247.186 154.361 246.913 154.571C246.64 154.781 246.449 155.006 246.338 155.244L245.383 154.903C245.554 154.506 245.781 154.196 246.065 153.974C246.352 153.75 246.664 153.594 247.002 153.506C247.343 153.415 247.679 153.369 248.008 153.369C248.218 153.369 248.46 153.395 248.733 153.446C249.008 153.494 249.274 153.595 249.529 153.749C249.788 153.902 250.002 154.134 250.173 154.443C250.343 154.753 250.429 155.168 250.429 155.688V160H249.423V159.114H249.372C249.304 159.256 249.19 159.408 249.031 159.57C248.872 159.732 248.66 159.869 248.396 159.983C248.132 160.097 247.809 160.153 247.429 160.153ZM247.582 159.25C247.98 159.25 248.315 159.172 248.588 159.016C248.863 158.859 249.071 158.658 249.21 158.411C249.352 158.163 249.423 157.903 249.423 157.631V156.71C249.38 156.761 249.287 156.808 249.142 156.851C249 156.891 248.835 156.926 248.647 156.957C248.463 156.986 248.282 157.011 248.106 157.034C247.933 157.054 247.792 157.071 247.684 157.085C247.423 157.119 247.179 157.175 246.951 157.251C246.727 157.325 246.545 157.437 246.406 157.588C246.27 157.736 246.201 157.937 246.201 158.193C246.201 158.543 246.331 158.807 246.589 158.986C246.85 159.162 247.181 159.25 247.582 159.25ZM252.264 162.455V153.455H253.236V154.494H253.355C253.429 154.381 253.531 154.236 253.662 154.06C253.795 153.881 253.986 153.722 254.233 153.582C254.483 153.44 254.821 153.369 255.247 153.369C255.798 153.369 256.284 153.507 256.705 153.783C257.125 154.058 257.453 154.449 257.689 154.955C257.925 155.46 258.043 156.057 258.043 156.744C258.043 157.438 257.925 158.038 257.689 158.547C257.453 159.053 257.126 159.445 256.709 159.723C256.291 159.999 255.81 160.136 255.264 160.136C254.844 160.136 254.507 160.067 254.254 159.928C254.001 159.786 253.807 159.625 253.67 159.446C253.534 159.264 253.429 159.114 253.355 158.994H253.27V162.455H252.264ZM253.253 156.727C253.253 157.222 253.325 157.658 253.47 158.036C253.615 158.411 253.827 158.705 254.105 158.918C254.384 159.128 254.724 159.233 255.128 159.233C255.548 159.233 255.899 159.122 256.18 158.901C256.464 158.676 256.678 158.375 256.82 157.997C256.964 157.616 257.037 157.193 257.037 156.727C257.037 156.267 256.966 155.852 256.824 155.483C256.685 155.111 256.473 154.817 256.189 154.601C255.908 154.382 255.554 154.273 255.128 154.273C254.719 154.273 254.375 154.376 254.097 154.584C253.818 154.788 253.608 155.075 253.466 155.445C253.324 155.811 253.253 156.239 253.253 156.727ZM259.577 162.455V153.455H260.548V154.494H260.668C260.741 154.381 260.844 154.236 260.974 154.06C261.108 153.881 261.298 153.722 261.545 153.582C261.795 153.44 262.134 153.369 262.56 153.369C263.111 153.369 263.597 153.507 264.017 153.783C264.438 154.058 264.766 154.449 265.001 154.955C265.237 155.46 265.355 156.057 265.355 156.744C265.355 157.438 265.237 158.038 265.001 158.547C264.766 159.053 264.439 159.445 264.021 159.723C263.604 159.999 263.122 160.136 262.577 160.136C262.156 160.136 261.82 160.067 261.567 159.928C261.314 159.786 261.119 159.625 260.983 159.446C260.847 159.264 260.741 159.114 260.668 158.994H260.582V162.455H259.577ZM260.565 156.727C260.565 157.222 260.638 157.658 260.783 158.036C260.928 158.411 261.139 158.705 261.418 158.918C261.696 159.128 262.037 159.233 262.44 159.233C262.861 159.233 263.212 159.122 263.493 158.901C263.777 158.676 263.99 158.375 264.132 157.997C264.277 157.616 264.349 157.193 264.349 156.727C264.349 156.267 264.278 155.852 264.136 155.483C263.997 155.111 263.786 154.817 263.501 154.601C263.22 154.382 262.866 154.273 262.44 154.273C262.031 154.273 261.688 154.376 261.409 154.584C261.131 154.788 260.92 155.075 260.778 155.445C260.636 155.811 260.565 156.239 260.565 156.727ZM266.889 160V153.455H267.861V154.443H267.929C268.048 154.119 268.264 153.857 268.577 153.655C268.889 153.453 269.241 153.352 269.634 153.352C269.707 153.352 269.8 153.354 269.911 153.357C270.021 153.359 270.105 153.364 270.162 153.369V154.392C270.128 154.384 270.05 154.371 269.928 154.354C269.808 154.334 269.682 154.324 269.548 154.324C269.23 154.324 268.946 154.391 268.696 154.524C268.449 154.655 268.253 154.837 268.108 155.07C267.966 155.3 267.895 155.562 267.895 155.858V160H266.889ZM273.814 160.136C273.223 160.136 272.705 159.996 272.259 159.714C271.815 159.433 271.469 159.04 271.219 158.534C270.972 158.028 270.848 157.437 270.848 156.761C270.848 156.08 270.972 155.484 271.219 154.976C271.469 154.467 271.815 154.072 272.259 153.791C272.705 153.51 273.223 153.369 273.814 153.369C274.405 153.369 274.922 153.51 275.365 153.791C275.811 154.072 276.158 154.467 276.405 154.976C276.655 155.484 276.78 156.08 276.78 156.761C276.78 157.437 276.655 158.028 276.405 158.534C276.158 159.04 275.811 159.433 275.365 159.714C274.922 159.996 274.405 160.136 273.814 160.136ZM273.814 159.233C274.263 159.233 274.632 159.118 274.922 158.888C275.212 158.658 275.426 158.355 275.565 157.98C275.705 157.605 275.774 157.199 275.774 156.761C275.774 156.324 275.705 155.916 275.565 155.538C275.426 155.161 275.212 154.855 274.922 154.622C274.632 154.389 274.263 154.273 273.814 154.273C273.365 154.273 272.996 154.389 272.706 154.622C272.416 154.855 272.202 155.161 272.062 155.538C271.923 155.916 271.854 156.324 271.854 156.761C271.854 157.199 271.923 157.605 272.062 157.98C272.202 158.355 272.416 158.658 272.706 158.888C272.996 159.118 273.365 159.233 273.814 159.233ZM283.433 153.455L281.012 160H279.99L277.569 153.455H278.66L280.467 158.67H280.535L282.342 153.455H283.433ZM286.487 160.153C286.072 160.153 285.696 160.075 285.358 159.919C285.02 159.76 284.751 159.531 284.553 159.233C284.354 158.932 284.254 158.568 284.254 158.142C284.254 157.767 284.328 157.463 284.476 157.23C284.624 156.994 284.821 156.81 285.068 156.676C285.315 156.543 285.588 156.443 285.886 156.378C286.188 156.31 286.49 156.256 286.794 156.216C287.192 156.165 287.514 156.126 287.761 156.101C288.011 156.072 288.193 156.026 288.307 155.96C288.423 155.895 288.482 155.781 288.482 155.619V155.585C288.482 155.165 288.366 154.838 288.136 154.605C287.909 154.372 287.564 154.256 287.101 154.256C286.621 154.256 286.244 154.361 285.972 154.571C285.699 154.781 285.507 155.006 285.396 155.244L284.442 154.903C284.612 154.506 284.839 154.196 285.124 153.974C285.411 153.75 285.723 153.594 286.061 153.506C286.402 153.415 286.737 153.369 287.067 153.369C287.277 153.369 287.518 153.395 287.791 153.446C288.067 153.494 288.332 153.595 288.588 153.749C288.847 153.902 289.061 154.134 289.232 154.443C289.402 154.753 289.487 155.168 289.487 155.688V160H288.482V159.114H288.43C288.362 159.256 288.249 159.408 288.089 159.57C287.93 159.732 287.719 159.869 287.455 159.983C287.19 160.097 286.868 160.153 286.487 160.153ZM286.641 159.25C287.038 159.25 287.374 159.172 287.646 159.016C287.922 158.859 288.129 158.658 288.268 158.411C288.411 158.163 288.482 157.903 288.482 157.631V156.71C288.439 156.761 288.345 156.808 288.2 156.851C288.058 156.891 287.893 156.926 287.706 156.957C287.521 156.986 287.341 157.011 287.165 157.034C286.991 157.054 286.851 157.071 286.743 157.085C286.482 157.119 286.237 157.175 286.01 157.251C285.786 157.325 285.604 157.437 285.464 157.588C285.328 157.736 285.26 157.937 285.26 158.193C285.26 158.543 285.389 158.807 285.648 158.986C285.909 159.162 286.24 159.25 286.641 159.25ZM292.328 151.273V160H291.323V151.273H292.328ZM297.682 160V151.273H298.688V154.494H298.773C298.847 154.381 298.949 154.236 299.08 154.06C299.213 153.881 299.403 153.722 299.651 153.582C299.901 153.44 300.239 153.369 300.665 153.369C301.216 153.369 301.702 153.507 302.122 153.783C302.543 154.058 302.871 154.449 303.107 154.955C303.342 155.46 303.46 156.057 303.46 156.744C303.46 157.438 303.342 158.038 303.107 158.547C302.871 159.053 302.544 159.445 302.126 159.723C301.709 159.999 301.227 160.136 300.682 160.136C300.261 160.136 299.925 160.067 299.672 159.928C299.419 159.786 299.224 159.625 299.088 159.446C298.952 159.264 298.847 159.114 298.773 158.994H298.653V160H297.682ZM298.67 156.727C298.67 157.222 298.743 157.658 298.888 158.036C299.033 158.411 299.244 158.705 299.523 158.918C299.801 159.128 300.142 159.233 300.545 159.233C300.966 159.233 301.317 159.122 301.598 158.901C301.882 158.676 302.095 158.375 302.237 157.997C302.382 157.616 302.455 157.193 302.455 156.727C302.455 156.267 302.384 155.852 302.241 155.483C302.102 155.111 301.891 154.817 301.607 154.601C301.325 154.382 300.972 154.273 300.545 154.273C300.136 154.273 299.793 154.376 299.514 154.584C299.236 154.788 299.026 155.075 298.884 155.445C298.741 155.811 298.67 156.239 298.67 156.727ZM305.412 162.455C305.241 162.455 305.089 162.44 304.956 162.412C304.822 162.386 304.73 162.361 304.679 162.335L304.935 161.449C305.179 161.511 305.395 161.534 305.582 161.517C305.77 161.5 305.936 161.416 306.081 161.266C306.229 161.118 306.364 160.878 306.486 160.545L306.673 160.034L304.253 153.455H305.344L307.151 158.67H307.219L309.026 153.455H310.116L307.338 160.955C307.213 161.293 307.058 161.572 306.874 161.794C306.689 162.018 306.474 162.185 306.23 162.293C305.989 162.401 305.716 162.455 305.412 162.455ZM317.665 153.455V154.307H314.273V153.455H317.665ZM315.262 151.886H316.268V158.125C316.268 158.409 316.309 158.622 316.391 158.764C316.477 158.903 316.585 158.997 316.715 159.045C316.849 159.091 316.989 159.114 317.137 159.114C317.248 159.114 317.339 159.108 317.41 159.097C317.481 159.082 317.538 159.071 317.58 159.062L317.785 159.966C317.717 159.991 317.621 160.017 317.499 160.043C317.377 160.071 317.222 160.085 317.035 160.085C316.751 160.085 316.472 160.024 316.2 159.902C315.93 159.78 315.705 159.594 315.526 159.344C315.35 159.094 315.262 158.778 315.262 158.398V151.886ZM320.325 156.062V160H319.319V151.273H320.325V154.477H320.41C320.563 154.139 320.793 153.871 321.1 153.672C321.41 153.47 321.822 153.369 322.336 153.369C322.782 153.369 323.173 153.459 323.508 153.638C323.843 153.814 324.103 154.085 324.288 154.452C324.475 154.815 324.569 155.278 324.569 155.841V160H323.563V155.909C323.563 155.389 323.428 154.987 323.158 154.703C322.891 154.416 322.521 154.273 322.046 154.273C321.717 154.273 321.421 154.342 321.16 154.482C320.901 154.621 320.697 154.824 320.546 155.091C320.398 155.358 320.325 155.682 320.325 156.062ZM329.153 160.136C328.522 160.136 327.978 159.997 327.521 159.719C327.066 159.438 326.716 159.045 326.468 158.543C326.224 158.037 326.102 157.449 326.102 156.778C326.102 156.108 326.224 155.517 326.468 155.006C326.716 154.491 327.059 154.091 327.5 153.804C327.943 153.514 328.46 153.369 329.051 153.369C329.392 153.369 329.728 153.426 330.061 153.54C330.393 153.653 330.696 153.838 330.968 154.094C331.241 154.347 331.458 154.682 331.62 155.099C331.782 155.517 331.863 156.031 331.863 156.642V157.068H326.818V156.199H330.841C330.841 155.83 330.767 155.5 330.619 155.21C330.474 154.92 330.267 154.692 329.997 154.524C329.73 154.357 329.414 154.273 329.051 154.273C328.65 154.273 328.304 154.372 328.011 154.571C327.721 154.767 327.498 155.023 327.342 155.338C327.186 155.653 327.108 155.991 327.108 156.352V156.932C327.108 157.426 327.193 157.845 327.363 158.189C327.537 158.53 327.777 158.79 328.083 158.969C328.39 159.145 328.747 159.233 329.153 159.233C329.417 159.233 329.656 159.196 329.869 159.122C330.085 159.045 330.271 158.932 330.427 158.781C330.583 158.628 330.704 158.437 330.789 158.21L331.761 158.483C331.659 158.812 331.487 159.102 331.245 159.352C331.004 159.599 330.706 159.793 330.35 159.932C329.995 160.068 329.596 160.136 329.153 160.136ZM341.404 154.92L340.501 155.176C340.444 155.026 340.36 154.879 340.25 154.737C340.142 154.592 339.994 154.473 339.806 154.379C339.619 154.286 339.379 154.239 339.086 154.239C338.686 154.239 338.352 154.331 338.085 154.516C337.821 154.697 337.689 154.929 337.689 155.21C337.689 155.46 337.779 155.658 337.961 155.803C338.143 155.947 338.427 156.068 338.814 156.165L339.785 156.403C340.37 156.545 340.806 156.763 341.093 157.055C341.38 157.345 341.524 157.719 341.524 158.176C341.524 158.551 341.416 158.886 341.2 159.182C340.987 159.477 340.689 159.71 340.305 159.881C339.922 160.051 339.475 160.136 338.967 160.136C338.299 160.136 337.747 159.991 337.309 159.702C336.872 159.412 336.595 158.989 336.478 158.432L337.433 158.193C337.524 158.545 337.696 158.81 337.949 158.986C338.204 159.162 338.538 159.25 338.95 159.25C339.419 159.25 339.791 159.151 340.066 158.952C340.345 158.75 340.484 158.509 340.484 158.227C340.484 158 340.404 157.81 340.245 157.656C340.086 157.5 339.842 157.384 339.512 157.307L338.422 157.051C337.822 156.909 337.382 156.689 337.1 156.391C336.822 156.089 336.683 155.713 336.683 155.261C336.683 154.892 336.787 154.565 336.994 154.281C337.204 153.997 337.49 153.774 337.85 153.612C338.214 153.45 338.626 153.369 339.086 153.369C339.734 153.369 340.243 153.511 340.612 153.795C340.984 154.08 341.248 154.455 341.404 154.92ZM345.697 160.136C345.106 160.136 344.587 159.996 344.141 159.714C343.698 159.433 343.352 159.04 343.102 158.534C342.854 158.028 342.731 157.437 342.731 156.761C342.731 156.08 342.854 155.484 343.102 154.976C343.352 154.467 343.698 154.072 344.141 153.791C344.587 153.51 345.106 153.369 345.697 153.369C346.288 153.369 346.805 153.51 347.248 153.791C347.694 154.072 348.04 154.467 348.288 154.976C348.538 155.484 348.663 156.08 348.663 156.761C348.663 157.437 348.538 158.028 348.288 158.534C348.04 159.04 347.694 159.433 347.248 159.714C346.805 159.996 346.288 160.136 345.697 160.136ZM345.697 159.233C346.146 159.233 346.515 159.118 346.805 158.888C347.094 158.658 347.309 158.355 347.448 157.98C347.587 157.605 347.657 157.199 347.657 156.761C347.657 156.324 347.587 155.916 347.448 155.538C347.309 155.161 347.094 154.855 346.805 154.622C346.515 154.389 346.146 154.273 345.697 154.273C345.248 154.273 344.879 154.389 344.589 154.622C344.299 154.855 344.085 155.161 343.945 155.538C343.806 155.916 343.737 156.324 343.737 156.761C343.737 157.199 343.806 157.605 343.945 157.98C344.085 158.355 344.299 158.658 344.589 158.888C344.879 159.118 345.248 159.233 345.697 159.233ZM351.203 151.273V160H350.198V151.273H351.203ZM353.045 160V153.455H354.051V160H353.045ZM353.557 152.364C353.361 152.364 353.192 152.297 353.05 152.163C352.911 152.03 352.841 151.869 352.841 151.682C352.841 151.494 352.911 151.334 353.05 151.2C353.192 151.067 353.361 151 353.557 151C353.753 151 353.92 151.067 354.06 151.2C354.202 151.334 354.273 151.494 354.273 151.682C354.273 151.869 354.202 152.03 354.06 152.163C353.92 152.297 353.753 152.364 353.557 152.364ZM358.552 160.136C357.939 160.136 357.41 159.991 356.967 159.702C356.524 159.412 356.183 159.013 355.944 158.504C355.706 157.996 355.586 157.415 355.586 156.761C355.586 156.097 355.708 155.51 355.953 155.001C356.2 154.49 356.544 154.091 356.984 153.804C357.427 153.514 357.944 153.369 358.535 153.369C358.995 153.369 359.41 153.455 359.779 153.625C360.149 153.795 360.451 154.034 360.687 154.341C360.923 154.648 361.069 155.006 361.126 155.415H360.12C360.044 155.116 359.873 154.852 359.609 154.622C359.348 154.389 358.995 154.273 358.552 154.273C358.16 154.273 357.816 154.375 357.521 154.58C357.228 154.781 357 155.067 356.835 155.436C356.673 155.803 356.592 156.233 356.592 156.727C356.592 157.233 356.672 157.673 356.831 158.048C356.993 158.423 357.22 158.714 357.512 158.922C357.808 159.129 358.154 159.233 358.552 159.233C358.814 159.233 359.051 159.188 359.264 159.097C359.477 159.006 359.657 158.875 359.805 158.705C359.953 158.534 360.058 158.33 360.12 158.091H361.126C361.069 158.477 360.929 158.825 360.704 159.135C360.483 159.442 360.189 159.686 359.822 159.868C359.458 160.047 359.035 160.136 358.552 160.136ZM362.596 160V153.455H363.602V160H362.596ZM363.108 152.364C362.912 152.364 362.743 152.297 362.6 152.163C362.461 152.03 362.392 151.869 362.392 151.682C362.392 151.494 362.461 151.334 362.6 151.2C362.743 151.067 362.912 151 363.108 151C363.304 151 363.471 151.067 363.61 151.2C363.752 151.334 363.824 151.494 363.824 151.682C363.824 151.869 363.752 152.03 363.61 152.163C363.471 152.297 363.304 152.364 363.108 152.364ZM368.29 153.455V154.307H364.898V153.455H368.29ZM365.887 151.886H366.893V158.125C366.893 158.409 366.934 158.622 367.016 158.764C367.102 158.903 367.21 158.997 367.34 159.045C367.474 159.091 367.614 159.114 367.762 159.114C367.873 159.114 367.964 159.108 368.035 159.097C368.106 159.082 368.163 159.071 368.205 159.062L368.41 159.966C368.342 159.991 368.246 160.017 368.124 160.043C368.002 160.071 367.847 160.085 367.66 160.085C367.376 160.085 367.097 160.024 366.825 159.902C366.555 159.78 366.33 159.594 366.151 159.344C365.975 159.094 365.887 158.778 365.887 158.398V151.886ZM372.392 160.136C371.801 160.136 371.283 159.996 370.837 159.714C370.393 159.433 370.047 159.04 369.797 158.534C369.55 158.028 369.426 157.437 369.426 156.761C369.426 156.08 369.55 155.484 369.797 154.976C370.047 154.467 370.393 154.072 370.837 153.791C371.283 153.51 371.801 153.369 372.392 153.369C372.983 153.369 373.5 153.51 373.943 153.791C374.389 154.072 374.736 154.467 374.983 154.976C375.233 155.484 375.358 156.08 375.358 156.761C375.358 157.437 375.233 158.028 374.983 158.534C374.736 159.04 374.389 159.433 373.943 159.714C373.5 159.996 372.983 160.136 372.392 160.136ZM372.392 159.233C372.841 159.233 373.21 159.118 373.5 158.888C373.79 158.658 374.004 158.355 374.143 157.98C374.283 157.605 374.352 157.199 374.352 156.761C374.352 156.324 374.283 155.916 374.143 155.538C374.004 155.161 373.79 154.855 373.5 154.622C373.21 154.389 372.841 154.273 372.392 154.273C371.943 154.273 371.574 154.389 371.284 154.622C370.994 154.855 370.78 155.161 370.641 155.538C370.501 155.916 370.432 156.324 370.432 156.761C370.432 157.199 370.501 157.605 370.641 157.98C370.78 158.355 370.994 158.658 371.284 158.888C371.574 159.118 371.943 159.233 372.392 159.233ZM376.893 160V153.455H377.865V154.443H377.933C378.052 154.119 378.268 153.857 378.581 153.655C378.893 153.453 379.245 153.352 379.637 153.352C379.711 153.352 379.804 153.354 379.914 153.357C380.025 153.359 380.109 153.364 380.166 153.369V154.392C380.132 154.384 380.054 154.371 379.931 154.354C379.812 154.334 379.686 154.324 379.552 154.324C379.234 154.324 378.95 154.391 378.7 154.524C378.453 154.655 378.257 154.837 378.112 155.07C377.97 155.3 377.899 155.562 377.899 155.858V160H376.893ZM381.341 160.068C381.131 160.068 380.95 159.993 380.8 159.842C380.649 159.692 380.574 159.511 380.574 159.301C380.574 159.091 380.649 158.911 380.8 158.76C380.95 158.609 381.131 158.534 381.341 158.534C381.551 158.534 381.732 158.609 381.882 158.76C382.033 158.911 382.108 159.091 382.108 159.301C382.108 159.44 382.072 159.568 382.001 159.685C381.933 159.801 381.841 159.895 381.724 159.966C381.611 160.034 381.483 160.068 381.341 160.068Z" fill="#6B7280"/>
<path d="M399.331 154.217H397.737C397.692 153.956 397.608 153.724 397.486 153.523C397.364 153.318 397.212 153.145 397.03 153.003C396.848 152.861 396.641 152.754 396.408 152.683C396.178 152.609 395.929 152.572 395.662 152.572C395.188 152.572 394.767 152.692 394.401 152.93C394.034 153.166 393.747 153.513 393.54 153.97C393.332 154.425 393.229 154.98 393.229 155.636C393.229 156.304 393.332 156.866 393.54 157.324C393.75 157.778 394.037 158.122 394.401 158.355C394.767 158.585 395.186 158.7 395.658 158.7C395.919 158.7 396.163 158.666 396.391 158.598C396.621 158.527 396.827 158.423 397.009 158.287C397.193 158.151 397.348 157.983 397.473 157.784C397.601 157.585 397.689 157.358 397.737 157.102L399.331 157.111C399.271 157.526 399.142 157.915 398.943 158.278C398.747 158.642 398.49 158.963 398.172 159.241C397.854 159.517 397.482 159.733 397.055 159.889C396.629 160.043 396.156 160.119 395.636 160.119C394.869 160.119 394.185 159.942 393.582 159.587C392.98 159.232 392.506 158.719 392.159 158.048C391.813 157.378 391.639 156.574 391.639 155.636C391.639 154.696 391.814 153.892 392.163 153.224C392.513 152.554 392.989 152.041 393.591 151.686C394.193 151.331 394.875 151.153 395.636 151.153C396.122 151.153 396.574 151.222 396.991 151.358C397.409 151.494 397.781 151.695 398.108 151.959C398.435 152.22 398.703 152.541 398.913 152.922C399.126 153.3 399.266 153.732 399.331 154.217ZM402.594 160.132C402.179 160.132 401.806 160.058 401.473 159.911C401.144 159.76 400.882 159.538 400.689 159.246C400.499 158.953 400.404 158.592 400.404 158.163C400.404 157.794 400.472 157.489 400.608 157.247C400.745 157.006 400.931 156.812 401.167 156.668C401.402 156.523 401.668 156.413 401.963 156.339C402.262 156.263 402.57 156.207 402.888 156.173C403.272 156.134 403.583 156.098 403.821 156.067C404.06 156.033 404.233 155.982 404.341 155.913C404.452 155.842 404.507 155.733 404.507 155.585V155.56C404.507 155.239 404.412 154.99 404.222 154.814C404.032 154.638 403.757 154.55 403.4 154.55C403.022 154.55 402.722 154.632 402.5 154.797C402.282 154.962 402.134 155.156 402.057 155.381L400.617 155.176C400.73 154.778 400.918 154.446 401.179 154.179C401.441 153.909 401.76 153.707 402.138 153.574C402.516 153.438 402.934 153.369 403.391 153.369C403.706 153.369 404.02 153.406 404.333 153.48C404.645 153.554 404.931 153.676 405.189 153.847C405.448 154.014 405.655 154.243 405.811 154.533C405.971 154.822 406.05 155.185 406.05 155.619V160H404.567V159.101H404.516C404.422 159.283 404.29 159.453 404.12 159.612C403.952 159.768 403.74 159.895 403.485 159.991C403.232 160.085 402.935 160.132 402.594 160.132ZM402.995 158.999C403.304 158.999 403.573 158.937 403.8 158.815C404.027 158.69 404.202 158.526 404.324 158.321C404.449 158.116 404.512 157.893 404.512 157.652V156.881C404.463 156.92 404.381 156.957 404.265 156.991C404.151 157.026 404.023 157.055 403.881 157.081C403.739 157.107 403.598 157.129 403.459 157.149C403.32 157.169 403.199 157.186 403.097 157.2C402.867 157.232 402.661 157.283 402.479 157.354C402.297 157.425 402.154 157.524 402.049 157.652C401.944 157.777 401.891 157.939 401.891 158.138C401.891 158.422 401.995 158.636 402.202 158.781C402.409 158.926 402.674 158.999 402.995 158.999ZM409.144 156.165V160H407.601V153.455H409.076V154.567H409.152C409.303 154.2 409.543 153.909 409.873 153.693C410.205 153.477 410.615 153.369 411.104 153.369C411.556 153.369 411.949 153.466 412.284 153.659C412.623 153.852 412.884 154.132 413.069 154.499C413.256 154.865 413.348 155.31 413.346 155.832V160H411.803V156.071C411.803 155.634 411.689 155.291 411.462 155.044C411.238 154.797 410.926 154.673 410.529 154.673C410.259 154.673 410.019 154.733 409.809 154.852C409.601 154.969 409.438 155.138 409.319 155.359C409.202 155.581 409.144 155.849 409.144 156.165ZM417.769 160.128C417.115 160.128 416.554 159.984 416.086 159.697C415.62 159.411 415.26 159.014 415.007 158.509C414.757 158 414.632 157.415 414.632 156.753C414.632 156.088 414.76 155.501 415.016 154.993C415.272 154.482 415.632 154.084 416.098 153.8C416.567 153.513 417.121 153.369 417.76 153.369C418.292 153.369 418.762 153.467 419.171 153.663C419.583 153.857 419.911 154.131 420.155 154.486C420.4 154.838 420.539 155.25 420.573 155.722H419.098C419.039 155.406 418.897 155.143 418.672 154.933C418.451 154.72 418.154 154.614 417.782 154.614C417.466 154.614 417.189 154.699 416.951 154.869C416.712 155.037 416.526 155.278 416.392 155.594C416.262 155.909 416.196 156.287 416.196 156.727C416.196 157.173 416.262 157.557 416.392 157.878C416.523 158.196 416.706 158.442 416.942 158.615C417.181 158.786 417.461 158.871 417.782 158.871C418.009 158.871 418.212 158.828 418.391 158.743C418.573 158.655 418.725 158.528 418.847 158.364C418.969 158.199 419.053 157.999 419.098 157.763H420.573C420.536 158.226 420.4 158.636 420.164 158.994C419.928 159.349 419.607 159.628 419.201 159.83C418.794 160.028 418.317 160.128 417.769 160.128ZM424.737 160.128C424.081 160.128 423.514 159.991 423.037 159.719C422.563 159.443 422.197 159.054 421.942 158.551C421.686 158.045 421.558 157.45 421.558 156.766C421.558 156.092 421.686 155.501 421.942 154.993C422.2 154.482 422.561 154.084 423.024 153.8C423.487 153.513 424.031 153.369 424.656 153.369C425.06 153.369 425.44 153.435 425.798 153.565C426.159 153.693 426.477 153.892 426.753 154.162C427.031 154.432 427.25 154.776 427.409 155.193C427.568 155.608 427.648 156.102 427.648 156.676V157.149H422.283V156.109H426.169C426.166 155.814 426.102 155.551 425.977 155.321C425.852 155.088 425.678 154.905 425.453 154.771C425.232 154.638 424.973 154.571 424.678 154.571C424.362 154.571 424.085 154.648 423.847 154.801C423.608 154.952 423.422 155.151 423.288 155.398C423.158 155.642 423.091 155.911 423.088 156.203V157.111C423.088 157.491 423.158 157.818 423.297 158.091C423.436 158.361 423.631 158.568 423.881 158.713C424.131 158.855 424.423 158.926 424.759 158.926C424.983 158.926 425.186 158.895 425.368 158.832C425.55 158.767 425.707 158.672 425.841 158.547C425.974 158.422 426.075 158.267 426.143 158.082L427.584 158.244C427.493 158.625 427.32 158.957 427.064 159.241C426.811 159.523 426.487 159.741 426.092 159.898C425.697 160.051 425.246 160.128 424.737 160.128ZM430.495 151.273V160H428.953V151.273H430.495ZM435.058 160V153.455H436.554V154.545H436.622C436.741 154.168 436.946 153.876 437.236 153.672C437.528 153.464 437.862 153.361 438.237 153.361C438.322 153.361 438.418 153.365 438.523 153.374C438.631 153.379 438.72 153.389 438.791 153.403V154.822C438.726 154.8 438.622 154.78 438.48 154.763C438.341 154.743 438.206 154.733 438.075 154.733C437.794 154.733 437.541 154.794 437.317 154.916C437.095 155.036 436.92 155.202 436.793 155.415C436.665 155.628 436.601 155.874 436.601 156.152V160H435.058ZM442.444 160.128C441.788 160.128 441.221 159.991 440.744 159.719C440.27 159.443 439.904 159.054 439.649 158.551C439.393 158.045 439.265 157.45 439.265 156.766C439.265 156.092 439.393 155.501 439.649 154.993C439.907 154.482 440.268 154.084 440.731 153.8C441.194 153.513 441.738 153.369 442.363 153.369C442.767 153.369 443.147 153.435 443.505 153.565C443.866 153.693 444.184 153.892 444.46 154.162C444.738 154.432 444.957 154.776 445.116 155.193C445.275 155.608 445.355 156.102 445.355 156.676V157.149H439.99V156.109H443.876C443.873 155.814 443.809 155.551 443.684 155.321C443.559 155.088 443.385 154.905 443.16 154.771C442.939 154.638 442.68 154.571 442.385 154.571C442.069 154.571 441.792 154.648 441.554 154.801C441.315 154.952 441.129 155.151 440.995 155.398C440.865 155.642 440.798 155.911 440.795 156.203V157.111C440.795 157.491 440.865 157.818 441.004 158.091C441.143 158.361 441.338 158.568 441.588 158.713C441.838 158.855 442.13 158.926 442.466 158.926C442.69 158.926 442.893 158.895 443.075 158.832C443.257 158.767 443.414 158.672 443.548 158.547C443.681 158.422 443.782 158.267 443.85 158.082L445.291 158.244C445.2 158.625 445.027 158.957 444.771 159.241C444.518 159.523 444.194 159.741 443.799 159.898C443.404 160.051 442.953 160.128 442.444 160.128ZM451.028 162.455V158.969H450.964C450.884 159.128 450.769 159.297 450.619 159.476C450.468 159.652 450.269 159.803 450.022 159.928C449.775 160.053 449.464 160.115 449.089 160.115C448.575 160.115 448.114 159.983 447.708 159.719C447.302 159.455 446.981 159.071 446.745 158.568C446.509 158.065 446.391 157.455 446.391 156.736C446.391 156.009 446.511 155.395 446.749 154.895C446.991 154.392 447.316 154.013 447.725 153.757C448.134 153.499 448.59 153.369 449.093 153.369C449.477 153.369 449.792 153.435 450.039 153.565C450.286 153.693 450.482 153.848 450.627 154.03C450.772 154.209 450.884 154.378 450.964 154.537H451.058V153.455H452.575V162.455H451.028ZM449.519 158.849C449.846 158.849 450.124 158.761 450.354 158.585C450.585 158.406 450.759 158.158 450.879 157.839C450.998 157.521 451.058 157.151 451.058 156.727C451.058 156.304 450.998 155.936 450.879 155.624C450.762 155.311 450.589 155.068 450.359 154.895C450.131 154.722 449.852 154.635 449.519 154.635C449.175 154.635 448.888 154.724 448.658 154.903C448.428 155.082 448.255 155.33 448.138 155.645C448.022 155.96 447.964 156.321 447.964 156.727C447.964 157.136 448.022 157.501 448.138 157.822C448.258 158.141 448.433 158.392 448.663 158.577C448.896 158.759 449.181 158.849 449.519 158.849ZM458.332 157.247V153.455H459.874V160H458.379V158.837H458.31C458.163 159.203 457.92 159.503 457.582 159.736C457.246 159.969 456.833 160.085 456.342 160.085C455.913 160.085 455.533 159.99 455.204 159.8C454.877 159.607 454.621 159.327 454.437 158.96C454.252 158.591 454.16 158.145 454.16 157.622V153.455H455.702V157.384C455.702 157.798 455.816 158.128 456.043 158.372C456.271 158.616 456.569 158.739 456.938 158.739C457.165 158.739 457.386 158.683 457.599 158.572C457.812 158.462 457.987 158.297 458.123 158.078C458.262 157.857 458.332 157.58 458.332 157.247ZM464.358 160.128C463.702 160.128 463.135 159.991 462.658 159.719C462.184 159.443 461.819 159.054 461.563 158.551C461.307 158.045 461.179 157.45 461.179 156.766C461.179 156.092 461.307 155.501 461.563 154.993C461.821 154.482 462.182 154.084 462.645 153.8C463.108 153.513 463.652 153.369 464.277 153.369C464.681 153.369 465.061 153.435 465.419 153.565C465.78 153.693 466.098 153.892 466.374 154.162C466.652 154.432 466.871 154.776 467.03 155.193C467.189 155.608 467.269 156.102 467.269 156.676V157.149H461.904V156.109H465.79C465.787 155.814 465.723 155.551 465.598 155.321C465.473 155.088 465.299 154.905 465.074 154.771C464.853 154.638 464.594 154.571 464.299 154.571C463.983 154.571 463.706 154.648 463.468 154.801C463.229 154.952 463.043 155.151 462.909 155.398C462.779 155.642 462.712 155.911 462.709 156.203V157.111C462.709 157.491 462.779 157.818 462.918 158.091C463.057 158.361 463.252 158.568 463.502 158.713C463.752 158.855 464.044 158.926 464.38 158.926C464.604 158.926 464.807 158.895 464.989 158.832C465.171 158.767 465.328 158.672 465.462 158.547C465.596 158.422 465.696 158.267 465.765 158.082L467.205 158.244C467.114 158.625 466.941 158.957 466.685 159.241C466.432 159.523 466.108 159.741 465.713 159.898C465.319 160.051 464.867 160.128 464.358 160.128ZM473.747 155.185L472.341 155.338C472.301 155.196 472.232 155.062 472.132 154.938C472.036 154.812 471.905 154.712 471.74 154.635C471.575 154.558 471.374 154.52 471.135 154.52C470.814 154.52 470.544 154.589 470.325 154.729C470.109 154.868 470.003 155.048 470.006 155.27C470.003 155.46 470.072 155.615 470.214 155.734C470.359 155.854 470.598 155.952 470.93 156.028L472.047 156.267C472.666 156.401 473.126 156.612 473.428 156.902C473.732 157.192 473.885 157.571 473.888 158.04C473.885 158.452 473.764 158.815 473.526 159.131C473.29 159.443 472.962 159.687 472.541 159.864C472.121 160.04 471.638 160.128 471.092 160.128C470.291 160.128 469.646 159.96 469.158 159.625C468.669 159.287 468.378 158.817 468.284 158.214L469.788 158.07C469.857 158.365 470.001 158.588 470.223 158.739C470.445 158.889 470.733 158.964 471.088 158.964C471.455 158.964 471.749 158.889 471.97 158.739C472.195 158.588 472.307 158.402 472.307 158.18C472.307 157.993 472.234 157.838 472.089 157.716C471.947 157.594 471.726 157.5 471.425 157.435L470.308 157.2C469.68 157.07 469.216 156.849 468.915 156.54C468.614 156.227 468.464 155.832 468.467 155.355C468.464 154.952 468.574 154.602 468.795 154.307C469.02 154.009 469.331 153.778 469.729 153.616C470.129 153.452 470.591 153.369 471.114 153.369C471.881 153.369 472.484 153.533 472.925 153.859C473.368 154.186 473.642 154.628 473.747 155.185ZM478.428 153.455V154.648H474.665V153.455H478.428ZM475.594 151.886H477.137V158.031C477.137 158.239 477.168 158.398 477.231 158.509C477.296 158.616 477.381 158.69 477.487 158.73C477.592 158.77 477.708 158.79 477.836 158.79C477.933 158.79 478.021 158.783 478.1 158.768C478.183 158.754 478.245 158.741 478.288 158.73L478.548 159.936C478.465 159.964 478.347 159.996 478.194 160.03C478.043 160.064 477.859 160.084 477.64 160.089C477.254 160.101 476.906 160.043 476.596 159.915C476.286 159.784 476.04 159.582 475.859 159.31C475.68 159.037 475.592 158.696 475.594 158.287V151.886Z" fill="black"/>
<path d="M391 162.386H478.927V163.205H391V162.386Z" fill="black"/>
</g>
<defs>
<clipPath id="clip0_55152_46600">
<rect width="515" height="192" fill="white"/>
</clipPath>
<clipPath id="clip1_55152_46600">
<rect width="16" height="16" fill="white" transform="translate(20 66)"/>
</clipPath>
</defs>
</svg>
